<svg version="1.1"
     baseProfile="full"
     width="60" height="52"
     class="hex"
     xmlns="http://www.w3.org/2000/svg">

  <!-- starts at the top, goes clockwise to top left, finishes off with top layer -->

  <g>
    <path class="side side-one" d="M 39.062,3.842 47.697,9.069 22.969,9.069 14.334,3.842 z" />
    <path class="side side-two" d="M 39.062,3.842 47.697,9.069 59.666,30.693 51.031,25.467 z" />
    <path class="side side-three" d="M 51.031,25.467 59.666,30.693 46.908,52.318 38.273,47.092 z" />
    <path class="side side-four" d="M 38.273,47.092 46.908,52.318 22.18,52.318 13.544,47.092 z" />
    <path class="side side-five" d="M 1.575,25.467 10.21,30.693 22.18,52.318 13.544,47.092 z" />
    <path class="side side-six" d="M 14.334,3.842 22.969,9.069 10.21,30.693 1.575,25.467 z" />
    <path class="top" d="M39.209,3.6L14.196,3.6,1.292,25.467,13.398,47.343,38.411,47.343,51.315,25.466z" />
  </g>
</svg>
