<?xml version="1.0" standalone="no"?>
<!DOCTYPE svg PUBLIC "-//W3C//DTD SVG 1.1//EN" "http://www.w3.org/Graphics/SVG/1.1/DTD/svg11.dtd" >
<svg xmlns="http://www.w3.org/2000/svg">
<metadata></metadata>
<defs>
<font id="pancetta_serif_proregular" horiz-adv-x="539" >
<font-face units-per-em="1000" ascent="750" descent="-250" />
<missing-glyph horiz-adv-x="226" />
<glyph unicode="&#xfb01;" horiz-adv-x="585" d="M98 50v398l-71 11q-4 7 -4 17l4 17q24 6 71 6v64q0 70 33 106t107 36q45 0 89 -11q4 -11 4 -25l-4 -26q-25 9 -60 9q-47 0 -65.5 -21t-18.5 -68v-63q88 2 251 2l53 -5v-447l71 -11q4 -7 4 -17l-4 -17q-38 -7 -114 -7q-33 0 -61.5 2t-40.5 4l-11 1q-4 7 -4 17l4 17l70 11 v400l-218 -3v-397l71 -11q4 -7 4 -17l-4 -17q-38 -7 -114 -7q-33 0 -61.5 2t-40.5 4l-11 1q-4 7 -4 17l4 17zM487 697v-104q-21 -5 -43 -5l-43 5v104q21 5 43 5z" />
<glyph unicode="&#xfb02;" horiz-adv-x="585" d="M98 50v398l-71 11q-4 7 -4 17l4 17q24 6 71 6v64q0 142 146 142q46 0 91 -9q48 6 99 6l53 -5v-647l71 -11q4 -7 4 -17l-4 -17q-38 -7 -114 -7q-33 0 -61.5 2t-40.5 4l-11 1q-4 7 -4 17l4 17l70 11v598l-102 10q-116 0 -116 -95v-63h144q4 -11 4 -27l-4 -26h-144v-397 l71 -11q4 -7 4 -17l-4 -17q-38 -7 -114 -7q-33 0 -61.5 2t-40.5 4l-11 1q-4 7 -4 17l4 17z" />
<glyph unicode="&#xfb03;" horiz-adv-x="888" d="M98 50v398l-71 11q-4 7 -4 17l4 17q24 6 71 6v64q0 70 33 106t107 36q45 0 89 -11q4 -11 4 -25l-4 -26q-25 9 -60 9q-47 0 -65.5 -21t-18.5 -68v-63h218v63q0 70 33 106t108 36q48 0 88 -11q5 -11 5 -25l-5 -26q-22 9 -60 9q-46 0 -64.5 -21t-18.5 -68v-63q94 2 251 2 l53 -5v-447l71 -11q3 -7 3 -17l-3 -17q-39 -7 -114 -7q-33 0 -61.5 2t-40.5 4l-12 1q-3 7 -3 17l3 17l71 11v400l-218 -3v-397l71 -11q4 -7 4 -17l-4 -17q-38 -7 -114 -7q-33 0 -61.5 2t-40.5 4l-11 1q-4 7 -4 17l4 17l70 11v397h-218v-397l71 -11q4 -7 4 -17l-4 -17 q-38 -7 -114 -7q-33 0 -61.5 2t-40.5 4l-11 1q-4 7 -4 17l4 17zM791 697v-104q-22 -5 -43 -5l-43 5v104q21 5 43 5z" />
<glyph unicode="&#xfb04;" horiz-adv-x="888" d="M98 50v398l-71 11q-4 7 -4 17l4 17q24 6 71 6v64q0 70 33 106t107 36q45 0 89 -11q4 -11 4 -25l-4 -26q-25 9 -60 9q-47 0 -65.5 -21t-18.5 -68v-63h218v63q0 142 147 142q46 0 91 -9q48 6 99 6l53 -5v-647l71 -11q3 -7 3 -17l-3 -17q-39 -7 -114 -7q-33 0 -61.5 2 t-40.5 4l-12 1q-3 7 -3 17l3 17l71 11v598l-102 10q-116 0 -116 -95v-63h143q5 -11 5 -27l-5 -26h-143v-397l71 -11q4 -7 4 -17l-4 -17q-38 -7 -114 -7q-33 0 -61.5 2t-40.5 4l-11 1q-4 7 -4 17l4 17l70 11v397h-218v-397l71 -11q4 -7 4 -17l-4 -17q-38 -7 -114 -7 q-33 0 -61.5 2t-40.5 4l-11 1q-4 7 -4 17l4 17z" />
<glyph horiz-adv-x="0" />
<glyph horiz-adv-x="333" />
<glyph unicode=" "  horiz-adv-x="226" />
<glyph unicode="&#x09;" horiz-adv-x="226" />
<glyph unicode="&#xa0;" horiz-adv-x="226" />
<glyph unicode="!" horiz-adv-x="215" d="M152 103v-100q-22 -5 -44 -5l-44 5v100q21 5 44 5zM151 697v-487q-22 -5 -43 -5l-43 5v487q21 5 43 5z" />
<glyph unicode="&#x22;" horiz-adv-x="311" d="M126 697l-6 -202q-13 -4 -27 -4l-26 4l-6 202q15 5 32 5zM251 697l-7 -202q-13 -4 -26 -4l-26 4l-7 202q16 5 33 5z" />
<glyph unicode="#" horiz-adv-x="546" d="M478 183h-66l-16 -180q-17 -5 -34 -5l-35 5l15 180h-170l-16 -180q-17 -5 -34 -5l-35 5l15 180h-58q-5 11 -5 27l5 27h63l19 226h-58q-5 11 -5 27l5 27h63l16 180q17 5 35 5l34 -5l-15 -180h170l16 180q17 5 35 5l34 -5l-15 -180h61q5 -11 5 -27l-5 -27h-67l-19 -226h62 q5 -11 5 -27zM195 463l-19 -226h171l19 226h-171z" />
<glyph unicode="$" horiz-adv-x="573" d="M126 96q6 -5 18 -12.5t53.5 -19.5t87.5 -12q79 0 111.5 26t32.5 84v47q0 42 -37.5 68t-91 40.5t-107 30.5t-91 51.5t-37.5 91.5v47q0 76 44 117t144 48v94q17 5 34 5l35 -5v-93q58 -3 103 -19.5t61 -31.5l16 -15q0 -32 -2 -63t-4 -46l-2 -15q-11 -3 -26 -3l-26 3l-13 90 q-5 5 -15 12.5t-46 19.5t-76 12q-75 0 -106.5 -26.5t-31.5 -83.5v-47q0 -33 27 -56t67.5 -34t88 -26t88 -31.5t67.5 -51t27 -83.5v-47q0 -77 -47 -118.5t-150 -46.5v-94q-17 -5 -35 -5l-34 5v93q-64 3 -113.5 19.5t-67.5 31.5l-18 15q0 32 2 63t4 46l1 15q11 3 26 3l26 -3z " />
<glyph unicode="%" horiz-adv-x="765" d="M51 492v100q0 55 34 83t110 28q145 0 145 -111v-100q0 -112 -145 -112q-144 0 -144 112zM426 108v100q0 112 144 112q145 0 145 -112v-100q0 -111 -145 -111q-76 0 -110 28t-34 83zM644 697l-447 -694q-20 -5 -38 -5l-38 5l447 694q18 5 38 5zM116 592v-100 q0 -38 18 -54.5t61 -16.5t61 16.5t18 54.5v100q0 38 -18 54.5t-61 16.5t-61 -16.5t-18 -54.5zM491 208v-100q0 -38 18 -54.5t61 -16.5t61 16.5t18 54.5v100q0 38 -18 54.5t-61 16.5t-61 -16.5t-18 -54.5z" />
<glyph unicode="&#x26;" horiz-adv-x="705" d="M640 447h-139v-310q0 -47 18.5 -68t65.5 -21q22 0 55 10q4 -11 4 -24l-4 -25q-51 -14 -79 -14q-67 0 -98 34q-2 0 -25 -9t-61 -17t-84 -8q-244 0 -244 172v49q0 114 120 144q-107 30 -107 139v37q0 83 53 126t169 43q119 0 168 -40.5t49 -121.5v-43h139q5 -11 5 -27z M287 385h48q4 -11 4 -27l-4 -26h-48q-83 0 -117.5 -28t-34.5 -88v-49q0 -62 35.5 -90.5t122.5 -28.5q75 0 139 29q-8 23 -8 60v406q0 57 -31 83t-109 26q-74 0 -105 -28t-31 -88v-37q0 -59 31.5 -86.5t107.5 -27.5z" />
<glyph unicode="'" horiz-adv-x="187" d="M126 697l-6 -202q-13 -4 -27 -4l-26 4l-6 202q15 5 32 5z" />
<glyph unicode="(" horiz-adv-x="290" d="M249 -97q4 -10 4 -26l-4 -27q-97 0 -140.5 40t-43.5 118v586q0 78 43.5 118t140.5 40q4 -12 4 -27l-4 -26q-57 0 -81 -25t-24 -80v-586q0 -55 24 -80t81 -25z" />
<glyph unicode=")" horiz-adv-x="290" d="M42 699q-5 10 -5 26l5 27q96 0 139.5 -40t43.5 -118v-586q0 -78 -43.5 -118t-139.5 -40q-5 12 -5 27l5 26q56 0 80 25t24 80v586q0 55 -24 80t-80 25z" />
<glyph unicode="*" horiz-adv-x="482" d="M62 588l150 -54l-4 163q16 5 33 5l33 -5l-5 -162l151 53q10 -11 15 -27q3 -7 4 -14.5t1 -11.5v-4l-153 -47l98 -130q-10 -12 -23 -21l-30 -14l-91 134l-91 -134q-15 5 -29 13q-6 4 -12 10t-9 10l-2 3l96 128l-152 47q-1 15 5 31z" />
<glyph unicode="+" horiz-adv-x="418" d="M238 463v-136h134q5 -11 5 -27l-5 -27h-134v-135q-11 -5 -29 -5l-30 5v135h-133q-5 11 -5 27l5 27h133v136q12 4 30 4z" />
<glyph unicode="," horiz-adv-x="211" d="M146 103q0 -65 -18.5 -116t-37.5 -70l-18 -19q-13 -5 -26 -5l-27 5q5 7 12.5 22t20.5 68t13 115q20 5 41 5z" />
<glyph unicode="-" horiz-adv-x="298" d="M252 258h-206q-5 10 -5 26l5 27h206q4 -11 4 -27z" />
<glyph unicode="." horiz-adv-x="211" d="M148 103v-100q-22 -5 -42 -5l-42 5v100q20 5 42 5z" />
<glyph unicode="/" horiz-adv-x="396" d="M359 697l-237 -694q-21 -5 -42 -5l-41 5l237 694q20 5 41 5z" />
<glyph unicode="0" horiz-adv-x="569" d="M60 153v394q0 158 224 158q118 0 171.5 -40t53.5 -118v-394q0 -78 -53.5 -118t-171.5 -40q-224 0 -224 158zM146 547v-394q0 -55 31.5 -80t106.5 -25q76 0 107.5 25t31.5 80v394q0 55 -31.5 80t-107.5 25q-75 0 -106.5 -25t-31.5 -80z" />
<glyph unicode="1" horiz-adv-x="413" d="M174 50v588l-121 -33q-4 8 -4 21l4 23l145 53l61 -5v-647l105 -11q4 -7 4 -17l-4 -17q-49 -7 -147 -7q-44 0 -81 2t-52 4l-15 1q-4 7 -4 17l4 17z" />
<glyph unicode="2" horiz-adv-x="550" d="M131 604l-13 -90q-11 -3 -26 -3l-26 3q-8 52 -8 124q2 3 7 7.5t23.5 16t40.5 20.5t59.5 16t80.5 7q118 0 169 -42t51 -125v-47q0 -51 -19 -89t-50 -60.5t-68 -41t-74 -35t-68 -36.5t-50 -52t-19 -75v-49h297l14 77q7 3 18 3l18 -3q7 -29 7 -96l-5 -34h-232 q-54 0 -104 1.5t-74 3.5l-23 2v95q0 59 26 102t64.5 65.5t83.5 44.5t83.5 40.5t64.5 53.5t26 83v47q0 59 -31 86.5t-105 27.5q-40 0 -74.5 -12t-48.5 -24z" />
<glyph unicode="3" horiz-adv-x="541" d="M62 700h411q4 -11 4 -27l-4 -26l-203 -249q129 0 177 -44.5t48 -125.5v-61q0 -84 -57 -128t-183 -44q-59 0 -109 10.5t-70 21.5l-21 11q-6 11 -6 27q0 8 1.5 14.5t3.5 9.5l1 3q8 -5 24 -12.5t67.5 -19.5t107.5 -12q85 0 120.5 28.5t35.5 90.5v61q0 62 -37 90t-124 28h-65 q-4 10 -4 27l4 28l195 244h-265l-13 -75q-7 -3 -18 -3l-19 3q-6 29 -6 96z" />
<glyph unicode="4" horiz-adv-x="547" d="M445 497v-274l69 -9q4 -9 4 -21l-4 -22q-20 -4 -67 -4v-164q-21 -5 -42 -5l-42 5v164h-309q-5 11 -5 27l187 503q16 5 41 5l44 -5l-177 -474h220v274q20 5 41 5z" />
<glyph unicode="5" d="M163 647l-11 -236h100q129 0 179.5 -44.5t50.5 -128.5v-71q0 -172 -233 -172q-59 0 -109 10.5t-70 21.5l-21 11q-6 11 -6 27q0 8 1.5 14.5t3.5 9.5l1 3q8 -5 24 -12.5t67.5 -19.5t107.5 -12q81 0 114.5 28.5t33.5 90.5v71q0 61 -33 89.5t-111 28.5h-175q-4 11 -4 28 l17 309q80 7 201 7h148q5 -14 5 -34q0 -30 -2 -54t-4 -33l-1 -9q-7 -3 -18 -3l-19 3l-13 77h-224z" />
<glyph unicode="6" horiz-adv-x="566" d="M148 393q8 5 22.5 13t63.5 21.5t103 13.5q90 0 129.5 -40t39.5 -118v-130q0 -78 -53 -118t-169 -40t-168.5 40t-52.5 118v372q0 87 55 133t180 46q48 0 91 -6t62 -12l19 -7q4 -10 4 -26q0 -5 -0.5 -9.5t-1 -7.5t-1 -5.5t-1.5 -4.5v-1q0 1 -20.5 7t-64 12.5t-91.5 6.5 q-80 0 -113 -30.5t-33 -94.5v-133zM148 338v-185q0 -55 31 -80t105 -25t105 25t31 80v130q0 55 -24.5 80t-84.5 25q-52 0 -93 -12.5t-56 -25.5z" />
<glyph unicode="7" horiz-adv-x="520" d="M48 700h425q4 -11 4 -27l-252 -671q-17 -4 -43 -4l-46 4l247 643h-284l-13 -75q-7 -3 -18 -3l-18 3q-7 29 -7 96z" />
<glyph unicode="8" horiz-adv-x="569" d="M73 490v57q0 78 50 118t161 40t161.5 -40t50.5 -118v-57q0 -99 -89 -129q104 -30 104 -133v-75q0 -78 -54 -118t-173 -40t-172.5 40t-53.5 118v75q0 103 103 133q-88 30 -88 129zM143 228v-75q0 -55 32 -80t109 -25t109 25t32 80v75q0 55 -32 79.5t-109 24.5t-109 -24.5 t-32 -79.5zM158 547v-57q0 -55 29 -80t97 -25q69 0 97.5 25t28.5 80v57q0 55 -28.5 80t-97.5 25q-68 0 -97 -25t-29 -80z" />
<glyph unicode="9" horiz-adv-x="566" d="M417 174v146q-8 -5 -22.5 -13t-63.5 -21.5t-103 -13.5q-89 0 -128.5 39.5t-39.5 117.5v117q0 78 52 118t169 40t169.5 -40t52.5 -118v-372q0 -179 -236 -179q-48 0 -91.5 6.5t-63.5 12.5l-20 6q-5 11 -5 27l5 27q72 -26 180 -26q80 0 112.5 31t32.5 95zM417 374v172 q0 55 -31 80t-105 25t-104.5 -25t-30.5 -80v-117q0 -55 24 -79.5t85 -24.5q52 0 92.5 12.5t54.5 24.5z" />
<glyph unicode=":" horiz-adv-x="211" d="M148 103v-100q-22 -5 -42 -5l-42 5v100q20 5 42 5zM148 497v-100q-22 -5 -42 -5l-42 5v100q20 5 42 5z" />
<glyph unicode=";" horiz-adv-x="211" d="M148 497v-100q-22 -5 -42 -5l-42 5v100q20 5 42 5zM146 103q0 -65 -18.5 -116t-37.5 -70l-18 -19q-13 -5 -26 -5l-27 5q5 7 12.5 22t20.5 68t13 115q20 5 41 5z" />
<glyph unicode="&#x3c;" horiz-adv-x="464" d="M410 446l-249 -132l249 -133q5 -17 5 -33l-5 -31l-369 197l369 197q5 -17 5 -33z" />
<glyph unicode="=" horiz-adv-x="438" d="M391 192h-346q-5 10 -5 26l5 27h346q5 -11 5 -27zM392 383h-346q-5 10 -5 26l5 27h346q5 -11 5 -27z" />
<glyph unicode="&#x3e;" horiz-adv-x="464" d="M54 181l249 133l-249 132q-5 18 -5 33l5 32l369 -197l-369 -197q-5 17 -5 32z" />
<glyph unicode="?" horiz-adv-x="520" d="M124 608l-13 -94q-10 -3 -25 -3l-26 3q-8 52 -8 124q2 3 6.5 7.5t22 16t38.5 20.5t56.5 16t76.5 7q113 0 163 -42t50 -125v-47q0 -41 -17.5 -69.5t-42.5 -44t-50.5 -29.5t-43 -36.5t-17.5 -55.5v-46q-21 -5 -43 -5l-42 5v46q0 36 12.5 62.5t31.5 40.5t41.5 28t41.5 25 t31.5 31.5t12.5 47.5v47q0 59 -29 86.5t-99 27.5q-37 0 -69 -11t-45 -22zM295 103v-100q-22 -5 -44 -5l-44 5v100q22 5 44 5z" />
<glyph unicode="@" horiz-adv-x="718" d="M535 3v48q-7 -6 -20 -15.5t-57.5 -25t-93.5 -15.5q-73 0 -105.5 33.5t-32.5 100.5v19q0 61 42 93.5t138 43.5l129 14v34q0 62 -37.5 90.5t-129.5 28.5q-125 0 -175 -32.5t-50 -105.5v-315q0 -85 46 -118t167 -33q70 0 133.5 11t92.5 22l28 11q6 -10 6 -27q0 -7 -1.5 -14 t-2.5 -10l-2 -3q-10 -5 -29.5 -12t-85 -19t-138.5 -12q-161 0 -230 49.5t-69 154.5v315q0 94 72.5 142.5t237.5 48.5q134 0 193 -43t59 -129v-283l71 -11q4 -7 4 -17l-4 -17q-35 -7 -103 -7zM535 247l-115 -13q-59 -7 -83.5 -28t-24.5 -58v-19q0 -42 18.5 -61.5t64.5 -19.5 q45 0 80 14.5t47 29.5l13 14v141z" />
<glyph unicode="A" horiz-adv-x="713" d="M92 52l189 596l-75 10q-3 7 -3 19l3 18q51 7 151 7l60 -5l204 -645l74 -10q4 -7 4 -19l-4 -18q-39 -7 -103 -7q-43 0 -77 2t-47 4l-13 1q-4 7 -4 18l4 19l79 10l-48 153h-258l-49 -153l80 -10q3 -7 3 -19l-3 -18q-42 -7 -138 -7q-28 0 -54 2t-37 4l-12 1q-4 7 -4 18l4 19 zM357 631l-116 -369h231z" />
<glyph unicode="B" horiz-adv-x="629" d="M108 51v598l-79 9q-4 8 -4 19l4 18q111 9 302 9q118 0 171.5 -42.5t53.5 -125.5v-37q0 -109 -107 -139q120 -30 120 -144v-49q0 -84 -56.5 -127.5t-181.5 -43.5q-85 0 -160.5 2.5t-108.5 4.5l-33 2q-4 7 -4 18l4 19zM197 332v-280h134q81 0 114.5 27.5t33.5 87.5v49 q0 60 -34 88t-114 28h-134zM197 647v-260h134q73 0 104 27t31 85v37q0 58 -31 84.5t-104 26.5h-134z" />
<glyph unicode="C" horiz-adv-x="579" d="M462 514l-13 90q-6 5 -17.5 12.5t-50.5 19.5t-83 12q-82 0 -115 -26t-33 -84v-376q0 -58 35 -84t123 -26q57 0 109 11t75 21t23 12q5 -11 5 -29l-5 -29q-8 -5 -23.5 -12t-69.5 -19t-114 -12q-132 0 -190 42t-58 125v376q0 83 56 125t182 42q45 0 85 -7t64 -16.5 t41.5 -19.5t25.5 -17l7 -7q0 -32 -1.5 -63t-3.5 -46l-2 -15q-11 -3 -26 -3z" />
<glyph unicode="D" horiz-adv-x="631" d="M108 51v598l-79 9q-4 8 -4 19l4 18q90 9 298 9q128 0 186 -42t58 -124v-376q0 -82 -58 -124t-186 -42q-86 0 -160.5 2.5t-106.5 4.5l-31 2q-4 7 -4 18l4 19zM197 648v-596h130q84 0 119 26t35 84v376q0 58 -35 84t-119 26h-130z" />
<glyph unicode="E" horiz-adv-x="555" d="M473 552l-16 91h-260v-255h254q5 -11 5 -28l-5 -28h-254v-275h265l16 91q8 3 18 3l19 -3q7 -32 7 -111l-5 -37h-208l-280 5q-4 7 -4 18l4 19l79 10v596l-79 10q-4 7 -4 19l4 18q113 5 280 5h203q5 -15 5 -37q0 -35 -1.5 -63t-3.5 -38l-2 -10q-7 -3 -19 -3z" />
<glyph unicode="F" horiz-adv-x="541" d="M465 552l-17 91h-251v-255h253q4 -11 4 -28l-4 -28h-253v-280l79 -10q4 -7 4 -19l-4 -18q-41 -7 -124 -7q-36 0 -67 2t-43 4l-13 1q-4 7 -4 18l4 19l79 10v596l-79 10q-4 7 -4 19l4 18q113 5 280 5h194q5 -15 5 -37q0 -35 -1.5 -63t-2.5 -38l-2 -10q-8 -3 -19 -3z" />
<glyph unicode="G" horiz-adv-x="596" d="M466 514l-13 90q-6 5 -17.5 12.5t-51.5 19.5t-84 12q-83 0 -116.5 -26t-33.5 -84v-376q0 -58 34 -84t116 -26q41 0 78 7t54 14l16 7v231h-136q-5 12 -5 29l5 28h45q48 0 92 -2t65 -4l20 -1v-321q-10 -5 -29.5 -12.5t-80.5 -19.5t-124 -12q-126 0 -183 42t-57 124v376 q0 83 56 125t184 42q45 0 85 -7t65 -16.5t43 -19.5t25 -17l8 -7q0 -32 -2 -63t-4 -46l-2 -15q-11 -3 -26 -3z" />
<glyph unicode="H" horiz-adv-x="700" d="M108 52v596l-79 10q-4 7 -4 19l4 18q41 7 123 7q37 0 68 -2t44 -4l12 -1q4 -7 4 -18l-4 -19l-79 -10v-261h306v261l-79 10q-3 7 -3 19l3 18q42 7 124 7q36 0 67 -2t44 -4l13 -1q3 -7 3 -18l-3 -19l-79 -10v-596l79 -10q3 -7 3 -19l-3 -18q-42 -7 -124 -7q-36 0 -67 2 t-44 4l-13 1q-3 7 -3 18l3 19l79 10v278h-306v-278l79 -10q4 -7 4 -19l-4 -18q-41 -7 -124 -7q-36 0 -67 2t-43 4l-13 1q-4 7 -4 18l4 19z" />
<glyph unicode="I" horiz-adv-x="305" d="M108 52v596l-79 10q-4 7 -4 19l4 18q41 7 123 7q37 0 68 -2t44 -4l12 -1q4 -7 4 -18l-4 -19l-79 -10v-596l79 -10q4 -7 4 -19l-4 -18q-41 -7 -124 -7q-36 0 -67 2t-43 4l-13 1q-4 7 -4 18l4 19z" />
<glyph unicode="J" horiz-adv-x="478" d="M370 648v-486q0 -83 -47 -125t-154 -42q-43 0 -79.5 10.5t-51.5 21.5l-15 11q-6 11 -6 29q0 8 1.5 15.5t3.5 10.5l1 3q0 -2 16.5 -12t52.5 -21t76 -11q63 0 87.5 26t24.5 84v486l-79 10q-3 7 -3 19l3 18q42 7 124 7q37 0 68 -2t43 -4l13 -1q3 -7 3 -18l-3 -19z" />
<glyph unicode="K" horiz-adv-x="643" d="M108 52v596l-79 10q-4 7 -4 19l4 18q41 7 123 7q37 0 68 -2t44 -4l12 -1q4 -7 4 -18l-4 -19l-79 -10v-277l78 22l165 259l-58 6q-4 7 -4 19l4 18q41 7 133 7q24 0 48.5 -2t36.5 -4l12 -1q3 -7 3 -18l-3 -19l-80 -10l-179 -285l190 -311l79 -10q4 -7 4 -19l-4 -18 q-41 -7 -98 -7q-42 0 -76 2t-47 4l-13 1q-4 7 -4 18l4 19l61 6l-174 285l-78 -21v-260l79 -10q4 -7 4 -19l-4 -18q-41 -7 -124 -7q-36 0 -67 2t-43 4l-13 1q-4 7 -4 18l4 19z" />
<glyph unicode="L" horiz-adv-x="536" d="M108 52v596l-79 10q-4 7 -4 19l4 18q41 7 123 7q37 0 68 -2t44 -4l12 -1q4 -7 4 -18l-4 -19l-79 -10v-591h246l16 91q7 3 18 3l19 -3q6 -32 6 -111l-4 -37h-189l-280 5q-4 7 -4 18l4 19z" />
<glyph unicode="M" horiz-adv-x="860" d="M108 52v596l-79 10q-4 7 -4 19l4 18q41 7 128 7l67 -5l205 -478l207 479q27 4 58 4q40 0 74.5 -2t48.5 -4l14 -1q3 -7 3 -18l-3 -19l-79 -10v-596l79 -10q3 -7 3 -19l-3 -18q-42 -7 -122 -7q-36 0 -66.5 2t-42.5 4l-13 1q-3 7 -3 18l3 19l79 10v524l-197 -458 q-18 -5 -40 -5l-41 5l-195 457v-523l79 -10q4 -7 4 -19l-4 -18q-41 -7 -122 -7q-36 0 -66 2t-42 4l-13 1q-4 7 -4 18l4 19z" />
<glyph unicode="N" horiz-adv-x="705" d="M108 52v596l-79 10q-4 7 -4 19l4 18q39 7 117 7l39 -5l326 -544v495l-78 10q-4 7 -4 19l4 18q41 7 121 7q36 0 66.5 -2t43.5 -4l12 -1q4 -7 4 -18l-4 -19l-79 -10v-645q-19 -5 -39 -5l-38 5l-327 544v-495l79 -10q4 -7 4 -19l-4 -18q-41 -7 -122 -7q-36 0 -66 2t-42 4 l-13 1q-4 7 -4 18l4 19z" />
<glyph unicode="O" horiz-adv-x="609" d="M60 162v376q0 82 58 124.5t186 42.5t186.5 -42.5t58.5 -124.5v-376q0 -82 -58.5 -124.5t-186.5 -42.5t-186 42.5t-58 124.5zM150 538v-376q0 -58 35 -84t119 -26t119.5 26t35.5 84v376q0 58 -35.5 84t-119.5 26t-119 -26t-35 -84z" />
<glyph unicode="P" horiz-adv-x="592" d="M108 52v597l-79 9q-4 8 -4 19l4 18q113 9 280 9q122 0 177.5 -42t55.5 -124v-67q0 -82 -55.5 -124t-177.5 -42l-112 4v-257l79 -10q4 -7 4 -19l-4 -18q-41 -7 -124 -7q-36 0 -67 2t-43 4l-13 1q-4 7 -4 18l4 19zM197 648v-287h112q78 0 110.5 26t32.5 84v67 q0 58 -32.5 84t-110.5 26h-112z" />
<glyph unicode="Q" horiz-adv-x="609" d="M418 -172l-89 168q-8 -1 -25 -1q-128 0 -186 42.5t-58 124.5v376q0 82 58 124.5t186 42.5t186.5 -42.5t58.5 -124.5v-376q0 -129 -144 -159l104 -175q-22 -5 -45 -5zM150 538v-376q0 -58 35 -84t119 -26t119.5 26t35.5 84v376q0 58 -35.5 84t-119.5 26t-119 -26t-35 -84z " />
<glyph unicode="R" horiz-adv-x="645" d="M455 48l-127 259h-15l-116 3v-258l79 -10q4 -7 4 -19l-4 -18q-41 -7 -124 -7q-36 0 -67 2t-43 4l-13 1q-4 7 -4 18l4 19l79 10v596l-79 10q-4 7 -4 19l4 18q112 9 284 9q122 0 177 -42t55 -124v-65q0 -129 -135 -157l135 -264l79 -10q3 -7 3 -19l-3 -18q-42 -7 -99 -7 q-40 0 -72.5 2t-45.5 4l-13 1q-4 7 -4 18l4 19zM197 648v-285h116q77 0 109.5 26t32.5 84v65q0 58 -32.5 84t-109.5 26h-116z" />
<glyph unicode="S" horiz-adv-x="578" d="M132 92q6 -4 17.5 -11t51.5 -18t85 -11q78 0 110 26t32 84v47q0 42 -37 68t-90 40.5t-106 30.5t-90 51.5t-37 91.5v47q0 83 53 125t173 42q42 0 79 -6.5t59.5 -16t39 -19t22.5 -15.5l7 -7q0 -32 -2 -62.5t-4 -45.5l-2 -15q-10 -4 -26 -4l-26 4l-12 90q-5 4 -15 11t-45 18 t-75 11q-75 0 -106 -26.5t-31 -83.5v-47q0 -33 26.5 -56t67 -34t87 -26t87 -31.5t67 -51t26.5 -83.5v-47q0 -83 -54.5 -125t-176.5 -42q-73 0 -129.5 16t-77.5 32l-20 16q0 32 2 62.5t4 45.5l2 15q10 4 26 4l25 -4z" />
<glyph unicode="T" horiz-adv-x="597" d="M521 552l-17 91h-160v-591l79 -10q4 -7 4 -19l-4 -18q-41 -7 -124 -7q-36 0 -67 2t-44 4l-13 1q-3 7 -3 18l3 19l79 10v591h-163l-16 -91q-8 -3 -19 -3l-18 3q-7 32 -7 111l5 37h524q4 -15 4 -37q0 -35 -1.5 -63t-2.5 -38l-2 -10q-7 -3 -19 -3z" />
<glyph unicode="U" horiz-adv-x="696" d="M108 648l-79 10q-4 7 -4 19l4 18q41 7 123 7q35 0 64.5 -2t41.5 -4l12 -1q4 -7 4 -18l-4 -19l-73 -10v-486q0 -57 34.5 -83.5t116.5 -26.5t116.5 26t34.5 84v486l-73 10q-3 7 -3 19l3 18q39 7 118 7q36 0 67 -2t44 -4l13 -1q3 -7 3 -18l-3 -19l-79 -10v-486 q0 -82 -57.5 -124.5t-183.5 -42.5t-183 42.5t-57 124.5v486z" />
<glyph unicode="V" horiz-adv-x="721" d="M96 648l-78 10q-4 7 -4 19l4 18q41 7 107 7q43 0 77 -2t47 -4l13 -1q4 -7 4 -18l-4 -19l-79 -10l178 -577l176 577l-77 10q-4 7 -4 19l4 18q41 7 136 7q29 0 56 -2t40 -4l12 -1q3 -7 3 -18l-3 -19l-79 -10l-204 -645q-27 -5 -60 -5l-61 5z" />
<glyph unicode="W" horiz-adv-x="1062" d="M96 648l-78 10q-4 7 -4 19l4 18q41 7 111 7q41 0 74.5 -2t46.5 -4l13 -1q4 -7 4 -18l-4 -19l-79 -10l144 -570l149 619q23 5 54 5l55 -5l150 -619l142 570l-78 10q-4 7 -4 19l4 18q41 7 134 7q31 0 58.5 -2t39.5 -4l13 -1q3 -7 3 -18l-3 -19l-79 -10l-167 -645 q-29 -5 -61 -5l-61 5l-146 612l-145 -612q-29 -5 -61 -5l-61 5z" />
<glyph unicode="X" horiz-adv-x="680" d="M99 52l180 302l-173 294l-79 10q-4 7 -4 19l4 18q41 7 99 7q44 0 79.5 -2t48.5 -4l13 -1q4 -7 4 -18l-4 -19l-68 -8l141 -245l140 246l-67 7q-4 7 -4 19l4 18q41 7 140 7q26 0 51 -2t37 -4l12 -1q3 -7 3 -18l-3 -19l-79 -10l-173 -294l179 -303l79 -9q4 -7 4 -19l-4 -18 q-41 -7 -100 -7q-45 0 -80.5 2t-48.5 4l-14 1q-3 7 -3 18l3 19l71 8l-147 254l-147 -254l69 -8q4 -7 4 -19l-4 -18q-41 -7 -142 -7q-26 0 -50.5 2t-36.5 4l-12 1q-4 7 -4 18l4 19z" />
<glyph unicode="Y" horiz-adv-x="666" d="M288 52v240l-192 356l-78 10q-4 7 -4 19l4 18q41 7 102 7q44 0 79 -2t48 -4l13 -1q3 -7 3 -18l-3 -19l-71 -8l144 -285l143 285l-69 8q-4 7 -4 19l4 18q41 7 140 7q27 0 52 -2t37 -4l12 -1q4 -7 4 -18l-4 -19l-79 -10l-191 -355v-241l79 -10q3 -7 3 -19l-3 -18 q-42 -7 -124 -7q-36 0 -67 2t-44 4l-13 1q-3 7 -3 18l3 19z" />
<glyph unicode="Z" horiz-adv-x="545" d="M495 643l-351 -584h299l16 91q8 3 19 3l18 -3q7 -34 7 -113l-5 -37h-451q-5 11 -5 28l5 29l351 584h-293l-16 -91q-7 -3 -18 -3l-19 3q-7 34 -7 113l5 37h445q5 -11 5 -28z" />
<glyph unicode="[" horiz-adv-x="326" d="M65 -151v903l216 -5q4 -10 4 -25l-4 -25q-54 -5 -137 -5v-783l137 -5q4 -10 4 -25l-4 -24q-84 -6 -216 -6z" />
<glyph unicode="\" horiz-adv-x="396" d="M276 3l-237 694q20 5 41 5l42 -5l237 -694q-20 -5 -42 -5z" />
<glyph unicode="]" horiz-adv-x="326" d="M261 752v-903q-58 0 -112 1.5t-79 3.5l-25 1q-4 9 -4 24l4 25q54 5 137 5v783l-137 5q-4 11 -4 25l4 25q85 5 216 5z" />
<glyph unicode="^" horiz-adv-x="448" d="M224 704l184 -183q-5 -10 -17 -22l-23 -15l-144 145l-145 -146q-11 5 -23 16q-5 5 -9.5 10.5t-6.5 8.5l-1 3z" />
<glyph unicode="_" horiz-adv-x="507" d="M503 -103h-500v53h500v-53z" />
<glyph unicode="`" horiz-adv-x="215" d="M145 572l-130 125q20 5 41 5l40 -5l105 -125q-13 -5 -28 -5z" />
<glyph unicode="a" d="M356 243l-112 -13q-58 -7 -82 -27.5t-24 -57.5v-16q0 -42 18.5 -61.5t62.5 -19.5q28 0 52 6t39 14.5t26 17t16 14.5l4 6v137zM141 426l-12 -82q-10 -3 -24 -3l-24 3q-8 49 -8 119q7 5 20 12t57.5 18.5t93.5 11.5q105 0 151 -38t46 -114v-303l71 -11q4 -7 4 -17l-4 -17 q-35 -7 -103 -7l-53 5v49q-7 -6 -19.5 -15.5t-56 -25.5t-91.5 -16q-72 0 -104 34t-32 102v16q0 60 41.5 92.5t135.5 41.5l126 14v58q0 51 -25 75t-87 24q-55 0 -103 -26z" />
<glyph unicode="b" horiz-adv-x="529" d="M72 650l-71 11q-4 7 -4 17l4 17q39 7 105 7l52 -5v-240q2 6 13 15.5t45 21t81 11.5q91 0 131.5 -40t40.5 -118v-194q0 -78 -34.5 -118t-112.5 -40q-48 0 -89 14t-58 28l-17 14v-48q-21 -5 -43 -5l-43 5v647zM383 153v194q0 55 -22.5 80t-78.5 25q-68 0 -96 -25t-28 -80 v-241q4 -6 13 -16t43.5 -26t78.5 -16q50 0 70 25t20 80z" />
<glyph unicode="c" horiz-adv-x="493" d="M382 344l-12 83q-47 25 -108 25q-64 0 -90 -25t-26 -80v-194q0 -55 27.5 -80t98.5 -25q44 0 83.5 9t57.5 17t18 10l1 -4q2 -3 3.5 -9.5t1.5 -13.5t-1.5 -14t-3.5 -10l-1 -3q-55 -35 -160 -35q-112 0 -161.5 40t-49.5 118v194q0 78 47.5 118t154.5 40q51 0 95 -10.5 t63 -20.5l18 -11q0 -31 -2 -61t-4 -44l-2 -14q-10 -3 -24 -3z" />
<glyph unicode="d" horiz-adv-x="554" d="M457 50l71 -11q3 -7 3 -17l-3 -17q-36 -7 -104 -7l-53 5v48q-7 -6 -19.5 -15.5t-55 -25t-89.5 -15.5q-78 0 -112.5 40t-34.5 118v194q0 78 40.5 118t131.5 40q46 0 80.5 -12t44.5 -21t14 -15v193l-71 11q-3 7 -3 17l3 17q35 7 104 7l53 -5v-647zM146 347v-194 q0 -55 19.5 -80t69.5 -25q44 0 78 14.5t46 29.5l12 14v241q0 55 -28.5 80t-95.5 25q-56 0 -78.5 -25t-22.5 -80z" />
<glyph unicode="e" horiz-adv-x="521" d="M60 153v194q0 78 47 118t154 40q109 0 153.5 -39.5t44.5 -118.5v-114q-58 -8 -157 -8h-156v-72q0 -55 28.5 -80t101.5 -25q46 0 88 9t61 17t19 10l2 -4q1 -3 2.5 -9.5t1.5 -13.5t-1.5 -14t-2.5 -10l-2 -3q-58 -35 -168 -35q-115 0 -165.5 40t-50.5 118zM146 278h231v69 q0 55 -26 80t-90 25t-89.5 -25t-25.5 -80v-69z" />
<glyph unicode="f" horiz-adv-x="356" d="M98 50v398l-71 11q-4 7 -4 17l4 17q24 6 71 6v64q0 70 33 106t107 36q45 0 89 -11q4 -11 4 -25l-4 -26q-25 9 -60 9q-47 0 -65.5 -21t-18.5 -68v-63h144q4 -11 4 -27l-4 -26h-144v-397l71 -11q4 -7 4 -17l-4 -17q-38 -7 -114 -7q-33 0 -61.5 2t-40.5 4l-11 1q-4 7 -4 17 l4 17z" />
<glyph unicode="g" horiz-adv-x="525" d="M371 -47v88q-3 -6 -13.5 -15t-45 -20t-80.5 -11q-91 0 -131.5 40t-40.5 118v194q0 78 34.5 118t112.5 40q47 0 88 -14t59 -28l17 -14v48q20 4 43 4l43 -4v-544q0 -78 -50.5 -118t-165.5 -40q-44 0 -84 6t-58 12l-18 6q-6 10 -6 26q0 8 1.5 14.5t3.5 9.5l1 3 q64 -24 160 -24q72 0 101 25t29 80zM146 347v-194q0 -55 22.5 -80t78.5 -25q67 0 95.5 25t28.5 80v241q-4 6 -13 16t-44 26t-79 16q-50 0 -69.5 -25t-19.5 -80z" />
<glyph unicode="h" horiz-adv-x="589" d="M98 50v600l-71 11q-4 7 -4 17l4 17q35 7 103 7l53 -5v-248q6 6 18.5 15.5t54 25t87.5 15.5q79 0 114 -40t35 -118v-297l70 -11q4 -7 4 -17l-4 -17q-34 -7 -103 -7l-53 5v344q0 55 -20.5 80t-70.5 25q-42 0 -75 -14.5t-45 -29.5l-12 -14v-344l71 -11q4 -7 4 -17l-4 -17 q-38 -7 -114 -7q-33 0 -61.5 2t-40.5 4l-11 1q-4 7 -4 17l4 17z" />
<glyph unicode="i" horiz-adv-x="281" d="M98 50v400l-71 11q-4 7 -4 17l4 17q35 7 103 7l53 -5v-447l71 -11q4 -7 4 -17l-4 -17q-38 -7 -114 -7q-33 0 -61.5 2t-40.5 4l-11 1q-4 7 -4 17l4 17zM183 697v-104q-21 -5 -43 -5l-42 5v104q20 5 42 5z" />
<glyph unicode="j" horiz-adv-x="265" d="M111 450l-70 11q-4 7 -4 17l4 17q35 7 103 7l53 -5v-567q0 -67 -30.5 -101t-98.5 -34q-38 0 -82 12q-4 11 -4 25l4 25q25 -9 54 -9q40 0 55.5 19.5t15.5 62.5v520zM197 697v-104q-21 -5 -43 -5l-43 5v104q21 5 43 5z" />
<glyph unicode="k" horiz-adv-x="533" d="M98 50v600l-71 11q-4 7 -4 17l4 17q35 7 103 7l53 -5v-427l59 20l110 165l-42 6q-3 7 -3 17l3 17q37 7 107 7q24 0 45.5 -2t31.5 -4l9 -1q4 -7 4 -17l-4 -17l-67 -11l-124 -187l135 -213l67 -11q4 -7 4 -17l-4 -17q-33 -7 -81 -7l-46 5l-145 231l-59 -20v-164l71 -11 q4 -7 4 -17l-4 -17q-39 -7 -114 -7q-33 0 -61 2t-40 4l-12 1q-4 7 -4 17l4 17z" />
<glyph unicode="l" horiz-adv-x="281" d="M98 50v600l-71 11q-4 7 -4 17l4 17q35 7 103 7l53 -5v-647l71 -11q4 -7 4 -17l-4 -17q-38 -7 -114 -7q-33 0 -61.5 2t-40.5 4l-11 1q-4 7 -4 17l4 17z" />
<glyph unicode="m" horiz-adv-x="862" d="M98 50v400l-71 11q-4 7 -4 17l4 17q35 7 103 7l53 -5v-48q6 6 17.5 15.5t51 25t83.5 15.5q90 0 119 -56q7 6 20.5 15.5t58 25t93.5 15.5q73 0 106 -37.5t33 -110.5v-307l70 -11q4 -7 4 -17l-4 -17q-34 -7 -103 -7l-53 5v354q0 50 -18 72.5t-64 22.5q-37 0 -66.5 -11.5 t-40.5 -21t-16 -17.5v-352l71 -11q3 -7 3 -17l-3 -17q-39 -7 -114 -7q-30 0 -55 2t-36 4l-10 1q-4 7 -4 17l4 17l58 8v310q0 50 -18 72.5t-64 22.5q-40 0 -70.5 -14.5t-41.5 -29.5l-11 -14v-347l58 -8q4 -7 4 -17l-4 -17q-34 -7 -101 -7q-33 0 -61.5 2t-40.5 4l-11 1 q-4 7 -4 17l4 17z" />
<glyph unicode="n" horiz-adv-x="592" d="M98 50v400l-71 11q-4 7 -4 17l4 17q35 7 103 7l53 -5v-48q7 6 19.5 15.5t54.5 25t88 15.5q79 0 114.5 -39.5t35.5 -117.5v-298l70 -11q4 -7 4 -17l-4 -17q-34 -7 -103 -7l-53 5v344q0 55 -20.5 80t-71.5 25q-43 0 -76.5 -14.5t-45.5 -29.5l-12 -14v-344l71 -11 q4 -7 4 -17l-4 -17q-39 -7 -114 -7q-33 0 -61 2t-40 4l-12 1q-4 7 -4 17l4 17z" />
<glyph unicode="o" horiz-adv-x="529" d="M60 153v194q0 78 48.5 118t155.5 40q108 0 156.5 -40t48.5 -118v-194q0 -78 -48.5 -118t-156.5 -40q-107 0 -155.5 40t-48.5 118zM146 347v-194q0 -55 27 -80t91 -25q65 0 92 25t27 80v194q0 55 -27 80t-92 25q-64 0 -91 -25t-27 -80z" />
<glyph unicode="p" horiz-adv-x="554" d="M98 -150v600l-71 11q-4 7 -4 17l4 17q35 7 103 7l53 -5v-48q7 6 19.5 15.5t55 25t89.5 15.5q78 0 113 -40t35 -118v-194q0 -78 -41 -118t-132 -40q-46 0 -80 10.5t-45 20t-14 15.5v-191l71 -11q4 -7 4 -17l-4 -17q-39 -7 -114 -7q-33 0 -61 2t-40 4l-12 1q-4 7 -4 17 l4 17zM409 153v194q0 55 -20 80t-70 25q-27 0 -51.5 -6t-39 -14.5t-25.5 -17t-15 -14.5l-5 -6v-241q0 -55 28.5 -80t95.5 -25q57 0 79.5 25t22.5 80z" />
<glyph unicode="q" horiz-adv-x="525" d="M371 -150v191q-5 -7 -14.5 -15.5t-44 -19.5t-80.5 -11q-91 0 -131.5 40t-40.5 118v194q0 78 34.5 118t112.5 40q47 0 88 -14t59 -28l17 -14v48q20 5 43 5l43 -5v-647l71 -11q3 -7 3 -17l-3 -17q-39 -7 -114 -7q-33 0 -61.5 2t-40.5 4l-12 1q-3 7 -3 17l3 17zM146 347 v-194q0 -55 22.5 -80t78.5 -25q67 0 95.5 25t28.5 80v241q-4 6 -13 16t-44 26t-79 16q-50 0 -69.5 -25t-19.5 -80z" />
<glyph unicode="r" horiz-adv-x="403" d="M98 50v400l-71 11q-4 7 -4 17l4 17q35 7 103 7l53 -5v-68q2 3 7 8t21.5 18.5t35.5 23.5t49.5 18t63.5 8q5 -12 5 -27l-5 -28q-35 0 -66 -10t-50.5 -24.5t-34 -29t-20.5 -24.5l-6 -10v-302l71 -11q4 -7 4 -17l-4 -17q-39 -7 -114 -7q-33 0 -61 2t-40 4l-12 1q-4 7 -4 17 l4 17z" />
<glyph unicode="s" horiz-adv-x="473" d="M123 71q46 -23 107 -23q57 0 80 20.5t23 64.5v20q0 25 -28 40.5t-68.5 25t-81 21.5t-68.5 38.5t-28 67.5v20q0 69 43 104t140 35q47 0 87.5 -10.5t58.5 -20.5l17 -10q0 -31 -1.5 -60.5t-3.5 -43.5l-2 -14q-10 -4 -25 -4l-24 4l-12 83q-39 23 -95 23q-54 0 -76.5 -21 t-22.5 -65v-20q0 -23 28.5 -37.5t69.5 -24t82 -22t69.5 -40t28.5 -69.5v-20q0 -69 -44.5 -103.5t-146.5 -34.5q-51 0 -94.5 9.5t-61.5 19.5l-19 9q0 32 2 61.5t4 43.5l2 14q9 3 24 3l24 -3z" />
<glyph unicode="t" horiz-adv-x="368" d="M101 499l9 98q17 5 37 5l36 -5v-97h139q5 -11 5 -27l-5 -26h-139v-310q0 -47 18.5 -68t65.5 -21q22 0 55 10q5 -11 5 -24l-5 -25q-51 -14 -82 -14q-75 0 -108.5 36t-33.5 106v311l-71 11q-4 7 -4 17l4 17q25 6 74 6z" />
<glyph unicode="u" horiz-adv-x="595" d="M98 450l-71 11q-4 7 -4 17l4 17q35 7 103 7l53 -5v-344q0 -55 20.5 -80t70.5 -25q44 0 78.5 14.5t47.5 29.5l12 14v344l-71 11q-4 7 -4 17l4 17q35 7 104 7l53 -5v-447l70 -11q4 -7 4 -17l-4 -17q-35 -7 -103 -7l-53 5v48q-7 -6 -19.5 -15.5t-55.5 -25t-91 -15.5 q-79 0 -113.5 40t-34.5 118v297z" />
<glyph unicode="v" horiz-adv-x="595" d="M83 450l-67 11q-4 7 -4 17l4 17q38 7 94 7q32 0 60 -2t40 -4l11 -1q3 -7 3 -17l-3 -17l-56 -9l132 -387l132 387l-55 9q-4 7 -4 17l4 17q38 7 111 7q25 0 48.5 -2t34.5 -4l11 -1q4 -7 4 -17l-4 -17l-68 -11l-157 -447q-26 -5 -56 -5l-57 5z" />
<glyph unicode="w" horiz-adv-x="879" d="M83 450l-67 11q-4 7 -4 17l4 17q38 7 97 7q32 0 60 -2t39 -4l12 -1q3 -7 3 -17l-3 -17l-59 -10l108 -386l117 430q21 5 49 5l51 -5l117 -430l106 387l-58 9q-3 7 -3 17l3 17q38 7 111 7q26 0 50.5 -2t35.5 -4l11 -1q4 -7 4 -17l-4 -17l-68 -11l-130 -447q-26 -5 -56 -5 l-58 5l-112 417l-111 -417q-26 -5 -56 -5l-58 5z" />
<glyph unicode="x" horiz-adv-x="558" d="M85 50l140 204l-134 196l-71 11q-3 7 -3 17l3 17q39 7 83 7q31 0 58 -2t39 -4l11 -1q3 -7 3 -17l-3 -17l-37 -4l104 -156l104 155l-38 5q-4 7 -4 17l4 17q35 7 102 7q20 0 42 -2t34 -4l11 -1q3 -7 3 -17l-3 -17l-68 -11l-133 -196l139 -204l68 -11q4 -7 4 -17l-4 -17 q-35 -7 -79 -7l-48 5l-134 205l-110 -164l44 -5q3 -7 3 -17l-3 -17q-37 -7 -107 -7q-24 0 -45.5 2t-31.5 4l-9 1q-3 7 -3 17l3 17z" />
<glyph unicode="y" horiz-adv-x="593" d="M83 450l-67 11q-4 7 -4 17l4 17q38 7 93 7q32 0 60 -2t39 -4l12 -1q4 -7 4 -17l-4 -17l-56 -9l132 -382l131 382l-54 9q-4 7 -4 17l4 17q38 7 110 7q25 0 48.5 -2t34.5 -4l11 -1q4 -7 4 -17l-4 -17l-68 -11l-187 -520q-24 -69 -66 -102t-115 -33q-16 0 -31 2t-22 4l-6 2 q-5 10 -5 25l5 26q23 -6 61 -6q75 0 102 80l26 71l-27 4z" />
<glyph unicode="z" horiz-adv-x="482" d="M376 53l15 77q7 3 18 3l18 -3q6 -29 6 -96l-5 -34h-374q-4 10 -4 27l4 26l284 394h-231l-13 -77q-7 -3 -18 -3l-19 3q-6 29 -6 96l4 34h369q5 -11 5 -27l-5 -26l-283 -394h235z" />
<glyph unicode="{" horiz-adv-x="371" d="M330 699q-57 0 -81 -25t-24 -80v-161q0 -100 -66 -132q66 -34 66 -131v-162q0 -55 24 -80t81 -25q4 -10 4 -26l-4 -27q-97 0 -140.5 40t-43.5 118v162q0 54 -24 79.5t-80 25.5q-5 10 -5 26l5 27q56 0 80 25t24 80v161q0 78 43.5 118t140.5 40q4 -11 4 -27z" />
<glyph unicode="|" horiz-adv-x="199" d="M134 747v-844q-17 -5 -34 -5l-35 5v844q17 5 35 5z" />
<glyph unicode="}" horiz-adv-x="371" d="M42 699q-5 10 -5 26l5 27q96 0 139.5 -40t43.5 -118v-161q0 -55 24 -80t81 -25q4 -11 4 -27l-4 -26q-57 0 -81 -25.5t-24 -79.5v-162q0 -78 -43.5 -118t-139.5 -40q-5 12 -5 27l5 26q56 0 80 25t24 80v162q0 97 67 131q-67 33 -67 132v161q0 55 -24 80t-80 25z" />
<glyph unicode="~" horiz-adv-x="442" d="M47 254v4q0 54 19.5 79t69.5 25q38 0 64.5 -16t45.5 -32t40 -16q28 0 39.5 13t11.5 41v5q14 5 29 5l29 -5v-4q0 -54 -19 -79.5t-69 -25.5q-30 0 -54 10t-36 22.5t-28 22.5t-32 10q-28 0 -39.5 -13t-11.5 -41v-5q-15 -5 -30 -5z" />
<glyph unicode="&#xa1;" horiz-adv-x="215" d="M64 397v100q22 5 44 5l44 -5v-100q-22 -5 -44 -5zM65 -197v487q21 5 43 5l43 -5v-487q-21 -5 -43 -5z" />
<glyph unicode="&#xa2;" horiz-adv-x="493" d="M370 427q-47 25 -108 25q-64 0 -90 -25t-26 -80v-194q0 -55 27.5 -80t98.5 -25q44 0 83.5 9t57.5 17t18 10l1 -4q2 -3 3.5 -9.5t1.5 -13.5t-1.5 -14t-3.5 -10l-1 -3q-44 -30 -134 -34v-93q-18 -5 -35 -5l-35 5v95q-88 6 -127.5 45t-39.5 110v194q0 72 39.5 111t127.5 45 v94q17 5 35 5l35 -5v-94q42 -3 77.5 -13t49.5 -18l14 -9q0 -31 -2 -61t-4 -44l-2 -14q-10 -3 -24 -3l-24 3z" />
<glyph unicode="&#xa3;" horiz-adv-x="564" d="M450 514l-13 90q-5 5 -15 12.5t-44.5 19.5t-73.5 12q-71 0 -99.5 -26t-28.5 -84v-180h178q5 -11 5 -27l-5 -26h-178v-248h333q5 -11 5 -29l-5 -28h-477q-5 11 -5 28l5 29h55v248h-55q-5 10 -5 26l5 27h55v180q0 83 51 125t166 42q42 0 78.5 -7t59 -16.5t38.5 -19.5 t23 -17l7 -7q0 -32 -2 -63t-4 -46l-2 -15q-11 -3 -26 -3z" />
<glyph unicode="&#xa4;" horiz-adv-x="416" d="M78 300v28q0 39 16 64l-63 63q5 11 17 22l23 16l68 -69q25 16 68 16t68 -16l69 69q11 -5 23 -16q5 -5 9.5 -10.5t5.5 -8.5l2 -3l-64 -63q17 -24 17 -64v-28q0 -37 -14 -59l61 -60q-5 -10 -17 -22q-5 -5 -11 -8.5t-10 -4.5l-3 -2l-61 61q-29 -17 -75 -17t-75 17l-61 -61 q-11 4 -23 15q-5 5 -9.5 10.5t-6.5 8.5l-1 3l60 61q-13 23 -13 58zM133 328v-28q0 -34 17 -50t57 -16t57.5 16t17.5 50v28q0 34 -17.5 50t-57.5 16t-57 -16t-17 -50z" />
<glyph unicode="&#xa5;" horiz-adv-x="662" d="M509 257h-133v-82h132q5 -8 5 -21l-5 -21h-132v-81l79 -10q3 -7 3 -19l-3 -18q-42 -7 -124 -7q-36 0 -67 2t-44 4l-13 1q-3 7 -3 18l3 19l79 10v81h-132q-5 8 -5 21l5 21h132v82h-132q-4 8 -4 21l4 21h128l-188 349l-78 10q-4 7 -4 19l4 18q41 7 101 7q44 0 79.5 -2 t48.5 -4l13 -1q3 -7 3 -18l-3 -19l-71 -8l144 -279l143 279l-70 8q-3 7 -3 19l3 18q42 7 141 7q27 0 52 -2t37 -4l12 -1q4 -7 4 -18l-4 -19l-79 -10l-188 -349h130q5 -8 5 -21z" />
<glyph unicode="&#xa6;" horiz-adv-x="199" d="M134 747v-369q-17 -5 -34 -5l-35 5v369q17 5 35 5zM134 272v-369q-17 -5 -34 -5l-35 5v369q17 5 35 5z" />
<glyph unicode="&#xa7;" horiz-adv-x="566" d="M436 514l-12 90q-6 5 -16.5 13t-48 21.5t-78.5 13.5q-77 0 -109 -26t-32 -83v-22q0 -33 27.5 -56t68.5 -34t89.5 -26t89.5 -31.5t68.5 -51t27.5 -83.5v-22q0 -86 -61 -125q61 -42 61 -113v-22q0 -81 -54 -121.5t-178 -40.5q-46 0 -87 7t-66 16.5t-43 19.5t-25 17l-8 7 q0 32 2 63t4 46l2 15q10 3 25 3l26 -3l13 -90q6 -5 18 -13t52.5 -21.5t86.5 -13.5q81 0 113.5 25.5t32.5 83.5v22q0 42 -38 68t-92.5 40.5t-109 30.5t-92.5 51.5t-38 91.5v22q0 89 62 127q-62 40 -62 111v22q0 81 52.5 121.5t173.5 40.5q43 0 81.5 -7t61.5 -16.5t40.5 -19.5 t24.5 -17l7 -7q0 -32 -2 -63t-4 -46l-2 -15q-10 -3 -26 -3zM425 239q0 27 -13.5 47t-40 33t-52.5 21t-63.5 18.5t-60.5 19.5q-55 -23 -55 -95v-22q0 -26 14.5 -45t41.5 -31t54.5 -20t65 -18.5t61.5 -21.5q48 23 48 92v22z" />
<glyph unicode="&#xa8;" horiz-adv-x="415" d="M137 697v-98q-16 -5 -35 -5l-34 5v98q15 5 34 5zM347 697v-98q-16 -5 -35 -5l-34 5v98q15 5 34 5z" />
<glyph unicode="&#xa9;" horiz-adv-x="817" d="M63 240v220q0 121 82 183t263 62t263.5 -62t82.5 -183v-220q0 -121 -82.5 -183t-263.5 -62t-263 62t-82 183zM144 460v-220q0 -100 60 -146t204 -46q145 0 204.5 46t59.5 146v220q0 100 -59.5 146t-204.5 46q-144 0 -204 -46t-60 -146zM290 262v180q0 88 122 88 q65 0 90.5 -21.5t25.5 -66.5v-6q-12 -3 -24 -3l-26 3v6q0 28 -14.5 40.5t-51.5 12.5t-51.5 -12.5t-14.5 -40.5v-180q0 -28 16 -40.5t56 -12.5q28 0 53.5 5.5t37 10.5t11.5 6q3 -7 3 -18l-3 -18q-37 -21 -102 -21q-68 0 -98 22t-30 66z" />
<glyph unicode="&#xaa;" horiz-adv-x="402" d="M258 518l-75 -8q-71 -8 -71 -58v-11q0 -28 12.5 -41t42.5 -13q29 0 51.5 9.5t31.5 19.5l8 9v93zM113 646l-9 -56q-7 -2 -18 -2l-19 2q-5 34 -5 84q43 29 121 29q74 0 107 -26.5t33 -80.5v-208l49 -8q3 -5 3 -13l-3 -14q-25 -5 -75 -5l-39 4v33q-5 -4 -13.5 -10.5 t-38.5 -17t-63 -10.5q-96 0 -96 96v11q0 42 29.5 64.5t95.5 29.5l86 9v39q0 35 -17 51t-58 16q-32 0 -70 -17z" />
<glyph unicode="&#xab;" horiz-adv-x="481" d="M40 270l184 183q12 -4 24 -16l17 -22l-144 -145l144 -145q-5 -11 -17 -22l-23 -16zM215 270l184 183q11 -4 23 -16q5 -5 9.5 -10.5t6.5 -8.5l1 -3l-144 -145l145 -145q-5 -11 -17 -22l-24 -16z" />
<glyph unicode="&#xac;" horiz-adv-x="409" d="M295 227v87h-249q-5 11 -5 27l5 26h121q54 0 104.5 -1.5t74.5 -3.5l23 -2v-133q-18 -5 -37 -5z" />
<glyph unicode="&#xad;" horiz-adv-x="298" d="M252 258h-206q-5 10 -5 26l5 27h206q4 -11 4 -27z" />
<glyph unicode="&#xae;" horiz-adv-x="817" d="M63 240v220q0 121 82 183t263 62t263.5 -62t82.5 -183v-220q0 -121 -82.5 -183t-263.5 -62t-263 62t-82 183zM144 460v-220q0 -100 60 -146t204 -46q145 0 204.5 46t59.5 146v220q0 100 -59.5 146t-204.5 46q-144 0 -204 -46t-60 -146zM486 176l-76 147l-57 2v-149 q-14 -2 -28 -2l-27 2v347q44 4 112 4q119 0 119 -87v-30q0 -67 -66 -82l80 -152q-14 -2 -28 -2zM353 493v-135h57q35 0 49.5 12t14.5 40v30q0 28 -14.5 40.5t-49.5 12.5h-57z" />
<glyph unicode="&#xaf;" horiz-adv-x="224" d="M235 602h-247q-5 8 -5 21l5 21h247q5 -8 5 -21z" />
<glyph unicode="&#xb0;" horiz-adv-x="317" d="M60 588v20q0 95 107 95t107 -95v-20q0 -95 -107 -95t-107 95zM105 608v-20q0 -56 62 -56q34 0 48.5 13.5t14.5 42.5v20q0 28 -14.5 41.5t-48.5 13.5q-33 0 -47.5 -13.5t-14.5 -41.5z" />
<glyph unicode="&#xb1;" horiz-adv-x="418" d="M238 497v-136h134q5 -11 5 -27l-5 -26h-134v-136q-11 -4 -29 -4l-30 4v136h-133q-5 10 -5 26l5 27h133v136q12 5 30 5zM372 79h-326q-5 10 -5 25l5 26h326q5 -11 5 -26z" />
<glyph unicode="&#xb2;" horiz-adv-x="300" d="M81 649l-6 -44q-6 -1 -15 -1l-15 1q-4 27 -4 64q3 4 10 9.5t34.5 15t62.5 9.5q112 0 112 -87v-22q0 -34 -17.5 -57t-43 -34.5t-51 -22.5t-43 -29.5t-17.5 -46.5v-23h142l8 37q3 2 10 2l11 -2q3 -15 3 -50l-3 -18h-117l-103 4v50q0 34 17.5 57.5t43 35.5t51 23t43 29 t17.5 45v22q0 30 -14.5 43t-48.5 13q-20 0 -36.5 -6t-23.5 -12z" />
<glyph unicode="&#xb3;" horiz-adv-x="296" d="M43 700h206q3 -6 3 -15l-3 -16l-98 -119q63 0 86.5 -23t23.5 -64v-28q0 -88 -123 -88q-28 0 -53 5.5t-35 10.5l-11 5q-3 6 -3 16q0 4 1 8t1 6l1 2q0 -1 11 -6t35.5 -10.5t51.5 -5.5q41 0 58 13.5t17 43.5v28q0 30 -17 43.5t-58 13.5h-36q-2 6 -2 16l2 16l94 116h-123 l-8 -36q-4 -2 -10 -2l-10 2q-4 15 -4 50z" />
<glyph unicode="&#xb4;" horiz-adv-x="215" d="M201 697l-130 -125q-15 -5 -28 -5l-28 5l104 125q19 5 41 5z" />
<glyph unicode="&#xb5;" horiz-adv-x="560" d="M498 497v-344q0 -78 -35 -118t-114 -40q-48 0 -89.5 14t-59.5 28l-17 14v-126l71 -11q4 -7 4 -17l-4 -17q-38 -7 -114 -7q-33 0 -61.5 1.5t-40.5 3.5l-11 2q-4 7 -4 17l4 17l71 11v525l-71 11q-4 7 -4 17l4 17q35 7 103 7l53 -5v-391q2 -2 5 -6t15 -14t26.5 -17.5t39 -14 t52.5 -6.5q50 0 70.5 25t20.5 80v297l-71 11q-4 7 -4 17l4 17q35 7 104 7z" />
<glyph unicode="&#xb6;" horiz-adv-x="502" d="M405 550v-497q0 -78 -44 -118t-143 -40q-38 0 -73 6t-51 12l-15 6q-6 10 -6 26q0 8 1.5 14.5t3.5 9.5l1 3q53 -24 132 -24q60 0 84 25t24 80v162q-3 -6 -12 -14.5t-37.5 -19.5t-67.5 -11q-76 0 -110 40t-34 118v119q0 78 42.5 118t136.5 40q68 0 127.5 -2.5t85.5 -4.5 l26 -3q3 -7 3 -17l-3 -17z" />
<glyph unicode="&#xb7;" horiz-adv-x="211" d="M148 334v-101q-22 -5 -42 -5l-42 5v101q20 4 42 4z" />
<glyph unicode="&#xb8;" horiz-adv-x="505" d="M221 0h51v-12q0 -16 10.5 -25t23.5 -12.5t23.5 -14.5t10.5 -31q0 -75 -89 -75q-21 0 -38.5 4.5t-24.5 9.5l-7 4q-4 7 -4 17l4 18q25 -16 60 -16q48 0 48 38q0 12 -10.5 18.5t-23.5 9.5t-23.5 17t-10.5 38v12z" />
<glyph unicode="&#xb9;" horiz-adv-x="237" d="M98 379v286l-60 -16q-1 4 -1 12l1 14l75 26l35 -2v-320l53 -6q2 -4 2 -11l-2 -9q-27 -4 -78 -4l-77 4q-2 4 -2 9l2 11z" />
<glyph unicode="&#xba;" horiz-adv-x="390" d="M51 458v134q0 55 34 83t110 28q145 0 145 -111v-134q0 -111 -145 -111q-76 0 -110 28t-34 83zM116 592v-134q0 -38 18 -54.5t61 -16.5t61 16.5t18 54.5v134q0 38 -18 54.5t-61 16.5t-61 -16.5t-18 -54.5z" />
<glyph unicode="&#xbb;" horiz-adv-x="481" d="M265 270l-184 -183q-11 5 -24 16l-16 22l144 145l-145 145q5 11 17 22l23 16zM440 270l-185 -183q-11 5 -23 16q-5 5 -9.5 10.5t-6.5 8.5l-1 3l144 145l-144 145q5 11 17 22l23 16z" />
<glyph unicode="&#xbc;" horiz-adv-x="630" d="M98 379v286l-60 -16q-1 4 -1 12l1 14l75 26l35 -2v-320l53 -6q2 -4 2 -11l-2 -9q-27 -4 -78 -4l-77 4q-2 4 -2 9l2 11zM570 697l-447 -694q-17 -5 -32 -5l-31 5l447 694q14 5 31 5zM561 249v-135l33 -5q3 -5 3 -12l-3 -13q-9 -2 -31 -2v-81q-12 -2 -24 -2l-25 2v81h-153 q-3 6 -3 16l91 251q9 2 24 2l25 -2l-85 -235h102v135q11 2 23 2z" />
<glyph unicode="&#xbd;" horiz-adv-x="640" d="M98 379v286l-60 -16q-1 4 -1 12l1 14l75 26l35 -2v-320l53 -6q2 -4 2 -11l-2 -9q-27 -4 -78 -4l-77 4q-2 4 -2 9l2 11zM570 697l-447 -694q-17 -5 -32 -5l-31 5l447 694q14 5 31 5zM436 299l-7 -44q-5 -1 -15 -1l-15 1q-4 27 -4 64q3 4 10.5 9.5t35 15t61.5 9.5 q60 0 86 -21.5t26 -65.5v-22q0 -34 -17.5 -57t-43 -34.5t-51 -22.5t-43 -29.5t-17.5 -46.5v-23h142l8 37q4 2 10 2l11 -2q3 -15 3 -50l-2 -18h-118l-102 4v50q0 34 17.5 57.5t43 35.5t50.5 23t42.5 29t17.5 45v22q0 30 -14 43t-49 13q-19 0 -35.5 -6t-23.5 -12z" />
<glyph unicode="&#xbe;" horiz-adv-x="658" d="M43 700h206q3 -6 3 -15l-3 -16l-98 -119q63 0 86.5 -23t23.5 -64v-28q0 -88 -123 -88q-28 0 -53 5.5t-35 10.5l-11 5q-3 6 -3 16q0 4 1 8t1 6l1 2q0 -1 11 -6t35.5 -10.5t51.5 -5.5q41 0 58 13.5t17 43.5v28q0 30 -17 43.5t-58 13.5h-36q-2 6 -2 16l2 16l94 116h-123 l-8 -36q-4 -2 -10 -2l-10 2q-4 15 -4 50zM588 697l-447 -694q-17 -5 -32 -5l-32 5l447 694q15 5 32 5zM591 249v-135l33 -5q3 -5 3 -12l-3 -13q-9 -2 -31 -2v-81q-12 -2 -25 -2l-24 2v81h-153q-3 6 -3 16l91 251q9 2 24 2l24 -2l-84 -235h101v135q12 2 24 2z" />
<glyph unicode="&#xbf;" horiz-adv-x="525" d="M398 -108l13 94q10 3 26 3l25 -3q8 -51 8 -124q-2 -3 -6.5 -7.5t-22 -15.5t-38 -20t-56.5 -16t-76 -7q-114 0 -164 41.5t-50 124.5v48q0 41 17.5 69.5t42.5 43.5t50.5 29t43 36.5t17.5 55.5v46q21 5 43 5l43 -5v-46q0 -42 -17.5 -71t-43 -44.5t-51 -29.5t-43 -35.5 t-17.5 -53.5v-48q0 -59 29 -86t100 -27q37 0 68.5 10.5t44.5 21.5zM227 397v101q22 4 44 4l44 -4v-101q-22 -4 -44 -4z" />
<glyph unicode="&#xc0;" horiz-adv-x="713" d="M92 52l189 596l-75 10q-3 7 -3 19l3 18q51 7 151 7l60 -5l204 -645l74 -10q4 -7 4 -19l-4 -18q-39 -7 -103 -7q-43 0 -77 2t-47 4l-13 1q-4 7 -4 18l4 19l79 10l-48 153h-258l-49 -153l80 -10q3 -7 3 -19l-3 -18q-42 -7 -138 -7q-28 0 -54 2t-37 4l-12 1q-4 7 -4 18l4 19 zM357 631l-116 -369h231zM369 753l-130 125q21 5 42 5l40 -5l105 -125q-13 -5 -29 -5z" />
<glyph unicode="&#xc1;" horiz-adv-x="713" d="M92 52l189 596l-75 10q-3 7 -3 19l3 18q51 7 151 7l60 -5l204 -645l74 -10q4 -7 4 -19l-4 -18q-39 -7 -103 -7q-43 0 -77 2t-47 4l-13 1q-4 7 -4 18l4 19l79 10l-48 153h-258l-49 -153l80 -10q3 -7 3 -19l-3 -18q-42 -7 -138 -7q-28 0 -54 2t-37 4l-12 1q-4 7 -4 18l4 19 zM357 631l-116 -369h231zM473 878l-130 -125q-15 -5 -28 -5l-28 5l104 125q19 5 41 5z" />
<glyph unicode="&#xc2;" horiz-adv-x="713" d="M92 52l189 596l-75 10q-3 7 -3 19l3 18q51 7 151 7l60 -5l204 -645l74 -10q4 -7 4 -19l-4 -18q-39 -7 -103 -7q-43 0 -77 2t-47 4l-13 1q-4 7 -4 18l4 19l79 10l-48 153h-258l-49 -153l80 -10q3 -7 3 -19l-3 -18q-42 -7 -138 -7q-28 0 -54 2t-37 4l-12 1q-4 7 -4 18l4 19 zM357 631l-116 -369h231zM440 753l-84 85l-84 -85q-15 -5 -28 -5l-28 5l101 119q18 5 39 5l39 -5l101 -119q-12 -5 -28 -5z" />
<glyph unicode="&#xc3;" horiz-adv-x="713" d="M92 52l189 596l-75 10q-3 7 -3 19l3 18q51 7 151 7l60 -5l204 -645l74 -10q4 -7 4 -19l-4 -18q-39 -7 -103 -7q-43 0 -77 2t-47 4l-13 1q-4 7 -4 18l4 19l79 10l-48 153h-258l-49 -153l80 -10q3 -7 3 -19l-3 -18q-42 -7 -138 -7q-28 0 -54 2t-37 4l-12 1q-4 7 -4 18l4 19 zM357 631l-116 -369h231zM204 753v5q0 45 17.5 66t60.5 21q33 0 56.5 -14t40.5 -28t35 -14q24 0 34 10.5t10 35.5v5q12 5 25 5l25 -5v-4q0 -45 -17 -66.5t-61 -21.5q-26 0 -47 9t-31.5 19.5t-24.5 19.5t-28 9q-25 0 -34.5 -11t-9.5 -36v-5q-13 -5 -26 -5z" />
<glyph unicode="&#xc4;" horiz-adv-x="713" d="M92 52l189 596l-75 10q-3 7 -3 19l3 18q51 7 151 7l60 -5l204 -645l74 -10q4 -7 4 -19l-4 -18q-39 -7 -103 -7q-43 0 -77 2t-47 4l-13 1q-4 7 -4 18l4 19l79 10l-48 153h-258l-49 -153l80 -10q3 -7 3 -19l-3 -18q-42 -7 -138 -7q-28 0 -54 2t-37 4l-12 1q-4 7 -4 18l4 19 zM357 631l-116 -369h231zM286 852v-99q-16 -5 -35 -5l-34 5v99q15 5 34 5zM496 852v-99q-16 -5 -35 -5l-34 5v99q15 5 34 5z" />
<glyph unicode="&#xc5;" horiz-adv-x="713" d="M92 52l189 596l-75 10q-3 7 -3 19l3 18q51 7 151 7l60 -5l204 -645l74 -10q4 -7 4 -19l-4 -18q-39 -7 -103 -7q-43 0 -77 2t-47 4l-13 1q-4 7 -4 18l4 19l79 10l-48 153h-258l-49 -153l80 -10q3 -7 3 -19l-3 -18q-42 -7 -138 -7q-28 0 -54 2t-37 4l-12 1q-4 7 -4 18l4 19 zM357 631l-116 -369h231zM273 812v16q0 69 83 69t83 -69v-16q0 -69 -83 -69t-83 69zM311 828v-16q0 -37 45 -37t45 37v16q0 37 -45 37t-45 -37z" />
<glyph unicode="&#xc6;" horiz-adv-x="790" d="M709 552l-17 91h-232v-255h255q4 -11 4 -28l-4 -28h-255v-275h237l17 91q7 3 18 3l19 -3q6 -32 6 -111l-4 -37h-181l-272 5q-4 7 -4 18l4 19l71 10v153h-143l-49 -153l68 -10q4 -7 4 -19l-4 -18q-40 -7 -126 -7q-30 0 -56 2t-37 4l-10 1q-4 7 -4 18l4 19l73 10l190 597 l-74 9q-4 7 -4 19l4 18q122 5 365 5h176q4 -15 4 -37q0 -35 -1.5 -63t-2.5 -38l-2 -10q-8 -3 -19 -3zM361 643l-119 -381h129v381h-10z" />
<glyph unicode="&#xc7;" horiz-adv-x="579" d="M462 514l-13 90q-6 5 -17.5 12.5t-50.5 19.5t-83 12q-82 0 -115 -26t-33 -84v-376q0 -58 35 -84t123 -26q57 0 109 11t75 21t23 12q5 -11 5 -29l-5 -29q-8 -5 -22.5 -11.5t-66 -18.5t-108.5 -13v-7q0 -16 11 -25t23.5 -12.5t23.5 -14.5t11 -31q0 -75 -89 -75 q-21 0 -39 4.5t-25 9.5l-7 4q-3 7 -3 17l3 18q25 -16 61 -16q48 0 48 38q0 12 -10.5 18.5t-23.5 9.5t-23.5 17t-10.5 38v8q-110 6 -159 47.5t-49 118.5v376q0 83 56 125t182 42q45 0 85 -7t64 -16.5t41.5 -19.5t25.5 -17l7 -7q0 -32 -1.5 -63t-3.5 -46l-2 -15q-11 -3 -26 -3 z" />
<glyph unicode="&#xc8;" horiz-adv-x="555" d="M473 552l-16 91h-260v-255h254q5 -11 5 -28l-5 -28h-254v-275h265l16 91q8 3 18 3l19 -3q7 -32 7 -111l-5 -37h-208l-280 5q-4 7 -4 18l4 19l79 10v596l-79 10q-4 7 -4 19l4 18q113 5 280 5h203q5 -15 5 -37q0 -35 -1.5 -63t-3.5 -38l-2 -10q-7 -3 -19 -3zM331 753 l-130 125q21 5 42 5l40 -5l105 -125q-13 -5 -28 -5z" />
<glyph unicode="&#xc9;" horiz-adv-x="555" d="M473 552l-16 91h-260v-255h254q5 -11 5 -28l-5 -28h-254v-275h265l16 91q8 3 18 3l19 -3q7 -32 7 -111l-5 -37h-208l-280 5q-4 7 -4 18l4 19l79 10v596l-79 10q-4 7 -4 19l4 18q113 5 280 5h203q5 -15 5 -37q0 -35 -1.5 -63t-3.5 -38l-2 -10q-7 -3 -19 -3zM429 878 l-130 -125q-14 -5 -28 -5l-28 5l104 125q19 5 41 5z" />
<glyph unicode="&#xca;" horiz-adv-x="555" d="M473 552l-16 91h-260v-255h254q5 -11 5 -28l-5 -28h-254v-275h265l16 91q8 3 18 3l19 -3q7 -32 7 -111l-5 -37h-208l-280 5q-4 7 -4 18l4 19l79 10v596l-79 10q-4 7 -4 19l4 18q113 5 280 5h203q5 -15 5 -37q0 -35 -1.5 -63t-3.5 -38l-2 -10q-7 -3 -19 -3zM399 753 l-84 85l-84 -85q-14 -5 -28 -5l-28 5l102 119q18 5 38 5l39 -5l102 -119q-13 -5 -28 -5z" />
<glyph unicode="&#xcb;" horiz-adv-x="555" d="M473 552l-16 91h-260v-255h254q5 -11 5 -28l-5 -28h-254v-275h265l16 91q8 3 18 3l19 -3q7 -32 7 -111l-5 -37h-208l-280 5q-4 7 -4 18l4 19l79 10v596l-79 10q-4 7 -4 19l4 18q113 5 280 5h203q5 -15 5 -37q0 -35 -1.5 -63t-3.5 -38l-2 -10q-7 -3 -19 -3zM245 852v-99 q-16 -5 -35 -5l-34 5v99q15 5 34 5zM455 852v-99q-16 -5 -35 -5l-34 5v99q15 5 34 5z" />
<glyph unicode="&#xcc;" horiz-adv-x="305" d="M108 52v596l-79 10q-4 7 -4 19l4 18q41 7 123 7q37 0 68 -2t44 -4l12 -1q4 -7 4 -18l-4 -19l-79 -10v-596l79 -10q4 -7 4 -19l-4 -18q-41 -7 -124 -7q-36 0 -67 2t-43 4l-13 1q-4 7 -4 18l4 19zM166 753l-130 125q20 5 41 5l40 -5l105 -125q-13 -5 -28 -5z" />
<glyph unicode="&#xcd;" horiz-adv-x="305" d="M108 52v596l-79 10q-4 7 -4 19l4 18q41 7 123 7q37 0 68 -2t44 -4l12 -1q4 -7 4 -18l-4 -19l-79 -10v-596l79 -10q4 -7 4 -19l-4 -18q-41 -7 -124 -7q-36 0 -67 2t-43 4l-13 1q-4 7 -4 18l4 19zM269 878l-130 -125q-14 -5 -28 -5l-28 5l105 125q19 5 40 5z" />
<glyph unicode="&#xce;" horiz-adv-x="331" d="M121 52v596l-79 10q-4 7 -4 19l4 18q41 7 123 7q37 0 68 -2t43 -4l13 -1q4 -7 4 -18l-4 -19l-79 -10v-596l79 -10q4 -7 4 -19l-4 -18q-41 -7 -124 -7q-36 0 -67 2t-44 4l-12 1q-4 7 -4 18l4 19zM249 753l-84 85l-84 -85q-14 -5 -28 -5l-28 5l102 119q18 5 38 5l39 -5 l102 -119q-13 -5 -28 -5z" />
<glyph unicode="&#xcf;" horiz-adv-x="305" d="M108 52v596l-79 10q-4 7 -4 19l4 18q41 7 123 7q37 0 68 -2t44 -4l12 -1q4 -7 4 -18l-4 -19l-79 -10v-596l79 -10q4 -7 4 -19l-4 -18q-41 -7 -124 -7q-36 0 -67 2t-43 4l-13 1q-4 7 -4 18l4 19zM98 851v-98q-16 -5 -35 -5l-34 5v98q15 5 34 5zM276 851v-98q-15 -5 -34 -5 l-35 5v98q15 5 35 5z" />
<glyph unicode="&#xd0;" horiz-adv-x="634" d="M108 51v282l-79 9q-4 7 -4 19l4 18q25 4 79 6v264l-79 9q-4 8 -4 19l4 18q94 9 300 9q128 0 186.5 -42t58.5 -124v-376q0 -82 -58.5 -124t-186.5 -42q-92 0 -167 2.5t-104 4.5l-29 2q-4 7 -4 18l4 19zM344 333h-147v-281h132q84 0 119.5 26t35.5 84v376q0 58 -35.5 84 t-119.5 26h-132v-261h147q5 -11 5 -27z" />
<glyph unicode="&#xd1;" horiz-adv-x="705" d="M108 52v596l-79 10q-4 7 -4 19l4 18q39 7 117 7l39 -5l326 -544v495l-78 10q-4 7 -4 19l4 18q41 7 121 7q36 0 66.5 -2t43.5 -4l12 -1q4 -7 4 -18l-4 -19l-79 -10v-645q-19 -5 -39 -5l-38 5l-327 544v-495l79 -10q4 -7 4 -19l-4 -18q-41 -7 -122 -7q-36 0 -66 2t-42 4 l-13 1q-4 7 -4 18l4 19zM200 753v5q0 45 17.5 66t60.5 21q33 0 56.5 -14t40 -28t34.5 -14q25 0 34.5 10.5t9.5 35.5v5q13 5 26 5l25 -5v-4q0 -45 -17 -66.5t-61 -21.5q-26 0 -47 9t-32 19.5t-25 19.5t-28 9q-24 0 -34 -11t-10 -36v-5q-12 -5 -25 -5z" />
<glyph unicode="&#xd2;" horiz-adv-x="609" d="M60 162v376q0 82 58 124.5t186 42.5t186.5 -42.5t58.5 -124.5v-376q0 -82 -58.5 -124.5t-186.5 -42.5t-186 42.5t-58 124.5zM150 538v-376q0 -58 35 -84t119 -26t119.5 26t35.5 84v376q0 58 -35.5 84t-119.5 26t-119 -26t-35 -84zM317 753l-130 125q21 5 42 5l40 -5 l105 -125q-13 -5 -28 -5z" />
<glyph unicode="&#xd3;" horiz-adv-x="609" d="M60 162v376q0 82 58 124.5t186 42.5t186.5 -42.5t58.5 -124.5v-376q0 -82 -58.5 -124.5t-186.5 -42.5t-186 42.5t-58 124.5zM150 538v-376q0 -58 35 -84t119 -26t119.5 26t35.5 84v376q0 58 -35.5 84t-119.5 26t-119 -26t-35 -84zM421 878l-130 -125q-15 -5 -28 -5l-28 5 l104 125q19 5 41 5z" />
<glyph unicode="&#xd4;" horiz-adv-x="609" d="M60 162v376q0 82 58 124.5t186 42.5t186.5 -42.5t58.5 -124.5v-376q0 -82 -58.5 -124.5t-186.5 -42.5t-186 42.5t-58 124.5zM150 538v-376q0 -58 35 -84t119 -26t119.5 26t35.5 84v376q0 58 -35.5 84t-119.5 26t-119 -26t-35 -84zM388 753l-84 85l-84 -85q-15 -5 -28 -5 l-28 5l101 119q19 5 39 5l39 -5l102 -119q-13 -5 -29 -5z" />
<glyph unicode="&#xd5;" horiz-adv-x="609" d="M60 162v376q0 82 58 124.5t186 42.5t186.5 -42.5t58.5 -124.5v-376q0 -82 -58.5 -124.5t-186.5 -42.5t-186 42.5t-58 124.5zM150 538v-376q0 -58 35 -84t119 -26t119.5 26t35.5 84v376q0 58 -35.5 84t-119.5 26t-119 -26t-35 -84zM152 753v5q0 45 17.5 66t60.5 21 q33 0 56.5 -14t40.5 -28t35 -14q24 0 34 10.5t10 35.5v5q12 5 25 5l25 -5v-4q0 -45 -17 -66.5t-61 -21.5q-26 0 -47 9t-31.5 19.5t-24.5 19.5t-28 9q-25 0 -34.5 -11t-9.5 -36v-5q-12 -5 -26 -5z" />
<glyph unicode="&#xd6;" horiz-adv-x="609" d="M60 162v376q0 82 58 124.5t186 42.5t186.5 -42.5t58.5 -124.5v-376q0 -82 -58.5 -124.5t-186.5 -42.5t-186 42.5t-58 124.5zM150 538v-376q0 -58 35 -84t119 -26t119.5 26t35.5 84v376q0 58 -35.5 84t-119.5 26t-119 -26t-35 -84zM234 851v-98q-16 -5 -35 -5l-34 5v98 q15 5 34 5zM444 851v-98q-16 -5 -35 -5l-34 5v98q15 5 34 5z" />
<glyph unicode="&#xd7;" horiz-adv-x="418" d="M80 467l129 -129l128 129q11 -4 23 -15q5 -5 9.5 -10.5t6.5 -8.5l1 -3l-128 -130l128 -130q-5 -10 -17 -21l-24 -16l-127 129l-128 -129q-11 4 -24 16l-16 21l127 130l-128 130q5 11 17 22z" />
<glyph unicode="&#xd8;" horiz-adv-x="643" d="M583 697l-43 -66q26 -36 26 -93v-376q0 -82 -58 -124.5t-186 -42.5q-114 0 -174 34l-17 -26q-18 -5 -35 -5l-36 5l43 66q-26 36 -26 93v376q0 82 58.5 124.5t186.5 42.5q112 0 172 -34l17 26q17 5 36 5zM480 162v377l-294 -451q35 -38 136 -38q86 0 122 27t36 85z M163 538v-376l293 450q-35 38 -134 38q-87 0 -123 -27t-36 -85z" />
<glyph unicode="&#xd9;" horiz-adv-x="696" d="M108 648l-79 10q-4 7 -4 19l4 18q41 7 123 7q35 0 64.5 -2t41.5 -4l12 -1q4 -7 4 -18l-4 -19l-73 -10v-486q0 -57 34.5 -83.5t116.5 -26.5t116.5 26t34.5 84v486l-73 10q-3 7 -3 19l3 18q39 7 118 7q36 0 67 -2t44 -4l13 -1q3 -7 3 -18l-3 -19l-79 -10v-486 q0 -82 -57.5 -124.5t-183.5 -42.5t-183 42.5t-57 124.5v486zM361 753l-130 125q21 5 42 5l40 -5l105 -125q-13 -5 -28 -5z" />
<glyph unicode="&#xda;" horiz-adv-x="696" d="M108 648l-79 10q-4 7 -4 19l4 18q41 7 123 7q35 0 64.5 -2t41.5 -4l12 -1q4 -7 4 -18l-4 -19l-73 -10v-486q0 -57 34.5 -83.5t116.5 -26.5t116.5 26t34.5 84v486l-73 10q-3 7 -3 19l3 18q39 7 118 7q36 0 67 -2t44 -4l13 -1q3 -7 3 -18l-3 -19l-79 -10v-486 q0 -82 -57.5 -124.5t-183.5 -42.5t-183 42.5t-57 124.5v486zM465 878l-130 -125q-15 -5 -28 -5l-28 5l104 125q19 5 41 5z" />
<glyph unicode="&#xdb;" horiz-adv-x="696" d="M108 648l-79 10q-4 7 -4 19l4 18q41 7 123 7q35 0 64.5 -2t41.5 -4l12 -1q4 -7 4 -18l-4 -19l-73 -10v-486q0 -57 34.5 -83.5t116.5 -26.5t116.5 26t34.5 84v486l-73 10q-3 7 -3 19l3 18q39 7 118 7q36 0 67 -2t44 -4l13 -1q3 -7 3 -18l-3 -19l-79 -10v-486 q0 -82 -57.5 -124.5t-183.5 -42.5t-183 42.5t-57 124.5v486zM432 753l-84 85l-84 -85q-15 -5 -28 -5l-28 5l101 119q19 5 39 5l39 -5l102 -119q-13 -5 -29 -5z" />
<glyph unicode="&#xdc;" horiz-adv-x="696" d="M108 648l-79 10q-4 7 -4 19l4 18q41 7 123 7q35 0 64.5 -2t41.5 -4l12 -1q4 -7 4 -18l-4 -19l-73 -10v-486q0 -57 34.5 -83.5t116.5 -26.5t116.5 26t34.5 84v486l-73 10q-3 7 -3 19l3 18q39 7 118 7q36 0 67 -2t44 -4l13 -1q3 -7 3 -18l-3 -19l-79 -10v-486 q0 -82 -57.5 -124.5t-183.5 -42.5t-183 42.5t-57 124.5v486zM278 851v-98q-16 -5 -35 -5l-34 5v98q15 5 34 5zM488 851v-98q-16 -5 -35 -5l-34 5v98q15 5 34 5z" />
<glyph unicode="&#xdd;" horiz-adv-x="666" d="M288 52v240l-192 356l-78 10q-4 7 -4 19l4 18q41 7 102 7q44 0 79 -2t48 -4l13 -1q3 -7 3 -18l-3 -19l-71 -8l144 -285l143 285l-69 8q-4 7 -4 19l4 18q41 7 140 7q27 0 52 -2t37 -4l12 -1q4 -7 4 -18l-4 -19l-79 -10l-191 -355v-241l79 -10q3 -7 3 -19l-3 -18 q-42 -7 -124 -7q-36 0 -67 2t-44 4l-13 1q-3 7 -3 18l3 19zM450 878l-130 -125q-15 -5 -28 -5l-28 5l104 125q19 5 41 5z" />
<glyph unicode="&#xde;" horiz-adv-x="570" d="M108 52v596l-79 10q-4 7 -4 19l4 18q41 7 123 7q37 0 68 -2t44 -4l12 -1q4 -7 4 -18l-4 -19l-79 -10v-90q44 3 111 3q109 0 157.5 -42t48.5 -124v-67q0 -82 -48.5 -124t-157.5 -42l-111 4v-114l79 -10q4 -7 4 -19l-4 -18q-41 -7 -124 -7q-36 0 -67 2t-43 4l-13 1 q-4 7 -4 18l4 19zM197 505v-287h107q65 0 92.5 26t27.5 84v67q0 58 -27.5 84t-92.5 26h-107z" />
<glyph unicode="&#xdf;" horiz-adv-x="666" d="M98 50v400l-71 11q-4 6 -4 17l4 17q24 5 71 5v62q0 71 40.5 107t132.5 36q95 0 136 -35.5t41 -107.5v-17q0 -33 -10 -55.5t-24 -34t-27.5 -21.5t-23.5 -26t-10 -39v-15q0 -25 26.5 -41.5t64 -27t74.5 -24t63.5 -40.5t26.5 -68v-20q0 -68 -41.5 -103t-135.5 -35 q-47 0 -87.5 10.5t-57.5 20.5l-17 10q0 32 1.5 61.5t3.5 43.5l2 14q10 3 25 3l23 -3l13 -81q39 -26 94 -26q50 0 70.5 20.5t20.5 64.5v20q0 27 -26 44.5t-63.5 28t-75 23t-63.5 39t-26 66.5v15q0 32 9.5 53.5t23.5 33t28 21t23.5 26.5t9.5 42v17q0 43 -20.5 62.5t-70.5 19.5 q-48 0 -68 -20t-20 -62v-559q-25 -5 -53 -5q-30 0 -56 2t-36 4l-11 1q-4 7 -4 17l4 17z" />
<glyph unicode="&#xe0;" d="M356 243l-112 -13q-58 -7 -82 -27.5t-24 -57.5v-16q0 -42 18.5 -61.5t62.5 -19.5q28 0 52 6t39 14.5t26 17t16 14.5l4 6v137zM141 426l-12 -82q-10 -3 -24 -3l-24 3q-8 49 -8 119q7 5 20 12t57.5 18.5t93.5 11.5q105 0 151 -38t46 -114v-303l71 -11q4 -7 4 -17l-4 -17 q-35 -7 -103 -7l-53 5v49q-7 -6 -19.5 -15.5t-56 -25.5t-91.5 -16q-72 0 -104 34t-32 102v16q0 60 41.5 92.5t135.5 41.5l126 14v58q0 51 -25 75t-87 24q-55 0 -103 -26zM261 572l-130 125q21 5 41 5l41 -5l104 -125q-12 -5 -28 -5z" />
<glyph unicode="&#xe1;" d="M356 243l-112 -13q-58 -7 -82 -27.5t-24 -57.5v-16q0 -42 18.5 -61.5t62.5 -19.5q28 0 52 6t39 14.5t26 17t16 14.5l4 6v137zM141 426l-12 -82q-10 -3 -24 -3l-24 3q-8 49 -8 119q7 5 20 12t57.5 18.5t93.5 11.5q105 0 151 -38t46 -114v-303l71 -11q4 -7 4 -17l-4 -17 q-35 -7 -103 -7l-53 5v49q-7 -6 -19.5 -15.5t-56 -25.5t-91.5 -16q-72 0 -104 34t-32 102v16q0 60 41.5 92.5t135.5 41.5l126 14v58q0 51 -25 75t-87 24q-55 0 -103 -26zM365 697l-130 -125q-15 -5 -28 -5l-28 5l104 125q19 5 41 5z" />
<glyph unicode="&#xe2;" d="M356 243l-112 -13q-58 -7 -82 -27.5t-24 -57.5v-16q0 -42 18.5 -61.5t62.5 -19.5q28 0 52 6t39 14.5t26 17t16 14.5l4 6v137zM141 426l-12 -82q-10 -3 -24 -3l-24 3q-8 49 -8 119q7 5 20 12t57.5 18.5t93.5 11.5q105 0 151 -38t46 -114v-303l71 -11q4 -7 4 -17l-4 -17 q-35 -7 -103 -7l-53 5v49q-7 -6 -19.5 -15.5t-56 -25.5t-91.5 -16q-72 0 -104 34t-32 102v16q0 60 41.5 92.5t135.5 41.5l126 14v58q0 51 -25 75t-87 24q-55 0 -103 -26zM332 578l-84 85l-84 -85q-15 -5 -28 -5l-28 5l101 119q18 5 39 5l39 -5l101 -119q-12 -5 -28 -5z" />
<glyph unicode="&#xe3;" d="M356 243l-112 -13q-58 -7 -82 -27.5t-24 -57.5v-16q0 -42 18.5 -61.5t62.5 -19.5q28 0 52 6t39 14.5t26 17t16 14.5l4 6v137zM141 426l-12 -82q-10 -3 -24 -3l-24 3q-8 49 -8 119q7 5 20 12t57.5 18.5t93.5 11.5q105 0 151 -38t46 -114v-303l71 -11q4 -7 4 -17l-4 -17 q-35 -7 -103 -7l-53 5v49q-7 -6 -19.5 -15.5t-56 -25.5t-91.5 -16q-72 0 -104 34t-32 102v16q0 60 41.5 92.5t135.5 41.5l126 14v58q0 51 -25 75t-87 24q-55 0 -103 -26zM96 609v5q0 44 17.5 65.5t60.5 21.5q33 0 56.5 -14t40.5 -28t35 -14q24 0 33.5 10.5t9.5 35.5v5 q13 5 26 5l25 -5v-4q0 -45 -17 -66.5t-61 -21.5q-26 0 -47 9t-32 19t-25 19t-28 9q-24 0 -33.5 -10.5t-9.5 -35.5v-5q-13 -5 -26 -5z" />
<glyph unicode="&#xe4;" d="M356 243l-112 -13q-58 -7 -82 -27.5t-24 -57.5v-16q0 -42 18.5 -61.5t62.5 -19.5q28 0 52 6t39 14.5t26 17t16 14.5l4 6v137zM141 426l-12 -82q-10 -3 -24 -3l-24 3q-8 49 -8 119q7 5 20 12t57.5 18.5t93.5 11.5q105 0 151 -38t46 -114v-303l71 -11q4 -7 4 -17l-4 -17 q-35 -7 -103 -7l-53 5v49q-7 -6 -19.5 -15.5t-56 -25.5t-91.5 -16q-72 0 -104 34t-32 102v16q0 60 41.5 92.5t135.5 41.5l126 14v58q0 51 -25 75t-87 24q-55 0 -103 -26zM178 697v-98q-16 -5 -35 -5l-35 5v98q15 5 35 5zM388 697v-98q-16 -5 -35 -5l-35 5v98q15 5 35 5z" />
<glyph unicode="&#xe5;" d="M141 426l-12 -82q-10 -3 -24 -3l-24 3q-8 49 -8 119q7 5 20 12t57.5 18.5t93.5 11.5q105 0 151 -38t46 -114v-303l71 -11q4 -7 4 -17l-4 -17q-35 -7 -103 -7l-53 5v49q-7 -6 -19.5 -15.5t-56 -25.5t-91.5 -16q-72 0 -104 34t-32 102v16q0 60 41.5 92.5t135.5 41.5l126 14 v58q0 51 -25 75t-87 24q-55 0 -103 -26zM356 243l-112 -13q-58 -7 -82 -27.5t-24 -57.5v-16q0 -42 18.5 -61.5t62.5 -19.5q28 0 52 6t39 14.5t26 17t16 14.5l4 6v137zM165 618v17q0 68 83 68t83 -68v-17q0 -68 -83 -68t-83 68zM203 635v-17q0 -37 45 -37t45 37v17 q0 36 -45 36t-45 -36z" />
<glyph unicode="&#xe6;" horiz-adv-x="803" d="M139 426l-12 -82q-10 -3 -24 -3l-24 3q-8 49 -8 119q7 5 20 12t58.5 18.5t95.5 11.5q125 0 160 -71q35 71 152 71q105 0 147.5 -39.5t42.5 -118.5v-114q-55 -8 -150 -8h-150v-72q0 -55 28 -80t97 -25q45 0 84.5 9t57.5 17t18 10l2 -4q1 -3 2.5 -9.5t1.5 -13.5t-1.5 -14 t-2.5 -10l-2 -3q-55 -35 -160 -35q-134 0 -170 78q-45 -78 -211 -78q-73 0 -105.5 33.5t-32.5 100.5v16q0 61 42 93.5t138 42.5l129 15v57q0 51 -26.5 75t-90.5 24q-54 0 -106 -26zM362 244l-115 -14q-60 -7 -84.5 -27.5t-24.5 -57.5v-16q0 -42 19 -61.5t65 -19.5 q76 0 108 25.5t32 79.5v91zM447 278h219v69q0 55 -24.5 80t-85.5 25q-60 0 -84.5 -25t-24.5 -80v-69z" />
<glyph unicode="&#xe7;" horiz-adv-x="493" d="M382 344l-12 83q-47 25 -108 25q-64 0 -90 -25t-26 -80v-194q0 -55 27.5 -80t98.5 -25q44 0 83.5 9t57.5 17t18 10l1 -4q2 -3 3.5 -9.5t1.5 -13.5t-1.5 -14t-3.5 -10l-1 -3q-54 -34 -156 -35v-7q0 -16 10.5 -25t23.5 -12.5t23.5 -14.5t10.5 -31q0 -75 -89 -75 q-21 0 -38.5 4.5t-24.5 9.5l-7 4q-4 7 -4 17l4 18q25 -16 60 -16q48 0 48 38q0 12 -10.5 18.5t-23.5 9.5t-23.5 17t-10.5 38v9q-86 8 -125 47.5t-39 108.5v194q0 78 47.5 118t154.5 40q51 0 95 -10.5t63 -20.5l18 -11q0 -31 -2 -61t-4 -44l-2 -14q-10 -3 -24 -3z" />
<glyph unicode="&#xe8;" horiz-adv-x="521" d="M60 153v194q0 78 47 118t154 40q109 0 153.5 -39.5t44.5 -118.5v-114q-58 -8 -157 -8h-156v-72q0 -55 28.5 -80t101.5 -25q46 0 88 9t61 17t19 10l2 -4q1 -3 2.5 -9.5t1.5 -13.5t-1.5 -14t-2.5 -10l-2 -3q-58 -35 -168 -35q-115 0 -165.5 40t-50.5 118zM146 278h231v69 q0 55 -26 80t-90 25t-89.5 -25t-25.5 -80v-69zM272 572l-130 125q21 5 42 5l40 -5l105 -125q-13 -5 -28 -5z" />
<glyph unicode="&#xe9;" horiz-adv-x="521" d="M60 153v194q0 78 47 118t154 40q109 0 153.5 -39.5t44.5 -118.5v-114q-58 -8 -157 -8h-156v-72q0 -55 28.5 -80t101.5 -25q46 0 88 9t61 17t19 10l2 -4q1 -3 2.5 -9.5t1.5 -13.5t-1.5 -14t-2.5 -10l-2 -3q-58 -35 -168 -35q-115 0 -165.5 40t-50.5 118zM146 278h231v69 q0 55 -26 80t-90 25t-89.5 -25t-25.5 -80v-69zM375 697l-129 -125q-15 -5 -29 -5l-28 5l105 125q19 5 40 5z" />
<glyph unicode="&#xea;" horiz-adv-x="521" d="M60 153v194q0 78 47 118t154 40q109 0 153.5 -39.5t44.5 -118.5v-114q-58 -8 -157 -8h-156v-72q0 -55 28.5 -80t101.5 -25q46 0 88 9t61 17t19 10l2 -4q1 -3 2.5 -9.5t1.5 -13.5t-1.5 -14t-2.5 -10l-2 -3q-58 -35 -168 -35q-115 0 -165.5 40t-50.5 118zM146 278h231v69 q0 55 -26 80t-90 25t-89.5 -25t-25.5 -80v-69zM343 578l-84 85l-84 -85q-15 -5 -28 -5l-28 5l101 119q19 5 39 5l39 -5l102 -119q-13 -5 -29 -5z" />
<glyph unicode="&#xeb;" horiz-adv-x="521" d="M60 153v194q0 78 47 118t154 40q109 0 153.5 -39.5t44.5 -118.5v-114q-58 -8 -157 -8h-156v-72q0 -55 28.5 -80t101.5 -25q46 0 88 9t61 17t19 10l2 -4q1 -3 2.5 -9.5t1.5 -13.5t-1.5 -14t-2.5 -10l-2 -3q-58 -35 -168 -35q-115 0 -165.5 40t-50.5 118zM146 278h231v69 q0 55 -26 80t-90 25t-89.5 -25t-25.5 -80v-69zM189 697v-98q-16 -5 -35 -5l-34 5v98q15 5 34 5zM399 697v-98q-16 -5 -35 -5l-34 5v98q15 5 34 5z" />
<glyph unicode="&#xec;" horiz-adv-x="281" d="M154 572l-130 125q20 5 41 5l40 -5l105 -125q-13 -5 -28 -5zM98 50v400l-71 11q-4 7 -4 17l4 17q35 7 103 7l53 -5v-447l71 -11q4 -7 4 -17l-4 -17q-38 -7 -114 -7q-33 0 -61.5 2t-40.5 4l-11 1q-4 7 -4 17l4 17z" />
<glyph unicode="&#xed;" horiz-adv-x="283" d="M257 697l-130 -125q-14 -5 -28 -5l-28 5l105 125q18 5 40 5zM98 50v400l-71 11q-4 7 -4 17l4 17q35 7 103 7l53 -5v-447l71 -11q4 -7 4 -17l-4 -17q-38 -7 -114 -7q-33 0 -61.5 2t-40.5 4l-11 1q-4 7 -4 17l4 17z" />
<glyph unicode="&#xee;" horiz-adv-x="281" d="M98 50v400l-71 11q-4 7 -4 17l4 17q35 7 103 7l53 -5v-447l71 -11q4 -7 4 -17l-4 -17q-38 -7 -114 -7q-33 0 -61.5 2t-40.5 4l-11 1q-4 7 -4 17l4 17zM224 578l-84 85l-84 -85q-14 -5 -28 -5l-28 5l102 119q18 5 38 5l39 -5l102 -119q-13 -5 -28 -5z" />
<glyph unicode="&#xef;" horiz-adv-x="281" d="M98 50v400l-71 11q-4 7 -4 17l4 17q35 7 103 7l53 -5v-447l71 -11q4 -7 4 -17l-4 -17q-38 -7 -114 -7q-33 0 -61.5 2t-40.5 4l-11 1q-4 7 -4 17l4 17zM97 697v-98q-16 -5 -35 -5l-34 5v98q15 5 34 5zM253 697v-98q-15 -5 -34 -5l-35 5v98q15 5 35 5z" />
<glyph unicode="&#xf0;" horiz-adv-x="513" d="M415 697l-53 -53q103 -57 103 -143v-348q0 -78 -48 -118t-154 -40q-107 0 -155 40t-48 118v194q0 78 35.5 118t115.5 40q48 0 90 -14t60 -28l18 -14v52q0 55 -65 95l-42 -42q-16 -5 -31 -5l-30 5l61 63q-36 15 -79.5 25.5t-68.5 13.5l-26 3v1q-1 2 -1.5 4t-1.5 5 t-1.5 7.5t-0.5 9.5l5 26q118 -7 220 -48l32 33q14 5 32 5zM379 153v241q-4 6 -13.5 16t-46 26t-81.5 16q-52 0 -72.5 -25t-20.5 -80v-194q0 -55 26.5 -80t90.5 -25t90.5 25t26.5 80z" />
<glyph unicode="&#xf1;" horiz-adv-x="592" d="M98 50v400l-71 11q-4 7 -4 17l4 17q35 7 103 7l53 -5v-48q7 6 19.5 15.5t54.5 25t88 15.5q79 0 114.5 -39.5t35.5 -117.5v-298l70 -11q4 -7 4 -17l-4 -17q-34 -7 -103 -7l-53 5v344q0 55 -20.5 80t-71.5 25q-43 0 -76.5 -14.5t-45.5 -29.5l-12 -14v-344l71 -11 q4 -7 4 -17l-4 -17q-39 -7 -114 -7q-33 0 -61 2t-40 4l-12 1q-4 7 -4 17l4 17zM143 609v5q0 44 17.5 65.5t60.5 21.5q33 0 56.5 -14t40 -28t34.5 -14q25 0 34.5 10.5t9.5 35.5v5q13 5 26 5l25 -5v-4q0 -45 -17 -66.5t-61 -21.5q-26 0 -47 9t-32 19t-25 19t-28 9 q-24 0 -34 -11t-10 -35v-5q-12 -5 -25 -5z" />
<glyph unicode="&#xf2;" horiz-adv-x="529" d="M60 153v194q0 78 48.5 118t155.5 40q108 0 156.5 -40t48.5 -118v-194q0 -78 -48.5 -118t-156.5 -40q-107 0 -155.5 40t-48.5 118zM146 347v-194q0 -55 27 -80t91 -25q65 0 92 25t27 80v194q0 55 -27 80t-92 25q-64 0 -91 -25t-27 -80zM277 572l-130 125q21 5 42 5l40 -5 l105 -125q-13 -5 -28 -5z" />
<glyph unicode="&#xf3;" horiz-adv-x="529" d="M60 153v194q0 78 48.5 118t155.5 40q108 0 156.5 -40t48.5 -118v-194q0 -78 -48.5 -118t-156.5 -40q-107 0 -155.5 40t-48.5 118zM146 347v-194q0 -55 27 -80t91 -25q65 0 92 25t27 80v194q0 55 -27 80t-92 25q-64 0 -91 -25t-27 -80zM380 697l-129 -125q-15 -5 -29 -5 l-28 5l105 125q19 5 40 5z" />
<glyph unicode="&#xf4;" horiz-adv-x="529" d="M60 153v194q0 78 48.5 118t155.5 40q108 0 156.5 -40t48.5 -118v-194q0 -78 -48.5 -118t-156.5 -40q-107 0 -155.5 40t-48.5 118zM146 347v-194q0 -55 27 -80t91 -25q65 0 92 25t27 80v194q0 55 -27 80t-92 25q-64 0 -91 -25t-27 -80zM348 578l-84 85l-84 -85 q-15 -5 -28 -5l-28 5l101 119q19 5 39 5l39 -5l102 -119q-13 -5 -29 -5z" />
<glyph unicode="&#xf5;" horiz-adv-x="529" d="M60 153v194q0 78 48.5 118t155.5 40q108 0 156.5 -40t48.5 -118v-194q0 -78 -48.5 -118t-156.5 -40q-107 0 -155.5 40t-48.5 118zM146 347v-194q0 -55 27 -80t91 -25q65 0 92 25t27 80v194q0 55 -27 80t-92 25q-64 0 -91 -25t-27 -80zM112 609v5q0 44 17.5 65.5 t60.5 21.5q33 0 56.5 -14t40.5 -28t35 -14q24 0 34 10.5t10 35.5v5q12 5 25 5l25 -5v-4q0 -45 -17 -66.5t-61 -21.5q-33 0 -56.5 14t-40.5 28t-34 14q-25 0 -34.5 -10.5t-9.5 -35.5v-5q-12 -5 -26 -5z" />
<glyph unicode="&#xf6;" horiz-adv-x="529" d="M60 153v194q0 78 48.5 118t155.5 40q108 0 156.5 -40t48.5 -118v-194q0 -78 -48.5 -118t-156.5 -40q-107 0 -155.5 40t-48.5 118zM146 347v-194q0 -55 27 -80t91 -25q65 0 92 25t27 80v194q0 55 -27 80t-92 25q-64 0 -91 -25t-27 -80zM194 697v-98q-16 -5 -35 -5l-34 5 v98q15 5 34 5zM404 697v-98q-16 -5 -35 -5l-34 5v98q15 5 34 5z" />
<glyph unicode="&#xf7;" horiz-adv-x="426" d="M380 270h-334q-5 10 -5 26l5 27h334q5 -11 5 -27zM247 485v-90q-17 -4 -34 -4l-34 4v90q16 4 34 4zM247 197v-90q-17 -4 -34 -4l-34 4v90q16 4 34 4z" />
<glyph unicode="&#xf8;" horiz-adv-x="541" d="M472 497l-32 -45q35 -39 35 -105v-194q0 -78 -48.5 -118t-156.5 -40q-88 0 -136 27l-13 -19q-16 -5 -30 -5l-29 5l35 49q-31 37 -31 101v194q0 78 48.5 118t155.5 40q81 0 131 -25l12 17q13 5 29 5zM397 347q0 15 -4 39l-223 -314q30 -27 100 -27t98.5 25.5t28.5 82.5 v194zM143 347v-194q0 -23 2 -32l221 310q-30 24 -96 24q-69 0 -98 -25.5t-29 -82.5z" />
<glyph unicode="&#xf9;" horiz-adv-x="595" d="M98 450l-71 11q-4 7 -4 17l4 17q35 7 103 7l53 -5v-344q0 -55 20.5 -80t70.5 -25q44 0 78.5 14.5t47.5 29.5l12 14v344l-71 11q-4 7 -4 17l4 17q35 7 104 7l53 -5v-447l70 -11q4 -7 4 -17l-4 -17q-35 -7 -103 -7l-53 5v48q-7 -6 -19.5 -15.5t-55.5 -25t-91 -15.5 q-79 0 -113.5 40t-34.5 118v297zM309 572l-130 125q21 5 42 5l40 -5l104 -125q-12 -5 -28 -5z" />
<glyph unicode="&#xfa;" horiz-adv-x="595" d="M98 450l-71 11q-4 7 -4 17l4 17q35 7 103 7l53 -5v-344q0 -55 20.5 -80t70.5 -25q44 0 78.5 14.5t47.5 29.5l12 14v344l-71 11q-4 7 -4 17l4 17q35 7 104 7l53 -5v-447l70 -11q4 -7 4 -17l-4 -17q-35 -7 -103 -7l-53 5v48q-7 -6 -19.5 -15.5t-55.5 -25t-91 -15.5 q-79 0 -113.5 40t-34.5 118v297zM413 697l-130 -125q-15 -5 -28 -5l-28 5l104 125q19 5 41 5z" />
<glyph unicode="&#xfb;" horiz-adv-x="595" d="M98 450l-71 11q-4 7 -4 17l4 17q35 7 103 7l53 -5v-344q0 -55 20.5 -80t70.5 -25q44 0 78.5 14.5t47.5 29.5l12 14v344l-71 11q-4 7 -4 17l4 17q35 7 104 7l53 -5v-447l70 -11q4 -7 4 -17l-4 -17q-35 -7 -103 -7l-53 5v48q-7 -6 -19.5 -15.5t-55.5 -25t-91 -15.5 q-79 0 -113.5 40t-34.5 118v297zM380 578l-84 85l-84 -85q-15 -5 -28 -5l-28 5l101 119q18 5 39 5l39 -5l101 -119q-12 -5 -28 -5z" />
<glyph unicode="&#xfc;" horiz-adv-x="595" d="M98 450l-71 11q-4 7 -4 17l4 17q35 7 103 7l53 -5v-344q0 -55 20.5 -80t70.5 -25q44 0 78.5 14.5t47.5 29.5l12 14v344l-71 11q-4 7 -4 17l4 17q35 7 104 7l53 -5v-447l70 -11q4 -7 4 -17l-4 -17q-35 -7 -103 -7l-53 5v48q-7 -6 -19.5 -15.5t-55.5 -25t-91 -15.5 q-79 0 -113.5 40t-34.5 118v297zM226 697v-98q-16 -5 -35 -5l-35 5v98q16 5 35 5zM436 697v-98q-16 -5 -35 -5l-35 5v98q16 5 35 5z" />
<glyph unicode="&#xfd;" horiz-adv-x="593" d="M83 450l-67 11q-4 7 -4 17l4 17q38 7 93 7q32 0 60 -2t39 -4l12 -1q4 -7 4 -17l-4 -17l-56 -9l132 -382l131 382l-54 9q-4 7 -4 17l4 17q38 7 110 7q25 0 48.5 -2t34.5 -4l11 -1q4 -7 4 -17l-4 -17l-68 -11l-187 -520q-24 -69 -66 -102t-115 -33q-16 0 -31 2t-22 4l-6 2 q-5 10 -5 25l5 26q23 -6 61 -6q75 0 102 80l26 71l-27 4zM408 697l-130 -125q-14 -5 -28 -5l-28 5l105 125q19 5 40 5z" />
<glyph unicode="&#xfe;" horiz-adv-x="523" d="M158 -150l70 -11q4 -7 4 -17l-4 -17q-36 -7 -113 -7q-34 0 -62.5 2t-40.5 4l-11 1q-4 7 -4 17l4 17l71 11v800l-71 11q-4 7 -4 17l4 17q35 7 104 7l53 -5v-248q6 6 18.5 15.5t55 25t90.5 15.5q78 0 112.5 -40t34.5 -118v-194q0 -78 -40.5 -118t-131.5 -40q-46 0 -80 10.5 t-45 20t-14 15.5v-191zM383 153v194q0 55 -20 80t-70 25q-44 0 -77.5 -14.5t-45.5 -29.5l-12 -14v-241q0 -55 28 -80t96 -25q56 0 78.5 25t22.5 80z" />
<glyph unicode="&#xff;" horiz-adv-x="593" d="M83 450l-67 11q-4 7 -4 17l4 17q38 7 93 7q32 0 60 -2t39 -4l12 -1q4 -7 4 -17l-4 -17l-56 -9l132 -382l131 382l-54 9q-4 7 -4 17l4 17q38 7 110 7q25 0 48.5 -2t34.5 -4l11 -1q4 -7 4 -17l-4 -17l-68 -11l-187 -520q-24 -69 -66 -102t-115 -33q-16 0 -31 2t-22 4l-6 2 q-5 10 -5 25l5 26q23 -6 61 -6q75 0 102 80l26 71l-27 4zM221 697v-98q-16 -5 -34 -5l-35 5v98q15 5 35 5zM431 697v-98q-16 -5 -34 -5l-35 5v98q15 5 35 5z" />
<glyph unicode="&#x152;" horiz-adv-x="820" d="M722 643h-232v-255h254q5 -11 5 -28l-5 -28h-254v-275h237l16 91q8 3 19 3l18 -3q7 -32 7 -111l-5 -37h-164q-111 0 -162 6q-80 -10 -158 -10q-128 0 -186 42t-58 124v376q0 82 58 124t186 42q83 0 158 -10q114 6 162 6h159q5 -15 5 -37q0 -35 -2 -63t-4 -38l-1 -10 q-7 -3 -18 -3l-19 3zM401 52v596h-103q-84 0 -119 -26t-35 -84v-376q0 -58 35 -84t119 -26h103z" />
<glyph unicode="&#x153;" horiz-adv-x="844" d="M60 153v194q0 78 48.5 118t155.5 40q127 0 161 -73q36 73 159 73q109 0 153.5 -39.5t44.5 -118.5v-114q-58 -8 -157 -8h-156v-72q0 -55 29 -80t101 -25q46 0 88 9t61 17t19 10l1 -4q2 -3 3.5 -9.5t1.5 -13.5t-1.5 -14t-3.5 -10l-1 -3q-58 -35 -168 -35q-134 0 -173 74 q-35 -74 -162 -74q-107 0 -155.5 40t-48.5 118zM146 347v-194q0 -55 27 -80t91 -25q65 0 92 25t27 80v194q0 55 -27 80t-92 25q-64 0 -91 -25t-27 -80zM469 278h231v69q0 55 -25.5 80t-90.5 25q-64 0 -89.5 -25t-25.5 -80v-69z" />
<glyph unicode="&#x178;" horiz-adv-x="666" d="M288 52v240l-192 356l-78 10q-4 7 -4 19l4 18q41 7 102 7q44 0 79 -2t48 -4l13 -1q3 -7 3 -18l-3 -19l-71 -8l144 -285l143 285l-69 8q-4 7 -4 19l4 18q41 7 140 7q27 0 52 -2t37 -4l12 -1q4 -7 4 -18l-4 -19l-79 -10l-191 -355v-241l79 -10q3 -7 3 -19l-3 -18 q-42 -7 -124 -7q-36 0 -67 2t-44 4l-13 1q-3 7 -3 18l3 19zM263 851v-98q-16 -5 -35 -5l-35 5v98q16 5 35 5zM473 851v-98q-16 -5 -35 -5l-35 5v98q16 5 35 5z" />
<glyph unicode="&#x2c6;" horiz-adv-x="215" d="M192 578l-84 85l-84 -85q-15 -5 -28 -5l-29 5l102 119q18 5 38 5l40 -5l101 -119q-13 -5 -28 -5z" />
<glyph unicode="&#x2dc;" horiz-adv-x="407" d="M51 609v5q0 44 17.5 65.5t60.5 21.5q33 0 56.5 -14t40.5 -28t35 -14q24 0 34 10.5t10 35.5v5q12 5 25 5l25 -5v-4q0 -45 -17 -66.5t-61 -21.5q-33 0 -56.5 14t-40.5 28t-34 14q-25 0 -34.5 -10.5t-9.5 -35.5v-5q-12 -5 -26 -5z" />
<glyph unicode="&#x2000;" horiz-adv-x="448" />
<glyph unicode="&#x2001;" horiz-adv-x="897" />
<glyph unicode="&#x2002;" horiz-adv-x="448" />
<glyph unicode="&#x2003;" horiz-adv-x="897" />
<glyph unicode="&#x2004;" horiz-adv-x="299" />
<glyph unicode="&#x2005;" horiz-adv-x="224" />
<glyph unicode="&#x2006;" horiz-adv-x="149" />
<glyph unicode="&#x2007;" horiz-adv-x="149" />
<glyph unicode="&#x2008;" horiz-adv-x="112" />
<glyph unicode="&#x2009;" horiz-adv-x="179" />
<glyph unicode="&#x200a;" horiz-adv-x="49" />
<glyph unicode="&#x2010;" horiz-adv-x="298" d="M252 258h-206q-5 10 -5 26l5 27h206q4 -11 4 -27z" />
<glyph unicode="&#x2011;" horiz-adv-x="298" d="M252 258h-206q-5 10 -5 26l5 27h206q4 -11 4 -27z" />
<glyph unicode="&#x2012;" horiz-adv-x="298" d="M252 258h-206q-5 10 -5 26l5 27h206q4 -11 4 -27z" />
<glyph unicode="&#x2013;" horiz-adv-x="498" d="M452 258h-406q-5 10 -5 26l5 27h406q4 -11 4 -27z" />
<glyph unicode="&#x2014;" horiz-adv-x="648" d="M602 258h-556q-5 10 -5 26l5 27h556q4 -11 4 -27z" />
<glyph unicode="&#x2018;" horiz-adv-x="199" d="M61 496q0 65 17 115t34 68l17 18q11 5 23 5l22 -5q-5 -7 -12.5 -21t-19.5 -66t-12 -114q-16 -5 -34 -5z" />
<glyph unicode="&#x2019;" horiz-adv-x="199" d="M138 697q0 -65 -17 -115t-34 -68l-17 -18q-11 -5 -22 -5l-22 5q5 7 12 21t19 66t12 114q17 5 35 5z" />
<glyph unicode="&#x201a;" horiz-adv-x="199" d="M138 99q0 -65 -17 -115t-34 -68l-17 -18q-11 -5 -22 -5l-22 5q5 7 12 21t19 66t12 114q17 5 35 5z" />
<glyph unicode="&#x201c;" horiz-adv-x="324" d="M61 496q0 65 17 115t34 68l17 18q11 5 23 5l22 -5q-5 -7 -12.5 -21t-19.5 -66t-12 -114q-16 -5 -34 -5zM186 496q0 65 17 115t34 68l17 18q11 5 22 5l22 -5q-5 -7 -12 -21t-19 -66t-12 -114q-17 -5 -35 -5z" />
<glyph unicode="&#x201d;" horiz-adv-x="324" d="M138 697q0 -65 -17 -115t-34 -68l-17 -18q-11 -5 -22 -5l-22 5q5 7 12 21t19 66t12 114q17 5 35 5zM263 697q0 -65 -17 -115t-34 -68l-17 -18q-11 -5 -23 -5l-22 5q5 7 12.5 21t19.5 66t12 114q16 5 34 5z" />
<glyph unicode="&#x201e;" horiz-adv-x="324" d="M138 99q0 -65 -17 -115t-34 -68l-17 -18q-11 -5 -22 -5l-22 5q5 7 12 21t19 66t12 114q17 5 35 5zM263 99q0 -65 -17.5 -115t-35.5 -68l-17 -18q-11 -5 -21 -5l-22 5q5 7 12.5 21t19.5 66t12 114q16 5 34 5z" />
<glyph unicode="&#x2022;" horiz-adv-x="297" d="M241 397q7 -45 7 -97q0 -23 -2 -47t-4 -37l-1 -13q-51 -8 -101 -8q-23 0 -48.5 2t-39.5 4l-14 2q-7 44 -7 97q0 23 1.5 47.5t3.5 36.5l2 13q51 8 102 8q22 0 47.5 -2t39.5 -4z" />
<glyph unicode="&#x2026;" horiz-adv-x="589" d="M148 103v-100q-22 -5 -42 -5l-42 5v100q20 5 42 5zM336 103v-100q-21 -5 -42 -5l-42 5v100q21 5 42 5zM525 103v-100q-21 -5 -42 -5l-42 5v100q20 5 42 5z" />
<glyph unicode="&#x202f;" horiz-adv-x="179" />
<glyph unicode="&#x2039;" horiz-adv-x="306" d="M40 270l184 183q12 -4 24 -16l17 -22l-144 -145l144 -145q-5 -11 -17 -22l-23 -16z" />
<glyph unicode="&#x203a;" horiz-adv-x="306" d="M265 270l-184 -183q-11 5 -24 16l-16 22l144 145l-145 145q5 11 17 22l23 16z" />
<glyph unicode="&#x205f;" horiz-adv-x="224" />
<glyph unicode="&#x20ac;" horiz-adv-x="600" d="M486 514l-13 90q-6 5 -17.5 12.5t-50.5 19.5t-83 12q-83 0 -116 -26t-33 -84v-97h246q4 -11 4 -27l-4 -26h-246v-80h245q5 -11 5 -27l-5 -26h-245v-93q0 -58 35.5 -84t123.5 -26q57 0 108.5 11t74.5 21t23 12q6 -11 6 -29q0 -8 -1.5 -15t-2.5 -10l-2 -4q-8 -5 -23.5 -12 t-69.5 -19t-114 -12q-131 0 -189 42t-58 125v93h-52q-5 10 -5 26l5 27h52v80h-52q-4 10 -4 26l4 27h52v97q0 83 56 125t182 42q45 0 85 -7t64 -16.5t41.5 -19.5t25.5 -17l7 -7q0 -32 -1.5 -63t-3.5 -46l-2 -15q-11 -3 -26 -3z" />
<glyph unicode="&#x2122;" horiz-adv-x="685" d="M274 666h-93v-315q-14 -2 -28 -2l-28 2v315h-94q-3 6 -3 17l3 17h243q3 -7 3 -17zM649 699v-347q-13 -3 -26 -3l-27 3v273l-90 -217q-10 -3 -23 -3l-25 3l-89 216v-273q-13 -2 -26 -2l-27 2v347q0 3 37 3l36 -3l93 -226l94 227q17 3 36 3z" />
<glyph unicode="&#x25fc;" horiz-adv-x="500" d="M0 500h500v-500h-500v500z" />
</font>
</defs>
</svg>
