<?xml version="1.0" encoding="utf-8"?>
<!-- Generator: Adobe Illustrator 15.0.0, SVG Export Plug-In . SVG Version: 6.00 Build 0)  -->
<!DOCTYPE svg PUBLIC "-//W3C//DTD SVG 1.1//EN" "http://www.w3.org/Graphics/SVG/1.1/DTD/svg11.dtd">
<svg version="1.1" id="Layer_1" xmlns="http://www.w3.org/2000/svg" xmlns:xlink="http://www.w3.org/1999/xlink" x="0px" y="0px"
	 width="117.049px" height="101.367px" viewBox="0 0 117.049 101.367" enable-background="new 0 0 117.049 101.367"
	 xml:space="preserve">
<g>
	<polygon points="14.334,3.842 22.969,9.069 10.21,30.693 1.575,25.467 	"/>
</g>
<g>
	<polygon points="39.062,3.842 47.697,9.069 22.969,9.069 14.334,3.842 	"/>
</g>
<g>
	<polygon points="1.575,25.467 10.21,30.693 22.18,52.318 13.544,47.092 	"/>
</g>
<g>
	<polygon fill="#B1B1B1" points="39.062,3.842 47.697,9.069 59.666,30.693 51.031,25.467 	"/>
</g>
<g>
	<polygon points="39.209,3.6 47.844,8.827 59.95,30.693 51.315,25.467 	"/>
</g>
<g>
	<polygon fill="#D7D7D7" points="39.062,3.842 51.031,25.467 38.273,47.092 13.544,47.092 1.575,25.467 14.334,3.842 	"/>
</g>
<g>
	<polygon fill="#808080" points="38.273,47.092 46.908,52.318 22.18,52.318 13.544,47.092 	"/>
</g>
<g>
	<polygon fill="#959595" points="51.031,25.467 59.666,30.693 46.908,52.318 38.273,47.092 	"/>
</g>
<g>
	<polygon points="51.315,25.467 59.95,30.693 47.046,52.569 38.411,47.343 	"/>
</g>
<g>
	<polygon points="38.411,47.343 47.046,52.569 22.033,52.569 13.398,47.343 	"/>
</g>
<g>
	<path d="M39.209,3.6l12.106,21.866L38.411,47.343H13.398L1.292,25.467L14.196,3.6H39.209z M38.273,47.092l12.758-21.625
		L39.062,3.842H14.334L1.575,25.467l11.97,21.625H38.273"/>
</g>
</svg>
