<?xml version="1.0" encoding="utf-8"?>
<!-- Generator: Adobe Illustrator 16.0.4, SVG Export Plug-In . SVG Version: 6.00 Build 0)  -->
<!DOCTYPE svg PUBLIC "-//W3C//DTD SVG 1.1//EN" "http://www.w3.org/Graphics/SVG/1.1/DTD/svg11.dtd">
<svg version="1.1" id="Layer_1" xmlns="http://www.w3.org/2000/svg" xmlns:xlink="http://www.w3.org/1999/xlink" x="0px" y="0px"
	 width="726px" height="628px" viewBox="0 0 726 628" enable-background="new 0 0 726 628" xml:space="preserve">
<g>
	<g>
		<g enable-background="new    ">
			<g>
				<polygon points="161.893,-13.245 209.54,22.553 30.005,331.9 -17.644,296.103 				"/>
			</g>
			<g>
				<polygon points="518.716,-13.245 566.364,22.553 209.54,22.553 161.893,-13.245 				"/>
			</g>
			<g>
				<polygon points="-17.644,296.103 30.005,331.9 207.278,641.245 159.63,605.447 				"/>
			</g>
			<g>
				<polygon fill="#A6A6A6" points="518.717,-13.245 566.365,22.552 743.647,331.898 695.999,296.102 				"/>
			</g>
			<g>
				<polygon points="521.029,-17.234 568.678,18.564 748.25,331.9 700.603,296.103 				"/>
			</g>
			<g>
				<polygon fill="#DBDBDB" points="518.717,-13.245 695.999,296.102 516.455,605.448 159.631,605.448 -17.643,296.102 
					161.893,-13.245 				"/>
			</g>
			<g>
				<polygon fill="#808080" points="516.455,605.448 564.104,641.246 207.279,641.246 159.631,605.448 				"/>
			</g>
			<g>
				<polygon fill="#8A8A8A" points="695.999,296.102 743.647,331.898 564.104,641.246 516.455,605.448 				"/>
			</g>
			<g>
				<polygon points="700.603,296.103 748.25,331.9 566.387,645.233 518.738,609.437 				"/>
			</g>
			<g>
				<polygon points="518.738,609.437 566.387,645.233 204.965,645.233 157.316,609.436 				"/>
			</g>
			<g>
				<path d="M521.029-17.234l179.573,313.336L518.738,609.437l-361.422-0.001L-22.248,296.103L159.607-17.234H521.029z
					 M516.454,605.447l179.544-309.345L518.716-13.245H161.893L-17.644,296.103L159.63,605.447H516.454"/>
			</g>
		</g>
	</g>
</g>
</svg>
