<?xml version="1.0" standalone="no"?>
<!DOCTYPE svg PUBLIC "-//W3C//DTD SVG 1.1//EN" "http://www.w3.org/Graphics/SVG/1.1/DTD/svg11.dtd" >
<svg xmlns="http://www.w3.org/2000/svg">
<metadata></metadata>
<defs>
<font id="pancetta_serif_proXLtIt" horiz-adv-x="1421" >
<font-face units-per-em="2048" ascent="1536" descent="-512" />
<missing-glyph horiz-adv-x="468" />
<glyph unicode="&#xfb01;" horiz-adv-x="1081" d="M-106 -369q2 8 5.5 16.5t6.5 12.5l2 4q38 -18 102 -18q82 0 120 39.5t52 126.5l183 1151l-146 14q-2 8 -2 18l10 19q50 10 148 10l22 154q23 130 95.5 197t212.5 67q57 0 135 -19l2 -30q-2 -8 -5.5 -16t-6.5 -13l-3 -4q-40 18 -112 18q-112 0 -165 -49t-69 -151l-22 -154 q167 2 508 2l59 -6l-135 -858q-9 -54 9 -80.5t69 -26.5q14 0 26 1.5t19 3.5l6 1l2 -28l-12 -27q-42 -14 -78 -14q-154 0 -125 170l127 803l-485 -2l-183 -1151q-20 -114 -78.5 -172t-169.5 -58q-63 0 -120 21q-1 1 -2 3.5t-2 10t0 14.5zM977 1235l31 195q20 6 43 6l41 -6 l-31 -195q-22 -8 -45 -8q-10 0 -20 2t-14 4z" />
<glyph unicode="&#xfb02;" horiz-adv-x="1081" d="M-106 -369q2 8 5.5 16.5t6.5 12.5l2 4q38 -18 102 -18q82 0 120 39.5t52 126.5l183 1151l-146 14q-2 8 -2 18l10 19q50 10 148 10l22 154q46 264 326 264q54 0 141 -15l20 3q20 2 59.5 4t88.5 2l60 -6l-201 -1268q-9 -54 9 -80.5t69 -26.5q14 0 26 1.5t19 3.5l6 1l2 -28 l-12 -27q-42 -14 -78 -14q-154 0 -125 170l190 1206l-249 18q-231 0 -267 -208l-22 -154h317l2 -31l-12 -30h-317l-183 -1151q-20 -114 -78.5 -172t-169.5 -58q-63 0 -120 21q-1 1 -2 3.5t-2 10t0 14.5z" />
<glyph unicode="&#xfb03;" horiz-adv-x="1650" d="M-106 -369q2 8 5.5 16.5t6.5 12.5l2 4q38 -18 102 -18q82 0 120 39.5t52 126.5l183 1151l-146 14q-2 8 -2 18l10 19q50 10 148 10l22 154q23 130 95.5 197t212.5 67q57 0 135 -19l2 -30q-2 -8 -5.5 -16t-6.5 -13l-3 -4q-40 18 -112 18q-112 0 -165 -49t-69 -151l-22 -154 h485l23 154q23 130 95.5 197t211.5 67q57 0 135 -19l2 -30q-2 -8 -5.5 -16t-5.5 -13l-3 -4q-43 18 -113 18q-112 0 -164.5 -48.5t-68.5 -151.5l-23 -154q198 2 508 2q16 0 30.5 -1.5t21.5 -2.5l7 -2l-135 -858q-9 -54 9 -80.5t69 -26.5q14 0 26 1.5t18 3.5l7 1q4 -12 0 -28 l-10 -27q-42 -14 -80 -14q-152 0 -123 170l127 803l-485 -2l-182 -1151q-20 -114 -78.5 -172t-171.5 -58q-64 0 -121 21q-1 1 -2 3.5t-2 10t0 14.5q2 8 5.5 16t5.5 13l3 4q37 -18 105 -18q82 0 120 39.5t52 126.5l182 1151h-485l-183 -1151q-20 -114 -78.5 -172t-169.5 -58 q-63 0 -120 21q-1 1 -2 3.5t-2 10t0 14.5zM1546 1235l31 195q20 6 43 6l41 -6l-31 -195q-22 -8 -45 -8q-10 0 -20 2t-15 4z" />
<glyph unicode="&#xfb04;" horiz-adv-x="1650" d="M-106 -369q2 8 5.5 16.5t6.5 12.5l2 4q38 -18 102 -18q82 0 120 39.5t52 126.5l183 1151l-146 14q-2 8 -2 18l10 19q50 10 148 10l22 154q23 130 95.5 197t212.5 67q57 0 135 -19l2 -30q-2 -8 -5.5 -16t-6.5 -13l-3 -4q-40 18 -112 18q-112 0 -165 -49t-69 -151l-22 -154 h485l23 154q46 264 325 264q52 0 144 -15q1 0 8 1t20.5 2.5t32 2.5t46.5 2t59 1q16 0 30.5 -1.5t21.5 -2.5l7 -2l-201 -1268q-9 -54 9 -80.5t69 -26.5q14 0 26 1.5t18 3.5l7 1q4 -12 0 -28l-10 -27q-42 -14 -80 -14q-152 0 -123 170l191 1206l-248 18q-117 0 -185 -53.5 t-83 -154.5l-23 -154h318l2 -31q-2 -8 -5 -15.5t-5 -11.5l-3 -3h-317l-182 -1151q-20 -114 -78.5 -172t-171.5 -58q-64 0 -121 21q-1 1 -2 3.5t-2 10t0 14.5q2 8 5.5 16t5.5 13l3 4q37 -18 105 -18q82 0 120 39.5t52 126.5l182 1151h-485l-183 -1151q-20 -114 -78.5 -172 t-169.5 -58q-63 0 -120 21q-1 1 -2 3.5t-2 10t0 14.5z" />
<glyph horiz-adv-x="2048" />
<glyph horiz-adv-x="2048" />
<glyph unicode="&#xd;" horiz-adv-x="2048" />
<glyph unicode=" "  horiz-adv-x="468" />
<glyph unicode="&#x09;" horiz-adv-x="468" />
<glyph unicode="&#xa0;" horiz-adv-x="468" />
<glyph unicode="!" horiz-adv-x="405" d="M158 4l26 172q22 6 47 6l45 -6l-28 -172q-24 -6 -47 -6q-11 0 -22 1.5t-16 2.5zM225 420l162 1010q20 6 43 6l41 -6l-162 -1010q-21 -8 -41 -8q-11 0 -22 2t-16 4z" />
<glyph unicode="&#x22;" horiz-adv-x="602" d="M324 1024l59 406q19 6 39 6l33 -6l-70 -406q-15 -8 -31 -8q-7 0 -14.5 2t-11.5 4zM537 1024l61 406q17 6 37 6l33 -6l-68 -406q-17 -8 -33 -8q-7 0 -14.5 2t-11.5 4z" />
<glyph unicode="#" horiz-adv-x="1099" d="M168 399q-4 13 0 31q1 8 3.5 16t4.5 12l2 3h144l124 512h-139q-1 1 -1.5 4t-1.5 11t1 16q1 8 4 15.5t5 10.5l3 4h144l96 396q19 6 39 6q9 0 17.5 -1.5t12.5 -2.5l5 -2l-96 -396h401l94 396q19 6 39 6q9 0 17.5 -1.5t13.5 -2.5l4 -2l-94 -396h147l2 -30l-12 -31h-154 l-125 -512h150q1 -1 2 -4t2 -11t0 -16q-2 -8 -5.5 -16t-6.5 -12l-2 -3h-154l-94 -395q-19 -6 -37 -6q-9 0 -17.5 1.5t-13.5 2.5l-4 2l94 395h-403l-94 -395q-21 -6 -39 -6l-33 6l94 395h-139zM393 461h404l123 512h-402z" />
<glyph unicode="$" horiz-adv-x="1150" d="M158 129q10 58 22 115t18 84l7 28q12 6 26 6q6 0 12 -1.5t9 -2.5l2 -2l-12 -194q5 -4 13.5 -11t40.5 -25.5t68.5 -32t96.5 -25t125 -11.5q188 0 277 59.5t108 184.5l18 115q9 59 -10 103.5t-58.5 73t-93 50.5t-113.5 39.5t-120 35.5t-113 42.5t-91.5 57t-56.5 83.5 t-7 117l16 115q23 146 123.5 223t306.5 84l31 194q17 6 37 6l34 -6l-30 -194q73 -2 135.5 -17t99 -34.5t62 -38.5t35.5 -32l10 -13q-8 -58 -19 -115t-19 -85l-7 -28q-13 -6 -25 -6q-6 0 -11.5 1.5t-8.5 3.5l-2 1l12 195q-4 4 -11.5 11t-35 25t-60 32t-86 25t-112.5 11 q-182 0 -268 -59.5t-105 -183.5l-18 -115q-8 -55 11.5 -97t59.5 -68.5t93.5 -47.5t114 -38t120.5 -35t113 -44.5t91.5 -60.5t55.5 -88t6 -123l-18 -115q-23 -146 -128.5 -223.5t-314.5 -83.5l-30 -195q-19 -6 -35 -6l-37 6l31 195q-82 2 -152 17t-111 34.5t-70.5 38.5 t-40.5 32z" />
<glyph unicode="%" horiz-adv-x="1501" d="M250 4l1143 1426q20 6 45 6q10 0 19.5 -1.5t13.5 -2.5l4 -2l-1141 -1426q-25 -6 -45 -6q-10 0 -20 1.5t-15 2.5zM293 1010l33 215q18 105 91 159t216 54q142 0 197.5 -54t39.5 -159l-34 -215q-32 -213 -306 -213q-142 0 -198.5 54t-38.5 159zM362 1010q-14 -84 25.5 -124 t149.5 -40t163.5 40t67.5 124l33 215q12 84 -28 124t-150 40t-162.5 -40t-63.5 -124zM854 209l35 215q32 213 305 213q144 0 201 -54t39 -159l-33 -215q-18 -105 -91.5 -159t-215.5 -54q-143 0 -199.5 54t-40.5 159zM926 209q-14 -84 25.5 -124t150.5 -40q108 0 161.5 40 t67.5 124l33 215q14 84 -27 124t-151 40q-109 0 -161.5 -40t-66.5 -124z" />
<glyph unicode="&#x26;" horiz-adv-x="1445" d="M174 324l16 114q40 243 302 299q-217 59 -181 291l15 88q52 326 456 326q112 0 188.5 -20t118 -60.5t54.5 -95.5t2 -129l-19 -113h318q4 -13 0 -31q-1 -8 -3.5 -15.5t-4.5 -11.5l-2 -3h-316l-112 -707q-16 -103 20.5 -152t147.5 -49q59 0 118 19q8 -5 -3 -47 q-4 -16 -7 -15q-82 -20 -135 -20q-149 0 -197 86q-1 0 -20 -9.5t-51 -22t-76 -25t-109 -21t-135 -8.5q-227 0 -319.5 86t-65.5 246zM258 324q-15 -91 9.5 -149t98.5 -89t203 -31q180 0 359 76q-12 55 0 125l139 881q10 60 0 105t-43 75.5t-95.5 45.5t-156.5 15 q-173 0 -257 -64t-105 -198l-15 -88q-21 -133 45 -196.5t244 -63.5h102q5 -13 5 -33q-2 -8 -5.5 -15.5t-6.5 -11.5l-3 -3h-102q-192 0 -285.5 -65.5t-114.5 -201.5z" />
<glyph unicode="'" horiz-adv-x="387" d="M324 1024l59 406q19 6 39 6l33 -6l-70 -406q-15 -8 -31 -8q-7 0 -14.5 2t-11.5 4z" />
<glyph unicode="(" horiz-adv-x="591" d="M160 -4l196 1241q46 301 373 301q1 -1 1.5 -4t1.5 -11t-1 -16q-1 -8 -4 -15.5t-5 -11.5l-3 -3q-133 0 -199 -59t-84 -181l-196 -1241q-19 -122 28 -181t178 -59q1 -1 2 -3.5t2 -11t-1 -17.5q-1 -8 -3.5 -16t-5.5 -12l-2 -3q-327 0 -278 303z" />
<glyph unicode=")" horiz-adv-x="591" d="M53 -276q2 9 5 17t6 11l2 4q133 0 199 59t85 181l197 1241q18 123 -29 181.5t-180 58.5l-2 30l12 31q325 0 279 -301l-199 -1241q-46 -303 -371 -303q-1 1 -2 4t-2 11t0 16z" />
<glyph unicode="*" horiz-adv-x="980" d="M281 1114q0 17 8 35q4 8 10 15.5t10 11.5l4 4l312 -117l55 367q17 6 37 6q8 0 16.5 -1.5t12.5 -2.5l4 -2l-60 -365l350 115q9 -11 15 -29q1 -8 0 -16.5t-3 -13.5l-1 -5l-351 -110l162 -295q3 -2 -12 -13.5t-32 -20.5t-19 -5l-158 299l-250 -299q-6 -7 -36 20 q-19 17 -13 19l254 293z" />
<glyph unicode="+" horiz-adv-x="854" d="M201 584q-4 12 0 30q1 8 4 16t5 12l3 3h283l47 297q15 6 35 6q8 0 15 -1.5t10 -2.5l3 -2l-45 -297h283l2 -31q-2 -8 -5.5 -15.5t-6.5 -10.5l-3 -4h-282l-45 -295q-13 -8 -33 -8q-8 0 -16.5 2t-12.5 4l-4 2l47 295h-284z" />
<glyph unicode="," horiz-adv-x="399" d="M33 -188q4 4 11.5 13t28.5 41.5t39 70.5t38.5 102.5t31.5 136.5q20 6 43 6q11 0 22 -1.5t16 -2.5l5 -2q-12 -74 -34.5 -139t-45.5 -104.5t-44.5 -68.5t-35.5 -40l-14 -12q-19 -9 -35 -9q-7 0 -13.5 2.5t-9.5 4.5z" />
<glyph unicode="-" horiz-adv-x="622" d="M195 590q2 8 5.5 16t5.5 12l3 3h399q4 -13 0 -31q-1 -8 -3.5 -16t-4.5 -12l-2 -3h-399q-1 1 -2 4t-2 11t0 16z" />
<glyph unicode="." horiz-adv-x="403" d="M158 4l26 172q20 6 45 6q11 0 22 -1.5t16 -2.5l5 -2l-26 -172q-25 -6 -45 -6q-11 0 -22 1.5t-16 2.5z" />
<glyph unicode="/" horiz-adv-x="802" d="M102 4l742 1426q20 6 45 6l39 -6l-742 -1426q-25 -6 -43 -6q-11 0 -21.5 1.5t-15.5 2.5z" />
<glyph unicode="0" horiz-adv-x="1153" d="M197 295l133 844q49 303 473 303q221 0 311 -78t66 -225l-131 -844q-53 -303 -476 -303q-221 0 -310.5 77.5t-65.5 225.5zM281 295q-19 -122 50 -181t253 -59t272 59t109 181l131 844q21 122 -48 180.5t-253 58.5q-185 0 -273.5 -58.5t-107.5 -180.5z" />
<glyph unicode="1" horiz-adv-x="761" d="M150 25q0 5 2 9.5t4 6.5l2 2l211 16l202 1299l-256 -78q-7 1 4 38q4 9 5 9l278 109l66 -6l-215 -1371l204 -16q2 -6 2 -18l-8 -17q-78 -10 -252 -10q-78 0 -140 2.5t-85 5.5l-22 2z" />
<glyph unicode="2" horiz-adv-x="1101" d="M143 12l27 166q14 87 49.5 156.5t85 116t109.5 83t124.5 64.5t128.5 55t124 59t108 72t82.5 99.5t46.5 134.5l16 115q21 126 -43.5 185.5t-242.5 59.5q-59 0 -116 -11t-95.5 -26.5t-69 -31t-45.5 -26.5l-14 -11l-47 -195q-13 -6 -27 -6q-6 0 -11.5 1.5t-8.5 3.5l-2 1 q6 97 24 228q5 6 15.5 15t49 32.5t83 41.5t119 33t155.5 15q218 0 301 -78t59 -231l-18 -115q-13 -84 -48.5 -150.5t-84 -111t-108.5 -79.5t-125 -62.5t-129 -54.5t-124 -61t-108.5 -75.5t-83.5 -104t-47 -141.5l-19 -117h674l43 170q9 5 19 5l18 -5l1 5q3 -28 -12 -138 q-10 -76 -22 -98h-434q-102 0 -196 3t-138 6z" />
<glyph unicode="3" horiz-adv-x="1087" d="M141 115q1 9 4 17t6 12l3 3q5 -4 15 -10t46.5 -22t78 -28t109.5 -22t142 -10q191 0 283 65.5t114 203.5l23 153q24 140 -55.5 204t-284.5 64h-95l-2 31q2 9 5.5 17t6.5 12l3 4l514 561h-635l-43 -168q-11 -4 -23 -4l-16 4q13 182 33 232h790q10 1 0 -43q-5 -20 -8 -19 l-522 -565q98 0 172.5 -12t121 -33.5t76.5 -51.5t40.5 -66.5t13 -79t-7.5 -87.5l-25 -153q-53 -332 -487 -332q-79 0 -149 9.5t-113 23t-74.5 27t-44.5 22.5l-13 10q-1 1 -1.5 4t-1.5 11t1 16z" />
<glyph unicode="4" horiz-adv-x="1069" d="M184 391l561 1039q21 6 46 6q12 0 23 -1.5t16 -2.5l4 -2l-547 -1006h538l95 596q21 6 41 6q10 0 19.5 -1.5t13.5 -2.5l5 -2l-94 -594l156 -14q4 -9 0 -23q0 -6 -2 -11.5t-4 -7.5l-2 -3q-47 -9 -156 -9l-55 -354q-23 -6 -43 -6l-41 6l57 356h-629z" />
<glyph unicode="5" horiz-adv-x="1089" d="M125 84q-10 0 3 47q5 16 7 16q5 -4 15.5 -10t47 -22t78 -28t110 -22t142.5 -10q181 0 268.5 65.5t108.5 203.5l27 170q22 137 -45 202.5t-250 65.5h-340q-4 15 0 33l129 626q150 13 379 13h276q4 -21 0 -50q-10 -59 -20 -104.5t-15 -61.5l-4 -16q-10 -4 -20 -4l-14 4 l6 170h-520l-111 -545h264q101 0 174 -16.5t114 -46.5t64 -71.5t24 -91.5t-7 -107l-27 -170q-53 -332 -471 -332q-79 0 -148.5 9.5t-112 23t-74.5 27t-45 22.5z" />
<glyph unicode="6" horiz-adv-x="1142" d="M207 295l125 792q27 173 140.5 263t336.5 90q101 0 186 -13t119 -25l35 -13q4 -13 0 -33q-1 -9 -4 -17t-5 -12l-3 -4q-13 6 -39 15t-115 23.5t-188 14.5q-184 0 -270.5 -70t-110.5 -216l-49 -316q6 5 18.5 12t55.5 26.5t90.5 34t123 26.5t154.5 12q173 0 236.5 -76.5 t39.5 -226.5l-45 -287q-49 -303 -465 -303q-216 0 -304 78t-62 225zM291 295q-21 -122 46 -181t247 -59q179 0 265 59t105 181l47 287q18 125 -30.5 183t-188.5 58q-84 0 -158.5 -13t-122 -31.5t-82.5 -36.5t-50 -31l-15 -13z" />
<glyph unicode="7" horiz-adv-x="1036" d="M303 4l746 1366h-664l-43 -168q-10 -4 -20 -4l-17 4q-4 49 19 182q2 13 5.5 25.5t6.5 18.5l2 6h813q1 -1 1.5 -4t1.5 -11t-1 -16l-760 -1399q-20 -6 -47 -6q-12 0 -23 1.5t-15 2.5z" />
<glyph unicode="8" horiz-adv-x="1153" d="M197 295l24 170q36 219 271 274q-190 59 -154 269l20 131q46 303 445 303q207 0 289 -77.5t59 -225.5l-21 -131q-31 -211 -237 -269q214 -55 182 -274l-26 -170q-49 -303 -476 -303q-222 0 -312 78t-64 225zM281 295q-21 -122 48.5 -181t254.5 -59t273.5 59t107.5 181 l26 170q19 122 -50.5 181t-254.5 59q-184 0 -273 -59t-108 -181zM422 1008q-21 -122 42 -181t232 -59q168 0 250 59t103 181l18 131q19 122 -43 180.5t-229 58.5q-170 0 -252 -58.5t-103 -180.5z" />
<glyph unicode="9" horiz-adv-x="1142" d="M217 43q-4 15 0 33q1 9 3.5 17t4.5 12l2 4q14 -6 41.5 -15t118.5 -24t188 -15q182 0 268 70.5t109 216.5l56 344q-6 -5 -18.5 -12t-55 -26.5t-90.5 -34t-123.5 -26.5t-155.5 -12q-172 0 -236 77.5t-40 226.5l41 258q49 303 465 303q216 0 303.5 -77.5t64.5 -225.5 l-125 -793q-29 -172 -142 -262t-333 -90q-101 0 -187.5 12.5t-122.5 25.5zM373 879q-20 -123 29 -181.5t190 -58.5q84 0 158.5 12.5t122 30.5t82.5 36.5t50 31.5l15 12l59 375q19 122 -48 180.5t-247 58.5t-265.5 -58.5t-104.5 -180.5z" />
<glyph unicode=":" horiz-adv-x="403" d="M158 4l26 172q20 6 45 6q11 0 22 -1.5t16 -2.5l5 -2l-26 -172q-25 -6 -45 -6q-11 0 -22 1.5t-16 2.5zM291 848l26 172q23 6 48 6l41 -6l-27 -172q-22 -6 -45 -6q-11 0 -22 1.5t-16 2.5z" />
<glyph unicode=";" horiz-adv-x="399" d="M33 -188q4 4 11.5 13t28.5 41.5t39 70.5t38.5 102.5t31.5 136.5q20 6 43 6q11 0 22 -1.5t16 -2.5l5 -2q-12 -74 -34.5 -139t-45.5 -104.5t-44.5 -68.5t-35.5 -40l-14 -12q-19 -9 -35 -9q-7 0 -13.5 2.5t-9.5 4.5zM287 848l26 172q22 6 47 6l41 -6l-26 -172q-22 -6 -45 -6 z" />
<glyph unicode="&#x3c;" horiz-adv-x="929" d="M205 653l756 379q4 -7 2 -24.5t-7 -35.5t-8 -16l-610 -303l516 -303q4 -19 0 -37q-1 -9 -4.5 -18t-6.5 -14l-3 -5z" />
<glyph unicode="=" horiz-adv-x="892" d="M174 463l12 31h672q4 -13 0 -31q-1 -8 -3.5 -16.5t-4.5 -12.5l-2 -4h-672zM236 846q2 8 5.5 16t6.5 12l2 3h672q2 -13 0 -31l-11 -31h-671q-1 1 -2 4t-2 11t0 16z" />
<glyph unicode="&#x3e;" horiz-adv-x="929" d="M172 276q-8 5 5 59q5 19 7 17l607 301l-510 303q-4 21 0 39q1 9 4 18t5 14l3 5l633 -379z" />
<glyph unicode="?" horiz-adv-x="1021" d="M313 1077q5 97 25 228q5 6 14.5 15t44.5 32.5t76 41.5t109 33t143 15q205 0 281.5 -78t52.5 -231l-17 -115q-10 -61 -36.5 -107.5t-61 -75t-75 -51.5t-80.5 -44.5t-74 -47t-59.5 -66.5t-34.5 -96l-19 -110q-23 -8 -43 -8q-10 0 -20.5 2t-15.5 4l-5 2l19 110 q10 63 36.5 111t61.5 77t75.5 52.5t80.5 44.5t74 46t59.5 64.5t33.5 92.5l19 115q19 126 -39 185.5t-223 59.5q-53 0 -104 -10.5t-86 -26t-62.5 -31t-40.5 -26.5l-14 -10l-48 -197q-12 -6 -26 -6q-6 0 -11.5 1.5t-7.5 3.5zM451 4l26 172q20 6 45 6l45 -6l-26 -172 q-24 -6 -47 -6q-11 0 -22 1.5t-16 2.5z" />
<glyph unicode="@" horiz-adv-x="1378" d="M143 -43l113 723q19 114 85 190t199.5 119t336.5 43q239 0 330.5 -86t64.5 -254l-98 -633l143 -16q2 -6 2 -18l-10 -17q-51 -10 -168 -10q-16 0 -31.5 1.5t-23.5 2.5l-7 2l19 117q-6 -5 -17.5 -14t-50.5 -31t-82.5 -39t-112.5 -31t-141 -14q-139 0 -190 65.5t-29 194.5 l4 47q21 122 112 186t279 84l306 33l12 90q23 142 -50 209.5t-272 67.5q-266 0 -385 -70t-143 -219l-113 -723q-28 -172 56 -241.5t327 -69.5q87 0 169.5 9.5t138.5 23t100 27t65 22.5l21 10l2 -33q-2 -8 -5.5 -16t-6.5 -11l-2 -4q-7 -4 -20 -10t-59 -22t-98.5 -28 t-137.5 -22t-177 -10q-187 0 -294.5 41.5t-144.5 122.5t-16 211zM557 252q-16 -101 21.5 -149t146.5 -48q74 0 141 14.5t109.5 35.5t74.5 42t46 35l14 15l55 344l-293 -33q-153 -17 -224 -67t-85 -142z" />
<glyph unicode="A" d="M43 8q-7 -1 1 30q3 12 5 11l162 14l639 1307l-160 14q-7 0 1 31q3 11 5 10q76 11 242 11q15 0 28.5 -1.5t19.5 -2.5l7 -2l234 -1367l159 -14q4 -8 0 -20l-8 -21q-63 -10 -186 -10q-73 0 -128.5 2.5t-75.5 5.5l-19 2q-1 1 -1.5 2.5t-1.5 7t1 11.5l8 20l168 14l-66 377 h-596l-184 -377l164 -14l2 -20l-8 -21q-66 -10 -230 -10q-55 0 -100.5 2.5t-63.5 5.5zM512 506h559l-147 852z" />
<glyph unicode="B" horiz-adv-x="1243" d="M70 27q0 5 2 10t4 8l2 2l166 14l205 1311l-160 14q-7 0 1 31q3 11 5 10q216 13 584 13q215 0 301 -82.5t59 -241.5l-14 -88q-36 -232 -267 -291q241 -55 201 -299l-16 -114q-27 -161 -146 -245.5t-348 -84.5q-164 0 -308 3t-207 6l-62 3q-1 1 -1.5 2.5t-1.5 7t1 11.5z M330 57h329q190 0 283 65.5t115 201.5l16 114q22 136 -49.5 201.5t-261.5 65.5h-330zM442 768h330q175 0 260.5 63.5t106.5 196.5l14 88q14 88 -8.5 144t-90 86t-186.5 30h-329z" />
<glyph unicode="C" horiz-adv-x="1177" d="M199 301l131 832q23 152 141 230.5t356 78.5q89 0 164 -14t118.5 -34t75 -40.5t43.5 -34.5l11 -14q-9 -58 -20 -115t-18 -85l-7 -28q-13 -6 -27 -6q-5 0 -10 1.5t-7 3.5l-3 1l12 195q-4 4 -13 11t-40.5 25t-67.5 32t-96 25t-125 11q-199 0 -290.5 -59t-110.5 -184 l-131 -832q-21 -125 52.5 -184.5t276.5 -59.5q44 0 87 3t78.5 8.5t69 12.5t60 15t49.5 15.5t40 14.5t28.5 12.5t17.5 8.5l7 3q1 -1 1.5 -4t1.5 -11.5t-1 -17.5q-1 -9 -4.5 -17t-6.5 -12l-4 -4q-6 -4 -17.5 -10t-51.5 -22t-86.5 -28t-122 -22t-156.5 -10q-241 0 -336 78.5 t-69 230.5z" />
<glyph unicode="D" horiz-adv-x="1251" d="M70 27q0 5 2 10t4 8l2 2l166 14l205 1311l-160 14q-7 0 1 31q3 11 5 10q154 13 569 13q241 0 339.5 -78t74.5 -229l-129 -832q-26 -151 -149.5 -229t-364.5 -78q-166 0 -306.5 3t-198.5 6l-58 3q-1 1 -1.5 2.5t-1.5 7t1 11.5zM330 57h315q202 0 299.5 60t116.5 184 l131 832q21 123 -57.5 183t-280.5 60h-315z" />
<glyph unicode="E" horiz-adv-x="1105" d="M70 29q1 3 2 6.5t2 6t2 4t1 2.5l1 1l166 14l205 1307l-160 14q-7 0 1 31q3 11 5 10q216 9 541 9h393q4 -21 0 -52q-11 -72 -22 -127t-16 -73l-5 -19q-9 -6 -21 -6q-4 0 -8 1.5t-6 3.5l-2 1l10 205h-622l-95 -598h557q5 -15 5 -33q-2 -8 -5.5 -16t-6.5 -12l-3 -4h-557 l-100 -639h633l51 204q8 6 20 6q5 0 9.5 -1.5t6.5 -2.5l1 -2q2 -57 -23 -219q-3 -14 -7 -26.5t-7 -18.5l-2 -6h-404q-145 0 -279.5 2t-196.5 4l-62 2q-1 1 -1.5 2.5t-1.5 7t1 11.5z" />
<glyph unicode="F" horiz-adv-x="1077" d="M70 29q1 3 2 6.5t2 6t2 4t1 2.5l1 1l166 14l205 1307l-160 14q-7 0 1 31q3 11 5 10q216 9 541 9h374q6 -21 0 -52q-11 -72 -22 -127t-16 -73l-5 -19q-10 -6 -22 -6q-4 0 -8.5 1.5t-6.5 3.5l-2 1l13 205h-604l-95 -598h549q4 -15 4 -33q-2 -8 -5.5 -16t-5.5 -12l-3 -4 h-549l-100 -642l160 -14q7 -1 -1 -31q-4 -11 -6 -10q-66 -10 -211 -10q-64 0 -114.5 2.5t-69.5 5.5l-18 2q-1 1 -1.5 2.5t-1.5 7t1 11.5z" />
<glyph unicode="G" horiz-adv-x="1202" d="M199 301l131 832q23 152 142 230.5t357 78.5q88 0 163 -14t119.5 -34t76 -40.5t43.5 -34.5l12 -14q-9 -58 -20.5 -115t-18.5 -85l-8 -28q-11 -6 -25 -6q-6 0 -11.5 1.5t-7.5 3.5l-3 1l12 195q-4 4 -13 11t-40.5 25t-67.5 32t-96 25t-125 11q-200 0 -292 -59t-111 -184 l-131 -832q-21 -123 54.5 -183.5t270.5 -60.5q99 0 193.5 17t138.5 34l45 17l84 539h-336q-1 1 -1.5 3.5t-1.5 11t1 17.5q1 8 4 16.5t5 12.5l3 4h93q88 0 169.5 -3t118.5 -6l37 -3l-102 -639q-8 -3 -22.5 -9t-62 -20.5t-98 -25.5t-126.5 -20t-152 -9q-235 0 -331 78t-70 229 z" />
<glyph unicode="H" horiz-adv-x="1370" d="M70 29q1 3 2 6.5t2 6t2 4t1 2.5l1 1l166 14l205 1307l-160 14q-7 0 1 31q3 11 5 10q66 11 209 11q64 0 116 -3t72 -5l19 -3q4 -6 0 -20l-9 -21l-165 -14l-95 -602h725l97 602l-162 14q-4 9 0 21q1 6 3 11t3 7l2 2q66 11 209 11q64 0 115 -3t70 -5l20 -3q0 -1 0.5 -2 t1.5 -6.5t0 -11.5l-10 -21l-166 -14l-207 -1307l164 -14q4 -8 0 -20q-1 -6 -3 -11.5t-4 -7.5l-2 -2q-65 -10 -208 -10q-64 0 -115 2.5t-71 5.5l-19 2l-2 21l8 20l166 14l100 642h-725l-100 -642l160 -14q7 -1 -1 -31q-4 -11 -6 -10q-66 -10 -211 -10q-64 0 -114.5 2.5 t-69.5 5.5l-18 2q-1 1 -1.5 2.5t-1.5 7t1 11.5z" />
<glyph unicode="I" horiz-adv-x="555" d="M70 29q1 3 2 6.5t2 6t2 4t1 2.5l1 1l166 14l205 1307l-160 14q-7 0 1 31q3 11 5 10q66 11 209 11q64 0 116 -3t72 -5l19 -3q4 -6 0 -20l-9 -21l-165 -14l-205 -1307l160 -14q7 -1 -1 -31q-4 -11 -6 -10q-66 -10 -211 -10q-64 0 -114.5 2.5t-69.5 5.5l-18 2q-1 1 -1.5 2.5 t-1.5 7t1 11.5z" />
<glyph unicode="J" horiz-adv-x="935" d="M63 117q4 20 15 33q0 -1 10.5 -10.5t34.5 -23.5t55 -27t80 -22.5t102 -9.5q144 0 213.5 59.5t90.5 184.5l167 1069l-161 14q-1 1 -1.5 3t-1.5 7.5t1 10.5q1 6 3 11t3 7l2 2q66 11 211 11q64 0 114.5 -3t69.5 -5l19 -3q7 1 -1 -31q-4 -11 -6 -10l-165 -14l-168 -1069 q-26 -152 -121 -230.5t-279 -78.5q-58 0 -108.5 9.5t-81.5 23t-53.5 27t-31.5 22.5l-9 10q-1 1 -1.5 4t-1.5 11.5t0 17.5zM78 150z" />
<glyph unicode="K" horiz-adv-x="1241" d="M70 29q1 3 2 6.5t2 6t2 4t1 2.5l1 1l166 14l205 1307l-160 14q-7 0 1 31q3 11 5 10q66 11 209 11q64 0 116 -3t72 -5l19 -3q4 -6 0 -20l-9 -21l-165 -14l-101 -647l207 57l483 594l-145 10l-2 21l10 20q64 11 236 11q49 0 92 -3t61 -5l19 -3q0 -1 0.5 -2t1.5 -6.5 t0 -11.5l-10 -21l-166 -14l-510 -625l323 -682l160 -14l2 -20l-8 -21q-65 -10 -178 -10q-76 0 -134.5 2.5t-79.5 5.5l-20 2l-2 21l10 20l154 12l-307 652l-209 -56l-92 -594l160 -14q7 -1 -1 -31q-4 -11 -6 -10q-66 -10 -211 -10q-64 0 -114.5 2.5t-69.5 5.5l-18 2 q-1 1 -1.5 2.5t-1.5 7t1 11.5z" />
<glyph unicode="L" horiz-adv-x="1052" d="M70 29q1 3 2 6.5t2 6t2 4t1 2.5l1 1l166 14l205 1307l-160 14q-7 0 1 31q3 11 5 10q66 11 209 11q64 0 116 -3t72 -5l19 -3q4 -6 0 -20l-9 -21l-165 -14l-205 -1304h581l52 204q8 6 20 6q5 0 9 -1.5t6 -2.5l1 -2q1 -57 -24 -219l-14 -51h-353q-145 0 -279.5 2t-196.5 4 l-62 2q-1 1 -1.5 2.5t-1.5 7t1 11.5z" />
<glyph unicode="M" horiz-adv-x="1654" d="M70 29q1 3 2 6.5t2 6t2 4t1 2.5l1 1l166 14l205 1307l-160 14q-7 0 1 31q3 11 5 10q65 11 215 11q15 0 28.5 -1.5t19.5 -2.5l7 -2l312 -1086l665 1086q24 6 53 6q67 0 120.5 -3t74.5 -5l20 -3q4 -6 0 -20l-8 -21l-166 -14l-206 -1307l161 -14q7 0 -1 -32q-3 -10 -5 -9 q-66 -10 -209 -10q-63 0 -113.5 2.5t-69.5 5.5l-19 2q-1 1 -1.5 2.5t-1.5 7t0 11.5l9 20l166 14l192 1221l-631 -1032q-20 -6 -45 -6l-45 6l-297 1032l-192 -1221l161 -14q1 -1 1.5 -2.5t1.5 -7t0 -10.5l-11 -21q-64 -10 -209 -10q-63 0 -113 2.5t-69 5.5l-18 2 q-1 1 -1.5 2.5t-1.5 7t1 11.5z" />
<glyph unicode="N" horiz-adv-x="1390" d="M70 29q1 3 2 6.5t2 6t2 4t1 2.5l1 1l166 14l205 1307l-160 14q-7 0 1 31q3 11 5 10q66 11 205 11q10 0 19.5 -1.5t13.5 -2.5l4 -2l563 -1278l190 1218l-164 14q-4 9 0 21q1 6 3 11t4 7l2 2q65 11 208 11q63 0 113.5 -3t69.5 -5l20 -3q0 -1 0.5 -2t1.5 -6.5t0 -11.5 l-10 -21l-164 -14l-217 -1366q-18 -6 -41 -6l-37 6l-561 1278l-190 -1219l161 -14q1 -1 1.5 -2.5t1.5 -7t0 -10.5l-11 -21q-64 -10 -209 -10q-63 0 -113 2.5t-69 5.5l-18 2q-1 1 -1.5 2.5t-1.5 7t1 11.5z" />
<glyph unicode="O" horiz-adv-x="1230" d="M199 301l131 832q46 309 514 309q240 0 338.5 -79t74.5 -230l-131 -832q-24 -151 -148 -230t-366 -79q-241 0 -340 79t-73 230zM285 301q-21 -123 57.5 -183.5t280.5 -60.5q204 0 301 60t116 184l131 832q21 123 -57 183t-280 60q-204 0 -301.5 -59.5t-116.5 -183.5z" />
<glyph unicode="P" horiz-adv-x="1159" d="M70 29q1 3 2 6.5t2 6t2 4t1 2.5l1 1l166 14l205 1309l-160 14q-7 0 1 31q3 11 5 10q218 13 530 13q224 0 314.5 -78t66.5 -229l-26 -166q-24 -151 -139 -229.5t-339 -78.5q-80 0 -149 2.5t-98 4.5l-29 2l-94 -605l160 -14q7 -1 -1 -31q-4 -11 -6 -10q-66 -10 -211 -10 q-64 0 -114.5 2.5t-69.5 5.5l-18 2q-1 1 -1.5 2.5t-1.5 7t1 11.5zM436 723h277q124 0 205.5 28t122.5 81t53 135l26 166q21 123 -50 183t-255 60h-276z" />
<glyph unicode="Q" horiz-adv-x="1230" d="M199 301l131 832q46 309 514 309q240 0 338.5 -79t74.5 -230l-131 -832q-39 -249 -348 -299l144 -356q-21 -6 -48 -6l-43 6l-133 350q-58 -4 -86 -4q-241 0 -340 79t-73 230zM285 301q-21 -123 57.5 -183.5t280.5 -60.5q204 0 301 60t116 184l131 832q21 123 -57 183 t-280 60q-204 0 -301.5 -59.5t-116.5 -183.5z" />
<glyph unicode="R" horiz-adv-x="1257" d="M70 29q1 3 2 6.5t2 6t2 4t1 2.5l1 1l166 14l205 1307l-160 14q-7 0 1 31q3 11 5 10q216 15 532 15q224 0 314.5 -78t66.5 -229l-24 -164q-42 -260 -353 -301l220 -605l161 -14l2 -20l-8 -21q-65 -10 -182 -10q-74 0 -130.5 2.5t-76.5 5.5l-20 2q-4 7 0 21l8 20l151 10 l-208 603h-43q-80 0 -149.5 2t-99.5 4l-30 2l-94 -607l160 -14q7 -1 -1 -31q-4 -11 -6 -10q-66 -10 -211 -10q-64 0 -114.5 2.5t-69.5 5.5l-18 2q-1 1 -1.5 2.5t-1.5 7t1 11.5zM436 725h279q124 0 205.5 28t122.5 81t53 135l26 164q21 124 -49 183.5t-256 59.5h-278z" />
<glyph unicode="S" horiz-adv-x="1163" d="M170 119q9 59 20 116.5t18 84.5l7 28q13 4 27 4l20 -4l-12 -196q4 -4 13 -10.5t40 -22.5t67 -28.5t95 -23t123 -10.5q188 0 275 59t108 185l16 115q9 59 -10 103.5t-58 73t-92 50.5t-113 39.5t-119.5 35.5t-112 42.5t-91 57t-56.5 83.5t-7 117l16 115q24 152 135 230.5 t334 78.5q81 0 149.5 -13t108 -32t68 -37.5t39.5 -31.5l10 -13q-9 -59 -20.5 -116.5t-19.5 -85.5l-7 -28q-11 -4 -25 -4l-22 4l12 197q-4 4 -11.5 10t-35 22.5t-59.5 29t-85 22.5t-112 10q-182 0 -268 -59.5t-105 -183.5l-18 -115q-9 -61 16.5 -107t74.5 -71.5t113.5 -49 t133 -40.5t132.5 -44.5t111.5 -61.5t71 -92.5t10.5 -135.5l-16 -115q-26 -154 -139 -231.5t-342 -77.5q-87 0 -161 13t-117.5 32t-74.5 37.5t-43 31.5z" />
<glyph unicode="T" horiz-adv-x="1185" d="M276 1163l7 81q15 141 32 190h1004q4 -21 -2 -52q-11 -72 -22 -127t-16 -73l-5 -19q-9 -6 -21 -6q-5 0 -9 1.5t-6 3.5l-1 1l12 205h-395l-205 -1305l162 -14q5 0 -3 -35l-3 -6q-68 -10 -211 -10q-64 0 -115 2.5t-71 5.5l-19 2q-7 -1 1 30q3 12 5 11l168 14l205 1305h-401 l-52 -205q-10 -6 -20 -6q-5 0 -10 1.5t-7 3.5z" />
<glyph unicode="U" horiz-adv-x="1378" d="M281 301l168 1069l-160 14q-7 0 1 31q3 11 5 10q66 11 209 11q64 0 114.5 -3t69.5 -5l19 -3q4 -6 0 -20l-9 -21l-161 -14l-168 -1069q-19 -124 56 -184t273 -60q197 0 293 60t115 184l168 1069l-158 14l-2 21l8 20q64 11 207 11q64 0 115 -3t70 -5l20 -3q4 -6 0 -20 l-8 -21l-166 -14l-168 -1069q-49 -309 -504 -309q-237 0 -335 79t-72 230z" />
<glyph unicode="V" horiz-adv-x="1427" d="M260 1384q-4 9 0 21q1 6 3 11t3 7l2 2q66 11 189 11q72 0 128 -3t75 -5l20 -3q0 -1 0.5 -2t1.5 -6.5t0 -11.5l-10 -21l-166 -14l219 -1294l625 1294l-160 14l-2 21l10 20q63 11 225 11q56 0 102.5 -3t65.5 -5l19 -3q4 -6 0 -20l-8 -21l-166 -14l-664 -1366q-28 -6 -61 -6 l-58 6l-231 1366z" />
<glyph unicode="W" horiz-adv-x="2088" d="M260 1384q-4 9 0 21q1 6 3 11t3 7l2 2q66 11 195 11q70 0 125 -3t74 -5l20 -3q0 -1 0.5 -2t1.5 -6.5t0 -11.5l-10 -21l-166 -14l147 -1288l562 1348q22 6 55 6q14 0 26.5 -1.5t18.5 -2.5l6 -2l139 -1348l549 1288l-158 14q-1 1 -1.5 3t-1.5 7.5t1 10.5q1 6 3 11t4 7l2 2 q65 11 221 11q58 0 105.5 -3t65.5 -5l19 -3q7 1 -1 -32q-3 -10 -5 -9l-168 -14l-588 -1366q-28 -6 -61 -6q-14 0 -27.5 1.5t-20.5 2.5l-7 2l-138 1344l-557 -1344q-28 -6 -59 -6q-15 0 -29 1.5t-21 2.5l-7 2l-160 1366z" />
<glyph unicode="X" horiz-adv-x="1345" d="M49 29l10 20l164 14l506 660l-289 647l-159 14q-7 0 1 31q3 11 5 10q65 11 180 11q76 0 135 -3t80 -5l20 -3q6 -1 -4 -34q-3 -7 -4 -7l-159 -12l262 -594l444 594l-154 12q-4 9 0 21q1 6 3 11t4 7l2 2q65 11 239 11q50 0 93 -3t61 -5l18 -3q7 1 -1 -32q-3 -10 -5 -9 l-166 -14l-491 -647l295 -660l164 -14q4 -8 0 -20q-1 -6 -3 -11.5t-4 -7.5l-2 -2q-65 -10 -180 -10q-78 0 -137 2.5t-79 5.5l-19 2q-1 1 -1.5 2.5t-1.5 7t1 11.5l8 20l162 12l-269 609l-461 -609l158 -12q4 -8 0 -20l-8 -21q-66 -10 -240 -10q-51 0 -95 2.5t-62 5.5l-19 2z " />
<glyph unicode="Y" horiz-adv-x="1310" d="M260 1384q-4 9 0 21q1 6 3 11t3 7l2 2q66 11 181 11q77 0 135.5 -3t77.5 -5l20 -3q7 1 -1 -32q-3 -10 -5 -9l-162 -12l254 -661l459 661l-156 12l-2 21l10 20q64 11 238 11q51 0 95.5 -3t63.5 -5l19 -3q2 -6 0 -20l-8 -21l-168 -14l-522 -729l-88 -578l159 -14 q7 0 -1 -32q-3 -10 -5 -9q-66 -10 -209 -10q-64 0 -115 2.5t-70 5.5l-19 2q-1 1 -2 2.5t-2 7t1 11.5q1 5 3 10t4 7l2 3l168 14l88 578l-289 729z" />
<glyph unicode="Z" horiz-adv-x="1112" d="M115 33q2 8 5.5 16.5t5.5 12.5l3 4l983 1302h-717l-51 -207q-10 -4 -22 -4q-4 0 -8.5 1t-6.5 2l-2 1l6 81q16 142 33 192h875q1 -1 2 -4t2 -11.5t0 -17.5q-2 -8 -5.5 -16.5t-6.5 -12.5l-3 -4l-981 -1302h717l53 206q9 4 21 4l16 -4q1 -59 -24 -221q-3 -14 -7 -26.5 t-7 -18.5l-3 -6h-874q-1 1 -2 4t-2 11.5t0 17.5z" />
<glyph unicode="[" horiz-adv-x="618" d="M113 -309l290 1847q93 0 179.5 -1.5t127.5 -2.5l40 -2q2 -13 2 -29q-2 -7 -5 -14t-6 -11l-2 -3q-104 -7 -266 -7l-270 -1706q72 0 138.5 -1.5t97.5 -2.5l30 -2q6 -4 -5 -46q-3 -12 -5 -11q-137 -8 -346 -8z" />
<glyph unicode="\" horiz-adv-x="802" d="M328 1430q20 6 45 6q10 0 20 -1.5t15 -2.5l4 -2l290 -1426q-23 -6 -43 -6l-41 6z" />
<glyph unicode="]" horiz-adv-x="618" d="M59 -301q-6 5 4 45q5 13 7 12q104 6 268 6l270 1706q-73 0 -139.5 2t-96.5 4l-30 1q-4 12 0 28q0 7 2 14.5t4 10.5l2 4q139 6 348 6l-290 -1847q-93 0 -180 2t-128 4z" />
<glyph unicode="^" horiz-adv-x="897" d="M272 1085l402 355l289 -355q-9 -14 -23 -26l-31 -17l-252 310l-346 -312q-14 7 -24 19q-5 5 -9 11.5t-5 10.5z" />
<glyph unicode="_" horiz-adv-x="1007" d="M-16 -164l12 62h985l-12 -62h-985z" />
<glyph unicode="`" horiz-adv-x="397" d="M268 1430q22 6 47 6q11 0 22 -1.5t16 -2.5l5 -2l183 -244q-16 -8 -39 -8q-7 0 -15.5 2t-12.5 4l-5 2z" />
<glyph unicode="a" horiz-adv-x="1093" d="M197 295l69 434q24 149 111 226t256 77q80 0 141.5 -13t91.5 -32t48 -37.5t22 -31.5l4 -13l16 115q20 6 43 6l41 -6l-133 -840q-10 -73 4.5 -99t67.5 -26q14 0 26.5 3t19.5 6l7 2q4 -13 4 -29l-14 -27l-6 -2q-6 -3 -12.5 -5.5t-17 -5t-24 -4t-28.5 -1.5q-127 0 -111 131 q-6 -5 -17 -14t-49.5 -31.5t-81 -40t-109.5 -31.5t-138 -14q-147 0 -201 77.5t-30 225.5zM281 295q-20 -123 19 -181.5t157 -58.5q71 0 135.5 14.5t105.5 35t71.5 41t44.5 34.5l13 15l84 534q19 122 -43.5 181t-232.5 59q-136 0 -201.5 -58.5t-83.5 -181.5z" />
<glyph unicode="b" horiz-adv-x="1081" d="M193 4l217 1370l-144 17q-7 0 1 27q3 8 5 7q57 11 170 11q17 0 32 -1.5t22 -2.5l6 -2l-82 -525q3 8 12.5 20.5t36 32t63 35.5t98.5 27.5t136 11.5q173 0 237.5 -77.5t40.5 -225.5l-67 -434q-26 -149 -105 -226t-227 -77q-69 0 -131 13.5t-100 32t-66.5 37.5t-40.5 33 l-12 13l-19 -117q-20 -6 -43 -6q-10 0 -20 1.5t-15 2.5zM307 197q3 -6 9.5 -15.5t33 -34t60 -43t94 -34t131.5 -15.5q120 0 178.5 58t79.5 182l68 434q19 123 -29.5 181.5t-186.5 58.5q-170 0 -252.5 -59t-101.5 -181z" />
<glyph unicode="c" horiz-adv-x="1001" d="M197 295l69 434q24 149 122 226t292 77q67 0 126 -9t94.5 -21.5t62 -25t37.5 -21.5l10 -9q-9 -58 -20 -114.5t-18 -83.5l-7 -27q-13 -6 -27 -6q-5 0 -9.5 1.5t-6.5 3.5l-2 1l12 188q-117 60 -262 60q-156 0 -229 -58.5t-91 -181.5l-69 -434q-20 -124 35.5 -182t215.5 -58 q95 0 187 20.5t137 40.5l45 21l2 -33q-2 -9 -5.5 -17t-5.5 -11l-3 -4l-17 -8.5t-48 -19.5t-77 -24.5t-103 -19t-128 -8.5q-194 0 -268.5 77.5t-50.5 225.5z" />
<glyph unicode="d" horiz-adv-x="1101" d="M197 295l69 434q24 149 112.5 226t260.5 77q74 0 132 -12t89 -27.5t52.5 -36t27.5 -32t8 -19.5l72 469l-143 17q-3 6 -3 16q1 3 2 6.5t2 5.5t2 3l2 2l1 1q53 11 170 11q7 0 14 -0.5t13 -1t11 -1t9 -1t6.5 -1t4.5 -1.5h1l-197 -1250q-9 -48 -4 -76t22.5 -38.5t53.5 -10.5 q13 0 25.5 3t19.5 6l8 2q8 -3 -2 -41q-5 -16 -8 -15l-6 -2q-6 -3 -13 -5.5t-17.5 -5t-24 -4t-27.5 -1.5q-129 0 -113 131q-6 -5 -17 -14t-50 -31.5t-82 -40t-111 -31.5t-139 -14q-149 0 -203 77.5t-30 225.5zM281 295q-20 -124 20 -182t160 -58q52 0 100.5 8t84.5 20.5 t68 27.5t53.5 30t37 27.5t22.5 20.5l7 8l86 532q12 81 -10.5 133t-89 79.5t-181.5 27.5q-138 0 -204.5 -58.5t-84.5 -181.5z" />
<glyph unicode="e" horiz-adv-x="1052" d="M197 295l69 434q24 149 124 226t300 77q202 0 277 -77t51 -226l-37 -227q-133 -13 -336 -13h-334l-30 -194q-20 -123 39 -181.5t225 -58.5q98 0 194 20.5t143 40.5l46 21q1 -1 1.5 -4t1.5 -11.5t-1 -17.5q-1 -9 -4.5 -17t-7.5 -11l-3 -4l-17 -8.5t-48.5 -19.5 t-79.5 -24.5t-107 -19t-133 -8.5q-202 0 -279.5 77t-53.5 226zM319 551h588l29 178q19 123 -38 181.5t-218 58.5q-162 0 -237 -58.5t-93 -181.5z" />
<glyph unicode="f" horiz-adv-x="688" d="M-106 -369q2 8 5.5 16.5t5.5 12.5l3 4q37 -18 102 -18q42 0 72 10t50 31.5t31.5 51.5t18.5 73l183 1155l-144 16q-8 3 3 30q3 7 5 7q48 8 146 8l22 150q23 130 95.5 197t212.5 67q57 0 135 -19l2 -30q-2 -8 -5.5 -16t-6.5 -13l-3 -4q-40 18 -112 18q-112 0 -165 -49 t-69 -151l-22 -148h317q1 -1 2 -4t2 -11.5t0 -17.5q-2 -8 -5.5 -15.5t-6.5 -11.5l-2 -3h-317l-183 -1155q-20 -114 -78.5 -172t-169.5 -58q-63 0 -120 21q-1 1 -2 3.5t-2 10t0 14.5z" />
<glyph unicode="g" horiz-adv-x="1058" d="M123 -346q1 9 3.5 17t5 12t3.5 4q13 -5 37.5 -11.5t105 -18t166.5 -11.5q114 0 185.5 27.5t106.5 78.5t48 133l35 228q-4 -8 -13.5 -19t-36.5 -30t-63 -34t-97.5 -26.5t-135.5 -11.5q-171 0 -235.5 77.5t-40.5 225.5l69 434q24 149 103 226t227 77q69 0 131 -13.5 t100 -32t66.5 -37.5t40.5 -33l12 -13l17 117q22 6 45 6q10 0 20 -1.5t14 -2.5l5 -2l-179 -1135q-24 -149 -126.5 -226t-307.5 -77q-90 0 -167.5 10t-109.5 20l-32 11q-1 1 -1.5 4t-1.5 11t1 16zM281 295q-20 -124 27.5 -182t187.5 -58q170 0 252.5 59t101.5 181l84 532 q-3 6 -9.5 15.5t-33 34t-60 43t-94 34t-131.5 15.5q-121 0 -179.5 -58.5t-76.5 -181.5z" />
<glyph unicode="h" horiz-adv-x="1136" d="M193 4l217 1370l-144 17q-6 -1 0 25q4 10 6 9q53 11 170 11q16 0 31 -1.5t22 -2.5l7 -2l-82 -527q6 5 16.5 14t48 31t79 39t107 31t134.5 14q148 0 201 -77t30 -226l-90 -567q-9 -54 9 -80.5t69 -26.5q13 0 25 1.5t19 3.5l7 1q4 -12 0 -28l-10 -27q-42 -14 -80 -14 q-152 0 -123 170l90 567q19 123 -20.5 181.5t-157.5 58.5q-70 0 -133.5 -14.5t-104.5 -35.5t-72 -42t-44 -35l-14 -15l-130 -823q-23 -6 -43 -6q-10 0 -20 1.5t-15 2.5z" />
<glyph unicode="i" horiz-adv-x="514" d="M223 981q-7 -1 1 27q3 8 5 8q51 10 168 10q16 0 31.5 -1.5t23.5 -2.5l7 -2l-135 -858q-9 -55 8 -81t69 -26q13 0 25.5 1.5t19.5 3.5l7 1l2 -28l-13 -27q-42 -14 -77 -14q-155 0 -123 170l125 803zM410 1235l30 195q20 6 43 6q10 0 20.5 -1.5t15.5 -2.5l5 -2l-30 -195 q-22 -8 -45 -8q-10 0 -20 2t-14 4z" />
<glyph unicode="j" horiz-adv-x="487" d="M-113 -369q1 5 2.5 10.5t3 9t3.5 7t3 4.5l1 2q43 -18 110 -18q61 0 101.5 21.5t61.5 60t30 100.5l180 1137l-143 16q-7 -1 1 27q3 8 5 8q51 10 168 10q16 0 31.5 -1.5t22.5 -2.5l7 -2l-188 -1192q-20 -120 -84.5 -183t-184.5 -63q-64 0 -129 21q-1 1 -1.5 3.5t-1.5 10 t1 14.5zM426 1235l31 195q20 6 43 6q10 0 20.5 -1.5t15.5 -2.5l5 -2l-31 -195q-22 -8 -45 -8q-10 0 -20 2t-14 4z" />
<glyph unicode="k" horiz-adv-x="993" d="M190 4l216 1370l-142 17q-6 -1 0 25q4 10 6 9q53 11 170 11l60 -6l-146 -912l164 55l334 398l-96 10q-4 6 -4 18l8 17q57 10 178 10q43 0 78.5 -2.5t49.5 -5.5l15 -2h1q0 -1 1 -3t1 -4v-4.5t-1 -5.5q0 -5 -1.5 -9.5t-3.5 -6.5l-1 -2l-137 -16l-358 -424l235 -482l133 -16 q2 -6 2 -18l-10 -17q-51 -10 -139 -10l-53 6l-242 504l-164 -53l-70 -451q-23 -6 -43 -6q-11 0 -21.5 1.5t-15.5 2.5z" />
<glyph unicode="l" horiz-adv-x="489" d="M217 162l189 1212l-142 17q-6 -1 0 25q4 10 6 9q53 11 170 11q16 0 31 -1.5t22 -2.5l7 -2l-201 -1268q-8 -55 9 -81t69 -26q13 0 25 1.5t19 3.5l7 1l2 -28l-12 -27q-42 -14 -78 -14q-152 0 -123 170z" />
<glyph unicode="m" horiz-adv-x="1699" d="M215 4l152 961l-144 16q-7 -1 1 27q3 8 5 8q51 10 168 10q16 0 31.5 -1.5t23.5 -2.5l7 -2l-19 -117q5 5 15.5 14t45 31t73 39t99 31t122.5 14q190 0 217 -127q6 5 16.5 13.5t47.5 30.5t77.5 39t104.5 30.5t131 13.5q137 0 187.5 -70.5t27.5 -205.5l-95 -594 q-8 -55 9.5 -81t68.5 -26q13 0 25 1.5t19 3.5l7 1l2 -28l-12 -27q-42 -14 -78 -14q-152 0 -123 170l93 594q18 108 -18.5 160.5t-143.5 52.5q-71 0 -134 -15t-103 -37.5t-62 -40t-33 -30.5l-133 -842q-22 -6 -45 -6q-10 0 -20 1.5t-14 2.5l-5 2l119 752q18 109 -18.5 161 t-145.5 52q-64 0 -122 -14.5t-95 -35.5t-65.5 -42t-41.5 -35l-12 -15l-129 -823q-22 -6 -45 -6q-10 0 -20 1.5t-14 2.5z" />
<glyph unicode="n" horiz-adv-x="1165" d="M215 4l152 961l-144 16q-7 1 2 28q3 7 4 7q51 10 168 10q16 0 31.5 -1.5t23.5 -2.5l7 -2l-19 -117q6 5 16.5 14t48 31t78.5 39t106.5 31t133.5 14q153 0 210 -77.5t34 -225.5l-90 -567q-9 -54 8.5 -80.5t69.5 -26.5q13 0 25 1.5t19 3.5l7 1q4 -12 0 -28l-10 -27 q-42 -14 -80 -14q-152 0 -123 170l90 567q19 123 -22.5 181.5t-165.5 58.5q-70 0 -133.5 -14.5t-104 -35.5t-71.5 -42t-44 -35l-14 -15l-129 -823q-22 -6 -45 -6q-10 0 -20 1.5t-14 2.5z" />
<glyph unicode="o" horiz-adv-x="1073" d="M197 295l69 434q49 303 432 303q200 0 281 -78t57 -225l-69 -434q-49 -303 -432 -303q-200 0 -281 78t-57 225zM281 295q-19 -122 41 -181t223 -59q161 0 240 59t100 181l67 434q19 122 -41 181t-221 59q-163 0 -242.5 -59t-97.5 -181z" />
<glyph unicode="p" horiz-adv-x="1101" d="M150 -406l217 1371l-144 16q-7 -1 1 27q3 8 5 8q51 10 168 10q16 0 31.5 -1.5t23.5 -2.5l7 -2l-19 -117q6 5 17 14t48.5 31t80 39t109 31t136.5 14q149 0 204 -77.5t32 -225.5l-70 -434q-24 -149 -112.5 -226t-259.5 -77q-74 0 -133 11.5t-90.5 27.5t-52.5 35t-27 30.5 t-7 18.5l-82 -521q-23 -6 -43 -6q-10 0 -20 1.5t-15 2.5zM344 295q-19 -122 45 -181t234 -59q138 0 204.5 58.5t85.5 181.5l70 434q12 79 0.5 132.5t-56 80.5t-126.5 27q-71 0 -135.5 -14.5t-106 -35.5t-72.5 -42t-45 -35l-14 -15z" />
<glyph unicode="q" horiz-adv-x="1058" d="M197 295l69 434q24 149 103 226t227 77q69 0 131 -13.5t100 -32t66.5 -37.5t40.5 -33l12 -13l17 117q22 6 45 6q10 0 20 -1.5t14 -2.5l5 -2l-226 -1426q-21 -6 -41 -6l-43 6l82 519q-4 -8 -13.5 -19t-36.5 -30t-63 -34t-97.5 -26.5t-135.5 -11.5q-171 0 -235.5 77.5 t-40.5 225.5zM281 295q-20 -124 27.5 -182t187.5 -58q170 0 252.5 59t101.5 181l84 532q-3 6 -9.5 15.5t-33 34t-60 43t-94 34t-131.5 15.5q-121 0 -179.5 -58.5t-76.5 -181.5z" />
<glyph unicode="r" horiz-adv-x="786" d="M215 4l152 961l-144 16q-7 1 2 28q3 7 4 7q51 10 168 10q16 0 31.5 -1.5t23.5 -2.5l7 -2l-25 -160q6 7 18 18.5t52 41t84.5 52.5t114.5 41.5t143 18.5q1 -2 2 -5t2 -11.5t0 -16.5q-2 -8 -5.5 -15.5t-6.5 -11.5l-2 -3q-77 0 -148.5 -21t-118.5 -51t-82.5 -60.5 t-52.5 -51.5l-16 -21l-119 -760q-22 -6 -45 -6q-10 0 -20 1.5t-14 2.5z" />
<glyph unicode="s" horiz-adv-x="956" d="M152 68q8 58 20 114.5t20 83.5l7 27q8 4 22 4l23 -4l-15 -187q115 -53 252 -53q141 0 208 52t85 161l6 41q7 46 -20 79t-75.5 52t-108.5 34.5t-119.5 33t-107 41.5t-73 66.5t-16.5 101.5l8 41q21 137 109 206.5t266 69.5q60 0 112.5 -8.5t85 -21t57 -25t34.5 -21.5l10 -8 q-10 -58 -22 -114.5t-18 -83.5l-7 -27q-11 -4 -23 -4l-22 4l10 188q-90 58 -227 58q-135 0 -200 -52.5t-83 -160.5l-6 -41q-6 -38 14.5 -66.5t59 -45t88.5 -32.5t102.5 -28t102 -32t87 -44t56 -65.5t10.5 -94.5l-6 -41q-21 -136 -112.5 -205t-274.5 -69q-65 0 -121.5 8 t-91 19t-60 22t-36.5 19z" />
<glyph unicode="t" horiz-adv-x="724" d="M221 977q-5 4 4 31l4 6q50 10 150 10l37 201q19 6 39 6q9 0 18 -1.5t14 -2.5l5 -2l-31 -201h315q0 -1 0.5 -1.5t1 -4l1 -7t0.5 -8.5t-1 -10q-2 -8 -5 -15.5t-5 -10.5l-2 -4h-315l-111 -707q-18 -102 19 -151.5t147 -49.5q58 0 121 19q8 -6 -5 -47q-5 -16 -8 -15 q-78 -20 -137 -20q-140 0 -192 67.5t-29 196.5l111 707z" />
<glyph unicode="u" horiz-adv-x="1175" d="M223 981q-7 -1 1 27q3 8 5 8q51 10 168 10q16 0 31.5 -1.5t23.5 -2.5l7 -2l-115 -725q-20 -123 21 -181.5t163 -58.5q72 0 137.5 14.5t108 35.5t74 42t45.5 35l14 15l129 823q20 6 43 6q11 0 21.5 -1.5t15.5 -2.5l4 -2l-133 -840q-11 -74 3.5 -99.5t68.5 -25.5 q13 0 25.5 3t19.5 6l8 2q4 -13 4 -29l-12 -27q-1 0 -10 -3.5t-18.5 -6.5t-26.5 -5.5t-35 -2.5q-68 0 -93.5 33.5t-17.5 97.5q-6 -5 -17.5 -14t-51 -31.5t-83.5 -40t-112.5 -31.5t-140.5 -14q-152 0 -207 77.5t-29 225.5l105 670z" />
<glyph unicode="v" horiz-adv-x="1124" d="M223 981q-7 -1 1 27q3 8 5 8q51 10 168 10q16 0 31.5 -1.5t23.5 -2.5l7 -2l-107 -680q-24 -147 23.5 -216t193.5 -69q178 0 268.5 95t123.5 307q24 151 30.5 292t0.5 206l-5 65q20 6 43 6l37 -6q1 -9 3 -26t4.5 -74t1.5 -118.5t-9 -155.5t-23 -189q-39 -247 -159.5 -356 t-325.5 -109q-184 0 -251 89t-40 259l99 625z" />
<glyph unicode="w" horiz-adv-x="1685" d="M223 981q-7 -1 1 27q3 8 5 8q51 10 168 10q16 0 31.5 -1.5t23.5 -2.5l7 -2l-107 -680q-24 -146 19.5 -215.5t175.5 -69.5q120 0 196.5 47t122.5 148q4 60 8 90l107 680q22 6 45 6q10 0 20 -1.5t14 -2.5l5 -2l-107 -680q-24 -145 22 -215t179 -70q161 0 245.5 95.5 t117.5 306.5q24 151 30 292t0 206l-6 65q21 6 41 6q10 0 20 -1.5t15 -2.5l4 -2q1 -9 3 -26t5.5 -74t2.5 -118.5t-8.5 -155.5t-22.5 -189q-38 -247 -151 -356t-300 -109q-228 0 -264 172q-122 -172 -359 -172q-169 0 -230 89t-34 259l99 625z" />
<glyph unicode="x" horiz-adv-x="1118" d="M51 25q0 5 2 9.5t4 6.5l2 2l136 16l397 459l-246 447l-133 16q-4 6 -4 18q1 4 3 8.5t3 6.5l2 2q55 10 139 10q13 0 26 -1.5t19 -2.5l7 -2l241 -449l340 400l-100 10q-7 -1 1 27q3 8 5 8q55 10 178 10q42 0 78 -2.5t51 -5.5l15 -2h1q0 -1 1 -3t1 -4v-4.5t-1 -5.5 q0 -5 -1.5 -9.5t-3.5 -6.5l-2 -2l-137 -16l-381 -447l248 -459l135 -16v-18l-6 -17q-57 -10 -141 -10q-13 0 -25.5 1.5t-18.5 2.5l-7 2l-246 463l-354 -414l104 -10q5 1 -3 -30l-3 -5q-57 -10 -180 -10q-42 0 -78 2.5t-51 5.5l-15 2h-1q0 1 -1 3t-1 4v4.5t1 5.5z" />
<glyph unicode="y" horiz-adv-x="1122" d="M184 -346q1 9 4.5 17t7.5 12l3 4q13 -5 37.5 -11.5t105.5 -18t168 -11.5q113 0 184 27.5t106 78.5t48 133l37 232q-5 -5 -15.5 -13.5t-46.5 -30t-76.5 -38t-105.5 -30t-133 -13.5q-157 0 -214.5 77.5t-31.5 225.5l105 670l-144 16q-7 -1 1 27q3 8 5 8q51 10 168 10 q16 0 31.5 -1.5t23.5 -2.5l7 -2l-115 -725q-20 -123 21 -181.5t163 -58.5q70 0 134 14.5t105 35.5t71.5 42t44.5 35l14 15l131 823q20 6 43 6q10 0 20 -1.5t15 -2.5l4 -2l-178 -1135q-23 -149 -126 -226t-308 -77q-90 0 -167.5 10t-110.5 20l-32 11q-1 1 -2 4t-3 11t1 16z " />
<glyph unicode="z" horiz-adv-x="999" d="M135 31q1 8 4 15.5t5 11.5l3 3l771 902h-570l-45 -170q-8 -5 -20 -5l-19 5q-2 49 21 182q1 13 4.5 25t6.5 18l3 6h723q4 -13 0 -31q-1 -8 -3.5 -15.5t-4.5 -11.5l-2 -3l-770 -902h569l45 170q8 5 18 5l21 -5q2 -49 -18 -182q-3 -13 -7 -25t-7 -18l-3 -6h-721q-1 1 -2 4 t-3 11t1 16z" />
<glyph unicode="{" horiz-adv-x="782" d="M195 616l12 31q133 0 199.5 59.5t85.5 182.5l55 348q46 301 373 301q1 -1 1.5 -4t1.5 -11t-1 -16q-1 -8 -4 -15.5t-6 -11.5l-3 -3q-133 0 -198.5 -59t-83.5 -181l-58 -348q-31 -213 -196 -275q144 -58 112 -268l-57 -350q-18 -122 30 -181t179 -59q1 -1 1.5 -3.5t1.5 -11 t-1 -17.5q-1 -8 -4 -15.5t-5 -11.5l-3 -4q-326 0 -277 303l56 350q18 120 -29 180t-178 60q-1 1 -2 3.5t-2 10.5t0 16z" />
<glyph unicode="|" horiz-adv-x="395" d="M129 -201l274 1733q17 6 37 6l35 -6l-274 -1733q-19 -6 -37 -6z" />
<glyph unicode="}" horiz-adv-x="782" d="M53 -276q2 9 5 17t6 11l2 4q133 0 199 59t85 181l56 350q32 210 198 268q-148 61 -112 275l55 348q18 123 -29 181.5t-180 58.5l-2 30l12 31q325 0 279 -301l-58 -348q-18 -123 30 -182.5t179 -59.5q9 1 -2 -47q-4 -15 -6 -14q-132 0 -199.5 -60t-85.5 -180l-57 -350 q-46 -303 -371 -303q-1 1 -2 4t-2 11t0 16z" />
<glyph unicode="~" horiz-adv-x="882" d="M205 530q9 51 21.5 84t34 60t55.5 39t83 12q44 0 78 -14.5t55 -35.5t40.5 -41.5t45 -35t58.5 -14.5q20 0 35.5 3t27.5 8.5t22 14.5t16.5 19.5t12 25.5t9.5 29.5t8 34.5q17 6 35 6l32 -6q-10 -51 -22 -83t-33.5 -59.5t-55 -40t-83.5 -12.5q-44 0 -78 14.5t-55.5 35.5 t-41 42t-45.5 35.5t-57 14.5q-64 0 -92 -32t-41 -104q-14 -6 -32 -6z" />
<glyph unicode="&#xa1;" horiz-adv-x="405" d="M96 -406l160 1010q23 8 43 8q10 0 20.5 -2t15.5 -4l5 -2l-160 -1010q-20 -6 -43 -6zM291 848l26 172q25 6 48 6q11 0 22 -1.5t16 -2.5l5 -2l-27 -172q-20 -6 -45 -6z" />
<glyph unicode="&#xa2;" horiz-adv-x="1001" d="M197 295l69 434q21 141 112 217.5t267 83.5l31 195q19 6 37 6q9 0 17.5 -1.5t13.5 -3.5l4 -1l-31 -195q96 -4 169 -25t98 -40l26 -19q-9 -58 -20 -114.5t-18 -83.5l-7 -27q-13 -6 -27 -6q-5 0 -9.5 1.5t-6.5 3.5l-2 1l12 188q-117 60 -262 60q-156 0 -229 -58.5 t-91 -181.5l-69 -434q-20 -124 35.5 -182t215.5 -58q95 0 180.5 20t123.5 40l38 20q1 -1 1.5 -4t1.5 -11.5t0 -17.5q-2 -8 -5.5 -15.5t-6.5 -10.5l-3 -4q-4 -3 -12 -8t-36 -17.5t-61 -22.5t-87 -19t-113 -11l-31 -195q-19 -6 -37 -6q-9 0 -17.5 1.5t-12.5 3.5l-4 1l30 195 q-174 7 -240.5 83t-43.5 218z" />
<glyph unicode="&#xa3;" horiz-adv-x="1130" d="M72 33q1 8 4 16.5t6 12.5l2 4h139l90 587h-137l-2 31l12 31h138l65 418q24 152 130.5 230.5t316.5 78.5q78 0 144 -14t104 -34t65 -40.5t37 -34.5l10 -14q-9 -58 -20.5 -115t-19.5 -85l-7 -28q-11 -6 -25 -6q-6 0 -11.5 1.5t-8.5 3.5l-2 1l12 195l-11 11t-33 25t-56.5 32 t-81.5 25t-107 11q-171 0 -250 -59t-100 -184l-65 -418h409q1 -1 2 -4t2 -11t0 -16q-2 -8 -5.5 -15.5t-5.5 -11.5l-3 -4h-410l-90 -587h695l2 -33q-2 -9 -5 -17t-5 -12l-3 -4h-919q-1 1 -1.5 4t-1.5 11.5t1 17.5z" />
<glyph unicode="&#xa4;" horiz-adv-x="808" d="M133 354l141 127q-24 53 -12 133l8 58q16 84 58 135l-103 131q7 15 23 27q6 5 13 9t11 6l4 1l107 -133q68 43 162 43q95 0 141 -43l152 133q14 -4 26 -16q4 -5 7.5 -12t4.5 -11l1 -4l-148 -131q30 -45 16 -135l-8 -58q-12 -83 -57 -133l104 -127q-6 -14 -20 -26l-31 -19 l-104 129q-65 -43 -162 -43q-101 0 -154 43l-141 -129q-15 5 -25 19q-5 5 -8.5 11.5t-4.5 10.5zM326 614q-12 -81 22.5 -120t126.5 -39q93 0 140 39t59 120l8 58q14 81 -20 120t-127 39t-140 -39t-61 -120z" />
<glyph unicode="&#xa5;" horiz-adv-x="1308" d="M258 1405q1 6 3 11t3 7l2 2q65 11 180 11q77 0 135.5 -2.5t78.5 -5.5l20 -3q1 -1 1.5 -2t1.5 -6.5t-1 -11.5q-1 -3 -2 -6.5t-2 -6t-2 -4.5t-1 -3l-1 -1l-162 -12l254 -657l459 657l-154 12q-1 1 -1.5 3t-1.5 7.5t1 10.5q1 4 2 7.5t2 5.5l2 4l1 2l1 1q66 11 240 11 q23 0 45.5 -0.5t39.5 -1.5t32.5 -2t25.5 -2.5t18 -2.5t11 -1l4 -1q5 1 -3 -35l-3 -6l-170 -14l-520 -729l-6 -41h296q1 -1 2 -3.5t2 -10t-1 -15.5q-1 -7 -4 -13.5t-6 -9.5l-3 -3h-297l-30 -205h294q8 -1 0 -38q-4 -19 -8 -17h-295l-34 -222l161 -14q4 -8 0 -20 q-1 -6 -3 -11.5t-3 -7.5l-2 -2q-66 -10 -209 -10q-40 0 -76 1t-58.5 2.5t-39.5 3t-24 2.5l-7 1q-7 -1 1 31q4 11 6 10l168 14l34 222h-297q-1 1 -2 3t-2 9t0 14l13 29h297l30 205h-293q-1 1 -1.5 3t-1.5 9t1 14q1 8 3.5 15.5t5.5 10.5l2 3h295l6 41l-291 729l-160 14 q-1 1 -1.5 3t-1.5 7.5t1 10.5z" />
<glyph unicode="&#xa6;" horiz-adv-x="395" d="M129 -201l121 760q17 6 37 6l35 -6l-121 -760q-19 -6 -37 -6zM283 772l120 760q17 6 37 6l35 -6l-121 -760q-19 -6 -37 -6z" />
<glyph unicode="&#xa7;" horiz-adv-x="1128" d="M76 -281q9 58 20.5 115t19.5 85l7 28q10 6 24 6q6 0 12 -1.5t9 -3.5l2 -1l-12 -195q5 -4 13.5 -11.5t40.5 -25.5t68.5 -32t96.5 -25.5t125 -11.5q189 0 276.5 58.5t108.5 182.5l8 58q9 59 -10 103.5t-59 73t-94.5 50.5t-115 39.5t-121.5 35.5t-114.5 42.5t-92.5 57 t-57.5 83.5t-7.5 117l10 57q28 177 175 250q-122 78 -101 225l10 58q24 151 134.5 228t334.5 77q82 0 151 -14t109.5 -34t69 -40.5t38.5 -34.5l11 -14q-8 -58 -19.5 -115t-18.5 -85l-7 -28q-12 -6 -26 -6q-5 0 -10.5 1.5t-7.5 3.5l-3 1l12 195l-11.5 11.5t-36 25.5t-61 32 t-86.5 25.5t-114 11.5q-183 0 -269.5 -59t-105.5 -182l-10 -58q-8 -55 11.5 -97t60 -68.5t94.5 -47.5t115 -38t121.5 -35t114 -44.5t92 -60.5t56.5 -88t7 -123l-10 -57q-25 -170 -164 -244q112 -80 90 -231l-10 -58q-15 -100 -67 -166t-155 -102.5t-258 -36.5q-89 0 -164 14 t-119 34t-75 40.5t-43 34.5zM307 547q-10 -67 18.5 -114t88.5 -75.5t124.5 -47.5t146.5 -44t132 -51q129 51 154 205l8 57q9 58 -10 103.5t-55 72.5t-92 50.5t-109 37.5t-119 34t-109 40q-147 -52 -168 -211z" />
<glyph unicode="&#xa8;" horiz-adv-x="827" d="M367 1237l28 193q19 6 39 6q9 0 17.5 -1.5t12.5 -2.5l5 -2l-31 -193q-19 -6 -39 -6q-9 0 -17 1.5t-12 3.5zM782 1237l29 193q19 6 39 6l33 -6l-31 -193q-19 -6 -37 -6q-9 0 -17 1.5t-12 3.5z" />
<glyph unicode="&#xa9;" horiz-adv-x="1634" d="M238 492l69 450q26 161 109.5 270t240.5 169.5t385 60.5q341 0 479 -128t99 -372l-70 -450q-26 -161 -109.5 -270t-241 -169.5t-386.5 -60.5q-340 0 -477.5 128t-97.5 372zM319 492q-24 -148 15.5 -242t159.5 -144.5t329 -50.5q210 0 347 50.5t207 144.5t93 242l70 450 q17 110 -1 189.5t-76.5 135.5t-165.5 83.5t-265 27.5q-208 0 -344 -50t-206 -144.5t-93 -241.5q1 1 -16.5 -111.5t-35.5 -225.5zM672 520l61 402q14 80 74 120.5t182 40.5q123 0 168 -40.5t31 -120.5v-15q-15 -4 -31 -4l-29 4v15q9 61 -22.5 88.5t-122.5 27.5 q-93 0 -135 -28t-51 -88l-62 -402q-9 -61 24.5 -89t129.5 -28q37 0 72.5 4.5t59.5 11.5t43.5 14t28.5 11l9 5q7 0 -2 -38q-2 -10 -4 -10q-9 -5 -25 -12t-72 -19t-118 -12q-125 0 -173.5 41t-35.5 121z" />
<glyph unicode="&#xaa;" horiz-adv-x="808" d="M264 895l6 29q12 84 75 129.5t192 58.5l202 18l17 97q11 83 -25 122.5t-135 39.5q-89 0 -174 -41l-35 -129q-6 -5 -18 -5l-21 5q5 65 21 159q9 7 26.5 17t78.5 26.5t130 16.5q135 0 186 -53t35 -158l-73 -463l98 -10q3 -2 2.5 -9.5t-3.5 -16t-5 -7.5q-37 -6 -123 -6 l-45 4l12 82q-4 -4 -11.5 -9.5t-34 -21t-55.5 -27t-75 -21t-94 -9.5q-95 0 -130.5 45.5t-23.5 136.5zM336 895q-11 -69 13 -101t95 -32q48 0 91.5 10t71.5 24t49 28t30 24l10 10l35 223l-192 -18q-99 -10 -144.5 -44t-54.5 -97z" />
<glyph unicode="&#xab;" horiz-adv-x="911" d="M193 553l399 354q14 -4 24 -16q5 -5 9 -12t5 -11l1 -4l-348 -311l249 -311q-6 -15 -22 -27q-6 -5 -14 -9l-12 -6l-5 -1zM504 553l403 354q13 -4 25 -16q5 -5 8 -12t4 -11v-4l-348 -311l250 -311q3 -2 -9 -14.5t-27 -22.5t-17 -6z" />
<glyph unicode="&#xac;" horiz-adv-x="825" d="M215 711q2 8 5.5 15.5t5.5 11.5l3 3h234q101 0 194.5 -2.5t136.5 -4.5l44 -3l-41 -252q-19 -8 -39 -8q-8 0 -17 2t-15 4l-5 2l31 201h-535z" />
<glyph unicode="&#xad;" horiz-adv-x="622" d="M195 590q2 8 5.5 16t5.5 12l3 3h399q4 -13 0 -31q-1 -8 -3.5 -16t-4.5 -12l-2 -3h-399q-1 1 -2 4t-2 11t0 16z" />
<glyph unicode="&#xae;" horiz-adv-x="1634" d="M238 492l69 450q26 161 109.5 270t240.5 169.5t385 60.5q341 0 479 -128t99 -372l-70 -450q-26 -161 -109.5 -270t-241 -169.5t-386.5 -60.5q-340 0 -477.5 128t-97.5 372zM319 492q-24 -148 15.5 -242t159.5 -144.5t329 -50.5q210 0 347 50.5t207 144.5t93 242l70 450 q17 110 -1 189.5t-76.5 135.5t-165.5 83.5t-265 27.5q-208 0 -344 -50t-206 -144.5t-93 -241.5q1 1 -16.5 -111.5t-35.5 -225.5zM670 360l112 713q82 6 209 6q115 0 162 -41t33 -120l-10 -76q-25 -135 -179 -158l125 -324q-16 -4 -32 -4l-37 4l-119 320h-6l-142 4l-51 -324 q-19 -4 -35 -4zM793 725h141q85 0 126 28t52 89l10 76q9 60 -23 88t-116 28h-141z" />
<glyph unicode="&#xaf;" horiz-adv-x="401" d="M170 1278q2 8 5.5 15t6.5 11l2 3h445l2 -29q0 -7 -2.5 -14t-4.5 -10l-3 -3h-447q-4 11 -4 27z" />
<glyph unicode="&#xb0;" horiz-adv-x="638" d="M328 1208l6 39q30 193 239 193q107 0 150 -51t29 -142l-7 -39q-30 -192 -239 -192q-208 0 -178 192zM385 1208q-12 -71 18 -105t111 -34t122 34t52 105l8 39q11 71 -19.5 105t-111.5 34t-122 -34t-52 -105z" />
<glyph unicode="&#xb1;" horiz-adv-x="854" d="M141 205q-4 13 0 31q0 8 2.5 15.5t5.5 10.5l3 4h630q4 -12 4 -30q-2 -8 -5.5 -15.5t-6.5 -11.5l-2 -4h-631zM211 692q2 8 5.5 16t5.5 12l3 3h283l45 297q17 6 37 6q8 0 15 -1.5t10 -2.5l3 -2l-47 -297h285q4 -13 0 -31q-1 -8 -3.5 -15.5t-4.5 -10.5l-2 -4h-283l-49 -295 q-11 -9 -31 -9q-9 0 -17 2t-12 4l-3 3l47 295h-283q-1 1 -2 3.5t-2 10.5t0 16z" />
<glyph unicode="&#xb2;" horiz-adv-x="616" d="M211 723l16 90q8 54 34 94.5t61 64.5t75.5 43t81 36.5t75 38t59.5 54.5t32 79l8 53q9 62 -20 91.5t-111 29.5q-44 0 -84 -12.5t-58 -25.5l-18 -13l-24 -95q-9 -4 -19 -4l-16 4q0 49 12 119q3 3 8 7.5t24.5 16t42 20.5t60.5 16.5t80 7.5q110 0 153 -41t32 -121l-10 -53 q-10 -61 -43 -104.5t-75.5 -65.5t-92 -45t-92 -43t-74.5 -59t-41 -93l-11 -53h318l27 80q2 4 12 4l12 -4q-6 -101 -18 -123h-224q-51 0 -99 1.5t-70 3.5z" />
<glyph unicode="&#xb3;" horiz-adv-x="610" d="M213 756q-2 8 0 22q3 16 8 21q2 -4 22 -13.5t67.5 -20.5t103.5 -11q92 0 135.5 31.5t52.5 97.5l10 69q11 67 -24.5 98t-130.5 31h-56q-2 1 -1 11t4 21.5t4 10.5l247 267h-295l-22 -80q-6 -4 -12 -4l-15 4q9 101 19 123h399q4 -9 0 -21l-6 -22l-254 -269q71 0 117 -13.5 t64.5 -36.5t25 -54t-1.5 -66l-12 -69q-25 -170 -252 -170q-60 0 -109 10.5t-69 21.5z" />
<glyph unicode="&#xb4;" horiz-adv-x="397" d="M229 1186l260 244q23 6 48 6q11 0 22 -1.5t16 -2.5l5 -2l-279 -244q-19 -8 -37 -8q-9 0 -17.5 2t-12.5 4z" />
<glyph unicode="&#xb5;" horiz-adv-x="1120" d="M29 -248q-7 0 1 28q3 7 5 7l149 16l183 1162l-144 16q-7 -1 1 27q3 8 5 8q51 10 168 10q16 0 31.5 -1.5t23.5 -3.5l7 -1l-129 -823q3 -6 9.5 -15.5t33 -34t60.5 -43t95.5 -34t133.5 -15.5q122 0 181.5 58.5t80.5 181.5l104 670l-143 16q-7 -1 1 27q3 8 5 8q51 10 168 10 q16 0 31.5 -1.5t22.5 -3.5l7 -1l-114 -725q-24 -149 -103.5 -226t-232.5 -77q-70 0 -132.5 13.5t-101 32t-67.5 37.5t-42 33l-12 13l-49 -318l144 -16q7 0 -1 -26q-4 -9 -6 -9q-57 -10 -188 -10q-58 0 -104.5 2.5t-64.5 5.5z" />
<glyph unicode="&#xb6;" horiz-adv-x="1001" d="M156 -131q1 9 3.5 17t4.5 12l2 4q11 -6 31.5 -14.5t87.5 -23t139 -14.5q141 0 207 58t86 182l59 381q-3 -7 -11.5 -18t-31.5 -30t-54 -34.5t-84 -27t-116 -11.5q-276 0 -227 303l43 281q26 149 112 226t252 77q138 0 254.5 -4t163.5 -8l47 -4v-1q1 0 2 -2t1 -4v-4.5 t-1 -5.5q0 -5 -2 -9.5t-4 -6.5l-2 -2l-145 -17l-172 -1079q-24 -149 -114.5 -226t-266.5 -77q-76 0 -142 12.5t-94 25.5l-28 13q-4 13 0 31z" />
<glyph unicode="&#xb7;" horiz-adv-x="403" d="M238 518l28 172q22 6 45 6q11 0 22 -1.5t16 -2.5l5 -2l-28 -172q-23 -8 -43 -8q-11 0 -22.5 2t-16.5 4z" />
<glyph unicode="&#xb8;" horiz-adv-x="1013" d="M315 -283q-9 1 0 37q4 16 7 15q48 -39 124 -39q103 0 115 82q4 22 -7.5 33.5t-29.5 17.5t-35.5 16t-27 35.5t-2.5 67.5l4 18h61q-12 -41 -4.5 -58.5t26 -29.5t38 -19t32 -27.5t7.5 -53.5q-9 -64 -55.5 -99t-123.5 -35q-41 0 -73 10t-44 20z" />
<glyph unicode="&#xb9;" horiz-adv-x="460" d="M219 733l6 15l103 8l98 628l-127 -36v16l6 16l146 56l43 -4l-107 -676l105 -8v-15l-5 -12q-43 -6 -137 -6q-40 0 -72 1.5t-44 3.5l-13 1z" />
<glyph unicode="&#xba;" horiz-adv-x="808" d="M279 926l47 299q18 105 91 159t216 54q142 0 197.5 -54t39.5 -159l-47 -299q-18 -105 -91 -159t-216 -54q-142 0 -198.5 54t-38.5 159zM348 926q-12 -85 27 -124.5t149 -39.5q108 0 163 40.5t67 123.5l47 299q12 84 -28 124t-150 40t-162.5 -40t-63.5 -124z" />
<glyph unicode="&#xbb;" horiz-adv-x="911" d="M143 242l349 311l-250 311q8 15 22 27q7 5 15 9l12 6l4 1l287 -354l-400 -354q-1 -3 -12.5 7t-21 22t-5.5 14zM457 242l348 311l-250 311q6 15 20 27q7 5 15 9l12 6l4 1l289 -354l-401 -354q-13 4 -25 16q-4 5 -7 12t-4 11z" />
<glyph unicode="&#xbc;" horiz-adv-x="1220" d="M117 4l1140 1426q16 6 39 6q10 0 19 -1.5t13 -2.5l3 -2l-1143 -1426q-22 -6 -38 -6q-9 0 -17 1.5t-12 2.5zM219 733l6 15l103 8l98 628l-127 -36v16l6 16l146 56l43 -4l-107 -676l105 -8v-15l-5 -12q-43 -6 -137 -6q-40 0 -72 1.5t-44 3.5l-13 1zM729 176v23l275 516 q12 4 30 4l29 -4l-264 -496h250l45 291q12 4 28 4l27 -4l-45 -291l72 -6q7 0 -1 -26q-3 -7 -4 -7q-22 -6 -73 -6l-27 -172q-17 -4 -31 -4l-26 4l26 174h-311z" />
<glyph unicode="&#xbd;" horiz-adv-x="1226" d="M117 4l1140 1426q16 6 39 6q10 0 19 -1.5t13 -2.5l3 -2l-1143 -1426q-22 -6 -38 -6q-9 0 -17 1.5t-12 2.5zM219 733l6 15l103 8l98 628l-127 -36v16l6 16l146 56l43 -4l-107 -676l105 -8v-15l-5 -12q-43 -6 -137 -6q-40 0 -72 1.5t-44 3.5l-13 1zM768 6l12 90 q9 54 35.5 94.5t61.5 64.5t76 43t81.5 36.5t75 38t59 54.5t31.5 79l8 53q11 62 -18.5 91.5t-110.5 29.5q-44 0 -84.5 -13t-58.5 -25l-18 -13l-27 -94q-7 -5 -17 -5l-16 5q2 48 12 118q3 3 8 7.5t24.5 16t42 20.5t60.5 16.5t80 7.5q111 0 154 -41.5t29 -120.5l-6 -53 q-10 -61 -43.5 -104.5t-76.5 -65.5t-93.5 -45t-93.5 -43t-75.5 -59t-41.5 -93l-9 -53h320l27 80q4 4 12 4l14 -4q-9 -100 -20 -123h-224q-51 0 -98.5 1.5t-69.5 2.5z" />
<glyph unicode="&#xbe;" horiz-adv-x="1304" d="M168 4l1141 1426q19 6 39 6q10 0 19 -1.5t13 -2.5l4 -2l-1144 -1426q-23 -6 -39 -6q-9 0 -17 1.5t-12 2.5zM213 756q-2 8 0 22q3 16 8 21q2 -4 22 -13.5t67.5 -20.5t103.5 -11q92 0 135.5 31.5t52.5 97.5l10 69q11 67 -24.5 98t-130.5 31h-56q-2 1 -1 11t4 21.5t4 10.5 l247 267h-295l-22 -80q-6 -4 -12 -4l-15 4q9 101 19 123h399q4 -9 0 -21l-6 -22l-254 -269q71 0 117 -13.5t64.5 -36.5t25 -54t-1.5 -66l-12 -69q-25 -170 -252 -170q-60 0 -109 10.5t-69 21.5zM815 176q-2 9 0 23l275 516q12 4 30 4l29 -4l-264 -496h250l45 291q12 4 26 4 l29 -4l-47 -291l72 -6q4 -6 4 -16l-7 -17q-22 -6 -73 -6l-27 -172q-17 -4 -31 -4l-26 4l26 174h-311z" />
<glyph unicode="&#xbf;" horiz-adv-x="1038" d="M131 -109l19 115q10 62 36 108.5t60.5 75t75 51.5t80.5 44.5t74.5 46.5t60 66t34.5 96l17 112q20 6 43 6l41 -6l-19 -112q-10 -63 -36.5 -111t-61.5 -77t-75.5 -52.5t-80.5 -44.5t-74.5 -46t-60 -64.5t-33.5 -92.5l-18 -115q-21 -126 38 -185.5t226 -59.5 q53 0 103.5 10.5t85 26t61.5 31t40 26.5l13 10l51 197q11 6 23 6l25 -6q-7 -97 -27 -228l-14.5 -14.5t-45 -32.5t-76.5 -41t-109 -32.5t-142 -14.5q-205 0 -282.5 77.5t-51.5 229.5zM621 848l28 172q24 6 47 6q11 0 22 -1.5t16 -2.5l5 -2l-26 -172q-22 -6 -47 -6z" />
<glyph unicode="&#xc0;" d="M43 8q-7 -1 1 30q3 12 5 11l162 14l639 1307l-160 14q-7 0 1 31q3 11 5 10q76 11 242 11q15 0 28.5 -1.5t19.5 -2.5l7 -2l234 -1367l159 -14q4 -8 0 -20l-8 -21q-63 -10 -186 -10q-73 0 -128.5 2.5t-75.5 5.5l-19 2q-1 1 -1.5 2.5t-1.5 7t1 11.5l8 20l168 14l-66 377 h-596l-184 -377l164 -14l2 -20l-8 -21q-66 -10 -230 -10q-55 0 -100.5 2.5t-63.5 5.5zM512 506h559l-147 852zM795 1784q20 8 45 8q6 0 13 -1t12 -2t9.5 -2t6.5 -2l2 -1l184 -244q-16 -6 -39 -6q-7 0 -16 1.5t-14 2.5l-5 2z" />
<glyph unicode="&#xc1;" d="M43 8q-7 -1 1 30q3 12 5 11l162 14l639 1307l-160 14q-7 0 1 31q3 11 5 10q76 11 242 11q15 0 28.5 -1.5t19.5 -2.5l7 -2l234 -1367l159 -14q4 -8 0 -20l-8 -21q-63 -10 -186 -10q-73 0 -128.5 2.5t-75.5 5.5l-19 2q-1 1 -1.5 2.5t-1.5 7t1 11.5l8 20l168 14l-66 377 h-596l-184 -377l164 -14l2 -20l-8 -21q-66 -10 -230 -10q-55 0 -100.5 2.5t-63.5 5.5zM512 506h559l-147 852zM840 1540l260 244q18 8 43 8q11 0 22.5 -2t16.5 -4l6 -2l-275 -244q-23 -6 -39 -6q-10 0 -18.5 1.5t-12.5 2.5z" />
<glyph unicode="&#xc2;" d="M43 8q-7 -1 1 30q3 12 5 11l162 14l639 1307l-160 14q-7 0 1 31q3 11 5 10q76 11 242 11q15 0 28.5 -1.5t19.5 -2.5l7 -2l234 -1367l159 -14q4 -8 0 -20l-8 -21q-63 -10 -186 -10q-73 0 -128.5 2.5t-75.5 5.5l-19 2q-1 1 -1.5 2.5t-1.5 7t1 11.5l8 20l168 14l-66 377 h-596l-184 -377l164 -14l2 -20l-8 -21q-66 -10 -230 -10q-55 0 -100.5 2.5t-63.5 5.5zM512 506h559l-147 852zM705 1540l239 225q22 9 45 9q5 0 10 -0.5t9 -1.5t7.5 -2t6 -1.5t4.5 -1.5t3 -2h1l172 -225q-17 -6 -37 -6q-8 0 -16 1.5t-12 2.5l-4 2l-152 186l-207 -186 q-21 -6 -37 -6q-9 0 -17 1.5t-11 2.5z" />
<glyph unicode="&#xc3;" d="M43 8q-7 -1 1 30q3 12 5 11l162 14l639 1307l-160 14q-7 0 1 31q3 11 5 10q76 11 242 11q15 0 28.5 -1.5t19.5 -2.5l7 -2l234 -1367l159 -14q4 -8 0 -20l-8 -21q-63 -10 -186 -10q-73 0 -128.5 2.5t-75.5 5.5l-19 2q-1 1 -1.5 2.5t-1.5 7t1 11.5l8 20l168 14l-66 377 h-596l-184 -377l164 -14l2 -20l-8 -21q-66 -10 -230 -10q-55 0 -100.5 2.5t-63.5 5.5zM512 506h559l-147 852zM676 1540v10q13 77 51.5 115.5t116.5 38.5q38 0 67 -12t47.5 -29.5t35 -34.5t39 -29t50.5 -12q20 0 35 3t26.5 9.5t19.5 15t14 22t10 27t8 32.5q15 8 31 8 q7 0 14 -2t11 -4l3 -2l-2 -8q-13 -77 -51.5 -115.5t-116.5 -38.5q-38 0 -67.5 12t-48 29t-35.5 34.5t-39 29.5t-49 12q-52 0 -77.5 -24.5t-33.5 -76.5v-10q-17 -6 -33 -6q-7 0 -13.5 1.5t-9.5 2.5z" />
<glyph unicode="&#xc4;" d="M43 8q-7 -1 1 30q3 12 5 11l162 14l639 1307l-160 14q-7 0 1 31q3 11 5 10q76 11 242 11q15 0 28.5 -1.5t19.5 -2.5l7 -2l234 -1367l159 -14q4 -8 0 -20l-8 -21q-63 -10 -186 -10q-73 0 -128.5 2.5t-75.5 5.5l-19 2q-1 1 -1.5 2.5t-1.5 7t1 11.5l8 20l168 14l-66 377 h-596l-184 -377l164 -14l2 -20l-8 -21q-66 -10 -230 -10q-55 0 -100.5 2.5t-63.5 5.5zM512 506h559l-147 852zM711 1540l28 193q17 6 37 6q9 0 18 -1.5t14 -3.5l5 -1l-31 -193q-19 -6 -39 -6q-9 0 -17 1.5t-11 2.5zM1124 1540l29 193q17 6 37 6q9 0 18 -1.5t14 -3.5l5 -1 l-31 -193q-19 -6 -37 -6q-10 0 -19 1.5t-12 2.5z" />
<glyph unicode="&#xc5;" d="M43 8q-7 -1 1 30q3 12 5 11l162 14l639 1307l-160 14q-7 0 1 31q3 11 5 10q76 11 242 11q15 0 28.5 -1.5t19.5 -2.5l7 -2l234 -1367l159 -14q4 -8 0 -20l-8 -21q-63 -10 -186 -10q-73 0 -128.5 2.5t-75.5 5.5l-19 2q-1 1 -1.5 2.5t-1.5 7t1 11.5l8 20l168 14l-66 377 h-596l-184 -377l164 -14l2 -20l-8 -21q-66 -10 -230 -10q-55 0 -100.5 2.5t-63.5 5.5zM512 506h559l-147 852zM817 1661l6 37q9 62 53 97.5t121 35.5q79 0 112 -35.5t24 -97.5l-7 -37q-9 -62 -53 -97.5t-123 -35.5q-77 0 -109.5 35.5t-23.5 97.5zM870 1661q-8 -42 12.5 -63 t73.5 -21q55 0 82 20.5t35 63.5l6 37q6 43 -14 63.5t-74 20.5t-81 -21t-33 -63z" />
<glyph unicode="&#xc6;" horiz-adv-x="1552" d="M43 8q-7 -1 1 30q3 12 5 11l162 14l639 1309l-158 12q-1 1 -1.5 3t-1.5 7.5t1 10.5q1 6 3 11t3 7l2 2q191 9 641 9h336q4 -21 0 -52q-8 -45 -15 -84.5t-12.5 -63t-9.5 -40.5t-6 -24l-2 -7q-8 -6 -20 -6q-3 0 -6 0.5t-5 1.5t-3.5 2l-1.5 1l-1 1l11 205h-566l-94 -598h559 q0 -2 0.5 -4.5t1.5 -11.5t0 -17q-2 -8 -5 -16t-5 -12l-2 -4h-559l-100 -639h575l51 204q11 6 23 6q4 0 8 -1.5t6 -2.5l2 -2l-4 -66q-15 -153 -35 -204h-346q-144 0 -278 2t-196 4l-62 2q-2 7 0 21l8 20l162 14l57 377h-324l-184 -377l158 -14q4 -8 0 -20q-1 -6 -3 -11.5 t-4 -7.5l-2 -2q-63 -10 -221 -10q-56 0 -101.5 2.5t-63.5 5.5zM512 506h305l135 862h-24z" />
<glyph unicode="&#xc7;" horiz-adv-x="1177" d="M199 301l131 832q23 152 141 230.5t356 78.5q89 0 164 -14t118.5 -34t75 -40.5t43.5 -34.5l11 -14q-9 -58 -20 -115t-18 -85l-7 -28q-13 -6 -27 -6q-5 0 -10 1.5t-7 3.5l-3 1l12 195q-4 4 -13 11t-40.5 25t-67.5 32t-96 25t-125 11q-199 0 -290.5 -59t-110.5 -184 l-131 -832q-21 -125 52.5 -184.5t276.5 -59.5q44 0 87 3t78.5 8.5t69 12.5t60 15t49.5 15.5t40 14.5t28.5 12.5t17.5 8.5l7 3q1 -1 1.5 -4t1.5 -11.5t-1 -17.5q-1 -9 -4.5 -17t-6.5 -12l-4 -4q-6 -4 -17 -9.5t-49.5 -21t-83 -27.5t-117 -22.5t-150.5 -11.5l-3 -10 q-4 -32 6.5 -50t28.5 -25.5t36 -15.5t28.5 -27t5.5 -52q-22 -134 -178 -134q-41 0 -73.5 10t-45.5 20l-12 9q-1 1 -2 3.5t-2 9t0 12.5l12 27q49 -39 125 -39q103 0 115 82q4 22 -7.5 33.5t-29.5 17.5t-35.5 16t-27 35.5t-3.5 67.5l4 12q-219 6 -304.5 84t-59.5 223z" />
<glyph unicode="&#xc8;" horiz-adv-x="1105" d="M70 29q1 3 2 6.5t2 6t2 4t1 2.5l1 1l166 14l205 1307l-160 14q-7 0 1 31q3 11 5 10q216 9 541 9h393q4 -21 0 -52q-11 -72 -22 -127t-16 -73l-5 -19q-9 -6 -21 -6q-4 0 -8 1.5t-6 3.5l-2 1l10 205h-622l-95 -598h557q5 -15 5 -33q-2 -8 -5.5 -16t-6.5 -12l-3 -4h-557 l-100 -639h633l51 204q8 6 20 6q5 0 9.5 -1.5t6.5 -2.5l1 -2q2 -57 -23 -219q-3 -14 -7 -26.5t-7 -18.5l-2 -6h-404q-145 0 -279.5 2t-196.5 4l-62 2q-1 1 -1.5 2.5t-1.5 7t1 11.5zM721 1784q22 8 47 8q11 0 22 -2t16 -4l5 -2l182 -244q-17 -6 -37 -6q-8 0 -16.5 1.5 t-13.5 2.5l-4 2z" />
<glyph unicode="&#xc9;" horiz-adv-x="1105" d="M70 29q1 3 2 6.5t2 6t2 4t1 2.5l1 1l166 14l205 1307l-160 14q-7 0 1 31q3 11 5 10q216 9 541 9h393q4 -21 0 -52q-11 -72 -22 -127t-16 -73l-5 -19q-9 -6 -21 -6q-4 0 -8 1.5t-6 3.5l-2 1l10 205h-622l-95 -598h557q5 -15 5 -33q-2 -8 -5.5 -16t-6.5 -12l-3 -4h-557 l-100 -639h633l51 204q8 6 20 6q5 0 9.5 -1.5t6.5 -2.5l1 -2q2 -57 -23 -219q-3 -14 -7 -26.5t-7 -18.5l-2 -6h-404q-145 0 -279.5 2t-196.5 4l-62 2q-1 1 -1.5 2.5t-1.5 7t1 11.5zM752 1540l258 244q20 8 45 8q11 0 22.5 -2t16.5 -4l6 -2l-279 -244q-21 -6 -37 -6 q-9 0 -17 1.5t-11 2.5z" />
<glyph unicode="&#xca;" horiz-adv-x="1105" d="M70 29q1 3 2 6.5t2 6t2 4t1 2.5l1 1l166 14l205 1307l-160 14q-7 0 1 31q3 11 5 10q216 9 541 9h393q4 -21 0 -52q-11 -72 -22 -127t-16 -73l-5 -19q-9 -6 -21 -6q-4 0 -8 1.5t-6 3.5l-2 1l10 205h-622l-95 -598h557q5 -15 5 -33q-2 -8 -5.5 -16t-6.5 -12l-3 -4h-557 l-100 -639h633l51 204q8 6 20 6q5 0 9.5 -1.5t6.5 -2.5l1 -2q2 -57 -23 -219q-3 -14 -7 -26.5t-7 -18.5l-2 -6h-404q-145 0 -279.5 2t-196.5 4l-62 2q-1 1 -1.5 2.5t-1.5 7t1 11.5zM623 1540l241 225q20 9 45 9q11 0 21.5 -2.5t14.5 -4.5l5 -2l170 -225q-17 -6 -35 -6 q-8 0 -16.5 1.5t-13.5 2.5l-4 2l-150 186l-207 -186q-21 -6 -37 -6q-10 0 -18.5 1.5t-12.5 2.5z" />
<glyph unicode="&#xcb;" horiz-adv-x="1105" d="M70 29q1 3 2 6.5t2 6t2 4t1 2.5l1 1l166 14l205 1307l-160 14q-7 0 1 31q3 11 5 10q216 9 541 9h393q4 -21 0 -52q-11 -72 -22 -127t-16 -73l-5 -19q-9 -6 -21 -6q-4 0 -8 1.5t-6 3.5l-2 1l10 205h-622l-95 -598h557q5 -15 5 -33q-2 -8 -5.5 -16t-6.5 -12l-3 -4h-557 l-100 -639h633l51 204q8 6 20 6q5 0 9.5 -1.5t6.5 -2.5l1 -2q2 -57 -23 -219q-3 -14 -7 -26.5t-7 -18.5l-2 -6h-404q-145 0 -279.5 2t-196.5 4l-62 2q-1 1 -1.5 2.5t-1.5 7t1 11.5zM629 1540l28 193q17 6 37 6q9 0 18 -1.5t14 -3.5l5 -1l-31 -193q-18 -6 -36 -6 q-10 0 -19 1.5t-12 2.5zM1044 1540l29 193q17 6 37 6q9 0 18 -1.5t14 -3.5l5 -1l-31 -193q-19 -6 -37 -6q-10 0 -19 1.5t-12 2.5z" />
<glyph unicode="&#xcc;" horiz-adv-x="555" d="M70 29q1 3 2 6.5t2 6t2 4t1 2.5l1 1l166 14l205 1307l-160 14q-7 0 1 31q3 11 5 10q66 11 209 11q64 0 116 -3t72 -5l19 -3q4 -6 0 -20l-9 -21l-165 -14l-205 -1307l160 -14q7 -1 -1 -31q-4 -11 -6 -10q-66 -10 -211 -10q-64 0 -114.5 2.5t-69.5 5.5l-18 2q-1 1 -1.5 2.5 t-1.5 7t1 11.5zM362 1784q21 8 46 8q11 0 22 -2t16 -4l5 -2l184 -244q-16 -6 -39 -6q-7 0 -15.5 1.5t-12.5 2.5l-5 2z" />
<glyph unicode="&#xcd;" horiz-adv-x="555" d="M70 29q1 3 2 6.5t2 6t2 4t1 2.5l1 1l166 14l205 1307l-160 14q-7 0 1 31q3 11 5 10q66 11 209 11q64 0 116 -3t72 -5l19 -3q4 -6 0 -20l-9 -21l-165 -14l-205 -1307l160 -14q7 -1 -1 -31q-4 -11 -6 -10q-66 -10 -211 -10q-64 0 -114.5 2.5t-69.5 5.5l-18 2q-1 1 -1.5 2.5 t-1.5 7t1 11.5zM408 1540l260 244q18 8 45 8q11 0 22 -2t16 -4l5 -2l-275 -244q-23 -6 -39 -6q-9 0 -17.5 1.5t-12.5 2.5z" />
<glyph unicode="&#xce;" horiz-adv-x="630" d="M109 8q-7 -1 0 29q3 13 6 12l166 14l206 1307l-161 14l-2 21l10 20q64 11 209 11q64 0 115 -3t70 -5l20 -3q0 -1 0.5 -2t1.5 -6.5t0 -11.5l-11 -21l-164 -14l-206 -1307l159 -14q1 -1 1.5 -2.5t1.5 -7t-1 -10.5l-8 -21q-66 -10 -209 -10q-64 0 -115 2.5t-70 5.5z M309 1540l242 225q20 9 43 9q11 0 21.5 -2t14.5 -4l5 -3l174 -225q-19 -6 -39 -6l-33 6l-149 186l-207 -186q-21 -6 -37 -6q-10 0 -19 1.5t-13 2.5z" />
<glyph unicode="&#xcf;" horiz-adv-x="555" d="M70 29q1 3 2 6.5t2 6t2 4t1 2.5l1 1l166 14l205 1307l-160 14q-7 0 1 31q3 11 5 10q66 11 209 11q64 0 116 -3t72 -5l19 -3q4 -6 0 -20l-9 -21l-165 -14l-205 -1307l160 -14q7 -1 -1 -31q-4 -11 -6 -10q-66 -10 -211 -10q-64 0 -114.5 2.5t-69.5 5.5l-18 2q-1 1 -1.5 2.5 t-1.5 7t1 11.5zM315 1540l29 193q17 6 37 6q9 0 18 -1.5t14 -3.5l5 -1l-31 -193q-19 -6 -39 -6q-9 0 -17 1.5t-12 2.5zM655 1540l31 193q15 6 35 6q6 0 12.5 -0.5t10.5 -1.5t7.5 -2t4.5 -1l2 -1l-29 -193q-21 -6 -39 -6q-9 0 -17.5 1.5t-13.5 2.5z" />
<glyph unicode="&#xd0;" horiz-adv-x="1253" d="M70 27q0 5 2 10t4 8l2 2l166 14l100 641l-160 15q-6 -2 1 33l3 8q53 6 166 10l95 604l-160 14q-7 0 1 31q3 11 5 10q191 13 569 13q242 0 341 -78t75 -229l-131 -832q-24 -151 -148 -229t-366 -78q-168 0 -309 3t-198 6l-56 3q-1 1 -1.5 2.5t-1.5 7t1 11.5zM330 57h315 q204 0 301.5 60t116.5 184l131 832q21 124 -57.5 183.5t-282.5 59.5h-315l-97 -608h359q1 -1 2 -4t2 -11t0 -16q-1 -5 -3 -10t-4 -8.5t-3.5 -6t-2.5 -4.5l-1 -1h-359z" />
<glyph unicode="&#xd1;" horiz-adv-x="1390" d="M70 29q1 3 2 6.5t2 6t2 4t1 2.5l1 1l166 14l205 1307l-160 14q-7 0 1 31q3 11 5 10q66 11 205 11q10 0 19.5 -1.5t13.5 -2.5l4 -2l563 -1278l190 1218l-164 14q-4 9 0 21q1 6 3 11t4 7l2 2q65 11 208 11q63 0 113.5 -3t69.5 -5l20 -3q0 -1 0.5 -2t1.5 -6.5t0 -11.5 l-10 -21l-164 -14l-217 -1366q-18 -6 -41 -6l-37 6l-561 1278l-190 -1219l161 -14q1 -1 1.5 -2.5t1.5 -7t0 -10.5l-11 -21q-64 -10 -209 -10q-63 0 -113 2.5t-69 5.5l-18 2q-1 1 -1.5 2.5t-1.5 7t1 11.5zM659 1540l3 10q11 77 49.5 115.5t117.5 38.5q38 0 67 -12t47.5 -29.5 t35.5 -34.5t39.5 -29t50.5 -12q20 0 35 3t26.5 9.5t19.5 15t14 22t10 27t8 32.5q14 8 30 8q4 0 8.5 -1t8 -2t6.5 -2t4 -2l2 -1l-2 -8q-13 -77 -51.5 -115.5t-116.5 -38.5q-38 0 -67.5 12t-48.5 29t-36 34.5t-39 29.5t-49 12q-52 0 -78 -25t-34 -76v-10q-15 -6 -31 -6 q-7 0 -14.5 1.5t-10.5 2.5z" />
<glyph unicode="&#xd2;" horiz-adv-x="1230" d="M199 301l131 832q46 309 514 309q240 0 338.5 -79t74.5 -230l-131 -832q-24 -151 -148 -230t-366 -79q-241 0 -340 79t-73 230zM285 301q-21 -123 57.5 -183.5t280.5 -60.5q204 0 301 60t116 184l131 832q21 123 -57 183t-280 60q-204 0 -301.5 -59.5t-116.5 -183.5z M698 1784q22 8 47 8q11 0 22 -2t16 -4l5 -2l185 -244q-19 -6 -39 -6l-33 6z" />
<glyph unicode="&#xd3;" horiz-adv-x="1230" d="M199 301l131 832q46 309 514 309q240 0 338.5 -79t74.5 -230l-131 -832q-24 -151 -148 -230t-366 -79q-241 0 -340 79t-73 230zM285 301q-21 -123 57.5 -183.5t280.5 -60.5q204 0 301 60t116 184l131 832q21 123 -57 183t-280 60q-204 0 -301.5 -59.5t-116.5 -183.5z M745 1540l261 244q20 8 45 8q11 0 22.5 -2t16.5 -4l6 -2l-279 -244q-21 -6 -39 -6z" />
<glyph unicode="&#xd4;" horiz-adv-x="1230" d="M199 301l131 832q46 309 514 309q240 0 338.5 -79t74.5 -230l-131 -832q-24 -151 -148 -230t-366 -79q-241 0 -340 79t-73 230zM285 301q-21 -123 57.5 -183.5t280.5 -60.5q204 0 301 60t116 184l131 832q21 123 -57 183t-280 60q-204 0 -301.5 -59.5t-116.5 -183.5z M608 1540l242 225q20 9 45 9q11 0 21.5 -2t15.5 -4l4 -3l172 -225q-17 -6 -37 -6l-35 6l-149 186l-205 -186q-23 -6 -39 -6q-9 0 -17.5 1.5t-13.5 2.5z" />
<glyph unicode="&#xd5;" horiz-adv-x="1230" d="M199 301l131 832q46 309 514 309q240 0 338.5 -79t74.5 -230l-131 -832q-24 -151 -148 -230t-366 -79q-241 0 -340 79t-73 230zM285 301q-21 -123 57.5 -183.5t280.5 -60.5q204 0 301 60t116 184l131 832q21 123 -57 183t-280 60q-204 0 -301.5 -59.5t-116.5 -183.5z M580 1540v10q13 77 52 115.5t118 38.5q38 0 67 -12t47.5 -29.5t35 -34.5t39 -29t50.5 -12q56 0 78.5 25.5t34.5 83.5q15 8 31 8q7 0 14 -2t11 -4l3 -2v-8q-13 -78 -51.5 -116t-118.5 -38q-46 0 -81 18.5t-53 40t-45.5 40t-59.5 18.5q-52 0 -77.5 -24.5t-33.5 -76.5v-10 q-15 -6 -33 -6q-7 0 -14 1.5t-10 2.5z" />
<glyph unicode="&#xd6;" horiz-adv-x="1230" d="M199 301l131 832q46 309 514 309q240 0 338.5 -79t74.5 -230l-131 -832q-24 -151 -148 -230t-366 -79q-241 0 -340 79t-73 230zM285 301q-21 -123 57.5 -183.5t280.5 -60.5q204 0 301 60t116 184l131 832q21 123 -57 183t-280 60q-204 0 -301.5 -59.5t-116.5 -183.5z M614 1540l31 193q14 6 37 6q9 0 17.5 -1.5t12.5 -3.5l5 -1l-29 -193q-21 -6 -39 -6q-9 0 -17.5 1.5t-13.5 2.5zM1030 1540l31 193q14 6 37 6q9 0 17.5 -1.5t12.5 -3.5l5 -1l-29 -193q-21 -6 -39 -6q-9 0 -17.5 1.5t-13.5 2.5z" />
<glyph unicode="&#xd7;" horiz-adv-x="854" d="M158 328l319 286l-229 287q8 15 20 27q7 6 15.5 10.5t12.5 5.5l5 2l229 -289l322 289q12 -4 22 -18q6 -5 10 -12t4 -11l1 -4l-320 -287l230 -286q-7 -15 -21 -27l-33 -18l-229 288l-319 -288q-15 4 -25 18q-5 5 -8.5 12t-4.5 11z" />
<glyph unicode="&#xd8;" horiz-adv-x="1300" d="M152 4l104 129q-38 67 -20 168l129 832q49 309 514 309q251 0 354 -92l63 80q18 6 43 6q10 0 19.5 -1.5t13.5 -2.5l4 -2l-104 -130q37 -65 22 -167l-131 -832q-26 -152 -149 -230.5t-365 -78.5q-256 0 -354 92l-64 -80q-25 -6 -43 -6q-10 0 -19 1.5t-13 2.5zM317 209 l865 1079q-69 90 -314 90q-204 0 -301 -60t-118 -185l-132 -832q-9 -52 0 -92zM344 145q72 -90 315 -90q205 0 302 60t118 186l131 832q7 58 0 92z" />
<glyph unicode="&#xd9;" horiz-adv-x="1378" d="M281 301l168 1069l-160 14q-7 0 1 31q3 11 5 10q66 11 209 11q64 0 114.5 -3t69.5 -5l19 -3q4 -6 0 -20l-9 -21l-161 -14l-168 -1069q-19 -124 56 -184t273 -60q197 0 293 60t115 184l168 1069l-158 14l-2 21l8 20q64 11 207 11q64 0 115 -3t70 -5l20 -3q4 -6 0 -20 l-8 -21l-166 -14l-168 -1069q-49 -309 -504 -309q-237 0 -335 79t-72 230zM774 1784q20 8 45 8q12 0 23.5 -2t16.5 -4l5 -2l183 -244q-16 -6 -39 -6q-7 0 -15.5 1.5t-12.5 2.5l-5 2z" />
<glyph unicode="&#xda;" horiz-adv-x="1378" d="M281 301l168 1069l-160 14q-7 0 1 31q3 11 5 10q66 11 209 11q64 0 114.5 -3t69.5 -5l19 -3q4 -6 0 -20l-9 -21l-161 -14l-168 -1069q-19 -124 56 -184t273 -60q197 0 293 60t115 184l168 1069l-158 14l-2 21l8 20q64 11 207 11q64 0 115 -3t70 -5l20 -3q4 -6 0 -20 l-8 -21l-166 -14l-168 -1069q-49 -309 -504 -309q-237 0 -335 79t-72 230zM819 1540l260 244q20 8 45 8q11 0 22 -2t16 -4l5 -2l-274 -244q-23 -6 -39 -6q-9 0 -17.5 1.5t-13.5 2.5z" />
<glyph unicode="&#xdb;" horiz-adv-x="1378" d="M281 301l168 1069l-160 14q-7 0 1 31q3 11 5 10q66 11 209 11q64 0 114.5 -3t69.5 -5l19 -3q4 -6 0 -20l-9 -21l-161 -14l-168 -1069q-19 -124 56 -184t273 -60q197 0 293 60t115 184l168 1069l-158 14l-2 21l8 20q64 11 207 11q64 0 115 -3t70 -5l20 -3q4 -6 0 -20 l-8 -21l-166 -14l-168 -1069q-49 -309 -504 -309q-237 0 -335 79t-72 230zM684 1540l242 225q20 9 45 9q10 0 20 -2.5t14 -4.5l5 -2l172 -225q-17 -6 -37 -6q-7 0 -15.5 1.5t-12.5 2.5l-5 2l-149 186l-207 -186q-21 -6 -37 -6q-10 0 -19 1.5t-12 2.5z" />
<glyph unicode="&#xdc;" horiz-adv-x="1378" d="M281 301l168 1069l-160 14q-7 0 1 31q3 11 5 10q66 11 209 11q64 0 114.5 -3t69.5 -5l19 -3q4 -6 0 -20l-9 -21l-161 -14l-168 -1069q-19 -124 56 -184t273 -60q197 0 293 60t115 184l168 1069l-158 14l-2 21l8 20q64 11 207 11q64 0 115 -3t70 -5l20 -3q4 -6 0 -20 l-8 -21l-166 -14l-168 -1069q-49 -309 -504 -309q-237 0 -335 79t-72 230zM690 1540l29 193q17 6 37 6q9 0 18 -1.5t14 -3.5l5 -1l-31 -193q-19 -6 -37 -6q-10 0 -19 1.5t-12 2.5zM1106 1540l29 193q16 6 34 6q10 0 19.5 -1.5t13.5 -3.5l4 -1l-28 -193q-21 -6 -39 -6 q-6 0 -11.5 0.5t-9 1.5t-6.5 2t-5 1z" />
<glyph unicode="&#xdd;" horiz-adv-x="1310" d="M260 1384q-4 9 0 21q1 6 3 11t3 7l2 2q66 11 181 11q77 0 135.5 -3t77.5 -5l20 -3q7 1 -1 -32q-3 -10 -5 -9l-162 -12l254 -661l459 661l-156 12l-2 21l10 20q64 11 238 11q51 0 95.5 -3t63.5 -5l19 -3q2 -6 0 -20l-8 -21l-168 -14l-522 -729l-88 -578l159 -14 q7 0 -1 -32q-3 -10 -5 -9q-66 -10 -209 -10q-64 0 -115 2.5t-70 5.5l-19 2q-1 1 -2 2.5t-2 7t1 11.5q1 5 3 10t4 7l2 3l168 14l88 578l-289 729zM786 1540l258 244q21 8 46 8q11 0 22 -2t16 -4l5 -2l-275 -244q-23 -6 -39 -6q-10 0 -18.5 1.5t-11.5 2.5z" />
<glyph unicode="&#xde;" horiz-adv-x="1105" d="M70 29q1 3 2 6.5t2 6t2 4t1 2.5l1 1l166 14l205 1307l-160 14q-7 0 1 31q3 11 5 10q66 11 209 11q64 0 116 -3t72 -5l19 -3q4 -6 0 -20l-9 -21l-165 -14l-37 -240q104 9 268 9q191 0 267 -79.5t52 -230.5l-24 -163q-26 -152 -127 -231t-293 -79q-72 0 -138 2t-96 4l-30 3 l-47 -302l160 -14q7 -1 -1 -31q-4 -11 -6 -10q-66 -10 -211 -10q-64 0 -114.5 2.5t-69.5 5.5l-18 2q-1 1 -1.5 2.5t-1.5 7t1 11.5zM387 422h262q155 0 231 59.5t95 184.5l24 163q11 61 2.5 106.5t-37 76t-81 46t-131.5 15.5h-260z" />
<glyph unicode="&#xdf;" horiz-adv-x="1261" d="M-106 -369q2 8 5.5 16.5t5.5 12.5l3 4q37 -18 102 -18q42 0 72 10t50 31.5t31.5 51.5t18.5 73l183 1155l-144 16q-8 3 3 30q3 7 5 7q48 8 146 8l22 148q23 131 101 198.5t229 67.5q158 0 216.5 -67t37.5 -199l-4 -31q-10 -61 -33 -105.5t-50 -66.5t-58 -44t-57.5 -40 t-47.5 -53.5t-29 -85.5l-4 -31q-7 -43 17 -74.5t67 -50.5t96.5 -35.5t107 -35.5t96 -44.5t64.5 -69t13 -102.5l-6 -41q-23 -136 -106 -205t-246 -69q-57 0 -107.5 8.5t-81 21t-53 25t-31.5 21.5l-10 8q9 58 20 114.5t18 83.5l7 27q13 6 25 6q6 0 11 -1.5t7 -3.5l2 -1 l-10 -186q90 -62 213 -62q122 0 181 52t77 161l6 41q7 47 -16.5 81t-66.5 53.5t-96.5 36t-106.5 34.5t-96 42t-65.5 66t-13.5 99l4 31q10 59 32 101t49 62.5t58 42.5t57.5 41t48 57t30.5 91l4 31q16 102 -24 150t-156 48q-113 0 -166.5 -48.5t-69.5 -149.5l-215 -1364 q-20 -114 -78.5 -172t-169.5 -58q-63 0 -120 21q-1 1 -2 3.5t-2 10t0 14.5z" />
<glyph unicode="&#xe0;" horiz-adv-x="1067" d="M197 295l69 434q24 149 111 226t256 77q80 0 141.5 -13t91.5 -32t48 -37.5t22 -31.5l4 -13l16 115q20 6 43 6l41 -6l-133 -840q-10 -73 4.5 -99t67.5 -26q14 0 26.5 3t19.5 6l7 2q4 -13 4 -29l-14 -27l-6 -2q-6 -3 -12.5 -5.5t-17 -5t-24 -4t-28.5 -1.5q-127 0 -111 131 q-6 -5 -17 -14t-49.5 -31.5t-81 -40t-109.5 -31.5t-138 -14q-147 0 -201 77.5t-30 225.5zM281 295q-20 -123 19 -181.5t157 -58.5q71 0 135.5 14.5t105.5 35t71.5 41t44.5 34.5l13 15l84 534q19 122 -43.5 181t-232.5 59q-136 0 -201.5 -58.5t-83.5 -181.5zM526 1430 q22 6 47 6q11 0 22 -1.5t16 -2.5l5 -2l183 -244q-16 -8 -39 -8q-7 0 -16 2t-14 4l-5 2z" />
<glyph unicode="&#xe1;" horiz-adv-x="1067" d="M197 295l69 434q24 149 111 226t256 77q80 0 141.5 -13t91.5 -32t48 -37.5t22 -31.5l4 -13l16 115q20 6 43 6l41 -6l-133 -840q-10 -73 4.5 -99t67.5 -26q14 0 26.5 3t19.5 6l7 2q4 -13 4 -29l-14 -27l-6 -2q-6 -3 -12.5 -5.5t-17 -5t-24 -4t-28.5 -1.5q-127 0 -111 131 q-6 -5 -17 -14t-49.5 -31.5t-81 -40t-109.5 -31.5t-138 -14q-147 0 -201 77.5t-30 225.5zM281 295q-20 -123 19 -181.5t157 -58.5q71 0 135.5 14.5t105.5 35t71.5 41t44.5 34.5l13 15l84 534q19 122 -43.5 181t-232.5 59q-136 0 -201.5 -58.5t-83.5 -181.5zM571 1186 l260 244q23 6 46 6q11 0 22 -1.5t16 -2.5l5 -2l-275 -244q-23 -8 -39 -8q-10 0 -19 2t-13 4z" />
<glyph unicode="&#xe2;" horiz-adv-x="1067" d="M197 295l69 434q24 149 111 226t256 77q80 0 141.5 -13t91.5 -32t48 -37.5t22 -31.5l4 -13l16 115q20 6 43 6l41 -6l-133 -840q-10 -73 4.5 -99t67.5 -26q14 0 26.5 3t19.5 6l7 2q4 -13 4 -29l-14 -27l-6 -2q-6 -3 -12.5 -5.5t-17 -5t-24 -4t-28.5 -1.5q-127 0 -111 131 q-6 -5 -17 -14t-49.5 -31.5t-81 -40t-109.5 -31.5t-138 -14q-147 0 -201 77.5t-30 225.5zM281 295q-20 -123 19 -181.5t157 -58.5q71 0 135.5 14.5t105.5 35t71.5 41t44.5 34.5l13 15l84 534q19 122 -43.5 181t-232.5 59q-136 0 -201.5 -58.5t-83.5 -181.5zM436 1204 l244 226q22 6 45 6l41 -6l170 -226q-14 -8 -37 -8l-35 8l-147 185l-209 -185q-17 -8 -35 -8q-9 0 -18 2t-14 4z" />
<glyph unicode="&#xe3;" horiz-adv-x="1067" d="M197 295l69 434q24 149 111 226t256 77q80 0 141.5 -13t91.5 -32t48 -37.5t22 -31.5l4 -13l16 115q20 6 43 6l41 -6l-133 -840q-10 -73 4.5 -99t67.5 -26q14 0 26.5 3t19.5 6l7 2q4 -13 4 -29l-14 -27l-6 -2q-6 -3 -12.5 -5.5t-17 -5t-24 -4t-28.5 -1.5q-127 0 -111 131 q-6 -5 -17 -14t-49.5 -31.5t-81 -40t-109.5 -31.5t-138 -14q-147 0 -201 77.5t-30 225.5zM281 295q-20 -123 19 -181.5t157 -58.5q71 0 135.5 14.5t105.5 35t71.5 41t44.5 34.5l13 15l84 534q19 122 -43.5 181t-232.5 59q-136 0 -201.5 -58.5t-83.5 -181.5zM420 1272 q17 84 53.5 124t116.5 40q38 0 67.5 -12t47.5 -29.5t34.5 -34.5t39 -29t50.5 -12q56 0 78.5 25t34.5 83q17 9 33 9q6 0 12.5 -2t10.5 -5l3 -2l-2 -8q-13 -78 -51 -115.5t-117 -37.5q-38 0 -67.5 12t-48.5 29t-36 34t-39.5 29t-49.5 12q-54 0 -76.5 -26t-34.5 -84 q-14 -6 -30 -6z" />
<glyph unicode="&#xe4;" horiz-adv-x="1067" d="M197 295l69 434q24 149 111 226t256 77q80 0 141.5 -13t91.5 -32t48 -37.5t22 -31.5l4 -13l16 115q20 6 43 6l41 -6l-133 -840q-10 -73 4.5 -99t67.5 -26q14 0 26.5 3t19.5 6l7 2q4 -13 4 -29l-14 -27l-6 -2q-6 -3 -12.5 -5.5t-17 -5t-24 -4t-28.5 -1.5q-127 0 -111 131 q-6 -5 -17 -14t-49.5 -31.5t-81 -40t-109.5 -31.5t-138 -14q-147 0 -201 77.5t-30 225.5zM281 295q-20 -123 19 -181.5t157 -58.5q71 0 135.5 14.5t105.5 35t71.5 41t44.5 34.5l13 15l84 534q19 122 -43.5 181t-232.5 59q-136 0 -201.5 -58.5t-83.5 -181.5zM451 1237l28 193 q19 6 39 6q9 0 17.5 -1.5t12.5 -2.5l5 -2l-31 -193q-19 -6 -37 -6q-10 0 -18.5 1.5t-12.5 3.5zM864 1237l29 193q19 6 39 6q9 0 17.5 -1.5t12.5 -2.5l5 -2l-31 -193q-19 -6 -37 -6q-10 0 -19 1.5t-12 3.5z" />
<glyph unicode="&#xe5;" horiz-adv-x="1067" d="M197 295l69 434q24 149 111 226t256 77q80 0 141.5 -13t91.5 -32t48 -37.5t22 -31.5l4 -13l16 115q20 6 43 6l41 -6l-133 -840q-10 -73 4.5 -99t67.5 -26q14 0 26.5 3t19.5 6l7 2q4 -13 4 -29l-14 -27l-6 -2q-6 -3 -12.5 -5.5t-17 -5t-24 -4t-28.5 -1.5q-127 0 -111 131 q-6 -5 -17 -14t-49.5 -31.5t-81 -40t-109.5 -31.5t-138 -14q-147 0 -201 77.5t-30 225.5zM281 295q-20 -123 19 -181.5t157 -58.5q71 0 135.5 14.5t105.5 35t71.5 41t44.5 34.5l13 15l84 534q19 122 -43.5 181t-232.5 59q-136 0 -201.5 -58.5t-83.5 -181.5zM545 1270l4 37 q23 133 178 133q151 0 131 -133l-6 -37q-19 -133 -174 -133q-156 0 -133 133zM596 1270q-6 -43 14.5 -64.5t75.5 -21.5q54 0 80.5 21.5t34.5 64.5l4 37q6 43 -13 63.5t-73 20.5q-105 0 -117 -84z" />
<glyph unicode="&#xe6;" horiz-adv-x="1636" d="M178 252l6 39q19 120 110 184t279 86l306 33l22 139q18 120 -37 178t-209 58q-150 0 -266 -62l-47 -186q-11 -6 -25 -6q-5 0 -10 1.5t-7 3.5l-3 1q4 94 27 225q5 3 14 9t41 21t68.5 26t95.5 20.5t123 9.5q263 0 299 -168q87 168 342 168q192 0 262.5 -77t46.5 -226 l-37 -227q-126 -13 -319 -13h-316l-29 -194q-21 -123 34.5 -181.5t213.5 -58.5q33 0 66 2.5t60 7.5t52.5 10.5t46.5 12.5t38.5 13.5t31.5 13t23 11t15.5 8l6.5 3.5q-1 0 0 -4t2 -12.5t0 -16.5q-2 -9 -5.5 -17t-5.5 -11l-3 -4q-5 -3 -14 -8.5t-41 -19.5t-69 -24.5t-96.5 -19 t-123.5 -8.5q-269 0 -297 178q-105 -178 -453 -178q-137 0 -188.5 65.5t-30.5 194.5zM262 252q-16 -101 21.5 -149t146.5 -48q196 0 289 59t112 181l37 237l-295 -32q-152 -17 -221.5 -67t-83.5 -142zM954 551h551l31 178q19 123 -34.5 181.5t-205.5 58.5q-150 0 -222 -58.5 t-91 -181.5zM1503 137z" />
<glyph unicode="&#xe7;" horiz-adv-x="1001" d="M197 295l69 434q24 149 122 226t292 77q67 0 126 -9t94.5 -21.5t62 -25t36.5 -21.5l11 -9q-9 -58 -20 -114.5t-18 -83.5l-7 -27q-13 -6 -27 -6q-3 0 -6.5 0.5t-5.5 1.5t-3.5 2l-1.5 1l-1 1l12 188q-30 16 -54 26t-83 22t-125 12q-106 0 -173.5 -28t-101 -79t-45.5 -133 l-69 -434q-10 -59 -2.5 -104t35.5 -75t82 -45.5t136 -15.5q60 0 120 8.5t102.5 20.5t77 24t52.5 21l17 8q0 -1 0.5 -4t1.5 -11.5t0 -17.5q-2 -9 -5.5 -17t-5.5 -11l-3 -4q-6 -3 -16.5 -8t-45.5 -18.5t-74 -24t-99 -19.5t-122 -10q-7 -35 2.5 -55.5t28 -28.5l37 -16 t29.5 -27.5t6 -52.5q-11 -64 -56 -99t-122 -35q-41 0 -73.5 10t-45.5 20l-12 9q-1 1 -1.5 3.5t-1.5 9t1 12.5q1 7 3.5 14t4.5 10l2 3q49 -39 125 -39q102 0 114 82q4 22 -7.5 33.5t-29.5 17.5t-35.5 16t-27 35.5t-2.5 67.5l2 12q-171 7 -235 83.5t-41 217.5z" />
<glyph unicode="&#xe8;" horiz-adv-x="1052" d="M197 295l69 434q24 149 124 226t300 77q202 0 277 -77t51 -226l-37 -227q-133 -13 -336 -13h-334l-30 -194q-20 -123 39 -181.5t225 -58.5q98 0 194 20.5t143 40.5l46 21q1 -1 1.5 -4t1.5 -11.5t-1 -17.5q-1 -9 -4.5 -17t-7.5 -11l-3 -4l-17 -8.5t-48.5 -19.5 t-79.5 -24.5t-107 -19t-133 -8.5q-202 0 -279.5 77t-53.5 226zM319 551h588l29 178q19 123 -38 181.5t-218 58.5q-162 0 -237 -58.5t-93 -181.5zM555 1430q22 6 47 6q11 0 21.5 -1.5t14.5 -2.5l5 -2l184 -244q-19 -8 -39 -8q-7 0 -15 2t-13 4l-4 2z" />
<glyph unicode="&#xe9;" horiz-adv-x="1052" d="M197 295l69 434q24 149 124 226t300 77q202 0 277 -77t51 -226l-37 -227q-133 -13 -336 -13h-334l-30 -194q-20 -123 39 -181.5t225 -58.5q98 0 194 20.5t143 40.5l46 21q1 -1 1.5 -4t1.5 -11.5t-1 -17.5q-1 -9 -4.5 -17t-7.5 -11l-3 -4l-17 -8.5t-48.5 -19.5 t-79.5 -24.5t-107 -19t-133 -8.5q-202 0 -279.5 77t-53.5 226zM319 551h588l29 178q19 123 -38 181.5t-218 58.5q-162 0 -237 -58.5t-93 -181.5zM600 1186l258 244q22 6 47 6q11 0 21.5 -1.5t15.5 -2.5l4 -2l-276 -244q-21 -8 -37 -8q-9 0 -17 2t-12 4z" />
<glyph unicode="&#xea;" horiz-adv-x="1052" d="M197 295l69 434q24 149 124 226t300 77q202 0 277 -77t51 -226l-37 -227q-133 -13 -336 -13h-334l-30 -194q-20 -123 39 -181.5t225 -58.5q98 0 194 20.5t143 40.5l46 21q1 -1 1.5 -4t1.5 -11.5t-1 -17.5q-1 -9 -4.5 -17t-7.5 -11l-3 -4l-17 -8.5t-48.5 -19.5 t-79.5 -24.5t-107 -19t-133 -8.5q-202 0 -279.5 77t-53.5 226zM319 551h588l29 178q19 123 -38 181.5t-218 58.5q-162 0 -237 -58.5t-93 -181.5zM465 1204l244 226q20 6 45 6q11 0 21.5 -1.5t14.5 -2.5l5 -2l170 -226q-17 -8 -35 -8q-8 0 -17.5 2t-14.5 4l-5 2l-148 185 l-206 -185q-21 -8 -37 -8q-10 0 -19.5 2t-13.5 4z" />
<glyph unicode="&#xeb;" horiz-adv-x="1052" d="M197 295l69 434q24 149 124 226t300 77q202 0 277 -77t51 -226l-37 -227q-133 -13 -336 -13h-334l-30 -194q-20 -123 39 -181.5t225 -58.5q98 0 194 20.5t143 40.5l46 21q1 -1 1.5 -4t1.5 -11.5t-1 -17.5q-1 -9 -4.5 -17t-7.5 -11l-3 -4l-17 -8.5t-48.5 -19.5 t-79.5 -24.5t-107 -19t-133 -8.5q-202 0 -279.5 77t-53.5 226zM319 551h588l29 178q19 123 -38 181.5t-218 58.5q-162 0 -237 -58.5t-93 -181.5zM477 1237l31 193q16 6 39 6q9 0 17 -1.5t12 -2.5l4 -2l-29 -193q-19 -6 -39 -6q-9 0 -17.5 1.5t-12.5 3.5zM893 1237l31 193 q16 6 39 6q9 0 17 -1.5t12 -2.5l3 -2l-30 -193q-17 -6 -37 -6q-9 0 -17.5 1.5t-12.5 3.5z" />
<glyph unicode="&#xec;" horiz-adv-x="512" d="M223 981q-7 -1 1 27q3 8 5 8q51 10 168 10q16 0 31.5 -1.5t23.5 -2.5l7 -2l-135 -858q-9 -55 8 -81t69 -26q13 0 25.5 1.5t19.5 3.5l7 1q2 -12 0 -28l-11 -27q-1 0 -9 -3t-16.5 -5t-23.5 -4t-31 -2q-152 0 -120 170l125 803zM285 1430q22 6 47 6q7 0 14 -0.5t11.5 -1.5 t8 -2t5.5 -1l2 -1l184 -244q-19 -8 -39 -8q-7 0 -15.5 2t-12.5 4l-5 2z" />
<glyph unicode="&#xed;" horiz-adv-x="520" d="M223 981q-7 -1 1 27q3 8 5 8q51 10 168 10q16 0 31.5 -1.5t23.5 -2.5l7 -2l-135 -858q-9 -55 8 -81t69 -26q13 0 25.5 1.5t19.5 3.5l7 1l2 -28l-13 -27q-42 -14 -77 -14q-155 0 -123 170l125 803zM332 1186l258 244q22 6 47 6q11 0 22 -1.5t16 -2.5l5 -2l-279 -244 q-20 -8 -36 -8q-4 0 -8 0.5t-7 1t-6 1.5t-5 2t-3.5 1.5t-2.5 1.5h-1z" />
<glyph unicode="&#xee;" horiz-adv-x="507" d="M193 1204l243 226q20 6 43 6q11 0 22 -1.5t16 -2.5l5 -2l170 -226q-14 -8 -37 -8q-7 0 -15.5 2t-13.5 4l-5 2l-148 185l-209 -185q-19 -8 -35 -8q-9 0 -18 2t-13 4zM221 981q-7 -1 1 27q3 8 5 8q53 10 168 10q16 0 31.5 -1.5t23.5 -2.5l7 -2l-135 -858q-8 -55 8.5 -81 t66.5 -26q14 0 26 1.5t19 3.5l7 1q8 -3 -2 -41q-4 -15 -7 -14q-42 -14 -80 -14q-149 0 -120 170l125 803z" />
<glyph unicode="&#xef;" horiz-adv-x="514" d="M223 981q-7 -1 1 27q3 8 5 8q51 10 168 10q16 0 31.5 -1.5t23.5 -2.5l7 -2l-135 -858q-9 -55 8 -81t69 -26q13 0 25.5 1.5t19.5 3.5l7 1l2 -28l-13 -27q-42 -14 -77 -14q-155 0 -123 170l125 803zM272 1237l31 193q17 6 37 6q6 0 12 -0.5t9.5 -1.5t6.5 -2t4 -1l1 -1 l-29 -193q-19 -6 -37 -6q-9 0 -17.5 1.5t-13.5 3.5zM559 1237l31 193q17 6 37 6q10 0 19 -1.5t12 -2.5l4 -2l-29 -193q-21 -6 -39 -6q-9 0 -17.5 1.5t-13.5 3.5z" />
<glyph unicode="&#xf0;" horiz-adv-x="1040" d="M197 295l69 434q24 149 104.5 226t235.5 77q72 0 135.5 -13.5t103.5 -32t69.5 -37.5t41.5 -33l13 -13l20 123q19 138 -121 234l-129 -115q-23 -6 -39 -6q-9 0 -17.5 1.5t-12.5 3.5l-4 1l157 143q-72 38 -166.5 65t-153.5 35l-59 7q-1 1 -1.5 3.5t-1.5 10t1 16.5 q1 8 4 15.5t6 11.5l3 4q27 -2 72.5 -8.5t159 -36t194.5 -72.5l98 91q18 6 41 6q10 0 20 -1.5t14 -2.5l5 -2l-131 -117q172 -116 145 -287l-117 -731q-49 -303 -426 -303q-198 0 -277.5 78t-55.5 225zM279 295q-19 -122 40 -181t220 -59q160 0 237 58.5t96 181.5l84 532 q-3 6 -10 15.5t-34.5 34t-62.5 43t-98 34t-137 15.5q-126 0 -186 -58t-80 -182z" />
<glyph unicode="&#xf1;" horiz-adv-x="1165" d="M215 4l152 961l-144 16q-7 1 2 28q3 7 4 7q51 10 168 10q16 0 31.5 -1.5t23.5 -2.5l7 -2l-19 -117q6 5 16.5 14t48 31t78.5 39t106.5 31t133.5 14q153 0 210 -77.5t34 -225.5l-90 -567q-9 -54 8.5 -80.5t69.5 -26.5q13 0 25 1.5t19 3.5l7 1q4 -12 0 -28l-10 -27 q-42 -14 -80 -14q-152 0 -123 170l90 567q19 123 -22.5 181.5t-165.5 58.5q-70 0 -133.5 -14.5t-104 -35.5t-71.5 -42t-44 -35l-14 -15l-129 -823q-22 -6 -45 -6q-10 0 -20 1.5t-14 2.5zM504 1272q5 27 11.5 47.5t15.5 40t21.5 33t29.5 23.5t40 15t52 5q38 0 67.5 -12 t48 -29.5t35 -34.5t38.5 -29t50 -12q56 0 78.5 25t34.5 83q15 9 33 9q7 0 13.5 -2t9.5 -4l3 -3l-2 -8q-11 -78 -50 -115.5t-118 -37.5q-38 0 -67.5 12t-48 29t-35.5 34t-39 29t-49 12q-57 0 -78 -25t-33 -85q-17 -6 -33 -6q-7 0 -14 1.5t-10 2.5z" />
<glyph unicode="&#xf2;" horiz-adv-x="1073" d="M197 295l69 434q49 303 432 303q200 0 281 -78t57 -225l-69 -434q-49 -303 -432 -303q-200 0 -281 78t-57 225zM281 295q-19 -122 41 -181t223 -59q161 0 240 59t100 181l67 434q19 122 -41 181t-221 59q-163 0 -242.5 -59t-97.5 -181zM565 1430q22 6 47 6 q11 0 21.5 -1.5t14.5 -2.5l5 -2l185 -244q-19 -8 -39 -8q-7 0 -16 2t-14 4l-5 2z" />
<glyph unicode="&#xf3;" horiz-adv-x="1073" d="M197 295l69 434q49 303 432 303q200 0 281 -78t57 -225l-69 -434q-49 -303 -432 -303q-200 0 -281 78t-57 225zM281 295q-19 -122 41 -181t223 -59q161 0 240 59t100 181l67 434q19 122 -41 181t-221 59q-163 0 -242.5 -59t-97.5 -181zM608 1186l260 244q22 6 45 6 q11 0 22 -1.5t16 -2.5l5 -2l-276 -244q-21 -8 -37 -8q-10 0 -19 2t-12 4z" />
<glyph unicode="&#xf4;" horiz-adv-x="1073" d="M197 295l69 434q49 303 432 303q200 0 281 -78t57 -225l-69 -434q-49 -303 -432 -303q-200 0 -281 78t-57 225zM281 295q-19 -122 41 -181t223 -59q161 0 240 59t100 181l67 434q19 122 -41 181t-221 59q-163 0 -242.5 -59t-97.5 -181zM475 1204l244 226q20 6 45 6l41 -6 l170 -226q-17 -8 -37 -8q-7 0 -16 2t-14 4l-5 2l-147 185l-209 -185q-19 -8 -35 -8q-10 0 -19.5 2t-13.5 4z" />
<glyph unicode="&#xf5;" horiz-adv-x="1073" d="M197 295l69 434q49 303 432 303q200 0 281 -78t57 -225l-69 -434q-49 -303 -432 -303q-200 0 -281 78t-57 225zM281 295q-19 -122 41 -181t223 -59q161 0 240 59t100 181l67 434q19 122 -41 181t-221 59q-163 0 -242.5 -59t-97.5 -181zM459 1272q5 27 11.5 47.5t15.5 40 t21.5 33t29.5 23.5t40 15t52 5q28 0 51 -6.5t39 -17t29.5 -22.5t25.5 -24.5t24.5 -23t29.5 -17t38 -6.5q56 0 78.5 25t34.5 83q17 9 35 9q6 0 12 -2t9 -4l3 -3l-2 -8q-11 -78 -49.5 -115.5t-118.5 -37.5q-37 0 -66.5 12t-48 29t-35.5 34t-39.5 29t-49.5 12 q-56 0 -77.5 -25.5t-33.5 -84.5q-17 -6 -31 -6q-7 0 -14 1.5t-11 2.5z" />
<glyph unicode="&#xf6;" horiz-adv-x="1073" d="M197 295l69 434q49 303 432 303q200 0 281 -78t57 -225l-69 -434q-49 -303 -432 -303q-200 0 -281 78t-57 225zM281 295q-19 -122 41 -181t223 -59q161 0 240 59t100 181l67 434q19 122 -41 181t-221 59q-163 0 -242.5 -59t-97.5 -181zM487 1237l31 193q16 6 39 6 q9 0 17 -1.5t12 -2.5l4 -2l-29 -193q-19 -6 -39 -6q-9 0 -17.5 1.5t-12.5 3.5zM903 1237l29 193q19 6 39 6q9 0 17.5 -1.5t13.5 -2.5l4 -2l-31 -193q-19 -6 -39 -6q-9 0 -17 1.5t-12 3.5z" />
<glyph unicode="&#xf7;" horiz-adv-x="858" d="M199 612q2 8 5.5 16t5.5 12l3 3h635q1 -1 1.5 -4t1.5 -11t-1 -16q-1 -8 -4 -15.5t-6 -10.5l-2 -4h-637zM432 240l25 166q17 6 37 6l36 -6l-26 -166q-21 -7 -39 -7q-9 0 -17 1.5t-12 3.5zM522 819l27 164q19 8 37 8q9 0 17.5 -2t12.5 -4l5 -2l-27 -164q-19 -6 -37 -6z" />
<glyph unicode="&#xf8;" horiz-adv-x="1079" d="M156 4l75 92q-51 75 -30 199l69 434q49 303 432 303q167 0 252 -57l37 45q16 6 39 6q9 0 17.5 -1.5t12.5 -2.5l5 -2l-68 -82q65 -74 43 -209l-69 -434q-49 -303 -432 -303q-186 0 -269 65l-43 -53q-23 -6 -37 -6q-10 0 -18.5 1.5t-11.5 2.5zM281 295q-13 -84 6 -131 l622 756q-63 51 -215 51q-166 0 -246.5 -59t-99.5 -183zM319 115q62 -62 230 -62q165 0 245 59t99 183l70 434q13 100 -17 148z" />
<glyph unicode="&#xf9;" horiz-adv-x="1175" d="M223 981q-7 -1 1 27q3 8 5 8q51 10 168 10q16 0 31.5 -1.5t23.5 -2.5l7 -2l-115 -725q-20 -123 21 -181.5t163 -58.5q72 0 137.5 14.5t108 35.5t74 42t45.5 35l14 15l129 823q20 6 43 6q11 0 21.5 -1.5t15.5 -2.5l4 -2l-133 -840q-11 -74 3.5 -99.5t68.5 -25.5 q13 0 25.5 3t19.5 6l8 2q4 -13 4 -29l-12 -27q-1 0 -10 -3.5t-18.5 -6.5t-26.5 -5.5t-35 -2.5q-68 0 -93.5 33.5t-17.5 97.5q-6 -5 -17.5 -14t-51 -31.5t-83.5 -40t-112.5 -31.5t-140.5 -14q-152 0 -207 77.5t-29 225.5l105 670zM612 1430q22 6 47 6q12 0 22.5 -1.5 t15.5 -2.5l5 -2l185 -244q-19 -8 -39 -8q-8 0 -16.5 2t-12.5 4l-4 2z" />
<glyph unicode="&#xfa;" horiz-adv-x="1175" d="M223 981q-7 -1 1 27q3 8 5 8q51 10 168 10q16 0 31.5 -1.5t23.5 -2.5l7 -2l-115 -725q-20 -123 21 -181.5t163 -58.5q72 0 137.5 14.5t108 35.5t74 42t45.5 35l14 15l129 823q20 6 43 6q11 0 21.5 -1.5t15.5 -2.5l4 -2l-133 -840q-11 -74 3.5 -99.5t68.5 -25.5 q13 0 25.5 3t19.5 6l8 2q4 -13 4 -29l-12 -27q-1 0 -10 -3.5t-18.5 -6.5t-26.5 -5.5t-35 -2.5q-68 0 -93.5 33.5t-17.5 97.5q-6 -5 -17.5 -14t-51 -31.5t-83.5 -40t-112.5 -31.5t-140.5 -14q-152 0 -207 77.5t-29 225.5l105 670zM659 1186l261 244q20 6 47 6q10 0 20.5 -1.5 t15.5 -2.5l5 -2l-277 -244q-21 -8 -39 -8q-8 0 -16.5 2t-12.5 4z" />
<glyph unicode="&#xfb;" horiz-adv-x="1175" d="M223 981q-7 -1 1 27q3 8 5 8q51 10 168 10q16 0 31.5 -1.5t23.5 -2.5l7 -2l-115 -725q-20 -123 21 -181.5t163 -58.5q72 0 137.5 14.5t108 35.5t74 42t45.5 35l14 15l129 823q20 6 43 6q11 0 21.5 -1.5t15.5 -2.5l4 -2l-133 -840q-11 -74 3.5 -99.5t68.5 -25.5 q13 0 25.5 3t19.5 6l8 2q4 -13 4 -29l-12 -27q-1 0 -10 -3.5t-18.5 -6.5t-26.5 -5.5t-35 -2.5q-68 0 -93.5 33.5t-17.5 97.5q-6 -5 -17.5 -14t-51 -31.5t-83.5 -40t-112.5 -31.5t-140.5 -14q-152 0 -207 77.5t-29 225.5l105 670zM524 1204l244 226q20 6 45 6q11 0 21.5 -1.5 t14.5 -2.5l5 -2l170 -226q-17 -8 -35 -8q-8 0 -17.5 2t-14.5 4l-5 2l-147 185l-207 -185q-21 -8 -37 -8q-10 0 -19.5 2t-13.5 4z" />
<glyph unicode="&#xfc;" horiz-adv-x="1175" d="M223 981q-7 -1 1 27q3 8 5 8q51 10 168 10q16 0 31.5 -1.5t23.5 -2.5l7 -2l-115 -725q-20 -123 21 -181.5t163 -58.5q72 0 137.5 14.5t108 35.5t74 42t45.5 35l14 15l129 823q20 6 43 6q11 0 21.5 -1.5t15.5 -2.5l4 -2l-133 -840q-11 -74 3.5 -99.5t68.5 -25.5 q13 0 25.5 3t19.5 6l8 2q4 -13 4 -29l-12 -27q-1 0 -10 -3.5t-18.5 -6.5t-26.5 -5.5t-35 -2.5q-68 0 -93.5 33.5t-17.5 97.5q-6 -5 -17.5 -14t-51 -31.5t-83.5 -40t-112.5 -31.5t-140.5 -14q-152 0 -207 77.5t-29 225.5l105 670zM537 1237l30 193q16 6 39 6q9 0 17 -1.5 t12 -2.5l4 -2l-29 -193q-21 -6 -39 -6q-9 0 -17.5 1.5t-12.5 3.5zM952 1237l31 193q16 6 39 6q6 0 11.5 -0.5t9 -1.5t6.5 -2t5 -1l1 -1l-29 -193q-21 -6 -39 -6q-9 0 -17.5 1.5t-13.5 3.5z" />
<glyph unicode="&#xfd;" horiz-adv-x="1122" d="M184 -346q1 9 4.5 17t7.5 12l3 4q13 -5 37.5 -11.5t105.5 -18t168 -11.5q113 0 184 27.5t106 78.5t48 133l37 232q-5 -5 -15.5 -13.5t-46.5 -30t-76.5 -38t-105.5 -30t-133 -13.5q-157 0 -214.5 77.5t-31.5 225.5l105 670l-144 16q-7 -1 1 27q3 8 5 8q51 10 168 10 q16 0 31.5 -1.5t23.5 -2.5l7 -2l-115 -725q-20 -123 21 -181.5t163 -58.5q70 0 134 14.5t105 35.5t71.5 42t44.5 35l14 15l131 823q20 6 43 6q10 0 20 -1.5t15 -2.5l4 -2l-178 -1135q-23 -149 -126 -226t-308 -77q-90 0 -167.5 10t-110.5 20l-32 11q-1 1 -2 4t-3 11t1 16z M647 1186l260 244q22 6 47 6q11 0 22 -1.5t16 -2.5l5 -2l-278 -244q-21 -8 -37 -8q-9 0 -17.5 2t-13.5 4z" />
<glyph unicode="&#xfe;" horiz-adv-x="1062" d="M127 -406l283 1780l-144 17q-6 -1 0 25q4 10 6 9q53 11 170 11q16 0 31 -1.5t22 -2.5l7 -2l-82 -527q6 5 17 14t48.5 31t79.5 39t108.5 31t135.5 14q149 0 204 -77.5t31 -225.5l-67 -434q-26 -149 -114.5 -226t-260.5 -77q-73 0 -130.5 11t-88.5 25.5t-52.5 33.5 t-28 30.5t-9.5 20.5l-82 -519q-18 -6 -41 -6zM324 295q-19 -123 43.5 -181.5t234.5 -58.5q138 0 204 58.5t87 181.5l68 434q20 123 -20.5 181.5t-160.5 58.5q-71 0 -135.5 -14.5t-106.5 -35.5t-73 -42t-45 -35l-14 -15z" />
<glyph unicode="&#xff;" horiz-adv-x="1122" d="M184 -346q1 9 4.5 17t7.5 12l3 4q13 -5 37.5 -11.5t105.5 -18t168 -11.5q113 0 184 27.5t106 78.5t48 133l37 232q-5 -5 -15.5 -13.5t-46.5 -30t-76.5 -38t-105.5 -30t-133 -13.5q-157 0 -214.5 77.5t-31.5 225.5l105 670l-144 16q-7 -1 1 27q3 8 5 8q51 10 168 10 q16 0 31.5 -1.5t23.5 -2.5l7 -2l-115 -725q-20 -123 21 -181.5t163 -58.5q70 0 134 14.5t105 35.5t71.5 42t44.5 35l14 15l131 823q20 6 43 6q10 0 20 -1.5t15 -2.5l4 -2l-178 -1135q-23 -149 -126 -226t-308 -77q-90 0 -167.5 10t-110.5 20l-32 11q-1 1 -2 4t-3 11t1 16z M526 1237l29 193q19 6 39 6q9 0 17.5 -1.5t13.5 -2.5l4 -2l-31 -193q-19 -6 -39 -6q-9 0 -17 1.5t-12 3.5zM942 1237l29 193q19 6 39 6q9 0 17.5 -1.5t12.5 -2.5l4 -2l-30 -193q-19 -6 -39 -6q-9 0 -17 1.5t-12 3.5z" />
<glyph unicode="&#x152;" horiz-adv-x="1660" d="M180 301l131 832q24 151 148 229t366 78q49 0 96.5 -2t81.5 -4t61 -4.5t42.5 -4.5t17.5 -2t20 1t48 2.5t68 3.5t91 3t107 1h326q4 -21 -2 -52q-11 -72 -22 -127t-16 -73l-5 -19q-9 -6 -21 -6q-5 0 -9 1.5t-5 3.5l-2 1l12 205h-567l-94 -598h559q4 -15 4 -33 q-2 -8 -5.5 -16t-6.5 -12l-2 -4h-560l-100 -639h576l51 204q10 6 20 6q5 0 10 -1.5t7 -2.5l2 -2l-7 -84q-15 -137 -32 -186h-336q-54 0 -107 1t-91.5 2.5t-68.5 3t-47.5 2.5t-19.5 1t-18 -1.5t-43.5 -4t-62 -5t-82.5 -4t-97 -1.5q-243 0 -342 78t-74 229zM266 301 q-19 -124 59 -184t281 -60h252l209 1319h-252q-204 0 -300.5 -59.5t-117.5 -183.5z" />
<glyph unicode="&#x153;" horiz-adv-x="1740" d="M197 295l69 434q49 303 432 303q280 0 316 -172q87 172 362 172q202 0 277 -77t51 -226l-37 -227q-133 -13 -336 -13h-334l-30 -194q-20 -123 39 -181.5t225 -58.5q98 0 187.5 20.5t129.5 40.5l41 21q1 -1 1.5 -4t1.5 -11.5t-1 -17.5q-1 -9 -4.5 -17t-6.5 -11l-3 -4 q-5 -3 -14.5 -8.5t-42.5 -19.5t-71.5 -24.5t-101 -19t-130.5 -8.5q-278 0 -314 172q-90 -172 -368 -172q-200 0 -281 78t-57 225zM281 295q-19 -122 41 -181t223 -59q161 0 240 59t100 181l67 434q19 122 -41 181t-221 59q-163 0 -242.5 -59t-97.5 -181zM1008 551h585 l31 178q18 123 -39 181.5t-219 58.5t-236 -58t-94 -182z" />
<glyph unicode="&#x178;" horiz-adv-x="1310" d="M260 1384q-4 9 0 21q1 6 3 11t3 7l2 2q66 11 181 11q77 0 135.5 -3t77.5 -5l20 -3q7 1 -1 -32q-3 -10 -5 -9l-162 -12l254 -661l459 661l-156 12l-2 21l10 20q64 11 238 11q51 0 95.5 -3t63.5 -5l19 -3q2 -6 0 -20l-8 -21l-168 -14l-522 -729l-88 -578l159 -14 q7 0 -1 -32q-3 -10 -5 -9q-66 -10 -209 -10q-64 0 -115 2.5t-70 5.5l-19 2q-1 1 -2 2.5t-2 7t1 11.5q1 5 3 10t4 7l2 3l168 14l88 578l-289 729zM655 1540l29 193q17 6 37 6l37 -6l-31 -193q-19 -6 -39 -6q-9 0 -17 1.5t-12 2.5zM1071 1540l29 193q17 6 37 6q9 0 17.5 -1.5 t12.5 -3.5l4 -1l-30 -193q-17 -6 -35 -6q-10 0 -19 1.5t-13 2.5z" />
<glyph unicode="&#x2c6;" horiz-adv-x="393" d="M135 1204l244 226q22 6 45 6l41 -6l170 -226q-14 -8 -37 -8q-7 0 -16 2t-14 4l-5 2l-147 185l-209 -185q-17 -8 -35 -8q-9 0 -18 2t-14 4z" />
<glyph unicode="&#x2dc;" horiz-adv-x="806" d="M326 1272l2 10q7 51 25.5 84t54 51.5t88.5 18.5q38 0 67 -12t47 -29.5t34.5 -34.5t38.5 -29t50 -12q57 0 79 24.5t34 83.5q17 9 33 9q7 0 14 -2t11 -4l3 -3l-2 -8q-12 -78 -51.5 -115.5t-118.5 -37.5q-38 0 -67.5 12t-48 29t-35.5 34t-38.5 29t-47.5 12q-57 0 -79 -25.5 t-34 -84.5q-15 -6 -33 -6q-7 0 -13.5 1.5t-9.5 2.5z" />
<glyph unicode="&#x2000;" horiz-adv-x="915" />
<glyph unicode="&#x2001;" horiz-adv-x="1831" />
<glyph unicode="&#x2002;" horiz-adv-x="915" />
<glyph unicode="&#x2003;" horiz-adv-x="1831" />
<glyph unicode="&#x2004;" horiz-adv-x="610" />
<glyph unicode="&#x2005;" horiz-adv-x="457" />
<glyph unicode="&#x2006;" horiz-adv-x="305" />
<glyph unicode="&#x2007;" horiz-adv-x="305" />
<glyph unicode="&#x2008;" horiz-adv-x="228" />
<glyph unicode="&#x2009;" horiz-adv-x="366" />
<glyph unicode="&#x200a;" horiz-adv-x="101" />
<glyph unicode="&#x2010;" horiz-adv-x="622" d="M195 590q2 8 5.5 16t5.5 12l3 3h399q4 -13 0 -31q-1 -8 -3.5 -16t-4.5 -12l-2 -3h-399q-1 1 -2 4t-2 11t0 16z" />
<glyph unicode="&#x2011;" horiz-adv-x="622" d="M195 590q2 8 5.5 16t5.5 12l3 3h399q4 -13 0 -31q-1 -8 -3.5 -16t-4.5 -12l-2 -3h-399q-1 1 -2 4t-2 11t0 16z" />
<glyph unicode="&#x2012;" horiz-adv-x="622" d="M195 590q2 8 5.5 16t5.5 12l3 3h399q4 -13 0 -31q-1 -8 -3.5 -16t-4.5 -12l-2 -3h-399q-1 1 -2 4t-2 11t0 16z" />
<glyph unicode="&#x2013;" horiz-adv-x="1017" d="M195 590q2 8 5.5 16t5.5 12l3 3h795l2 -31q-2 -8 -5 -16t-5 -12l-3 -3h-794q-1 1 -2 4t-2 11t0 16z" />
<glyph unicode="&#x2014;" horiz-adv-x="1312" d="M195 590q2 8 5.5 16t5.5 12l3 3h1091q4 -13 0 -31q-1 -8 -3.5 -15.5t-4.5 -11.5l-2 -4h-1091q-1 1 -2 4t-2 11t0 16z" />
<glyph unicode="&#x2018;" horiz-adv-x="391" d="M328 1067q11 74 33 139t44.5 104.5t43 68t33.5 39.5l14 12q16 6 28 6q7 0 14 -1.5t10 -2.5l3 -2q-5 -4 -12.5 -13t-29 -41.5t-40.5 -71t-39 -102.5t-31 -135q-19 -8 -39 -8q-8 0 -16 2t-12 4z" />
<glyph unicode="&#x2019;" horiz-adv-x="391" d="M233 1067q5 4 12.5 13t29 41t40 70.5t39 102.5t31.5 136q19 6 39 6q9 0 17.5 -1.5t12.5 -2.5l5 -2q-12 -75 -34 -140t-44 -104t-43 -67.5t-34 -40.5l-13 -11q-17 -8 -31 -8q-7 0 -14 2t-10 4z" />
<glyph unicode="&#x201a;" horiz-adv-x="391" d="M35 -188q4 4 12 13t29 41t39.5 70t39 102t31.5 136q19 6 37 6l37 -6q-12 -75 -34 -140t-44 -104t-43 -67t-34 -39l-13 -12q-17 -9 -31 -9q-7 0 -13.5 2.5t-9.5 4.5z" />
<glyph unicode="&#x201c;" horiz-adv-x="606" d="M328 1067q11 74 33 139t44.5 104.5t43 68t33.5 39.5l14 12q16 6 28 6q7 0 14 -1.5t10 -2.5l3 -2q-5 -4 -12.5 -13t-29 -41.5t-40.5 -71t-39 -102.5t-31 -135q-19 -8 -39 -8q-8 0 -16 2t-12 4zM541 1067q11 74 33 139t45 104.5t44 68t35 39.5l13 12q14 6 28 6q7 0 14 -1.5 t10 -2.5l3 -2q-5 -4 -12.5 -13t-29.5 -41.5t-40.5 -71t-39.5 -102.5t-32 -135q-19 -8 -37 -8q-9 0 -17.5 2t-12.5 4z" />
<glyph unicode="&#x201d;" horiz-adv-x="606" d="M233 1067q5 4 12.5 13t29 41t40 70.5t39 102.5t31.5 136q19 6 39 6q9 0 17.5 -1.5t12.5 -2.5l5 -2q-12 -75 -34 -140t-44 -104t-43 -67.5t-34 -40.5l-13 -11q-17 -8 -31 -8q-7 0 -14 2t-10 4zM446 1067q5 4 12.5 13t29 41t40 70.5t39.5 102.5t33 136q19 6 37 6 q9 0 17.5 -1.5t13.5 -2.5l4 -2q-11 -75 -33 -140t-44.5 -104t-43 -67.5t-33.5 -40.5l-14 -11q-17 -8 -31 -8q-7 0 -14 2t-10 4z" />
<glyph unicode="&#x201e;" horiz-adv-x="606" d="M35 -188q4 4 12 13t29 41t39.5 70t39 102t31.5 136q19 6 37 6l37 -6q-12 -75 -34 -140t-44 -104t-43 -67t-34 -39l-13 -12q-17 -9 -31 -9q-7 0 -13.5 2.5t-9.5 4.5zM250 -188q4 4 12 13t29 41t39.5 70t39 102t31.5 136q17 6 37 6q9 0 17.5 -1.5t12.5 -2.5l5 -2 q-12 -75 -34 -140t-44 -104t-43 -67t-34 -39l-13 -12q-17 -9 -31 -9q-7 0 -13 2.5t-9 4.5z" />
<glyph unicode="&#x2022;" horiz-adv-x="598" d="M143 422q3 88 21 192q7 45 18 93.5t18 74.5l7 25q98 14 194 14q44 0 92 -3.5t75 -7.5l26 -3q-3 -91 -19 -193q-8 -44 -19.5 -92t-18.5 -74l-7 -26q-98 -14 -194 -14q-43 0 -91 3.5t-75 6.5z" />
<glyph unicode="&#x2026;" horiz-adv-x="1075" d="M158 4l26 172q20 6 45 6q11 0 22 -1.5t16 -2.5l5 -2l-26 -172q-25 -6 -45 -6q-11 0 -22 1.5t-16 2.5zM494 4l26 172q20 6 45 6l43 -6l-26 -172q-24 -6 -47 -6zM829 4l27 172q20 6 45 6l43 -6l-26 -172q-25 -6 -48 -6z" />
<glyph unicode="&#x202f;" horiz-adv-x="366" />
<glyph unicode="&#x2039;" horiz-adv-x="600" d="M193 553l399 354q14 -4 24 -16q5 -5 9 -12t5 -11l1 -4l-348 -311l249 -311q-6 -15 -22 -27q-6 -5 -14 -9l-12 -6l-5 -1z" />
<glyph unicode="&#x203a;" horiz-adv-x="600" d="M143 242l349 311l-250 311q8 15 22 27q7 5 15 9l12 6l4 1l287 -354l-400 -354q-1 -3 -12.5 7t-21 22t-5.5 14z" />
<glyph unicode="&#x205f;" horiz-adv-x="457" />
<glyph unicode="&#x20ac;" horiz-adv-x="1210" d="M158 582l12 30h113l30 205h-110q-4 13 0 31q1 8 4 16t5 12l3 3h111l39 254q24 152 142.5 230.5t356.5 78.5q88 0 163 -14t118.5 -34t74.5 -40.5t42 -34.5l12 -14q-8 -58 -19 -115t-19 -85l-7 -28q-11 -6 -25 -6q-6 0 -11.5 1.5t-8.5 3.5l-2 1l12 195q-4 4 -13 11t-40 25 t-67.5 32t-95.5 25t-124 11q-200 0 -291 -59t-112 -184l-39 -254h579l2 -31q-2 -8 -5.5 -15.5t-5.5 -11.5l-3 -4h-580l-30 -205h577q1 -1 1.5 -3.5t1.5 -10.5t-1 -16q-1 -8 -4 -16t-6 -12l-2 -3h-578l-39 -250q-20 -125 54 -184.5t278 -59.5q121 0 229.5 23.5t156.5 46.5 l48 23q1 -1 1.5 -4t1.5 -11.5t-1 -17.5q-1 -9 -4 -17t-5 -12l-3 -4q-6 -4 -17.5 -10t-51.5 -22t-86.5 -28t-122 -22t-156.5 -10q-243 0 -338.5 78.5t-69.5 230.5l39 250h-112z" />
<glyph unicode="&#x2122;" horiz-adv-x="1339" d="M297 1389q-7 -1 1 36q3 10 5 9h467q4 -9 0 -23l-6 -22h-199l-106 -670q-19 -4 -35 -4l-31 4l107 670h-203zM754 719l112 711q0 4 41 4l43 -4l142 -515l307 517q23 4 43 4l39 -4l-113 -713q-15 -4 -31 -4l-30 4l98 614l-295 -491q-15 -6 -31 -6q-7 0 -14 1.5t-11 2.5l-3 2 l-138 489l-96 -612q-17 -4 -31 -4z" />
<glyph unicode="&#x25fc;" horiz-adv-x="1024" d="M0 0v1024h1024v-1024h-1024z" />
</font>
</defs>
</svg>
