<?xml version="1.0" standalone="no"?>
<!DOCTYPE svg PUBLIC "-//W3C//DTD SVG 1.1//EN" "http://www.w3.org/Graphics/SVG/1.1/DTD/svg11.dtd" >
<svg xmlns="http://www.w3.org/2000/svg">
<metadata></metadata>
<defs>
<font id="pancetta_serif_prolight" horiz-adv-x="1464" >
<font-face units-per-em="2048" ascent="1536" descent="-512" />
<missing-glyph horiz-adv-x="464" />
<glyph unicode="&#xfb01;" horiz-adv-x="1155" d="M55 35q0 7 1.5 13.5t3.5 9.5l1 3l150 21v858l-150 18q-6 11 -6 27q0 7 1.5 14t3.5 10l1 3q50 10 150 10v143q0 138 65.5 207.5t215.5 69.5q67 0 159 -19q8 -20 8 -43q0 -10 -2 -20.5t-4 -15.5l-2 -5q-57 17 -123 17q-105 0 -146.5 -46t-41.5 -145v-141q177 4 520 4 q21 0 42 -2t32 -4l10 -2v-938l150 -21q6 -10 6 -26l-6 -27q-70 -12 -213 -12q-64 0 -117.5 3t-74.5 6l-21 3q-6 13 -6 27q0 7 1.5 13.5t2.5 9.5l2 3l147 21v860l-475 -4v-856l147 -21q7 -10 7 -26q0 -6 -2 -13t-4 -10l-1 -4q-68 -12 -213 -12q-64 0 -117 3t-75 6l-21 3 q-6 13 -6 27zM815 1225v205q31 8 66 8q15 0 30.5 -2t24.5 -4l8 -2v-205q-30 -8 -63 -8q-16 0 -32.5 2t-24.5 4z" />
<glyph unicode="&#xfb02;" horiz-adv-x="1155" d="M55 35q0 7 1.5 13.5t3.5 9.5l1 3l150 21v858l-150 18q-6 11 -6 27q0 7 1.5 14t3.5 10l1 3q50 10 150 10v143q0 277 295 277q94 0 168 -17q65 13 186 13q21 0 42 -2t32 -4l10 -2v-1348l150 -21q6 -10 6 -26l-6 -27q-70 -12 -213 -12q-64 0 -117.5 3t-74.5 6l-21 3 q-6 13 -6 27q0 7 1.5 13.5t2.5 9.5l2 3l147 21v1266l-235 20q-240 0 -240 -203v-141h311q8 -16 8 -43q0 -11 -2 -22t-4 -16l-2 -5h-311v-856l147 -21q7 -10 7 -26q0 -6 -2 -13t-4 -10l-1 -4q-68 -12 -213 -12q-64 0 -117 3t-75 6l-21 3q-6 13 -6 27z" />
<glyph unicode="&#xfb03;" horiz-adv-x="1761" d="M55 35q0 7 1.5 13.5t3.5 9.5l1 3l150 21v858l-150 18q-6 11 -6 27q0 7 1.5 14t3.5 10l1 3q50 10 150 10v143q0 138 65.5 207.5t215.5 69.5q67 0 159 -19q8 -20 8 -43q0 -10 -2 -20.5t-4 -15.5l-2 -5q-57 17 -123 17q-105 0 -146.5 -46t-41.5 -145v-141h475v141 q0 137 66 207t215 70q69 0 161 -19q9 -20 9 -43q0 -10 -2 -20.5t-4 -15.5l-3 -5q-57 17 -122 17q-105 0 -148 -46t-43 -145v-141q199 4 520 4q21 0 42.5 -2t32.5 -4l11 -2v-938l148 -21q6 -10 6 -26l-6 -27q-68 -12 -213 -12q-64 0 -116.5 3t-73.5 6l-21 3q-8 13 -8 27 q0 7 2 13.5t4 9.5l2 3l147 21v860l-477 -4v-856l150 -21q6 -10 6 -26l-6 -27q-70 -12 -213 -12q-64 0 -117.5 3t-74.5 6l-21 3q-6 13 -6 27q0 7 1.5 13.5t2.5 9.5l2 3l147 21v856h-475v-856l147 -21q7 -10 7 -26q0 -6 -2 -13t-4 -10l-1 -4q-68 -12 -213 -12q-64 0 -117 3 t-75 6l-21 3q-6 13 -6 27zM1421 1225v205q31 8 64 8q16 0 32 -2t25 -4l8 -2v-205q-32 -8 -65 -8q-15 0 -31 2t-24 4z" />
<glyph unicode="&#xfb04;" horiz-adv-x="1761" d="M55 35q0 7 1.5 13.5t3.5 9.5l1 3l150 21v858l-150 18q-6 11 -6 27q0 7 1.5 14t3.5 10l1 3q50 10 150 10v143q0 138 65.5 207.5t215.5 69.5q67 0 159 -19q8 -20 8 -43q0 -10 -2 -20.5t-4 -15.5l-2 -5q-57 17 -123 17q-105 0 -146.5 -46t-41.5 -145v-141h475v141 q0 277 297 277q89 0 168 -17q65 13 184 13q21 0 42.5 -2t32.5 -4l11 -2v-1348l148 -21q6 -10 6 -26l-6 -27q-68 -12 -213 -12q-64 0 -116.5 3t-73.5 6l-21 3q-8 13 -8 27q0 7 2 13.5t4 9.5l2 3l147 21v1266l-237 20q-240 0 -240 -203v-141h313q9 -16 9 -43q0 -11 -2 -22 t-4 -16l-3 -5h-313v-856l150 -21q6 -10 6 -26l-6 -27q-70 -12 -213 -12q-64 0 -117.5 3t-74.5 6l-21 3q-6 13 -6 27q0 7 1.5 13.5t2.5 9.5l2 3l147 21v856h-475v-856l147 -21q7 -10 7 -26q0 -6 -2 -13t-4 -10l-1 -4q-68 -12 -213 -12q-64 0 -117 3t-75 6l-21 3q-6 13 -6 27z " />
<glyph horiz-adv-x="2048" />
<glyph horiz-adv-x="2048" />
<glyph unicode="&#xd;" horiz-adv-x="2048" />
<glyph unicode=" "  horiz-adv-x="464" />
<glyph unicode="&#x09;" horiz-adv-x="464" />
<glyph unicode="&#xa0;" horiz-adv-x="464" />
<glyph unicode="!" horiz-adv-x="423" d="M143 4v189q33 10 68 10q16 0 33 -2.5t26 -4.5l9 -3v-189q-33 -8 -68 -8q-16 0 -33 2t-26 4zM147 424v1006q31 8 64 8q16 0 32 -2t25 -4l8 -2v-1006q-32 -8 -65 -8q-15 0 -31 2t-24 4z" />
<glyph unicode="&#x22;" horiz-adv-x="622" d="M141 1430q25 8 52 8q12 0 25 -2t20 -4l6 -2l-8 -410q-23 -10 -43 -10q-10 0 -21 2.5t-16 5.5l-6 2zM379 1430q24 8 51 8q12 0 25 -2t19 -4l7 -2l-8 -410q-20 -10 -43 -10q-10 0 -21 2.5t-17 5.5l-5 2z" />
<glyph unicode="#" horiz-adv-x="1126" d="M90 430q0 12 2 23t4 15l2 5h140l41 488h-132q-8 16 -8 43q0 12 2 22.5t4 15.5l2 5h140l35 383q24 8 53 8q13 0 26 -2t20 -4l7 -2l-33 -383h383l35 383q24 8 53 8q13 0 26.5 -2t20.5 -4l7 -2l-33 -383h139q8 -16 8 -43q0 -12 -2 -23t-4 -15l-2 -5h-147l-43 -488h143 q8 -16 8 -43q0 -12 -2 -22.5t-4 -15.5l-2 -5h-150l-32 -383q-27 -8 -54 -8q-13 0 -26 2t-20 4l-7 2l33 383h-385l-33 -383q-26 -8 -53 -8q-13 0 -26 2t-20 4l-7 2l32 383h-133q-8 16 -8 43zM344 473h385l41 488h-383z" />
<glyph unicode="$" horiz-adv-x="1177" d="M125 127q0 63 3 123.5t6 89.5l3 29q16 6 39 6q10 0 20 -1.5t14 -3.5l5 -1l23 -191q5 -4 14.5 -10.5t43 -23t71 -29t97.5 -23t124 -10.5q180 0 253.5 56t73.5 179v105q0 69 -42.5 117.5t-110 76.5t-149.5 50t-164 47.5t-149.5 59.5t-110 94.5t-42.5 144.5v104 q0 152 91.5 233t300.5 91v194q24 8 53 8q13 0 26 -2t20 -4l7 -2v-194q76 -3 142 -17.5t106.5 -33.5t70.5 -38t42 -31l12 -13q0 -63 -3 -123.5t-6 -89.5l-3 -29q-16 -6 -39 -6q-10 0 -20 1.5t-15 3.5l-4 1l-21 190q-4 4 -12.5 10.5t-38 23t-62.5 29.5t-86 23.5t-110 10.5 q-172 0 -243.5 -57t-71.5 -179v-104q0 -64 42.5 -110t110 -72t149.5 -48t164 -48.5t149.5 -62t110 -99t42.5 -150.5v-105q0 -153 -96.5 -234.5t-309.5 -88.5v-195q-26 -8 -53 -8q-13 0 -26 2t-20 4l-7 2v195q-84 3 -158 17.5t-118.5 33.5t-77.5 38t-47 31z" />
<glyph unicode="%" horiz-adv-x="1554" d="M119 1010v209q0 109 68.5 165t218.5 56q152 0 221 -56t69 -165v-209q0 -109 -69 -165.5t-221 -56.5q-150 0 -218.5 56.5t-68.5 165.5zM219 1010q0 -80 43.5 -118t143.5 -38q102 0 145 38t43 118v209q0 80 -43 117.5t-145 37.5q-101 0 -144 -37.5t-43 -117.5v-209zM252 4 l934 1426q24 8 59 8q14 0 29 -2t23 -4l8 -2l-934 -1426q-33 -8 -60 -8q-16 0 -30.5 2t-21.5 4zM858 215v209q0 109 69 165t220 56q152 0 220.5 -56t68.5 -165v-209q0 -109 -68.5 -165t-220.5 -56q-151 0 -220 56t-69 165zM961 215q0 -80 43 -118t143 -38q101 0 144.5 38 t43.5 118v209q0 80 -43.5 118t-144.5 38q-100 0 -143 -38t-43 -118v-209z" />
<glyph unicode="&#x26;" horiz-adv-x="1466" d="M111 334v106q0 238 254 297q-226 59 -226 289v82q0 164 104.5 249t331.5 85q159 0 257 -38.5t138 -107t40 -172.5v-100h307q8 -16 8 -43q0 -11 -2 -22t-4 -16l-2 -5h-307v-670q0 -99 42.5 -144.5t147.5 -45.5q56 0 117 18q8 -18 8 -41q0 -9 -2 -18.5t-4 -14.5l-2 -6 q-87 -24 -150 -24q-149 0 -209 78q-3 -1 -22 -9.5t-49 -19.5t-71 -22.5t-101.5 -19t-126.5 -7.5q-477 0 -477 342zM242 334q0 -133 78.5 -194.5t267.5 -61.5q179 0 323 67q-18 45 -18 123v856q0 121 -71 176.5t-247 55.5q-166 0 -236.5 -60t-70.5 -188v-82q0 -128 72.5 -188 t241.5 -60h104q8 -18 8 -43q0 -12 -2 -22.5t-4 -15.5l-2 -5h-104q-184 0 -262 -61t-78 -191v-106z" />
<glyph unicode="'" horiz-adv-x="385" d="M141 1430q25 8 52 8q12 0 25 -2t20 -4l6 -2l-8 -410q-23 -10 -43 -10q-10 0 -21 2.5t-16 5.5l-6 2z" />
<glyph unicode="(" horiz-adv-x="598" d="M147 6v1221q0 154 85 232.5t272 78.5q8 -16 8 -43q0 -11 -2 -21.5t-4 -15.5l-2 -4q-127 0 -181.5 -55t-54.5 -172v-1221q0 -117 54.5 -172t181.5 -55q8 -16 8 -43q0 -11 -2 -22t-4 -16l-2 -5q-187 0 -272 79.5t-85 233.5z" />
<glyph unicode=")" horiz-adv-x="598" d="M86 -264q0 12 2.5 23t5.5 15l2 5q127 0 180.5 55t53.5 172v1221q0 117 -53.5 172t-180.5 55q-10 16 -10 41q0 12 2.5 22.5t5.5 15.5l2 5q186 0 270.5 -78.5t84.5 -232.5v-1221q0 -154 -85 -233.5t-270 -79.5q-10 18 -10 43z" />
<glyph unicode="*" horiz-adv-x="997" d="M96 1100q-2 24 6 49q4 11 10 22t10 16l5 5l326 -113l-4 351q22 8 49 8q12 0 25 -2t19 -4l7 -2l-4 -351l325 113q17 -16 25 -41q2 -7 3.5 -14.5t2 -13.5t0.5 -11v-8v-2l-330 -105l209 -278q-17 -21 -37 -35q-9 -7 -20 -12.5t-18 -7.5l-7 -2l-200 286l-199 -286 q-22 6 -45 20q-10 7 -19.5 16.5t-13.5 15.5l-4 5l207 278z" />
<glyph unicode="+" horiz-adv-x="866" d="M94 614q0 12 2 23t4 15l2 5h283v287q20 8 47 8q13 0 24.5 -2t17.5 -4l5 -2v-287h285q8 -16 8 -43q0 -12 -2 -22.5t-4 -15.5l-2 -5h-285v-286q-18 -9 -47 -9q-12 0 -23.5 2t-17.5 4l-6 3v286h-283q-8 16 -8 43z" />
<glyph unicode="," horiz-adv-x="417" d="M51 -199q4 5 10 15t22.5 45.5t29 77t22.5 110t10 144.5q31 10 64 10q15 0 30.5 -2.5t24.5 -4.5l8 -3q0 -79 -14 -148.5t-34 -112.5t-40.5 -74t-34.5 -44l-14 -13q-21 -8 -41 -8q-11 0 -22 2t-16 4z" />
<glyph unicode="-" horiz-adv-x="622" d="M94 586q0 12 2 23t4 15l2 5h418q8 -16 8 -43q0 -11 -2 -22t-4 -16l-2 -5h-418q-8 18 -8 43z" />
<glyph unicode="." horiz-adv-x="417" d="M143 4v189q31 10 66 10q15 0 31 -2.5t25 -4.5l9 -3v-189q-32 -8 -65 -8q-16 0 -32.5 2t-24.5 4z" />
<glyph unicode="/" horiz-adv-x="817" d="M90 4l512 1426q29 8 64 8q15 0 30.5 -2t23.5 -4l9 -2l-512 -1426q-32 -8 -63 -8q-15 0 -31 2t-25 4z" />
<glyph unicode="0" horiz-adv-x="1173" d="M137 303v827q0 153 107.5 232.5t341.5 79.5q236 0 343 -79.5t107 -232.5v-827q0 -153 -107 -232t-343 -79q-235 0 -342 79t-107 232zM266 303q0 -116 73 -170.5t247 -54.5t246.5 54.5t72.5 170.5v827q0 116 -72.5 171t-246.5 55t-247 -55t-73 -171v-827z" />
<glyph unicode="1" horiz-adv-x="811" d="M104 1292q0 10 2 19.5t4 13.5l1 4l284 109q23 0 47 -2t37 -4l13 -2v-1348l215 -21q6 -10 6 -26l-6 -27q-91 -12 -281 -12q-84 0 -154 3t-98 6l-27 3q-6 13 -6 27q0 7 1.5 13.5t3.5 9.5l1 3l215 21v1249l-251 -71q-7 12 -7 32z" />
<glyph unicode="2" horiz-adv-x="1128" d="M129 12v183q0 107 40.5 187.5t105 129t142 86.5t155.5 73t142.5 76t105 108t40.5 157v104q0 124 -69.5 182t-237.5 58q-57 0 -110.5 -10.5t-88 -25t-61.5 -29.5t-39 -25l-12 -11l-21 -190q-16 -6 -39 -6q-10 0 -20 1.5t-14 3.5l-5 1q-12 101 -12 242l14.5 14.5t46 32.5 t81 41t120 32.5t160.5 14.5q232 0 334 -81.5t102 -244.5v-104q0 -83 -25 -149t-67.5 -110t-97.5 -79.5t-116 -62.5t-121.5 -54t-115.5 -59t-97.5 -71.5t-67.5 -98.5t-25 -133v-109h655l23 162q11 6 29 6q7 0 13.5 -1.5t9.5 -2.5l3 -2q12 -54 12 -189q0 -16 -2 -30.5 t-4 -21.5l-2 -7h-463q-108 0 -208 3t-146 6z" />
<glyph unicode="3" horiz-adv-x="1114" d="M111 125q0 12 2.5 22.5t4.5 15.5l3 5q6 -4 18 -10t52.5 -21.5t85 -27.5t115.5 -21.5t145 -9.5q186 0 265 62t79 194v137q0 134 -84.5 195t-280.5 61h-115q-8 16 -8 43q0 12 2 23t4 17l2 5l422 531h-602l-22 -160q-13 -6 -29 -6l-29 6q-10 53 -10 188q0 16 2 31t4 22l2 7 h830q8 -16 8 -43q0 -11 -2 -22t-4 -16l-2 -5l-434 -537q117 0 203 -18t137.5 -47t82.5 -74.5t41.5 -92.5t10.5 -108v-137q0 -167 -112.5 -254.5t-358.5 -87.5q-79 0 -151.5 9t-119 22t-81.5 26t-51 22l-15 9q-10 18 -10 45z" />
<glyph unicode="4" horiz-adv-x="1110" d="M111 395l399 1035q24 6 63 6q17 0 34 -1.5t25 -2.5l9 -2l-383 -990h506v580q28 8 61 8q15 0 30.5 -2t23.5 -4l8 -2v-578l153 -16q7 -15 7 -35q0 -8 -1.5 -16t-3.5 -13l-2 -4q-45 -8 -149 -8v-346q-33 -8 -64 -8q-16 0 -32 2t-25 4l-8 2v348h-641q-10 16 -10 43z" />
<glyph unicode="5" horiz-adv-x="1110" d="M96 125q0 12 2.5 22.5t5.5 15.5l2 5q6 -4 18 -10t52 -21.5t84.5 -27.5t116 -21.5t145.5 -9.5q177 0 251.5 61.5t74.5 194.5v158q0 131 -74 192t-250 61h-354q-8 19 -8 46l33 630q159 13 401 13h295q8 -25 8 -60q0 -60 -3 -107t-6 -64l-3 -17q-11 -6 -29 -6q-7 0 -14 1.5 t-10 2.5l-3 2l-24 162h-500l-24 -512h241q108 0 188 -17t130 -46.5t81 -74t42.5 -94t11.5 -112.5v-158q0 -167 -108 -254.5t-345 -87.5q-79 0 -151.5 9t-119 22t-81.5 26t-50 22l-16 9q-10 18 -10 45z" />
<glyph unicode="6" horiz-adv-x="1165" d="M143 303v778q0 175 108 267t351 92q102 0 191 -13t127 -25l38 -13q9 -16 9 -41q0 -13 -2.5 -24t-4.5 -16l-2 -5q-15 6 -44 15t-123.5 23.5t-194.5 14.5q-177 0 -249.5 -67t-72.5 -206v-292q6 4 17 11t50.5 24.5t83.5 31t115.5 24.5t147.5 11q182 0 261 -78t79 -233v-279 q0 -153 -105.5 -232t-336.5 -79t-337 79t-106 232zM274 303q0 -116 71.5 -170.5t240.5 -54.5t241 54.5t72 170.5v279q0 118 -55 172.5t-191 54.5q-77 0 -144.5 -11.5t-108.5 -28t-71 -33.5t-43 -28l-12 -12v-393z" />
<glyph unicode="7" horiz-adv-x="1064" d="M96 1374q0 16 2 31t4 22l2 7h857q8 -16 8 -43l-539 -1387q-26 -8 -65 -8q-18 0 -36 2t-27 4l-9 2l530 1342h-637l-22 -160q-11 -6 -27 -6q-8 0 -15 1.5t-10 2.5l-3 2q-13 53 -13 188z" />
<glyph unicode="8" horiz-adv-x="1171" d="M133 303v162q0 216 223 274q-192 58 -192 267v124q0 153 100.5 232.5t321.5 79.5t321.5 -79.5t100.5 -232.5v-124q0 -208 -193 -267q223 -58 223 -274v-162q0 -153 -107.5 -232t-344.5 -79t-345 79t-108 232zM264 303q0 -116 73.5 -170.5t248.5 -54.5t249 54.5t74 170.5 v162q0 117 -73.5 172t-249.5 55q-175 0 -248.5 -55t-73.5 -172v-162zM295 1006q0 -118 66.5 -173t224.5 -55q159 0 226 55.5t67 172.5v124q0 116 -67 171t-226 55q-158 0 -224.5 -55t-66.5 -171v-124z" />
<glyph unicode="9" horiz-adv-x="1165" d="M137 879v249q0 154 105 233t338 79q231 0 335.5 -79t104.5 -233v-778q0 -175 -107.5 -266.5t-349.5 -91.5q-101 0 -191.5 12.5t-130.5 25.5l-40 13q-8 16 -8 43q0 12 2 23t4 15l2 5q16 -6 46.5 -14.5t126.5 -22.5t195 -14q177 0 249.5 66t72.5 204v322q-6 -4 -17 -11 t-50.5 -25t-83.5 -31.5t-115.5 -24.5t-147.5 -11q-181 0 -260.5 78.5t-79.5 233.5zM266 879q0 -118 55.5 -173t190.5 -55q77 0 144.5 11.5t108.5 28t71 33.5t42 28l13 12v364q0 117 -71 172.5t-240 55.5t-241.5 -55.5t-72.5 -172.5v-249z" />
<glyph unicode=":" horiz-adv-x="417" d="M143 4v189q31 10 66 10q15 0 31 -2.5t25 -4.5l9 -3v-189q-32 -8 -65 -8q-16 0 -32.5 2t-24.5 4zM143 831v189q31 8 66 8q15 0 31 -2t25 -4l9 -2v-189q-32 -10 -65 -10q-16 0 -32.5 2.5t-24.5 4.5z" />
<glyph unicode=";" horiz-adv-x="417" d="M51 -199q4 5 10 15t22.5 45.5t29 77t22.5 110t10 144.5q31 10 64 10q15 0 30.5 -2.5t24.5 -4.5l8 -3q0 -79 -14 -148.5t-34 -112.5t-40.5 -74t-34.5 -44l-14 -13q-21 -8 -41 -8q-11 0 -22 2t-16 4zM143 831v189q31 8 66 8q15 0 31 -2t25 -4l9 -2v-189q-32 -10 -65 -10 q-16 0 -32.5 2.5t-24.5 4.5z" />
<glyph unicode="&#x3c;" horiz-adv-x="952" d="M94 647l735 393q11 -26 11 -53q0 -11 -3 -24t-5 -20l-3 -7l-544 -289l544 -287q11 -26 11 -51q0 -12 -3 -24.5t-5 -19.5l-3 -7z" />
<glyph unicode="=" horiz-adv-x="907" d="M92 455q0 12 2 22.5t4 15.5l2 5h703q8 -16 8 -43q0 -12 -2 -22.5t-4 -15.5l-2 -5h-703q-8 16 -8 43zM94 842q0 12 2 23t4 15l2 5h703q8 -16 8 -43q0 -11 -2 -22t-4 -16l-2 -5h-703q-8 18 -8 43z" />
<glyph unicode="&#x3e;" horiz-adv-x="952" d="M111 309q0 11 2.5 24t4.5 20l3 7l547 289l-547 287q-10 26 -10 51q0 12 2.5 25.5t4.5 20.5l3 7l735 -391l-735 -391q-10 26 -10 51z" />
<glyph unicode="?" horiz-adv-x="1054" d="M119 1307q4 5 13 14.5t43 32.5t75 41t111.5 32.5t150.5 14.5q222 0 320 -82t98 -244v-104q0 -62 -19.5 -109t-51 -76t-69.5 -52.5t-75.5 -45t-69 -46.5t-51 -64t-19.5 -91v-104q-32 -8 -63 -8q-16 0 -32.5 2t-25.5 4l-8 2v104q0 63 19.5 111.5t51 78t69 53t75.5 45 t69.5 45.5t51 62.5t19.5 88.5v104q0 124 -65.5 182t-223.5 58q-51 0 -98.5 -10t-79.5 -24t-56 -28t-36 -24l-11 -10l-22 -195q-16 -6 -39 -6q-10 0 -19.5 1.5t-13.5 3.5l-4 1q-14 101 -14 242zM442 4v189q33 10 70 10q16 0 33 -2.5t26 -4.5l9 -3v-189q-35 -8 -68 -8 q-16 0 -33.5 2t-26.5 4z" />
<glyph unicode="@" horiz-adv-x="1443" d="M133 -23v685q0 120 58.5 200t196 125t355.5 45q260 0 376 -87t116 -259v-604l147 -21q7 -10 7 -26q0 -6 -1.5 -13t-3.5 -10l-2 -4q-61 -12 -192 -12q-21 0 -42.5 2t-32.5 4l-11 2v109q-5 -5 -15 -13t-45.5 -29t-75.5 -37t-105 -29t-134 -13q-146 0 -211 67t-65 199v43 q0 123 84.5 187.5t279.5 86.5l287 33v78q0 135 -81.5 197.5t-279.5 62.5q-182 0 -287.5 -31.5t-148.5 -92t-43 -160.5v-685q0 -117 40.5 -183t135.5 -96t265 -30q90 0 175.5 9.5t143 22.5t102 26t65.5 22l21 10q11 -16 11 -43q0 -12 -2.5 -23.5t-5.5 -16.5l-3 -5 q-7 -4 -20 -9.5t-60 -21t-101 -27t-141.5 -21t-182.5 -9.5q-309 0 -441.5 95.5t-132.5 299.5zM582 258q0 -93 43 -136.5t147 -43.5q49 0 94 7t77.5 18.5t60.5 25t46 27.5t30.5 25.5t17.5 18.5l6 7v317l-268 -30q-139 -17 -196.5 -63t-57.5 -130v-43z" />
<glyph unicode="A" d="M33 37q0 9 1.5 16.5t3.5 10.5l1 4l160 16l417 1266l-159 16q-6 11 -6 31q0 7 1.5 14t3.5 11l1 3q88 13 276 13q22 0 44.5 -2t34.5 -4l11 -2l443 -1346l159 -16q7 -11 7 -31q0 -7 -2 -14.5t-4 -10.5l-1 -4q-71 -12 -200 -12q-81 0 -145.5 3t-88.5 6l-24 3q-6 13 -6 29 q0 9 1.5 16.5t3.5 10.5l1 4l166 16l-113 346h-576l-114 -346l168 -16q6 -11 6 -31l-6 -29q-74 -12 -256 -12q-58 0 -109 3t-73 6l-21 3q-6 13 -6 29zM469 522h526l-262 803z" />
<glyph unicode="B" horiz-adv-x="1282" d="M59 37q0 8 2 15.5t3 10.5l2 3l165 16v1270l-165 16q-7 11 -7 29q0 8 2 15t3 10l2 3q224 15 610 15q231 0 336.5 -84t105.5 -248v-82q0 -231 -225 -289q254 -59 254 -297v-106q0 -167 -112.5 -253.5t-358.5 -86.5q-172 0 -324.5 3.5t-219.5 6.5l-66 4q-7 11 -7 29zM365 82 h311q182 0 259 60.5t77 191.5v106q0 128 -77.5 190t-258.5 62h-311v-610zM365 780h311q166 0 236.5 59.5t70.5 186.5v82q0 125 -70.5 184.5t-236.5 59.5h-311v-572z" />
<glyph unicode="C" horiz-adv-x="1196" d="M137 317v799q0 162 111.5 244t365.5 82q92 0 172.5 -14t129.5 -34t85 -39.5t51 -33.5l15 -14q0 -63 -3.5 -123.5t-7.5 -89.5l-3 -29q-14 -6 -39 -6q-10 0 -19.5 1.5t-13.5 3.5l-4 1l-23 190q-5 4 -14.5 10.5t-41.5 23t-68.5 29.5t-95 23.5t-120.5 10.5 q-189 0 -265.5 -56.5t-76.5 -179.5v-799q0 -123 79 -179t276 -56q76 0 148 9.5t120.5 22.5t86.5 27t55.5 23t17.5 10q10 -18 10 -47q0 -13 -2.5 -24.5t-4.5 -16.5l-3 -6q-6 -4 -17 -9.5t-50.5 -21t-85 -27t-120 -21t-155.5 -9.5q-260 0 -375 82t-115 243z" />
<glyph unicode="D" horiz-adv-x="1290" d="M59 37q0 8 2 15.5t3 10.5l2 3l165 16v1270l-165 16q-7 11 -7 29q0 8 2 15t3 10l2 3q171 15 596 15q257 0 374 -82t117 -242v-799q0 -160 -117 -241.5t-374 -81.5q-173 0 -322 3.5t-212 6.5l-62 4q-7 11 -7 29zM365 82h297q193 0 274.5 56.5t81.5 178.5v799 q0 122 -81.5 179t-274.5 57h-297v-1270z" />
<glyph unicode="E" horiz-adv-x="1138" d="M59 37q0 9 2 16.5t3 10.5l2 4l165 16v1266l-165 16q-7 11 -7 31q0 7 2 14t3 11l2 3q226 9 565 9h411q9 -27 9 -64q0 -72 -2.5 -128t-5.5 -76l-3 -19q-12 -6 -28 -6l-29 6l-27 196h-591v-561h550q9 -18 9 -45q0 -12 -2 -23.5t-4 -16.5l-3 -5h-550v-602h602l26 197 q13 6 29 6l29 -6q10 -62 10 -224q0 -16 -2 -32t-4 -23l-2 -8h-422q-151 0 -292.5 2t-206.5 4l-66 2q-7 13 -7 29z" />
<glyph unicode="F" horiz-adv-x="1107" d="M59 37q0 9 2 16.5t3 10.5l2 4l165 16v1266l-165 16q-7 11 -7 31q0 7 2 14t3 11l2 3q226 9 565 9h393q8 -27 8 -64q0 -72 -2.5 -128t-5.5 -76l-2 -19q-13 -6 -31 -6q-7 0 -13.5 1.5t-9.5 3.5l-3 1l-27 196h-573v-561h544q9 -18 9 -45q0 -12 -2 -23.5t-4 -16.5l-3 -5h-544 v-608l165 -16q7 -11 7 -31q0 -7 -1.5 -14.5t-3.5 -10.5l-2 -4q-73 -12 -233 -12q-70 0 -128 3t-81 6l-22 3q-7 13 -7 29z" />
<glyph unicode="G" horiz-adv-x="1226" d="M137 317v799q0 161 112.5 243.5t366.5 82.5q92 0 173 -14t130.5 -34t85.5 -39.5t51 -33.5l15 -14q0 -63 -3 -123.5t-6 -89.5l-3 -29q-16 -6 -39 -6q-10 0 -20 1.5t-14 3.5l-5 1l-20 190q-5 4 -14.5 10.5t-43 23t-70.5 29.5t-96 23.5t-121 10.5q-191 0 -267.5 -56.5 t-76.5 -179.5v-799q0 -122 79 -178.5t265 -56.5q94 0 179 15t123 31l38 15v508h-313q-8 16 -8 45q0 12 2 23t4 17l2 5h94q94 0 181.5 -3.5t127.5 -7.5l41 -3v-647q-8 -3 -22 -9t-62 -21t-99.5 -26t-130 -20.5t-157.5 -9.5q-251 0 -365 81.5t-114 241.5z" />
<glyph unicode="H" horiz-adv-x="1423" d="M59 37q0 9 2 16.5t3 10.5l2 4l165 16v1266l-165 16q-7 11 -7 31q0 7 2 14t3 11l2 3q73 13 231 13q71 0 129.5 -3t81.5 -7l22 -3q7 -12 7 -28q0 -9 -1.5 -16.5t-3.5 -10.5l-2 -4l-165 -16v-570h692v570l-166 16q-6 11 -6 31q0 7 1.5 14t3.5 11l1 3q75 13 233 13 q71 0 129.5 -3t81.5 -7l23 -3q6 -12 6 -28q0 -9 -1.5 -16.5t-2.5 -10.5l-2 -4l-166 -16v-1266l166 -16q6 -11 6 -31l-6 -29q-74 -12 -234 -12q-70 0 -128.5 3t-81.5 6l-23 3q-6 13 -6 29q0 9 1.5 16.5t3.5 10.5l1 4l166 16v606h-692v-606l165 -16q7 -11 7 -31 q0 -7 -1.5 -14.5t-3.5 -10.5l-2 -4q-73 -12 -233 -12q-70 0 -128 3t-81 6l-22 3q-7 13 -7 29z" />
<glyph unicode="I" horiz-adv-x="595" d="M59 37q0 9 2 16.5t3 10.5l2 4l165 16v1266l-165 16q-7 11 -7 31q0 7 2 14t3 11l2 3q73 13 231 13q71 0 129.5 -3t81.5 -7l22 -3q7 -12 7 -28q0 -9 -1.5 -16.5t-3.5 -10.5l-2 -4l-165 -16v-1266l165 -16q7 -11 7 -31q0 -7 -1.5 -14.5t-3.5 -10.5l-2 -4q-73 -12 -233 -12 q-70 0 -128 3t-81 6l-22 3q-7 13 -7 29z" />
<glyph unicode="J" horiz-adv-x="970" d="M41 127q0 13 2.5 24.5t4.5 16.5l3 6q0 -4 32.5 -24.5t108 -44t162.5 -23.5q139 0 195.5 56.5t56.5 178.5v1033l-166 16q-6 11 -6 31q0 7 1.5 14t2.5 11l2 3q74 13 234 13q70 0 128 -3t80 -7l23 -3q6 -12 6 -28q0 -9 -1.5 -16.5t-3.5 -10.5l-1 -4l-166 -16v-1033 q0 -162 -90 -243.5t-295 -81.5q-57 0 -109.5 9t-86 22t-59 26t-37.5 22l-11 9q-10 18 -10 47z" />
<glyph unicode="K" horiz-adv-x="1298" d="M59 37q0 9 2 16.5t3 10.5l2 4l165 16v1266l-165 16q-7 11 -7 31q0 7 2 14t3 11l2 3q73 13 231 13q71 0 129.5 -3t81.5 -7l22 -3q7 -12 7 -28q0 -9 -1.5 -16.5t-3.5 -10.5l-2 -4l-165 -16v-609l184 52l373 561l-138 12q-6 11 -6 31q0 7 1.5 14t2.5 11l2 3q76 13 258 13 q50 0 97.5 -3t69.5 -7l22 -3q6 -12 6 -28q0 -9 -1.5 -16.5t-3.5 -10.5l-1 -4l-166 -16l-399 -605l419 -661l166 -16q6 -11 6 -31l-6 -29q-75 -12 -192 -12q-83 0 -148 3t-89 6l-23 3q-6 13 -6 29q0 9 1.5 16.5t3.5 10.5l1 4l143 12l-393 616l-184 -49v-563l165 -16 q7 -11 7 -31q0 -7 -1.5 -14.5t-3.5 -10.5l-2 -4q-73 -12 -233 -12q-70 0 -128 3t-81 6l-22 3q-7 13 -7 29z" />
<glyph unicode="L" horiz-adv-x="1091" d="M59 37q0 9 2 16.5t3 10.5l2 4l165 16v1266l-165 16q-7 11 -7 31q0 7 2 14t3 11l2 3q73 13 231 13q71 0 129.5 -3t81.5 -7l22 -3q7 -12 7 -28q0 -9 -1.5 -16.5t-3.5 -10.5l-2 -4l-165 -16v-1260h555l26 197q13 6 29 6l29 -6q10 -62 10 -224q0 -16 -2 -32t-4 -23l-2 -8 h-375q-151 0 -292.5 2t-206.5 4l-66 2q-7 13 -7 29z" />
<glyph unicode="M" horiz-adv-x="1732" d="M59 37q0 9 2 16.5t3 10.5l2 4l165 16v1266l-165 16q-7 11 -7 31q0 7 2 14t3 11l2 3q73 13 239 13q24 0 48 -2t36 -4l12 -2l463 -1035l467 1035q41 8 86 8q76 0 139 -3t88 -7l25 -3q6 -12 6 -28q0 -9 -1.5 -16.5t-3.5 -10.5l-1 -4l-166 -16v-1266l166 -16q6 -11 6 -31 l-6 -29q-75 -12 -231 -12q-69 0 -126.5 3t-80.5 6l-23 3q-6 13 -6 29q0 9 1.5 16.5t2.5 10.5l2 4l166 16v1147l-446 -983q-29 -10 -64 -10q-16 0 -31.5 2.5t-23.5 5.5l-8 2l-441 983v-1147l166 -16q6 -11 6 -31l-6 -29q-75 -12 -231 -12q-69 0 -126.5 3t-80.5 6l-22 3 q-7 13 -7 29z" />
<glyph unicode="N" horiz-adv-x="1439" d="M59 37q0 9 2 16.5t3 10.5l2 4l165 16v1266l-165 16q-7 11 -7 31q0 7 2 14t3 11l2 3q71 13 223 13q15 0 29.5 -2t21.5 -4l8 -2l731 -1197v1117l-166 16q-6 11 -6 31q0 7 1.5 14t3.5 11l1 3q76 13 232 13q69 0 126.5 -3t80.5 -7l22 -3q6 -12 6 -28q0 -9 -1.5 -16.5 t-2.5 -10.5l-2 -4l-166 -16v-1346q-26 -8 -59 -8q-13 0 -27.5 2t-23.5 4l-8 2l-730 1196v-1116l166 -16q6 -11 6 -31l-6 -29q-75 -12 -231 -12q-69 0 -126.5 3t-80.5 6l-22 3q-7 13 -7 29z" />
<glyph unicode="O" horiz-adv-x="1253" d="M137 317v799q0 160 117.5 243t372.5 83q257 0 374 -83t117 -243v-799q0 -160 -117 -242.5t-374 -82.5q-256 0 -373 82.5t-117 242.5zM272 317q0 -122 81.5 -178.5t273.5 -56.5t274 57t82 178v799q0 122 -82 179t-274 57t-273.5 -57t-81.5 -179v-799z" />
<glyph unicode="P" horiz-adv-x="1202" d="M59 37q0 9 2 16.5t3 10.5l2 4l165 16v1268l-165 16q-7 11 -7 29q0 8 2 15t3 10l2 3q226 15 559 15q241 0 350.5 -82t109.5 -242v-149q0 -160 -109.5 -242t-350.5 -82q-76 0 -141 1.5t-92 3.5l-27 1v-565l165 -16q7 -11 7 -31q0 -7 -1.5 -14.5t-3.5 -10.5l-2 -4 q-73 -12 -233 -12q-70 0 -128 3t-81 6l-22 3q-7 13 -7 29zM365 731h260q176 0 250.5 57t74.5 179v149q0 122 -74.5 179t-250.5 57h-260v-621z" />
<glyph unicode="Q" horiz-adv-x="1253" d="M137 317v799q0 160 117.5 243t372.5 83q257 0 374 -83t117 -243v-799q0 -259 -305 -311l211 -360q-31 -8 -68 -8q-16 0 -33.5 2t-27.5 4l-10 2l-189 348q-11 0 -33.5 -1t-35.5 -1q-256 0 -373 82.5t-117 242.5zM272 317q0 -122 81.5 -178.5t273.5 -56.5t274 57t82 178 v799q0 122 -82 179t-274 57t-273.5 -57t-81.5 -179v-799z" />
<glyph unicode="R" horiz-adv-x="1308" d="M59 37q0 9 2 16.5t3 10.5l2 4l165 16v1266l-165 16q-7 11 -7 31q0 7 2 14t3 11l2 3q224 15 563 15q241 0 351 -82t110 -242v-147q0 -263 -295 -312l301 -573l166 -16q6 -11 6 -31l-6 -29q-76 -12 -193 -12q-79 0 -142.5 3t-87.5 6l-24 3q-6 13 -6 29q0 9 1.5 16.5 t3.5 10.5l1 4l141 12l-290 565h-37q-75 0 -141 2t-94 4l-29 2v-569l165 -16q7 -11 7 -31q0 -7 -1.5 -14.5t-3.5 -10.5l-2 -4q-73 -12 -233 -12q-70 0 -128 3t-81 6l-22 3q-7 13 -7 29zM365 733h264q176 0 250.5 57t74.5 179v147q0 122 -74.5 179t-250.5 57h-264v-619z" />
<glyph unicode="S" horiz-adv-x="1185" d="M137 119q0 63 3.5 123t6.5 89l3 29q15 7 38 7q10 0 20 -1.5t14 -3.5l5 -2l23 -190q5 -4 14 -9.5t41.5 -21t68.5 -27t95 -21t121 -9.5q178 0 251.5 56t73.5 179v105q0 69 -42 117.5t-109 76.5t-148 50t-162.5 47.5t-148.5 59.5t-109 94.5t-42 144.5v104q0 163 104 244.5 t342 81.5q85 0 159.5 -13t120 -32t78.5 -37.5t46 -31.5l14 -13q0 -63 -3.5 -123.5t-6.5 -89.5l-4 -29q-14 -6 -37 -6q-10 0 -20 1.5t-15 3.5l-4 1l-23 191q-4 4 -12.5 9.5t-37 21t-61 27t-85.5 21t-109 9.5q-170 0 -241.5 -57t-71.5 -179v-104q0 -64 42 -110t109.5 -72 t149 -48t163 -48.5t149 -62t109.5 -99t42 -150.5v-105q0 -162 -108 -243.5t-351 -81.5q-92 0 -173 13t-130.5 32t-85.5 37.5t-51 31.5z" />
<glyph unicode="T" horiz-adv-x="1222" d="M74 1370q0 16 2 32t4 24l2 8h1055q8 -27 8 -64q0 -72 -2.5 -128t-4.5 -76l-3 -19q-13 -6 -29 -6l-29 6l-26 196h-371v-1259l166 -16q6 -11 6 -31l-6 -29q-74 -12 -234 -12q-70 0 -128 3t-80 6l-23 3q-8 13 -8 29q0 9 2 16.5t4 10.5l2 4l166 16v1259h-379l-27 -196 q-10 -6 -26 -6q-8 0 -16 1.5t-11 3.5l-4 1q-10 61 -10 223z" />
<glyph unicode="U" horiz-adv-x="1425" d="M59 1397q0 7 2 14t3 11l2 3q73 13 231 13q69 0 125.5 -3t77.5 -7l22 -3q6 -12 6 -28q0 -9 -1.5 -16.5t-2.5 -10.5l-2 -4l-157 -16v-1033q0 -121 80 -178t268 -57q186 0 266 57t80 178v1033l-158 16q-6 11 -6 31q0 7 1.5 14t3.5 11l1 3q71 13 225 13q71 0 129.5 -3 t81.5 -7l23 -3q6 -12 6 -28q0 -9 -1.5 -16.5t-2.5 -10.5l-2 -4l-166 -16v-1033q0 -160 -115 -242.5t-366 -82.5t-366.5 82.5t-115.5 242.5v1033l-165 16q-7 11 -7 31z" />
<glyph unicode="V" horiz-adv-x="1476" d="M33 1397q0 7 1.5 14t3.5 11l1 3q76 13 207 13q80 0 144 -3t88 -7l24 -3q6 -12 6 -28q0 -9 -1.5 -16.5t-2.5 -10.5l-2 -4l-166 -16l403 -1239l400 1239l-164 16q-6 11 -6 31q0 7 1.5 14t3.5 11l1 3q74 13 254 13q59 0 111 -3t74 -7l22 -3q6 -12 6 -28q0 -9 -1.5 -16.5 t-2.5 -10.5l-2 -4l-166 -16l-441 -1346q-41 -8 -90 -8q-22 0 -45 2t-35 4l-12 2l-444 1346l-164 16q-6 11 -6 31z" />
<glyph unicode="W" horiz-adv-x="2168" d="M33 1397q0 7 1.5 14t3.5 11l1 3q76 13 213 13q78 0 141 -3t87 -7l24 -3q6 -12 6 -28q0 -9 -1.5 -16.5t-2.5 -10.5l-2 -4l-166 -16l330 -1229l333 1309q35 8 82 8q21 0 42 -2t31 -4l11 -2l336 -1309l328 1229l-166 16q-6 11 -6 31q0 7 1.5 14t3.5 11l1 3q76 13 250 13 q62 0 115 -3t76 -7l22 -3q6 -12 6 -28q0 -9 -1.5 -16.5t-2.5 -10.5l-2 -4l-166 -16l-365 -1346q-43 -8 -92 -8q-21 0 -43.5 2t-34.5 4l-12 2l-332 1299l-327 -1299q-43 -8 -92 -8q-22 0 -45 2t-35 4l-13 2l-366 1346l-166 16q-6 11 -6 31z" />
<glyph unicode="X" horiz-adv-x="1390" d="M41 37q0 9 1.5 16.5t3.5 10.5l1 4l166 16l393 641l-383 625l-166 16q-6 11 -6 31q0 7 1.5 14t3.5 11l1 3q76 13 195 13q86 0 152.5 -3t89.5 -7l24 -3q6 -12 6 -28q0 -9 -1.5 -16.5t-2.5 -10.5l-2 -4l-151 -14l329 -549l328 549l-152 14q-6 11 -6 31q0 7 1.5 14t2.5 11 l2 3q77 13 267 13q53 0 101 -3t70 -7l21 -3q6 -12 6 -28q0 -9 -1.5 -16.5t-3.5 -10.5l-1 -4l-164 -16l-381 -625l392 -641l165 -16q7 -11 7 -31q0 -7 -2 -14.5t-4 -10.5l-1 -4q-73 -12 -194 -12q-86 0 -153 3t-91 6l-24 3q-7 13 -7 29q0 9 2 16.5t4 10.5l1 4l155 14 l-340 563l-342 -563l154 -14q6 -11 6 -31l-6 -29q-73 -12 -268 -12q-53 0 -101 3t-70 6l-22 3q-6 13 -6 29z" />
<glyph unicode="Y" horiz-adv-x="1359" d="M33 1397q0 7 1.5 14t3.5 11l1 3q76 13 197 13q84 0 150 -3t90 -7l24 -3q8 -12 8 -28q0 -9 -2 -16.5t-4 -10.5l-2 -4l-154 -14l334 -623l332 623l-154 14q-6 11 -6 31q0 7 1.5 14t2.5 11l2 3q74 13 264 13q55 0 104.5 -3t71.5 -7l23 -3q6 -12 6 -28q0 -9 -1.5 -16.5 t-3.5 -10.5l-1 -4l-168 -16l-405 -729v-537l165 -16q7 -11 7 -31q0 -7 -2 -14.5t-4 -10.5l-1 -4q-75 -12 -233 -12q-71 0 -129.5 3t-81.5 6l-23 3q-6 13 -6 29q0 9 1.5 16.5t2.5 10.5l2 4l166 16v534l-407 732l-166 16q-6 11 -6 31z" />
<glyph unicode="Z" horiz-adv-x="1130" d="M98 45q0 12 2 23.5t4 16.5l2 5l762 1249h-667l-27 -194q-13 -6 -29 -6q-7 0 -14 1.5t-11 3.5l-3 1q-13 63 -13 225q0 16 2 32t4 24l3 8h903q8 -18 8 -45q0 -12 -2 -23.5t-4 -17.5l-2 -5l-762 -1249h682l27 195q12 6 28 6q8 0 15.5 -1.5t10.5 -3.5l3 -1q12 -64 12 -226 q0 -16 -2 -32t-4 -23l-2 -8h-918q-8 18 -8 45z" />
<glyph unicode="[" horiz-adv-x="647" d="M147 -309v1847q108 0 208 -2t146 -4l46 -2q6 -16 6 -39l-6 -41q-111 -8 -279 -8v-1655q75 0 144.5 -1.5t101.5 -3.5l33 -1q6 -18 6 -41q0 -10 -1.5 -20t-3.5 -14l-1 -5q-158 -10 -400 -10z" />
<glyph unicode="\" horiz-adv-x="817" d="M90 1430q31 8 64 8q16 0 31.5 -2t23.5 -4l8 -2l512 -1426q-30 -8 -63 -8q-15 0 -31 2t-25 4l-8 2z" />
<glyph unicode="]" horiz-adv-x="647" d="M94 -260l6 41q111 6 279 6v1655q-75 0 -144.5 2t-102.5 4l-32 2q-6 18 -6 41q0 10 1.5 20t2.5 15l2 4q158 8 400 8v-1847q-108 0 -208 2.5t-146 4.5l-46 3q-6 16 -6 39z" />
<glyph unicode="^" horiz-adv-x="919" d="M90 1075l369 365l366 -363q-8 -19 -26 -37q-8 -8 -17.5 -14t-15.5 -8l-6 -2l-301 305l-303 -305q-21 6 -39 24q-8 7 -15 16t-10 14z" />
<glyph unicode="_" horiz-adv-x="1040" d="M8 -102h1024v-86h-1024v86z" />
<glyph unicode="`" horiz-adv-x="423" d="M37 1430q30 8 63 8q16 0 32.5 -2t25.5 -4l8 -2l221 -252q-20 -9 -47 -9q-10 0 -22 2.5t-18 4.5l-7 2z" />
<glyph unicode="a" horiz-adv-x="1099" d="M123 260v37q0 122 83 187t273 85l281 27v131q0 113 -58 166t-198 53q-130 0 -234 -57l-22 -176q-15 -6 -35 -6q-10 0 -19.5 1.5t-13.5 3.5l-4 1q-12 96 -12 233q5 3 14 9t40.5 21t67.5 26t95 20.5t123 9.5q205 0 295 -76.5t90 -228.5v-645l149 -21q6 -10 6 -26l-6 -27 q-63 -12 -192 -12q-21 0 -42 2t-32 4l-10 2v109q-5 -5 -15 -13t-44 -29t-73.5 -37t-103 -29t-131.5 -13q-144 0 -208 67.5t-64 200.5zM254 258q0 -93 41 -136.5t141 -43.5q65 0 122.5 13.5t93 32t61 37.5t36.5 33l11 13v305l-260 -27q-134 -15 -190 -61t-56 -131v-35z" />
<glyph unicode="b" horiz-adv-x="1083" d="M6 1399l6 26q68 13 195 13q21 0 41.5 -2t30.5 -4l10 -2v-508q3 7 11 17t31.5 27.5t56 31t89 24t125.5 10.5q183 0 263.5 -78.5t80.5 -232.5v-418q0 -154 -70 -232.5t-227 -78.5q-67 0 -128.5 12.5t-101.5 30.5t-71 35.5t-45 29.5l-14 13v-109q-31 -8 -64 -8q-16 0 -32 2 t-25 4l-8 2v1348l-148 20q-6 11 -6 27zM289 207q4 -5 11.5 -14t35.5 -31t61.5 -39t91.5 -31t123 -14q113 0 159 54t46 171v418q0 117 -52 171t-183 54q-159 0 -226 -54.5t-67 -170.5v-514z" />
<glyph unicode="c" horiz-adv-x="1017" d="M137 303v418q0 154 92.5 232.5t302.5 78.5q68 0 130 -9t101.5 -21.5t70 -25t44.5 -21.5l13 -9q0 -61 -3 -119t-6 -86l-3 -28q-14 -6 -37 -6q-9 0 -17.5 1.5t-12.5 3.5l-5 1l-23 180q-109 53 -252 53q-147 0 -206.5 -54t-59.5 -171v-418q0 -117 63 -171t218 -54 q94 0 177 19t119 38l36 19q10 -16 10 -45q0 -11 -2.5 -22t-4.5 -16l-3 -5q-4 -3 -12.5 -8t-39.5 -18t-66.5 -22.5t-93.5 -17.5t-122 -8q-217 0 -312.5 78.5t-95.5 232.5z" />
<glyph unicode="d" horiz-adv-x="1134" d="M137 303v418q0 153 81 232t263 79q70 0 128 -11t90 -25t55.5 -32t30.5 -27t10 -15v430l-148 20q-8 11 -8 27q0 6 2 12.5t4 10.5l2 3q62 13 191 13q21 0 42.5 -2t32.5 -4l11 -2v-1348l147 -21q6 -10 6 -26l-6 -27q-63 -12 -192 -12q-20 0 -41 2t-32 4l-11 2v109 q-5 -5 -14.5 -13t-44 -29t-73 -37t-100.5 -29t-129 -13q-157 0 -227 78.5t-70 232.5zM266 303q0 -117 46 -171t159 -54q66 0 123.5 13.5t93 32t61 37.5t35.5 33l11 13v514q0 116 -67 170.5t-226 54.5q-131 0 -183.5 -54t-52.5 -171v-418z" />
<glyph unicode="e" horiz-adv-x="1073" d="M137 303v418q0 154 94 232.5t308 78.5t304.5 -78t90.5 -233v-232q-127 -14 -334 -14h-334v-172q0 -117 65 -171t226 -54q98 0 185.5 19t125.5 38l39 19q11 -16 11 -45q0 -11 -3 -22t-5 -16l-3 -5q-13 -8 -38 -20.5t-115.5 -33t-196.5 -20.5q-223 0 -321.5 78.5 t-98.5 232.5zM266 559h543v162q0 117 -60.5 171t-209.5 54q-151 0 -212 -54t-61 -171v-162z" />
<glyph unicode="f" horiz-adv-x="718" d="M55 35q0 7 1.5 13.5t3.5 9.5l1 3l150 21v858l-150 18q-6 11 -6 27q0 7 1.5 14t3.5 10l1 3q50 10 150 10v143q0 138 65.5 207.5t215.5 69.5q67 0 159 -19q8 -20 8 -43q0 -10 -2 -20.5t-4 -15.5l-2 -5q-57 17 -123 17q-105 0 -146.5 -46t-41.5 -145v-141h311q8 -16 8 -43 q0 -11 -2 -22t-4 -16l-2 -5h-311v-856l147 -21q7 -10 7 -26q0 -6 -2 -13t-4 -10l-1 -4q-68 -12 -213 -12q-64 0 -117 3t-75 6l-21 3q-6 13 -6 27z" />
<glyph unicode="g" horiz-adv-x="1077" d="M137 303v418q0 154 70 232.5t227 78.5q67 0 128.5 -12.5t102 -30t71.5 -35.5t45 -30l14 -13v109q28 6 63 6l66 -6v-1126q0 -154 -98.5 -233t-321.5 -79q-92 0 -174 12t-118 24l-36 13q-10 16 -10 43q0 12 2.5 23t5.5 15l2 5q14 -5 41 -13.5t113 -22t174 -13.5 q161 0 226 54.5t65 171.5v204q-4 -8 -12 -17t-32 -26t-56 -30t-88.5 -23t-125.5 -10q-182 0 -263 79t-81 232zM266 303q0 -117 52.5 -171t183.5 -54q159 0 226 54.5t67 170.5v514q-4 5 -11 14t-35 31t-62 39t-92 31t-124 14q-113 0 -159 -54t-46 -171v-418z" />
<glyph unicode="h" horiz-adv-x="1200" d="M55 35q0 7 1.5 13.5t3.5 9.5l1 3l150 21v1270l-150 20q-6 11 -6 27l6 26q62 13 193 13q21 0 42.5 -2t32.5 -4l11 -2v-519q5 5 14.5 13t42.5 29t70 37t97.5 29t125.5 13q159 0 229 -78.5t70 -232.5v-639l148 -21q8 -10 8 -26q0 -6 -2 -13t-4 -10l-2 -4q-62 -12 -191 -12 q-21 0 -42.5 2t-32.5 4l-11 2v717q0 117 -47 171t-162 54q-64 0 -119 -13.5t-89 -32t-58.5 -37.5t-34.5 -33l-10 -13v-735l147 -21q7 -10 7 -26q0 -6 -2 -13t-4 -10l-1 -4q-68 -12 -213 -12q-64 0 -117 3t-75 6l-21 3q-6 13 -6 27z" />
<glyph unicode="i" horiz-adv-x="548" d="M55 35q0 7 1.5 13.5t3.5 9.5l1 3l150 21v860l-150 21q-6 10 -6 26l6 27q62 12 193 12q21 0 42.5 -2t32.5 -4l11 -2v-938l147 -21q7 -10 7 -26q0 -6 -2 -13t-4 -10l-1 -4q-68 -12 -213 -12q-64 0 -117 3t-75 6l-21 3q-6 13 -6 27zM211 1225v205q30 8 63 8q16 0 32.5 -2 t25.5 -4l8 -2v-205q-33 -8 -66 -8q-15 0 -30.5 2t-23.5 4z" />
<glyph unicode="j" horiz-adv-x="522" d="M-45 -356q0 10 2 20.5t4 15.5l2 5q57 -17 115 -17q89 0 124.5 41.5t35.5 132.5v1100l-148 21q-6 10 -6 26l6 27q62 12 193 12q20 0 41 -2t32 -4l11 -2v-1178q0 -129 -59 -194.5t-191 -65.5q-78 0 -154 21q-8 18 -8 41zM238 1225v205q30 8 65 8q15 0 31 -2t24 -4l9 -2 v-205q-33 -8 -64 -8q-16 0 -32 2t-25 4z" />
<glyph unicode="k" horiz-adv-x="1069" d="M55 35q0 7 1.5 13.5t3.5 9.5l1 3l150 21v1270l-150 20q-6 11 -6 27l6 26q62 13 193 13q20 0 41.5 -2t32.5 -4l12 -2v-893l139 47l256 366l-94 13q-6 10 -6 26l6 27q66 12 199 12q46 0 87 -3t59 -6l18 -3q6 -13 6 -27q0 -7 -1.5 -13.5t-2.5 -9.5l-2 -3l-140 -21l-278 -401 l301 -459l137 -21q8 -10 8 -26q0 -6 -2 -13t-4 -10l-2 -4q-58 -12 -154 -12q-17 0 -36 2t-29 4l-10 2l-316 490l-139 -48v-364l147 -21q7 -10 7 -26q0 -6 -2 -13t-4 -10l-1 -4q-70 -12 -213 -12q-64 0 -117 3t-75 6l-21 3q-6 13 -6 27z" />
<glyph unicode="l" horiz-adv-x="548" d="M55 35q0 7 1.5 13.5t3.5 9.5l1 3l150 21v1270l-150 20q-6 11 -6 27l6 26q62 13 193 13q21 0 42.5 -2t32.5 -4l11 -2v-1348l147 -21q7 -10 7 -26q0 -6 -2 -13t-4 -10l-1 -4q-68 -12 -213 -12q-64 0 -117 3t-75 6l-21 3q-6 13 -6 27z" />
<glyph unicode="m" horiz-adv-x="1759" d="M55 35q0 7 1.5 13.5t3.5 9.5l1 3l150 21v860l-150 21q-6 10 -6 26l6 27q62 12 193 12q21 0 42.5 -2t32.5 -4l11 -2v-109q5 5 13.5 13t40 29t66.5 37t91.5 29t116.5 13q189 0 245 -119q5 5 15 13t44 28.5t73 36t101 28.5t128 13q147 0 211.5 -72.5t64.5 -216.5v-661 l148 -21q6 -10 6 -26l-6 -27q-62 -12 -193 -12q-21 0 -42 2t-31 4l-11 2v739q0 105 -41.5 154t-144.5 49q-66 0 -122 -13.5t-90.5 -34.5t-51.5 -35.5t-27 -26.5v-754l150 -21q6 -10 6 -26l-6 -27q-70 -12 -213 -12q-60 0 -109.5 3t-68.5 6l-19 3q-6 13 -6 27q0 7 1.5 13.5 t2.5 9.5l2 3l131 15v667q0 105 -41.5 154t-144.5 49q-59 0 -110 -13.5t-82.5 -32t-54.5 -37.5t-32 -33l-10 -13v-741l131 -15q6 -10 6 -26l-6 -27q-64 -12 -199 -12q-63 0 -115.5 3t-74.5 6l-21 3q-6 13 -6 27z" />
<glyph unicode="n" horiz-adv-x="1206" d="M55 35q0 7 1.5 13.5t3.5 9.5l1 3l150 21v860l-150 21q-6 10 -6 26l6 27q62 12 193 12q20 0 41.5 -2t32.5 -4l12 -2v-109q5 5 14.5 13t43 29t71.5 37t99 29t126 13q161 0 232 -78t71 -233v-639l148 -21q6 -10 6 -26l-6 -27q-62 -12 -193 -12q-20 0 -41 2t-32 4l-11 2v717 q0 117 -47.5 171t-165.5 54q-47 0 -89.5 -7t-73.5 -18.5t-57 -25t-43 -27.5t-29.5 -25.5t-17.5 -18.5l-5 -7v-735l147 -21q7 -10 7 -26q0 -6 -2 -13t-4 -10l-1 -4q-70 -12 -213 -12q-64 0 -117 3t-75 6l-21 3q-6 13 -6 27z" />
<glyph unicode="o" horiz-adv-x="1089" d="M137 303v418q0 153 97.5 232t310.5 79q214 0 311.5 -79t97.5 -232v-418q0 -153 -97.5 -232t-311.5 -79q-213 0 -310.5 79t-97.5 232zM266 303q0 -116 64.5 -170.5t214.5 -54.5q151 0 214.5 54.5t63.5 170.5v418q0 116 -63.5 170.5t-214.5 54.5q-150 0 -214.5 -54.5 t-64.5 -170.5v-418z" />
<glyph unicode="p" horiz-adv-x="1134" d="M55 -375q0 7 1.5 14t3.5 10l1 3l150 20v1270l-150 21q-6 10 -6 26l6 27q62 12 193 12q20 0 41.5 -2t32.5 -4l12 -2v-109q5 5 14.5 13t43.5 29t72.5 37t100.5 29t129 13q157 0 227 -78.5t70 -232.5v-418q0 -153 -81 -232t-263 -79q-67 0 -123 9.5t-88.5 23t-56.5 29.5 t-33 26.5t-12 17.5v-426l147 -20q7 -11 7 -27q0 -6 -2 -12.5t-4 -10.5l-1 -3q-70 -13 -213 -13q-64 0 -117 3t-75 7l-21 3q-6 12 -6 26zM340 303q0 -116 67 -170.5t226 -54.5q129 0 182 54t53 171v418q0 117 -45.5 171t-160.5 54q-65 0 -122.5 -13.5t-92.5 -32t-60.5 -37.5 t-36.5 -33l-10 -13v-514z" />
<glyph unicode="q" horiz-adv-x="1077" d="M137 303v418q0 154 70 232.5t227 78.5q67 0 128.5 -12.5t102 -30t71.5 -35.5t45 -30l14 -13v109q28 8 63 8q16 0 32.5 -2t25.5 -4l8 -2v-1348l147 -20q6 -11 6 -27l-6 -26q-68 -13 -213 -13q-64 0 -116.5 3t-73.5 7l-21 3q-8 12 -8 26q0 7 2 14t4 10l2 3l148 20v428 q-5 -8 -11 -15.5t-30.5 -26t-55.5 -31.5t-89 -24t-128 -11q-182 0 -263 79t-81 232zM266 303q0 -117 52.5 -171t183.5 -54q159 0 226 54.5t67 170.5v514q-4 5 -11 14t-35 31t-62 39t-92 31t-124 14q-113 0 -159 -54t-46 -171v-418z" />
<glyph unicode="r" horiz-adv-x="815" d="M55 35q0 7 1.5 13.5t3.5 9.5l1 3l150 21v860l-150 21q-6 10 -6 26l6 27q62 12 193 12q20 0 41.5 -2t32.5 -4l12 -2v-150q5 7 15 17.5t46 38.5t76.5 49.5t106.5 39t137 17.5q8 -18 8 -43q0 -12 -2 -23t-4 -16l-2 -6q-55 0 -106 -11t-88 -29t-69 -40t-53 -43.5t-36.5 -39.5 t-22.5 -29l-6 -11v-659l147 -21q7 -10 7 -26q0 -6 -2 -13t-4 -10l-1 -4q-70 -12 -213 -12q-64 0 -117 3t-75 6l-21 3q-6 13 -6 27z" />
<glyph unicode="s" horiz-adv-x="974" d="M127 68q0 61 3 119t6 86l3 28q14 6 37 6q9 0 17.5 -1.5t12.5 -3.5l5 -1l22 -176q122 -49 244 -49q133 0 187.5 47t54.5 147v41q0 49 -43.5 82t-108 49t-140.5 37t-140.5 44t-108 71.5t-43.5 118.5v41q0 138 84 208t275 70q61 0 117.5 -8.5t93 -20.5t64 -24t39.5 -21 l13 -8q0 -61 -3 -119.5t-6 -86.5l-3 -29q-14 -4 -37 -4l-35 4l-22 180q-99 51 -221 51q-126 0 -179 -47t-53 -145v-41q0 -39 32.5 -67t84.5 -45t114.5 -32t125 -34.5t114.5 -45t84.5 -71t32.5 -107.5v-41q0 -139 -87 -209.5t-286 -70.5q-67 0 -127.5 8t-99 19.5t-68 23 t-42.5 19.5z" />
<glyph unicode="t" horiz-adv-x="747" d="M55 985q0 7 1.5 14t3.5 10l1 3q52 10 154 10l12 203q27 8 56 8q14 0 28 -2t21 -4l8 -2v-201h305q10 -16 10 -43q0 -11 -2.5 -22t-4.5 -16l-3 -5h-305v-670q0 -99 42.5 -144.5t147.5 -45.5q54 0 115 18q8 -18 8 -41q0 -9 -2 -18.5t-4 -14.5l-2 -6q-81 -24 -153 -24 q-149 0 -215 69.5t-66 206.5v672l-150 18q-6 11 -6 27z" />
<glyph unicode="u" horiz-adv-x="1214" d="M55 989l6 27q62 12 193 12q20 0 41.5 -2t32.5 -4l12 -2v-717q0 -117 46.5 -171t162.5 -54q66 0 124 13.5t93 32t61 37.5t37 33l10 13v735l-147 21q-6 10 -6 26l6 27q62 12 193 12q20 0 41 -2t32 -4l11 -2v-938l149 -21q6 -10 6 -26l-6 -27q-61 -12 -192 -12 q-20 0 -41.5 2t-33.5 4l-12 2v109q-5 -5 -14.5 -13t-44 -29t-73 -37t-101.5 -29t-131 -13q-159 0 -229 78.5t-70 232.5v639l-150 21q-6 10 -6 26z" />
<glyph unicode="v" horiz-adv-x="1214" d="M31 989l6 27q67 12 178 12q61 0 112 -3t72 -6l21 -3q6 -13 6 -27q0 -7 -1.5 -13.5t-2.5 -9.5l-2 -3l-119 -17l307 -842l303 842l-116 17q-9 10 -9 26q0 6 2 13t4 10l3 4q67 12 204 12q49 0 94 -3t65 -6l20 -3q6 -13 6 -27q0 -7 -1.5 -13.5t-2.5 -9.5l-2 -3l-142 -21 l-344 -938q-37 -8 -84 -8q-21 0 -42.5 2t-32.5 4l-11 2l-346 938l-139 21q-6 10 -6 26z" />
<glyph unicode="w" horiz-adv-x="1787" d="M31 989l6 27q67 12 184 12q61 0 112 -3t72 -6l21 -3q6 -13 6 -27q0 -7 -1.5 -13.5t-2.5 -9.5l-2 -3l-123 -19l252 -842l262 914q31 10 76 10q20 0 39.5 -2.5t29.5 -5.5l9 -2l264 -914l250 844l-123 17q-6 10 -6 26l6 27q68 12 205 12q52 0 98 -3t66 -6l20 -3q6 -13 6 -27 q0 -7 -1.5 -13.5t-3.5 -9.5l-1 -3l-141 -21l-287 -938q-41 -8 -86 -8q-20 0 -41.5 2t-33.5 4l-11 2l-258 895l-254 -895q-39 -8 -86 -8q-21 0 -42.5 2t-32.5 4l-11 2l-291 938l-139 21q-6 10 -6 26z" />
<glyph unicode="x" horiz-adv-x="1148" d="M39 35q0 7 1.5 13.5t3.5 9.5l1 3l137 19l312 440l-301 422l-146 21q-6 10 -6 26l6 27q68 12 160 12q60 0 110.5 -3t71.5 -6l21 -3q8 -13 8 -27q0 -7 -2 -13.5t-4 -9.5l-2 -3l-88 -11l251 -358l252 358l-90 11q-6 10 -6 26l6 27q62 12 193 12q42 0 83 -3t61 -6l20 -3 q6 -13 6 -27q0 -7 -1.5 -13.5t-2.5 -9.5l-2 -3l-140 -21l-297 -422l310 -438l139 -21q8 -10 8 -26q0 -6 -2 -13t-4 -10l-2 -4q-62 -12 -152 -12q-17 0 -36 2t-29 4l-10 2l-304 442l-262 -374l99 -11q6 -10 6 -26l-6 -27q-66 -12 -201 -12q-45 0 -86 3t-59 6l-19 3 q-6 13 -6 27z" />
<glyph unicode="y" horiz-adv-x="1212" d="M31 989l6 27q67 12 178 12q61 0 112 -3t72 -6l21 -3q6 -13 6 -27q0 -7 -1.5 -13.5t-2.5 -9.5l-2 -3l-121 -17l307 -835l303 835l-116 17q-7 10 -7 26q0 6 2 13t4 10l1 4q67 12 204 12q49 0 94 -3t65 -6l20 -3q6 -13 6 -27q0 -7 -1.5 -13.5t-2.5 -9.5l-2 -3l-142 -21 l-409 -1100q-49 -132 -129 -196t-213 -64q-30 0 -58 3t-41 6l-12 3q-10 16 -10 41q0 11 2.5 22t5.5 16l2 5q41 -10 113 -10q83 0 135.5 42t85.5 130l59 160l-39 4l-350 938l-139 21q-6 10 -6 26z" />
<glyph unicode="z" horiz-adv-x="995" d="M113 43q0 11 2 22t4 16l2 5l614 852h-528l-23 -162q-12 -6 -28 -6l-29 6q-10 54 -10 189q0 16 2 30.5t4 21.5l2 7h743q9 -16 9 -43q0 -11 -2.5 -22t-4.5 -16l-2 -5l-612 -852h537l24 162q13 6 27 6q8 0 15 -1.5t10 -2.5l3 -2q13 -54 13 -189q0 -16 -2 -30.5t-4 -21.5 l-2 -7h-756q-8 16 -8 43z" />
<glyph unicode="{" horiz-adv-x="782" d="M86 616q0 11 2.5 22t5.5 16l2 5q127 0 180.5 56t53.5 172v340q0 154 84.5 232.5t271.5 78.5q8 -16 8 -43q0 -11 -2 -21.5t-4 -15.5l-2 -4q-127 0 -181 -55t-54 -172v-340q0 -209 -148 -273q148 -61 148 -268v-340q0 -117 54 -172t181 -55q8 -16 8 -43q0 -11 -2 -22 t-4 -16l-2 -5q-187 0 -271.5 79.5t-84.5 233.5v340q0 116 -53.5 171.5t-180.5 55.5q-10 16 -10 43z" />
<glyph unicode="|" horiz-adv-x="401" d="M147 -201v1733q25 8 54 8q13 0 26 -2t20 -4l7 -2v-1733q-26 -8 -53 -8q-13 0 -26.5 2t-20.5 4z" />
<glyph unicode="}" horiz-adv-x="782" d="M86 -264q0 12 2.5 23t5.5 15l2 5q127 0 180.5 55t53.5 172v340q0 206 149 268q-149 64 -149 273v340q0 117 -53.5 172t-180.5 55q-10 16 -10 41q0 12 2.5 22.5t5.5 15.5l2 5q186 0 270.5 -78.5t84.5 -232.5v-340q0 -116 54 -172t181 -56q8 -18 8 -43q0 -12 -2 -22.5 t-4 -15.5l-2 -5q-127 0 -181 -55.5t-54 -171.5v-340q0 -154 -85 -233.5t-270 -79.5q-10 18 -10 43z" />
<glyph unicode="~" horiz-adv-x="905" d="M109 524v11q0 101 39.5 149.5t136.5 48.5q48 0 86.5 -14t63.5 -33.5t48 -39.5t50.5 -34t58.5 -14q60 0 85 28t25 89v10q23 8 48 8q10 0 21.5 -2t17.5 -4l6 -2v-10q0 -102 -37.5 -150.5t-134.5 -48.5q-48 0 -87.5 14t-65.5 34t-49 40.5t-50.5 34.5t-57.5 14q-60 0 -85 -28 t-25 -90v-11q-22 -8 -47 -8q-11 0 -23 2t-18 4z" />
<glyph unicode="&#xa1;" horiz-adv-x="423" d="M143 831v189q35 8 68 8q16 0 33 -2t26 -4l9 -2v-189q-31 -10 -68 -10q-16 0 -33 2.5t-26 4.5zM147 -406v1006q33 8 64 8q16 0 32 -2t25 -4l8 -2v-1006q-30 -8 -65 -8q-15 0 -31 2t-24 4z" />
<glyph unicode="&#xa2;" horiz-adv-x="1017" d="M137 303v418q0 144 81 222t261 87v195q27 8 56 8q13 0 26 -2t20 -4l7 -2v-195q59 -3 111.5 -12.5t86 -21.5t58.5 -23.5t36 -18.5l11 -8q0 -61 -3 -119t-6 -86l-3 -28q-14 -6 -37 -6q-9 0 -17.5 1.5t-12.5 3.5l-5 1l-23 180q-109 53 -252 53q-147 0 -206.5 -54t-59.5 -171 v-418q0 -117 63 -171t218 -54q94 0 177 19t119 38l36 19q10 -16 10 -45q0 -11 -2.5 -22t-4.5 -16l-3 -5q-10 -7 -30.5 -18.5t-96 -31t-164.5 -22.5v-195q-26 -8 -53 -8q-13 0 -27 2t-22 4l-7 2v195q-180 10 -261 88t-81 221z" />
<glyph unicode="&#xa3;" horiz-adv-x="1157" d="M61 45q0 12 2.5 23.5t4.5 16.5l2 5h127v549h-127q-9 16 -9 43q0 11 2.5 21.5t4.5 14.5l2 5h127v393q0 161 101 243.5t327 82.5q83 0 155.5 -14t116.5 -34t76.5 -39.5t45.5 -33.5l13 -14q0 -63 -3 -123.5t-6 -89.5l-3 -29q-16 -6 -39 -6q-10 0 -20 1.5t-15 3.5l-4 1 l-20 190q-4 4 -12 10.5t-36 23t-60 29.5t-83 23.5t-106 10.5q-161 0 -227 -56.5t-66 -179.5v-393h395q8 -16 8 -41q0 -12 -2 -22.5t-4 -15.5l-2 -5h-395v-549h702q8 -16 8 -45q0 -12 -2 -23.5t-4 -16.5l-2 -5h-964q-9 18 -9 45z" />
<glyph unicode="&#xa4;" horiz-adv-x="839" d="M70 936q8 17 26 35q8 8 18 14t16 8l5 2l135 -137q58 39 150 39t147 -39l138 137q20 -6 38 -24q8 -8 14.5 -16.5t8.5 -13.5l2 -5l-129 -131q37 -52 37 -133v-58q0 -78 -35 -127l127 -125q-7 -18 -27 -34q-8 -8 -17 -15t-14 -9l-5 -3l-127 127q-58 -37 -158 -37 q-102 0 -160 37l-125 -127q0 -4 -18 10t-33.5 31t-11.5 20l125 125q-33 50 -33 127v58q0 80 35 133zM252 614q0 -75 39.5 -111t128.5 -36t127.5 36t38.5 111v58q0 75 -38.5 111t-127.5 36t-128.5 -36t-39.5 -111v-58z" />
<glyph unicode="&#xa5;" horiz-adv-x="1353" d="M31 1397q0 7 1.5 14t3.5 11l1 3q73 13 196 13q84 0 150.5 -3t90.5 -7l24 -3q6 -12 6 -28q0 -9 -1.5 -16.5t-2.5 -10.5l-2 -4l-154 -14l332 -615l334 615l-154 14q-6 11 -6 31q0 7 1.5 14t2.5 11l2 3q74 13 264 13q55 0 104 -3t71 -7l22 -3q6 -12 6 -28q0 -9 -1.5 -16.5 t-3.5 -10.5l-1 -4l-166 -16l-408 -729v-15h291q8 -15 8 -35q0 -10 -2 -18.5t-4 -12.5l-2 -3h-291v-189h291q8 -12 8 -35q0 -9 -2 -17.5t-4 -12.5l-2 -4h-291v-195l166 -16q6 -11 6 -31l-6 -29q-73 -12 -233 -12q-70 0 -128.5 3t-81.5 6l-24 3q-6 13 -6 29q0 9 1.5 16.5 t2.5 10.5l2 4l166 16v195h-289q-8 14 -8 34q0 10 2 19t4 12l2 4h289v189h-286q-9 11 -9 34q0 9 2.5 17.5t4.5 13.5l2 4h286v12l-407 732l-164 16q-6 11 -6 31z" />
<glyph unicode="&#xa6;" horiz-adv-x="401" d="M147 -201v760q25 8 54 8q13 0 26 -2t20 -4l7 -2v-760q-26 -8 -53 -8q-13 0 -26.5 2t-20.5 4zM147 772v760q25 8 54 8q13 0 26 -2t20 -4l7 -2v-760q-26 -8 -53 -8q-13 0 -26.5 2t-20.5 4z" />
<glyph unicode="&#xa7;" horiz-adv-x="1159" d="M111 -283q0 63 3.5 123.5t7.5 89.5l3 29q14 6 39 6q10 0 19.5 -1.5t13.5 -3.5l4 -1l22 -190q5 -4 14.5 -11t42.5 -24.5t70.5 -30.5t97 -24t123.5 -11q182 0 257 55.5t75 176.5v51q0 69 -43 117.5t-111 76.5t-151 50t-166 47.5t-151 59.5t-111 94.5t-43 144.5v51 q0 183 133 254q-133 81 -133 227v51q0 158 104.5 238t343.5 80q87 0 162.5 -14t121.5 -34t80 -39.5t48 -33.5l14 -14q0 -63 -3 -123.5t-6 -89.5l-3 -29q-16 -6 -39 -6q-10 0 -20 1.5t-14 3.5l-5 1l-20 190q-5 4 -13.5 11t-38.5 24.5t-64 30.5t-88.5 24t-111.5 11 q-175 0 -248 -56.5t-73 -175.5v-51q0 -64 43 -110t111.5 -72t151.5 -48t166 -48.5t151.5 -62t111.5 -99t43 -150.5v-51q0 -174 -129 -250q129 -84 129 -231v-51q0 -159 -107.5 -238.5t-353.5 -79.5q-94 0 -175.5 14t-131.5 33.5t-86.5 39.5t-51.5 34zM254 541q0 -60 34 -103 t95.5 -69.5t125 -44t146.5 -41t136 -47.5q112 48 112 196v51q0 53 -24.5 94t-62.5 66t-95 47t-109 35t-119 32.5t-112 37.5q-127 -48 -127 -203v-51z" />
<glyph unicode="&#xa8;" horiz-adv-x="845" d="M154 1231v199q24 8 55 8q14 0 27 -2t20 -4l6 -2v-199q-24 -8 -53 -8q-14 0 -27.5 2t-20.5 4zM584 1231v199q24 8 55 8q14 0 27 -2t20 -4l6 -2v-199q-24 -8 -53 -8q-14 0 -27.5 2t-20.5 4z" />
<glyph unicode="&#xa9;" horiz-adv-x="1677" d="M143 492v450q0 245 166.5 372.5t528.5 127.5t527 -127t165 -373v-450q0 -246 -165 -373t-527 -127t-528.5 127.5t-166.5 372.5zM268 492q0 -142 53.5 -231t180 -136t336.5 -47q209 0 335.5 47t180 136t53.5 231v450q0 142 -53.5 231t-180 136t-335.5 47 q-210 0 -336.5 -47t-180 -136t-53.5 -231v-450zM598 528v385q0 84 58 127t188 43q128 0 181.5 -42t53.5 -128v-14q-21 -4 -41 -4l-41 4v14q0 59 -34 86t-119 27q-87 0 -121.5 -27t-34.5 -86v-385q0 -59 36.5 -85.5t127.5 -26.5q59 0 112 11t76 23l23 11q6 -13 6 -29 q0 -8 -1.5 -16t-3.5 -12l-1 -3q-8 -5 -24 -12t-70.5 -19t-116.5 -12q-134 0 -194 42.5t-60 127.5z" />
<glyph unicode="&#xaa;" horiz-adv-x="827" d="M111 901v25q0 86 58 132t191 58l193 19v90q0 77 -39 113t-133 36q-21 0 -41 -2.5t-34 -5.5t-29.5 -8t-23 -8t-19 -8.5t-13.5 -6.5l-16 -123q-11 -2 -27 -2l-31 2q-8 70 -8 168q9 7 27 17t80.5 26.5t134.5 16.5q145 0 208.5 -54t63.5 -161v-447l105 -12q4 -9 4 -23l-4 -20 q-48 -8 -140 -8l-63 4v76q-4 -3 -10.5 -9t-30.5 -20.5t-51 -25.5t-70.5 -20t-89.5 -9q-101 0 -146.5 48t-45.5 142zM213 899q0 -63 28 -93t95 -30q44 0 82.5 9t62 22t41 26t24.5 22l7 9v207l-174 -18q-90 -9 -128 -40.5t-38 -88.5v-25z" />
<glyph unicode="&#xab;" horiz-adv-x="958" d="M94 553l367 365q19 -7 37 -25q8 -7 14.5 -16t9.5 -14l2 -5l-303 -305l303 -303q-6 -19 -24 -37q-8 -8 -18 -14.5t-16 -8.5l-5 -2zM434 553l367 365q19 -7 39 -25q8 -7 14 -16t8 -14l2 -5l-301 -305l303 -303q-8 -19 -26 -37q-8 -8 -17.5 -14.5t-15.5 -8.5l-6 -2z" />
<glyph unicode="&#xac;" horiz-adv-x="841" d="M94 705q0 11 2 22t4 16l2 5h246q108 0 208.5 -4t147.5 -8l46 -3v-262q-29 -8 -58 -8q-13 0 -26.5 2t-21.5 4l-7 2v191h-535q-8 16 -8 43z" />
<glyph unicode="&#xad;" horiz-adv-x="622" d="M94 586q0 12 2 23t4 15l2 5h418q8 -16 8 -43q0 -11 -2 -22t-4 -16l-2 -5h-418q-8 18 -8 43z" />
<glyph unicode="&#xae;" horiz-adv-x="1677" d="M143 492v450q0 245 166.5 372.5t528.5 127.5t527 -127t165 -373v-450q0 -246 -165 -373t-527 -127t-528.5 127.5t-166.5 372.5zM268 492q0 -142 53.5 -231t180 -136t336.5 -47q209 0 335.5 47t180 136t53.5 231v450q0 142 -53.5 231t-180 136t-335.5 47 q-210 0 -336.5 -47t-180 -136t-53.5 -231v-450zM621 360v711q88 8 221 8q124 0 179.5 -43t55.5 -127v-69q0 -136 -145 -162l174 -318q-22 -4 -47 -4l-47 4l-166 312h-4l-133 4v-316q-22 -4 -45 -4zM709 729h133q80 0 113.5 26.5t33.5 84.5v69q0 59 -33.5 86t-113.5 27h-133 v-293z" />
<glyph unicode="&#xaf;" horiz-adv-x="434" d="M-33 1278q0 9 2 17.5t4 12.5l2 5h484q8 -15 8 -35q0 -10 -2 -19t-4 -13l-2 -3h-484q-8 12 -8 35z" />
<glyph unicode="&#xb0;" horiz-adv-x="651" d="M131 1206v41q0 193 217 193t217 -193v-41q0 -192 -217 -192t-217 192zM205 1206q0 -65 33.5 -96t109.5 -31t110 31t34 96v41q0 64 -33.5 94.5t-110.5 30.5t-110 -30.5t-33 -94.5v-41z" />
<glyph unicode="&#xb1;" horiz-adv-x="866" d="M94 225q0 11 2 21.5t4 15.5l2 4h662q8 -16 8 -41q0 -11 -2 -22t-4 -16l-2 -5h-662q-8 16 -8 43zM94 688q0 12 2 23t4 15l2 5h283v289q20 6 47 6q13 0 24.5 -1.5t17.5 -2.5l5 -2v-289h285q8 -16 8 -43q0 -11 -2 -22t-4 -16l-2 -5h-285v-287q-18 -8 -47 -8q-12 0 -24 2 t-18 4l-5 2v287h-283q-8 18 -8 43z" />
<glyph unicode="&#xb2;" horiz-adv-x="622" d="M90 725v96q0 53 20 92.5t51.5 63t69.5 42.5t76.5 36t70 37t51.5 52t20 75v49q0 61 -33 89.5t-111 28.5q-43 0 -79 -12t-51 -24l-15 -13l-13 -92q-10 -2 -24 -2l-25 2q-8 51 -8 125q2 3 7 7.5t23.5 16t41 20.5t61 16.5t82.5 7.5q120 0 171.5 -42t51.5 -128v-49 q0 -71 -37 -117.5t-90 -71t-106 -47.5t-90 -62.5t-37 -99.5v-51h311l15 78q6 4 16 4l18 -4q7 -28 7 -98l-5 -33h-237q-54 0 -104.5 2t-74.5 4z" />
<glyph unicode="&#xb3;" horiz-adv-x="614" d="M82 782q0 5 1 10.5t2 9t2 6t1 3.5q0 -3 22.5 -14t73 -22t107.5 -11q90 0 127 29.5t37 93.5v63q0 64 -38.5 93.5t-129.5 29.5h-66q-4 11 -4 27l4 26l205 254h-281l-14 -77q-6 -5 -16 -5l-19 5q-6 28 -6 98l6 33h418q4 -11 4 -27l-4 -27l-211 -256q71 0 119 -13t72 -38.5 t33.5 -54t9.5 -68.5v-63q0 -86 -58 -130t-186 -44q-60 0 -111.5 10.5t-72.5 21.5l-21 11q-6 10 -6 26z" />
<glyph unicode="&#xb4;" horiz-adv-x="423" d="M37 1178l221 252q29 8 64 8q16 0 32 -2t24 -4l9 -2l-256 -252q-24 -9 -47 -9q-12 0 -23.5 2.5t-17.5 4.5z" />
<glyph unicode="&#xb5;" horiz-adv-x="1148" d="M55 -221q0 7 1.5 13.5t3.5 9.5l1 3l150 21v1116l-150 21q-6 10 -6 26l6 27q62 12 193 12q21 0 42.5 -2t32.5 -4l11 -2v-813q4 -5 11.5 -14t35.5 -31t62 -39t92.5 -31t124.5 -14q116 0 162 54t46 171v639l-147 21q-6 10 -6 26l6 27q62 12 193 12q21 0 42 -2t32 -4l10 -2 v-717q0 -154 -70 -232.5t-229 -78.5q-68 0 -130.5 12.5t-103 30.5t-72 35.5t-45.5 29.5l-14 13v-287l147 -21q7 -10 7 -26q0 -6 -2 -13t-4 -10l-1 -4q-68 -12 -213 -12q-64 0 -117 3t-75 6l-21 3q-6 13 -6 27z" />
<glyph unicode="&#xb6;" horiz-adv-x="1028" d="M133 662v264q0 153 82 232t264 79q142 0 264 -4t173 -8l51 -4q6 -13 6 -27q0 -7 -1.5 -14t-3.5 -10l-1 -3l-148 -20v-1049q0 -154 -85 -232.5t-277 -78.5q-79 0 -150.5 12.5t-102.5 24.5l-32 12q-8 16 -8 43q0 12 2 22.5t4 15.5l2 5q12 -5 34.5 -13.5t93.5 -22t144 -13.5 q135 0 190.5 54t55.5 171v359q-4 -8 -10 -16.5t-26.5 -26t-47 -30.5t-75 -23.5t-107.5 -10.5q-153 0 -222 79.5t-69 232.5z" />
<glyph unicode="&#xb7;" horiz-adv-x="417" d="M143 498v188q31 8 66 8q15 0 31 -2t25 -4l9 -2v-188q-32 -9 -65 -9q-16 0 -32.5 2.5t-24.5 4.5z" />
<glyph unicode="&#xb8;" horiz-adv-x="1028" d="M362 -266q0 8 2 15.5t4 10.5l3 4q51 -34 127 -34q100 0 100 77q0 18 -10 30t-25.5 16.5t-33 12.5t-33 18t-25.5 34t-10 59v23h82v-23q0 -29 14 -46t34.5 -25t40.5 -16.5t34 -29t14 -53.5q0 -68 -43 -105.5t-127 -37.5q-42 0 -76.5 10t-48.5 20l-14 9q-9 13 -9 31z" />
<glyph unicode="&#xb9;" horiz-adv-x="477" d="M80 1360l4 20l147 56l58 -4v-666l108 -10q2 -9 2 -19l-2 -14q-49 -8 -149 -8q-44 0 -81 2t-52 4l-15 2q-4 6 -4 14l4 19l107 10v606l-123 -33q-4 7 -4 21z" />
<glyph unicode="&#xba;" horiz-adv-x="813" d="M119 932v287q0 109 68.5 165t218.5 56q152 0 221 -56t69 -165v-287q0 -109 -69 -165t-221 -56q-150 0 -218.5 56t-68.5 165zM219 932q0 -80 43.5 -118t143.5 -38q102 0 145 38t43 118v287q0 80 -43 117.5t-145 37.5q-101 0 -144 -37.5t-43 -117.5v-287z" />
<glyph unicode="&#xbb;" horiz-adv-x="958" d="M94 250l303 303l-303 305q9 19 27 35q5 5 10.5 9.5t10 7t8.5 4.5l6 3l2 1l366 -365l-366 -365q-2 -4 -19.5 11t-33 32.5t-11.5 18.5zM434 250l303 303l-303 305q9 19 27 35q8 8 17 14t15 9l5 2l368 -365l-366 -365q-19 7 -39 25q-8 8 -15 17t-9 15z" />
<glyph unicode="&#xbc;" horiz-adv-x="1273" d="M80 1360l4 20l147 56l58 -4v-666l108 -10q2 -9 2 -19l-2 -14q-49 -8 -149 -8q-44 0 -81 2t-52 4l-15 2q-4 6 -4 14l4 19l107 10v606l-123 -33q-4 7 -4 21zM119 4l934 1426q22 8 51 8q13 0 25.5 -2t18.5 -4l7 -2l-934 -1426q-26 -8 -51 -8q-13 0 -25.5 2t-18.5 4zM727 199 l193 516q16 4 41 4l38 -4l-182 -488h234v283q19 4 39 4l36 -4v-283l72 -8q6 -10 6 -22l-6 -21q-19 -4 -70 -4v-170q-18 -4 -38 -4l-39 4v170h-320q-4 11 -4 27z" />
<glyph unicode="&#xbd;" horiz-adv-x="1288" d="M80 1360l4 20l147 56l58 -4v-666l108 -10q2 -9 2 -19l-2 -14q-49 -8 -149 -8q-44 0 -81 2t-52 4l-15 2q-4 6 -4 14l4 19l107 10v606l-123 -33q-4 7 -4 21zM119 4l934 1426q22 8 51 8q13 0 25.5 -2t18.5 -4l7 -2l-934 -1426q-26 -8 -51 -8q-13 0 -25.5 2t-18.5 4zM799 8 v96q0 53 19.5 92.5t51.5 63t70 42.5t76 36t70 37t51.5 52t19.5 75v49q0 62 -32.5 90.5t-108.5 28.5q-44 0 -81 -12t-52 -24l-15 -13l-12 -93q-11 -2 -25 -2l-24 2q-6 51 -6 125q2 3 7 7.5t23.5 16t40.5 20.5t61 16.5t83 7.5q118 0 170.5 -42t52.5 -128v-49 q0 -71 -37.5 -117.5t-90.5 -71t-106 -47.5t-90.5 -62.5t-37.5 -99.5v-51h313l12 78q7 4 17 4l18 -4q6 -28 6 -98l-4 -33h-235q-55 0 -106 2t-75 4z" />
<glyph unicode="&#xbe;" horiz-adv-x="1347" d="M82 782q0 5 1 10.5t2 9t2 6t1 3.5q0 -3 22.5 -14t73 -22t107.5 -11q90 0 127 29.5t37 93.5v63q0 64 -38.5 93.5t-129.5 29.5h-66q-4 11 -4 27l4 26l205 254h-281l-14 -77q-6 -5 -16 -5l-19 5q-6 28 -6 98l6 33h418q4 -11 4 -27l-4 -27l-211 -256q71 0 119 -13t72 -38.5 t33.5 -54t9.5 -68.5v-63q0 -86 -58 -130t-186 -44q-60 0 -111.5 10.5t-72.5 21.5l-21 11q-6 10 -6 26zM164 4l934 1426q22 8 51 8q13 0 25.5 -2t19.5 -4l6 -2l-934 -1426q-26 -8 -51 -8q-13 0 -25.5 2t-19.5 4zM801 199l194 516q14 4 39 4l41 -4l-182 -488h231v283 q19 4 39 4l37 -4v-283l74 -8q4 -10 4 -22l-4 -21q-21 -4 -70 -4v-170q-21 -4 -41 -4l-39 4v170h-317q-6 11 -6 27z" />
<glyph unicode="&#xbf;" horiz-adv-x="1069" d="M133 12q0 62 19.5 109.5t50.5 76.5t68.5 52.5t75 45t68.5 46.5t50.5 64.5t19.5 91.5v102q33 8 66 8q15 0 30.5 -2t24.5 -4l8 -2v-102q0 -64 -19.5 -112.5t-50.5 -78t-69 -53t-76 -45t-69 -45.5t-50.5 -62.5t-19.5 -89.5v-104q0 -124 65.5 -182t223.5 -58q52 0 99.5 10 t79 24t55.5 28t35 24l11 10l23 195q16 6 39 6q10 0 20 -1.5t15 -3.5l4 -1q12 -101 12 -240q-4 -6 -13 -15t-43 -32.5t-74.5 -41.5t-111.5 -33t-151 -15q-221 0 -318.5 82t-97.5 244v104zM483 831v189q33 8 68 8q16 0 32.5 -2t25.5 -4l9 -2v-189q-32 -8 -67 -8q-16 0 -33 2 t-26 4z" />
<glyph unicode="&#xc0;" d="M33 37q0 9 1.5 16.5t3.5 10.5l1 4l160 16l417 1266l-159 16q-6 11 -6 31q0 7 1.5 14t3.5 11l1 3q88 13 276 13q22 0 44.5 -2t34.5 -4l11 -2l443 -1346l159 -16q7 -11 7 -31q0 -7 -2 -14.5t-4 -10.5l-1 -4q-71 -12 -200 -12q-81 0 -145.5 3t-88.5 6l-24 3q-6 13 -6 29 q0 9 1.5 16.5t3.5 10.5l1 4l166 16l-113 346h-576l-114 -346l168 -16q6 -11 6 -31l-6 -29q-74 -12 -256 -12q-58 0 -109 3t-73 6l-21 3q-6 13 -6 29zM469 522h526l-262 803zM510 1792q30 8 65 8q16 0 32 -2t24 -4l8 -2l221 -252q-20 -8 -47 -8q-10 0 -22 2t-19 4l-6 2z" />
<glyph unicode="&#xc1;" d="M33 37q0 9 1.5 16.5t3.5 10.5l1 4l160 16l417 1266l-159 16q-6 11 -6 31q0 7 1.5 14t3.5 11l1 3q88 13 276 13q22 0 44.5 -2t34.5 -4l11 -2l443 -1346l159 -16q7 -11 7 -31q0 -7 -2 -14.5t-4 -10.5l-1 -4q-71 -12 -200 -12q-81 0 -145.5 3t-88.5 6l-24 3q-6 13 -6 29 q0 9 1.5 16.5t3.5 10.5l1 4l166 16l-113 346h-576l-114 -346l168 -16q6 -11 6 -31l-6 -29q-74 -12 -256 -12q-58 0 -109 3t-73 6l-21 3q-6 13 -6 29zM469 522h526l-262 803zM602 1540l221 252q31 8 64 8q16 0 32 -2t25 -4l8 -2l-256 -252q-24 -8 -47 -8q-12 0 -24 2t-17 4z " />
<glyph unicode="&#xc2;" d="M33 37q0 9 1.5 16.5t3.5 10.5l1 4l160 16l417 1266l-159 16q-6 11 -6 31q0 7 1.5 14t3.5 11l1 3q88 13 276 13q22 0 44.5 -2t34.5 -4l11 -2l443 -1346l159 -16q7 -11 7 -31q0 -7 -2 -14.5t-4 -10.5l-1 -4q-71 -12 -200 -12q-81 0 -145.5 3t-88.5 6l-24 3q-6 13 -6 29 q0 9 1.5 16.5t3.5 10.5l1 4l166 16l-113 346h-576l-114 -346l168 -16q6 -11 6 -31l-6 -29q-74 -12 -256 -12q-58 0 -109 3t-73 6l-21 3q-6 13 -6 29zM459 1540l211 236q28 8 61 8q15 0 30.5 -2t23.5 -4l8 -2l211 -236q-21 -8 -48 -8q-10 0 -22 2t-18 4l-7 2l-178 180 l-178 -180q-24 -8 -47 -8q-12 0 -24 2t-18 4zM469 522h526l-262 803z" />
<glyph unicode="&#xc3;" d="M33 37q0 9 1.5 16.5t3.5 10.5l1 4l160 16l417 1266l-159 16q-6 11 -6 31q0 7 1.5 14t3.5 11l1 3q88 13 276 13q22 0 44.5 -2t34.5 -4l11 -2l443 -1346l159 -16q7 -11 7 -31q0 -7 -2 -14.5t-4 -10.5l-1 -4q-71 -12 -200 -12q-81 0 -145.5 3t-88.5 6l-24 3q-6 13 -6 29 q0 9 1.5 16.5t3.5 10.5l1 4l166 16l-113 346h-576l-114 -346l168 -16q6 -11 6 -31l-6 -29q-74 -12 -256 -12q-58 0 -109 3t-73 6l-21 3q-6 13 -6 29zM432 1542v8q0 86 34.5 127t119.5 41q42 0 76 -12t56 -29t41.5 -34t43.5 -29t51 -12q53 0 73.5 22.5t20.5 73.5v10 q21 10 41 10q10 0 20.5 -2.5t15.5 -5.5l5 -2v-8q0 -86 -33.5 -126t-119.5 -40q-42 0 -76.5 12t-57 29t-42.5 33.5t-43.5 28.5t-49.5 12q-52 0 -73 -23t-21 -74v-10q-18 -8 -41 -8q-10 0 -20.5 2t-15.5 4zM469 522h526l-262 803z" />
<glyph unicode="&#xc4;" d="M33 37q0 9 1.5 16.5t3.5 10.5l1 4l160 16l417 1266l-159 16q-6 11 -6 31q0 7 1.5 14t3.5 11l1 3q88 13 276 13q22 0 44.5 -2t34.5 -4l11 -2l443 -1346l159 -16q7 -11 7 -31q0 -7 -2 -14.5t-4 -10.5l-1 -4q-71 -12 -200 -12q-81 0 -145.5 3t-88.5 6l-24 3q-6 13 -6 29 q0 9 1.5 16.5t3.5 10.5l1 4l166 16l-113 346h-576l-114 -346l168 -16q6 -11 6 -31l-6 -29q-74 -12 -256 -12q-58 0 -109 3t-73 6l-21 3q-6 13 -6 29zM463 1542v197q22 8 53 8q14 0 27 -2t19 -4l7 -2v-197q-24 -8 -53 -8q-14 0 -27 2t-19 4zM469 522h526l-262 803zM893 1542 v197q22 8 53 8q14 0 27 -2t19 -4l7 -2v-197q-24 -8 -53 -8q-14 0 -27 2t-19 4z" />
<glyph unicode="&#xc5;" d="M33 37q0 9 1.5 16.5t3.5 10.5l1 4l160 16l417 1266l-159 16q-6 11 -6 31q0 7 1.5 14t3.5 11l1 3q88 13 276 13q22 0 44.5 -2t34.5 -4l11 -2l443 -1346l159 -16q7 -11 7 -31q0 -7 -2 -14.5t-4 -10.5l-1 -4q-71 -12 -200 -12q-81 0 -145.5 3t-88.5 6l-24 3q-6 13 -6 29 q0 9 1.5 16.5t3.5 10.5l1 4l166 16l-113 346h-576l-114 -346l168 -16q6 -11 6 -31l-6 -29q-74 -12 -256 -12q-58 0 -109 3t-73 6l-21 3q-6 13 -6 29zM469 522h526l-262 803zM567 1661v37q0 135 164 135q166 0 166 -135v-37q0 -135 -166 -135q-164 0 -164 135zM633 1661 q0 -40 23 -60t75 -20t75 20t23 60v37q0 39 -22.5 58.5t-75.5 19.5t-75.5 -19.5t-22.5 -58.5v-37z" />
<glyph unicode="&#xc6;" horiz-adv-x="1609" d="M33 37q0 9 1.5 16.5t3.5 10.5l1 4l158 16l419 1266l-159 16q-6 11 -6 31q0 7 1.5 14t3.5 11l1 3q224 9 704 9h355q8 -27 8 -64q0 -72 -3 -128t-7 -76l-3 -19q-10 -6 -28 -6l-29 6l-27 196h-532v-561h551q8 -18 8 -45q0 -12 -2 -23.5t-4 -16.5l-2 -5h-551v-602h543l26 197 q13 6 29 6q8 0 15.5 -1.5t10.5 -3.5l3 -1q12 -62 12 -224q0 -16 -2 -32t-4 -23l-2 -8h-365q-147 0 -285.5 2t-203.5 4l-66 2q-6 13 -6 29q0 9 1.5 16.5t2.5 10.5l2 4l154 16v346h-316l-114 -346l153 -16q6 -11 6 -31l-6 -29q-73 -12 -243 -12q-59 0 -109.5 3t-70.5 6l-21 3 q-6 13 -6 29zM469 522h291v821h-21z" />
<glyph unicode="&#xc7;" horiz-adv-x="1196" d="M137 317v799q0 162 111.5 244t365.5 82q92 0 172.5 -14t129.5 -34t85 -39.5t51 -33.5l15 -14q0 -63 -3.5 -123.5t-7.5 -89.5l-3 -29q-14 -6 -39 -6q-10 0 -19.5 1.5t-13.5 3.5l-4 1l-23 190q-5 4 -14.5 10.5t-41.5 23t-68.5 29.5t-95 23.5t-120.5 10.5 q-189 0 -265.5 -56.5t-76.5 -179.5v-799q0 -123 79 -179t276 -56q76 0 148 9.5t120.5 22.5t86.5 27t55.5 23t17.5 10q10 -18 10 -47q0 -13 -2.5 -24.5t-4.5 -16.5l-3 -6q-5 -3 -16 -9t-49 -20.5t-81.5 -26t-115 -21.5t-148.5 -11v-15q0 -29 14 -46t34.5 -25t40.5 -16.5 t34 -29t14 -53.5q0 -68 -43 -105.5t-127 -37.5q-42 0 -76.5 10t-48.5 20l-14 9q-8 13 -8 31q0 8 2 15.5t4 10.5l2 4q53 -34 127 -34q52 0 76 18.5t24 58.5q0 18 -10 30t-25.5 16.5t-33 12.5t-33 18t-25.5 34t-10 59v17q-226 9 -326 90t-100 233z" />
<glyph unicode="&#xc8;" horiz-adv-x="1138" d="M59 37q0 9 2 16.5t3 10.5l2 4l165 16v1266l-165 16q-7 11 -7 31q0 7 2 14t3 11l2 3q226 9 565 9h411q9 -27 9 -64q0 -72 -2.5 -128t-5.5 -76l-3 -19q-12 -6 -28 -6l-29 6l-27 196h-591v-561h550q9 -18 9 -45q0 -12 -2 -23.5t-4 -16.5l-3 -5h-550v-602h602l26 197 q13 6 29 6l29 -6q10 -62 10 -224q0 -16 -2 -32t-4 -23l-2 -8h-422q-151 0 -292.5 2t-206.5 4l-66 2q-7 13 -7 29zM434 1792q31 8 64 8q16 0 31.5 -2t23.5 -4l8 -2l223 -252q-20 -8 -47 -8q-10 0 -22 2t-19 4l-6 2z" />
<glyph unicode="&#xc9;" horiz-adv-x="1138" d="M59 37q0 9 2 16.5t3 10.5l2 4l165 16v1266l-165 16q-7 11 -7 31q0 7 2 14t3 11l2 3q226 9 565 9h411q9 -27 9 -64q0 -72 -2.5 -128t-5.5 -76l-3 -19q-12 -6 -28 -6l-29 6l-27 196h-591v-561h550q9 -18 9 -45q0 -12 -2 -23.5t-4 -16.5l-3 -5h-550v-602h602l26 197 q13 6 29 6l29 -6q10 -62 10 -224q0 -16 -2 -32t-4 -23l-2 -8h-422q-151 0 -292.5 2t-206.5 4l-66 2q-7 13 -7 29zM510 1540l223 252q29 8 64 8q15 0 30.5 -2t24.5 -4l8 -2l-256 -252q-24 -8 -47 -8q-12 0 -24 2t-17 4z" />
<glyph unicode="&#xca;" horiz-adv-x="1138" d="M59 37q0 9 2 16.5t3 10.5l2 4l165 16v1266l-165 16q-7 11 -7 31q0 7 2 14t3 11l2 3q226 9 565 9h411q9 -27 9 -64q0 -72 -2.5 -128t-5.5 -76l-3 -19q-12 -6 -28 -6l-29 6l-27 196h-591v-561h550q9 -18 9 -45q0 -12 -2 -23.5t-4 -16.5l-3 -5h-550v-602h602l26 197 q13 6 29 6l29 -6q10 -62 10 -224q0 -16 -2 -32t-4 -23l-2 -8h-422q-151 0 -292.5 2t-206.5 4l-66 2q-7 13 -7 29zM375 1540l211 236q28 8 61 8q14 0 29.5 -2t23.5 -4l9 -2l211 -236q-21 -8 -48 -8q-10 0 -22 2t-18 4l-7 2l-178 180l-178 -180q-24 -8 -47 -8q-12 0 -24 2 t-18 4z" />
<glyph unicode="&#xcb;" horiz-adv-x="1138" d="M59 37q0 9 2 16.5t3 10.5l2 4l165 16v1266l-165 16q-7 11 -7 31q0 7 2 14t3 11l2 3q226 9 565 9h411q9 -27 9 -64q0 -72 -2.5 -128t-5.5 -76l-3 -19q-12 -6 -28 -6l-29 6l-27 196h-591v-561h550q9 -18 9 -45q0 -12 -2 -23.5t-4 -16.5l-3 -5h-550v-602h602l26 197 q13 6 29 6l29 -6q10 -62 10 -224q0 -16 -2 -32t-4 -23l-2 -8h-422q-151 0 -292.5 2t-206.5 4l-66 2q-7 13 -7 29zM379 1542v197q22 8 53 8q14 0 27 -2t19 -4l7 -2v-197q-24 -8 -53 -8q-14 0 -27 2t-19 4zM809 1542v197q22 8 53 8q14 0 27 -2t19 -4l7 -2v-197q-24 -8 -53 -8 q-14 0 -27 2t-19 4z" />
<glyph unicode="&#xcc;" horiz-adv-x="595" d="M59 37q0 9 2 16.5t3 10.5l2 4l165 16v1266l-165 16q-7 11 -7 31q0 7 2 14t3 11l2 3q73 13 231 13q71 0 129.5 -3t81.5 -7l22 -3q7 -12 7 -28q0 -9 -1.5 -16.5t-3.5 -10.5l-2 -4l-165 -16v-1266l165 -16q7 -11 7 -31q0 -7 -1.5 -14.5t-3.5 -10.5l-2 -4q-73 -12 -233 -12 q-70 0 -128 3t-81 6l-22 3q-7 13 -7 29zM76 1792q32 8 65 8q16 0 32 -2t24 -4l8 -2l223 -252q-20 -8 -47 -8q-10 0 -22 2t-19 4l-6 2z" />
<glyph unicode="&#xcd;" horiz-adv-x="595" d="M59 37q0 9 2 16.5t3 10.5l2 4l165 16v1266l-165 16q-7 11 -7 31q0 7 2 14t3 11l2 3q73 13 231 13q71 0 129.5 -3t81.5 -7l22 -3q7 -12 7 -28q0 -9 -1.5 -16.5t-3.5 -10.5l-2 -4l-165 -16v-1266l165 -16q7 -11 7 -31q0 -7 -1.5 -14.5t-3.5 -10.5l-2 -4q-73 -12 -233 -12 q-70 0 -128 3t-81 6l-22 3q-7 13 -7 29zM168 1540l223 252q29 8 64 8q15 0 31 -2t25 -4l9 -2l-258 -252q-24 -8 -47 -8q-12 0 -24 2t-17 4z" />
<glyph unicode="&#xce;" horiz-adv-x="661" d="M59 1540l211 236q27 8 60 8q15 0 30.5 -2t23.5 -4l9 -2l211 -236q-22 -8 -47 -8q-10 0 -22 2t-19 4l-6 2l-178 180l-180 -180q-26 -8 -46 -8q-12 0 -24 2t-18 4zM92 37q0 9 1.5 16.5t2.5 10.5l2 4l166 16v1266l-166 16q-6 11 -6 31q0 7 1.5 14t2.5 11l2 3q74 13 234 13 q70 0 128 -3t80 -7l23 -3q8 -12 8 -28q0 -9 -2 -16.5t-4 -10.5l-2 -4l-164 -16v-1266l164 -16q8 -11 8 -31q0 -7 -2 -14.5t-4 -10.5l-2 -4q-73 -12 -231 -12q-71 0 -129.5 3t-81.5 6l-23 3q-6 13 -6 29z" />
<glyph unicode="&#xcf;" horiz-adv-x="595" d="M59 37q0 9 2 16.5t3 10.5l2 4l165 16v1266l-165 16q-7 11 -7 31q0 7 2 14t3 11l2 3q73 13 231 13q71 0 129.5 -3t81.5 -7l22 -3q7 -12 7 -28q0 -9 -1.5 -16.5t-3.5 -10.5l-2 -4l-165 -16v-1266l165 -16q7 -11 7 -31q0 -7 -1.5 -14.5t-3.5 -10.5l-2 -4q-73 -12 -233 -12 q-70 0 -128 3t-81 6l-22 3q-7 13 -7 29zM66 1540v199q22 8 53 8q14 0 27 -2t20 -4l6 -2v-199q-24 -8 -53 -8q-14 0 -27 2t-20 4zM424 1540v199q22 8 53 8q14 0 27 -2t20 -4l6 -2v-199q-24 -8 -53 -8q-14 0 -27 2t-20 4z" />
<glyph unicode="&#xd0;" horiz-adv-x="1292" d="M59 37q0 8 2 15.5t3 10.5l2 3l165 16v610l-165 17q-7 12 -7 30q0 7 2 14.5t3 10.5l2 4q50 6 165 10v574l-165 16q-7 11 -7 29q0 8 2 15t3 10l2 3q193 15 600 15q256 0 373.5 -82t117.5 -242v-799q0 -160 -117.5 -241.5t-373.5 -81.5q-181 0 -331 3.5t-209 6.5l-60 4 q-7 11 -7 29zM365 82h301q192 0 274 57t82 178v799q0 122 -82 179t-274 57h-301v-572h337q9 -16 9 -43q0 -12 -2.5 -23t-4.5 -16l-2 -4h-337v-612z" />
<glyph unicode="&#xd1;" horiz-adv-x="1439" d="M59 37q0 9 2 16.5t3 10.5l2 4l165 16v1266l-165 16q-7 11 -7 31q0 7 2 14t3 11l2 3q71 13 223 13q15 0 29.5 -2t21.5 -4l8 -2l731 -1197v1117l-166 16q-6 11 -6 31q0 7 1.5 14t3.5 11l1 3q76 13 232 13q69 0 126.5 -3t80.5 -7l22 -3q6 -12 6 -28q0 -9 -1.5 -16.5 t-2.5 -10.5l-2 -4l-166 -16v-1346q-26 -8 -59 -8q-13 0 -27.5 2t-23.5 4l-8 2l-730 1196v-1116l166 -16q6 -11 6 -31l-6 -29q-75 -12 -231 -12q-69 0 -126.5 3t-80.5 6l-22 3q-7 13 -7 29zM420 1542v8q0 86 34.5 127t118.5 41q42 0 76 -12t56 -29t42 -34t44 -29t51 -12 q53 0 73.5 22.5t20.5 73.5v10q18 10 41 10q10 0 20.5 -2.5t15.5 -5.5l5 -2v-8q0 -86 -34 -126t-120 -40q-51 0 -92 18t-63 39.5t-52 39.5t-61 18q-52 0 -73 -23t-21 -74v-10q-21 -8 -41 -8q-10 0 -20.5 2t-15.5 4z" />
<glyph unicode="&#xd2;" horiz-adv-x="1253" d="M137 317v799q0 160 117.5 243t372.5 83q257 0 374 -83t117 -243v-799q0 -160 -117 -242.5t-374 -82.5q-256 0 -373 82.5t-117 242.5zM272 317q0 -122 81.5 -178.5t273.5 -56.5t274 57t82 178v799q0 122 -82 179t-274 57t-273.5 -57t-81.5 -179v-799zM406 1792q30 8 65 8 q16 0 32 -2t24 -4l8 -2l221 -252q-20 -8 -47 -8q-9 0 -20.5 2t-18.5 4l-8 2z" />
<glyph unicode="&#xd3;" horiz-adv-x="1253" d="M137 317v799q0 160 117.5 243t372.5 83q257 0 374 -83t117 -243v-799q0 -160 -117 -242.5t-374 -82.5q-256 0 -373 82.5t-117 242.5zM272 317q0 -122 81.5 -178.5t273.5 -56.5t274 57t82 178v799q0 122 -82 179t-274 57t-273.5 -57t-81.5 -179v-799zM498 1540l223 252 q28 8 63 8q15 0 31 -2t25 -4l8 -2l-256 -252q-24 -8 -47 -8q-12 0 -24 2t-17 4z" />
<glyph unicode="&#xd4;" horiz-adv-x="1253" d="M137 317v799q0 160 117.5 243t372.5 83q257 0 374 -83t117 -243v-799q0 -160 -117 -242.5t-374 -82.5q-256 0 -373 82.5t-117 242.5zM272 317q0 -122 81.5 -178.5t273.5 -56.5t274 57t82 178v799q0 122 -82 179t-274 57t-273.5 -57t-81.5 -179v-799zM354 1540l211 236 q29 8 62 8q15 0 30 -2t23 -4l8 -2l211 -236q-20 -8 -47 -8q-10 0 -22 2t-18 4l-7 2l-178 180l-178 -180q-25 -8 -48 -8q-12 0 -24 2t-17 4z" />
<glyph unicode="&#xd5;" horiz-adv-x="1253" d="M137 317v799q0 160 117.5 243t372.5 83q257 0 374 -83t117 -243v-799q0 -160 -117 -242.5t-374 -82.5q-256 0 -373 82.5t-117 242.5zM272 317q0 -122 81.5 -178.5t273.5 -56.5t274 57t82 178v799q0 122 -82 179t-274 57t-273.5 -57t-81.5 -179v-799zM328 1542v8 q0 86 34.5 127t118.5 41q51 0 92 -18t63 -40t52 -40t62 -18q53 0 73.5 22.5t20.5 73.5v10q20 10 43 10q9 0 19 -2.5t16 -5.5l6 -2v-8q0 -85 -35 -125.5t-121 -40.5q-42 0 -76 12t-56.5 29t-42.5 33.5t-43.5 28.5t-49.5 12q-52 0 -73 -23t-21 -74v-10q-18 -8 -41 -8 q-10 0 -20.5 2t-15.5 4z" />
<glyph unicode="&#xd6;" horiz-adv-x="1253" d="M137 317v799q0 160 117.5 243t372.5 83q257 0 374 -83t117 -243v-799q0 -160 -117 -242.5t-374 -82.5q-256 0 -373 82.5t-117 242.5zM272 317q0 -122 81.5 -178.5t273.5 -56.5t274 57t82 178v799q0 122 -82 179t-274 57t-273.5 -57t-81.5 -179v-799zM358 1540v199 q23 8 54 8q14 0 27 -2t19 -4l7 -2v-199q-24 -8 -53 -8q-14 0 -27.5 2t-20.5 4zM788 1540v199q23 8 54 8q14 0 27 -2t19 -4l7 -2v-199q-24 -8 -53 -8q-14 0 -27.5 2t-20.5 4z" />
<glyph unicode="&#xd7;" horiz-adv-x="866" d="M94 338l275 276l-275 277q9 19 27 37q8 7 17 13t14 9l6 2l274 -278l275 278q18 -8 38 -24q8 -8 14.5 -17t8.5 -15l2 -5l-274 -277l274 -276q-7 -17 -27 -35q-8 -8 -17 -14t-14 -8l-5 -2l-275 276l-274 -276q-19 6 -37 24q-8 7 -14.5 16t-9.5 14z" />
<glyph unicode="&#xd8;" horiz-adv-x="1327" d="M137 4l88 133q-51 71 -51 180v799q0 160 117.5 243t372.5 83q244 0 366 -80l45 68q27 8 58 8q14 0 28 -2t21 -4l8 -2l-88 -134q53 -70 53 -180v-799q0 -160 -117 -242.5t-374 -82.5q-251 0 -369 80l-45 -68q-28 -8 -57 -8q-14 0 -28 2t-21 4zM303 317q0 -39 4 -55 l664 1010q-79 82 -307 82q-195 0 -278 -57.5t-83 -180.5v-799zM354 162q79 -82 310 -82q195 0 277.5 57t82.5 180v799q0 19 -4 55z" />
<glyph unicode="&#xd9;" horiz-adv-x="1425" d="M59 1397q0 7 2 14t3 11l2 3q73 13 231 13q69 0 125.5 -3t77.5 -7l22 -3q6 -12 6 -28q0 -9 -1.5 -16.5t-2.5 -10.5l-2 -4l-157 -16v-1033q0 -121 80 -178t268 -57q186 0 266 57t80 178v1033l-158 16q-6 11 -6 31q0 7 1.5 14t3.5 11l1 3q71 13 225 13q71 0 129.5 -3 t81.5 -7l23 -3q6 -12 6 -28q0 -9 -1.5 -16.5t-2.5 -10.5l-2 -4l-166 -16v-1033q0 -160 -115 -242.5t-366 -82.5t-366.5 82.5t-115.5 242.5v1033l-165 16q-7 11 -7 31zM492 1792q30 8 63 8q16 0 32.5 -2t24.5 -4l9 -2l221 -252q-20 -8 -47 -8q-10 0 -22 2t-19 4l-6 2z" />
<glyph unicode="&#xda;" horiz-adv-x="1425" d="M59 1397q0 7 2 14t3 11l2 3q73 13 231 13q69 0 125.5 -3t77.5 -7l22 -3q6 -12 6 -28q0 -9 -1.5 -16.5t-2.5 -10.5l-2 -4l-157 -16v-1033q0 -121 80 -178t268 -57q186 0 266 57t80 178v1033l-158 16q-6 11 -6 31q0 7 1.5 14t3.5 11l1 3q71 13 225 13q71 0 129.5 -3 t81.5 -7l23 -3q6 -12 6 -28q0 -9 -1.5 -16.5t-2.5 -10.5l-2 -4l-166 -16v-1033q0 -160 -115 -242.5t-366 -82.5t-366.5 82.5t-115.5 242.5v1033l-165 16q-7 11 -7 31zM584 1540l221 252q28 8 63 8q16 0 32.5 -2t25.5 -4l8 -2l-256 -252q-24 -8 -47 -8q-12 0 -24 2t-17 4z " />
<glyph unicode="&#xdb;" horiz-adv-x="1425" d="M59 1397q0 7 2 14t3 11l2 3q73 13 231 13q69 0 125.5 -3t77.5 -7l22 -3q6 -12 6 -28q0 -9 -1.5 -16.5t-2.5 -10.5l-2 -4l-157 -16v-1033q0 -121 80 -178t268 -57q186 0 266 57t80 178v1033l-158 16q-6 11 -6 31q0 7 1.5 14t3.5 11l1 3q71 13 225 13q71 0 129.5 -3 t81.5 -7l23 -3q6 -12 6 -28q0 -9 -1.5 -16.5t-2.5 -10.5l-2 -4l-166 -16v-1033q0 -160 -115 -242.5t-366 -82.5t-366.5 82.5t-115.5 242.5v1033l-165 16q-7 11 -7 31zM440 1540l211 236q27 8 62 8q14 0 29 -2t24 -4l8 -2l211 -236q-20 -8 -47 -8q-10 0 -22 2t-18 4l-7 2 l-178 180l-178 -180q-25 -8 -48 -8q-12 0 -24 2t-17 4z" />
<glyph unicode="&#xdc;" horiz-adv-x="1425" d="M59 1397q0 7 2 14t3 11l2 3q73 13 231 13q69 0 125.5 -3t77.5 -7l22 -3q6 -12 6 -28q0 -9 -1.5 -16.5t-2.5 -10.5l-2 -4l-157 -16v-1033q0 -121 80 -178t268 -57q186 0 266 57t80 178v1033l-158 16q-6 11 -6 31q0 7 1.5 14t3.5 11l1 3q71 13 225 13q71 0 129.5 -3 t81.5 -7l23 -3q6 -12 6 -28q0 -9 -1.5 -16.5t-2.5 -10.5l-2 -4l-166 -16v-1033q0 -160 -115 -242.5t-366 -82.5t-366.5 82.5t-115.5 242.5v1033l-165 16q-7 11 -7 31zM444 1540v199q23 8 54 8q14 0 27 -2t19 -4l7 -2v-199q-24 -8 -53 -8q-14 0 -27.5 2t-20.5 4zM874 1540 v199q23 8 54 8q14 0 27 -2t19 -4l7 -2v-199q-24 -8 -53 -8q-14 0 -27.5 2t-20.5 4z" />
<glyph unicode="&#xdd;" horiz-adv-x="1359" d="M33 1397q0 7 1.5 14t3.5 11l1 3q76 13 197 13q84 0 150 -3t90 -7l24 -3q8 -12 8 -28q0 -9 -2 -16.5t-4 -10.5l-2 -4l-154 -14l334 -623l332 623l-154 14q-6 11 -6 31q0 7 1.5 14t2.5 11l2 3q74 13 264 13q55 0 104.5 -3t71.5 -7l23 -3q6 -12 6 -28q0 -9 -1.5 -16.5 t-3.5 -10.5l-1 -4l-168 -16l-405 -729v-537l165 -16q7 -11 7 -31q0 -7 -2 -14.5t-4 -10.5l-1 -4q-75 -12 -233 -12q-71 0 -129.5 3t-81.5 6l-23 3q-6 13 -6 29q0 9 1.5 16.5t2.5 10.5l2 4l166 16v534l-407 732l-166 16q-6 11 -6 31zM551 1540l221 252q29 8 64 8q15 0 31 -2 t25 -4l9 -2l-256 -252q-27 -8 -47 -8q-12 0 -24 2t-18 4z" />
<glyph unicode="&#xde;" horiz-adv-x="1150" d="M59 37q0 9 2 16.5t3 10.5l2 4l165 16v1266l-165 16q-7 11 -7 31q0 7 2 14t3 11l2 3q73 13 231 13q71 0 129.5 -3t81.5 -7l22 -3q7 -12 7 -28q0 -9 -1.5 -16.5t-3.5 -10.5l-2 -4l-165 -16v-213q99 6 253 6q211 0 306.5 -82t95.5 -242v-151q0 -159 -96 -241.5t-306 -82.5 q-68 0 -131.5 2t-92.5 4l-29 2v-268l165 -16q7 -11 7 -31q0 -7 -1.5 -14.5t-3.5 -10.5l-2 -4q-73 -12 -233 -12q-70 0 -128 3t-81 6l-22 3q-7 13 -7 29zM365 434h247q147 0 210 57t63 177v151q0 122 -63 179t-210 57h-247v-621z" />
<glyph unicode="&#xdf;" horiz-adv-x="1329" d="M55 35q0 7 1.5 13.5t3.5 9.5l1 3l150 21v862l-150 19q-6 12 -6 26q0 7 1.5 14t3.5 10l1 3q52 10 150 10v137q0 138 76 208.5t248 70.5q178 0 255.5 -70t77.5 -209v-33q0 -52 -11.5 -90.5t-29.5 -61.5t-40 -41.5t-44 -34.5t-40 -34t-29.5 -47.5t-11.5 -68.5v-31 q0 -41 29.5 -70.5t76.5 -48t104 -34.5t114 -35.5t104 -45.5t76.5 -71t29.5 -105v-41q0 -139 -80 -209.5t-260 -70.5q-60 0 -115 9t-90.5 21.5t-62.5 25t-39 21.5l-12 9q0 61 3 119t6 86l3 28q17 6 37 6q9 0 17.5 -1.5t12.5 -3.5l5 -1l22 -176q98 -57 213 -57t163 47t48 147 v41q0 44 -29.5 75.5t-76.5 50t-103.5 34.5t-113 35t-103.5 44t-76.5 68.5t-29.5 102.5v31q0 68 21 112.5t51 67.5t60 44.5t51 59t21 94.5v33q0 94 -46 139.5t-158 45.5q-108 0 -151.5 -45.5t-43.5 -139.5v-1159q-41 -8 -86 -8q-58 0 -106.5 3t-67.5 6l-19 3q-6 13 -6 27z " />
<glyph unicode="&#xe0;" horiz-adv-x="1099" d="M123 260v37q0 122 83 187t273 85l281 27v131q0 113 -58 166t-198 53q-130 0 -234 -57l-22 -176q-15 -6 -35 -6q-10 0 -19.5 1.5t-13.5 3.5l-4 1q-12 96 -12 233q5 3 14 9t40.5 21t67.5 26t95 20.5t123 9.5q205 0 295 -76.5t90 -228.5v-645l149 -21q6 -10 6 -26l-6 -27 q-63 -12 -192 -12q-21 0 -42 2t-32 4l-10 2v109q-5 -5 -15 -13t-44 -29t-73.5 -37t-103 -29t-131.5 -13q-144 0 -208 67.5t-64 200.5zM254 258q0 -93 41 -136.5t141 -43.5q65 0 122.5 13.5t93 32t61 37.5t36.5 33l11 13v305l-260 -27q-134 -15 -190 -61t-56 -131v-35z M287 1430q30 8 65 8q16 0 32 -2t24 -4l8 -2l221 -252q-20 -9 -47 -9q-10 0 -22 2.5t-18 4.5l-7 2z" />
<glyph unicode="&#xe1;" horiz-adv-x="1099" d="M123 260v37q0 122 83 187t273 85l281 27v131q0 113 -58 166t-198 53q-130 0 -234 -57l-22 -176q-15 -6 -35 -6q-10 0 -19.5 1.5t-13.5 3.5l-4 1q-12 96 -12 233q5 3 14 9t40.5 21t67.5 26t95 20.5t123 9.5q205 0 295 -76.5t90 -228.5v-645l149 -21q6 -10 6 -26l-6 -27 q-63 -12 -192 -12q-21 0 -42 2t-32 4l-10 2v109q-5 -5 -15 -13t-44 -29t-73.5 -37t-103 -29t-131.5 -13q-144 0 -208 67.5t-64 200.5zM254 258q0 -93 41 -136.5t141 -43.5q65 0 122.5 13.5t93 32t61 37.5t36.5 33l11 13v305l-260 -27q-134 -15 -190 -61t-56 -131v-35z M379 1178l221 252q29 8 64 8q16 0 32 -2t24 -4l9 -2l-256 -252q-24 -9 -47 -9q-12 0 -23.5 2.5t-17.5 4.5z" />
<glyph unicode="&#xe2;" horiz-adv-x="1099" d="M123 260v37q0 122 83 187t273 85l281 27v131q0 113 -58 166t-198 53q-130 0 -234 -57l-22 -176q-15 -6 -35 -6q-10 0 -19.5 1.5t-13.5 3.5l-4 1q-12 96 -12 233q5 3 14 9t40.5 21t67.5 26t95 20.5t123 9.5q205 0 295 -76.5t90 -228.5v-645l149 -21q6 -10 6 -26l-6 -27 q-63 -12 -192 -12q-21 0 -42 2t-32 4l-10 2v109q-5 -5 -15 -13t-44 -29t-73.5 -37t-103 -29t-131.5 -13q-144 0 -208 67.5t-64 200.5zM236 1194l210 236q29 8 62 8q15 0 30 -2t23 -4l8 -2l211 -236q-20 -8 -47 -8q-10 0 -22 2t-19 4l-6 2l-178 178l-178 -178q-24 -8 -47 -8 q-12 0 -24 2t-17 4zM254 258q0 -93 41 -136.5t141 -43.5q65 0 122.5 13.5t93 32t61 37.5t36.5 33l11 13v305l-260 -27q-134 -15 -190 -61t-56 -131v-35z" />
<glyph unicode="&#xe3;" horiz-adv-x="1099" d="M123 260v37q0 122 83 187t273 85l281 27v131q0 113 -58 166t-198 53q-130 0 -234 -57l-22 -176q-15 -6 -35 -6q-10 0 -19.5 1.5t-13.5 3.5l-4 1q-12 96 -12 233q5 3 14 9t40.5 21t67.5 26t95 20.5t123 9.5q205 0 295 -76.5t90 -228.5v-645l149 -21q6 -10 6 -26l-6 -27 q-63 -12 -192 -12q-21 0 -42 2t-32 4l-10 2v109q-5 -5 -15 -13t-44 -29t-73.5 -37t-103 -29t-131.5 -13q-144 0 -208 67.5t-64 200.5zM209 1260v10q0 84 34.5 125t118.5 41q51 0 92 -18.5t62.5 -40t51.5 -40t63 -18.5q52 0 73 23.5t21 74.5v10q18 9 41 9q10 0 20.5 -2 t15.5 -4l5 -3v-10q0 -84 -34.5 -125t-119.5 -41q-51 0 -92 18t-63 39.5t-52 39.5t-61 18q-53 0 -73.5 -22.5t-20.5 -73.5v-10q-18 -9 -41 -9q-10 0 -20.5 2.5t-15.5 4.5zM254 258q0 -93 41 -136.5t141 -43.5q65 0 122.5 13.5t93 32t61 37.5t36.5 33l11 13v305l-260 -27 q-134 -15 -190 -61t-56 -131v-35z" />
<glyph unicode="&#xe4;" horiz-adv-x="1099" d="M123 260v37q0 122 83 187t273 85l281 27v131q0 113 -58 166t-198 53q-130 0 -234 -57l-22 -176q-15 -6 -35 -6q-10 0 -19.5 1.5t-13.5 3.5l-4 1q-12 96 -12 233q5 3 14 9t40.5 21t67.5 26t95 20.5t123 9.5q205 0 295 -76.5t90 -228.5v-645l149 -21q6 -10 6 -26l-6 -27 q-63 -12 -192 -12q-21 0 -42 2t-32 4l-10 2v109q-5 -5 -15 -13t-44 -29t-73.5 -37t-103 -29t-131.5 -13q-144 0 -208 67.5t-64 200.5zM240 1231v199q22 8 53 8q14 0 27 -2t20 -4l6 -2v-199q-24 -8 -53 -8q-14 0 -27 2t-20 4zM254 258q0 -93 41 -136.5t141 -43.5 q65 0 122.5 13.5t93 32t61 37.5t36.5 33l11 13v305l-260 -27q-134 -15 -190 -61t-56 -131v-35zM670 1231v199q22 8 53 8q14 0 27 -2t20 -4l6 -2v-199q-24 -8 -53 -8q-14 0 -27 2t-20 4z" />
<glyph unicode="&#xe5;" horiz-adv-x="1099" d="M123 260v37q0 122 83 187t273 85l281 27v131q0 113 -58 166t-198 53q-130 0 -234 -57l-22 -176q-15 -6 -35 -6q-10 0 -19.5 1.5t-13.5 3.5l-4 1q-12 96 -12 233q5 3 14 9t40.5 21t67.5 26t95 20.5t123 9.5q205 0 295 -76.5t90 -228.5v-645l149 -21q6 -10 6 -26l-6 -27 q-63 -12 -192 -12q-21 0 -42 2t-32 4l-10 2v109q-5 -5 -15 -13t-44 -29t-73.5 -37t-103 -29t-131.5 -13q-144 0 -208 67.5t-64 200.5zM254 258q0 -93 41 -136.5t141 -43.5q65 0 122.5 13.5t93 32t61 37.5t36.5 33l11 13v305l-260 -27q-134 -15 -190 -61t-56 -131v-35z M344 1268v35q0 137 164 137t164 -137v-35q0 -138 -164 -138t-164 138zM410 1268q0 -41 22.5 -60.5t75.5 -19.5t75.5 19.5t22.5 60.5v35q0 41 -22.5 60t-75.5 19t-75.5 -19t-22.5 -60v-35z" />
<glyph unicode="&#xe6;" horiz-adv-x="1665" d="M123 258v35q0 123 85 188.5t279 87.5l289 31v127q0 113 -60 166t-206 53q-133 0 -244 -57l-20 -176q-14 -6 -37 -6q-9 0 -17.5 1.5t-13.5 3.5l-4 1q-14 96 -14 233q5 3 14 9t41.5 21t69.5 26t98 20.5t127 9.5q262 0 332 -155q64 155 319 155q206 0 292.5 -78t86.5 -233 v-232q-120 -14 -317 -14h-318v-172q0 -117 62 -171t215 -54q94 0 176.5 19t118.5 38l36 19q11 -16 11 -45q0 -11 -3 -22t-5 -16l-3 -5q-4 -3 -12.5 -8t-39 -18t-65.5 -22.5t-93 -17.5t-121 -8q-278 0 -346 168q-85 -168 -437 -168q-146 0 -211 67t-65 199zM254 258 q0 -93 42 -136.5t146 -43.5q180 0 257 54.5t77 170.5v213l-270 -31q-138 -15 -195 -61t-57 -131v-35zM905 559h510v162q0 117 -57 171t-197 54q-142 0 -199 -54t-57 -171v-162z" />
<glyph unicode="&#xe7;" horiz-adv-x="1017" d="M137 303v418q0 154 92.5 232.5t302.5 78.5q68 0 130 -9t101.5 -21.5t70 -25t44.5 -21.5l13 -9q0 -61 -3 -119t-6 -86l-3 -28q-14 -6 -37 -6q-9 0 -17.5 1.5t-12.5 3.5l-5 1l-23 180q-109 53 -252 53q-147 0 -206.5 -54t-59.5 -171v-418q0 -117 63 -171t218 -54 q94 0 177 19t119 38l36 19q10 -16 10 -45q0 -11 -2.5 -22t-4.5 -16l-3 -5q-4 -3 -12.5 -8t-38.5 -17.5t-64.5 -22t-91 -17.5t-117.5 -9v-15q0 -29 14 -46t34.5 -25t40.5 -16.5t34 -29t14 -53.5q0 -68 -43 -105.5t-127 -37.5q-42 0 -76.5 10t-48.5 20l-14 9q-8 13 -8 31 q0 8 2 15.5t4 10.5l2 4q51 -34 127 -34q52 0 76 18.5t24 58.5q0 18 -10 30t-25.5 16.5t-33 12.5t-33 18t-25.5 34t-10 59v17q-178 12 -257 90t-79 219z" />
<glyph unicode="&#xe8;" horiz-adv-x="1073" d="M137 303v418q0 154 94 232.5t308 78.5t304.5 -78t90.5 -233v-232q-127 -14 -334 -14h-334v-172q0 -117 65 -171t226 -54q98 0 185.5 19t125.5 38l39 19q11 -16 11 -45q0 -11 -3 -22t-5 -16l-3 -5q-13 -8 -38 -20.5t-115.5 -33t-196.5 -20.5q-223 0 -321.5 78.5 t-98.5 232.5zM266 559h543v162q0 117 -60.5 171t-209.5 54q-151 0 -212 -54t-61 -171v-162zM313 1430q31 8 66 8q16 0 31.5 -2t23.5 -4l8 -2l222 -252q-21 -9 -48 -9q-9 0 -20.5 2.5t-19.5 4.5l-7 2z" />
<glyph unicode="&#xe9;" horiz-adv-x="1073" d="M137 303v418q0 154 94 232.5t308 78.5t304.5 -78t90.5 -233v-232q-127 -14 -334 -14h-334v-172q0 -117 65 -171t226 -54q98 0 185.5 19t125.5 38l39 19q11 -16 11 -45q0 -11 -3 -22t-5 -16l-3 -5q-13 -8 -38 -20.5t-115.5 -33t-196.5 -20.5q-223 0 -321.5 78.5 t-98.5 232.5zM266 559h543v162q0 117 -60.5 171t-209.5 54q-151 0 -212 -54t-61 -171v-162zM403 1178l224 252q28 8 63 8q15 0 31 -2t25 -4l8 -2l-256 -252q-24 -9 -47 -9q-12 0 -24 2.5t-18 4.5z" />
<glyph unicode="&#xea;" horiz-adv-x="1073" d="M137 303v418q0 154 94 232.5t308 78.5t304.5 -78t90.5 -233v-232q-127 -14 -334 -14h-334v-172q0 -117 65 -171t226 -54q98 0 185.5 19t125.5 38l39 19q11 -16 11 -45q0 -11 -3 -22t-5 -16l-3 -5q-13 -8 -38 -20.5t-115.5 -33t-196.5 -20.5q-223 0 -321.5 78.5 t-98.5 232.5zM262 1194l211 236q29 8 62 8q15 0 30 -2t23 -4l8 -2l211 -236q-20 -8 -47 -8q-10 0 -22 2t-18 4l-7 2l-178 178l-179 -178q-24 -8 -47 -8q-12 0 -24 2t-17 4zM266 559h543v162q0 117 -60.5 171t-209.5 54q-151 0 -212 -54t-61 -171v-162z" />
<glyph unicode="&#xeb;" horiz-adv-x="1073" d="M137 303v418q0 154 94 232.5t308 78.5t304.5 -78t90.5 -233v-232q-127 -14 -334 -14h-334v-172q0 -117 65 -171t226 -54q98 0 185.5 19t125.5 38l39 19q11 -16 11 -45q0 -11 -3 -22t-5 -16l-3 -5q-13 -8 -38 -20.5t-115.5 -33t-196.5 -20.5q-223 0 -321.5 78.5 t-98.5 232.5zM266 559h543v162q0 117 -60.5 171t-209.5 54q-151 0 -212 -54t-61 -171v-162zM266 1231v199q22 8 53 8q14 0 27.5 -2t19.5 -4l7 -2v-199q-25 -8 -54 -8q-14 0 -27 2t-20 4zM696 1231v199q23 8 54 8q14 0 27 -2t19 -4l7 -2v-199q-24 -8 -53 -8q-14 0 -27.5 2 t-20.5 4z" />
<glyph unicode="&#xec;" horiz-adv-x="548" d="M53 1430q31 8 66 8q16 0 31.5 -2t23.5 -4l8 -2l221 -252q-20 -9 -47 -9q-10 0 -22 2.5t-18 4.5l-7 2zM55 35q0 7 1.5 13.5t3.5 9.5l1 3l150 21v860l-150 21q-6 10 -6 26l6 27q62 12 193 12q21 0 42.5 -2t32.5 -4l11 -2v-938l147 -21q7 -10 7 -26q0 -6 -2 -13t-4 -10 l-1 -4q-68 -12 -213 -12q-64 0 -117 3t-75 6l-21 3q-6 13 -6 27z" />
<glyph unicode="&#xed;" horiz-adv-x="555" d="M55 35q0 7 1.5 13.5t3.5 9.5l1 3l150 21v860l-150 21q-6 10 -6 26l6 27q62 12 193 12q21 0 42.5 -2t32.5 -4l11 -2v-938l147 -21q7 -10 7 -26q0 -6 -2 -13t-4 -10l-1 -4q-68 -12 -213 -12q-64 0 -117 3t-75 6l-21 3q-6 13 -6 27zM145 1178l222 252q30 8 65 8q15 0 31 -2 t25 -4l8 -2l-256 -252q-24 -9 -47 -9q-12 0 -24 2.5t-18 4.5z" />
<glyph unicode="&#xee;" horiz-adv-x="548" d="M2 1194l211 236q28 8 61 8q15 0 30.5 -2t23.5 -4l8 -2l211 -236q-20 -8 -47 -8q-10 0 -22 2t-18 4l-7 2l-179 178l-178 -178q-24 -8 -47 -8q-12 0 -24 2t-17 4zM55 35q0 7 1.5 13.5t3.5 9.5l1 3l150 21v860l-150 21q-6 10 -6 26l6 27q62 12 193 12q21 0 42.5 -2t32.5 -4 l11 -2v-938l147 -21q7 -10 7 -26q0 -6 -2 -13t-4 -10l-1 -4q-68 -12 -213 -12q-64 0 -117 3t-75 6l-21 3q-6 13 -6 27z" />
<glyph unicode="&#xef;" horiz-adv-x="548" d="M55 35q0 7 1.5 13.5t3.5 9.5l1 3l150 21v860l-150 21q-6 10 -6 26l6 27q62 12 193 12q21 0 42.5 -2t32.5 -4l11 -2v-938l147 -21q7 -10 7 -26q0 -6 -2 -13t-4 -10l-1 -4q-68 -12 -213 -12q-64 0 -117 3t-75 6l-21 3q-6 13 -6 27zM68 1231v199q22 8 53 8q14 0 27 -2t20 -4 l6 -2v-199q-24 -8 -53 -8q-14 0 -27 2t-20 4zM375 1231v199q24 8 55 8q13 0 26 -2t20 -4l7 -2v-199q-24 -8 -53 -8q-14 0 -27.5 2t-20.5 4z" />
<glyph unicode="&#xf0;" horiz-adv-x="1058" d="M137 303v418q0 154 71.5 232.5t233.5 78.5q69 0 132.5 -12.5t105.5 -30t74 -35.5t46 -30l15 -13v115q0 123 -151 213l-99 -100q-26 -9 -51 -9q-13 0 -25.5 2t-18.5 4l-7 3l131 135q-76 34 -171.5 58.5t-152.5 31.5l-57 8q-8 16 -8 43q0 12 2 22.5t4 14.5l2 4q28 -2 75 -7 t167.5 -32t212.5 -67l77 80q25 8 54 8q13 0 26 -2t20 -4l7 -2l-113 -115q205 -110 205 -289v-723q0 -153 -95.5 -232t-305.5 -79q-213 0 -309.5 79t-96.5 232zM264 303q0 -116 63.5 -170.5t213.5 -54.5q148 0 211 54.5t63 170.5v514q-4 5 -11.5 14t-36.5 31t-64 39t-95.5 31 t-128.5 14q-119 0 -167 -54t-48 -171v-418z" />
<glyph unicode="&#xf1;" horiz-adv-x="1206" d="M55 35q0 7 1.5 13.5t3.5 9.5l1 3l150 21v860l-150 21q-6 10 -6 26l6 27q62 12 193 12q20 0 41.5 -2t32.5 -4l12 -2v-109q5 5 14.5 13t43 29t71.5 37t99 29t126 13q161 0 232 -78t71 -233v-639l148 -21q6 -10 6 -26l-6 -27q-62 -12 -193 -12q-20 0 -41 2t-32 4l-11 2v717 q0 117 -47.5 171t-165.5 54q-47 0 -89.5 -7t-73.5 -18.5t-57 -25t-43 -27.5t-29.5 -25.5t-17.5 -18.5l-5 -7v-735l147 -21q7 -10 7 -26q0 -6 -2 -13t-4 -10l-1 -4q-70 -12 -213 -12q-64 0 -117 3t-75 6l-21 3q-6 13 -6 27zM303 1260v10q0 84 35 125t119 41q51 0 91.5 -18.5 t62 -40t51.5 -40t63 -18.5q52 0 73 23.5t21 74.5v10q18 9 41 9q10 0 20.5 -2t15.5 -4l5 -3v-10q0 -84 -34 -125t-119 -41q-42 0 -76.5 12t-57 28.5t-42.5 33.5t-43.5 29t-49.5 12q-53 0 -73.5 -22.5t-20.5 -73.5v-10q-21 -9 -41 -9q-10 0 -20.5 2.5t-15.5 4.5z" />
<glyph unicode="&#xf2;" horiz-adv-x="1089" d="M137 303v418q0 153 97.5 232t310.5 79q214 0 311.5 -79t97.5 -232v-418q0 -153 -97.5 -232t-311.5 -79q-213 0 -310.5 79t-97.5 232zM266 303q0 -116 64.5 -170.5t214.5 -54.5q151 0 214.5 54.5t63.5 170.5v418q0 116 -63.5 170.5t-214.5 54.5q-150 0 -214.5 -54.5 t-64.5 -170.5v-418zM324 1430q30 8 65 8q16 0 32 -2t24 -4l8 -2l221 -252q-20 -9 -47 -9q-9 0 -20.5 2.5t-18.5 4.5l-8 2z" />
<glyph unicode="&#xf3;" horiz-adv-x="1089" d="M137 303v418q0 153 97.5 232t310.5 79q214 0 311.5 -79t97.5 -232v-418q0 -153 -97.5 -232t-311.5 -79q-213 0 -310.5 79t-97.5 232zM266 303q0 -116 64.5 -170.5t214.5 -54.5q151 0 214.5 54.5t63.5 170.5v418q0 116 -63.5 170.5t-214.5 54.5q-150 0 -214.5 -54.5 t-64.5 -170.5v-418zM414 1178l223 252q28 8 63 8q15 0 31 -2t25 -4l8 -2l-256 -252q-24 -9 -47 -9q-12 0 -23.5 2.5t-17.5 4.5z" />
<glyph unicode="&#xf4;" horiz-adv-x="1089" d="M137 303v418q0 153 97.5 232t310.5 79q214 0 311.5 -79t97.5 -232v-418q0 -153 -97.5 -232t-311.5 -79q-213 0 -310.5 79t-97.5 232zM266 303q0 -116 64.5 -170.5t214.5 -54.5q151 0 214.5 54.5t63.5 170.5v418q0 116 -63.5 170.5t-214.5 54.5q-150 0 -214.5 -54.5 t-64.5 -170.5v-418zM272 1194l211 236q29 8 62 8q15 0 30 -2t23 -4l8 -2l211 -236q-20 -8 -47 -8q-10 0 -22 2t-18 4l-7 2l-178 178l-178 -178q-25 -8 -48 -8q-12 0 -24 2t-17 4z" />
<glyph unicode="&#xf5;" horiz-adv-x="1089" d="M137 303v418q0 153 97.5 232t310.5 79q214 0 311.5 -79t97.5 -232v-418q0 -153 -97.5 -232t-311.5 -79q-213 0 -310.5 79t-97.5 232zM246 1260v10q0 84 34.5 125t118.5 41q51 0 92 -18.5t63 -40t52 -40t62 -18.5q52 0 73 23.5t21 74.5v10q20 9 43 9q9 0 19 -2t16 -4l6 -3 v-10q0 -84 -35 -125t-121 -41q-42 0 -76 12t-56.5 28.5t-42.5 33.5t-43.5 29t-49.5 12q-53 0 -73.5 -22.5t-20.5 -73.5v-10q-18 -9 -41 -9q-10 0 -20.5 2.5t-15.5 4.5zM266 303q0 -116 64.5 -170.5t214.5 -54.5q151 0 214.5 54.5t63.5 170.5v418q0 116 -63.5 170.5 t-214.5 54.5q-150 0 -214.5 -54.5t-64.5 -170.5v-418z" />
<glyph unicode="&#xf6;" horiz-adv-x="1089" d="M137 303v418q0 153 97.5 232t310.5 79q214 0 311.5 -79t97.5 -232v-418q0 -153 -97.5 -232t-311.5 -79q-213 0 -310.5 79t-97.5 232zM266 303q0 -116 64.5 -170.5t214.5 -54.5q151 0 214.5 54.5t63.5 170.5v418q0 116 -63.5 170.5t-214.5 54.5q-150 0 -214.5 -54.5 t-64.5 -170.5v-418zM276 1231v199q23 8 54 8q14 0 27 -2t19 -4l7 -2v-199q-24 -8 -53 -8q-14 0 -27.5 2t-20.5 4zM707 1231v199q22 8 53 8q14 0 27 -2t19 -4l7 -2v-199q-24 -8 -53 -8q-14 0 -27 2t-19 4z" />
<glyph unicode="&#xf7;" horiz-adv-x="876" d="M94 610q0 11 2 21.5t4 14.5l2 5h672q8 -16 8 -41q0 -12 -2 -22.5t-4 -15.5l-2 -5h-672q-8 16 -8 43zM385 229v177q24 6 53 6l54 -6v-177q-27 -6 -54 -6zM385 815v174q24 8 53 8q12 0 25.5 -2t20.5 -4l8 -2v-174q-27 -8 -54 -8q-13 0 -26 2t-20 4z" />
<glyph unicode="&#xf8;" horiz-adv-x="1107" d="M141 4l68 98q-64 76 -64 201v418q0 153 97.5 232t310.5 79q170 0 270 -53l29 41q20 8 47 8q12 0 24.5 -2t18.5 -4l6 -2l-61 -88q76 -76 76 -211v-418q0 -153 -98 -232t-312 -79q-188 0 -283 59l-32 -47q-25 -8 -48 -8q-13 0 -25 2t-18 4zM264 303q0 -59 15 -102l489 700 q-66 51 -215 51q-157 0 -223 -56t-66 -175v-418zM326 131q68 -59 227 -59q157 0 224 56t67 175v418q0 63 -23 117z" />
<glyph unicode="&#xf9;" horiz-adv-x="1214" d="M55 989l6 27q62 12 193 12q20 0 41.5 -2t32.5 -4l12 -2v-717q0 -117 46.5 -171t162.5 -54q66 0 124 13.5t93 32t61 37.5t37 33l10 13v735l-147 21q-6 10 -6 26l6 27q62 12 193 12q20 0 41 -2t32 -4l11 -2v-938l149 -21q6 -10 6 -26l-6 -27q-61 -12 -192 -12 q-20 0 -41.5 2t-33.5 4l-12 2v109q-5 -5 -14.5 -13t-44 -29t-73 -37t-101.5 -29t-131 -13q-159 0 -229 78.5t-70 232.5v639l-150 21q-6 10 -6 26zM383 1430q33 8 66 8q16 0 31.5 -2t23.5 -4l8 -2l221 -252q-20 -9 -45 -9q-10 0 -22 2.5t-18 4.5l-7 2z" />
<glyph unicode="&#xfa;" horiz-adv-x="1214" d="M55 989l6 27q62 12 193 12q20 0 41.5 -2t32.5 -4l12 -2v-717q0 -117 46.5 -171t162.5 -54q66 0 124 13.5t93 32t61 37.5t37 33l10 13v735l-147 21q-6 10 -6 26l6 27q62 12 193 12q20 0 41 -2t32 -4l11 -2v-938l149 -21q6 -10 6 -26l-6 -27q-61 -12 -192 -12 q-20 0 -41.5 2t-33.5 4l-12 2v109q-5 -5 -14.5 -13t-44 -29t-73 -37t-101.5 -29t-131 -13q-159 0 -229 78.5t-70 232.5v639l-150 21q-6 10 -6 26zM475 1178l223 252q29 8 64 8q15 0 30.5 -2t23.5 -4l9 -2l-256 -252q-24 -9 -47 -9q-12 0 -23.5 2.5t-17.5 4.5z" />
<glyph unicode="&#xfb;" horiz-adv-x="1214" d="M55 989l6 27q62 12 193 12q20 0 41.5 -2t32.5 -4l12 -2v-717q0 -117 46.5 -171t162.5 -54q66 0 124 13.5t93 32t61 37.5t37 33l10 13v735l-147 21q-6 10 -6 26l6 27q62 12 193 12q20 0 41 -2t32 -4l11 -2v-938l149 -21q6 -10 6 -26l-6 -27q-61 -12 -192 -12 q-20 0 -41.5 2t-33.5 4l-12 2v109q-5 -5 -14.5 -13t-44 -29t-73 -37t-101.5 -29t-131 -13q-159 0 -229 78.5t-70 232.5v639l-150 21q-6 10 -6 26zM332 1194l211 236q28 8 61 8q15 0 30.5 -2t23.5 -4l8 -2l211 -236q-21 -8 -48 -8q-9 0 -20.5 2t-18.5 4l-8 2l-178 178 l-178 -178q-24 -8 -47 -8q-12 0 -24 2t-17 4z" />
<glyph unicode="&#xfc;" horiz-adv-x="1214" d="M55 989l6 27q62 12 193 12q20 0 41.5 -2t32.5 -4l12 -2v-717q0 -117 46.5 -171t162.5 -54q66 0 124 13.5t93 32t61 37.5t37 33l10 13v735l-147 21q-6 10 -6 26l6 27q62 12 193 12q20 0 41 -2t32 -4l11 -2v-938l149 -21q6 -10 6 -26l-6 -27q-61 -12 -192 -12 q-20 0 -41.5 2t-33.5 4l-12 2v109q-5 -5 -14.5 -13t-44 -29t-73 -37t-101.5 -29t-131 -13q-159 0 -229 78.5t-70 232.5v639l-150 21q-6 10 -6 26zM336 1231v199q22 8 53 8q14 0 27.5 -2t20.5 -4l7 -2v-199q-24 -8 -55 -8q-14 0 -27 2t-20 4zM766 1231v199q22 8 53 8 q14 0 27.5 -2t20.5 -4l7 -2v-199q-24 -8 -55 -8q-14 0 -27 2t-20 4z" />
<glyph unicode="&#xfd;" horiz-adv-x="1212" d="M31 989l6 27q67 12 178 12q61 0 112 -3t72 -6l21 -3q6 -13 6 -27q0 -7 -1.5 -13.5t-2.5 -9.5l-2 -3l-121 -17l307 -835l303 835l-116 17q-7 10 -7 26q0 6 2 13t4 10l1 4q67 12 204 12q49 0 94 -3t65 -6l20 -3q6 -13 6 -27q0 -7 -1.5 -13.5t-2.5 -9.5l-2 -3l-142 -21 l-409 -1100q-49 -132 -129 -196t-213 -64q-30 0 -58 3t-41 6l-12 3q-10 16 -10 41q0 11 2.5 22t5.5 16l2 5q41 -10 113 -10q83 0 135.5 42t85.5 130l59 160l-39 4l-350 938l-139 21q-6 10 -6 26zM465 1178l221 252q29 8 64 8q16 0 32 -2t24 -4l9 -2l-256 -252q-24 -9 -47 -9 q-12 0 -23.5 2.5t-17.5 4.5z" />
<glyph unicode="&#xfe;" horiz-adv-x="1069" d="M6 -375q0 7 1.5 14t2.5 10l2 3l148 20v1680l-148 20q-6 11 -6 27l6 26q62 13 193 13q21 0 42 -2t31 -4l11 -2v-519q5 5 14.5 13t43.5 29t72.5 37t100.5 29t129 13q157 0 227 -78.5t70 -232.5v-418q0 -154 -80.5 -232.5t-263.5 -78.5q-69 0 -125.5 10t-89 23.5t-56 30.5 t-31.5 27t-11 17v-428l149 -20q6 -11 6 -27l-6 -26q-68 -13 -213 -13q-64 0 -117.5 3t-74.5 7l-21 3q-6 12 -6 26zM289 303q0 -116 67 -170.5t226 -54.5q131 0 183 54t52 171v418q0 117 -46 171t-159 54q-65 0 -122.5 -13.5t-92.5 -32t-61 -37.5t-36 -33l-11 -13v-514z" />
<glyph unicode="&#xff;" horiz-adv-x="1212" d="M31 989l6 27q67 12 178 12q61 0 112 -3t72 -6l21 -3q6 -13 6 -27q0 -7 -1.5 -13.5t-2.5 -9.5l-2 -3l-121 -17l307 -835l303 835l-116 17q-7 10 -7 26q0 6 2 13t4 10l1 4q67 12 204 12q49 0 94 -3t65 -6l20 -3q6 -13 6 -27q0 -7 -1.5 -13.5t-2.5 -9.5l-2 -3l-142 -21 l-409 -1100q-49 -132 -129 -196t-213 -64q-30 0 -58 3t-41 6l-12 3q-10 16 -10 41q0 11 2.5 22t5.5 16l2 5q41 -10 113 -10q83 0 135.5 42t85.5 130l59 160l-39 4l-350 938l-139 21q-6 10 -6 26zM326 1231v199q22 8 53 8q14 0 27 -2t20 -4l6 -2v-199q-24 -8 -53 -8 q-14 0 -27 2t-20 4zM756 1231v199q22 8 53 8q14 0 27 -2t20 -4l6 -2v-199q-24 -8 -53 -8q-14 0 -27 2t-20 4z" />
<glyph unicode="&#x152;" horiz-adv-x="1695" d="M121 317v799q0 160 117.5 242t373.5 82q128 0 318 -19q163 13 340 13h332q8 -27 8 -64q0 -72 -3 -128t-7 -76l-3 -19q-10 -6 -28 -6l-29 6l-27 196h-532v-561h551q8 -18 8 -45q0 -12 -2 -23.5t-4 -16.5l-2 -5h-551v-602h543l26 197q13 6 29 6q8 0 15.5 -1.5t10.5 -3.5 l3 -1q12 -62 12 -224q0 -16 -2 -32t-4 -23l-2 -8h-342q-202 0 -340 12q-90 -18 -318 -18q-256 0 -373.5 81.5t-117.5 241.5zM256 317q0 -121 82 -178t274 -57h238v1270h-238q-192 0 -274 -57t-82 -179v-799z" />
<glyph unicode="&#x153;" horiz-adv-x="1759" d="M137 303v418q0 153 97.5 232t310.5 79q275 0 342 -160q67 160 338 160q110 0 187.5 -20.5t122.5 -61.5t65 -97t20 -132v-232q-127 -14 -332 -14h-334v-172q0 -117 65 -171t226 -54q98 0 185.5 19t125.5 38l39 19q11 -16 11 -45q0 -11 -3 -22t-5 -16l-3 -5 q-13 -8 -38.5 -20.5t-116 -33t-195.5 -20.5q-283 0 -356 162q-67 -162 -344 -162q-213 0 -310.5 79t-97.5 232zM266 303q0 -116 64.5 -170.5t214.5 -54.5q151 0 214.5 54.5t63.5 170.5v418q0 116 -63.5 170.5t-214.5 54.5q-150 0 -214.5 -54.5t-64.5 -170.5v-418zM954 559 h543v162q0 117 -61 171t-211 54q-149 0 -210 -54t-61 -171v-162z" />
<glyph unicode="&#x178;" horiz-adv-x="1359" d="M33 1397q0 7 1.5 14t3.5 11l1 3q76 13 197 13q84 0 150 -3t90 -7l24 -3q8 -12 8 -28q0 -9 -2 -16.5t-4 -10.5l-2 -4l-154 -14l334 -623l332 623l-154 14q-6 11 -6 31q0 7 1.5 14t2.5 11l2 3q74 13 264 13q55 0 104.5 -3t71.5 -7l23 -3q6 -12 6 -28q0 -9 -1.5 -16.5 t-3.5 -10.5l-1 -4l-168 -16l-405 -729v-537l165 -16q7 -11 7 -31q0 -7 -2 -14.5t-4 -10.5l-1 -4q-75 -12 -233 -12q-71 0 -129.5 3t-81.5 6l-23 3q-6 13 -6 29q0 9 1.5 16.5t2.5 10.5l2 4l166 16v534l-407 732l-166 16q-6 11 -6 31zM410 1540v199q24 8 55 8q14 0 27 -2 t20 -4l6 -2v-199q-24 -8 -53 -8q-14 0 -27.5 2t-20.5 4zM840 1540v199q24 8 55 8q14 0 27 -2t20 -4l6 -2v-199q-24 -8 -53 -8q-14 0 -27.5 2t-20.5 4z" />
<glyph unicode="&#x2c6;" horiz-adv-x="423" d="M-61 1194l211 236q28 8 61 8q15 0 30 -2t23 -4l8 -2l211 -236q-20 -8 -47 -8q-9 0 -20.5 2t-19.5 4l-7 2l-178 178l-178 -178q-24 -8 -47 -8q-12 0 -24 2t-18 4z" />
<glyph unicode="&#x2dc;" horiz-adv-x="827" d="M115 1260v10q0 84 34.5 125t118.5 41q51 0 92 -18.5t63 -40t52 -40t62 -18.5q52 0 73 23.5t21 74.5v10q20 9 43 9q9 0 18.5 -2t15.5 -4l5 -3v-10q0 -84 -34.5 -125t-119.5 -41q-51 0 -92 18t-63 39.5t-52 39.5t-61 18q-53 0 -73.5 -22.5t-20.5 -73.5v-10q-18 -9 -41 -9 q-10 0 -20.5 2.5t-15.5 4.5z" />
<glyph unicode="&#x2000;" horiz-adv-x="916" />
<glyph unicode="&#x2001;" horiz-adv-x="1833" />
<glyph unicode="&#x2002;" horiz-adv-x="916" />
<glyph unicode="&#x2003;" horiz-adv-x="1833" />
<glyph unicode="&#x2004;" horiz-adv-x="611" />
<glyph unicode="&#x2005;" horiz-adv-x="458" />
<glyph unicode="&#x2006;" horiz-adv-x="305" />
<glyph unicode="&#x2007;" horiz-adv-x="305" />
<glyph unicode="&#x2008;" horiz-adv-x="229" />
<glyph unicode="&#x2009;" horiz-adv-x="366" />
<glyph unicode="&#x200a;" horiz-adv-x="101" />
<glyph unicode="&#x2010;" horiz-adv-x="622" d="M94 586q0 12 2 23t4 15l2 5h418q8 -16 8 -43q0 -11 -2 -22t-4 -16l-2 -5h-418q-8 18 -8 43z" />
<glyph unicode="&#x2011;" horiz-adv-x="622" d="M94 586q0 12 2 23t4 15l2 5h418q8 -16 8 -43q0 -11 -2 -22t-4 -16l-2 -5h-418q-8 18 -8 43z" />
<glyph unicode="&#x2012;" horiz-adv-x="622" d="M94 586q0 12 2 23t4 15l2 5h418q8 -16 8 -43q0 -11 -2 -22t-4 -16l-2 -5h-418q-8 18 -8 43z" />
<glyph unicode="&#x2013;" horiz-adv-x="1032" d="M94 586q0 12 2 23t4 15l2 5h828q8 -16 8 -43q0 -11 -2 -22t-4 -16l-2 -5h-828q-8 18 -8 43z" />
<glyph unicode="&#x2014;" horiz-adv-x="1339" d="M94 586q0 12 2 23t4 15l2 5h1135q8 -16 8 -43q0 -11 -2 -22t-4 -16l-2 -5h-1135q-8 18 -8 43z" />
<glyph unicode="&#x2018;" horiz-adv-x="401" d="M141 1040q0 80 13 149.5t32 111.5t37.5 73t31.5 44l13 12q19 8 37 8q9 0 18 -2t14 -4l5 -2q-4 -5 -10 -14.5t-22 -45t-28 -76.5t-22 -109.5t-10 -144.5q-26 -8 -53 -8q-13 0 -27 2t-22 4z" />
<glyph unicode="&#x2019;" horiz-adv-x="401" d="M59 1040q4 5 10 14.5t22 44.5t28.5 76t22.5 110t10 145q26 8 55 8q12 0 25.5 -2t20.5 -4l7 -2q0 -80 -13 -149.5t-32 -111.5t-37.5 -73t-31.5 -44l-13 -12q-19 -8 -37 -8q-9 0 -18 2t-14 4z" />
<glyph unicode="&#x201a;" horiz-adv-x="401" d="M59 -199q4 5 10 14.5t22 44t28.5 75.5t22.5 109t10 144q26 9 55 9q12 0 25.5 -2.5t20.5 -4.5l7 -2q0 -79 -13 -148t-32 -111t-37.5 -72.5t-31.5 -42.5l-13 -13q-19 -8 -37 -8q-9 0 -18 2t-14 4z" />
<glyph unicode="&#x201c;" horiz-adv-x="638" d="M141 1040q0 80 13 149.5t32 111.5t37.5 73t31.5 44l13 12q19 8 37 8q9 0 18 -2t14 -4l5 -2q-4 -5 -10 -14.5t-22 -45t-28 -76.5t-22 -109.5t-10 -144.5q-26 -8 -53 -8q-13 0 -27 2t-22 4zM381 1040q0 80 13 149.5t31.5 111.5t36.5 73t31 44l13 12q19 8 39 8q8 0 17.5 -2 t14.5 -4l5 -2q-4 -5 -10.5 -14.5t-22.5 -45t-28.5 -76.5t-23 -109.5t-10.5 -144.5q-24 -8 -53 -8q-13 0 -26 2t-20 4z" />
<glyph unicode="&#x201d;" horiz-adv-x="638" d="M59 1040q4 5 10 14.5t22 44.5t28.5 76t22.5 110t10 145q26 8 55 8q12 0 25.5 -2t20.5 -4l7 -2q0 -80 -13 -149.5t-32 -111.5t-37.5 -73t-31.5 -44l-13 -12q-19 -8 -37 -8q-9 0 -18 2t-14 4zM297 1040q4 5 10 14.5t22.5 44.5t29 76t22.5 110t10 145q24 8 53 8 q13 0 26.5 -2t20.5 -4l7 -2q0 -80 -13 -149.5t-32 -111.5t-37.5 -73t-31.5 -44l-13 -12q-19 -8 -37 -8q-9 0 -18 2t-14 4z" />
<glyph unicode="&#x201e;" horiz-adv-x="638" d="M59 -199q4 5 10 14.5t22 44t28.5 75.5t22.5 109t10 144q26 9 55 9q12 0 25.5 -2.5t20.5 -4.5l7 -2q0 -79 -13 -148t-32 -111t-37.5 -72.5t-31.5 -42.5l-13 -13q-19 -8 -37 -8q-9 0 -18 2t-14 4zM297 -199q4 5 10 14.5t22.5 44t29 75.5t22.5 109t10 144q24 9 53 9 q13 0 26.5 -2.5t20.5 -4.5l7 -2q0 -79 -13.5 -148t-32 -111t-37.5 -72.5t-33 -42.5l-13 -13q-19 -8 -35 -8q-9 0 -18 2t-14 4z" />
<glyph unicode="&#x2022;" horiz-adv-x="610" d="M66 614q0 46 3 95t6 75l3 25q103 16 205 16q45 0 96 -4t79 -8l29 -4q13 -91 13 -195q0 -45 -3 -93.5t-7 -74.5l-3 -26q-102 -17 -204 -17q-45 0 -96.5 4.5t-80.5 8.5l-28 4q-12 88 -12 194z" />
<glyph unicode="&#x2026;" horiz-adv-x="1150" d="M143 4v189q31 10 66 10q15 0 31 -2.5t25 -4.5l9 -3v-189q-32 -8 -65 -8q-16 0 -32.5 2t-24.5 4zM510 4v189q30 10 65 10q15 0 31.5 -2.5t25.5 -4.5l9 -3v-189q-33 -8 -66 -8q-16 0 -32 2t-25 4zM877 4v189q30 10 65 10q15 0 31.5 -2.5t25.5 -4.5l9 -3v-189q-33 -8 -66 -8 q-16 0 -32 2t-24 4z" />
<glyph unicode="&#x202f;" horiz-adv-x="366" />
<glyph unicode="&#x2039;" horiz-adv-x="618" d="M94 553l367 365q19 -7 37 -25q8 -7 14.5 -16t9.5 -14l2 -5l-303 -305l303 -303q-6 -19 -24 -37q-8 -8 -18 -14.5t-16 -8.5l-5 -2z" />
<glyph unicode="&#x203a;" horiz-adv-x="618" d="M94 250l303 303l-303 305q9 19 27 35q5 5 10.5 9.5t10 7t8.5 4.5l6 3l2 1l366 -365l-366 -365q-2 -4 -19.5 11t-33 32.5t-11.5 18.5z" />
<glyph unicode="&#x205f;" horiz-adv-x="458" />
<glyph unicode="&#x20ac;" horiz-adv-x="1236" d="M61 580q0 11 2.5 21.5t4.5 14.5l2 5h112v184h-110q-9 16 -9 43q0 12 2.5 23t4.5 15l2 5h110v225q0 162 111 244t364 82q92 0 173 -14t130 -34t85 -39.5t51 -33.5l14 -14q0 -63 -3 -123.5t-6 -89.5l-3 -29q-16 -6 -39 -6q-10 0 -20 1.5t-15 3.5l-4 1l-21 190 q-5 4 -14.5 10.5t-42 23t-69 29.5t-95.5 23.5t-121 10.5q-188 0 -265 -56.5t-77 -179.5v-225h553q9 -16 9 -43q0 -11 -2.5 -22t-4.5 -16l-2 -5h-553v-184h551q11 -16 11 -41q0 -12 -2.5 -23t-5.5 -15l-3 -5h-551v-220q0 -122 80 -178.5t277 -56.5q76 0 148 9.5t120.5 22.5 t86.5 27t55.5 23t17.5 10q10 -18 10 -47q0 -13 -2.5 -24.5t-5.5 -16.5l-2 -6q-6 -4 -17 -9.5t-50.5 -21t-85 -27t-120 -21t-155.5 -9.5q-260 0 -375 82t-115 243v220h-112q-9 16 -9 43z" />
<glyph unicode="&#x2122;" horiz-adv-x="1390" d="M66 1405q0 8 1.5 15.5t2.5 10.5l2 3h489q4 -11 4 -29l-4 -29h-199v-657q-25 -4 -45 -4l-45 4v657h-200q-6 11 -6 29zM655 719v711q0 4 58 4l59 -4l211 -490l215 492q26 4 55 4l60 -4v-713q-20 -4 -43 -4l-41 4v588l-207 -469q-16 -4 -39 -4l-41 4l-201 467v-586 q-23 -4 -43 -4z" />
<glyph unicode="&#x25fc;" horiz-adv-x="1024" d="M0 0v1024h1024v-1024h-1024z" />
</font>
</defs>
</svg>
