<?xml version="1.0" standalone="no"?>
<!DOCTYPE svg PUBLIC "-//W3C//DTD SVG 1.1//EN" "http://www.w3.org/Graphics/SVG/1.1/DTD/svg11.dtd" >
<svg xmlns="http://www.w3.org/2000/svg">
<metadata></metadata>
<defs>
<font id="pancetta_serif_probold_italic" horiz-adv-x="1441" >
<font-face units-per-em="2048" ascent="1536" descent="-512" />
<missing-glyph horiz-adv-x="454" />
<glyph unicode="&#xfb01;" horiz-adv-x="1318" d="M-82 -391q-4 35 2 78q4 19 10 39t10 30l5 11q25 -17 92 -17q60 0 87.5 32t39.5 109l149 963l-131 33q-1 2 -2 7t-2 20.5t2 31.5q3 15 8.5 29.5t9.5 21.5l5 7q49 14 137 14l14 104q27 162 113 244t248 82q123 0 231 -27q4 -41 -4 -84q-3 -19 -9 -39t-11 -30l-4 -11 q-4 2 -18.5 6t-42.5 7.5t-58 3.5q-66 0 -97 -35t-45 -117l-12 -98q188 6 492 6q40 0 82.5 -3t64.5 -6l23 -3l-117 -758q-9 -55 4 -77.5t57 -22.5q28 0 52 8q5 -35 -3 -76q-3 -18 -9 -37t-11 -29l-4 -10q-79 -30 -170 -30q-141 0 -192 69t-27 205l90 600l-363 -10l-147 -959 q-27 -158 -108.5 -236.5t-237.5 -78.5q-52 0 -101.5 8t-73 15t-28.5 10zM1030 1188l39 239q78 13 154 13q34 0 71 -3t58 -7l20 -3l-39 -239q-79 -14 -155 -14q-34 0 -71 3.5t-57 6.5z" />
<glyph unicode="&#xfb02;" horiz-adv-x="1318" d="M-82 -391q-4 35 2 78q4 19 10 39t10 30l5 11q25 -17 92 -17q60 0 87.5 32t39.5 109l149 963l-131 33q-1 2 -2 7t-2 20.5t2 31.5q3 15 8.5 29.5t9.5 21.5l5 7q49 14 137 14l14 104q27 162 114.5 244t250.5 82q150 0 231 -27q104 19 252 19q40 0 82.5 -3t65.5 -7l22 -3 l-182 -1167q-9 -55 4 -77.5t57 -22.5q28 0 52 8q5 -35 -3 -76q-3 -18 -9 -37t-11 -29l-4 -10q-79 -30 -170 -30q-141 0 -192 69t-27 205l155 1008l-133 26q-116 0 -176.5 -41.5t-75.5 -130.5l-12 -98h238q6 -35 -2 -86q-4 -24 -11 -46t-12 -32l-6 -10h-238l-147 -959 q-27 -158 -108.5 -236.5t-237.5 -78.5q-52 0 -101.5 8t-73 15t-28.5 10z" />
<glyph unicode="&#xfb03;" horiz-adv-x="1982" d="M-82 -391q-4 35 2 78q4 19 10 39t10 30l5 11q25 -17 92 -17q60 0 87.5 32t39.5 109l149 963l-131 33q-1 2 -2 7t-2 20.5t2 31.5q3 15 8.5 29.5t9.5 21.5l5 7q49 14 137 14l14 104q27 162 113 244t248 82q123 0 231 -27q4 -41 -4 -84q-3 -19 -9 -39t-11 -30l-4 -11 q-4 2 -18.5 6t-42.5 7.5t-58 3.5q-66 0 -97 -35t-45 -117l-12 -98h361l12 98q27 163 112.5 244.5t249.5 81.5q122 0 230 -27q4 -41 -4 -84q-3 -19 -9 -39t-11 -30l-5 -11q-4 2 -18.5 6t-42.5 7.5t-58 3.5q-66 0 -96.5 -35t-44.5 -117l-12 -98q175 6 491 6q40 0 82.5 -3 t65.5 -6l22 -3l-117 -758q-8 -55 5.5 -77.5t56.5 -22.5q27 0 51 8q6 -35 -2 -76q-3 -18 -9 -37t-11 -29l-5 -10q-79 -30 -170 -30q-141 0 -192 69t-27 205l90 600l-362 -10l-148 -959q-27 -158 -108.5 -236.5t-237.5 -78.5q-52 0 -101.5 7.5t-73.5 15t-29 10.5q-4 35 2 78 q4 19 10.5 39t11.5 30l4 11q3 -3 12 -6.5t31 -7t49 -3.5q60 0 88 32t39 109l148 959h-361l-147 -959q-27 -158 -108.5 -236.5t-237.5 -78.5q-52 0 -101.5 8t-73 15t-28.5 10zM1694 1188l39 239q77 13 153 13q34 0 71.5 -3t58.5 -7l20 -3l-39 -239q-78 -14 -154 -14 q-35 0 -72 3.5t-57 6.5z" />
<glyph unicode="&#xfb04;" horiz-adv-x="1982" d="M-82 -391q-4 35 2 78q4 19 10 39t10 30l5 11q25 -17 92 -17q60 0 87.5 32t39.5 109l149 963l-131 33q-1 2 -2 7t-2 20.5t2 31.5q3 15 8.5 29.5t9.5 21.5l5 7q49 14 137 14l14 104q27 162 113 244t248 82q123 0 231 -27q4 -41 -4 -84q-3 -19 -9 -39t-11 -30l-4 -11 q-4 2 -18.5 6t-42.5 7.5t-58 3.5q-66 0 -97 -35t-45 -117l-12 -98h361l12 98q27 162 114.5 244t251.5 82q149 0 230 -27q105 19 252 19q40 0 82.5 -3t65.5 -7l22 -3l-183 -1167q-8 -55 5.5 -77.5t56.5 -22.5q27 0 51 8q6 -35 -2 -76q-3 -18 -9 -37t-11 -29l-5 -10 q-79 -30 -170 -30q-141 0 -192 69t-27 205l156 1008l-131 26q-119 0 -179 -41t-75 -131l-12 -98h239q4 -35 -4 -86q-4 -24 -10.5 -46t-11.5 -32l-4 -10h-240l-148 -959q-27 -158 -108.5 -236.5t-237.5 -78.5q-52 0 -101.5 7.5t-73.5 15t-29 10.5q-4 35 2 78q4 19 10.5 39 t11.5 30l4 11q3 -3 12 -6.5t31 -7t49 -3.5q60 0 88 32t39 109l148 959h-361l-147 -959q-27 -158 -108.5 -236.5t-237.5 -78.5q-52 0 -101.5 8t-73 15t-28.5 10z" />
<glyph horiz-adv-x="2048" />
<glyph horiz-adv-x="2048" />
<glyph unicode="&#xd;" horiz-adv-x="2048" />
<glyph unicode=" "  horiz-adv-x="454" />
<glyph unicode="&#x09;" horiz-adv-x="454" />
<glyph unicode="&#xa0;" horiz-adv-x="454" />
<glyph unicode="!" horiz-adv-x="493" d="M94 6l43 254q78 12 154 12q35 0 72.5 -3t58.5 -6l20 -3l-43 -254q-77 -12 -153 -12q-35 0 -73 3t-59 6zM166 446l156 981q75 13 153 13q34 0 71.5 -3t57.5 -7l21 -3l-156 -981q-78 -14 -154 -14q-34 0 -71 3.5t-58 6.5z" />
<glyph unicode="&#x22;" horiz-adv-x="679" d="M260 1001l45 426q56 13 113 13q24 0 51 -3t42 -7l15 -3l-94 -426q-45 -14 -88 -14q-19 0 -40 3.5t-32 7.5zM561 1001l45 426q56 13 113 13q24 0 51 -3t42 -7l15 -3l-94 -426q-43 -14 -86 -14q-20 0 -41.5 3.5t-33.5 7.5z" />
<glyph unicode="#" horiz-adv-x="1095" d="M121 344q-8 33 2 86q4 23 11 44.5t12 31.5l4 10h100l92 402h-84q-6 33 2 86q4 23 11.5 44.5t12.5 31.5l5 10h100l82 337q62 13 121 13q27 0 56.5 -3t45.5 -7l15 -3l-82 -337h250l81 337q62 13 121 13q27 0 56.5 -3t44.5 -7l16 -3l-80 -337h84q6 -35 -4 -86 q-4 -23 -10.5 -44.5t-11.5 -31.5l-5 -10h-102l-92 -402h86q8 -35 -2 -86q-4 -23 -10.5 -44.5t-11.5 -31.5l-5 -10h-102l-80 -338q-62 -12 -121 -12q-26 0 -55.5 3t-45.5 6l-16 3l80 338h-250l-80 -338q-61 -12 -120 -12q-26 0 -55.5 3t-45.5 6l-16 3l80 338h-84zM487 516 h250l92 402h-249z" />
<glyph unicode="$" horiz-adv-x="1161" d="M88 125q13 76 30.5 147.5t28.5 105.5l11 34q41 8 96 8q24 0 47 -2t34 -4l11 -2l10 -168q3 -3 9 -7.5t27.5 -16.5t47 -21.5t68 -17t88.5 -7.5q110 0 162 46t69 155l11 71q6 43 -18 76t-69 52.5t-102.5 40t-118 37.5t-117 46t-98 64t-61.5 93t-8 132l10 72q29 170 131 265 t299 116l31 192q62 13 121 13q26 0 55 -3.5t45 -6.5l16 -3l-30 -190q69 -6 128.5 -21.5t95 -34t60.5 -36t35 -29.5l10 -12q-13 -76 -30 -147.5t-28 -105.5l-11 -34q-39 -8 -94 -8q-24 0 -48 2t-36 4l-11 2l-10 168q-2 3 -6.5 7.5t-20.5 16.5t-36 21.5t-54 17t-73 7.5 q-103 0 -155 -48t-67 -153l-10 -72q-7 -44 26 -76t89.5 -52.5t126 -41t137 -48.5t121.5 -66.5t81 -104t13 -152.5l-10 -71q-28 -173 -138 -269t-315 -114l-30 -191q-62 -12 -119 -12q-27 0 -57 3t-46 6l-16 3l31 191q-76 6 -142 21.5t-106 34t-69 36t-40 29.5z" />
<glyph unicode="%" horiz-adv-x="1597" d="M225 1004l29 192q21 123 104 185.5t248 62.5q166 0 230 -62.5t45 -185.5l-31 -192q-19 -124 -103 -186t-251 -62q-166 0 -229 62t-42 186zM242 6l1083 1421q63 13 129 13q28 0 60 -3t50 -7l17 -3l-1083 -1421q-68 -12 -129 -12q-29 0 -61 3t-49 6zM446 1004 q-11 -66 4.5 -93.5t67.5 -27.5t77 28t34 93l30 192q9 67 -6 94t-67 27t-76 -27t-35 -94zM942 238l31 192q19 124 102.5 186t249.5 62q167 0 230 -62t42 -186l-28 -192q-21 -123 -105 -185.5t-250 -62.5q-165 0 -228 62.5t-44 185.5zM1163 238q-9 -66 6.5 -93.5t65.5 -27.5 q53 0 77.5 27.5t35.5 93.5l28 192q11 67 -5 94t-68 27t-76 -27t-33 -94z" />
<glyph unicode="&#x26;" horiz-adv-x="1380" d="M129 369l10 77q41 226 269 291q-192 69 -156 275l8 63q32 185 165 279t400 94q137 0 226.5 -24.5t133 -71.5t55.5 -115.5t-5 -155.5l-8 -57h223q6 -35 -2 -86q-4 -24 -11.5 -46t-12.5 -32l-5 -10h-223l-80 -539q-14 -81 7 -116t89 -35q74 0 107 22q4 -35 -2 -76 q-4 -19 -10 -38.5t-11 -29.5l-4 -9q-10 -5 -33 -13.5t-74 -19t-98 -10.5q-110 0 -167 51q-9 -2 -63 -17.5t-109.5 -24.5t-116.5 -9q-297 0 -415.5 97t-86.5 286zM432 369q-18 -113 32 -161t198 -48q22 0 43.5 2t43 7t33.5 8t34.5 10t25.5 8q-7 44 6 116l119 770 q15 105 -22 149t-150 44q-111 0 -164 -47.5t-68 -151.5l-8 -63q-15 -104 22 -149.5t150 -45.5h84q6 -35 -2 -88q-4 -23 -11.5 -44.5t-12.5 -31.5l-5 -10h-82q-126 0 -183.5 -46.5t-72.5 -150.5z" />
<glyph unicode="'" horiz-adv-x="378" d="M260 1001l45 426q56 13 113 13q24 0 51 -3t42 -7l15 -3l-94 -426q-45 -14 -88 -14q-19 0 -40 3.5t-32 7.5z" />
<glyph unicode="(" horiz-adv-x="583" d="M102 45l181 1145q27 175 142 262.5t343 87.5q6 -37 -2 -88q-4 -23 -11 -44t-13 -30l-5 -10q-85 0 -123.5 -40.5t-52.5 -137.5l-180 -1145q-14 -98 12.5 -138t112.5 -40q6 -33 -2 -84q-4 -24 -11.5 -46t-12.5 -32l-5 -10q-228 0 -315 87.5t-58 262.5z" />
<glyph unicode=")" horiz-adv-x="583" d="M12 -305q-6 37 2 88q3 23 9 44t11 31l5 9q86 0 125 40.5t53 137.5l180 1145q14 97 -13 137.5t-112 40.5q-6 33 2 84q4 24 11 46t13 32l5 10q228 0 314 -87.5t59 -262.5l-180 -1145q-29 -175 -143.5 -262.5t-340.5 -87.5z" />
<glyph unicode="*" horiz-adv-x="956" d="M223 1047q10 51 35 100q12 22 28.5 45t27.5 35l10 12l239 -102l31 290q56 13 113 13q24 0 51 -3t42 -7l15 -3l-61 -290l274 104q23 -43 31 -92q4 -22 4.5 -47t-1.5 -39l-1 -14l-277 -76l142 -228q-46 -38 -95 -69q-22 -14 -48.5 -26t-42.5 -18l-15 -5l-113 243l-186 -243 q-47 18 -88 49q-18 14 -35 32t-25 29l-8 11l205 223z" />
<glyph unicode="+" horiz-adv-x="827" d="M152 528q-6 33 4 86q4 23 10.5 44.5t11.5 31.5l4 10h244l39 256q41 13 100 13q25 0 48.5 -3.5t34.5 -6.5l11 -3l-38 -256h245q6 -35 -4 -86q-4 -23 -10.5 -44.5t-11.5 -31.5l-4 -10h-246l-39 -256q-39 -10 -98 -10q-26 0 -50.5 2.5t-35.5 5.5l-11 2l39 256h-243z" />
<glyph unicode="," horiz-adv-x="477" d="M-27 -236q5 7 13 20t31 60t43.5 100t44 138.5t38.5 177.5q70 12 140 12q30 0 64 -3t53 -6l18 -3q-16 -96 -50 -182.5t-71 -141.5t-72 -96t-57 -58l-23 -18q-47 -14 -90 -14q-19 0 -39.5 3.5t-31.5 6.5z" />
<glyph unicode="-" horiz-adv-x="575" d="M145 485q-6 33 2 86q4 24 11 46t12 32l6 10h430q6 -35 -2 -88q-4 -23 -11 -44.5t-13 -31.5l-5 -10h-430z" />
<glyph unicode="." horiz-adv-x="477" d="M94 6l43 254q72 12 146 12q32 0 67.5 -3t55.5 -6l20 -3l-43 -254q-75 -12 -145 -12q-33 0 -69 3t-55 6z" />
<glyph unicode="/" horiz-adv-x="798" d="M51 6l635 1421q71 13 145 13q32 0 67.5 -3t55.5 -7l19 -3l-635 -1421q-75 -12 -145 -12q-33 0 -68.5 3t-54.5 6z" />
<glyph unicode="0" horiz-adv-x="1140" d="M139 338l119 758q27 175 155 263.5t386 88.5q256 0 355.5 -88.5t70.5 -263.5l-119 -758q-27 -175 -155 -263.5t-386 -88.5q-256 0 -355.5 88.5t-70.5 263.5zM442 338q-14 -97 19.5 -137.5t134.5 -40.5q102 0 147.5 40.5t59.5 137.5l119 758q14 97 -19.5 137.5 t-134.5 40.5q-102 0 -147.5 -40.5t-59.5 -137.5z" />
<glyph unicode="1" horiz-adv-x="942" d="M127 14q-6 25 0 58q3 16 8 31t9 21l3 7l220 33l165 1073l-245 -53q-6 24 2 69q3 21 9 40.5t10 28.5l5 9l353 109q47 0 97.5 -3t77.5 -7l27 -3l-198 -1263l209 -33q4 -22 0 -59q-3 -15 -8 -29.5t-9 -21.5l-4 -7q-138 -20 -369 -20q-103 0 -193.5 5t-129.5 10z" />
<glyph unicode="2" horiz-adv-x="1116" d="M84 18l41 234q12 77 43.5 140t76 106.5t99 79.5t112.5 63.5t116 53t111.5 54t96 60.5t72 77.5t37.5 100.5l10 72q19 114 -16.5 164.5t-137.5 50.5q-63 0 -118 -21t-79 -42l-24 -21l-63 -168q-39 -8 -94 -8q-24 0 -48 2t-35 4l-12 2q-4 117 25 287q6 6 18.5 15t56.5 33 t94.5 42.5t134.5 33.5t175 15q259 0 356.5 -96.5t67.5 -292.5l-10 -72q-16 -100 -64.5 -176.5t-114 -123.5t-141 -84.5t-150.5 -69t-138.5 -67t-107.5 -89.5t-54 -125l-12 -78h477l61 141q29 9 66 9q17 0 32.5 -2t21.5 -4l7 -3q7 -76 -16 -219q-4 -24 -11.5 -48t-12.5 -36 l-5 -12h-504q-117 0 -227 4.5t-161 9.5z" />
<glyph unicode="3" horiz-adv-x="1091" d="M96 160q4 24 12.5 45.5t14.5 30.5l6 10q0 -1 16 -9.5t49.5 -21.5t76 -25.5t103.5 -21t124 -8.5q141 0 202 47.5t80 161.5l11 84q18 108 -26.5 155t-172.5 47h-180q-6 38 4 93q4 24 10.5 46.5t11.5 33.5l4 10l392 413h-371l-57 -133q-27 -8 -66 -8q-17 0 -32.5 2t-21.5 4 l-7 2q-4 76 16 219q4 24 11.5 48.5t12.5 36.5l5 12h866q8 -35 0 -86q-4 -24 -11.5 -46t-12.5 -32l-5 -10l-428 -435q96 0 167 -19t112 -52.5t64.5 -80t24.5 -102t-7 -118.5l-11 -84q-21 -126 -87.5 -208.5t-197 -128.5t-327.5 -46q-104 0 -197 20.5t-134 41.5l-42 20 q-1 4 -2.5 11.5t-3.5 32t4 48.5z" />
<glyph unicode="4" horiz-adv-x="1144" d="M133 319q-8 36 0 87l500 1021q55 11 141 11q39 0 76.5 -3t55.5 -5l18 -3l-443 -925h291l80 516q71 12 143 12q32 0 67 -3t54 -6l19 -3l-80 -516l106 -27q6 -33 0 -74q-4 -18 -10.5 -36.5t-10.5 -27.5l-5 -9q-31 -11 -101 -11l-49 -311q-75 -12 -149 -12q-34 0 -71 3 t-57 6l-20 3l49 313h-604z" />
<glyph unicode="5" horiz-adv-x="1085" d="M92 160q4 24 12.5 45.5t14.5 30.5l6 10q0 -1 16 -9.5t49.5 -21.5t76 -25.5t103.5 -21t124 -8.5q133 0 192 48t78 161l14 110q16 108 -23 155.5t-157 47.5h-365q-5 37 5 92l141 641q179 19 442 19h322q6 -42 -4 -97q-9 -64 -22 -118.5t-21 -77.5l-9 -23q-28 -8 -67 -8 q-16 0 -31 2t-21 4l-7 2l-19 142h-338l-76 -396h103q147 0 244.5 -26t145.5 -75.5t63 -121t-3 -162.5l-14 -110q-21 -126 -86 -208.5t-193 -128.5t-321 -46q-104 0 -197 20.5t-134 41.5l-42 20q-1 4 -2.5 11.5t-3.5 32t4 48.5z" />
<glyph unicode="6" horiz-adv-x="1136" d="M141 338l111 721q65 387 606 387q88 0 170 -13t120 -25l38 -13q6 -35 -2 -86q-2 -15 -6 -29t-8 -24t-7.5 -18t-5.5 -12l-2 -5q0 2 -40.5 14.5t-126.5 25.5t-177 13q-123 0 -180.5 -53t-75.5 -162l-31 -215q5 3 15.5 9t43.5 20.5t68 25.5t87 20t104 9q191 0 260.5 -88.5 t40.5 -264.5l-39 -237q-27 -175 -155 -263.5t-384 -88.5t-354.5 88.5t-69.5 263.5zM444 338q-14 -97 18.5 -137.5t133.5 -40.5t146 40.5t59 137.5l39 237q14 98 -16 139.5t-122 41.5q-39 0 -74.5 -7.5t-58 -18t-39.5 -21t-24 -17.5l-8 -8z" />
<glyph unicode="7" horiz-adv-x="1062" d="M236 6l628 1245h-420l-57 -133q-28 -8 -65 -8q-17 0 -32.5 2t-22.5 4l-7 2q-7 76 16 219q4 24 11 48.5t13 36.5l5 12h903q8 -35 0 -86l-665 -1342q-60 -12 -150 -12q-42 0 -81 3t-58 6z" />
<glyph unicode="8" horiz-adv-x="1138" d="M131 338l19 129q32 204 221 270q-138 71 -107 260l15 99q29 175 151.5 263.5t368.5 88.5q244 0 338 -88.5t65 -263.5l-14 -99q-32 -192 -189 -260q167 -67 136 -270l-21 -129q-27 -175 -157 -263.5t-392 -88.5t-362.5 88.5t-71.5 263.5zM434 338q-14 -97 20.5 -137.5 t141.5 -40.5t154 40.5t61 137.5l20 129q14 97 -21 138.5t-140 41.5q-107 0 -155 -41.5t-62 -138.5zM567 997q-14 -98 14.5 -138t118.5 -40q89 0 130 40.5t55 137.5l14 99q14 97 -14 137.5t-117 40.5q-90 0 -131 -40.5t-55 -137.5z" />
<glyph unicode="9" horiz-adv-x="1136" d="M160 37q-6 35 2 88q4 23 10.5 44t11.5 31.5t6 10.5q16 -6 46.5 -14.5t123.5 -22.5t187 -14q125 0 183.5 53.5t74.5 161.5l35 237l-15 -9t-43 -20.5t-67.5 -25.5t-86.5 -20t-104 -9q-190 0 -260 89t-41 264l35 215q27 174 154.5 262t384.5 88q256 0 354.5 -87.5 t69.5 -262.5l-111 -721q-64 -389 -614 -389q-90 0 -174 12.5t-123 25.5zM526 881q-14 -98 15 -138.5t121 -40.5q62 0 113.5 17.5t72.5 34.5l20 18l50 324q14 97 -18.5 137.5t-133.5 40.5t-146 -40.5t-59 -137.5z" />
<glyph unicode=":" horiz-adv-x="477" d="M94 6l43 254q72 12 146 12q32 0 67.5 -3t55.5 -6l20 -3l-43 -254q-75 -12 -145 -12q-33 0 -69 3t-55 6zM213 764l41 254q73 12 147 12q32 0 67.5 -3t55.5 -6l19 -3l-41 -254q-76 -12 -148 -12q-33 0 -68 3t-54 6z" />
<glyph unicode=";" horiz-adv-x="477" d="M-27 -236q5 7 13 20t31 60t43.5 100t44 138.5t38.5 177.5q70 12 140 12q30 0 64 -3t53 -6l18 -3q-16 -96 -50 -182.5t-71 -141.5t-72 -96t-57 -58l-23 -18q-47 -14 -90 -14q-19 0 -39.5 3.5t-31.5 6.5zM213 764l41 254q71 12 145 12q32 0 68 -3t56 -6l20 -3l-41 -254 q-78 -12 -148 -12q-33 0 -68 3t-54 6z" />
<glyph unicode="&#x3c;" horiz-adv-x="946" d="M156 625l872 440q4 -58 -4 -107q-3 -21 -10.5 -47t-13.5 -41l-7 -16l-438 -229l369 -228q4 -57 -4 -106q-4 -21 -12.5 -47t-14.5 -42l-6 -16z" />
<glyph unicode="=" horiz-adv-x="868" d="M121 340q-6 33 2 86q4 24 11.5 45.5t12.5 30.5l5 10h722q6 -33 -2 -86q-4 -23 -11 -44.5t-12 -31.5l-5 -10h-723zM186 741q-8 33 2 86q4 24 11 46t13 32l5 10h723q6 -35 -2 -88q-4 -23 -11.5 -44.5t-12.5 -31.5l-5 -10h-723z" />
<glyph unicode="&#x3e;" horiz-adv-x="946" d="M113 186q-4 60 4 109q3 21 10.5 47t13.5 42l6 15l439 228l-369 227q-4 60 4 109q4 21 12 46.5t15 40.5l6 15l731 -438z" />
<glyph unicode="?" horiz-adv-x="1087" d="M254 1022q-2 117 25 287q6 6 18 15t55.5 33t94 42.5t133 33.5t172.5 15q261 0 358.5 -96.5t67.5 -292.5l-11 -72q-10 -63 -37 -112.5t-61.5 -80.5t-74 -56t-79 -46t-72.5 -43.5t-56.5 -55.5t-30.5 -75l-11 -72q-77 -14 -153 -14q-34 0 -71.5 3.5t-58.5 6.5l-20 4l11 72 q10 64 36.5 114t61.5 81t75 56t80 46t73 43t57 54.5t30 74.5l11 72q19 114 -16.5 164.5t-139.5 50.5q-60 0 -113 -17.5t-76 -34.5l-24 -18l-66 -182q-39 -8 -94 -8q-24 0 -47.5 2t-34.5 4zM371 6l43 254q77 12 153 12q35 0 73 -3t58 -6l21 -3l-43 -254q-78 -12 -154 -12 q-35 0 -72.5 3t-57.5 6z" />
<glyph unicode="@" horiz-adv-x="1540" d="M86 55l82 539q17 109 68 189.5t143 138.5t233.5 87t333.5 29q210 0 334 -44t167 -124t23 -202l-75 -504l131 -33q4 -22 0 -59q-4 -15 -9 -29.5t-9 -21.5l-3 -7q-102 -20 -272 -20q-40 0 -82.5 3t-64.5 6l-23 3l10 76q-5 -4 -14.5 -10.5t-39.5 -23t-62 -29t-79.5 -23 t-93.5 -10.5q-158 0 -216.5 74.5t-35.5 222.5l7 26q21 129 119 199t305 94l200 25l4 41q15 107 -38 151.5t-211 44.5q-155 0 -247.5 -28t-138 -85.5t-61.5 -156.5l-82 -539q-28 -176 50.5 -240.5t318.5 -64.5q143 0 283.5 21.5t210 41.5t69.5 23q1 -4 2.5 -10.5t4 -29.5 t-2.5 -46q-4 -24 -12.5 -47t-14.5 -34l-6 -11q-10 -3 -27.5 -8.5t-76 -20t-120.5 -25t-155 -19.5t-184 -9q-260 0 -411.5 54.5t-204.5 158.5t-27 266zM836 283q-9 -66 12.5 -94.5t87.5 -28.5q49 0 90.5 21t58.5 42l17 21l33 215l-142 -23q-74 -10 -109.5 -42t-41.5 -85z" />
<glyph unicode="A" d="M31 76q4 17 9.5 33t9.5 23l3 7l133 27l471 1102l-129 26q-4 25 2 64q3 16 8 31.5t9 22.5l4 7q147 21 397 21q50 0 103.5 -3t81.5 -7l28 -3l146 -1261l129 -27q6 -24 -2 -63q-3 -16 -8 -31.5t-9 -22.5l-4 -8q-109 -20 -244 -20q-104 0 -189.5 5t-119.5 10l-33 5q-1 3 -2 8 t-2 21.5t2 32.5q4 17 9.5 33t9.5 23l4 7l153 27l-22 225h-397l-88 -225l147 -27q6 -24 -2 -63q-3 -16 -8 -31.5t-9 -22.5l-4 -8q-117 -20 -348 -20q-61 0 -120 5t-88 10l-29 5q-1 3 -2 8t-2 21.5t2 32.5zM657 580h314l-64 620z" />
<glyph unicode="B" horiz-adv-x="1294" d="M45 76q4 17 9.5 33t9.5 23l4 7l151 25l172 1106l-145 24q-6 25 2 64q2 16 7 31.5t9 22.5l4 7q243 23 641 23q269 0 373 -91.5t74 -275.5l-10 -63q-31 -206 -240 -277q211 -67 174 -289l-10 -77q-32 -189 -170.5 -283t-419.5 -94q-177 0 -335.5 5.5t-228.5 10.5l-69 6 q-1 3 -2 8t-2 21.5t2 32.5zM541 176h170q116 0 168.5 44t70.5 149l11 77q15 104 -24 150.5t-155 46.5h-170zM643 823h170q103 0 151 44.5t62 144.5l10 63q14 96 -20.5 138t-136.5 42h-172z" />
<glyph unicode="C" horiz-adv-x="1150" d="M145 375l105 684q21 129 84.5 213t187 130t309.5 46q93 0 173 -14.5t127.5 -35t81.5 -40.5t47 -34l14 -15q-13 -76 -30.5 -147.5t-28.5 -105.5l-11 -34q-39 -8 -94 -8q-24 0 -47.5 2t-34.5 4l-12 2l-10 168q-3 3 -8 7.5t-23.5 16.5t-40 21.5t-58 17t-77.5 7.5 q-112 0 -162 -45.5t-68 -155.5l-104 -684q-18 -109 27 -155t178 -46q105 0 209 22t155 41.5t53 24.5l1 -2q0 -3 0.5 -7.5t1.5 -10.5t1.5 -14t0 -17.5t-1.5 -21t-3 -23.5q-4 -26 -12.5 -50.5t-14.5 -35.5l-7 -12q-7 -3 -20 -8.5t-56.5 -20t-89.5 -25t-115 -19.5t-137 -9 q-150 0 -253 25t-159.5 76t-75 121.5t-2.5 166.5z" />
<glyph unicode="D" horiz-adv-x="1296" d="M45 76q4 17 9.5 33t9.5 23l4 7l151 25l172 1106l-145 24q-6 25 2 64q2 16 7 31.5t9 22.5l4 7q226 23 645 23q278 0 385.5 -95t77.5 -288l-106 -684q-21 -128 -85.5 -211t-188.5 -127.5t-312 -44.5q-182 0 -341.5 5.5t-227.5 10.5l-68 6q-1 3 -2 8t-2 21.5t2 32.5z M541 176h174q116 0 168 45t67 154l107 684q15 109 -23 153.5t-153 44.5h-174z" />
<glyph unicode="E" horiz-adv-x="1128" d="M45 76q4 17 9.5 33t9.5 23l4 7l151 27l172 1102l-145 26q-6 25 2 64q2 16 7 31.5t9 22.5l4 7q249 15 592 15h424q6 -46 -4 -107q-12 -73 -26 -133.5t-22 -84.5l-9 -24q-27 -8 -68 -8q-16 0 -31 2t-22 4l-6 2l-29 160h-362l-60 -414h430q6 -37 -2 -94q-4 -25 -12 -48.5 t-13 -34.5l-6 -11h-430l-67 -455h370l76 160q27 8 64 8q18 0 34 -2t23 -4l6 -2q7 -78 -18 -242q-4 -27 -12 -53.5t-14 -39.5l-5 -13h-434q-153 0 -300 3.5t-217 6.5l-71 4q-1 3 -2 8t-2 21.5t2 32.5z" />
<glyph unicode="F" horiz-adv-x="1101" d="M45 76q4 17 9.5 33t9.5 23l4 7l151 27l172 1102l-145 26q-6 25 2 64q2 16 7 31.5t9 22.5l4 7q249 15 592 15h410q4 -46 -6 -107q-12 -73 -26 -133.5t-22 -84.5l-8 -24q-26 -8 -67 -8q-16 0 -31.5 2t-23.5 4l-7 2l-28 160h-346l-60 -414h432q6 -37 -2 -94 q-4 -25 -11 -48.5t-12 -34.5l-5 -11h-435l-71 -477l143 -27q6 -24 -2 -63q-3 -16 -8 -31.5t-8 -22.5l-4 -8q-115 -20 -312 -20q-87 0 -162.5 5t-107.5 10l-33 5q-1 3 -2 8t-2 21.5t2 32.5z" />
<glyph unicode="G" horiz-adv-x="1198" d="M145 375l105 684q21 129 85.5 213t190 130t314.5 46q93 0 173.5 -14.5t129 -35t84 -40.5t49.5 -34l14 -15q-13 -76 -30 -147.5t-28 -105.5l-11 -34q-40 -8 -95 -8q-24 0 -47.5 2t-34.5 4l-12 2l-10 168q-3 3 -8.5 7.5t-25.5 16.5t-43 21.5t-60 17t-78 7.5 q-116 0 -168 -45.5t-70 -155.5l-104 -684q-17 -108 21.5 -153.5t152.5 -45.5q55 0 104.5 10t72.5 20l22 11l57 383h-176q-8 39 2 96q4 25 11.5 48t12.5 34l5 10h90q104 0 200.5 -4.5t141.5 -9.5l45 -4l-111 -684q-9 -4 -25 -10t-68.5 -22.5t-108.5 -29t-139.5 -22.5 t-166.5 -10q-280 0 -387.5 95t-75.5 288z" />
<glyph unicode="H" horiz-adv-x="1460" d="M45 76q4 17 9.5 33t9.5 23l4 7l151 27l172 1102l-145 26q-6 25 2 64q2 16 7 31.5t9 22.5l4 7q117 21 312 21q88 0 164 -5t108 -11l33 -5q4 -24 0 -61q-4 -17 -9.5 -33t-9.5 -23l-4 -8l-151 -26l-68 -445h434l68 445l-144 26q-6 25 0 64q3 16 8.5 31.5t10.5 22.5l4 7 q114 21 311 21q87 0 162.5 -5t108.5 -11l32 -5q6 -24 0 -61q-3 -17 -8.5 -33t-9.5 -23l-4 -8l-152 -26l-170 -1102l146 -27q4 -24 -2 -63q-3 -16 -8 -31.5t-9 -22.5l-4 -8q-116 -20 -311 -20q-88 0 -164 5t-108 10l-33 5q-6 25 0 62q3 17 8.5 33t9.5 23l4 7l152 27l69 471 h-434l-69 -471l143 -27q6 -24 -2 -63q-3 -16 -8 -31.5t-8 -22.5l-4 -8q-115 -20 -312 -20q-87 0 -162.5 5t-107.5 10l-33 5q-1 3 -2 8t-2 21.5t2 32.5z" />
<glyph unicode="I" horiz-adv-x="704" d="M45 76q4 17 9.5 33t9.5 23l4 7l151 27l172 1102l-145 26q-6 25 2 64q2 16 7 31.5t9 22.5l4 7q117 21 312 21q88 0 164 -5t108 -11l33 -5q4 -24 0 -61q-4 -17 -9.5 -33t-9.5 -23l-4 -8l-151 -26l-170 -1102l143 -27q6 -24 -2 -63q-3 -16 -8 -31.5t-8 -22.5l-4 -8 q-115 -20 -312 -20q-87 0 -162.5 5t-107.5 10l-33 5q-1 3 -2 8t-2 21.5t2 32.5z" />
<glyph unicode="J" horiz-adv-x="995" d="M47 166q8 52 35 92q5 -8 35.5 -26.5t95.5 -38t135 -19.5q93 0 136.5 46t58.5 155l139 893l-145 26q-6 25 2 64q2 16 7 31.5t9 22.5l4 7q116 21 311 21q88 0 164.5 -5t109.5 -11l32 -5q4 -24 0 -61q-4 -17 -9.5 -33t-9.5 -23l-4 -8l-152 -26l-139 -893 q-30 -194 -159 -291.5t-384 -97.5q-48 0 -93 8.5t-76 20.5t-54.5 24t-35.5 21l-11 8q-1 4 -2.5 12t-3.5 34.5t4 51.5z" />
<glyph unicode="K" horiz-adv-x="1363" d="M45 76q4 17 9.5 33t9.5 23l4 7l151 27l172 1102l-145 26q-6 25 2 64q2 16 7 31.5t9 22.5l4 7q117 21 312 21q88 0 164 -5t108 -11l33 -5q4 -24 0 -61q-4 -17 -9.5 -33t-9.5 -23l-4 -8l-151 -26l-68 -455l88 25l303 446l-63 10q-4 25 2 64q3 16 8 31.5t9 22.5l3 7 q117 21 318 21q49 0 104 -5t85 -11l30 -5q1 -3 1.5 -7.5t1.5 -21t-1 -32.5q-4 -17 -9.5 -33t-9.5 -23l-4 -8l-153 -26l-361 -529l215 -573l146 -27q6 -24 -2 -63q-3 -16 -8 -31.5t-9 -22.5l-4 -8q-116 -20 -227 -20q-96 0 -177.5 5t-114.5 10l-34 5q-8 25 0 62q3 17 8.5 33 t9.5 23l5 7l80 13l-185 487l-92 -27l-65 -446l143 -27q6 -24 -2 -63q-3 -16 -8 -31.5t-8 -22.5l-4 -8q-115 -20 -312 -20q-87 0 -162.5 5t-107.5 10l-33 5q-1 3 -2 8t-2 21.5t2 32.5z" />
<glyph unicode="L" horiz-adv-x="1110" d="M45 76q4 17 9.5 33t9.5 23l4 7l151 27l172 1102l-145 26q-6 25 2 64q2 16 7 31.5t9 22.5l4 7q117 21 312 21q88 0 164 -5t108 -11l33 -5q4 -24 0 -61q-4 -17 -9.5 -33t-9.5 -23l-4 -8l-151 -26l-166 -1080h352l76 160q26 8 63 8q18 0 34.5 -2t23.5 -4l8 -2 q4 -78 -21 -242q-4 -27 -11.5 -53.5t-13.5 -39.5l-5 -13h-416q-153 0 -300 3.5t-217 6.5l-71 4q-1 3 -2 8t-2 21.5t2 32.5z" />
<glyph unicode="M" horiz-adv-x="1826" d="M45 76q4 17 9.5 33t9.5 23l4 7l151 27l172 1102l-145 26q-6 25 2 64q2 16 7 31.5t9 22.5l4 7q117 21 332 21q61 0 122 -3t92 -7l30 -3l166 -833l424 833q102 13 213 13q101 0 190.5 -5t128.5 -11l39 -5q1 -3 1.5 -7.5t1.5 -21t-1 -32.5q-4 -17 -9.5 -33t-9.5 -23l-3 -8 l-154 -26l-170 -1102l145 -27q6 -24 -2 -63q-3 -16 -8 -31.5t-8 -22.5l-4 -8q-117 -20 -303 -20q-84 0 -158 5t-107 10l-32 5q-6 25 0 62q4 17 9.5 33t8.5 23l4 7l152 27l129 866l-406 -807q-63 -12 -135 -12q-31 0 -64.5 3t-51.5 6l-17 3l-160 805l-131 -864l146 -27 q6 -24 -2 -63q-3 -16 -8 -31.5t-9 -22.5l-4 -8q-115 -20 -303 -20q-83 0 -156.5 5t-105.5 10l-33 5q-1 3 -2 8t-2 21.5t2 32.5z" />
<glyph unicode="N" horiz-adv-x="1447" d="M45 76q4 17 9.5 33t9.5 23l4 7l151 27l172 1102l-145 26q-6 25 2 64q2 16 7 31.5t9 22.5l4 7q109 21 287 21q30 0 63.5 -3t51.5 -7l18 -3l356 -888l105 729l-143 26q-6 25 0 64q3 16 8.5 31.5t9.5 22.5l4 7q115 21 303 21q83 0 156.5 -5t106.5 -11l32 -5q6 -24 0 -61 q-3 -17 -8.5 -33t-9.5 -23l-4 -8l-152 -26l-197 -1262q-69 -12 -137 -12q-30 0 -63.5 3t-51.5 6l-18 3l-356 889l-107 -729l146 -27q6 -24 -2 -63q-3 -16 -8 -31.5t-9 -22.5l-4 -8q-115 -20 -303 -20q-83 0 -156.5 5t-105.5 10l-33 5q-1 3 -2 8t-2 21.5t2 32.5z" />
<glyph unicode="O" horiz-adv-x="1220" d="M145 375l105 684q32 194 171.5 291.5t418.5 97.5q141 0 238 -25.5t150 -76t70 -121t2 -166.5l-106 -684q-32 -194 -170.5 -291.5t-417.5 -97.5t-386 97.5t-75 291.5zM465 375q-18 -109 20.5 -155t153.5 -46t167.5 46t67.5 155l107 684q15 110 -22 155.5t-152 45.5 t-167.5 -46t-70.5 -155z" />
<glyph unicode="P" horiz-adv-x="1236" d="M45 76q4 17 9.5 33t9.5 23l4 7l151 27l172 1104l-145 24q-6 25 2 64q2 16 7 31.5t9 22.5l4 7q251 23 615 23q275 0 380.5 -95t73.5 -288l-16 -98q-30 -194 -166.5 -290t-411.5 -96q-44 0 -79.5 1.5t-49.5 3.5l-14 2l-59 -416l143 -27q6 -24 -2 -63q-3 -16 -8 -31.5 t-8 -22.5l-4 -8q-115 -20 -312 -20q-87 0 -162.5 5t-107.5 10l-33 5q-1 3 -2 8t-2 21.5t2 32.5zM633 762h143q111 0 160.5 45t64.5 154l17 98q17 108 -20 153t-148 45h-143z" />
<glyph unicode="Q" horiz-adv-x="1220" d="M145 375l105 684q32 194 171.5 291.5t418.5 97.5q141 0 238 -25.5t150 -76t70 -121t2 -166.5l-106 -684q-24 -141 -101 -230.5t-221 -128.5l156 -368q-80 -13 -158 -13q-34 0 -73.5 3.5t-62.5 6.5l-23 3l-109 338q-278 1 -383.5 98t-73.5 291zM465 375 q-18 -109 20.5 -155t153.5 -46t167.5 46t67.5 155l107 684q15 110 -22 155.5t-152 45.5t-167.5 -46t-70.5 -155z" />
<glyph unicode="R" horiz-adv-x="1349" d="M45 76q4 17 9.5 33t9.5 23l4 7l151 27l172 1102l-145 26q-6 25 2 64q2 16 7 31.5t9 22.5l4 7q247 23 627 23q276 0 381.5 -95t73.5 -288l-13 -92q-22 -130 -89 -215t-189 -127l139 -459l141 -27q6 -24 0 -63q-4 -16 -9 -31.5t-8 -22.5l-3 -8q-116 -20 -229 -20 q-89 0 -166.5 5t-110.5 10l-33 5q-6 25 0 62q4 17 9.5 33t9.5 23l4 7l76 11l-109 434h-12q-44 0 -83 1.5t-56 2.5l-17 2l-61 -424l143 -27q6 -24 -2 -63q-3 -16 -8 -31.5t-8 -22.5l-4 -8q-115 -20 -312 -20q-87 0 -162.5 5t-107.5 10l-33 5q-1 3 -2 8t-2 21.5t2 32.5z M633 768h155q111 0 161.5 45t68.5 154l12 92q17 108 -20 153t-148 45h-155z" />
<glyph unicode="S" horiz-adv-x="1169" d="M104 121q12 76 29 148.5t28 106.5l11 34q41 8 96 8q24 0 47 -2t34 -4l11 -2l11 -168q3 -3 8.5 -7.5t26.5 -16t45 -20.5t64.5 -16.5t84.5 -7.5q105 0 155.5 46t67.5 155l11 71q6 39 -12 68.5t-53 50t-82 37.5t-99 33.5t-103.5 35t-96.5 46t-77.5 63t-47 88.5t-3.5 119 l10 72q30 195 163 292t398 97q90 0 166.5 -14t121 -34t76.5 -39.5t44 -33.5l12 -14q-13 -76 -30.5 -148.5t-28.5 -106.5l-12 -34q-40 -8 -95 -8q-24 0 -47 2t-34 4l-11 2l-10 168q-2 3 -6 7.5t-20 16t-35 20.5t-52 16.5t-71 7.5q-98 0 -146.5 -47.5t-66.5 -153.5l-11 -72 q-7 -44 25 -76t87.5 -52.5t123.5 -41t134 -48.5t118.5 -66.5t79 -104t12.5 -152.5l-10 -71q-32 -194 -168.5 -291.5t-403.5 -97.5q-98 0 -182.5 14t-134.5 33.5t-86.5 39.5t-51.5 34z" />
<glyph unicode="T" horiz-adv-x="1222" d="M225 1085q-6 78 21 242q4 27 11.5 54t12.5 40l6 13h1115q3 -46 -7 -107q-12 -73 -26 -133.5t-22 -84.5l-7 -24q-26 -8 -67 -8q-16 0 -31.5 2t-22.5 4l-8 2l-29 160h-210l-164 -1079l143 -27q6 -24 -2 -63q-3 -16 -8 -31.5t-8 -22.5l-4 -8q-115 -20 -312 -20 q-87 0 -162.5 5t-107.5 10l-33 5q-1 3 -2 8t-2 21.5t2 32.5q4 17 9.5 33t9.5 23l4 7l153 27l164 1079h-211l-76 -160q-26 -8 -63 -8q-18 0 -34.5 2t-24.5 4z" />
<glyph unicode="U" horiz-adv-x="1423" d="M246 1294q-6 25 2 64q2 16 7 31.5t9 22.5l4 7q117 21 312 21q80 0 150 -5t100 -11l30 -5q4 -24 0 -61q-4 -17 -9.5 -33t-8.5 -23l-4 -8l-127 -26l-140 -893q-15 -110 21.5 -155.5t148.5 -45.5q111 0 162.5 46t69.5 155l137 893l-121 26q-4 25 2 64q3 16 8 31.5t9 22.5 l4 7q106 21 286 21q88 0 164.5 -5t109.5 -11l32 -5q6 -24 0 -61q-3 -17 -8.5 -33t-9.5 -23l-5 -8l-151 -26l-138 -893q-32 -194 -169.5 -291.5t-413.5 -97.5t-382.5 97.5t-74.5 291.5l139 893z" />
<glyph unicode="V" horiz-adv-x="1474" d="M231 1294q-6 25 2 64q2 16 7 31.5t10 22.5l4 7q117 21 260 21q104 0 189.5 -5t118.5 -11l34 -5q6 -24 0 -61q-3 -17 -8.5 -33t-9.5 -23l-4 -8l-152 -26l94 -1028l410 1028l-142 26q-5 25 3 64q2 16 7 31.5t9 22.5l4 7q117 21 346 21q64 0 127.5 -5t95.5 -11l31 -5 q1 -3 1.5 -7.5t1.5 -21t-1 -32.5q-4 -17 -9.5 -33t-9.5 -23l-3 -8l-152 -26l-541 -1262q-104 -12 -219 -12q-50 0 -104 3t-83 6l-28 3l-145 1262z" />
<glyph unicode="W" horiz-adv-x="2185" d="M231 1294q-6 25 2 64q2 16 7 31.5t10 22.5l4 7q116 21 270 21q100 0 183.5 -5t116.5 -11l34 -5q6 -24 0 -61q-3 -17 -8.5 -33t-9.5 -23l-4 -8l-152 -26l41 -998l399 1157q86 13 197 13q47 0 95 -3t72 -7l25 -3l39 -1157l344 998l-143 26q-6 25 0 64q3 16 8 31.5t9 22.5 l4 7q117 21 342 21q68 0 133.5 -5t96.5 -11l32 -5q1 -3 1.5 -7.5t1.5 -21t-1 -32.5q-4 -17 -9.5 -33t-9.5 -23l-4 -8l-153 -26l-471 -1262q-104 -12 -217 -12q-51 0 -105.5 3t-83.5 6l-29 3l-30 1133l-381 -1133q-106 -12 -219 -12q-51 0 -105 3t-82 6l-28 3l-76 1262z" />
<glyph unicode="X" horiz-adv-x="1390" d="M33 76q4 17 9.5 33t9.5 23l3 7l152 27l383 563l-199 539l-143 26q-6 25 0 64q3 16 8.5 31.5t9.5 22.5l4 7q115 21 236 21q104 0 190 -5t120 -11l34 -5q4 -24 0 -61q-4 -17 -9.5 -33t-9.5 -23l-4 -8l-108 -18l119 -377l229 379l-102 16q-6 25 2 64q2 16 7 31.5t9 22.5l4 7 q114 21 350 21q53 0 110 -5t87 -11l31 -5q6 -24 0 -61q-3 -17 -8.5 -33t-10.5 -23l-4 -8l-149 -26l-363 -539l209 -565l141 -25q6 -24 0 -63q-4 -16 -9 -31.5t-8 -22.5l-3 -8q-117 -20 -240 -20q-108 0 -195.5 5t-120.5 10l-34 5q-8 25 0 62q3 17 8.5 33t9.5 23l5 7l114 19 l-127 401l-250 -401l109 -19q6 -24 -2 -63q-3 -16 -8 -31.5t-9 -22.5l-4 -8q-114 -20 -358 -20q-51 0 -107 5t-86 10l-30 5q-1 3 -2 8t-2 21.5t2 32.5z" />
<glyph unicode="Y" horiz-adv-x="1372" d="M231 1294q-6 25 2 64q2 16 7 31.5t10 22.5l4 7q117 21 246 21q104 0 189.5 -5t118.5 -11l34 -5q6 -24 0 -61q-3 -17 -8.5 -33t-9.5 -23l-5 -8l-117 -20l113 -473l252 473l-109 20q-6 25 0 64q3 16 8 31.5t9 22.5l4 7q117 21 350 21q56 0 115.5 -5t91.5 -11l31 -5 q4 -24 0 -61q-4 -17 -9.5 -33t-9.5 -23l-4 -8l-153 -26l-461 -725l-56 -377l144 -27q6 -24 0 -63q-4 -16 -9.5 -31.5t-9.5 -22.5l-4 -8q-114 -20 -311 -20q-87 0 -162.5 5t-107.5 10l-33 5q-8 25 0 62q3 17 8.5 33t9.5 23l4 7l152 27l55 375l-233 727z" />
<glyph unicode="Z" horiz-adv-x="1073" d="M66 0q-8 37 2 94q4 24 11.5 47.5t12.5 34.5l6 12l750 1049h-402l-75 -160q-27 -8 -66 -8q-17 0 -33 2t-23 4l-7 2q-5 86 22 250q4 27 11.5 54t12.5 40l5 13h936q8 -38 -2 -95q-4 -24 -11.5 -47.5t-12.5 -35.5l-5 -11l-752 -1048h408l78 159q26 9 63 9q18 0 34 -2.5 t23 -4.5l7 -2q4 -86 -21 -250q-4 -27 -11.5 -53.5t-12.5 -39.5l-6 -13h-942z" />
<glyph unicode="[" horiz-adv-x="729" d="M47 -307l291 1847q154 0 293.5 -3.5t202.5 -6.5l63 -4q8 -31 0 -82q-4 -21 -10.5 -41.5t-11.5 -30.5l-5 -10q-116 -14 -286 -14l-228 -1461q76 0 146.5 -4t103.5 -8l33 -4q6 -35 -2 -82q-4 -22 -10.5 -42.5t-11.5 -30.5l-5 -9q-218 -14 -563 -14z" />
<glyph unicode="\" horiz-adv-x="798" d="M276 1427q72 13 146 13q32 0 67.5 -3t54.5 -7l19 -3l185 -1421q-74 -12 -146 -12q-32 0 -67 3t-55 6l-19 3z" />
<glyph unicode="]" horiz-adv-x="729" d="M23 -293q-6 33 2 82q4 21 11 41.5t12 30.5l5 10q115 16 285 16l225 1461q-76 0 -146 3.5t-102 6.5l-32 4q-6 35 2 82q4 23 10.5 43.5t10.5 29.5l5 9q221 14 566 14l-293 -1847q-154 0 -294 3.5t-204 7.5z" />
<glyph unicode="^" horiz-adv-x="911" d="M213 1040l471 402l340 -400q-25 -32 -70 -69q-21 -16 -42.5 -29.5t-32.5 -18.5l-11 -5l-227 278l-315 -280q-33 16 -68 53q-15 16 -26 33.5t-15 26.5z" />
<glyph unicode="_" horiz-adv-x="1026" d="M-41 -276l33 174h1014l-33 -174h-1014z" />
<glyph unicode="`" horiz-adv-x="491" d="M238 1427q75 13 143 13q31 0 64.5 -3t50.5 -7l18 -3l145 -276q-43 -14 -90 -14q-18 0 -39 3.5t-33 7.5l-12 3z" />
<glyph unicode="a" horiz-adv-x="1126" d="M139 338l54 348q29 175 128.5 263.5t292.5 88.5q44 0 81 -7t58 -17.5t35.5 -20.5t19.5 -17l5 -7l6 49q78 12 154 12q34 0 71 -3t58 -6l20 -3l-116 -752q-9 -61 3.5 -82.5t55.5 -21.5q17 0 53 6q4 -35 -2 -76q-3 -18 -9 -37t-11 -29l-4 -10q-98 -30 -174 -30 q-110 0 -151 26.5t-44 83.5q-6 -4 -17 -11.5t-45.5 -26.5t-71.5 -33.5t-91 -26.5t-107 -12q-164 0 -222.5 88.5t-29.5 263.5zM442 338q-14 -98 6 -138t89 -40q30 0 57.5 8.5t45.5 20.5t31.5 24t20.5 21l6 8l68 444q15 97 -10 137.5t-105 40.5q-72 0 -106.5 -40.5 t-48.5 -137.5z" />
<glyph unicode="b" horiz-adv-x="1097" d="M135 6l197 1264l-131 33q-6 22 0 57q4 16 9 30.5t8 21.5l3 7q117 21 279 21q37 0 78 -3t64 -7l22 -3l-72 -452q0 3 25 17t77.5 30t108.5 16q198 0 272 -88.5t45 -263.5l-53 -348q-29 -175 -116.5 -263.5t-252.5 -88.5q-45 0 -87 10t-70 24t-50 28t-32 24l-10 10l-11 -76 q-77 -12 -153 -12q-35 0 -72.5 3t-57.5 6zM475 244q1 -3 4 -9t14.5 -20.5t26 -25.5t40 -20t56.5 -9q68 0 101 40.5t47 137.5l53 348q15 97 -6.5 137.5t-95.5 40.5q-81 0 -118.5 -40.5t-51.5 -137.5z" />
<glyph unicode="c" horiz-adv-x="983" d="M139 338l54 348q29 175 151 263.5t365 88.5q60 0 118 -9t98 -21.5t71 -25t46 -21.5l15 -9q-11 -72 -27.5 -139t-27.5 -98l-11 -31q-37 -8 -90 -8q-22 0 -42.5 2t-30.5 4l-9 2l-14 145q-47 35 -125 35q-88 0 -129 -40.5t-55 -137.5l-54 -348q-14 -98 21 -138t145 -40 q79 0 160 17.5t119.5 32.5t42.5 19l2 -11q1 -12 2.5 -31t-2.5 -46q-4 -23 -12 -44.5t-14 -31.5l-7 -10q-17 -8 -48.5 -19.5t-124.5 -30.5t-181 -19q-247 0 -341 88.5t-65 263.5z" />
<glyph unicode="d" horiz-adv-x="1136" d="M139 338l54 348q29 175 130.5 263.5t299.5 88.5q54 0 101 -14.5t67.5 -28.5t23.5 -20l43 295l-129 33q-1 2 -2 7t-2 20t2 30q4 16 9.5 30.5t9.5 21.5l4 7q100 21 270 21q38 0 80.5 -3t65.5 -7l24 -3l-182 -1161q-9 -61 3.5 -82.5t55.5 -21.5q21 0 51 6q6 -35 0 -76 q-3 -18 -9 -37t-11 -29l-4 -10q-98 -30 -176 -30q-109 0 -149.5 26.5t-45.5 83.5q-6 -4 -16.5 -11.5t-45.5 -26.5t-71.5 -33.5t-90.5 -26.5t-106 -12q-165 0 -224 88.5t-30 263.5zM442 338q-14 -98 6 -138t89 -40q30 0 57.5 8.5t46 21t32.5 25t21 21.5l6 8l68 442 q15 97 -10.5 137.5t-106.5 40.5q-72 0 -106.5 -40.5t-48.5 -137.5z" />
<glyph unicode="e" horiz-adv-x="1044" d="M139 338l54 348q29 176 145.5 264t351.5 88q124 0 204.5 -23.5t120 -68.5t50 -110.5t-5.5 -149.5l-39 -240q-97 -24 -285 -24h-282l-11 -84q-14 -98 22 -138t146 -40q85 0 170.5 17.5t126.5 32.5t45 19l2 -11q1 -12 2.5 -31t-2.5 -46q-4 -23 -12.5 -44.5t-15.5 -31.5 l-6 -10q-18 -8 -50.5 -19.5t-130 -30.5t-192.5 -19q-247 0 -342 88.5t-66 263.5zM481 594h279l12 92q15 97 -8.5 137.5t-101.5 40.5t-115 -40.5t-51 -137.5z" />
<glyph unicode="f" horiz-adv-x="768" d="M-82 -391q-4 35 2 78q4 19 10 39t10 30l5 11q25 -17 92 -17q60 0 87.5 32t39.5 109l149 965l-131 33q-8 22 0 57q2 16 7 30.5t9 21.5l5 6q49 16 137 16l14 102q27 162 113 244t248 82q123 0 231 -27q4 -41 -4 -84q-3 -19 -9 -39t-11 -30l-4 -11q-4 2 -18.5 6t-42.5 7.5 t-58 3.5q-66 0 -97 -35t-45 -117l-12 -96h238q6 -35 -2 -86q-4 -24 -11 -46t-12 -32l-6 -10h-238l-147 -961q-27 -158 -108.5 -236.5t-237.5 -78.5q-52 0 -101.5 8t-73 15t-28.5 10z" />
<glyph unicode="g" horiz-adv-x="1069" d="M76 -301q4 24 11.5 45t13.5 31t8 10q131 -35 319 -35q110 0 159 40.5t64 137.5l15 119q0 -3 -25 -16.5t-77 -29t-107 -15.5q-199 0 -273 88.5t-45 263.5l54 348q29 176 115 264t251 88q45 0 87.5 -10t71 -24t50.5 -28t32 -24l11 -10l10 76q74 10 154 10q34 0 71 -2.5 t58 -5.5l20 -2l-170 -1090q-19 -116 -79 -192t-179 -118t-299 -42q-84 0 -164 9t-117 19l-38 9q-1 4 -2 10.5t-3 29.5t3 46zM442 338q-14 -98 8 -138t95 -40q81 0 118.5 40.5t51.5 137.5l67 442q-1 3 -4 9t-14 20.5t-25 25.5t-39.5 20t-56.5 9q-68 0 -100.5 -40.5 t-46.5 -137.5z" />
<glyph unicode="h" horiz-adv-x="1183" d="M135 6l197 1264l-131 33q-6 22 0 59q4 15 9 29t8 21l3 7q103 21 273 21q40 0 82.5 -3t65.5 -7l22 -3l-76 -485q5 4 14 10.5t37.5 23t59 29t76 23t89.5 10.5q165 0 224 -88.5t30 -263.5l-65 -426q-8 -55 5.5 -77.5t57.5 -22.5q27 0 51 8q4 -35 -2 -76q-3 -18 -9 -37 t-10 -29l-5 -10q-79 -30 -172 -30q-139 0 -190 69t-29 205l65 426q15 97 -4.5 137.5t-87.5 40.5q-47 0 -88 -21t-59 -42l-17 -21l-121 -774q-77 -12 -153 -12q-35 0 -72.5 3t-57.5 6z" />
<glyph unicode="i" horiz-adv-x="647" d="M174 893q-6 22 0 59q3 15 8 29.5t9 21.5l4 7q102 20 270 20q40 0 82.5 -3t64.5 -6l23 -3l-117 -758q-8 -55 5.5 -77.5t56.5 -22.5q27 0 51 8q6 -35 -2 -76q-3 -18 -9 -37t-11 -29l-5 -10q-79 -30 -170 -30q-141 0 -192 69t-27 205l90 600zM358 1188l39 239q78 13 154 13 q34 0 71 -3t58 -7l20 -3l-38 -239q-78 -14 -154 -14q-35 0 -72.5 3.5t-57.5 6.5z" />
<glyph unicode="j" horiz-adv-x="608" d="M-68 -391q-4 35 2 78q4 19 10 39t10 30l5 11q26 -17 94 -17q61 0 90 33.5t41 112.5l148 964l-129 33q-1 2 -1.5 7t-1.5 20.5t1 31.5q4 15 9 29.5t8 21.5l3 7q103 20 273 20q40 0 82.5 -3t65.5 -6l22 -3l-177 -1122q-27 -160 -109.5 -240t-240.5 -80q-53 0 -103 8 t-73.5 15t-28.5 10zM387 1188l39 239q76 13 154 13q34 0 71 -3t57 -7l21 -3l-39 -239q-79 -14 -155 -14q-34 0 -71 3.5t-57 6.5z" />
<glyph unicode="k" horiz-adv-x="1095" d="M119 6l196 1264l-131 33q-6 22 0 59q4 15 9 29t9 21l3 7q102 21 272 21q38 0 80.5 -3t66.5 -7l23 -3l-131 -823l66 19l178 258l-55 12q-1 2 -2 7t-2 20.5t1 31.5q4 15 9 29.5t9 21.5l3 7q104 20 274 20q56 0 107.5 -5t74.5 -10l23 -5q1 -3 2 -8t2 -20.5t-2 -29.5 q-3 -16 -8 -31t-8 -21l-4 -7l-140 -33l-231 -325l152 -371l129 -33q6 -22 0 -59q-3 -15 -8 -29.5t-9 -21.5l-4 -7q-94 -20 -205 -20q-36 0 -72 3t-54 6l-19 3l-174 432l-64 -20l-63 -412q-78 -12 -154 -12q-35 0 -72 3t-57 6z" />
<glyph unicode="l" horiz-adv-x="593" d="M160 260l155 1010l-131 33q-6 22 0 59q4 15 9 29t9 21l3 7q102 21 272 21q40 0 82.5 -3t64.5 -7l23 -3l-184 -1167q-8 -55 5.5 -77.5t55.5 -22.5q31 0 51 8q6 -35 0 -76q-4 -18 -10 -37t-10 -29l-4 -10q-84 -30 -172 -30q-140 0 -191 68.5t-28 205.5z" />
<glyph unicode="m" horiz-adv-x="1771" d="M172 6l133 854l-131 33q-6 22 0 59q3 15 8 29.5t9 21.5l4 7q102 20 270 20q40 0 82.5 -3t64.5 -6l23 -3l-10 -76q5 4 13.5 10.5t37 23t58 29t74 23t87.5 10.5q174 0 223 -98q6 4 17 10.5t47 23.5t73.5 30t93 23.5t109.5 10.5q163 0 221 -86.5t29 -257.5l-66 -434 q-8 -55 5.5 -77.5t56.5 -22.5q27 0 51 8q6 -35 -2 -76q-3 -18 -9 -37t-10 -29l-5 -10q-79 -30 -170 -30q-141 0 -192.5 69t-27.5 205l66 434q14 93 -5 131.5t-85 38.5q-43 0 -81 -17.5t-51.5 -30.5t-21.5 -23l-123 -787q-77 -12 -153 -12q-34 0 -71.5 3t-57.5 6l-21 3 l107 688q15 92 -4 131t-84 39q-45 0 -84.5 -21t-56.5 -42l-17 -21l-121 -774q-77 -12 -153 -12q-34 0 -71.5 3t-58.5 6z" />
<glyph unicode="n" horiz-adv-x="1224" d="M172 6l133 854l-131 33q-6 22 0 57q3 16 8 31t9 22l4 7q102 20 270 20q39 0 81.5 -3t65.5 -6l23 -3l-10 -76q5 4 14 10.5t38 23t59.5 29t76 23t90.5 10.5q166 0 225.5 -88t30.5 -262l-65 -428q-8 -55 5 -77.5t56 -22.5q31 0 51 8q6 -35 0 -76q-4 -18 -10 -37t-10 -29 l-4 -10q-84 -30 -172 -30q-140 0 -191 68.5t-28 205.5l65 426q14 97 -6.5 137.5t-89.5 40.5q-47 0 -88 -21t-58 -42l-18 -21l-121 -774q-77 -12 -153 -12q-34 0 -71.5 3t-58.5 6z" />
<glyph unicode="o" horiz-adv-x="1056" d="M139 338l54 348q19 116 73.5 192t160.5 118t265 42q236 0 326 -88.5t61 -263.5l-53 -348q-29 -175 -147.5 -263.5t-354.5 -88.5q-235 0 -324.5 88.5t-60.5 263.5zM442 338q-14 -97 10.5 -137.5t102.5 -40.5q79 0 116.5 41t51.5 137l53 348q14 97 -10 137.5t-102 40.5 q-79 0 -116.5 -41t-51.5 -137z" />
<glyph unicode="p" horiz-adv-x="1136" d="M106 -403l199 1263l-131 33q-6 22 0 59q3 15 8 29.5t9 21.5l4 7q102 20 270 20q39 0 81.5 -3t65.5 -6l23 -3l-10 -76q5 4 14 10.5t38 23t59.5 29t76 23t90.5 10.5q165 0 225 -88.5t31 -263.5l-55 -348q-27 -175 -129.5 -263.5t-300.5 -88.5q-55 0 -103 15t-69 28.5 t-21 17.5l-71 -450q-78 -13 -154 -13q-34 0 -71.5 3t-58.5 7zM528 338q-14 -97 11.5 -137.5t107.5 -40.5q72 0 106 40.5t48 137.5l55 348q14 97 -6 137.5t-88 40.5q-48 0 -89.5 -21t-58.5 -42l-18 -21z" />
<glyph unicode="q" horiz-adv-x="1069" d="M139 338l54 348q29 176 115 264t251 88q45 0 87.5 -10t71 -24t50.5 -28t32 -24l11 -10l10 76q74 12 154 12q34 0 71 -3t58 -6l20 -3l-225 -1421q-78 -13 -154 -13q-34 0 -71 3t-58 7l-20 3l70 450q0 -3 -25 -16.5t-77 -29t-107 -15.5q-199 0 -273 88.5t-45 263.5z M442 338q-14 -98 8 -138t95 -40q81 0 118.5 40.5t51.5 137.5l67 442q-1 3 -4 9t-14 20.5t-25 25.5t-39.5 20t-56.5 9q-68 0 -100.5 -40.5t-46.5 -137.5z" />
<glyph unicode="r" horiz-adv-x="847" d="M172 6l133 854l-131 33q-6 22 0 57q3 16 8 31t9 22l4 7q102 20 270 20q39 0 81.5 -3t65.5 -6l23 -3l-17 -113q5 5 15 14t43 32t68 40.5t89 32t109 14.5q6 -39 -2 -90q-4 -24 -11 -47t-13 -34l-5 -11q-57 0 -112 -20.5t-93.5 -49t-68.5 -57.5t-45 -49l-14 -21l-103 -653 q-77 -12 -153 -12q-34 0 -71.5 3t-58.5 6z" />
<glyph unicode="s" horiz-adv-x="954" d="M86 68q12 73 28.5 140t27.5 98l10 30q37 8 88 8q23 0 44 -2t30 -4l10 -2l14 -137q52 -39 139 -39q72 0 104.5 27.5t41.5 93.5l6 41q3 23 -15.5 40.5t-52 28.5t-76 23.5t-87 25t-85.5 34.5t-71 50t-44 74t-5 104l8 41q23 146 133 220.5t330 74.5q57 0 113 -8.5t94 -21 t68.5 -25t44.5 -21.5l15 -8q-11 -73 -27.5 -140t-27.5 -98l-10 -30q-37 -8 -88 -8q-23 0 -44 2t-30 4l-10 2l-14 145q-5 5 -15.5 11.5t-38 14t-59.5 7.5q-65 0 -97 -28.5t-40 -92.5l-9 -41q-4 -25 21.5 -42.5t69 -30t95.5 -25.5t103 -34.5t91 -51t60 -80t9 -116.5l-6 -41 q-24 -148 -138 -221.5t-348 -73.5q-99 0 -189 20.5t-131 41.5z" />
<glyph unicode="t" horiz-adv-x="770" d="M174 887q-6 22 0 59q2 15 7 29.5t9 21.5l5 7q57 16 153 16l66 203q66 12 129 12q28 0 59 -3t48 -6l18 -3l-31 -199h223q6 -35 -4 -86q-4 -24 -10.5 -46t-11.5 -32l-5 -10h-223l-80 -539q-14 -81 7.5 -116t89.5 -35q62 0 106 22q4 -35 -2 -76q-4 -19 -10.5 -38.5 t-11.5 -29.5l-5 -9q-6 -4 -32.5 -13t-80.5 -19.5t-106 -10.5q-165 0 -225 81.5t-33 243.5l82 543z" />
<glyph unicode="u" horiz-adv-x="1226" d="M174 893q-6 22 0 59q3 15 8 29.5t9 21.5l4 7q102 20 270 20q39 0 81.5 -3t65.5 -6l23 -3l-107 -680q-14 -97 7 -137.5t90 -40.5q31 0 59 8.5t46 21t32 25t20 21.5l6 8l121 774q78 12 154 12q35 0 72 -3t57 -6l20 -3l-116 -752q-8 -62 4.5 -83t56.5 -21q15 0 51 6 q6 -35 0 -76q-4 -18 -10.5 -37t-11.5 -29l-4 -10q-98 -30 -174 -30q-109 0 -149.5 26.5t-45.5 83.5q-6 -4 -17 -11.5t-46 -26.5t-72 -33.5t-91 -26.5t-106 -12q-166 0 -224.5 88t-31.5 264l80 522z" />
<glyph unicode="v" horiz-adv-x="1148" d="M174 893q-6 22 0 59q3 15 8 29.5t9 21.5l4 7q102 20 270 20q39 0 81.5 -3t65.5 -6l23 -3l-105 -666q-15 -105 7.5 -148.5t97.5 -43.5q53 0 90 30t66 104.5t49 201.5q22 141 27 271.5t-1 190.5l-6 60q72 12 146 12q31 0 66.5 -3t55.5 -6l19 -3q5 -23 11 -66t7 -179 t-22 -277q-44 -274 -169 -392t-370 -118q-230 0 -318 92.5t-59 273.5l78 508z" />
<glyph unicode="w" horiz-adv-x="1695" d="M174 893q-6 22 0 59q3 15 8 29.5t9 21.5l4 7q102 20 270 20q39 0 81.5 -3t65.5 -6l23 -3l-105 -666q-15 -104 6.5 -148t92.5 -44q51 0 86 28.5t63 94.5q0 13 3 38.5t3 30.5l105 666q77 12 153 12q35 0 72.5 -3t57.5 -6l20 -3l-105 -666q-14 -105 7.5 -148.5t93.5 -43.5 q76 0 122 74t76 262q22 141 26.5 271.5t-1.5 190.5l-6 60q73 12 145 12q32 0 67.5 -3t54.5 -6l20 -3q5 -23 11.5 -66t7 -179t-20.5 -277q-44 -273 -160 -391.5t-338 -118.5q-105 0 -181.5 31.5t-115.5 88.5q-120 -120 -328 -120q-211 0 -290 92t-50 274l78 508z" />
<glyph unicode="x" horiz-adv-x="1120" d="M27 14q-8 25 0 58q2 16 7 31t9 21l4 7l131 31l273 362l-154 336l-129 33q-4 22 0 59q3 15 8 29.5t8 21.5l4 7q103 20 197 20q35 0 74 -3t61 -6l21 -3l125 -340l129 203l-60 12q-1 2 -1.5 7t-1.5 20.5t1 31.5q4 15 9 29.5t8 21.5l4 7q104 20 274 20q54 0 104.5 -5 t74.5 -10l24 -5q8 -25 0 -58q-2 -16 -7 -31t-10 -21l-4 -7l-131 -31l-250 -338l160 -360l129 -33q4 -22 0 -59q-3 -15 -8 -29.5t-8 -21.5l-4 -7q-103 -20 -197 -20q-35 0 -74 3t-61 6l-21 3l-133 363l-151 -226l63 -12q4 -22 0 -59q-4 -15 -9 -29.5t-8 -21.5l-3 -7 q-107 -20 -275 -20q-54 0 -104.5 5t-74.5 10z" />
<glyph unicode="y" horiz-adv-x="1157" d="M162 -301q4 24 12 45.5t14 31.5l7 9q131 -35 319 -35q111 0 159.5 40t63.5 138l17 121q0 -3 -24 -17t-78 -30t-115 -16q-196 0 -267.5 88t-44.5 264l80 522l-131 33q-6 22 0 59q3 15 8 29.5t9 21.5l4 7q102 20 270 20q39 0 81.5 -3t65.5 -6l23 -3l-107 -680 q-14 -97 7 -137.5t90 -40.5q30 0 57.5 8.5t45.5 21t31.5 25t20.5 21.5l6 8l121 774q78 12 154 12q35 0 72 -3t57 -6l20 -3l-170 -1090q-29 -176 -159 -264t-396 -88q-84 0 -164.5 9t-118.5 19l-38 9q-1 4 -2 10.5t-3 29.5t3 46z" />
<glyph unicode="z" horiz-adv-x="962" d="M80 0q-6 33 2 86q4 24 11 46t13 32l5 10l581 676h-311l-62 -141q-28 -9 -65 -9q-17 0 -32.5 2t-21.5 4l-7 3q-7 76 18 219q4 24 11 48t12 36l6 12h798q6 -35 -2 -86q-4 -24 -11 -46t-12 -32l-5 -10l-582 -676h313l70 141q24 9 61 9q17 0 32.5 -2t22.5 -4l7 -3 q4 -76 -19 -219q-4 -24 -11 -48t-12 -36l-5 -12h-805z" />
<glyph unicode="{" horiz-adv-x="698" d="M141 530q-8 35 2 86q4 23 10.5 45t11.5 33l5 11q85 0 125 41.5t55 136.5l47 307q27 174 142.5 262t343.5 88q6 -33 -2 -88q-4 -23 -11 -44t-12 -30l-6 -10q-85 0 -123.5 -40.5t-52.5 -137.5l-47 -307q-31 -190 -146 -267q91 -79 60 -264l-47 -307q-14 -98 12.5 -138 t112.5 -40q5 -33 -3 -84q-4 -23 -11 -45t-12 -32l-5 -11q-228 0 -315 87.5t-58 262.5l47 307q15 97 -11 137.5t-112 40.5z" />
<glyph unicode="|" horiz-adv-x="428" d="M63 -199l275 1729q60 12 119 12q27 0 56.5 -3t45.5 -6l16 -3l-274 -1729q-62 -12 -121 -12q-26 0 -55.5 3t-45.5 6z" />
<glyph unicode="}" horiz-adv-x="698" d="M12 -305q-6 37 2 88q3 23 9 44t11 31l5 9q86 0 125 40.5t53 137.5l47 307q32 189 144 264q-89 80 -58 267l47 307q14 97 -13 137.5t-112 40.5q-6 33 2 84q4 24 11 46t13 32l5 10q228 0 314 -87.5t59 -262.5l-47 -307q-15 -95 11.5 -136.5t111.5 -41.5q6 -38 -2 -89 q-4 -23 -11 -44.5t-11 -31.5l-5 -10q-86 0 -125.5 -40.5t-54.5 -137.5l-47 -307q-29 -175 -143.5 -262.5t-340.5 -87.5z" />
<glyph unicode="~" horiz-adv-x="909" d="M139 502l2 10q21 130 74.5 191t165.5 61q58 0 100.5 -12t66 -29t41.5 -34.5t36.5 -29.5t40.5 -12q53 0 73.5 23t30.5 80q51 14 100 14q21 0 45 -3.5t38 -6.5l14 -4l-2 -9q-23 -135 -74 -194.5t-166 -59.5q-70 0 -120 18.5t-70.5 40t-45 40t-49.5 18.5q-53 0 -72.5 -22 t-31.5 -80q-51 -13 -100 -13q-21 0 -45 3.5t-38 6.5z" />
<glyph unicode="&#xa1;" horiz-adv-x="493" d="M31 -403l153 981q78 14 154 14q34 0 71 -3.5t57 -6.5l21 -4l-153 -981q-78 -13 -154 -13q-34 0 -71 3t-57 7zM213 764l41 254q78 12 156 12q34 0 71 -3t57 -6l21 -3l-41 -254q-80 -12 -156 -12q-34 0 -71 3t-57 6z" />
<glyph unicode="&#xa2;" horiz-adv-x="983" d="M139 338l54 348q24 153 118 239.5t275 104.5l30 193q62 12 121 12q27 0 56.5 -3t44.5 -6l16 -3l-31 -195q68 -8 126.5 -27t82.5 -34l25 -15q-11 -72 -27.5 -139t-27.5 -98l-11 -31q-37 -8 -90 -8q-22 0 -42.5 2t-30.5 4l-9 2l-14 145q-47 35 -125 35q-88 0 -129 -40.5 t-55 -137.5l-54 -348q-14 -98 21 -138t145 -40q79 0 157.5 15t117.5 31l39 15q1 -4 2 -11t3 -30t-3 -45q-4 -24 -12 -46t-14 -32l-7 -10q-91 -45 -232 -55l-30 -191q-60 -12 -119 -12q-27 0 -57 3t-46 6l-16 3l31 195q-175 21 -241 106.5t-42 235.5z" />
<glyph unicode="&#xa3;" horiz-adv-x="1140" d="M55 0q-8 37 2 94q4 24 12 47.5t13 34.5l6 12h68l57 398h-68q-6 33 2 86q4 23 11 44.5t12 31.5l6 10h68l45 301q30 194 161.5 291.5t393.5 97.5q91 0 168.5 -14.5t123.5 -35t79 -40.5t46 -34l13 -15q-12 -76 -29.5 -147.5t-28.5 -105.5l-12 -34q-39 -8 -94 -8 q-24 0 -47.5 2t-34.5 4l-12 2l-8 168q-2 3 -7 7.5t-23 16.5t-38.5 21.5t-55.5 17t-73 7.5q-98 0 -143 -46t-60 -155l-45 -301h271q5 -35 -3 -86q-4 -24 -11 -45.5t-12 -30.5l-5 -10h-271l-57 -398h617q5 -37 -5 -94q-4 -25 -11 -48.5t-12 -34.5l-5 -11h-1004z" />
<glyph unicode="&#xa4;" horiz-adv-x="880" d="M109 395l135 119q-9 44 0 100l10 60q10 72 43 123l-107 129q25 32 70 69q20 16 41 29.5t32 19.5l11 5l125 -150q58 21 115 21q55 0 106 -21l174 150q33 -17 68 -54q15 -16 26 -33.5t15 -26.5l4 -9l-148 -129q18 -53 9 -123l-11 -60q-10 -64 -34 -102l98 -117 q-21 -32 -68 -69q-20 -16 -41.5 -29.5t-33.5 -18.5l-11 -6l-100 121q-67 -24 -141 -24q-86 0 -138 24l-137 -121q-32 15 -65 54q-16 16 -27.5 33t-15.5 27zM424 614q-8 -50 14.5 -74t81.5 -24q60 0 88.5 23.5t36.5 74.5l10 60q6 51 -15.5 73.5t-80.5 22.5q-61 0 -90 -23 t-35 -73z" />
<glyph unicode="&#xa5;" horiz-adv-x="1355" d="M223 1294q-6 25 2 64q2 16 7 31.5t10 22.5l4 7q117 21 246 21q104 0 189.5 -5t118.5 -11l34 -5q6 -24 0 -61q-3 -17 -8.5 -33t-9.5 -23l-5 -8l-117 -20l117 -453l248 453l-109 20q-6 25 0 64q3 16 8 31.5t9 22.5l4 7q117 21 350 21q56 0 115.5 -5t91.5 -11l31 -5 q4 -24 0 -61q-4 -17 -9.5 -33t-9.5 -23l-4 -8l-154 -26l-405 -637h180q1 -3 2 -8.5t2 -23t-2 -34.5t-8.5 -33t-9.5 -23l-4 -7h-222l-16 -115h219q1 -3 2 -8t3 -22.5t-3 -34.5q-3 -16 -8.5 -32t-9.5 -24l-4 -8h-219l-13 -92l144 -27q6 -24 0 -63q-4 -16 -9.5 -31.5 t-9.5 -22.5l-4 -8q-114 -20 -311 -20q-87 0 -162.5 5t-107.5 10l-33 5q-8 25 0 62q3 17 8.5 33t9.5 23l4 7l152 27l12 92h-219q-1 3 -2 8t-3 22t3 34q3 17 8.5 33.5t9.5 24.5l4 7h220l16 115h-219q-1 3 -2 8t-2 21.5t2 33.5q4 17 10 33.5t10 24.5l4 8h174l-204 637z" />
<glyph unicode="&#xa6;" horiz-adv-x="428" d="M63 -199l119 756q62 12 121 12q27 0 56.5 -3t44.5 -6l16 -3l-119 -756q-62 -12 -121 -12q-26 0 -55.5 3t-45.5 6zM217 774l121 756q60 12 119 12q27 0 56.5 -3t45.5 -6l16 -3l-120 -756q-62 -12 -121 -12q-26 0 -55.5 3t-45.5 6z" />
<glyph unicode="&#xa7;" horiz-adv-x="1153" d="M31 -285q13 76 30.5 147.5t28.5 105.5l12 34q42 8 97 8q24 0 47 -2t34 -4l11 -2l10 -168q3 -3 8.5 -9t25.5 -20.5t44 -25.5t65 -20t86 -9q118 0 169.5 43.5t66.5 149.5l6 32q6 43 -19.5 76t-72 52.5t-106.5 40t-123 37.5t-121.5 46t-102 64t-64.5 93t-9 132l6 33 q28 186 155 272q-99 85 -77 228l6 32q30 185 161.5 276t397.5 91q95 0 176 -14.5t129 -35t83 -40.5t49 -34l13 -15q-13 -76 -30 -147.5t-28 -105.5l-11 -34q-39 -8 -94 -8q-24 0 -48 2t-36 4l-11 2l-10 168q-2 3 -7.5 9t-24 20.5t-41 25.5t-60 20t-80.5 9 q-108 0 -159.5 -45.5t-69.5 -147.5l-4 -32q-7 -44 27 -76t93 -52.5t131.5 -41t143 -48.5t126.5 -66.5t84.5 -104t14.5 -152.5l-6 -33q-24 -177 -152 -268q95 -92 74 -232l-6 -32q-19 -122 -81 -201.5t-183 -122.5t-305 -43q-98 0 -182.5 14.5t-134.5 35t-86.5 40.5t-50.5 34 zM455 516q-4 -30 7.5 -54t31.5 -39.5t54.5 -30.5t66 -24.5t77.5 -24.5t78 -28q65 43 80 160l6 33q4 31 -6.5 56.5t-28.5 42t-52.5 33t-62 26t-75 24.5t-74.5 25q-76 -39 -98 -166z" />
<glyph unicode="&#xa8;" horiz-adv-x="858" d="M287 1208l37 219q52 13 120 13q29 0 58.5 -3t43.5 -7l15 -3l-37 -219q-53 -12 -121 -12q-29 0 -58 3t-43 6zM715 1208l35 219q54 13 120 13q29 0 58.5 -3t43.5 -7l15 -3l-35 -219q-55 -12 -121 -12q-30 0 -59 3t-43 6z" />
<glyph unicode="&#xa9;" horiz-adv-x="1658" d="M166 492l70 450q20 124 74.5 216t152.5 158t247 99t349 33q392 0 546.5 -127t114.5 -379l-69 -450q-41 -252 -236.5 -379t-589.5 -127q-200 0 -337.5 33t-214 99t-102 158t-5.5 216zM453 492q-20 -122 10.5 -193t124.5 -105t268 -34t278.5 34.5t157 105t72.5 192.5 l70 450q19 121 -12 192t-125.5 105.5t-268.5 34.5q-256 0 -367 -75.5t-139 -256.5q1 1 -16.5 -111.5t-35.5 -225.5zM668 559l49 324q18 102 87.5 152t209.5 50q141 0 185 -48.5t26 -153.5v-11q-43 -8 -84 -8q-18 0 -38 2t-31 4l-11 2v11q9 53 -6 75.5t-60 22.5 q-46 0 -67.5 -22t-30.5 -76l-49 -324q-8 -54 11 -76t79 -22q23 0 47 2.5t43.5 6t37.5 8t32 9.5t24.5 8.5t16.5 6.5l6 2q4 -20 -2 -53q-2 -15 -6 -29t-7 -20l-4 -7q-91 -39 -208 -39q-151 0 -209.5 51t-40.5 152z" />
<glyph unicode="&#xaa;" horiz-adv-x="813" d="M207 922q12 99 80.5 150.5t218.5 66.5l133 14l10 59q6 58 -11.5 81.5t-72.5 23.5q-27 0 -51 -7t-34.5 -12.5t-14.5 -9.5l-41 -94q-27 -6 -64 -6q-17 0 -33 1.5t-23 2.5l-7 2q-2 75 16 190q13 7 37 17t95.5 26.5t140.5 16.5q169 0 235.5 -58.5t48.5 -173.5l-59 -376 l90 -23q9 0 -5 -63q-6 -25 -9 -23q-74 -14 -195 -14q-29 0 -60 2t-47 4l-16 2l9 53q-10 -8 -27 -19t-69 -29.5t-101 -18.5q-111 0 -152 54.5t-22 160.5zM426 915q-4 -29 0.5 -46.5t20.5 -26t45 -8.5q31 0 57 14t37 28l10 13l22 143l-90 -14q-29 -4 -48 -12.5t-30 -22 t-16 -29.5t-8 -39z" />
<glyph unicode="&#xab;" horiz-adv-x="1052" d="M137 555l469 399q31 -14 68 -53q15 -16 26 -33.5t15 -27.5l4 -9l-316 -276l230 -281q-23 -32 -70 -69q-20 -16 -41 -29t-32 -18l-11 -6zM541 555l469 399q30 -14 67 -53q15 -16 26 -33.5t15 -27.5l4 -9l-315 -276l229 -281q-22 -32 -69 -69q-20 -16 -41 -29t-32 -18 l-11 -6z" />
<glyph unicode="&#xac;" horiz-adv-x="823" d="M162 594q-6 35 2 86q4 23 11.5 44.5t12.5 31.5l5 10h256q118 0 227.5 -4.5t159.5 -9.5l51 -4l-49 -304q-68 -14 -131 -14q-28 0 -58.5 3.5t-47.5 6.5l-17 4l20 150h-442z" />
<glyph unicode="&#xad;" horiz-adv-x="575" d="M145 485q-6 33 2 86q4 24 11 46t12 32l6 10h430q6 -35 -2 -88q-4 -23 -11 -44.5t-13 -31.5l-5 -10h-430z" />
<glyph unicode="&#xae;" horiz-adv-x="1658" d="M166 492l70 450q20 124 74.5 216t152.5 158t247 99t349 33q392 0 546.5 -127t114.5 -379l-69 -450q-41 -252 -236.5 -379t-589.5 -127q-200 0 -337.5 33t-214 99t-102 158t-5.5 216zM453 492q-20 -122 10.5 -193t124.5 -105t268 -34t278.5 34.5t157 105t72.5 192.5 l70 450q19 121 -12 192t-125.5 105.5t-268.5 34.5q-256 0 -367 -75.5t-139 -256.5q1 1 -16.5 -111.5t-35.5 -225.5zM637 362l111 705q99 14 251 14q142 0 196 -50.5t36 -151.5l-4 -41q-24 -132 -140 -176l101 -300q-49 -8 -94 -8q-20 0 -43 2t-37 4l-13 2l-83 277l-58 2 l-41 -279q-49 -8 -94 -8q-20 0 -42 2t-34 4zM879 743h67q49 0 70.5 21t30.5 74l4 41q9 53 -6 75.5t-64 22.5h-68z" />
<glyph unicode="&#xaf;" horiz-adv-x="524" d="M166 1208q-6 25 0 64q2 17 7.5 33.5t10.5 24.5l4 7h568q1 -3 2 -8t2 -22.5t-2 -34.5t-9 -33t-11 -23l-5 -8h-567z" />
<glyph unicode="&#xb0;" horiz-adv-x="643" d="M295 1198l8 47q30 195 252 195q113 0 158.5 -51.5t31.5 -143.5l-8 -47q-30 -194 -252 -194q-220 0 -190 194zM434 1198q-12 -78 70 -78q44 0 66 19t28 59l8 47q5 39 -11.5 57.5t-59.5 18.5q-45 0 -66.5 -18.5t-26.5 -57.5z" />
<glyph unicode="&#xb1;" horiz-adv-x="827" d="M84 100q-6 31 2 82q4 22 10.5 42.5t11.5 29.5l5 10h682q8 -33 0 -82q-4 -22 -11 -42.5t-12 -29.5l-6 -10h-682zM162 588q-6 33 2 86q4 24 11 46t13 32l5 10h243l39 256q41 10 98 10q26 0 50.5 -2.5t35.5 -5.5l11 -2l-39 -256h243q6 -35 -2 -88q-4 -23 -11 -44.5 t-12 -31.5l-5 -10h-244l-41 -254q-39 -12 -98 -12q-25 0 -49 3t-36 6l-11 3l41 254h-244z" />
<glyph unicode="&#xb2;" horiz-adv-x="591" d="M172 727l18 119q7 43 26 77t45.5 56t58.5 41.5t64 32.5t63.5 29t57 32t43 40t21.5 54l6 35q9 57 -7.5 82t-63.5 25q-31 0 -58.5 -11t-38.5 -21l-12 -11l-33 -82q-18 -4 -47 -4h-12.5t-11 0.5l-9 1t-7 1l-5 1t-3.5 0.5h-1q-1 59 13 147q2 1 5 3.5t14 9.5t23.5 13.5 t34 14.5t44.5 13.5t54.5 9.5t65.5 4q130 0 179.5 -49t31.5 -148l-4 -35q-8 -50 -32 -88t-56.5 -61t-70 -42t-75 -34.5t-68.5 -32.5t-53.5 -43.5t-27.5 -60.5l-4 -37h231l33 70q13 4 33 4q9 0 17 -1t12 -2l4 -1q1 5 1 -1q1 -46 -12 -123q-6 -36 -12 -38h-254 q-60 0 -115.5 2.5t-80.5 4.5z" />
<glyph unicode="&#xb3;" horiz-adv-x="579" d="M176 750q-4 20 0 47q3 14 7 25.5t7 17.5l3 6q0 -3 21.5 -13.5t67 -21t95.5 -10.5q69 0 99 22.5t38 77.5l6 41q5 36 -2 57t-29 31t-63 10h-94q-4 21 2 50q1 6 2 11.5t2.5 10.5t3 9t2.5 7t2 5t1 3l1 1l191 200h-174l-31 -65q-15 -4 -33 -4q-10 0 -18.5 1t-11.5 2l-3 1 q-1 -5 -2 2q-1 44 13 122q6 35 12 38h434q4 -18 0 -45l-14 -48l-211 -211q207 0 178 -188l-6 -41q-14 -94 -86.5 -142t-220.5 -48q-51 0 -98.5 9.5t-68.5 19.5z" />
<glyph unicode="&#xb4;" horiz-adv-x="491" d="M193 1151l235 276q67 13 139 13q29 0 63.5 -3t54.5 -7l20 -3l-338 -276q-47 -14 -88 -14q-20 0 -41.5 3.5t-33.5 7.5z" />
<glyph unicode="&#xb5;" horiz-adv-x="1140" d="M-2 -184q3 16 8 31t8 21l4 7l142 33l145 952l-131 33q-6 22 0 59q3 15 8 29.5t9 21.5l4 7q102 20 270 20q40 0 82.5 -3t64.5 -6l23 -3l-121 -774q1 -3 4 -9t14.5 -20.5t26 -25.5t40 -20t56.5 -9q69 0 101.5 40.5t46.5 137.5l80 522l-131 33q-4 22 0 59q3 15 8 29.5 t8 21.5l4 7q102 20 270 20q40 0 82.5 -3t65.5 -6l22 -3l-106 -680q-27 -175 -114.5 -263.5t-254.5 -88.5q-45 0 -87.5 10t-71 24t-50.5 28t-32 24l-11 10l-22 -174l129 -33q1 -2 2 -7t2 -20.5t-2 -31.5q-3 -15 -8.5 -29.5t-9.5 -21.5l-5 -7q-108 -20 -290 -20 q-80 0 -150.5 5t-101.5 10l-31 5q-4 25 0 58z" />
<glyph unicode="&#xb6;" horiz-adv-x="1026" d="M100 -86q4 24 12.5 45.5t14.5 30.5l6 10q12 -5 33 -12.5t87.5 -20t133.5 -12.5q90 0 130 40.5t54 137.5l41 273q-2 -4 -22 -17.5t-63 -29t-89 -15.5q-163 0 -222 89t-30 263l31 195q29 175 141 263.5t334 88.5q135 0 257.5 -7.5t177.5 -14.5l55 -7q6 -24 0 -57 q-2 -16 -7 -31t-9 -22l-5 -6l-141 -33l-146 -932q-27 -175 -144 -263.5t-349 -88.5q-74 0 -143 11.5t-102 23.5l-32 12q-1 4 -2.5 10.5t-4 29.5t2.5 46z" />
<glyph unicode="&#xb7;" horiz-adv-x="477" d="M160 422l41 252q71 14 145 14q32 0 67.5 -3.5t54.5 -6.5l19 -4l-41 -252q-75 -14 -147 -14q-32 0 -66.5 3.5t-53.5 6.5z" />
<glyph unicode="&#xb8;" horiz-adv-x="1050" d="M309 -301q2 12 6 24t7 19l4 6q44 -24 112 -24q53 0 77 16t30 55q3 19 -10 31t-33.5 20t-40 19.5t-30.5 37t-5 64.5l6 33h164l-8 -33q-3 -20 10.5 -34t33.5 -23t40 -21t31.5 -35.5t5.5 -58.5q-12 -85 -76 -132.5t-174 -47.5q-46 0 -83 8.5t-51 17.5l-14 9q-1 2 -1.5 6 t-1.5 17.5t1 25.5z" />
<glyph unicode="&#xb9;" horiz-adv-x="512" d="M195 725q-4 13 0 29q0 9 2.5 17t4.5 11l3 4l106 17l82 526l-121 -24q-9 2 8 61q5 18 7 16l178 56q24 0 50 -2t40 -4l14 -2l-98 -627l107 -17v-32l-13 -29q-69 -12 -188 -12q-52 0 -97.5 3t-65.5 6z" />
<glyph unicode="&#xba;" horiz-adv-x="757" d="M217 954l37 242q21 123 104 185.5t248 62.5q166 0 230 -62.5t45 -185.5l-39 -242q-19 -123 -102.5 -185t-250.5 -62q-165 0 -229 62t-43 185zM438 954q-9 -66 6.5 -93t67.5 -27t76.5 27.5t32.5 92.5l38 242q9 67 -6 94t-67 27t-76 -27t-35 -94z" />
<glyph unicode="&#xbb;" horiz-adv-x="1052" d="M96 274l314 279l-228 278q23 35 70 70q20 16 41 29.5t32 18.5l11 5l340 -401l-467 -401q-33 16 -68 53q-15 16 -26 33.5t-15 26.5zM500 274l313 279l-227 278q22 35 69 70q19 16 40 29.5t33 18.5l11 5l340 -401l-467 -401q-32 16 -67 53q-15 16 -26 33.5t-15 26.5z" />
<glyph unicode="&#xbc;" horiz-adv-x="1327" d="M133 6l1081 1421q54 13 107 13q23 0 48 -3t39 -7l13 -3l-1083 -1421q-54 -12 -105 -12q-24 0 -49 3t-38 6zM195 725q-4 13 0 29q0 9 2.5 17t4.5 11l3 4l106 17l82 526l-121 -24q-9 2 8 61q5 18 7 16l178 56q24 0 50 -2t40 -4l14 -2l-98 -627l107 -17v-32l-13 -29 q-69 -12 -188 -12q-52 0 -97.5 3t-65.5 6zM780 158q-2 18 0 47l248 508q29 8 74 8q21 0 41 -2t29 -4l10 -2l-219 -459h137l39 254q38 8 75 8q16 0 34.5 -2t29.5 -4l10 -2l-41 -254l51 -12q4 -19 0 -39q-1 -10 -4.5 -20.5t-6.5 -15.5l-3 -5q-14 -4 -47 -4l-25 -154 q-38 -8 -79 -8q-16 0 -34.5 2t-28.5 4l-11 2l22 154h-301z" />
<glyph unicode="&#xbd;" horiz-adv-x="1368" d="M133 6l1081 1421q54 13 107 13q23 0 48 -3t39 -7l13 -3l-1083 -1421q-54 -12 -105 -12q-24 0 -49 3t-38 6zM195 725q-4 13 0 29q0 9 2.5 17t4.5 11l3 4l106 17l82 526l-121 -24q-9 2 8 61q5 18 7 16l178 56q24 0 50 -2t40 -4l14 -2l-98 -627l107 -17v-32l-13 -29 q-69 -12 -188 -12q-52 0 -97.5 3t-65.5 6zM825 10l21 119q8 48 31.5 85.5t55.5 61.5t69.5 43t74.5 35t68 34t53 44t27 60l6 34q4 28 2.5 48.5t-10.5 33.5t-24.5 19t-39.5 6q-19 0 -37 -4.5t-30.5 -11t-22 -12.5t-13.5 -11l-5 -4l-33 -82q-18 -4 -47 -4q-13 0 -25 1t-18 2 l-6 1q-2 59 12 147q3 3 9 7.5t28 16t48 20.5t68.5 16.5t88.5 7.5q88 0 138.5 -23t67.5 -65.5t7 -108.5l-7 -34q-8 -50 -31.5 -88t-56 -61.5t-70 -42t-75 -34.5t-69 -33t-54 -43.5t-27.5 -60.5l-6 -37h234l33 70q11 4 34 4q8 0 16 -1t11 -2l4 -1q1 5 2 -2q1 -43 -12 -122 q-6 -35 -12 -38h-254q-59 0 -115 2.5t-82 5.5z" />
<glyph unicode="&#xbe;" horiz-adv-x="1347" d="M143 6l1084 1421q53 13 104 13q24 0 49.5 -3t39.5 -7l14 -3l-1084 -1421q-53 -12 -104 -12q-24 0 -49.5 3t-39.5 6zM176 750q-4 20 0 47q3 14 7 25.5t7 17.5l3 6q0 -3 21.5 -13.5t67 -21t95.5 -10.5q69 0 99 22.5t38 77.5l6 41q5 36 -2 57t-29 31t-63 10h-94q-4 21 2 50 q1 6 2 11.5t2.5 10.5t3 9t2.5 7t2 5t1 3l1 1l191 200h-174l-31 -65q-15 -4 -33 -4q-10 0 -18.5 1t-11.5 2l-3 1q-1 -5 -2 2q-1 44 13 122q6 35 12 38h434q4 -18 0 -45l-14 -48l-211 -211q207 0 178 -188l-6 -41q-14 -94 -86.5 -142t-220.5 -48q-51 0 -98.5 9.5t-68.5 19.5z M801 158q-4 18 0 47l248 508q28 8 73 8q20 0 39.5 -2t29.5 -4l9 -2l-217 -459h135l41 254q37 8 74 8q17 0 35.5 -2t28.5 -4l10 -2l-39 -254l51 -12q9 -6 -6 -62q-6 -20 -8 -18q-15 -4 -50 -4l-22 -154q-41 -8 -80 -8q-11 0 -23 1t-21 2t-16.5 2t-11.5 2l-4 1l25 154h-301z " />
<glyph unicode="&#xbf;" horiz-adv-x="1089" d="M72 -33l12 72q10 63 36 112t60.5 80t74 56t79 46.5t72.5 44t56.5 55.5t29.5 75l10 72q79 14 155 14q34 0 71 -3.5t57 -6.5l20 -4l-10 -72q-10 -64 -36.5 -114t-61.5 -81t-75 -56t-79.5 -46t-73 -43t-57 -54.5t-29.5 -74.5l-10 -72q-19 -115 15.5 -165t139.5 -50 q59 0 112 17.5t76 34.5l23 18l68 182q39 8 94 8q24 0 47 -2t34 -4l11 -2q5 -117 -24 -287q-6 -6 -18 -15t-55 -33t-93 -42.5t-132.5 -33.5t-172.5 -15q-261 0 -359.5 97t-66.5 292zM530 766l41 252q78 14 156 14q34 0 71.5 -3.5t57.5 -6.5l21 -4l-41 -252q-80 -14 -156 -14 q-34 0 -71.5 3.5t-58.5 6.5z" />
<glyph unicode="&#xc0;" d="M31 76q4 17 9.5 33t9.5 23l3 7l133 27l471 1102l-129 26q-4 25 2 64q3 16 8 31.5t9 22.5l4 7q147 21 397 21q50 0 103.5 -3t81.5 -7l28 -3l146 -1261l129 -27q6 -24 -2 -63q-3 -16 -8 -31.5t-9 -22.5l-4 -8q-109 -20 -244 -20q-104 0 -189.5 5t-119.5 10l-33 5q-1 3 -2 8 t-2 21.5t2 32.5q4 17 9.5 33t9.5 23l4 7l153 27l-22 225h-397l-88 -225l147 -27q6 -24 -2 -63q-3 -16 -8 -31.5t-9 -22.5l-4 -8q-117 -20 -348 -20q-61 0 -120 5t-88 10l-29 5q-1 3 -2 8t-2 21.5t2 32.5zM657 580h314l-64 620zM719 1819q75 14 143 14q31 0 64.5 -3.5 t51.5 -7.5l17 -3l146 -277q-43 -12 -88 -12q-19 0 -40.5 3t-33.5 6l-12 3z" />
<glyph unicode="&#xc1;" d="M31 76q4 17 9.5 33t9.5 23l3 7l133 27l471 1102l-129 26q-4 25 2 64q3 16 8 31.5t9 22.5l4 7q147 21 397 21q50 0 103.5 -3t81.5 -7l28 -3l146 -1261l129 -27q6 -24 -2 -63q-3 -16 -8 -31.5t-9 -22.5l-4 -8q-109 -20 -244 -20q-104 0 -189.5 5t-119.5 10l-33 5q-1 3 -2 8 t-2 21.5t2 32.5q4 17 9.5 33t9.5 23l4 7l153 27l-22 225h-397l-88 -225l147 -27q6 -24 -2 -63q-3 -16 -8 -31.5t-9 -22.5l-4 -8q-117 -20 -348 -20q-61 0 -120 5t-88 10l-29 5q-1 3 -2 8t-2 21.5t2 32.5zM657 580h314l-64 620zM786 1542l234 277q67 14 139 14q30 0 64 -3.5 t53 -7.5l18 -3l-333 -277q-48 -12 -91 -12q-20 0 -41 3t-32 6z" />
<glyph unicode="&#xc2;" d="M31 76q4 17 9.5 33t9.5 23l3 7l133 27l471 1102l-129 26q-4 25 2 64q3 16 8 31.5t9 22.5l4 7q147 21 397 21q50 0 103.5 -3t81.5 -7l28 -3l146 -1261l129 -27q6 -24 -2 -63q-3 -16 -8 -31.5t-9 -22.5l-4 -8q-109 -20 -244 -20q-104 0 -189.5 5t-119.5 10l-33 5q-1 3 -2 8 t-2 21.5t2 32.5q4 17 9.5 33t9.5 23l4 7l153 27l-22 225h-397l-88 -225l147 -27q6 -24 -2 -63q-3 -16 -8 -31.5t-9 -22.5l-4 -8q-117 -20 -348 -20q-61 0 -120 5t-88 10l-29 5q-1 3 -2 8t-2 21.5t2 32.5zM637 1542l240 270q65 15 131 15q28 0 60 -3.5t50 -7.5l19 -4 l153 -270q-43 -12 -88 -12q-19 0 -40.5 3t-33.5 6l-12 3l-129 160l-176 -160q-47 -12 -90 -12q-20 0 -41 3t-32 6zM657 580h314l-64 620z" />
<glyph unicode="&#xc3;" d="M31 76q4 17 9.5 33t9.5 23l3 7l133 27l471 1102l-129 26q-4 25 2 64q3 16 8 31.5t9 22.5l4 7q147 21 397 21q50 0 103.5 -3t81.5 -7l28 -3l146 -1261l129 -27q6 -24 -2 -63q-3 -16 -8 -31.5t-9 -22.5l-4 -8q-109 -20 -244 -20q-104 0 -189.5 5t-119.5 10l-33 5q-1 3 -2 8 t-2 21.5t2 32.5q4 17 9.5 33t9.5 23l4 7l153 27l-22 225h-397l-88 -225l147 -27q6 -24 -2 -63q-3 -16 -8 -31.5t-9 -22.5l-4 -8q-117 -20 -348 -20q-61 0 -120 5t-88 10l-29 5q-1 3 -2 8t-2 21.5t2 32.5zM621 1544l2 8q18 112 65 163.5t146 51.5q51 0 89 -11.5t58.5 -28 t35.5 -33t31.5 -28t36.5 -11.5q44 0 64 20t29 70v10q43 12 86 12q17 0 36.5 -3t29.5 -6l11 -3q-8 -40 -15.5 -67t-19 -54.5t-26 -44.5t-35.5 -31t-49.5 -20t-65.5 -6q-52 0 -90.5 11.5t-59 28t-36 33.5t-32 28.5t-35.5 11.5q-46 0 -63.5 -21.5t-29.5 -79.5q-43 -12 -86 -12 q-17 0 -36.5 3t-29.5 6zM657 580h314l-64 620z" />
<glyph unicode="&#xc4;" d="M31 76q4 17 9.5 33t9.5 23l3 7l133 27l471 1102l-129 26q-4 25 2 64q3 16 8 31.5t9 22.5l4 7q147 21 397 21q50 0 103.5 -3t81.5 -7l28 -3l146 -1261l129 -27q6 -24 -2 -63q-3 -16 -8 -31.5t-9 -22.5l-4 -8q-109 -20 -244 -20q-104 0 -189.5 5t-119.5 10l-33 5q-1 3 -2 8 t-2 21.5t2 32.5q4 17 9.5 33t9.5 23l4 7l153 27l-22 225h-397l-88 -225l147 -27q6 -24 -2 -63q-3 -16 -8 -31.5t-9 -22.5l-4 -8q-117 -20 -348 -20q-61 0 -120 5t-88 10l-29 5q-1 3 -2 8t-2 21.5t2 32.5zM631 1544l37 217q52 15 118 15q30 0 60 -4t44 -8l15 -3l-37 -217 q-52 -12 -120 -12q-29 0 -58.5 3t-43.5 6zM657 580h314l-64 620zM1059 1544l35 217q52 15 120 15q29 0 58.5 -4t43.5 -8l15 -3l-35 -217q-54 -12 -120 -12q-30 0 -59.5 3t-43.5 6z" />
<glyph unicode="&#xc5;" d="M31 76q4 17 9.5 33t9.5 23l3 7l133 27l471 1102l-129 26q-4 25 2 64q3 16 8 31.5t9 22.5l4 7q147 21 397 21q50 0 103.5 -3t81.5 -7l28 -3l146 -1261l129 -27q6 -24 -2 -63q-3 -16 -8 -31.5t-9 -22.5l-4 -8q-109 -20 -244 -20q-104 0 -189.5 5t-119.5 10l-33 5q-1 3 -2 8 t-2 21.5t2 32.5q4 17 9.5 33t9.5 23l4 7l153 27l-22 225h-397l-88 -225l147 -27q6 -24 -2 -63q-3 -16 -8 -31.5t-9 -22.5l-4 -8q-117 -20 -348 -20q-61 0 -120 5t-88 10l-29 5q-1 3 -2 8t-2 21.5t2 32.5zM657 580h314l-64 620zM797 1663l4 33q27 147 211 147q95 0 133.5 -39 t25.5 -108l-4 -33q-11 -69 -62.5 -108t-146.5 -39t-133.5 39t-27.5 108zM911 1663q-5 -30 10 -44.5t52 -14.5q71 0 80 59l4 33q5 30 -9 43.5t-53 13.5q-38 0 -56.5 -13.5t-23.5 -43.5z" />
<glyph unicode="&#xc6;" horiz-adv-x="1634" d="M31 76q4 17 9.5 33t9.5 23l3 7l133 27l469 1106l-127 22q-6 25 0 64q3 16 8.5 31.5t9.5 22.5l5 7q328 15 866 15h373q6 -46 -4 -107q-12 -73 -26 -133.5t-22 -84.5l-7 -24q-29 -8 -70 -8q-16 0 -31 2t-22 4l-6 2l-29 160h-311l-60 -414h432q6 -37 -2 -94 q-4 -25 -11.5 -48.5t-12.5 -34.5l-6 -11h-433l-67 -455h319l76 160q27 8 64 8q18 0 34.5 -2t23.5 -4l7 -2q5 -78 -20 -242q-4 -27 -12 -53.5t-14 -39.5l-5 -13h-383q-140 0 -279 3.5t-207 6.5l-69 4q-8 25 0 62q3 17 8 33t9 23l3 7l121 27l31 225h-227l-88 -225l102 -27 q6 -24 0 -63q-4 -16 -9.5 -31.5t-9.5 -22.5l-4 -8q-112 -20 -305 -20q-68 0 -126.5 5t-83.5 10l-25 5q-1 3 -2 8t-2 21.5t2 32.5zM659 580h183l100 665h-12z" />
<glyph unicode="&#xc7;" horiz-adv-x="1150" d="M145 375l105 684q21 129 84.5 213t187 130t309.5 46q93 0 173 -14.5t127.5 -35t81.5 -40.5t47 -34l14 -15q-13 -76 -30.5 -147.5t-28.5 -105.5l-11 -34q-39 -8 -94 -8q-24 0 -47.5 2t-34.5 4l-12 2l-10 168q-3 3 -8 7.5t-23.5 16.5t-40 21.5t-58 17t-77.5 7.5 q-112 0 -162 -45.5t-68 -155.5l-104 -684q-18 -109 27 -155t178 -46q105 0 209 22t155 41.5t53 24.5l1 -2q0 -3 0.5 -7.5t1.5 -10.5t1.5 -14t0 -17.5t-1.5 -21t-3 -23.5q-4 -26 -12.5 -50.5t-14.5 -35.5l-7 -12q-18 -9 -51.5 -21.5t-135 -35t-202.5 -25.5l-2 -19 q-3 -20 10.5 -34t33.5 -23t39.5 -21t31 -35.5t5.5 -58.5q-12 -85 -76 -132.5t-174 -47.5q-46 0 -83.5 8.5t-51.5 17.5l-14 9q-6 20 0 49q2 12 6 24t7 19l3 6q45 -24 113 -24q52 0 76 16t30 55q3 19 -10 31t-33 20t-40 19.5t-30.5 37t-4.5 64.5l4 25q-219 20 -303.5 116 t-55.5 267z" />
<glyph unicode="&#xc8;" horiz-adv-x="1128" d="M45 76q4 17 9.5 33t9.5 23l4 7l151 27l172 1102l-145 26q-6 25 2 64q2 16 7 31.5t9 22.5l4 7q249 15 592 15h424q6 -46 -4 -107q-12 -73 -26 -133.5t-22 -84.5l-9 -24q-27 -8 -68 -8q-16 0 -31 2t-22 4l-6 2l-29 160h-362l-60 -414h430q6 -37 -2 -94q-4 -25 -12 -48.5 t-13 -34.5l-6 -11h-430l-67 -455h370l76 160q27 8 64 8q18 0 34 -2t23 -4l6 -2q7 -78 -18 -242q-4 -27 -12 -53.5t-14 -39.5l-5 -13h-434q-153 0 -300 3.5t-217 6.5l-71 4q-1 3 -2 8t-2 21.5t2 32.5zM641 1819q75 14 143 14q31 0 64.5 -3.5t51.5 -7.5l18 -3l145 -277 q-43 -12 -90 -12q-18 0 -39 3t-33 6l-12 3z" />
<glyph unicode="&#xc9;" horiz-adv-x="1128" d="M45 76q4 17 9.5 33t9.5 23l4 7l151 27l172 1102l-145 26q-6 25 2 64q2 16 7 31.5t9 22.5l4 7q249 15 592 15h424q6 -46 -4 -107q-12 -73 -26 -133.5t-22 -84.5l-9 -24q-27 -8 -68 -8q-16 0 -31 2t-22 4l-6 2l-29 160h-362l-60 -414h430q6 -37 -2 -94q-4 -25 -12 -48.5 t-13 -34.5l-6 -11h-430l-67 -455h370l76 160q27 8 64 8q18 0 34 -2t23 -4l6 -2q7 -78 -18 -242q-4 -27 -12 -53.5t-14 -39.5l-5 -13h-434q-153 0 -300 3.5t-217 6.5l-71 4q-1 3 -2 8t-2 21.5t2 32.5zM705 1542l233 277q67 14 139 14q30 0 64 -3.5t53 -7.5l18 -3l-333 -277 q-48 -12 -91 -12q-20 0 -41 3t-31 6z" />
<glyph unicode="&#xca;" horiz-adv-x="1128" d="M45 76q4 17 9.5 33t9.5 23l4 7l151 27l172 1102l-145 26q-6 25 2 64q2 16 7 31.5t9 22.5l4 7q249 15 592 15h424q6 -46 -4 -107q-12 -73 -26 -133.5t-22 -84.5l-9 -24q-27 -8 -68 -8q-16 0 -31 2t-22 4l-6 2l-29 160h-362l-60 -414h430q6 -37 -2 -94q-4 -25 -12 -48.5 t-13 -34.5l-6 -11h-430l-67 -455h370l76 160q27 8 64 8q18 0 34 -2t23 -4l6 -2q7 -78 -18 -242q-4 -27 -12 -53.5t-14 -39.5l-5 -13h-434q-153 0 -300 3.5t-217 6.5l-71 4q-1 3 -2 8t-2 21.5t2 32.5zM557 1542l240 270q65 15 131 15q28 0 60.5 -3.5t50.5 -7.5l18 -4 l153 -270q-43 -12 -88 -12q-19 0 -40.5 3t-33.5 6l-12 3l-129 160l-176 -160q-47 -12 -90 -12q-20 0 -41 3t-32 6z" />
<glyph unicode="&#xcb;" horiz-adv-x="1128" d="M45 76q4 17 9.5 33t9.5 23l4 7l151 27l172 1102l-145 26q-6 25 2 64q2 16 7 31.5t9 22.5l4 7q249 15 592 15h424q6 -46 -4 -107q-12 -73 -26 -133.5t-22 -84.5l-9 -24q-27 -8 -68 -8q-16 0 -31 2t-22 4l-6 2l-29 160h-362l-60 -414h430q6 -37 -2 -94q-4 -25 -12 -48.5 t-13 -34.5l-6 -11h-430l-67 -455h370l76 160q27 8 64 8q18 0 34 -2t23 -4l6 -2q7 -78 -18 -242q-4 -27 -12 -53.5t-14 -39.5l-5 -13h-434q-153 0 -300 3.5t-217 6.5l-71 4q-1 3 -2 8t-2 21.5t2 32.5zM551 1544l35 217q55 15 121 15q30 0 59 -4t43 -8l14 -3l-35 -217 q-54 -12 -120 -12q-29 0 -58.5 3t-43.5 6zM979 1544l35 217q53 15 121 15q29 0 58 -4t43 -8l15 -3l-34 -217q-55 -12 -121 -12q-30 0 -59.5 3t-43.5 6z" />
<glyph unicode="&#xcc;" horiz-adv-x="704" d="M45 76q4 17 9.5 33t9.5 23l4 7l151 27l172 1102l-145 26q-6 25 2 64q2 16 7 31.5t9 22.5l4 7q117 21 312 21q88 0 164 -5t108 -11l33 -5q4 -24 0 -61q-4 -17 -9.5 -33t-9.5 -23l-4 -8l-151 -26l-170 -1102l143 -27q6 -24 -2 -63q-3 -16 -8 -31.5t-8 -22.5l-4 -8 q-115 -20 -312 -20q-87 0 -162.5 5t-107.5 10l-33 5q-1 3 -2 8t-2 21.5t2 32.5zM352 1819q76 14 142 14q32 0 65 -3.5t51 -7.5l17 -3l147 -277q-43 -12 -90 -12q-18 0 -39 3t-33 6l-12 3z" />
<glyph unicode="&#xcd;" horiz-adv-x="704" d="M45 76q4 17 9.5 33t9.5 23l4 7l151 27l172 1102l-145 26q-6 25 2 64q2 16 7 31.5t9 22.5l4 7q117 21 312 21q88 0 164 -5t108 -11l33 -5q4 -24 0 -61q-4 -17 -9.5 -33t-9.5 -23l-4 -8l-151 -26l-170 -1102l143 -27q6 -24 -2 -63q-3 -16 -8 -31.5t-8 -22.5l-4 -8 q-115 -20 -312 -20q-87 0 -162.5 5t-107.5 10l-33 5q-1 3 -2 8t-2 21.5t2 32.5zM418 1542l233 277q70 14 140 14q30 0 64.5 -3.5t53.5 -7.5l19 -3l-334 -277q-49 -12 -90 -12q-20 0 -41.5 3t-32.5 6z" />
<glyph unicode="&#xce;" horiz-adv-x="722" d="M55 14q-8 25 0 62q3 17 8.5 33t10.5 23l4 7l151 27l170 1102l-145 26q-4 25 2 64q3 16 8 31.5t8 22.5l4 7q117 21 312 21q88 0 164 -5t108 -11l33 -5q6 -24 0 -61q-3 -17 -8.5 -33t-10.5 -23l-4 -8l-151 -26l-170 -1102l143 -27q6 -24 0 -63q-4 -16 -9.5 -31.5 t-8.5 -22.5l-4 -8q-115 -20 -312 -20q-87 0 -162.5 5t-107.5 10zM279 1542l239 270q65 15 131 15q28 0 60 -3.5t49 -7.5l18 -4l156 -270q-43 -12 -90 -12q-18 0 -39 3t-33 6l-12 3l-129 160l-176 -160q-48 -12 -91 -12q-20 0 -40.5 3t-31.5 6z" />
<glyph unicode="&#xcf;" horiz-adv-x="704" d="M45 76q4 17 9.5 33t9.5 23l4 7l151 27l172 1102l-145 26q-6 25 2 64q2 16 7 31.5t9 22.5l4 7q117 21 312 21q88 0 164 -5t108 -11l33 -5q4 -24 0 -61q-4 -17 -9.5 -33t-9.5 -23l-4 -8l-151 -26l-170 -1102l143 -27q6 -24 -2 -63q-3 -16 -8 -31.5t-8 -22.5l-4 -8 q-115 -20 -312 -20q-87 0 -162.5 5t-107.5 10l-33 5q-1 3 -2 8t-2 21.5t2 32.5zM289 1542l35 219q52 13 120 13q29 0 58.5 -3t43.5 -7l15 -3l-35 -219q-54 -12 -120 -12q-30 0 -59.5 3t-43.5 6zM666 1542l36 219q53 13 119 13q30 0 60 -3t45 -7l14 -3l-37 -219 q-53 -12 -121 -12q-29 0 -58 3t-44 6z" />
<glyph unicode="&#xd0;" horiz-adv-x="1304" d="M45 76q4 17 9.5 33t9.5 23l4 7l151 25l74 489l-143 25q-6 24 2 63q3 16 8 31.5t8 23.5l4 7q54 8 152 14l67 453l-145 24q-6 25 2 64q2 16 7 31.5t9 22.5l4 7q196 23 656 23q188 0 297.5 -44.5t147 -127.5t17.5 -211l-106 -684q-21 -128 -85.5 -211t-188.5 -127.5 t-312 -44.5q-206 0 -367.5 5.5t-220.5 10.5l-59 6q-1 3 -2 8t-2 21.5t2 32.5zM541 176h184q114 0 166.5 45t69.5 154l106 684q15 109 -23 153.5t-153 44.5h-184l-64 -434h193q8 -35 0 -86q-4 -23 -11.5 -44.5t-12.5 -31.5l-5 -10h-193z" />
<glyph unicode="&#xd1;" horiz-adv-x="1447" d="M45 76q4 17 9.5 33t9.5 23l4 7l151 27l172 1102l-145 26q-6 25 2 64q2 16 7 31.5t9 22.5l4 7q109 21 287 21q30 0 63.5 -3t51.5 -7l18 -3l356 -888l105 729l-143 26q-6 25 0 64q3 16 8.5 31.5t9.5 22.5l4 7q115 21 303 21q83 0 156.5 -5t106.5 -11l32 -5q6 -24 0 -61 q-3 -17 -8.5 -33t-9.5 -23l-4 -8l-152 -26l-197 -1262q-69 -12 -137 -12q-30 0 -63.5 3t-51.5 6l-18 3l-356 889l-107 -729l146 -27q6 -24 -2 -63q-3 -16 -8 -31.5t-9 -22.5l-4 -8q-115 -20 -303 -20q-83 0 -156.5 5t-105.5 10l-33 5q-1 3 -2 8t-2 21.5t2 32.5zM623 1544 l2 8q18 112 65 163.5t146 51.5q51 0 89 -11.5t58.5 -28t35.5 -33t31.5 -28t36.5 -11.5q44 0 64 20t29 70v10q45 12 86 12q18 0 37.5 -3t29.5 -6l10 -3v-10q-20 -113 -64.5 -163t-145.5 -50q-51 0 -89 11.5t-59 28t-36.5 33.5t-32 28.5t-35.5 11.5q-47 0 -65 -21.5t-30 -79.5 q-43 -12 -84 -12q-18 0 -38 3t-30 6z" />
<glyph unicode="&#xd2;" horiz-adv-x="1220" d="M145 375l105 684q32 194 171.5 291.5t418.5 97.5q141 0 238 -25.5t150 -76t70 -121t2 -166.5l-106 -684q-32 -194 -170.5 -291.5t-417.5 -97.5t-386 97.5t-75 291.5zM465 375q-18 -109 20.5 -155t153.5 -46t167.5 46t67.5 155l107 684q15 110 -22 155.5t-152 45.5 t-167.5 -46t-70.5 -155zM608 1819q76 14 144 14q31 0 64.5 -3.5t51.5 -7.5l17 -3l145 -277q-43 -12 -88 -12q-18 0 -39.5 3t-34.5 6l-12 3z" />
<glyph unicode="&#xd3;" horiz-adv-x="1220" d="M145 375l105 684q32 194 171.5 291.5t418.5 97.5q141 0 238 -25.5t150 -76t70 -121t2 -166.5l-106 -684q-32 -194 -170.5 -291.5t-417.5 -97.5t-386 97.5t-75 291.5zM465 375q-18 -109 20.5 -155t153.5 -46t167.5 46t67.5 155l107 684q15 110 -22 155.5t-152 45.5 t-167.5 -46t-70.5 -155zM676 1542l233 277q70 14 140 14q30 0 64.5 -3.5t53.5 -7.5l19 -3l-336 -277q-47 -12 -88 -12q-21 0 -42.5 3t-32.5 6z" />
<glyph unicode="&#xd4;" horiz-adv-x="1220" d="M145 375l105 684q32 194 171.5 291.5t418.5 97.5q141 0 238 -25.5t150 -76t70 -121t2 -166.5l-106 -684q-32 -194 -170.5 -291.5t-417.5 -97.5t-386 97.5t-75 291.5zM465 375q-18 -109 20.5 -155t153.5 -46t167.5 46t67.5 155l107 684q15 110 -22 155.5t-152 45.5 t-167.5 -46t-70.5 -155zM526 1542l240 270q67 15 133 15q28 0 60 -3.5t49 -7.5l18 -4l154 -270q-43 -12 -88 -12q-18 0 -39.5 3t-34.5 6l-12 3l-129 160l-177 -160q-47 -12 -88 -12q-21 0 -42.5 3t-32.5 6z" />
<glyph unicode="&#xd5;" horiz-adv-x="1220" d="M145 375l105 684q32 194 171.5 291.5t418.5 97.5q141 0 238 -25.5t150 -76t70 -121t2 -166.5l-106 -684q-32 -194 -170.5 -291.5t-417.5 -97.5t-386 97.5t-75 291.5zM465 375q-18 -109 20.5 -155t153.5 -46t167.5 46t67.5 155l107 684q15 110 -22 155.5t-152 45.5 t-167.5 -46t-70.5 -155zM510 1544l2 8q18 112 65 163.5t146 51.5q51 0 89 -11.5t58.5 -28t36 -33t32 -28t36.5 -11.5q44 0 63.5 20t28.5 70v10q45 12 86 12q11 0 23.5 -1t22 -3t17 -4t11.5 -3l4 -1v-10q-10 -56 -24 -93.5t-38 -65.5t-60.5 -41t-88.5 -13q-43 0 -77.5 8.5 t-54 21t-36.5 27t-27.5 27t-25.5 21t-31 8.5q-47 0 -64.5 -21.5t-29.5 -79.5q-43 -12 -84 -12q-18 0 -38 3t-31 6z" />
<glyph unicode="&#xd6;" horiz-adv-x="1220" d="M145 375l105 684q32 194 171.5 291.5t418.5 97.5q141 0 238 -25.5t150 -76t70 -121t2 -166.5l-106 -684q-32 -194 -170.5 -291.5t-417.5 -97.5t-386 97.5t-75 291.5zM465 375q-18 -109 20.5 -155t153.5 -46t167.5 46t67.5 155l107 684q15 110 -22 155.5t-152 45.5 t-167.5 -46t-70.5 -155zM522 1542l35 219q53 13 121 13q29 0 58.5 -3t43.5 -7l15 -3l-35 -219q-55 -12 -121 -12q-30 0 -59.5 3t-43.5 6zM948 1542l35 219q55 13 121 13q29 0 58.5 -3t43.5 -7l15 -3l-35 -219q-55 -12 -121 -12q-29 0 -58.5 3t-44.5 6z" />
<glyph unicode="&#xd7;" horiz-adv-x="827" d="M113 379l262 235l-193 238q27 33 70 70q21 16 42.5 29t32.5 19l11 5l190 -238l265 238q34 -18 65 -53q16 -16 27.5 -33.5t15.5 -26.5l4 -10l-264 -238l190 -235q-22 -33 -69 -70q-20 -16 -41.5 -29.5t-32.5 -18.5l-12 -5l-189 236l-262 -236q-32 16 -65 53 q-16 16 -27.5 33.5t-15.5 27.5z" />
<glyph unicode="&#xd8;" horiz-adv-x="1284" d="M86 6l113 146q-45 85 -23 223l107 684q32 194 170.5 291.5t416.5 97.5q180 0 295 -45l19 24q62 13 123 13q26 0 55 -3t45 -7l16 -3l-114 -147q44 -84 22 -221l-104 -684q-32 -194 -171 -291.5t-417 -97.5q-192 0 -297 45l-18 -25q-62 -12 -121 -12q-27 0 -56.5 3t-44.5 6 zM494 225q38 -57 176 -57q123 0 179 46.5t75 160.5l77 506zM506 551l508 655q-42 60 -176 60q-123 0 -178.5 -47.5t-73.5 -159.5q-49 -305 -80 -508z" />
<glyph unicode="&#xd9;" horiz-adv-x="1423" d="M246 1294q-6 25 2 64q2 16 7 31.5t9 22.5l4 7q117 21 312 21q80 0 150 -5t100 -11l30 -5q4 -24 0 -61q-4 -17 -9.5 -33t-8.5 -23l-4 -8l-127 -26l-140 -893q-15 -110 21.5 -155.5t148.5 -45.5q111 0 162.5 46t69.5 155l137 893l-121 26q-4 25 2 64q3 16 8 31.5t9 22.5 l4 7q106 21 286 21q88 0 164.5 -5t109.5 -11l32 -5q6 -24 0 -61q-3 -17 -8.5 -33t-9.5 -23l-5 -8l-151 -26l-138 -893q-32 -194 -169.5 -291.5t-413.5 -97.5t-382.5 97.5t-74.5 291.5l139 893zM711 1819q75 14 143 14q31 0 64.5 -3.5t51.5 -7.5l17 -3l146 -277 q-44 -12 -89 -12q-19 0 -40.5 3t-33.5 6l-12 3z" />
<glyph unicode="&#xda;" horiz-adv-x="1423" d="M246 1294q-6 25 2 64q2 16 7 31.5t9 22.5l4 7q117 21 312 21q80 0 150 -5t100 -11l30 -5q4 -24 0 -61q-4 -17 -9.5 -33t-8.5 -23l-4 -8l-127 -26l-140 -893q-15 -110 21.5 -155.5t148.5 -45.5q111 0 162.5 46t69.5 155l137 893l-121 26q-4 25 2 64q3 16 8 31.5t9 22.5 l4 7q106 21 286 21q88 0 164.5 -5t109.5 -11l32 -5q6 -24 0 -61q-3 -17 -8.5 -33t-9.5 -23l-5 -8l-151 -26l-138 -893q-32 -194 -169.5 -291.5t-413.5 -97.5t-382.5 97.5t-74.5 291.5l139 893zM778 1542l234 277q69 14 139 14q30 0 64.5 -3.5t53.5 -7.5l19 -3l-336 -277 q-47 -12 -88 -12q-21 0 -42.5 3t-32.5 6z" />
<glyph unicode="&#xdb;" horiz-adv-x="1423" d="M246 1294q-6 25 2 64q2 16 7 31.5t9 22.5l4 7q117 21 312 21q80 0 150 -5t100 -11l30 -5q4 -24 0 -61q-4 -17 -9.5 -33t-8.5 -23l-4 -8l-127 -26l-140 -893q-15 -110 21.5 -155.5t148.5 -45.5q111 0 162.5 46t69.5 155l137 893l-121 26q-4 25 2 64q3 16 8 31.5t9 22.5 l4 7q106 21 286 21q88 0 164.5 -5t109.5 -11l32 -5q6 -24 0 -61q-3 -17 -8.5 -33t-9.5 -23l-5 -8l-151 -26l-138 -893q-32 -194 -169.5 -291.5t-413.5 -97.5t-382.5 97.5t-74.5 291.5l139 893zM629 1542l239 270q67 15 133 15q28 0 59.5 -3.5t49.5 -7.5l18 -4l154 -270 q-43 -12 -88 -12q-18 0 -39.5 3t-34.5 6l-12 3l-129 160l-176 -160q-47 -12 -88 -12q-21 0 -42.5 3t-32.5 6z" />
<glyph unicode="&#xdc;" horiz-adv-x="1423" d="M246 1294q-6 25 2 64q2 16 7 31.5t9 22.5l4 7q117 21 312 21q80 0 150 -5t100 -11l30 -5q4 -24 0 -61q-4 -17 -9.5 -33t-8.5 -23l-4 -8l-127 -26l-140 -893q-15 -110 21.5 -155.5t148.5 -45.5q111 0 162.5 46t69.5 155l137 893l-121 26q-4 25 2 64q3 16 8 31.5t9 22.5 l4 7q106 21 286 21q88 0 164.5 -5t109.5 -11l32 -5q6 -24 0 -61q-3 -17 -8.5 -33t-9.5 -23l-5 -8l-151 -26l-138 -893q-32 -194 -169.5 -291.5t-413.5 -97.5t-382.5 97.5t-74.5 291.5l139 893zM625 1542l34 219q53 13 121 13q29 0 58.5 -3t43.5 -7l15 -3l-35 -219 q-55 -12 -121 -12q-30 0 -59 3t-43 6zM1051 1542l34 219q55 13 121 13q29 0 58.5 -3t43.5 -7l15 -3l-35 -219q-55 -12 -121 -12q-29 0 -58 3t-43 6z" />
<glyph unicode="&#xdd;" horiz-adv-x="1372" d="M231 1294q-6 25 2 64q2 16 7 31.5t10 22.5l4 7q117 21 246 21q104 0 189.5 -5t118.5 -11l34 -5q6 -24 0 -61q-3 -17 -8.5 -33t-9.5 -23l-5 -8l-117 -20l113 -473l252 473l-109 20q-6 25 0 64q3 16 8 31.5t9 22.5l4 7q117 21 350 21q56 0 115.5 -5t91.5 -11l31 -5 q4 -24 0 -61q-4 -17 -9.5 -33t-9.5 -23l-4 -8l-153 -26l-461 -725l-56 -377l144 -27q6 -24 0 -63q-4 -16 -9.5 -31.5t-9.5 -22.5l-4 -8q-114 -20 -311 -20q-87 0 -162.5 5t-107.5 10l-33 5q-8 25 0 62q3 17 8.5 33t9.5 23l4 7l152 27l55 375l-233 727zM754 1542l233 277 q67 14 139 14q29 0 63 -3.5t53 -7.5l20 -3l-334 -277q-47 -12 -90 -12q-20 0 -41 3t-32 6z" />
<glyph unicode="&#xde;" horiz-adv-x="1208" d="M45 76q4 17 9.5 33t9.5 23l4 7l151 27l172 1102l-145 26q-6 25 2 64q2 16 7 31.5t9 22.5l4 7q117 21 312 21q88 0 164 -5t108 -11l33 -5q4 -24 0 -61q-4 -17 -9.5 -33t-9.5 -23l-4 -8l-151 -26l-17 -109q64 6 152 6q254 0 350 -95.5t66 -289.5l-15 -98q-21 -128 -81 -211 t-173.5 -127.5t-285.5 -44.5q-40 0 -77 1.5t-54 3.5l-17 1l-18 -139l143 -27q6 -24 -2 -63q-3 -16 -8 -31.5t-8 -22.5l-4 -8q-115 -20 -312 -20q-87 0 -162.5 5t-107.5 10l-33 5q-1 3 -2 8t-2 21.5t2 32.5zM590 483h139q94 0 137.5 45t61.5 154l14 98q17 109 -13 154 t-124 45h-139z" />
<glyph unicode="&#xdf;" horiz-adv-x="1458" d="M-82 -391q-4 35 2 78q4 19 10 39t10 30l5 11q25 -17 92 -17q60 0 87.5 32t39.5 109l149 965l-131 33q-8 22 0 57q2 16 7 30.5t9 21.5l5 6q51 16 137 16l12 94q29 166 146.5 250t349.5 84t321 -83.5t62 -250.5l-4 -35q-10 -62 -34 -106.5t-51 -67.5t-53.5 -42t-46.5 -43.5 t-24 -57.5l-4 -31q-5 -31 18 -54.5t63 -39t89 -31t97 -37.5t86 -52t56.5 -80t8.5 -115l-7 -41q-24 -147 -134.5 -221t-332.5 -74q-96 0 -184.5 21t-129.5 42l-40 21q12 73 28.5 140.5t27.5 98.5l10 31q39 8 90 8q23 0 44 -2t30 -4l10 -2l14 -139q6 -6 18 -14t44 -17.5 t69 -9.5q66 0 95 27.5t38 93.5l6 41q5 33 -17.5 57t-62.5 40t-88.5 32t-96 37.5t-84.5 50.5t-55.5 78t-8.5 114l4 31q8 52 25.5 91.5t38 60t44 40t43 33t34.5 37.5t20 55l4 35q11 71 -15 101t-104 30q-73 0 -108 -32.5t-46 -98.5l-188 -1223q-27 -158 -108.5 -236.5 t-237.5 -78.5q-52 0 -101.5 8t-73 15t-28.5 10z" />
<glyph unicode="&#xe0;" horiz-adv-x="1120" d="M139 338l54 348q29 175 128.5 263.5t292.5 88.5q44 0 81 -7t58 -17.5t35.5 -20.5t19.5 -17l5 -7l6 49q78 12 154 12q34 0 71 -3t58 -6l20 -3l-116 -752q-9 -61 3.5 -82.5t55.5 -21.5q17 0 53 6q4 -35 -2 -76q-3 -18 -9 -37t-11 -29l-4 -10q-98 -30 -174 -30 q-110 0 -151 26.5t-44 83.5q-6 -4 -17 -11.5t-45.5 -26.5t-71.5 -33.5t-91 -26.5t-107 -12q-164 0 -222.5 88.5t-29.5 263.5zM442 338q-14 -98 6 -138t89 -40q30 0 57.5 8.5t45.5 20.5t31.5 24t20.5 21l6 8l68 444q15 97 -10 137.5t-105 40.5q-72 0 -106.5 -40.5 t-48.5 -137.5zM453 1427q73 13 141 13q31 0 65 -3t52 -7l18 -3l143 -276q-43 -14 -88 -14q-19 0 -40.5 3.5t-33.5 7.5l-12 3z" />
<glyph unicode="&#xe1;" horiz-adv-x="1120" d="M139 338l54 348q29 175 128.5 263.5t292.5 88.5q44 0 81 -7t58 -17.5t35.5 -20.5t19.5 -17l5 -7l6 49q78 12 154 12q34 0 71 -3t58 -6l20 -3l-116 -752q-9 -61 3.5 -82.5t55.5 -21.5q17 0 53 6q4 -35 -2 -76q-3 -18 -9 -37t-11 -29l-4 -10q-98 -30 -174 -30 q-110 0 -151 26.5t-44 83.5q-6 -4 -17 -11.5t-45.5 -26.5t-71.5 -33.5t-91 -26.5t-107 -12q-164 0 -222.5 88.5t-29.5 263.5zM442 338q-14 -98 6 -138t89 -40q30 0 57.5 8.5t45.5 20.5t31.5 24t20.5 21l6 8l68 444q15 97 -10 137.5t-105 40.5q-72 0 -106.5 -40.5 t-48.5 -137.5zM518 1151l236 276q67 13 137 13q30 0 64.5 -3t53.5 -7l19 -3l-336 -276q-47 -14 -90 -14q-20 0 -41 3.5t-32 7.5z" />
<glyph unicode="&#xe2;" horiz-adv-x="1120" d="M139 338l54 348q29 175 128.5 263.5t292.5 88.5q44 0 81 -7t58 -17.5t35.5 -20.5t19.5 -17l5 -7l6 49q78 12 154 12q34 0 71 -3t58 -6l20 -3l-116 -752q-9 -61 3.5 -82.5t55.5 -21.5q17 0 53 6q4 -35 -2 -76q-3 -18 -9 -37t-11 -29l-4 -10q-98 -30 -174 -30 q-110 0 -151 26.5t-44 83.5q-6 -4 -17 -11.5t-45.5 -26.5t-71.5 -33.5t-91 -26.5t-107 -12q-164 0 -222.5 88.5t-29.5 263.5zM369 1157l241 270q65 13 131 13q28 0 60.5 -3t50.5 -7l18 -3l152 -270q-43 -14 -88 -14q-18 0 -39.5 3.5t-34.5 7.5l-12 3l-127 158l-178 -158 q-47 -14 -88 -14q-21 0 -42.5 3.5t-32.5 7.5zM442 338q-14 -98 6 -138t89 -40q30 0 57.5 8.5t45.5 20.5t31.5 24t20.5 21l6 8l68 444q15 97 -10 137.5t-105 40.5q-72 0 -106.5 -40.5t-48.5 -137.5z" />
<glyph unicode="&#xe3;" horiz-adv-x="1120" d="M139 338l54 348q29 175 128.5 263.5t292.5 88.5q44 0 81 -7t58 -17.5t35.5 -20.5t19.5 -17l5 -7l6 49q78 12 154 12q34 0 71 -3t58 -6l20 -3l-116 -752q-9 -61 3.5 -82.5t55.5 -21.5q17 0 53 6q4 -35 -2 -76q-3 -18 -9 -37t-11 -29l-4 -10q-98 -30 -174 -30 q-110 0 -151 26.5t-44 83.5q-6 -4 -17 -11.5t-45.5 -26.5t-71.5 -33.5t-91 -26.5t-107 -12q-164 0 -222.5 88.5t-29.5 263.5zM362 1212l3 9q9 55 23.5 93.5t38.5 66.5t60 41.5t86 13.5q52 0 90 -12t58.5 -29t36 -33.5t31.5 -28.5t36 -12q44 0 63 20t27 70l3 10q45 15 88 15 q11 0 22.5 -1.5t20.5 -4t16.5 -4.5t11.5 -3l4 -2v-8q-10 -56 -24 -93.5t-38 -66.5t-60.5 -42t-88.5 -13q-51 0 -89.5 12t-59.5 29t-37 33.5t-32.5 28.5t-35.5 12q-25 0 -40.5 -5t-25.5 -19t-15.5 -30.5t-10.5 -46.5q-43 -14 -84 -14q-17 0 -36.5 3.5t-30.5 6.5zM442 338 q-14 -98 6 -138t89 -40q30 0 57.5 8.5t45.5 20.5t31.5 24t20.5 21l6 8l68 444q15 97 -10 137.5t-105 40.5q-72 0 -106.5 -40.5t-48.5 -137.5z" />
<glyph unicode="&#xe4;" horiz-adv-x="1120" d="M139 338l54 348q29 175 128.5 263.5t292.5 88.5q44 0 81 -7t58 -17.5t35.5 -20.5t19.5 -17l5 -7l6 49q78 12 154 12q34 0 71 -3t58 -6l20 -3l-116 -752q-9 -61 3.5 -82.5t55.5 -21.5q17 0 53 6q4 -35 -2 -76q-3 -18 -9 -37t-11 -29l-4 -10q-98 -30 -174 -30 q-110 0 -151 26.5t-44 83.5q-6 -4 -17 -11.5t-45.5 -26.5t-71.5 -33.5t-91 -26.5t-107 -12q-164 0 -222.5 88.5t-29.5 263.5zM373 1208l35 219q54 13 120 13q30 0 59.5 -3t43.5 -7l14 -3l-35 -219q-55 -12 -121 -12q-29 0 -58 3t-43 6zM442 338q-14 -98 6 -138t89 -40 q30 0 57.5 8.5t45.5 20.5t31.5 24t20.5 21l6 8l68 444q15 97 -10 137.5t-105 40.5q-72 0 -106.5 -40.5t-48.5 -137.5zM799 1208l37 219q52 13 120 13q29 0 58.5 -3t43.5 -7l15 -3l-37 -219q-53 -12 -121 -12q-29 0 -58 3t-43 6z" />
<glyph unicode="&#xe5;" horiz-adv-x="1120" d="M139 338l54 348q29 175 128.5 263.5t292.5 88.5q44 0 81 -7t58 -17.5t35.5 -20.5t19.5 -17l5 -7l6 49q78 12 154 12q34 0 71 -3t58 -6l20 -3l-116 -752q-9 -61 3.5 -82.5t55.5 -21.5q17 0 53 6q4 -35 -2 -76q-3 -18 -9 -37t-11 -29l-4 -10q-98 -30 -174 -30 q-110 0 -151 26.5t-44 83.5q-6 -4 -17 -11.5t-45.5 -26.5t-71.5 -33.5t-91 -26.5t-107 -12q-164 0 -222.5 88.5t-29.5 263.5zM442 338q-14 -98 6 -138t89 -40q30 0 57.5 8.5t45.5 20.5t31.5 24t20.5 21l6 8l68 444q15 97 -10 137.5t-105 40.5q-72 0 -106.5 -40.5 t-48.5 -137.5zM528 1260l4 30q11 70 63.5 110t147.5 40q93 0 132 -40t28 -110l-4 -30q-24 -148 -209 -148q-95 0 -134 39.5t-28 108.5zM643 1260q-5 -30 10 -45t52 -15q70 0 79 60l4 30q5 31 -9 45.5t-52 14.5q-39 0 -57 -14.5t-23 -45.5z" />
<glyph unicode="&#xe6;" horiz-adv-x="1583" d="M111 283l4 24q21 128 119.5 197.5t306.5 93.5l198 25l13 86q12 84 -17 119.5t-119 35.5q-40 0 -76 -10t-51 -18t-24 -15l-57 -137q-37 -8 -86 -8q-24 0 -45.5 2t-30.5 4l-10 2q-7 106 20 268q7 3 19.5 9t53 21t83.5 26t107 20.5t126 9.5q228 0 297 -116q101 116 299 116 q122 0 200.5 -23.5t116 -68.5t47.5 -110.5t-6 -149.5l-36 -240q-95 -24 -279 -24h-274l-13 -84q-14 -97 22 -137.5t144 -40.5q82 0 163 17.5t119 32.5t42 19l1 -11q2 -12 3.5 -31t-2.5 -46q-4 -23 -12 -44.5t-15 -31.5l-6 -10q-17 -8 -47.5 -19.5t-124 -30.5t-184.5 -19 q-236 0 -297 137q-134 -137 -443 -137q-158 0 -215.5 74.5t-33.5 222.5zM414 283q-9 -66 12.5 -94.5t87.5 -28.5q86 0 126 40.5t54 137.5l17 117l-142 -21q-74 -12 -108.5 -43t-42.5 -84zM1038 594h262l13 92q15 96 -7.5 137t-95.5 41q-74 0 -109 -40.5t-50 -137.5z" />
<glyph unicode="&#xe7;" horiz-adv-x="983" d="M139 338l54 348q29 175 151 263.5t365 88.5q60 0 118 -9t98 -21.5t71 -25t46 -21.5l15 -9q-11 -72 -27.5 -139t-27.5 -98l-11 -31q-37 -8 -90 -8q-22 0 -42.5 2t-30.5 4l-9 2l-14 145q-47 35 -125 35q-88 0 -129 -40.5t-55 -137.5l-54 -348q-14 -98 21 -138t145 -40 q79 0 160 17.5t119.5 32.5t42.5 19l2 -11q1 -12 2.5 -31t-2.5 -46q-4 -23 -12 -44.5t-14 -31.5l-7 -10q-16 -7 -44 -17.5t-112 -29t-165 -22.5l-3 -19q-3 -20 10.5 -34t33.5 -23t40 -21t31.5 -35.5t5.5 -58.5q-12 -85 -76.5 -132.5t-173.5 -47.5q-47 0 -84.5 8.5t-51.5 17.5 l-13 9q-6 20 0 49q2 12 6 24t7 19l3 6q45 -24 113 -24q52 0 76 16t30 55q3 19 -10.5 31t-33.5 20t-39.5 19.5t-31 37t-5.5 64.5l6 27q-175 21 -240 107t-39 237z" />
<glyph unicode="&#xe8;" horiz-adv-x="1044" d="M139 338l54 348q29 176 145.5 264t351.5 88q124 0 204.5 -23.5t120 -68.5t50 -110.5t-5.5 -149.5l-39 -240q-97 -24 -285 -24h-282l-11 -84q-14 -98 22 -138t146 -40q85 0 170.5 17.5t126.5 32.5t45 19l2 -11q1 -12 2.5 -31t-2.5 -46q-4 -23 -12.5 -44.5t-15.5 -31.5 l-6 -10q-18 -8 -50.5 -19.5t-130 -30.5t-192.5 -19q-247 0 -342 88.5t-66 263.5zM455 1427q75 13 143 13q31 0 64.5 -3t51.5 -7l17 -3l146 -276q-44 -14 -91 -14q-18 0 -39 3.5t-33 7.5l-12 3zM481 594h279l12 92q15 97 -8.5 137.5t-101.5 40.5t-115 -40.5t-51 -137.5z" />
<glyph unicode="&#xe9;" horiz-adv-x="1044" d="M139 338l54 348q29 176 145.5 264t351.5 88q124 0 204.5 -23.5t120 -68.5t50 -110.5t-5.5 -149.5l-39 -240q-97 -24 -285 -24h-282l-11 -84q-14 -98 22 -138t146 -40q85 0 170.5 17.5t126.5 32.5t45 19l2 -11q1 -12 2.5 -31t-2.5 -46q-4 -23 -12.5 -44.5t-15.5 -31.5 l-6 -10q-18 -8 -50.5 -19.5t-130 -30.5t-192.5 -19q-247 0 -342 88.5t-66 263.5zM481 594h279l12 92q15 97 -8.5 137.5t-101.5 40.5t-115 -40.5t-51 -137.5zM520 1151l236 276q67 13 139 13q29 0 63.5 -3t53.5 -7l20 -3l-338 -276q-47 -14 -88 -14q-20 0 -41.5 3.5 t-32.5 7.5z" />
<glyph unicode="&#xea;" horiz-adv-x="1044" d="M139 338l54 348q29 176 145.5 264t351.5 88q124 0 204.5 -23.5t120 -68.5t50 -110.5t-5.5 -149.5l-39 -240q-97 -24 -285 -24h-282l-11 -84q-14 -98 22 -138t146 -40q85 0 170.5 17.5t126.5 32.5t45 19l2 -11q1 -12 2.5 -31t-2.5 -46q-4 -23 -12.5 -44.5t-15.5 -31.5 l-6 -10q-18 -8 -50.5 -19.5t-130 -30.5t-192.5 -19q-247 0 -342 88.5t-66 263.5zM373 1157l241 270q63 13 129 13q29 0 62 -3t51 -7l18 -3l152 -270q-43 -14 -88 -14q-19 0 -40.5 3.5t-33.5 7.5l-12 3l-129 158l-176 -158q-47 -14 -90 -14q-20 0 -41 3.5t-32 7.5zM481 594 h279l12 92q15 97 -8.5 137.5t-101.5 40.5t-115 -40.5t-51 -137.5z" />
<glyph unicode="&#xeb;" horiz-adv-x="1044" d="M139 338l54 348q29 176 145.5 264t351.5 88q124 0 204.5 -23.5t120 -68.5t50 -110.5t-5.5 -149.5l-39 -240q-97 -24 -285 -24h-282l-11 -84q-14 -98 22 -138t146 -40q85 0 170.5 17.5t126.5 32.5t45 19l2 -11q1 -12 2.5 -31t-2.5 -46q-4 -23 -12.5 -44.5t-15.5 -31.5 l-6 -10q-18 -8 -50.5 -19.5t-130 -30.5t-192.5 -19q-247 0 -342 88.5t-66 263.5zM377 1208l35 219q54 13 120 13q29 0 58.5 -3t43.5 -7l15 -3l-35 -219q-54 -12 -120 -12q-30 0 -59.5 3t-43.5 6zM481 594h279l12 92q15 97 -8.5 137.5t-101.5 40.5t-115 -40.5t-51 -137.5z M803 1208l35 219q54 13 120 13q30 0 59.5 -3t43.5 -7l14 -3l-35 -219q-54 -12 -120 -12q-29 0 -58.5 3t-43.5 6z" />
<glyph unicode="&#xec;" horiz-adv-x="647" d="M174 893q-6 22 0 59q3 15 8 29.5t9 21.5l4 7q102 20 270 20q40 0 82.5 -3t64.5 -6l23 -3l-117 -758q-8 -55 5.5 -77.5t56.5 -22.5q27 0 51 8q6 -35 -2 -76q-3 -18 -9 -37t-11 -29l-5 -10q-79 -30 -170 -30q-141 0 -192 69t-27 205l90 600zM260 1427q75 13 143 13 q31 0 64.5 -3t51.5 -7l18 -3l145 -276q-43 -14 -90 -14q-18 0 -39 3.5t-33 7.5l-12 3z" />
<glyph unicode="&#xed;" horiz-adv-x="649" d="M174 893q-6 22 0 59q3 15 8 29.5t9 21.5l4 7q102 20 270 20q40 0 82.5 -3t64.5 -6l23 -3l-117 -758q-8 -55 5.5 -77.5t56.5 -22.5q27 0 51 8q6 -35 -2 -76q-3 -18 -9 -37t-11 -29l-5 -10q-79 -30 -170 -30q-141 0 -192 69t-27 205l90 600zM328 1151l233 276q67 13 139 13 q30 0 64.5 -3t53.5 -7l20 -3l-336 -276q-49 -14 -90 -14q-20 0 -41 3.5t-32 7.5z" />
<glyph unicode="&#xee;" horiz-adv-x="647" d="M174 893q-6 22 0 59q3 15 8 29.5t9 21.5l4 7q102 20 270 20q40 0 82.5 -3t64.5 -6l23 -3l-117 -758q-9 -55 4.5 -77.5t57.5 -22.5q27 0 51 8q4 -35 -2 -76q-3 -18 -9 -37t-11 -29l-5 -10q-79 -30 -172 -30q-139 0 -190 69t-27 205l90 600zM176 1157l244 270q63 13 129 13 q28 0 60.5 -3t50.5 -7l18 -3l153 -270q-43 -14 -90 -14q-18 0 -39 3.5t-33 7.5l-12 3l-129 158l-178 -158q-45 -14 -88 -14q-20 0 -41.5 3.5t-32.5 7.5z" />
<glyph unicode="&#xef;" horiz-adv-x="647" d="M174 893q-6 22 0 59q3 15 8 29.5t9 21.5l4 7q102 20 270 20q40 0 82.5 -3t64.5 -6l23 -3l-117 -758q-8 -55 5.5 -77.5t56.5 -22.5q27 0 51 8q6 -35 -2 -76q-3 -18 -9 -37t-11 -29l-5 -10q-79 -30 -170 -30q-141 0 -192 69t-27 205l90 600zM221 1208l35 219q53 13 121 13 q29 0 58.5 -3t44.5 -7l14 -3l-37 -219q-53 -12 -119 -12q-30 0 -59.5 3t-43.5 6zM569 1208l37 219q53 13 121 13q29 0 58.5 -3t44.5 -7l14 -3l-37 -219q-53 -12 -121 -12q-29 0 -58.5 3t-43.5 6z" />
<glyph unicode="&#xf0;" horiz-adv-x="1026" d="M139 338l54 348q29 175 116 263.5t252 88.5q45 0 88 -10t72 -24t51 -28t32 -24l11 -10l12 82q11 80 -63 141l-55 -49q-52 -12 -99 -12q-23 0 -46.5 3t-35.5 6l-12 3l123 115q-57 20 -125.5 34.5t-108.5 18.5l-40 4l-1 2v7t-0.5 9.5t-0.5 13t0.5 16t2 19t3.5 21.5 q4 23 10.5 44.5t10.5 31.5l5 10q24 -1 65 -4t151 -21.5t198 -47.5l43 38q53 13 106 13q24 0 50 -3t40 -7l15 -3l-113 -98q210 -117 180 -305l-108 -686q-27 -175 -145.5 -263.5t-352.5 -88.5q-235 0 -324.5 88.5t-60.5 263.5zM440 338q-14 -97 11.5 -137.5t103.5 -40.5 q77 0 113.5 40.5t50.5 137.5l69 442q-1 3 -4 9t-14.5 20.5t-26 25.5t-41 20t-57.5 9q-69 0 -102 -40.5t-47 -137.5z" />
<glyph unicode="&#xf1;" horiz-adv-x="1224" d="M172 6l133 854l-131 33q-6 22 0 57q3 16 8 31t9 22l4 7q102 20 270 20q39 0 81.5 -3t65.5 -6l23 -3l-10 -76q5 4 14 10.5t38 23t59.5 29t76 23t90.5 10.5q166 0 225.5 -88t30.5 -262l-65 -428q-8 -55 5 -77.5t56 -22.5q31 0 51 8q6 -35 0 -76q-4 -18 -10 -37t-10 -29 l-4 -10q-84 -30 -172 -30q-140 0 -191 68.5t-28 205.5l65 426q14 97 -6.5 137.5t-89.5 40.5q-47 0 -88 -21t-58 -42l-18 -21l-121 -774q-77 -12 -153 -12q-34 0 -71.5 3t-58.5 6zM453 1212l2 9q18 111 65 163t146 52q51 0 89 -12t58.5 -29t36 -33.5t32 -28.5t36.5 -12 q47 0 64 21.5t28 78.5q45 15 86 15q8 0 17 -1t16.5 -2t14.5 -3t12.5 -3.5t9.5 -2.5t6 -2l2 -1v-8q-10 -56 -24 -93.5t-38 -66.5t-60.5 -42t-88.5 -13q-51 0 -89.5 12t-59.5 29t-37 33.5t-32.5 28.5t-35.5 12q-47 0 -64.5 -21.5t-28.5 -79.5q-43 -14 -84 -14q-18 0 -38 3.5 t-30 6.5z" />
<glyph unicode="&#xf2;" horiz-adv-x="1056" d="M139 338l54 348q19 116 73.5 192t160.5 118t265 42q236 0 326 -88.5t61 -263.5l-53 -348q-29 -175 -147.5 -263.5t-354.5 -88.5q-235 0 -324.5 88.5t-60.5 263.5zM442 338q-14 -97 10.5 -137.5t102.5 -40.5q79 0 116.5 41t51.5 137l53 348q14 97 -10 137.5t-102 40.5 q-79 0 -116.5 -41t-51.5 -137zM465 1427q75 13 143 13q31 0 64.5 -3t51.5 -7l17 -3l146 -276q-43 -14 -90 -14q-18 0 -39 3.5t-33 7.5l-12 3z" />
<glyph unicode="&#xf3;" horiz-adv-x="1056" d="M139 338l54 348q19 116 73.5 192t160.5 118t265 42q236 0 326 -88.5t61 -263.5l-53 -348q-29 -175 -147.5 -263.5t-354.5 -88.5q-235 0 -324.5 88.5t-60.5 263.5zM442 338q-14 -97 10.5 -137.5t102.5 -40.5q79 0 116.5 41t51.5 137l53 348q14 97 -10 137.5t-102 40.5 q-79 0 -116.5 -41t-51.5 -137zM530 1151l236 276q67 13 137 13q30 0 65 -3t54 -7l20 -3l-337 -276q-48 -14 -89 -14q-21 0 -42.5 3.5t-32.5 7.5z" />
<glyph unicode="&#xf4;" horiz-adv-x="1056" d="M139 338l54 348q19 116 73.5 192t160.5 118t265 42q236 0 326 -88.5t61 -263.5l-53 -348q-29 -175 -147.5 -263.5t-354.5 -88.5q-235 0 -324.5 88.5t-60.5 263.5zM383 1157l242 270q63 13 129 13q28 0 60.5 -3t50.5 -7l18 -3l153 -270q-43 -14 -88 -14q-19 0 -40.5 3.5 t-33.5 7.5l-12 3l-129 158l-176 -158q-47 -14 -90 -14q-20 0 -41 3.5t-32 7.5zM442 338q-14 -97 10.5 -137.5t102.5 -40.5q79 0 116.5 41t51.5 137l53 348q14 97 -10 137.5t-102 40.5q-79 0 -116.5 -41t-51.5 -137z" />
<glyph unicode="&#xf5;" horiz-adv-x="1056" d="M139 338l54 348q19 116 73.5 192t160.5 118t265 42q236 0 326 -88.5t61 -263.5l-53 -348q-29 -175 -147.5 -263.5t-354.5 -88.5q-235 0 -324.5 88.5t-60.5 263.5zM375 1212l2 9q18 111 65 163t146 52q51 0 89 -12t58.5 -29t36 -33.5t32 -28.5t36.5 -12q47 0 64 21.5 t28 78.5q45 15 86 15q8 0 17 -1t16.5 -2t14.5 -3t12.5 -3.5t9.5 -2.5t6 -2l2 -1v-8q-10 -56 -24 -93.5t-38 -66.5t-60.5 -42t-88.5 -13q-51 0 -89.5 12t-59.5 29t-37 33.5t-32.5 28.5t-35.5 12q-25 0 -40.5 -5t-25.5 -19t-15.5 -30.5t-10.5 -46.5q-43 -14 -84 -14 q-18 0 -38 3.5t-31 6.5zM442 338q-14 -97 10.5 -137.5t102.5 -40.5q79 0 116.5 41t51.5 137l53 348q10 63 2.5 102.5t-34.5 57.5t-80 18q-79 0 -116.5 -41t-51.5 -137z" />
<glyph unicode="&#xf6;" horiz-adv-x="1056" d="M139 338l54 348q19 116 73.5 192t160.5 118t265 42q236 0 326 -88.5t61 -263.5l-53 -348q-29 -175 -147.5 -263.5t-354.5 -88.5q-235 0 -324.5 88.5t-60.5 263.5zM387 1208l35 219q55 13 121 13q29 0 58 -3t43 -7l15 -3l-34 -219q-55 -12 -121 -12q-30 0 -59.5 3t-43.5 6 zM442 338q-14 -97 10.5 -137.5t102.5 -40.5q79 0 116.5 41t51.5 137l53 348q14 97 -10 137.5t-102 40.5q-79 0 -116.5 -41t-51.5 -137zM813 1208l35 219q55 13 121 13q30 0 59 -3t43 -7l14 -3l-34 -219q-55 -12 -121 -12q-29 0 -58.5 3t-43.5 6z" />
<glyph unicode="&#xf7;" horiz-adv-x="860" d="M150 514q-6 33 2 86q4 23 11 44.5t12 31.5l5 10h715q8 -35 -2 -86q-4 -24 -10.5 -45.5t-11.5 -30.5l-5 -10h-716zM342 190l37 213q56 11 115 11q25 0 53.5 -3t44.5 -5l16 -3l-35 -213q-59 -10 -116 -10q-26 0 -55 2.5t-44 5.5zM438 797l35 211q58 12 117 12q25 0 54 -3 t45 -6l16 -3l-35 -211q-62 -11 -117 -11q-26 0 -55 3t-44 5z" />
<glyph unicode="&#xf8;" horiz-adv-x="1105" d="M86 6l102 115q-46 77 -24 217l53 348q29 175 147 263.5t353 88.5q157 0 250 -41l18 21q47 12 96 12q22 0 45.5 -3t36.5 -6l13 -3l-99 -111q49 -80 27 -221l-53 -348q-29 -175 -147.5 -263.5t-354.5 -88.5q-161 0 -254 41l-19 -21q-51 -12 -96 -12q-22 0 -45.5 3t-36.5 6z M444 195q29 -50 134 -50q97 0 140.5 43.5t61.5 149.5l43 285zM444 410l375 421q-29 48 -129 48q-98 0 -143 -43.5t-60 -149.5q-29 -174 -43 -276z" />
<glyph unicode="&#xf9;" horiz-adv-x="1226" d="M174 893q-6 22 0 59q3 15 8 29.5t9 21.5l4 7q102 20 270 20q39 0 81.5 -3t65.5 -6l23 -3l-107 -680q-14 -97 7 -137.5t90 -40.5q31 0 59 8.5t46 21t32 25t20 21.5l6 8l121 774q78 12 154 12q35 0 72 -3t57 -6l20 -3l-116 -752q-8 -62 4.5 -83t56.5 -21q15 0 51 6 q6 -35 0 -76q-4 -18 -10.5 -37t-11.5 -29l-4 -10q-98 -30 -174 -30q-109 0 -149.5 26.5t-45.5 83.5q-6 -4 -17 -11.5t-46 -26.5t-72 -33.5t-91 -26.5t-106 -12q-166 0 -224.5 88t-31.5 264l80 522zM545 1427q73 13 141 13q32 0 66 -3t52 -7l17 -3l144 -276q-43 -14 -88 -14 q-19 0 -40.5 3.5t-33.5 7.5l-12 3z" />
<glyph unicode="&#xfa;" horiz-adv-x="1226" d="M174 893q-6 22 0 59q3 15 8 29.5t9 21.5l4 7q102 20 270 20q39 0 81.5 -3t65.5 -6l23 -3l-107 -680q-14 -97 7 -137.5t90 -40.5q31 0 59 8.5t46 21t32 25t20 21.5l6 8l121 774q78 12 154 12q35 0 72 -3t57 -6l20 -3l-116 -752q-8 -62 4.5 -83t56.5 -21q15 0 51 6 q6 -35 0 -76q-4 -18 -10.5 -37t-11.5 -29l-4 -10q-98 -30 -174 -30q-109 0 -149.5 26.5t-45.5 83.5q-6 -4 -17 -11.5t-46 -26.5t-72 -33.5t-91 -26.5t-106 -12q-166 0 -224.5 88t-31.5 264l80 522zM610 1151l236 276q67 13 137 13q30 0 64.5 -3t53.5 -7l19 -3l-336 -276 q-47 -14 -88 -14q-21 0 -42.5 3.5t-32.5 7.5z" />
<glyph unicode="&#xfb;" horiz-adv-x="1226" d="M174 893q-6 22 0 59q3 15 8 29.5t9 21.5l4 7q102 20 270 20q39 0 81.5 -3t65.5 -6l23 -3l-107 -680q-14 -97 7 -137.5t90 -40.5q31 0 59 8.5t46 21t32 25t20 21.5l6 8l121 774q78 12 154 12q35 0 72 -3t57 -6l20 -3l-116 -752q-8 -62 4.5 -83t56.5 -21q15 0 51 6 q6 -35 0 -76q-4 -18 -10.5 -37t-11.5 -29l-4 -10q-98 -30 -174 -30q-109 0 -149.5 26.5t-45.5 83.5q-6 -4 -17 -11.5t-46 -26.5t-72 -33.5t-91 -26.5t-106 -12q-166 0 -224.5 88t-31.5 264l80 522zM461 1157l241 270q66 13 132 13q28 0 60.5 -3t50.5 -7l18 -3l153 -270 q-43 -14 -90 -14q-18 0 -39 3.5t-33 7.5l-12 3l-129 158l-178 -158q-47 -14 -88 -14q-20 0 -41.5 3.5t-33.5 7.5z" />
<glyph unicode="&#xfc;" horiz-adv-x="1226" d="M174 893q-6 22 0 59q3 15 8 29.5t9 21.5l4 7q102 20 270 20q39 0 81.5 -3t65.5 -6l23 -3l-107 -680q-14 -97 7 -137.5t90 -40.5q31 0 59 8.5t46 21t32 25t20 21.5l6 8l121 774q78 12 154 12q35 0 72 -3t57 -6l20 -3l-116 -752q-8 -62 4.5 -83t56.5 -21q15 0 51 6 q6 -35 0 -76q-4 -18 -10.5 -37t-11.5 -29l-4 -10q-98 -30 -174 -30q-109 0 -149.5 26.5t-45.5 83.5q-6 -4 -17 -11.5t-46 -26.5t-72 -33.5t-91 -26.5t-106 -12q-166 0 -224.5 88t-31.5 264l80 522zM465 1208l37 219q53 13 121 13q29 0 58 -3t43 -7l15 -3l-37 -219 q-52 -12 -120 -12q-29 0 -58.5 3t-43.5 6zM893 1208l35 219q55 13 121 13q29 0 58 -3t43 -7l15 -3l-35 -219q-54 -12 -120 -12q-30 0 -59.5 3t-43.5 6z" />
<glyph unicode="&#xfd;" horiz-adv-x="1157" d="M162 -301q4 24 12 45.5t14 31.5l7 9q131 -35 319 -35q111 0 159.5 40t63.5 138l17 121q0 -3 -24 -17t-78 -30t-115 -16q-196 0 -267.5 88t-44.5 264l80 522l-131 33q-6 22 0 59q3 15 8 29.5t9 21.5l4 7q102 20 270 20q39 0 81.5 -3t65.5 -6l23 -3l-107 -680 q-14 -97 7 -137.5t90 -40.5q30 0 57.5 8.5t45.5 21t31.5 25t20.5 21.5l6 8l121 774q78 12 154 12q35 0 72 -3t57 -6l20 -3l-170 -1090q-29 -176 -159 -264t-396 -88q-84 0 -164.5 9t-118.5 19l-38 9q-1 4 -2 10.5t-3 29.5t3 46zM610 1151l236 276q67 13 139 13q29 0 63.5 -3 t53.5 -7l20 -3l-338 -276q-47 -14 -88 -14q-20 0 -41.5 3.5t-32.5 7.5z" />
<glyph unicode="&#xfe;" horiz-adv-x="1093" d="M70 -403l262 1673l-131 33q-6 22 0 59q4 15 9 29t8 21l3 7q103 21 273 21q40 0 82.5 -3t65.5 -7l22 -3l-76 -485q5 4 14 10.5t38 23t59.5 29t76 23t90.5 10.5q165 0 224 -88.5t30 -263.5l-53 -348q-29 -175 -131 -263.5t-301 -88.5q-55 0 -103 15.5t-68 29t-22 18.5 l-69 -452q-78 -13 -154 -13q-34 0 -71 3t-58 7zM492 338q-14 -97 11 -137.5t105 -40.5q73 0 107.5 40.5t48.5 137.5l53 348q15 97 -5 137.5t-89 40.5q-47 0 -88 -21t-59 -42l-17 -21z" />
<glyph unicode="&#xff;" horiz-adv-x="1157" d="M162 -301q4 24 12 45.5t14 31.5l7 9q131 -35 319 -35q111 0 159.5 40t63.5 138l17 121q0 -3 -24 -17t-78 -30t-115 -16q-196 0 -267.5 88t-44.5 264l80 522l-131 33q-6 22 0 59q3 15 8 29.5t9 21.5l4 7q102 20 270 20q39 0 81.5 -3t65.5 -6l23 -3l-107 -680 q-14 -97 7 -137.5t90 -40.5q30 0 57.5 8.5t45.5 21t31.5 25t20.5 21.5l6 8l121 774q78 12 154 12q35 0 72 -3t57 -6l20 -3l-170 -1090q-29 -176 -159 -264t-396 -88q-84 0 -164.5 9t-118.5 19l-38 9q-1 4 -2 10.5t-3 29.5t3 46zM467 1208l37 219q53 13 121 13q29 0 58 -3 t43 -7l15 -3l-36 -219q-53 -12 -121 -12q-29 0 -58.5 3t-43.5 6zM895 1208l35 219q55 13 121 13q29 0 58 -3t43 -7l15 -3l-34 -219q-55 -12 -121 -12q-30 0 -59.5 3t-43.5 6z" />
<glyph unicode="&#x152;" horiz-adv-x="1626" d="M141 375l105 684q21 128 85.5 211t189 127.5t313.5 44.5q147 0 331 -25q161 17 310 17h307q6 -46 -4 -107q-12 -73 -26 -133.5t-22 -84.5l-8 -24q-28 -8 -69 -8q-16 0 -31 2t-22 4l-7 2l-28 160h-312l-59 -414h432q6 -37 -2 -94q-4 -25 -12 -48.5t-14 -34.5l-5 -11h-432 l-67 -455h319l76 160q26 8 63 8q18 0 34.5 -2t23.5 -4l8 -2q4 -78 -21 -242q-4 -27 -11.5 -53.5t-13.5 -39.5l-5 -13h-318q-148 0 -307 14q-139 -22 -338 -22q-280 0 -387.5 95t-75.5 288zM461 375q-17 -109 21 -154t153 -45h137l166 1081h-137q-115 0 -166.5 -44.5 t-69.5 -153.5z" />
<glyph unicode="&#x153;" horiz-adv-x="1628" d="M139 338l54 348q19 116 73.5 192t160.5 118t265 42q208 0 275 -118q95 118 307 118q124 0 204.5 -23.5t119.5 -68.5t49.5 -110.5t-5.5 -149.5l-38 -240q-97 -24 -285 -24h-283l-10 -84q-14 -98 22 -138t146 -40q85 0 169 17.5t123.5 32.5t43.5 19l2 -11q1 -12 2.5 -31 t-2.5 -46q-4 -23 -12 -44.5t-14 -31.5l-7 -10q-18 -8 -49.5 -19.5t-128 -30.5t-191.5 -19q-223 0 -290 125q-98 -125 -316 -125q-235 0 -324.5 88.5t-60.5 263.5zM442 338q-14 -97 10.5 -137.5t102.5 -40.5q79 0 116.5 41t51.5 137l53 348q14 97 -10 137.5t-102 40.5 q-79 0 -116.5 -41t-51.5 -137zM1065 594h278l13 92q15 97 -9 137.5t-102 40.5t-115 -40.5t-51 -137.5z" />
<glyph unicode="&#x178;" horiz-adv-x="1372" d="M231 1294q-6 25 2 64q2 16 7 31.5t10 22.5l4 7q117 21 246 21q104 0 189.5 -5t118.5 -11l34 -5q6 -24 0 -61q-3 -17 -8.5 -33t-9.5 -23l-5 -8l-117 -20l113 -473l252 473l-109 20q-6 25 0 64q3 16 8 31.5t9 22.5l4 7q117 21 350 21q56 0 115.5 -5t91.5 -11l31 -5 q4 -24 0 -61q-4 -17 -9.5 -33t-9.5 -23l-4 -8l-153 -26l-461 -725l-56 -377l144 -27q6 -24 0 -63q-4 -16 -9.5 -31.5t-9.5 -22.5l-4 -8q-114 -20 -311 -20q-87 0 -162.5 5t-107.5 10l-33 5q-8 25 0 62q3 17 8.5 33t9.5 23l4 7l152 27l55 375l-233 727zM598 1542l35 219 q55 13 121 13q30 0 59 -3t43 -7l14 -3l-34 -219q-55 -12 -121 -12q-29 0 -58.5 3t-44.5 6zM1026 1542l35 219q53 13 121 13q29 0 58 -3t44 -7l14 -3l-36 -219q-53 -12 -119 -12q-30 0 -59.5 3t-43.5 6z" />
<glyph unicode="&#x2c6;" horiz-adv-x="491" d="M98 1157l244 270q63 13 129 13q28 0 60.5 -3t50.5 -7l18 -3l154 -270q-43 -14 -90 -14q-18 0 -39 3.5t-33 7.5l-12 3l-129 158l-179 -158q-45 -14 -88 -14q-20 0 -41.5 3.5t-32.5 7.5z" />
<glyph unicode="&#x2dc;" horiz-adv-x="843" d="M268 1212l2 9q18 111 65 163t146 52q51 0 89 -12t58.5 -29t36 -33.5t32 -28.5t36.5 -12q25 0 40.5 5.5t25.5 19.5t15 30t11 45q45 15 86 15q11 0 23.5 -1.5t22 -4t17 -4.5t11.5 -3l4 -2v-8q-10 -56 -24 -93.5t-38 -66.5t-60.5 -42t-88.5 -13q-51 0 -89.5 12t-59.5 29 t-37 33.5t-32.5 28.5t-35.5 12q-47 0 -64 -21.5t-28 -79.5q-43 -14 -84 -14q-18 0 -38 3.5t-31 6.5z" />
<glyph unicode="&#x2000;" horiz-adv-x="921" />
<glyph unicode="&#x2001;" horiz-adv-x="1843" />
<glyph unicode="&#x2002;" horiz-adv-x="921" />
<glyph unicode="&#x2003;" horiz-adv-x="1843" />
<glyph unicode="&#x2004;" horiz-adv-x="614" />
<glyph unicode="&#x2005;" horiz-adv-x="460" />
<glyph unicode="&#x2006;" horiz-adv-x="307" />
<glyph unicode="&#x2007;" horiz-adv-x="307" />
<glyph unicode="&#x2008;" horiz-adv-x="230" />
<glyph unicode="&#x2009;" horiz-adv-x="368" />
<glyph unicode="&#x200a;" horiz-adv-x="102" />
<glyph unicode="&#x2010;" horiz-adv-x="575" d="M145 485q-6 33 2 86q4 24 11 46t12 32l6 10h430q6 -35 -2 -88q-4 -23 -11 -44.5t-13 -31.5l-5 -10h-430z" />
<glyph unicode="&#x2011;" horiz-adv-x="575" d="M145 485q-6 33 2 86q4 24 11 46t12 32l6 10h430q6 -35 -2 -88q-4 -23 -11 -44.5t-13 -31.5l-5 -10h-430z" />
<glyph unicode="&#x2012;" horiz-adv-x="575" d="M145 485q-6 33 2 86q4 24 11 46t12 32l6 10h430q6 -35 -2 -88q-4 -23 -11 -44.5t-13 -31.5l-5 -10h-430z" />
<glyph unicode="&#x2013;" horiz-adv-x="980" d="M145 485q-6 33 2 86q4 24 11 46t12 32l6 10h838q4 -35 -4 -88q-4 -23 -10.5 -44.5t-11.5 -31.5l-5 -10h-838z" />
<glyph unicode="&#x2014;" horiz-adv-x="1286" d="M145 485q-6 33 2 86q4 24 11 46t12 32l6 10h1141q6 -35 -2 -88q-4 -23 -11 -44.5t-12 -31.5l-6 -10h-1141z" />
<glyph unicode="&#x2018;" horiz-adv-x="428" d="M227 946q15 96 47 181t66 137.5t66 91.5t52 55l21 16q37 13 72 13q16 0 32.5 -3t25.5 -7l9 -3q-4 -6 -11 -18.5t-27 -57t-38.5 -95.5t-40 -135t-36.5 -175q-62 -14 -121 -14q-27 0 -56.5 3.5t-45.5 6.5z" />
<glyph unicode="&#x2019;" horiz-adv-x="428" d="M182 946q4 6 11 18.5t27.5 56.5t38.5 95t40 135t37 176q62 13 121 13q26 0 55 -3t45 -7l16 -3q-16 -97 -47.5 -182t-65.5 -137.5t-65.5 -91t-52.5 -54.5l-20 -16q-37 -14 -72 -14q-16 0 -33 3.5t-26 6.5z" />
<glyph unicode="&#x201a;" horiz-adv-x="428" d="M-2 -236q4 6 11 18.5t27 57t38 95.5t39.5 135t36.5 176q61 12 120 12q26 0 55.5 -3t45.5 -6l16 -3q-15 -97 -46.5 -182t-65.5 -137.5t-65.5 -91.5t-51.5 -55l-21 -16q-39 -14 -74 -14q-16 0 -32 3.5t-25 6.5z" />
<glyph unicode="&#x201c;" horiz-adv-x="729" d="M227 946q15 96 47 181t66 137.5t66 91.5t52 55l21 16q37 13 72 13q16 0 32.5 -3t25.5 -7l9 -3q-4 -6 -11 -18.5t-27 -57t-38.5 -95.5t-40 -135t-36.5 -175q-62 -14 -121 -14q-27 0 -56.5 3.5t-45.5 6.5zM528 946q16 96 48 181t66.5 137.5t66.5 91.5t53 55l20 16 q35 13 70 13q16 0 33 -3t26 -7l9 -3q-4 -6 -11 -18.5t-27.5 -57t-38.5 -95.5t-40 -135t-37 -175q-62 -14 -121 -14q-26 0 -55.5 3.5t-45.5 6.5z" />
<glyph unicode="&#x201d;" horiz-adv-x="729" d="M182 946q4 6 11 18.5t27.5 56.5t38.5 95t40 135t37 176q62 13 121 13q26 0 55 -3t45 -7l16 -3q-16 -97 -47.5 -182t-65.5 -137.5t-65.5 -91t-52.5 -54.5l-20 -16q-37 -14 -72 -14q-16 0 -33 3.5t-26 6.5zM483 946q4 6 11 18.5t27.5 56.5t38.5 95t40 135t37 176 q62 13 121 13q27 0 56 -3t44 -7l16 -3q-15 -97 -46.5 -182t-65.5 -137.5t-66 -91t-52 -54.5l-21 -16q-37 -14 -72 -14q-16 0 -33 3.5t-26 6.5z" />
<glyph unicode="&#x201e;" horiz-adv-x="729" d="M-2 -236q4 6 11 18.5t27 57t38 95.5t39.5 135t36.5 176q61 12 120 12q26 0 55.5 -3t45.5 -6l16 -3q-15 -97 -46.5 -182t-65.5 -137.5t-65.5 -91.5t-51.5 -55l-21 -16q-39 -14 -74 -14q-16 0 -32 3.5t-25 6.5zM299 -236q11 17 29 52t59.5 159.5t65.5 270.5q59 12 118 12 q27 0 57 -3t46 -6l16 -3q-12 -71 -32.5 -135.5t-44 -111.5t-49 -87.5t-49 -67t-42.5 -45t-30 -27.5l-11 -8q-37 -14 -72 -14q-15 0 -30 3.5t-23 6.5z" />
<glyph unicode="&#x2022;" horiz-adv-x="602" d="M139 406q3 95 21 208q7 49 19 101.5t20 80.5l8 27q110 17 219 17q49 0 103.5 -4t84.5 -8l29 -5q-2 -96 -20 -209q-8 -48 -20 -100t-20 -80l-8 -28q-112 -17 -221 -17q-48 0 -102 4.5t-84 8.5z" />
<glyph unicode="&#x2026;" horiz-adv-x="1357" d="M94 6l43 254q72 12 146 12q32 0 67.5 -3t55.5 -6l20 -3l-43 -254q-75 -12 -145 -12q-33 0 -69 3t-55 6zM535 6l43 254q71 12 145 12q32 0 67.5 -3t55.5 -6l20 -3l-43 -254q-75 -12 -147 -12q-32 0 -67 3t-55 6zM975 6l43 254q71 12 145 12q32 0 67.5 -3t55.5 -6l19 -3 l-41 -254q-76 -12 -148 -12q-33 0 -68 3t-54 6z" />
<glyph unicode="&#x202f;" horiz-adv-x="368" />
<glyph unicode="&#x2039;" horiz-adv-x="649" d="M137 555l469 399q31 -14 68 -53q15 -16 26 -33.5t15 -27.5l4 -9l-316 -276l230 -281q-23 -32 -70 -69q-20 -16 -41 -29t-32 -18l-11 -6z" />
<glyph unicode="&#x203a;" horiz-adv-x="649" d="M96 274l314 279l-228 278q23 35 70 70q20 16 41 29.5t32 18.5l11 5l340 -401l-467 -401q-33 16 -68 53q-15 16 -26 33.5t-15 26.5z" />
<glyph unicode="&#x205f;" horiz-adv-x="460" />
<glyph unicode="&#x20ac;" horiz-adv-x="1200" d="M129 483q-6 33 2 86q4 23 11 44.5t12 31.5l6 10h88l14 107h-88q-6 35 2 88q4 23 11 44.5t13 31.5l5 10h88l16 123q21 129 84.5 213t187 130t308.5 46q94 0 174 -14.5t127.5 -35t81.5 -40.5t48 -34l13 -15q-13 -76 -30.5 -147.5t-28.5 -105.5l-12 -34q-40 -8 -95 -8 q-24 0 -47 2t-34 4l-11 2l-10 168q-3 3 -8 7.5t-23.5 16.5t-40.5 21.5t-58.5 17t-76.5 7.5q-113 0 -162 -45.5t-67 -155.5l-17 -123h357q6 -35 -2 -86q-4 -24 -10.5 -46t-11.5 -32l-5 -10h-358l-15 -107h357q6 -35 -2 -86q-4 -24 -11 -45.5t-13 -31.5l-5 -9h-356l-15 -108 q-15 -110 29 -155.5t178 -45.5q105 0 208.5 22t154.5 41.5t53 24.5l1 -5q1 -5 2.5 -13t2 -19t0 -26.5t-3.5 -32.5q-4 -26 -13 -50.5t-16 -35.5l-6 -12q-7 -3 -20.5 -8.5t-57 -20t-89 -25t-114.5 -19.5t-137 -9q-150 0 -253 25t-159.5 76t-75 121.5t-3.5 166.5l14 108h-88z " />
<glyph unicode="&#x2122;" horiz-adv-x="1429" d="M254 1327q-4 20 2 53q2 15 6 28.5t7 19.5l3 6h514q9 1 -8 -77q-7 -32 -10 -30h-166l-94 -606q-47 -8 -92 -8q-20 0 -42.5 2t-35.5 4l-12 2l94 606h-166zM737 721l113 709q0 1 17 2.5t46.5 2.5t59.5 1q28 0 58 -1.5t45 -2.5l16 -2l67 -390l189 390q61 8 122 8 q28 0 58.5 -2t46.5 -4l16 -2l-112 -709q-43 -8 -86 -8q-12 0 -25.5 1t-23.5 2t-19 2t-13 2l-5 1l73 485l-180 -379q-37 -8 -76 -8q-11 0 -23 1t-21 2t-16.5 2t-10.5 2l-4 1l-66 379l-74 -485q-43 -8 -86 -8q-19 0 -40.5 2t-33.5 4z" />
<glyph unicode="&#x25fc;" horiz-adv-x="1034" d="M0 0v1034h1034v-1034h-1034z" />
</font>
</defs>
</svg>
