<?xml version="1.0" standalone="no"?>
<!DOCTYPE svg PUBLIC "-//W3C//DTD SVG 1.1//EN" "http://www.w3.org/Graphics/SVG/1.1/DTD/svg11.dtd" >
<svg xmlns="http://www.w3.org/2000/svg">
<metadata></metadata>
<defs>
<font id="pancetta_serif_proMdIt" horiz-adv-x="1433" >
<font-face units-per-em="2048" ascent="1536" descent="-512" />
<missing-glyph horiz-adv-x="460" />
<glyph unicode="&#xfb01;" horiz-adv-x="1222" d="M-90 -336q3 15 8 30t8 22l4 8q34 -17 97 -17q67 0 100 36t45 116l162 1038l-137 27q-8 0 5 60q6 26 9 24q51 12 143 12l19 125q24 148 104.5 223.5t233.5 75.5q123 0 192 -23q4 -28 -2 -61q-2 -15 -7 -30t-9 -22l-4 -8q-40 17 -117 17q-84 0 -123 -40.5t-55 -131.5 l-17 -121q179 4 500 4q29 0 60.5 -2.5t48.5 -5.5l16 -2l-125 -797q-8 -56 7 -80t61 -24q19 0 51 8q6 -26 0 -57q-2 -14 -6.5 -28t-8.5 -21l-4 -7q-69 -22 -135 -22q-116 0 -157.5 57.5t-22.5 173.5l104 682l-411 -8l-162 -1036q-23 -139 -95 -209t-210 -70q-82 0 -170 25 q-6 26 0 59zM1010 1206l34 221q56 11 109 11q24 0 51 -3t42 -5l14 -3l-37 -221q-56 -10 -109 -10q-24 0 -50 2.5t-40 5.5z" />
<glyph unicode="&#xfb02;" horiz-adv-x="1222" d="M-90 -336q3 15 8 30t8 22l4 8q34 -17 97 -17q67 0 100 36t45 116l162 1038l-137 27q-8 0 5 60q6 26 9 24q51 12 143 12l19 125q24 147 108 223t240 76q107 0 194 -21q86 15 220 15q29 0 60.5 -3t48.5 -5l16 -3l-191 -1206q-8 -56 7 -80t61 -24q19 0 51 8q6 -26 0 -57 q-2 -14 -6.5 -28t-8.5 -21l-4 -7q-69 -22 -135 -22q-116 0 -157.5 57.5t-22.5 173.5l170 1088l-178 22q-230 0 -260 -186l-17 -121h271q6 -26 0 -63q-3 -17 -8.5 -33.5t-9.5 -24.5l-5 -8h-270l-162 -1036q-23 -139 -95 -209t-210 -70q-82 0 -170 25q-6 26 0 59z" />
<glyph unicode="&#xfb03;" horiz-adv-x="1849" d="M-90 -336q3 15 8 30t8 22l4 8q34 -17 97 -17q67 0 100 36t45 116l162 1038l-137 27q-8 0 5 60q6 26 9 24q51 12 143 12l19 125q24 148 104.5 223.5t233.5 75.5q123 0 192 -23q4 -28 -2 -61q-2 -15 -7 -30t-9 -22l-4 -8q-40 17 -117 17q-84 0 -123 -40.5t-55 -131.5 l-17 -121h412l16 121q26 148 106.5 223.5t233.5 75.5q130 0 191 -23q4 -28 0 -61q-3 -15 -8 -30t-9 -22l-4 -8q-45 17 -116 17q-85 0 -125 -40.5t-54 -131.5l-16 -121q184 4 498 4q30 0 61.5 -2.5t47.5 -5.5l16 -2l-123 -797q-9 -55 6 -79.5t61 -24.5q20 0 52 8q4 -26 0 -57 q-3 -14 -8 -28t-9 -21l-4 -7q-69 -22 -133 -22q-116 0 -157.5 57.5t-22.5 173.5l104 682l-411 -8l-162 -1036q-24 -139 -96.5 -209t-210.5 -70q-83 0 -170 25q-11 4 7 86q8 35 11 33q40 -17 98 -17q69 0 101.5 35.5t44.5 116.5l161 1036h-411l-162 -1036q-23 -139 -95 -209 t-210 -70q-82 0 -170 25q-6 26 0 59zM1634 1206l35 221q56 11 111 11q24 0 50 -3t40 -5l14 -3l-35 -221q-57 -10 -110 -10q-24 0 -50.5 2.5t-40.5 5.5z" />
<glyph unicode="&#xfb04;" horiz-adv-x="1849" d="M-90 -336q3 15 8 30t8 22l4 8q34 -17 97 -17q67 0 100 36t45 116l162 1038l-137 27q-8 0 5 60q6 26 9 24q51 12 143 12l19 125q24 148 104.5 223.5t233.5 75.5q123 0 192 -23q4 -28 -2 -61q-2 -15 -7 -30t-9 -22l-4 -8q-40 17 -117 17q-84 0 -123 -40.5t-55 -131.5 l-17 -121h412l16 121q26 147 110.5 223t240.5 76q100 0 194 -21q75 15 217 15q30 0 61.5 -3t47.5 -5l16 -3l-188 -1206q-9 -55 6 -79.5t61 -24.5q20 0 52 8q4 -26 0 -57q-3 -14 -8 -28t-9 -21l-4 -7q-69 -22 -133 -22q-116 0 -157.5 57.5t-22.5 173.5l170 1088l-178 22 q-119 0 -182.5 -46t-78.5 -140l-16 -121h270q4 -26 -2 -63q-3 -17 -8 -33.5t-8 -24.5l-4 -8h-270l-162 -1036q-24 -139 -96.5 -209t-210.5 -70q-83 0 -170 25q-11 4 7 86q8 35 11 33q40 -17 98 -17q69 0 101.5 35.5t44.5 116.5l161 1036h-411l-162 -1036q-23 -139 -95 -209 t-210 -70q-82 0 -170 25q-6 26 0 59z" />
<glyph horiz-adv-x="2048" />
<glyph horiz-adv-x="2048" />
<glyph unicode="&#xd;" horiz-adv-x="2048" />
<glyph unicode=" "  horiz-adv-x="460" />
<glyph unicode="&#x09;" horiz-adv-x="460" />
<glyph unicode="&#xa0;" horiz-adv-x="460" />
<glyph unicode="!" horiz-adv-x="458" d="M121 6l35 219q55 13 110 13q24 0 51.5 -3t42.5 -7l15 -3l-37 -219q-56 -10 -111 -10q-24 0 -50.5 2.5t-40.5 5.5zM190 434l158 993q54 11 109 11q24 0 50 -3t40 -5l14 -3l-158 -993q-53 -10 -106 -10q-24 0 -51 2.5t-42 5.5z" />
<glyph unicode="&#x22;" horiz-adv-x="649" d="M287 1010l49 417q41 11 82 11q18 0 38 -3t31 -5l11 -3l-84 -417q-33 -11 -66 -11q-15 0 -30 2.5t-23 5.5zM553 1010l49 417q41 11 82 11q18 0 37.5 -3t30.5 -5l10 -3l-82 -417q-33 -11 -66 -11q-15 0 -30 2.5t-23 5.5z" />
<glyph unicode="#" horiz-adv-x="1097" d="M139 367q-6 24 2 63q3 17 8 33t9 23l4 8h117l106 446h-106q-6 25 0 64q3 17 8.5 33t9.5 23l4 7h117l88 360q45 11 88 11q19 0 40 -3t32 -5l12 -3l-88 -360h311l86 360q45 11 88 11q20 0 41 -3t32 -5l11 -3l-86 -360h109q6 -24 0 -63q-3 -17 -8.5 -33t-9.5 -23l-5 -8h-121 l-106 -446h110q1 -3 2 -8t2 -22t-2 -34t-8.5 -33t-9.5 -23l-4 -7h-123l-86 -361q-43 -10 -86 -10q-20 0 -41 2.5t-32 5.5l-11 2l86 361h-313l-84 -361q-45 -10 -88 -10q-19 0 -40 2.5t-32 5.5l-12 2l86 361h-107zM451 494h311l104 446h-311z" />
<glyph unicode="$" horiz-adv-x="1157" d="M117 127q12 68 27 133.5t24 97.5l8 31q31 8 68 8q17 0 33.5 -2t24.5 -4l7 -2l2 -178q4 -3 11 -9t32.5 -20.5t55 -25.5t79 -20t103.5 -9q142 0 208 50.5t85 166.5l14 90q7 46 -12 82t-56.5 59.5t-88 42.5t-106.5 35.5t-111.5 35t-104.5 45t-84.5 60.5t-51.5 86.5t-5 118.5 l12 88q26 161 128 249.5t302 103.5l31 192q43 10 86 10q19 0 40 -2.5t32 -5.5l12 -2l-31 -190q71 -4 132 -20t97 -35t61.5 -37t35.5 -30l10 -13q-11 -68 -26.5 -134t-25.5 -97l-10 -32q-26 -8 -65 -8q-17 0 -33.5 2t-24.5 4l-8 2v179q-3 3 -8.5 9t-26.5 20.5t-46 25.5 t-67 20t-89 9q-135 0 -199.5 -52.5t-83.5 -167.5l-12 -88q-7 -43 12 -76t57 -55t88.5 -40t106.5 -35t112 -36t105 -46.5t84.5 -63.5t51.5 -90.5t5 -122.5l-14 -90q-26 -162 -133.5 -250t-314.5 -100l-31 -193q-43 -10 -86 -10q-19 0 -40 2.5t-33 4.5l-11 3l31 191 q-79 4 -146.5 20t-107.5 35t-69 37t-41 30z" />
<glyph unicode="%" horiz-adv-x="1558" d="M246 6l1106 1421q47 11 96 11q21 0 43.5 -3t34.5 -5l12 -3l-1106 -1421q-51 -10 -96 -10q-22 0 -44.5 2.5t-33.5 5.5zM252 1006l31 202q19 117 98 175.5t235 58.5q157 0 218 -59t43 -175l-33 -202q-18 -116 -97.5 -175t-236.5 -59t-217 59t-41 175zM412 1006 q-11 -73 14 -105.5t100 -32.5q74 0 110.5 33t47.5 105l33 202q11 73 -15.5 105.5t-101.5 32.5t-110 -32t-46 -106zM907 225l31 203q19 116 99 175t235 59q158 0 218.5 -59t41.5 -175l-31 -203q-19 -116 -99 -174.5t-237 -58.5t-217 58.5t-41 174.5zM1067 225 q-11 -72 14.5 -104.5t100.5 -32.5t110.5 32.5t46.5 104.5l33 203q11 73 -15.5 105t-101.5 32t-109.5 -31.5t-45.5 -105.5z" />
<glyph unicode="&#x26;" horiz-adv-x="1406" d="M147 350l13 92q40 234 282 295q-202 65 -166 281l11 74q29 175 153 263.5t367 88.5q127 0 211 -22.5t126.5 -66t55.5 -107t-2 -144.5l-10 -80h260q4 -26 -2 -63q-3 -17 -8 -33.5t-9 -24.5l-4 -8h-260l-94 -606q-14 -90 13.5 -131t111.5 -41q54 0 113 22q4 -26 -2 -59 q-2 -14 -6.5 -28t-8.5 -22l-4 -7q-99 -33 -176 -33q-126 0 -180 63q-4 -1 -56 -18.5t-122.5 -31t-151.5 -13.5q-270 0 -377.5 91t-77.5 269zM362 350q-21 -123 38.5 -178t224.5 -55q110 0 252 53q-8 49 4 119l125 815q19 113 -30 163t-192 50q-135 0 -199.5 -54t-82.5 -171 l-13 -74q-18 -115 32 -168t188 -53h92q6 -27 0 -64q-3 -17 -8 -33.5t-9 -23.5l-4 -8h-92q-152 0 -223 -53.5t-90 -172.5z" />
<glyph unicode="'" horiz-adv-x="382" d="M287 1010l49 417q41 11 82 11q18 0 38 -3t31 -5l11 -3l-84 -417q-33 -11 -66 -11q-15 0 -30 2.5t-23 5.5z" />
<glyph unicode="(" horiz-adv-x="587" d="M125 25l186 1183q26 164 131 248t310 84q6 -28 0 -65q-3 -17 -8.5 -33t-9.5 -24l-5 -7q-104 0 -154 -48t-65 -155l-186 -1183q-15 -107 19.5 -155t137.5 -48q6 -25 0 -64q-3 -17 -8 -33.5t-9 -24.5l-3 -7q-204 0 -283 84t-53 248z" />
<glyph unicode=")" horiz-adv-x="587" d="M31 -242q2 17 6.5 33t8.5 23l3 8q105 0 155.5 48t65.5 155l187 1183q15 107 -20 155t-138 48q-6 25 0 64q3 17 8.5 33.5t10.5 23.5l4 8q204 0 281.5 -84t51.5 -248l-186 -1183q-27 -164 -131 -248t-307 -84q-6 28 0 65z" />
<glyph unicode="*" horiz-adv-x="966" d="M246 1073q6 39 24 76q9 16 21 32t20 25l8 8l269 -108l41 321q39 11 82 11q18 0 37.5 -3t29.5 -5l10 -3l-61 -319l305 109q19 -31 25 -68q3 -16 3 -34.5t-2 -28.5l-1 -11l-307 -90l149 -254q-30 -28 -65 -51q-16 -10 -36 -19t-32 -13l-12 -3l-129 266l-213 -266 q-35 12 -66 35q-13 10 -24.5 23.5t-17.5 21.5l-5 8l225 252z" />
<glyph unicode="+" horiz-adv-x="837" d="M172 551q-6 24 2 63q3 17 8 33t9 23l4 8h260l41 272q30 11 73 11q19 0 36.5 -2.5t25.5 -5.5l8 -3l-43 -272h260q6 -25 0 -64q-3 -17 -8.5 -33t-9.5 -23l-4 -7h-261l-41 -272q-28 -11 -71 -11q-19 0 -37 3t-26 5l-9 3l43 272h-260z" />
<glyph unicode="," horiz-adv-x="446" d="M-2 -217q5 6 12.5 17.5t30 52.5t42 88t41.5 124t36 160q49 13 100 13q22 0 46.5 -3t37.5 -7l14 -3q-15 -88 -44.5 -165.5t-61 -126t-60.5 -84.5t-48 -51l-19 -15q-37 -10 -68 -10q-15 0 -29.5 2.5t-21.5 4.5z" />
<glyph unicode="-" horiz-adv-x="593" d="M166 514q-6 27 0 66q4 17 9.5 33t8.5 23l4 7h418q6 -24 0 -63q-3 -17 -8 -33.5t-8 -24.5l-4 -8h-420z" />
<glyph unicode="." horiz-adv-x="448" d="M121 6l35 219q53 13 106 13q23 0 48.5 -3t39.5 -7l15 -3l-37 -219q-56 -10 -107 -10q-24 0 -49 2.5t-38 5.5z" />
<glyph unicode="/" horiz-adv-x="798" d="M72 6l678 1421q51 11 104 11q23 0 48 -3t38 -5l14 -3l-678 -1421q-53 -10 -104 -10q-24 0 -49 2.5t-38 5.5z" />
<glyph unicode="0" horiz-adv-x="1144" d="M162 322l125 790q26 165 148 248.5t366 83.5q242 0 337 -83.5t68 -248.5l-123 -790q-27 -165 -149.5 -248.5t-364.5 -83.5q-243 0 -338 83.5t-69 248.5zM377 322q-15 -108 32.5 -156.5t182.5 -48.5t198 48.5t78 156.5l125 790q15 107 -32.5 156t-182.5 49t-198 -49 t-78 -156z" />
<glyph unicode="1" horiz-adv-x="868" d="M137 12q-6 16 0 41q1 12 4.5 22.5t6.5 15.5l4 5l215 25l182 1163l-250 -61q-6 18 0 51q3 15 7.5 28.5t7.5 19.5l3 7l322 109q36 0 72.5 -3t55.5 -5l19 -3l-204 -1306l206 -25q1 -2 1.5 -5t1.5 -14.5t0 -23.5q-3 -11 -7 -21.5t-7 -15.5l-3 -4q-112 -16 -321 -16 q-93 0 -172 4t-111 8z" />
<glyph unicode="2" horiz-adv-x="1110" d="M109 16l34 205q12 81 45.5 147t80 110.5t103 81t117.5 64.5t121.5 54t116 56t100.5 65t76 86t41 114l14 88q19 120 -28.5 175t-179.5 55q-47 0 -92 -9.5t-75.5 -23.5t-54.5 -28t-36 -24l-11 -9l-57 -179q-29 -8 -68 -8q-16 0 -32 2t-24 4l-7 2q-1 109 24 263q6 6 17.5 15 t53 32.5t90 41.5t128 33t166.5 15q243 0 334.5 -89.5t64.5 -267.5l-14 -88q-13 -81 -46.5 -146t-80 -109t-103.5 -79.5t-118 -62.5t-121.5 -53t-116.5 -56t-101 -65.5t-76.5 -88t-41.5 -118.5l-14 -92h557l53 152q18 8 45 8q13 0 24 -2t16 -4l5 -2q4 -64 -16 -203 q-4 -20 -9.5 -39.5t-9.5 -28.5l-4 -10h-477q-111 0 -214.5 4t-151.5 8z" />
<glyph unicode="3" horiz-adv-x="1091" d="M115 141q3 18 8.5 34.5t9.5 24.5l4 7q0 -4 41.5 -24t136 -43t201.5 -23q162 0 235.5 55t92.5 178l18 111q19 122 -39.5 176.5t-218.5 54.5h-145q-4 27 2 68q4 17 9.5 33.5t9.5 24.5l3 7l441 473h-478l-51 -145q-20 -8 -47 -8q-13 0 -24 2t-16 4l-5 2q-1 64 19 203 q4 20 9.5 39.5t8.5 28.5l4 10h836q8 -27 0 -64q-3 -17 -8 -33.5t-9 -24.5l-4 -7l-467 -486q105 0 181 -18t118.5 -50.5t66 -77.5t24 -98.5t-6.5 -113.5l-16 -111q-29 -178 -161.5 -269t-399.5 -91q-112 0 -207 21t-135 42l-39 21q-1 3 -2 8.5t-3 23t3 35.5z" />
<glyph unicode="4" horiz-adv-x="1114" d="M154 336q-6 24 0 63l524 1028q41 11 102 11q28 0 55 -3t39 -5l13 -3l-484 -958h390l86 549q51 10 102 10q23 0 47.5 -2.5t37.5 -5.5l13 -2l-84 -547l125 -20q6 -25 0 -54q-2 -14 -6.5 -27t-7.5 -20l-4 -6q-37 -10 -123 -10l-51 -328q-56 -10 -109 -10q-24 0 -49.5 2.5 t-39.5 5.5l-13 2l51 330h-614z" />
<glyph unicode="5" horiz-adv-x="1085" d="M104 141q3 18 9 34.5t11 24.5l5 7q0 -4 41 -24t135.5 -43t202.5 -23q153 0 222.5 54.5t90.5 178.5l21 135q18 120 -33 175t-195 55h-354q-6 26 2 67l135 635q168 17 418 17h303q4 -33 -2 -78q-10 -62 -22 -112.5t-18 -70.5l-7 -20q-20 -8 -49 -8q-11 0 -21.5 2t-14.5 4 l-5 2l-8 152h-412l-90 -455h168q138 0 229.5 -26t134.5 -74t57 -115.5t-3 -149.5l-19 -135q-30 -178 -161 -269t-388 -91q-71 0 -136 8.5t-107.5 21t-75 25t-47.5 21.5l-15 8q-1 3 -2 8.5t-2 23t2 35.5z" />
<glyph unicode="6" horiz-adv-x="1138" d="M168 322l117 749q29 180 161 276.5t392 96.5q94 0 177 -13t119 -25l37 -13q4 -27 -2 -66q-3 -17 -8.5 -33t-9.5 -23l-4 -7q-15 6 -42.5 14.5t-116.5 22.5t-183 14q-148 0 -217.5 -60t-87.5 -184l-41 -254q6 4 17 10t48 22.5t77 29t102 22.5t124 10q183 0 250.5 -83.5 t40.5 -247.5l-41 -258q-26 -165 -146.5 -248.5t-361.5 -83.5t-334.5 83.5t-66.5 248.5zM381 322q-15 -108 32 -156.5t179 -48.5t193 48.5t79 156.5l39 258q18 107 -19.5 154.5t-148.5 47.5q-57 0 -108.5 -9.5t-84 -23t-57 -27t-35.5 -22.5l-10 -10z" />
<glyph unicode="7" horiz-adv-x="1052" d="M262 4l676 1294h-518l-51 -145q-20 -8 -47 -8q-13 0 -23.5 2t-14.5 4l-5 2q-7 64 16 203q4 20 9.5 39.5t9.5 28.5l3 10h869q6 -27 0 -64l-703 -1366q-45 -8 -108 -8q-30 0 -58.5 2t-41.5 4z" />
<glyph unicode="8" horiz-adv-x="1144" d="M158 322l20 145q31 207 242 272q-158 64 -127 262l18 111q26 165 143 248.5t347 83.5q229 0 318 -83.5t63 -248.5l-17 -111q-31 -199 -209 -262q185 -64 154 -272l-23 -145q-26 -165 -149 -248.5t-369 -83.5t-342 83.5t-69 248.5zM371 322q-15 -108 34 -156.5t187 -48.5 t201 48t81 157l23 145q15 107 -34 155t-187 48t-201.5 -48t-81.5 -155zM508 1001q-15 -107 26.5 -154.5t163.5 -47.5t179.5 47.5t72.5 154.5l17 111q18 107 -24.5 156t-164.5 49t-179.5 -49t-72.5 -156z" />
<glyph unicode="9" horiz-adv-x="1138" d="M182 41q-4 24 2 63q3 17 8 33t9 25l4 8q0 -3 41 -15t129 -25t184 -13q147 0 216 60t89 183l43 281q-6 -4 -17 -10t-47.5 -22.5t-76.5 -29t-101.5 -22.5t-123.5 -10q-183 0 -250.5 84t-40.5 248l37 233q26 164 147 248t363 84q240 0 333.5 -84t67.5 -248l-117 -750 q-31 -181 -163.5 -276.5t-395.5 -95.5q-94 0 -179 12.5t-123 25.5zM465 879q-18 -107 19.5 -155t148.5 -48q57 0 109 9.5t84.5 23t57.5 27t36 22.5l10 10l53 344q15 107 -31 155t-178 48q-134 0 -195.5 -48t-76.5 -155z" />
<glyph unicode=":" horiz-adv-x="448" d="M121 6l35 219q53 13 106 13q23 0 48.5 -3t39.5 -7l15 -3l-37 -219q-56 -10 -107 -10q-24 0 -49 2.5t-38 5.5zM244 799l37 219q51 10 104 10q24 0 49.5 -2.5t39.5 -5.5l13 -2l-34 -219q-56 -13 -107 -13q-24 0 -49.5 3t-38.5 7z" />
<glyph unicode=";" horiz-adv-x="446" d="M-2 -217q5 6 12.5 17.5t30 52.5t42 88t41.5 124t36 160q49 13 100 13q22 0 46.5 -3t37.5 -7l14 -3q-15 -88 -44.5 -165.5t-61 -126t-60.5 -84.5t-48 -51l-19 -15q-37 -10 -68 -10q-15 0 -29.5 2.5t-21.5 4.5zM242 799l37 219q51 10 104 10q24 0 49.5 -2.5t39.5 -5.5 l13 -2l-34 -219q-56 -13 -107 -13q-24 0 -49.5 3t-38.5 7z" />
<glyph unicode="&#x3c;" horiz-adv-x="940" d="M176 637l825 416q4 -43 -2 -80q-3 -16 -9 -35.5t-10 -31.5l-5 -11l-508 -258l428 -258q4 -43 -2 -80q-3 -16 -9 -35t-11 -30l-5 -11z" />
<glyph unicode="=" horiz-adv-x="876" d="M143 377q-6 24 0 63q4 17 9.5 33.5t9.5 24.5l4 8h702q4 -27 -2 -66q-3 -17 -8 -33t-8 -23l-4 -7h-703zM207 770q-6 27 0 66q4 17 9.5 33t9.5 23l3 7h703q4 -24 -2 -63q-3 -17 -8 -33.5t-9 -24.5l-4 -8h-702z" />
<glyph unicode="&#x3e;" horiz-adv-x="940" d="M137 223q-4 41 2 78q2 16 8 36t11 32l6 12l504 258l-424 258q-4 41 2 78q2 16 8 35.5t11 31.5l5 11l691 -414z" />
<glyph unicode="?" horiz-adv-x="1060" d="M279 1044q-1 109 24 263q6 6 17 15t50.5 32.5t86 41.5t123.5 33t161 15q238 0 327 -89t62 -268l-14 -88q-10 -62 -36.5 -110.5t-61 -78t-75 -54t-80 -46t-73.5 -45.5t-58.5 -60t-31.5 -83l-12 -88q-55 -10 -108 -10q-24 0 -51 2.5t-41 5.5l-15 2l14 88q14 87 58.5 147 t99.5 92t110 60.5t96.5 71.5t51.5 106l15 88q19 120 -25.5 175t-173.5 55q-70 0 -132.5 -21t-90.5 -42l-27 -21l-59 -189q-29 -8 -68 -8q-17 0 -33 2t-23 4zM403 6l37 219q54 13 109 13q25 0 52 -3t41 -7l15 -3l-36 -219q-56 -10 -111 -10q-24 0 -51 2.5t-41 5.5z" />
<glyph unicode="@" horiz-adv-x="1474" d="M109 16l94 613q22 133 98.5 220.5t230 136t386.5 48.5q283 0 392.5 -89.5t80.5 -268.5l-86 -555l137 -25q4 -16 0 -43q-3 -11 -7 -21.5t-7 -15.5l-3 -4q-82 -16 -229 -16q-30 0 -61.5 2.5t-47.5 5.5l-16 2l12 92q-5 -4 -15.5 -11.5t-44 -26t-70 -33t-92.5 -26t-113 -11.5 q-151 0 -206 70t-32 210l4 35q21 126 116.5 193t295.5 90l241 28l9 60q19 122 -42.5 176.5t-236.5 54.5q-166 0 -266.5 -30t-148.5 -89t-64 -159l-94 -613q-13 -70 -6 -122t28.5 -87.5t69 -57.5t115.5 -32t167 -10q88 0 175.5 9t149.5 22t111.5 26.5t74 22.5t24.5 10 q1 -3 2 -8t2 -22t-2 -35t-9 -35t-11 -25l-5 -8l-24 -9t-69.5 -20.5t-111 -25.5t-147.5 -20t-182 -9q-342 0 -472.5 105.5t-94.5 330.5zM725 270q-12 -81 15.5 -117t111.5 -36q48 0 92 11t72 27t49.5 32t30.5 27l10 11l41 267l-203 -27q-106 -13 -156 -52.5t-59 -107.5z" />
<glyph unicode="A" d="M35 57q1 6 3 11t3.5 9.5t3 8.5t3 7t3 5t1.5 3l1 1l144 21l538 1188l-141 20q-6 16 0 45q2 12 6 23t7 17l3 5q117 17 334 17q36 0 73.5 -3t56.5 -5l20 -3l180 -1304l141 -21q10 -1 -6 -65q-7 -26 -10 -25q-90 -16 -219 -16q-92 0 -166.5 4t-102.5 8l-28 4q-11 0 6 66 q7 26 10 24l158 21l-39 289h-477l-127 -289l153 -21q6 -18 0 -45q-2 -13 -5.5 -24t-5.5 -16l-3 -5q-96 -16 -301 -16q-58 0 -112 4t-78 8l-25 4q-1 2 -1.5 5.5t-1.5 15t1 24.5zM598 549h412l-95 715z" />
<glyph unicode="B" horiz-adv-x="1273" d="M55 10q-6 18 0 45q2 13 6 24.5t7 16.5l4 6l157 21l185 1188l-150 20q-6 18 0 47q2 12 5.5 23t6.5 17l3 5q232 19 618 19q247 0 344 -88t68 -262l-11 -74q-36 -220 -251 -281q223 -64 184 -295l-12 -92q-30 -178 -160.5 -268t-390.5 -90q-172 0 -325 4.5t-221 9.5z M457 128h233q147 0 215.5 52t87.5 170l13 92q18 117 -34.5 171.5t-197.5 54.5h-235zM561 801h236q132 0 195 52.5t81 164.5l10 74q18 110 -29.5 161.5t-179.5 51.5h-235z" />
<glyph unicode="C" horiz-adv-x="1161" d="M166 344l117 743q27 177 156.5 267t389.5 90q91 0 169 -14t124 -34t79 -40.5t46 -34.5l13 -14q-11 -68 -26 -134t-24 -97l-10 -32q-28 -8 -67 -8q-17 0 -33 2t-24 4l-7 2l-2 179q-3 3 -9.5 9t-30 20.5t-51 25.5t-73.5 20t-96 9q-149 0 -215 -51.5t-84 -168.5l-117 -743 q-18 -116 38 -166.5t218 -50.5q71 0 140.5 9t118.5 22t88 26.5t58 22.5t19 10l1 -3q1 -4 2 -10t1.5 -14.5t0 -20t-2.5 -24.5q-3 -19 -9.5 -37t-11.5 -26l-5 -8q-7 -3 -19.5 -9t-54.5 -20.5t-88 -25.5t-117.5 -20t-144.5 -9q-273 0 -379.5 89.5t-77.5 264.5z" />
<glyph unicode="D" horiz-adv-x="1277" d="M55 10q-6 18 0 45q2 13 6 24.5t7 16.5l4 6l157 21l185 1188l-150 20q-6 18 0 47q2 12 5.5 23t6.5 17l3 5q197 19 614 19q264 0 367.5 -89.5t76.5 -265.5l-116 -743q-29 -175 -161 -263.5t-396 -88.5q-175 0 -327 4.5t-217 9.5zM457 128h229q151 0 221 51t88 165l117 743 q18 116 -37 167t-205 51h-231z" />
<glyph unicode="E" horiz-adv-x="1118" d="M55 12q-6 16 0 45q3 12 7 23.5t7 16.5l3 5l157 21l185 1188l-150 20q-6 16 0 45q2 12 5.5 23t6.5 17l3 5q236 13 571 13h412q5 -39 -8.5 -118t-29.5 -138l-16 -60q-20 -8 -49 -8q-12 0 -22.5 2t-15.5 4l-5 2l-12 176h-467l-74 -487h481q6 -29 0 -70q-4 -18 -9.5 -35.5 t-8.5 -25.5l-4 -8h-483l-80 -531h477l63 178q21 9 48 9q14 0 25 -2t16 -4l4 -3q4 -67 -21 -231q-4 -22 -10 -43t-10 -31l-4 -10h-422q-149 0 -291.5 3t-210.5 6z" />
<glyph unicode="F" horiz-adv-x="1093" d="M55 12q-6 16 0 45q3 12 7 23.5t7 16.5l3 5l157 21l185 1188l-150 20q-6 16 0 45q2 12 5.5 23t6.5 17l3 5q236 13 571 13h395q10 -73 -43 -283l-11 -36q1 1 1 3q-20 -8 -49 -8q-12 0 -22.5 2t-15.5 4l-5 2l-13 176h-450l-74 -487h479q6 -29 0 -70q-3 -18 -8.5 -35.5 t-9.5 -25.5l-4 -8h-481l-82 -545l149 -21q6 -18 0 -45q-2 -13 -6 -24t-7 -16l-3 -5q-95 -16 -271 -16q-77 0 -143 4t-94 8z" />
<glyph unicode="G" horiz-adv-x="1200" d="M166 344l117 743q27 177 158.5 267t394.5 90q91 0 169.5 -14t125.5 -34t80.5 -40.5t46.5 -34.5l14 -14q-12 -68 -27.5 -134t-24.5 -97l-10 -32q-28 -8 -65 -8q-17 0 -33.5 2t-24.5 4l-8 2l-2 179q-4 3 -10.5 9t-31 20.5t-53 25.5t-75 20t-96.5 9q-150 0 -217.5 -51.5 t-85.5 -168.5l-117 -743q-18 -114 35.5 -164.5t200.5 -50.5q73 0 140.5 12.5t98.5 25.5l31 13l70 447h-242q-6 26 0 69q4 18 10 35t11 25l4 8h90q97 0 187 -4t131 -8l42 -4l-106 -666q-8 -4 -23.5 -10t-66 -21.5t-104.5 -27.5t-135 -21.5t-161 -9.5q-261 0 -364 89t-74 263z " />
<glyph unicode="H" horiz-adv-x="1423" d="M55 12q-6 16 0 45q3 12 7 23.5t7 16.5l3 5l157 21l185 1188l-150 20q-6 16 0 45q2 12 5.5 23t6.5 17l3 5q96 17 270 17q78 0 144 -4t93 -8l27 -5q1 -2 1.5 -5.5t1.5 -15.5t-1 -24q-3 -13 -7.5 -24t-7.5 -16l-3 -5l-156 -20l-80 -510h553l78 510l-150 20q-6 16 0 45 q2 12 6 23t8 17l3 5q94 17 268 17q78 0 144.5 -4t94.5 -8l27 -5q4 -18 0 -45q-3 -13 -7 -24t-6 -16l-3 -5l-158 -20l-186 -1188l151 -21q6 -18 0 -45q-2 -13 -5.5 -24t-6.5 -16l-2 -5q-96 -16 -272 -16q-77 0 -142.5 4t-92.5 8l-27 4q-1 2 -1.5 5.5t-1.5 15t1 24.5 q3 12 7 23t7 16l2 6l158 21l84 541h-553l-82 -541l149 -21q6 -18 0 -45q-2 -13 -6 -24t-7 -16l-3 -5q-95 -16 -271 -16q-77 0 -143 4t-94 8z" />
<glyph unicode="I" horiz-adv-x="645" d="M55 12q-6 16 0 45q3 12 7 23.5t7 16.5l3 5l157 21l185 1188l-150 20q-6 16 0 45q2 12 5.5 23t6.5 17l3 5q96 17 270 17q78 0 144 -4t93 -8l27 -5q1 -2 1.5 -5.5t1.5 -15.5t-1 -24q-3 -13 -7.5 -24t-7.5 -16l-3 -5l-156 -20l-184 -1188l149 -21q6 -18 0 -45q-2 -13 -6 -24 t-7 -16l-3 -5q-95 -16 -271 -16q-77 0 -143 4t-94 8z" />
<glyph unicode="J" horiz-adv-x="970" d="M55 74q-8 28 0 71q2 13 5 24.5t6.5 19.5t6.5 14.5t5 10.5l2 3q0 -4 29 -24t97 -43t146 -23q114 0 167.5 50.5t72.5 166.5l149 967l-151 20q-4 16 0 45q2 12 6 23t7 17l3 5q97 17 271 17q77 0 143 -4t94 -8l27 -5q4 -18 0 -45q-2 -13 -6 -24t-7 -16l-4 -5l-157 -20 l-150 -967q-29 -175 -144 -264.5t-341 -89.5q-52 0 -99 8.5t-78 21t-55 25t-34 21.5z" />
<glyph unicode="K" horiz-adv-x="1314" d="M55 12q-6 16 0 45q3 12 7 23.5t7 16.5l3 5l157 21l185 1188l-150 20q-6 16 0 45q2 12 5.5 23t6.5 17l3 5q96 17 270 17q78 0 144 -4t93 -8l27 -5q1 -2 1.5 -5.5t1.5 -15.5t-1 -24q-3 -13 -7.5 -24t-7.5 -16l-3 -5l-156 -20l-82 -535l137 39l375 504l-96 12q-4 16 0 45 q2 12 6 23t7 17l3 5q97 17 285 17q49 0 99.5 -4t76.5 -8l25 -5q4 -18 0 -45q-2 -13 -6 -24t-7 -16l-4 -5l-160 -20l-419 -570l258 -618l151 -21q6 -18 0 -45q-2 -13 -5.5 -24t-6.5 -16l-2 -5q-96 -16 -207 -16q-89 0 -161.5 4t-99.5 8l-28 4q-1 2 -2 5.5t-2 15t2 24.5 q3 12 7 23t7 16l3 6l110 13l-233 553l-140 -37l-75 -508l149 -21q6 -18 0 -45q-2 -13 -6 -24t-7 -16l-3 -5q-95 -16 -271 -16q-77 0 -143 4t-94 8z" />
<glyph unicode="L" horiz-adv-x="1087" d="M55 12q-6 16 0 45q3 12 7 23t7 17l3 5l157 21l185 1188l-150 20q-6 16 0 45q2 12 5.5 23t6.5 17l3 5q96 17 270 17q78 0 144 -4.5t93 -8.5l27 -4q1 -2 1.5 -5.5t1.5 -15.5t-1 -24q-1 -6 -3 -11.5t-3.5 -10t-3 -8.5t-3 -6.5t-3 -4.5t-1.5 -3l-1 -1l-156 -20l-182 -1174 h444l66 178q20 9 47 9q13 0 24 -2.5t16 -4.5l5 -2q3 14 2 -1q-3 -91 -26 -228q-11 -71 -21 -86h-391q-149 0 -291.5 3t-210.5 6z" />
<glyph unicode="M" horiz-adv-x="1757" d="M55 12q-6 16 0 45q3 12 7 23.5t7 16.5l3 5l157 21l185 1188l-150 20q-6 16 0 45q2 12 5.5 23t6.5 17l3 5q96 17 284 17q43 0 85 -3t62 -5l21 -3l225 -935l521 938q71 8 149 8q88 0 163 -4t107 -8l31 -5q4 -18 0 -45q-2 -13 -6 -24t-7 -16l-3 -5l-158 -20l-184 -1188 l151 -21q4 -18 0 -45q-3 -13 -7 -24t-7 -16l-2 -5q-96 -16 -266 -16q-75 0 -139.5 4t-91.5 8l-27 4q-6 16 0 45q2 12 6 23t7 16l3 6l158 21l153 1012l-497 -897q-46 -13 -99 -13q-23 0 -47 3.5t-36 6.5l-13 3l-217 895l-154 -1010l152 -21q4 -18 0 -45q-3 -13 -7 -24t-7 -16 l-2 -5q-97 -16 -267 -16q-75 0 -139.5 4t-91.5 8z" />
<glyph unicode="N" horiz-adv-x="1425" d="M55 12q-6 16 0 45q3 12 7 23.5t7 16.5l3 5l157 21l185 1188l-150 20q-6 16 0 45q2 12 5.5 23t6.5 17l3 5q89 17 253 17q22 0 45.5 -3t36.5 -5l13 -3l440 -1044l139 928l-151 20q-6 16 0 45q2 12 6 23t7 17l3 5q94 17 264 17q76 0 140.5 -4t90.5 -8l27 -5q1 -2 1.5 -5.5 t1.5 -15.5t-1 -24q-3 -13 -7.5 -24t-7.5 -16l-3 -5l-156 -20l-204 -1305q-50 -10 -99 -10q-22 0 -46 2.5t-37 5.5l-13 2l-438 1045l-140 -928l152 -21q4 -18 0 -45q-3 -13 -7 -24t-7 -16l-2 -5q-97 -16 -267 -16q-75 0 -139.5 4t-91.5 8z" />
<glyph unicode="O" horiz-adv-x="1224" d="M166 344l117 743q27 176 160.5 266.5t396.5 90.5t367 -90.5t75 -266.5l-115 -743q-29 -175 -162.5 -264.5t-396.5 -89.5q-262 0 -366.5 89.5t-75.5 264.5zM391 344q-18 -115 36.5 -166t205.5 -51t220.5 51t88.5 166l115 743q19 116 -35 168t-205 52t-221 -52t-88 -168z " />
<glyph unicode="P" horiz-adv-x="1206" d="M55 12q-6 16 0 45q3 12 7 23.5t7 16.5l3 5l157 21l185 1188l-150 20q-6 18 0 47q2 12 5.5 23t6.5 17l3 5q238 19 581 19q254 0 353.5 -89.5t70.5 -265.5l-18 -124q-29 -176 -157 -264.5t-382 -88.5q-58 0 -107.5 1.5t-69.5 2.5l-20 2l-73 -493l149 -21q6 -18 0 -45 q-2 -13 -6 -24t-7 -16l-3 -5q-95 -16 -271 -16q-77 0 -143 4t-94 8zM553 745h197q142 0 207.5 51.5t80.5 166.5l21 124q19 116 -31.5 167t-191.5 51h-197z" />
<glyph unicode="Q" horiz-adv-x="1224" d="M166 344l117 743q27 176 160.5 266.5t396.5 90.5t367 -90.5t75 -266.5l-115 -743q-23 -134 -102.5 -217.5t-230.5 -116.5l151 -362q-56 -10 -113 -10q-24 0 -52 2.5t-44 5.5l-16 2l-117 342h-35q-262 0 -366.5 89.5t-75.5 264.5zM391 344q-18 -115 36.5 -166t205.5 -51 t220.5 51t88.5 166l115 743q19 116 -35 168t-205 52t-221 -52t-88 -168z" />
<glyph unicode="R" horiz-adv-x="1312" d="M55 12q-6 16 0 45q3 12 7 23.5t7 16.5l3 5l157 21l185 1188l-150 20q-6 16 0 45q2 12 5.5 23t6.5 17l3 5q236 21 589 21q254 0 353.5 -89.5t72.5 -265.5l-20 -118q-42 -264 -303 -330l168 -516l149 -21q6 -18 0 -45q-2 -13 -6 -24t-7 -16l-3 -5q-94 -16 -209 -16 q-83 0 -151.5 4t-95.5 8l-28 4q-1 2 -1.5 5.5t-1.5 15t1 24.5q3 12 7 23t7 16l3 6l106 13l-149 499h-23q-59 0 -111 2t-74 4l-22 3l-73 -500l149 -21q6 -18 0 -45q-2 -13 -6 -24t-7 -16l-3 -5q-95 -16 -271 -16q-77 0 -143 4t-94 8zM553 752h207q140 0 205.5 50.5 t83.5 166.5l18 118q19 116 -31 167t-192 51h-205z" />
<glyph unicode="S" horiz-adv-x="1167" d="M131 121q11 69 26 135t24 98l9 31q29 6 68 6q16 0 32 -1.5t24 -3.5l8 -1l2 -180q3 -3 10 -8.5t31.5 -19t53.5 -23.5t76.5 -18.5t100.5 -8.5q139 0 203.5 50.5t83.5 166.5l14 90q7 46 -11.5 82t-55.5 59.5t-86.5 42.5t-105 35.5t-110.5 35t-103 45t-83 60.5t-50.5 86.5 t-4.5 118.5l12 88q29 178 153 267.5t371 89.5q87 0 160 -13.5t115.5 -33t73 -38.5t42.5 -33l11 -13q-11 -69 -26.5 -135t-25.5 -98l-10 -31q-26 -7 -65 -7q-17 0 -33.5 2t-24.5 4l-8 1v180l-8.5 8.5t-26 19t-44.5 23.5t-65 18.5t-87 8.5q-132 0 -196 -52.5t-83 -167.5 l-12 -88q-7 -43 12 -76t56.5 -55t87.5 -40t105.5 -35t110.5 -36t103 -46.5t83 -63.5t50 -90.5t4 -122.5l-12 -90q-29 -177 -156 -265.5t-379 -88.5q-94 0 -174 13.5t-127.5 32.5t-81.5 38.5t-48 33.5z" />
<glyph unicode="T" horiz-adv-x="1208" d="M246 1118q-5 68 22 232q4 21 10 42t10 32l5 10h1069q4 -38 -10 -117t-30 -139l-15 -60q-21 -8 -50 -8q-12 0 -22.5 2t-15.5 4l-5 2l-12 176h-284l-181 -1171l152 -21q4 -18 -2 -45q-2 -13 -5.5 -24t-6.5 -16l-3 -5q-96 -16 -270 -16q-77 0 -143 4t-93 8l-28 4 q-1 2 -1.5 5.5t-1.5 15t1 24.5q3 12 7 23.5t7 16.5l2 5l160 21l180 1171h-289l-65 -176q-20 -8 -47 -8q-13 0 -24 2t-16 4z" />
<glyph unicode="U" horiz-adv-x="1404" d="M264 344l150 967l-150 20q-6 16 0 45q2 12 5.5 23t6.5 17l3 5q96 17 270 17q74 0 136 -4t87 -8l25 -5q1 -2 1.5 -5.5t1.5 -15.5t-1 -24q-3 -13 -7 -24t-7 -16l-3 -5l-141 -20l-152 -967q-18 -115 34.5 -166t199.5 -51t216 51t87 166l150 967l-136 20q-4 16 0 45 q2 12 6 23t8 17l3 5q88 17 254 17q77 0 143 -4t94 -8l27 -5q6 -18 0 -45q-2 -13 -6 -24t-7 -16l-3 -5l-158 -20l-150 -967q-29 -175 -160.5 -264.5t-390.5 -89.5t-362 89.5t-74 264.5z" />
<glyph unicode="V" horiz-adv-x="1456" d="M244 1331q-6 16 0 45q2 12 6 23t7 17l3 5q95 17 232 17q91 0 164 -4t100 -8l28 -5q1 -2 1.5 -5.5t1.5 -15.5t-1 -24q-3 -13 -7 -24t-7 -16l-2 -5l-160 -20l146 -1137l495 1137l-147 20q-6 16 0 45q2 12 6 23t7 17l3 5q94 17 297 17q61 0 118 -4t83 -8l27 -5q4 -18 0 -45 q-2 -13 -6 -24t-7 -16l-4 -5l-158 -20l-589 -1305q-74 -10 -154 -10q-36 0 -74 2.5t-58 5.5l-20 2l-182 1305z" />
<glyph unicode="W" horiz-adv-x="2146" d="M244 1331q-6 16 0 45q2 12 6 23t7 17l3 5q95 17 240 17q88 0 159.5 -4t98.5 -8l28 -5q1 -2 1.5 -5.5t1.5 -15.5t-1 -24q-3 -13 -7 -24t-7 -16l-2 -5l-160 -20l84 -1116l465 1232q61 11 139 11q34 0 68.5 -3t51.5 -5l18 -3l78 -1232l426 1116l-150 20q-4 16 0 45 q2 12 6 23t7 17l3 5q96 17 293 17q64 0 122.5 -4t84.5 -8l27 -5q1 -2 1.5 -5.5t1.5 -15.5t-1 -24q-3 -13 -7 -24t-7 -16l-3 -5l-159 -20l-519 -1305q-73 -10 -153 -10q-36 0 -74.5 2.5t-58.5 5.5l-21 2l-71 1217l-453 -1217q-76 -10 -156 -10q-36 0 -74 2.5t-57 5.5l-20 2 l-109 1305z" />
<glyph unicode="X" horiz-adv-x="1372" d="M41 12q-6 16 0 45q2 12 6 23.5t7 16.5l3 5l156 21l432 604l-233 584l-152 20q-4 16 0 45q2 12 6 23t7 17l3 5q96 17 213 17q94 0 169.5 -4t103.5 -8l29 -5q4 -18 0 -45q-3 -13 -7 -24t-7 -16l-3 -5l-129 -16l176 -465l316 465l-123 16q-4 16 0 45q2 12 6 23t7 17l3 5 q96 17 307 17q51 0 102.5 -4t76.5 -8l26 -5q4 -18 0 -45q-2 -13 -6 -24t-7 -16l-3 -5l-156 -20l-416 -584l244 -604l152 -21q4 -18 0 -45q-3 -13 -7 -24t-7 -16l-3 -5q-96 -16 -215 -16q-96 0 -172 4t-104 8l-29 4q-6 16 0 45q2 12 6 23.5t7 16.5l3 5l134 17l-183 485 l-336 -485l129 -17q4 -18 0 -45q-3 -13 -7 -24t-6 -16l-3 -5q-96 -16 -311 -16q-51 0 -102.5 4t-77.5 8z" />
<glyph unicode="Y" horiz-adv-x="1347" d="M244 1331q-6 16 0 45q2 12 6 23t7 17l3 5q94 17 219 17q93 0 167 -4t102 -8l28 -5q1 -2 1.5 -5.5t1.5 -15.5t-1 -24q-3 -13 -7 -24t-7 -16l-2 -5l-135 -18l170 -549l336 549l-129 18q-6 16 0 45q2 12 6 23t7 17l3 5q94 17 305 17q55 0 108 -4t79 -8l26 -5q4 -18 0 -45 q-3 -13 -7 -24t-7 -16l-2 -5l-160 -20l-485 -729l-70 -459l151 -21q4 -18 0 -45q-3 -13 -7 -24t-7 -16l-2 -5q-96 -16 -270 -16q-77 0 -143 4t-93 8l-28 4q-6 16 0 45q2 12 6 23.5t7 16.5l3 5l158 21l69 459l-256 729z" />
<glyph unicode="Z" horiz-adv-x="1089" d="M86 0q-6 27 0 70q4 18 10 35t10 25l5 7l843 1153h-528l-66 -178q-20 -8 -47 -8q-13 0 -24 2t-16 4l-5 2q-4 74 23 238q4 21 9.5 42t9.5 32l3 10h912q8 -29 0 -70q-4 -18 -9.5 -35.5t-9.5 -26.5l-4 -8l-844 -1151h533l67 179q19 8 48 8q13 0 24 -2t16 -4l5 -2 q-21 -288 -50 -322h-915z" />
<glyph unicode="[" horiz-adv-x="684" d="M74 -309l291 1849q129 0 247.5 -3t171.5 -6l54 -3q6 -25 0 -60q-3 -16 -8 -31t-9 -23l-4 -7q-110 -12 -278 -12l-244 -1559q75 0 144 -3t101 -6l31 -3q4 -25 -2 -60q-3 -16 -8 -31.5t-9 -22.5l-3 -7q-185 -12 -475 -12z" />
<glyph unicode="\" horiz-adv-x="798" d="M297 1427q51 11 104 11q24 0 49 -3t38 -5l14 -3l227 -1421q-53 -10 -104 -10q-23 0 -48 2.5t-39 5.5l-14 2z" />
<glyph unicode="]" horiz-adv-x="684" d="M39 -236q3 16 8 31t9 22l3 7q111 12 279 12l244 1559q-75 0 -143.5 3t-100.5 6l-31 3q-6 26 0 61q3 16 8 31t9 22l4 7q187 12 477 12l-293 -1849q-129 0 -247.5 3t-172.5 6l-53 3q-6 24 0 61z" />
<glyph unicode="^" horiz-adv-x="905" d="M238 1059l442 383l319 -383q-18 -24 -51 -51q-15 -12 -30.5 -22t-23.5 -14l-9 -3l-238 291l-328 -293q-24 12 -49 39q-11 12 -19 25t-11 21z" />
<glyph unicode="_" horiz-adv-x="1017" d="M-31 -231l23 129h1003l-22 -129h-1004z" />
<glyph unicode="`" horiz-adv-x="454" d="M250 1427q53 11 104 11q23 0 47 -3t37 -5l13 -3l161 -262q-32 -12 -69 -12q-15 0 -31 3t-24 6l-9 3z" />
<glyph unicode="a" horiz-adv-x="1114" d="M162 322l59 380q27 166 122 249t280 83q54 0 98.5 -9t68.5 -20t42 -26t23 -22.5t9 -14.5l10 76q56 10 109 10q24 0 51 -2.5t42 -5.5l14 -2l-123 -787q-10 -65 3.5 -88.5t59.5 -23.5q21 0 53 8q4 -26 0 -57q-2 -14 -7 -28t-9 -21l-4 -7q-75 -24 -139 -24q-92 0 -127 29 t-35 90q-6 -5 -17 -13t-47 -28.5t-74.5 -36t-97.5 -28.5t-118 -13q-158 0 -215 83.5t-31 248.5zM377 322q-16 -109 11.5 -157t115.5 -48q46 0 88.5 11t70 26.5t48.5 31t30 26.5l9 11l75 479q15 107 -25 156t-155 49q-98 0 -144.5 -48.5t-64.5 -156.5z" />
<glyph unicode="b" horiz-adv-x="1091" d="M158 6l204 1307l-135 24q-6 16 0 41q2 12 5.5 22.5t6.5 15.5l3 5q92 17 235 17q29 0 59.5 -3t45.5 -5l16 -3l-76 -479q1 3 10 11t31 21t51 25t75.5 20.5t98.5 8.5q188 0 258.5 -83.5t43.5 -248.5l-60 -380q-27 -165 -110.5 -248.5t-241.5 -83.5q-55 0 -105.5 11t-83 27 t-57.5 32t-36 27l-11 11l-12 -92q-56 -10 -109 -10q-24 0 -50.5 2.5t-41.5 5.5zM408 225q2 -4 6.5 -11.5t22 -26t39.5 -33t62 -26t87 -11.5q89 0 132 48.5t58 156.5l59 380q18 108 -14.5 156.5t-132.5 48.5q-116 0 -172.5 -49t-71.5 -156z" />
<glyph unicode="c" horiz-adv-x="991" d="M162 322l59 380q27 166 139.5 249t335.5 83q63 0 121.5 -8.5t96.5 -21t67.5 -25t42.5 -21.5l14 -8q-11 -68 -25.5 -131t-22.5 -92l-9 -29q-26 -6 -63 -6q-16 0 -31 1.5t-22 2.5l-7 2l-2 164q-75 45 -180 45q-115 0 -168.5 -48.5t-71.5 -156.5l-59 -380 q-16 -109 27.5 -157t173.5 -48q86 0 171 19t127 36.5t42 20.5l1 -3q1 -4 1.5 -10t1.5 -13.5t0.5 -18t-2.5 -21.5q-3 -17 -9 -33.5t-11 -24.5l-5 -8q-6 -3 -17.5 -7.5t-49 -17t-77 -22t-99.5 -17t-120 -7.5q-225 0 -310.5 83t-59.5 249z" />
<glyph unicode="d" horiz-adv-x="1122" d="M162 322l59 380q27 166 123.5 249t284.5 83q51 0 93.5 -8.5t68 -19.5t44 -24t25.5 -21.5t8 -12.5l56 365l-136 24q-1 2 -1.5 5t-1.5 14t1 22q3 12 7 22.5t7 15.5l3 5q82 17 229 17q29 0 61 -3t49 -5l17 -3l-188 -1196q-10 -65 3.5 -88.5t59.5 -23.5q21 0 53 8 q4 -26 0 -57q-2 -14 -7 -28t-9 -21l-4 -7q-75 -24 -139 -24q-92 0 -127 29t-35 90q-6 -5 -17 -13t-47 -28.5t-75 -36t-99 -28.5t-120 -13q-158 0 -215 83.5t-31 248.5zM377 322q-16 -110 11.5 -157.5t117.5 -47.5q46 0 89 11t70.5 27t48.5 32t30 27l10 11l75 477 q15 107 -25 156t-157 49q-100 0 -146.5 -48.5t-64.5 -156.5z" />
<glyph unicode="e" horiz-adv-x="1048" d="M162 322l59 380q27 166 137 249t332 83q116 0 192 -22t114.5 -64t49.5 -104t-4 -142l-38 -233q-111 -20 -306 -20h-303l-18 -127q-15 -109 29.5 -157t177.5 -48q90 0 180 19.5t132 36t46 20.5q-1 -1 1 -9.5t3 -22.5t-2 -34q-3 -17 -9 -33.5t-11 -24.5l-4 -8 q-18 -8 -50 -20t-131 -31.5t-198 -19.5q-229 0 -317 83t-62 249zM418 578h401l19 124q18 107 -19.5 156t-148.5 49q-112 0 -164 -48.5t-70 -156.5z" />
<glyph unicode="f" horiz-adv-x="735" d="M-90 -336q3 15 8 30t8 22l4 8q34 -17 97 -17q67 0 100 36t45 116l162 1042l-135 25q-1 2 -1.5 5.5t-1.5 15t1 22.5t6 21.5t7 15.5l3 4q49 14 141 14l19 121q24 148 104.5 223.5t233.5 75.5q123 0 192 -23q4 -28 -2 -61q-2 -15 -7 -30t-9 -22l-4 -8q-40 17 -117 17 q-84 0 -123 -40.5t-55 -131.5l-17 -117h271q6 -26 0 -65q-3 -17 -8.5 -33t-9.5 -24l-5 -7h-270l-162 -1040q-23 -139 -95 -209t-210 -70q-82 0 -170 25q-6 26 0 59z" />
<glyph unicode="g" horiz-adv-x="1064" d="M94 -319q3 18 8.5 34t10.5 23.5t6 7.5q125 -39 315 -39q132 0 192.5 48.5t78.5 156.5l24 160q-5 -5 -13.5 -12t-32.5 -20t-52 -23.5t-73 -18.5t-95 -8q-188 0 -257.5 83t-43.5 249l59 380q27 165 110.5 248.5t241.5 83.5q55 0 105.5 -11t83 -27t57.5 -32t36 -27l11 -11 l13 92q53 8 108 8q24 0 51 -2t42 -4l14 -2l-174 -1106q-27 -166 -146 -249t-362 -83q-87 0 -166 9t-114 19l-36 9q-1 3 -2 8t-2 22t2 34zM377 322q-15 -109 16.5 -157t130.5 -48q117 0 172.5 48.5t73.5 156.5l74 477q-2 4 -6.5 11.5t-21.5 26t-39.5 33t-62 26t-85.5 11.5 q-89 0 -132 -48.5t-61 -156.5z" />
<glyph unicode="h" horiz-adv-x="1165" d="M158 6l204 1307l-135 24q-6 16 0 43q2 11 5.5 21.5t6.5 14.5l3 5q81 17 231 17q30 0 61.5 -3t47.5 -5l16 -3l-78 -501q5 4 15 11.5t42 26t67 33t88.5 26t107.5 11.5q159 0 215 -83t30 -249l-75 -481q-8 -55 7.5 -79.5t61.5 -24.5q19 0 51 8q4 -26 -2 -57q-2 -14 -6.5 -28 t-7.5 -21l-4 -7q-69 -22 -133 -22q-116 0 -158.5 58t-21.5 173l73 481q16 108 -11.5 156.5t-115.5 48.5q-46 0 -88 -11t-69.5 -27t-48 -32t-29.5 -27l-10 -11l-125 -793q-56 -10 -109 -10q-24 0 -50.5 2.5t-41.5 5.5z" />
<glyph unicode="i" horiz-adv-x="593" d="M193 971q3 11 7 21.5t6 15.5l3 4q82 16 229 16q30 0 61.5 -2.5t47.5 -5.5l16 -2l-123 -797q-9 -55 6.5 -79.5t61.5 -24.5q19 0 51 8q4 -26 0 -57q-3 -14 -7.5 -28t-7.5 -21l-3 -7q-74 -22 -135 -22q-116 0 -158 57.5t-23 173.5l105 682l-135 25q-1 2 -1.5 5t-1.5 14.5 t1 23.5zM379 1206l37 221q53 11 108 11q24 0 50.5 -3t40.5 -5l14 -3l-35 -221q-58 -10 -111 -10q-24 0 -50 2.5t-40 5.5z" />
<glyph unicode="j" horiz-adv-x="559" d="M-86 -395q-10 4 9 88q8 33 11 31q45 -17 101 -17q75 0 110.5 38t47.5 124l159 1034l-135 25l-2 43q3 11 7 21.5t6 15.5l3 4q83 16 230 16q30 0 62 -2.5t49 -5.5l16 -2l-182 -1149q-23 -143 -98 -216t-218 -73q-76 0 -176 25zM403 1206l35 221q56 11 109 11q24 0 50.5 -3 t40.5 -5l15 -3l-37 -221q-55 -10 -110 -10q-24 0 -49.5 2.5t-39.5 5.5z" />
<glyph unicode="k" horiz-adv-x="1054" d="M147 6l205 1307l-135 24q-1 2 -1.5 5t-1.5 14.5t1 23.5q3 11 7 21.5t6 14.5l3 5q83 17 230 17q29 0 61 -3t49 -5l17 -3l-135 -858l102 33l242 313l-72 13q-1 2 -1.5 5t-1.5 14.5t1 23.5q3 11 7 21.5t6 15.5l3 4q84 16 234 16q51 0 96.5 -4t65.5 -8l20 -4q6 -16 0 -41 q-1 -12 -4.5 -22.5t-6.5 -15.5l-3 -5l-140 -25l-280 -366l184 -416l131 -25q4 -16 0 -43q-2 -11 -6 -21.5t-7 -15.5l-3 -4q-76 -16 -178 -16q-26 0 -53.5 2.5t-41.5 5.5l-14 2l-201 461l-102 -35l-68 -426q-55 -10 -110 -10q-24 0 -50 2.5t-40 5.5z" />
<glyph unicode="l" horiz-adv-x="550" d="M182 221l170 1092l-135 24q-1 2 -1.5 5t-1.5 14.5t1 23.5q3 11 7 21.5t6 14.5l3 5q83 17 230 17q31 0 63 -3t48 -5l16 -3l-191 -1206q-8 -56 7 -80t61 -24q27 0 51 8q6 -26 0 -57q-2 -14 -6.5 -28t-7.5 -21l-4 -7q-69 -22 -136 -22q-116 0 -157.5 57.5t-22.5 173.5z" />
<glyph unicode="m" horiz-adv-x="1742" d="M190 6l140 897l-135 25q-1 2 -1.5 5t-1.5 14.5t1 23.5q3 11 7 21.5t6 15.5l3 4q82 16 229 16q30 0 61.5 -2.5t47.5 -5.5l16 -2l-12 -92q5 4 14.5 11.5t40.5 26t64 33t83.5 26t100.5 11.5q182 0 221 -108q6 4 17 11.5t47.5 26t75.5 33t97.5 26t117.5 11.5 q152 0 206.5 -78.5t28.5 -236.5l-76 -498q-9 -55 6 -79.5t62 -24.5q19 0 51 8q11 -4 -7 -82q-8 -33 -11 -31q-74 -22 -136 -22q-116 0 -157.5 57.5t-22.5 173.5l76 498q16 100 -9.5 144t-107.5 44q-49 0 -92 -11.5t-71 -30t-42 -29.5t-22 -21l-127 -809q-56 -10 -109 -10 q-24 0 -50.5 2.5t-41.5 5.5l-14 2l113 713q15 100 -10.5 144t-108.5 44q-43 0 -82 -11t-65 -27t-45.5 -32t-28.5 -27l-9 -11l-125 -793q-55 -10 -108 -10q-24 0 -50.5 2.5t-40.5 5.5z" />
<glyph unicode="n" horiz-adv-x="1200" d="M190 6l140 897l-135 25q-1 2 -1.5 5t-1.5 14t1 22q3 12 7 22.5t6 15.5l3 5q82 16 229 16q29 0 60.5 -2.5t47.5 -5.5l17 -2l-12 -92q5 4 14.5 11.5t42 26t67 33t88 26t107.5 11.5q161 0 219.5 -82.5t32.5 -246.5l-75 -484q-8 -56 6.5 -80t60.5 -24q27 0 51 8q6 -26 0 -57 q-2 -14 -6.5 -28t-8.5 -21l-3 -7q-69 -22 -135 -22q-116 0 -158 57.5t-23 173.5l76 481q16 108 -13 156.5t-120 48.5q-46 0 -88 -11t-69.5 -27t-48.5 -32t-30 -27l-10 -11l-125 -793q-55 -10 -108 -10q-24 0 -50.5 2.5t-40.5 5.5z" />
<glyph unicode="o" horiz-adv-x="1062" d="M162 322l59 380q27 165 139.5 248.5t333.5 83.5t307.5 -83.5t59.5 -248.5l-60 -380q-26 -165 -139 -248.5t-334 -83.5t-306.5 83.5t-59.5 248.5zM377 322q-15 -109 23 -157t151 -48t166.5 48.5t68.5 156.5l62 380q15 107 -24 156t-150 49q-113 0 -166.5 -49t-71.5 -156z " />
<glyph unicode="p" horiz-adv-x="1122" d="M125 -403l205 1306l-135 25q-1 2 -1.5 5t-1.5 14.5t1 23.5q3 11 7 21.5t6 15.5l3 4q82 16 229 16q29 0 60.5 -2.5t47.5 -5.5l17 -2l-12 -92q5 4 15 11.5t42.5 26t67.5 33t89 26t109 11.5q159 0 216.5 -83t31.5 -249l-61 -380q-26 -165 -123 -248.5t-285 -83.5 q-50 0 -92.5 8t-68 19t-44.5 24t-26 21t-8 12l-76 -477q-54 -11 -109 -11q-24 0 -50 3t-40 5zM455 322q-15 -109 25 -157t157 -48q99 0 146 48t65 157l59 380q16 108 -12 156.5t-117 48.5q-47 0 -90 -11t-71 -27t-49 -32t-30 -27l-10 -11z" />
<glyph unicode="q" horiz-adv-x="1064" d="M162 322l59 380q27 165 110.5 248.5t241.5 83.5q55 0 105.5 -11t83 -27t57.5 -32t36 -27l11 -11l13 92q53 10 108 10q24 0 51 -2.5t42 -5.5l14 -2l-226 -1421q-55 -11 -108 -11q-24 0 -51 3t-41 5l-15 3l76 475q-5 -5 -13.5 -12t-32.5 -20t-52 -23.5t-73 -18.5t-95 -8 q-188 0 -257.5 83t-43.5 249zM377 322q-15 -109 16.5 -157t130.5 -48q117 0 172.5 48.5t73.5 156.5l74 477q-2 4 -6.5 11.5t-21.5 26t-39.5 33t-62 26t-85.5 11.5q-89 0 -132 -48.5t-61 -156.5z" />
<glyph unicode="r" horiz-adv-x="823" d="M190 6l140 897l-135 25q-1 2 -1.5 5t-1.5 14t1 22q3 12 7 22.5t6 15.5l3 5q82 16 229 16q29 0 60.5 -2.5t47.5 -5.5l17 -2l-18 -131q6 6 16.5 16t46.5 35t74.5 44.5t99 35.5t121.5 16q6 -28 0 -65q-3 -17 -8.5 -34t-9.5 -25l-4 -9q-65 0 -126.5 -20.5t-103.5 -49.5 t-75 -58.5t-48 -50.5l-16 -20l-109 -696q-55 -10 -108 -10q-24 0 -50.5 2.5t-40.5 5.5z" />
<glyph unicode="s" horiz-adv-x="954" d="M113 68q10 67 24.5 129.5t23.5 92.5l9 29q26 7 61 7q16 0 31 -2t22 -4l7 -1l4 -157q75 -45 184 -45q100 0 145.5 37.5t59.5 119.5l6 41q5 35 -20.5 59.5t-70.5 40t-99.5 29.5t-108 33.5t-96 46.5t-64.5 73.5t-12 109.5l8 41q23 143 123.5 214.5t304.5 71.5 q59 0 113.5 -8.5t90.5 -20.5t64 -24t41 -21l13 -8q-11 -67 -26 -130t-24 -92l-9 -30q-25 -6 -62 -6q-16 0 -30.5 1.5t-21.5 2.5l-7 2l-2 164q-77 43 -160 43q-95 0 -140.5 -38.5t-56.5 -120.5l-8 -41q-4 -28 16 -49.5t56 -34.5t82.5 -27t95 -26.5t93.5 -34t78.5 -48.5 t50 -71.5t7.5 -100.5l-6 -41q-24 -142 -129 -214t-317 -72q-64 0 -122.5 8t-97 20t-68 24t-43.5 20z" />
<glyph unicode="t" horiz-adv-x="751" d="M193 924q-4 16 0 43q2 11 6 21.5t7 15.5l3 4q53 14 151 14l54 201q47 10 94 10q20 0 42 -2.5t34 -4.5l12 -3l-31 -199h260q6 -26 0 -63q-3 -17 -8.5 -33.5t-9.5 -24.5l-4 -8h-260l-92 -606q-14 -91 12.5 -131.5t111.5 -40.5q47 0 113 22q4 -26 -2 -59q-2 -14 -7 -28 t-9 -22l-4 -7q-88 -33 -187 -33q-155 0 -211 75.5t-32 223.5l94 608z" />
<glyph unicode="u" horiz-adv-x="1206" d="M193 971q3 11 7 21.5t6 15.5l3 4q82 16 229 16q29 0 60.5 -2.5t47.5 -5.5l17 -2l-108 -696q-15 -109 13 -157t118 -48q47 0 90 11t71 27t49 32t30 27l10 11l125 793q55 10 110 10q24 0 50 -2.5t41 -5.5l14 -2l-123 -787q-11 -66 2.5 -89t62.5 -23q19 0 51 8q1 -3 1.5 -8 t1.5 -20.5t-1 -28.5q-3 -14 -8 -28t-9 -21l-3 -7q-81 -24 -141 -24q-92 0 -127 29t-33 90q-6 -5 -17.5 -13t-48.5 -28.5t-76.5 -36t-100 -28.5t-120.5 -13q-160 0 -216.5 83t-30.5 249l90 581l-135 25q-1 2 -1.5 5t-1.5 14.5t1 23.5z" />
<glyph unicode="v" horiz-adv-x="1140" d="M193 971q3 11 7 21.5t6 15.5l3 4q82 16 229 16q29 0 60.5 -2.5t47.5 -5.5l17 -2l-104 -670q-19 -122 13.5 -176.5t135.5 -54.5q120 0 184.5 82t96.5 280q23 146 28.5 280.5t-0.5 196.5l-6 62q52 10 103 10q24 0 49 -2.5t38 -5.5l13 -2q5 -24 10 -68t4 -184.5t-24 -286.5 q-42 -262 -165.5 -375.5t-352.5 -113.5q-211 0 -290 90.5t-52 267.5l86 555l-135 25q-1 2 -1.5 5t-1.5 14.5t1 23.5z" />
<glyph unicode="w" horiz-adv-x="1691" d="M193 971q3 11 7 21.5t6 15.5l3 4q82 16 229 16q29 0 60.5 -2.5t47.5 -5.5l17 -2l-104 -670q-19 -122 11 -176.5t126 -54.5q79 0 131.5 36t85.5 117q5 58 8 78l105 670q55 10 110 10q24 0 50.5 -2.5t40.5 -5.5l14 -2l-105 -670q-19 -121 12.5 -176t127.5 -55 q111 0 172.5 82t93.5 280q23 146 28 280.5t-2 196.5l-6 62q52 10 105 10q23 0 47.5 -2.5t37.5 -5.5l13 -2q5 -24 11 -68t4.5 -184.5t-25.5 -286.5q-41 -261 -155.5 -375t-323.5 -114q-218 0 -283 139q-119 -139 -340 -139q-193 0 -264.5 90.5t-44.5 267.5l86 555l-135 25 q-1 2 -1.5 5t-1.5 14.5t1 23.5z" />
<glyph unicode="x" horiz-adv-x="1120" d="M35 53q2 12 6 22.5t7 15.5l3 5l133 25l322 401l-189 381l-131 25l-2 43q3 11 7 21.5t7 15.5l3 4q82 16 172 16q26 0 54.5 -2.5t44.5 -5.5l15 -2l172 -383l213 280l-75 13l-2 43q3 11 7 21.5t6 15.5l3 4q84 16 236 16q49 0 93.5 -4t64.5 -8l20 -4q1 -2 1.5 -5t1.5 -14 t-1 -22q-2 -12 -6 -23t-7 -16l-4 -4l-133 -25l-303 -381l197 -401l131 -25q2 -16 0 -43l-15 -41q-84 -16 -174 -16q-26 0 -54.5 2.5t-44.5 5.5l-15 2l-178 402l-234 -302l80 -10q4 -16 0 -43l-14 -41q-86 -16 -236 -16q-49 0 -94 4t-65 8l-21 4q-1 2 -1.5 5t-1.5 14t1 22z " />
<glyph unicode="y" horiz-adv-x="1142" d="M172 -319q3 18 8.5 34t10.5 23.5t6 7.5q125 -39 315 -39q132 0 192 48.5t78 156.5l25 164q0 -4 -31 -23t-101.5 -41t-150.5 -22q-180 0 -245 83t-39 249l90 581l-135 25q-1 2 -1.5 5t-1.5 14.5t1 23.5q3 11 7 21.5t6 15.5l3 4q82 16 229 16q29 0 60.5 -2.5t47.5 -5.5 l17 -2l-108 -696q-15 -109 13 -157t118 -48q46 0 88 11t69.5 27t48 32t30.5 27l9 11l125 793q56 10 109 10q24 0 50.5 -2.5t40.5 -5.5l15 -2l-174 -1106q-27 -166 -146 -249t-362 -83q-87 0 -165.5 9t-113.5 19l-36 9q-1 3 -2 8t-3 22t3 34z" />
<glyph unicode="z" horiz-adv-x="976" d="M102 63q3 17 8.5 33.5t9.5 24.5l5 8l657 766h-413l-58 -152q-18 -8 -45 -8q-13 0 -24 2t-16 4l-5 2q-4 64 19 203q3 20 9 39.5t11 28.5l4 10h768q4 -26 -2 -63q-3 -17 -8 -33.5t-8 -24.5l-4 -8l-658 -766h416l59 152q18 8 45 8q12 0 23 -2t15 -4l5 -2q4 -64 -16 -203 q-4 -20 -9.5 -39.5t-9.5 -28.5l-3 -10h-773q-1 3 -2 8t-2 21.5t2 33.5z" />
<glyph unicode="{" horiz-adv-x="733" d="M164 553q-6 24 0 63q3 16 8.5 32.5t9.5 25.5l4 8q103 0 154 49t66 154l51 323q26 164 131 248t309 84q6 -26 0 -65q-3 -17 -8.5 -33t-10.5 -24l-4 -7q-104 0 -154 -48t-65 -155l-51 -323q-32 -200 -166 -269q113 -72 82 -266l-51 -325q-15 -107 20 -155t138 -48 q6 -25 0 -64q-3 -16 -8 -32.5t-9 -24.5l-4 -8q-206 0 -284.5 84t-51.5 248l52 325q16 106 -19 154.5t-139 48.5z" />
<glyph unicode="|" horiz-adv-x="415" d="M90 -199l275 1729q43 10 86 10q19 0 40 -2.5t33 -5.5l11 -2l-275 -1729q-43 -10 -86 -10q-20 0 -41 2.5t-32 4.5z" />
<glyph unicode="}" horiz-adv-x="733" d="M31 -242q2 17 6.5 33t8.5 23l3 8q105 0 155.5 48t65.5 155l52 325q31 195 165 266q-113 69 -81 269l51 323q15 107 -20 155t-138 48q-6 25 0 64q3 17 8.5 33.5t10.5 23.5l4 8q204 0 281.5 -84t51.5 -248l-51 -323q-15 -106 20 -154.5t138 -48.5q6 -29 0 -66 q-3 -17 -8 -33t-9 -23l-4 -7q-105 0 -155.5 -48.5t-65.5 -154.5l-51 -325q-27 -164 -131 -248t-307 -84q-6 28 0 65z" />
<glyph unicode="~" horiz-adv-x="899" d="M166 514l2 10q18 114 68 169t153 55q52 0 91 -13t61.5 -31t41 -36.5t40 -31.5t47.5 -13q30 0 49.5 6.5t32 22.5t19.5 34.5t13 50.5q37 11 74 11q10 0 21 -1t19.5 -3t16 -3.5t11.5 -2.5l4 -1q-12 -62 -26 -101t-38.5 -72t-63.5 -47.5t-95 -14.5q-52 0 -91 13t-62 32 t-41.5 37.5t-40 31.5t-46.5 13q-58 0 -81 -26t-36 -89q-36 -10 -73 -10q-16 0 -33.5 2.5t-26.5 5.5z" />
<glyph unicode="&#xa1;" horiz-adv-x="458" d="M57 -403l156 993q56 10 109 10q24 0 50.5 -2.5t41.5 -5.5l14 -2l-158 -993q-53 -11 -108 -11q-24 0 -50 3t-40 5zM244 799l37 219q55 10 110 10q24 0 51 -2.5t42 -5.5l14 -2l-35 -219q-56 -13 -111 -13q-25 0 -52 3t-42 7z" />
<glyph unicode="&#xa2;" horiz-adv-x="991" d="M162 322l59 380q24 150 117 232.5t272 95.5l31 193q43 10 88 10q19 0 39.5 -2.5t31.5 -4.5l11 -3l-31 -193q78 -7 142.5 -27t89.5 -37l26 -16q-11 -68 -25.5 -131t-22.5 -92l-9 -29q-26 -6 -63 -6q-16 0 -31 1.5t-22 2.5l-7 2l-2 164q-75 45 -180 45q-115 0 -168.5 -48.5 t-71.5 -156.5l-59 -380q-16 -109 27.5 -157t173.5 -48q86 0 167 17t119 34l39 18q1 -3 2 -8t2 -22t-2 -35q-4 -16 -10.5 -32t-10.5 -24l-5 -8q-11 -6 -31 -16t-88.5 -27.5t-143.5 -21.5l-30 -191q-43 -10 -86 -10q-19 0 -40 2.5t-32 4.5l-12 3l30 195q-174 15 -240.5 96.5 t-43.5 229.5z" />
<glyph unicode="&#xa3;" horiz-adv-x="1136" d="M63 0q-8 27 0 70q3 18 8.5 35t10.5 25l4 7h96l72 475h-96q-6 25 0 64q4 17 9.5 33.5t8.5 24.5l4 7h96l54 346q27 177 148.5 267t361.5 90q86 0 159 -14t116 -34t74 -40.5t43 -34.5l11 -14q-11 -68 -26.5 -134t-24.5 -97l-10 -32q-27 -8 -66 -8q-17 0 -33.5 2t-24.5 4 l-7 2v179l-9 9t-27 20.5t-45.5 25.5t-66 20t-86.5 9q-127 0 -185.5 -51.5t-76.5 -168.5l-53 -346h325q6 -26 0 -65q-3 -17 -8.5 -33t-9.5 -23l-4 -8h-326l-71 -475h649q4 -26 -2 -67q-4 -19 -9.5 -36.5t-9.5 -25.5l-4 -8h-969z" />
<glyph unicode="&#xa4;" horiz-adv-x="851" d="M117 379l139 121q-14 45 -4 114l8 58q13 82 49 129l-104 129q16 26 51 53q14 12 29 21.5t23 13.5l9 4l117 -143q58 28 133 28t123 -28l164 143q24 -12 51 -39q10 -12 18.5 -25.5t11.5 -20.5l3 -7l-150 -129q22 -49 13 -129l-10 -58q-10 -69 -43 -114l100 -121 q-14 -24 -49 -53q-15 -12 -31 -22t-24 -14l-9 -3l-102 125q-60 -31 -150 -31q-89 0 -143 31l-139 -125q-24 12 -49 39q-11 12 -20 25t-12 21zM385 614q-11 -62 17 -92t100 -30q74 0 110 29.5t45 92.5l9 58q9 64 -17.5 93.5t-99.5 29.5q-74 0 -110.5 -29.5t-45.5 -93.5z" />
<glyph unicode="&#xa5;" horiz-adv-x="1337" d="M238 1331q-4 16 0 45q1 6 2 11t2.5 9.5t3.5 8.5t3 7t2.5 5t1.5 3l1 1q96 17 219 17q93 0 167.5 -4t103.5 -9l28 -4q4 -18 0 -45q-2 -13 -6 -24t-7 -16l-3 -5l-135 -18l172 -535l333 535l-129 18q-4 16 0 45q2 12 6 23t8 17l3 5q96 17 305 17q55 0 108 -4t79 -9l26 -4 q4 -18 0 -45q-3 -13 -7 -24t-6 -16l-3 -5l-160 -20l-461 -693h233q1 -2 2 -6t2 -17.5t-2 -25.5q-2 -14 -6.5 -26.5t-7.5 -18.5l-4 -6h-252l-22 -149h252q1 -2 1.5 -6.5t1.5 -18.5t-1 -27q-3 -13 -7.5 -25t-8.5 -18l-3 -6h-250l-22 -145l151 -21q10 -1 -6 -65q-7 -26 -10 -25 q-94 -16 -268 -16q-78 0 -145 4t-95 8l-27 4q-6 16 0 45q2 12 6 23t7 16l4 6l157 21l23 145h-250q-1 2 -2 6t-3 16.5t1 26.5t7.5 27t7.5 19l3 6h250l23 149h-248q-1 2 -2 6t-2 18t2 27t7.5 25t7.5 18l3 6h228l-242 693z" />
<glyph unicode="&#xa6;" horiz-adv-x="415" d="M90 -199l119 756q45 10 88 10q19 0 40 -2.5t33 -4.5l11 -3l-121 -756q-43 -10 -86 -10q-20 0 -41 2.5t-32 4.5zM244 774l121 756q43 10 86 10q19 0 40 -2.5t33 -5.5l11 -2l-119 -756q-45 -10 -88 -10q-20 0 -41 2.5t-32 5.5z" />
<glyph unicode="&#xa7;" horiz-adv-x="1144" d="M49 -283q11 68 26.5 134t25.5 97l10 32q28 8 67 8q17 0 33 -2t23 -4l8 -2l2 -179q3 -4 10 -10t32 -22.5t53.5 -29t77 -22.5t101.5 -10q147 0 212.5 49.5t84.5 163.5l6 43q7 46 -12.5 82t-58 59.5t-90 42.5t-109 35.5t-115 35t-108 45t-87 60.5t-53.5 86.5t-6 118.5l6 43 q28 180 164 263q-108 83 -86 227l6 43q29 170 152.5 255t372.5 85q89 0 165.5 -14t121.5 -34t77.5 -40.5t44.5 -34.5l13 -14q-11 -68 -26.5 -134t-25.5 -97l-10 -32q-26 -8 -65 -8q-17 0 -33.5 2t-24.5 4l-8 2v179q-3 4 -9 10t-29 22.5t-49.5 29t-71 22.5t-93.5 10 q-139 0 -204.5 -51t-84.5 -162l-6 -43q-7 -43 13 -76t59 -55t91 -40t110 -35t115.5 -36t107.5 -46.5t86.5 -63.5t53 -90.5t5.5 -122.5l-6 -43q-28 -176 -158 -258q101 -91 80 -232l-6 -43q-27 -170 -153 -255t-381 -85q-94 0 -174.5 14t-128.5 34t-82.5 40.5t-48.5 34.5z M395 528q-7 -48 13.5 -83t65.5 -57.5t92 -37.5t113 -35.5t109 -40.5q89 45 111 179l6 43q6 42 -7.5 75.5t-39.5 54t-68.5 39.5t-81.5 30.5t-92 28.5t-88 32q-106 -46 -127 -185z" />
<glyph unicode="&#xa8;" horiz-adv-x="845" d="M319 1221l33 206q39 11 88 11q21 0 42 -3t32 -5l10 -3l-35 -206q-39 -11 -86 -11q-22 0 -43 3t-31 5zM741 1221l33 206q39 11 88 11q21 0 41.5 -3t30.5 -5l10 -3l-33 -206q-41 -11 -86 -11q-22 0 -43 3t-31 5z" />
<glyph unicode="&#xa9;" horiz-adv-x="1650" d="M195 492l69 450q20 122 74 213.5t148 157t236 98.5t331 33t320 -33t204.5 -98.5t97.5 -157t4 -213.5l-69 -450q-20 -122 -74 -213.5t-148 -157t-236 -98.5t-331 -33t-320 33t-204.5 98.5t-97.5 157t-4 213.5zM397 492q-20 -133 14.5 -213t139.5 -121t293 -41t305.5 41 t177 121t80.5 213l70 450q20 132 -14.5 212t-139.5 121.5t-293 41.5t-305.5 -41.5t-177 -121.5t-80.5 -212q1 1 -16.5 -111.5t-35.5 -225.5zM668 543l55 356q16 93 82.5 139.5t200.5 46.5q71 0 116 -13t65.5 -38.5t25 -62.5t-4.5 -84q-30 -6 -59 -6l-62 6v12q9 56 -12 80.5 t-84 24.5q-65 0 -94.5 -24.5t-38.5 -80.5l-55 -356q-8 -56 17 -80.5t98 -24.5q54 0 106 11t77 21l25 11q8 1 -5 -65q-5 -20 -7 -19q-86 -41 -211 -41q-140 0 -194.5 47t-40.5 140z" />
<glyph unicode="&#xaa;" horiz-adv-x="811" d="M229 911l4 21q14 88 80.5 134.5t204.5 59.5l162 19l12 74q9 67 -16 97t-98 30q-17 0 -34 -2t-29 -5t-25 -7.5t-19.5 -7.5t-15 -6.5t-9.5 -4.5l-36 -111q-20 -2 -45 -2l-48 2q1 74 19 180q11 7 32.5 17t89 26.5t136.5 16.5q155 0 215.5 -56t42.5 -167l-66 -412l95 -19 q4 -12 0 -32q-1 -8 -4 -15.5t-6 -11.5l-3 -4q-57 -12 -163 -12q-23 0 -46 2t-35 4l-12 2l11 63q-4 -3 -11 -8t-30.5 -18t-48 -23t-62.5 -18t-76 -8q-104 0 -143 51t-23 151zM389 907q-8 -54 10.5 -78t73.5 -24q48 0 89 18t58 36l17 18l27 176l-132 -17q-69 -9 -101 -35.5 t-38 -72.5z" />
<glyph unicode="&#xab;" horiz-adv-x="995" d="M160 553l440 383q24 -10 51 -39q11 -12 19.5 -25t11.5 -20l2 -6l-328 -293l238 -291q-18 -26 -51 -53q-16 -12 -32 -21.5t-24 -13.5l-8 -4zM526 553l443 383q24 -10 49 -39q11 -12 19.5 -24.5t10.5 -19.5l3 -7l-328 -293l238 -291q-17 -26 -52 -53q-15 -12 -30.5 -21.5 t-24.5 -13.5l-8 -4z" />
<glyph unicode="&#xac;" horiz-adv-x="823" d="M184 629q-6 24 0 63q4 17 9.5 33t9.5 23l4 8h248q111 0 214 -4t150 -8l47 -3l-45 -282q-47 -13 -94 -13q-20 0 -42 3t-34 7l-12 3l25 170h-480z" />
<glyph unicode="&#xad;" horiz-adv-x="593" d="M166 514q-6 27 0 66q4 17 9.5 33t8.5 23l4 7h418q6 -24 0 -63q-3 -17 -8 -33.5t-8 -24.5l-4 -8h-420z" />
<glyph unicode="&#xae;" horiz-adv-x="1650" d="M195 492l69 450q20 122 74 213.5t148 157t236 98.5t331 33t320 -33t204.5 -98.5t97.5 -157t4 -213.5l-69 -450q-20 -122 -74 -213.5t-148 -157t-236 -98.5t-331 -33t-320 33t-204.5 98.5t-97.5 157t-4 213.5zM397 492q-20 -133 14.5 -213t139.5 -121t293 -41t305.5 41 t177 121t80.5 213l70 450q20 132 -14.5 212t-139.5 121.5t-293 41.5t-305.5 -41.5t-177 -121.5t-80.5 -212q1 1 -16.5 -111.5t-35.5 -225.5zM649 360l113 709q94 10 233 10q131 0 181.5 -46t35.5 -138l-6 -55q-12 -68 -49 -110t-104 -60l108 -310q-34 -4 -69 -4l-70 4 l-98 295l-93 2l-47 -297q-34 -4 -67 -4zM844 735h98q62 0 92 24.5t39 80.5l6 55q9 55 -13 79.5t-85 24.5h-96z" />
<glyph unicode="&#xaf;" horiz-adv-x="475" d="M168 1276q2 13 6.5 25t7.5 18l4 6h519q1 -2 1.5 -6t1.5 -17.5t-1 -25.5q-2 -14 -6.5 -26.5t-8.5 -18.5l-4 -6h-518q-1 2 -1.5 6t-1.5 18t1 27z" />
<glyph unicode="&#xb0;" horiz-adv-x="641" d="M307 1202l8 43q14 92 75.5 143.5t172.5 51.5q110 0 154.5 -51.5t30.5 -143.5l-7 -43q-30 -194 -247 -194q-111 0 -156 51t-31 143zM414 1202q-8 -52 13.5 -77t80.5 -25q60 0 89.5 25t37.5 77l8 43q6 53 -16 78t-80 25q-60 0 -89.5 -25.5t-35.5 -77.5z" />
<glyph unicode="&#xb1;" horiz-adv-x="837" d="M106 143q-3 23 3 62q2 16 7 31t9 22l4 8h662q6 -26 0 -61q-3 -16 -8.5 -31.5t-10.5 -23.5l-4 -7h-662zM182 616q-6 27 0 66q4 17 9.5 33t9.5 23l4 7h260l41 273q31 10 74 10q19 0 36.5 -2.5t25.5 -5.5l7 -2l-43 -273h260q6 -24 0 -63q-3 -17 -8.5 -33.5t-9.5 -24.5l-4 -8 h-260l-43 -270q-27 -10 -70 -10q-19 0 -37 2.5t-26 5.5l-9 2l43 270h-260z" />
<glyph unicode="&#xb2;" horiz-adv-x="602" d="M188 725l17 109q11 68 53 115t95 72t106 47.5t93 58t48 87.5l6 41q9 60 -12 86.5t-82 26.5q-36 0 -68.5 -11t-46.5 -23l-14 -11l-29 -88q-16 -2 -39 -2l-34 2q0 55 12 135q3 3 8.5 7.5t26.5 16.5t45.5 21.5t65 17t85.5 7.5q122 0 168.5 -46t32.5 -139l-8 -41 q-10 -69 -51.5 -115.5t-95 -71t-106.5 -46.5t-93.5 -58t-48.5 -89l-9 -46h269l28 74q9 4 25 4l27 -4q-11 -133 -23 -145h-242q-56 0 -108.5 2t-76.5 4z" />
<glyph unicode="&#xb3;" horiz-adv-x="591" d="M190 791q2 10 5.5 18.5t6.5 13l3 4.5q0 -1 8 -5.5t24.5 -11t37.5 -13t52 -11t64 -4.5q53 0 86 12t50 36.5t22 64.5l8 51q9 59 -18 85t-101 26h-78q-8 2 5 58q6 20 8 18l213 227h-224l-26 -72q-13 -4 -27 -4q-6 0 -11.5 1t-8.5 2l-2 1q-1 -6 -2 1q0 48 13 116q4 25 9 29 h420q8 0 -5 -54q-5 -18 -7 -18l-228 -236q122 0 162.5 -47.5t26.5 -132.5l-8 -51q-14 -91 -82 -137.5t-203 -46.5q-56 0 -103.5 10.5t-67.5 21.5l-19 11q-1 2 -1.5 4.5t-1.5 12.5t0 20z" />
<glyph unicode="&#xb4;" horiz-adv-x="454" d="M209 1165l244 262q49 11 102 11q22 0 46.5 -3t38.5 -5l13 -3l-313 -262q-35 -12 -68 -12q-16 0 -31.5 3t-23.5 6z" />
<glyph unicode="&#xb5;" horiz-adv-x="1132" d="M10 -203q2 12 5.5 22.5t6.5 15.5l3 5l143 25l162 1038l-135 25q-1 2 -1.5 5t-1.5 14.5t1 23.5q3 11 7 21.5t6 15.5l3 4q82 16 229 16q30 0 61.5 -2.5t47.5 -5.5l16 -2l-123 -793q2 -4 6.5 -11.5t22 -26t39.5 -33t62 -26t87 -11.5q92 0 136 48.5t59 156.5l90 581l-135 25 q-1 2 -1.5 5t-1.5 14.5t1 23.5q2 11 5.5 21.5t5.5 15.5l3 4q82 16 232 16q30 0 61.5 -2.5t47.5 -5.5l16 -2l-109 -696q-27 -166 -111 -249t-245 -83q-55 0 -105.5 11t-83 27t-57.5 32t-36 27l-11 11l-35 -233l135 -25q1 -2 1.5 -5t1.5 -14.5t-1 -23.5q-2 -11 -6 -21.5 t-7 -15.5l-3 -4q-88 -16 -250 -16q-71 0 -132 4t-86 8l-26 4q-4 16 0 41z" />
<glyph unicode="&#xb6;" horiz-adv-x="1017" d="M123 -104q3 17 8.5 33.5t9.5 24.5l4 7q11 -5 32 -13.5t88 -22t136 -13.5q110 0 161 48.5t69 156.5l47 313q-6 -10 -27 -26.5t-75.5 -36t-120.5 -19.5q-156 0 -212.5 83.5t-29.5 248.5l35 227q27 165 129.5 248.5t302.5 83.5q136 0 255.5 -5.5t171.5 -11.5l52 -5 q6 -16 0 -41q-1 -12 -5 -22.5t-8 -15.5l-3 -5l-142 -25l-155 -991q-27 -166 -133 -249t-316 -83q-76 0 -144 11.5t-98 23.5l-30 12q-1 3 -2 8t-2 22t2 34z" />
<glyph unicode="&#xb7;" horiz-adv-x="448" d="M190 461l37 219q52 12 105 12q24 0 49.5 -3t38.5 -6l14 -3l-35 -219q-55 -10 -106 -10q-24 0 -49.5 2.5t-39.5 4.5z" />
<glyph unicode="&#xb8;" horiz-adv-x="1036" d="M309 -285q2 11 6 21.5t7 15.5l4 4q44 -28 116 -28q53 0 79 17t32 56q3 21 -9.5 33t-32.5 19.5t-39 18t-29.5 36t-4.5 65.5l6 27h123l-8 -27q-3 -21 5.5 -36t23.5 -22t31.5 -16.5t30.5 -19t21.5 -29.5t2.5 -49q-11 -76 -67.5 -118.5t-153.5 -42.5q-44 0 -79.5 9t-49.5 18 l-13 9q-1 2 -1.5 5t-1.5 13.5t1 20.5z" />
<glyph unicode="&#xb9;" horiz-adv-x="491" d="M205 723q-8 3 2 37q4 10 6 10l104 14l89 568l-123 -31q-2 11 0 29q2 9 5 17t5 11l2 4l164 54l80 -4l-103 -648l107 -14v-25l-8 -22q-59 -8 -168 -8q-47 0 -87.5 2t-57.5 4z" />
<glyph unicode="&#xba;" horiz-adv-x="778" d="M242 942l41 266q19 117 98 175.5t235 58.5q157 0 218 -59t43 -175l-43 -266q-19 -117 -97.5 -175t-236.5 -58q-156 0 -216.5 58.5t-41.5 174.5zM401 942q-9 -73 16 -105t99 -32q75 0 112 32.5t48 104.5l41 266q11 73 -15.5 105.5t-101.5 32.5t-110 -32t-46 -106z" />
<glyph unicode="&#xbb;" horiz-adv-x="995" d="M115 262l327 291l-235 293q16 24 49 51q15 12 30.5 22t23.5 13l9 4l320 -383l-440 -383q-25 12 -52 39q-10 12 -18 25t-11 20zM481 262l328 291l-236 293q17 24 50 51q15 12 30.5 22t24.5 13l8 4l320 -383l-441 -383q-24 12 -51 39q-10 12 -18.5 25t-11.5 20z" />
<glyph unicode="&#xbc;" horiz-adv-x="1284" d="M125 6l1108 1421q37 11 78 11q18 0 36.5 -3t27.5 -5l9 -3l-1105 -1421q-41 -10 -80 -10q-17 0 -35.5 2.5t-28.5 5.5zM205 723q-8 3 2 37q4 10 6 10l104 14l89 568l-123 -31q-2 11 0 29q2 9 5 17t5 11l2 4l164 54l80 -4l-103 -648l107 -14v-25l-8 -22q-59 -8 -168 -8 q-47 0 -87.5 2t-57.5 4zM760 166q-2 15 0 35l260 514q20 4 55 4l60 -4l-238 -475h182l41 270q29 4 58 4l55 -4l-43 -270l59 -11l2 -30l-12 -29q-16 -6 -57 -6l-25 -162q-30 -4 -61 -4l-56 4l25 164h-305z" />
<glyph unicode="&#xbd;" horiz-adv-x="1312" d="M125 6l1108 1421q37 11 78 11q18 0 36.5 -3t27.5 -5l9 -3l-1105 -1421q-41 -10 -80 -10q-17 0 -35.5 2.5t-28.5 5.5zM205 723q-8 3 2 37q4 10 6 10l104 14l89 568l-123 -31q-2 11 0 29q2 9 5 17t5 11l2 4l164 54l80 -4l-103 -648l107 -14v-25l-8 -22q-59 -8 -168 -8 q-47 0 -87.5 2t-57.5 4zM803 8l16 109q10 58 42 101t73 66t88 45.5t87 40.5t70.5 51t37.5 77l4 41q11 59 -11 85.5t-84 26.5q-36 0 -68.5 -11.5t-46.5 -22.5l-14 -11l-30 -88q-12 -2 -35 -2l-37 2q0 55 12 135q3 3 9 7.5t27 16.5t46 21.5t65.5 17t84.5 7.5q123 0 169 -46 t31 -138l-6 -41q-9 -58 -41 -101t-73 -65.5t-88.5 -44.5t-87.5 -40t-70 -51.5t-37 -78.5l-8 -45h268l29 73q10 5 26 5l25 -5q1 6 1 -1q0 -51 -14 -119q-5 -21 -8 -25h-243q-56 0 -108 2t-76 4z" />
<glyph unicode="&#xbe;" horiz-adv-x="1329" d="M154 6l1106 1421q38 11 79 11q17 0 35.5 -3t28.5 -5l10 -3l-1108 -1421q-41 -10 -78 -10q-17 0 -35.5 2.5t-27.5 5.5zM190 791q2 10 5.5 18.5t6.5 13l3 4.5q0 -1 8 -5.5t24.5 -11t37.5 -13t52 -11t64 -4.5q53 0 86 12t50 36.5t22 64.5l8 51q9 59 -18 85t-101 26h-78 q-8 2 5 58q6 20 8 18l213 227h-224l-26 -72q-13 -4 -27 -4q-6 0 -11.5 1t-8.5 2l-2 1q-1 -6 -2 1q0 48 13 116q4 25 9 29h420q8 0 -5 -54q-5 -18 -7 -18l-228 -236q122 0 162.5 -47.5t26.5 -132.5l-8 -51q-14 -91 -82 -137.5t-203 -46.5q-56 0 -103.5 10.5t-67.5 21.5 l-19 11q-1 2 -1.5 4.5t-1.5 12.5t0 20zM807 166q-4 15 0 35l258 514q20 4 57 4q15 0 29.5 -1t21.5 -2l7 -1l-236 -475h180l43 270q27 4 56 4l55 -4l-43 -270l59 -11q7 -1 -1 -43q-4 -17 -7 -16q-18 -6 -59 -6l-25 -162q-30 -4 -59 -4l-56 4l23 164h-303z" />
<glyph unicode="&#xbf;" horiz-adv-x="1069" d="M96 -63l15 88q10 63 36 111t60.5 78t74 54.5t79 45.5t73.5 45t58.5 60t31.5 83l13 88q55 10 110 10q24 0 50 -2.5t41 -5.5l14 -2l-13 -88q-10 -63 -37 -112.5t-62 -79.5t-75 -54.5t-79.5 -45.5t-73.5 -44.5t-58.5 -59t-31.5 -81.5l-15 -88q-19 -120 26.5 -174t174.5 -54 q69 0 131 21t89 42l28 21l59 189q29 6 68 6q17 0 33.5 -1.5t23.5 -2.5l8 -2q-1 -109 -26 -265q-6 -6 -17 -15t-51 -32.5t-86 -41.5t-122.5 -33t-160.5 -15q-239 0 -329 89.5t-60 267.5zM567 799l35 221q58 10 113 10q24 0 50.5 -2.5t40.5 -5.5l15 -2l-35 -221 q-57 -11 -112 -11q-24 0 -51 3t-41 5z" />
<glyph unicode="&#xc0;" d="M35 57q1 6 3 11t3.5 9.5t3 8.5t3 7t3 5t1.5 3l1 1l144 21l538 1188l-141 20q-6 16 0 45q2 12 6 23t7 17l3 5q117 17 334 17q36 0 73.5 -3t56.5 -5l20 -3l180 -1304l141 -21q10 -1 -6 -65q-7 -26 -10 -25q-90 -16 -219 -16q-92 0 -166.5 4t-102.5 8l-28 4q-11 0 6 66 q7 26 10 24l158 21l-39 289h-477l-127 -289l153 -21q6 -18 0 -45q-2 -13 -5.5 -24t-5.5 -16l-3 -5q-96 -16 -301 -16q-58 0 -112 4t-78 8l-25 4q-1 2 -1.5 5.5t-1.5 15t1 24.5zM598 549h412l-95 715zM750 1804q53 13 102 13q23 0 47 -3.5t36 -6.5l13 -3l164 -262 q-33 -10 -70 -10q-7 0 -14 0.5t-13.5 1.5t-12 2t-10 2t-8 2t-5.5 1l-2 1z" />
<glyph unicode="&#xc1;" d="M35 57q1 6 3 11t3.5 9.5t3 8.5t3 7t3 5t1.5 3l1 1l144 21l538 1188l-141 20q-6 16 0 45q2 12 6 23t7 17l3 5q117 17 334 17q36 0 73.5 -3t56.5 -5l20 -3l180 -1304l141 -21q10 -1 -6 -65q-7 -26 -10 -25q-90 -16 -219 -16q-92 0 -166.5 4t-102.5 8l-28 4q-11 0 6 66 q7 26 10 24l158 21l-39 289h-477l-127 -289l153 -21q6 -18 0 -45q-2 -13 -5.5 -24t-5.5 -16l-3 -5q-96 -16 -301 -16q-58 0 -112 4t-78 8l-25 4q-1 2 -1.5 5.5t-1.5 15t1 24.5zM598 549h412l-95 715zM807 1542l246 262q47 13 100 13q22 0 46.5 -3.5t37.5 -6.5l14 -3 l-309 -262q-39 -10 -70 -10q-16 0 -32.5 2.5t-24.5 4.5z" />
<glyph unicode="&#xc2;" d="M35 57q1 6 3 11t3.5 9.5t3 8.5t3 7t3 5t1.5 3l1 1l144 21l538 1188l-141 20q-6 16 0 45q2 12 6 23t7 17l3 5q117 17 334 17q36 0 73.5 -3t56.5 -5l20 -3l180 -1304l141 -21q10 -1 -6 -65q-7 -26 -10 -25q-90 -16 -219 -16q-92 0 -166.5 4t-102.5 8l-28 4q-11 0 6 66 q7 26 10 24l158 21l-39 289h-477l-127 -289l153 -21q6 -18 0 -45q-2 -13 -5.5 -24t-5.5 -16l-3 -5q-96 -16 -301 -16q-58 0 -112 4t-78 8l-25 4q-1 2 -1.5 5.5t-1.5 15t1 24.5zM598 549h412l-95 715zM664 1542l239 252q49 10 96 10q22 0 45.5 -2.5t36.5 -5.5l13 -2l161 -252 q-32 -10 -69 -10q-14 0 -30 2.5t-25 4.5l-9 3l-137 168l-188 -168q-37 -10 -68 -10q-16 0 -32.5 2.5t-24.5 4.5z" />
<glyph unicode="&#xc3;" d="M35 57q1 6 3 11t3.5 9.5t3 8.5t3 7t3 5t1.5 3l1 1l144 21l538 1188l-141 20q-6 16 0 45q2 12 6 23t7 17l3 5q117 17 334 17q36 0 73.5 -3t56.5 -5l20 -3l180 -1304l141 -21q10 -1 -6 -65q-7 -26 -10 -25q-90 -16 -219 -16q-92 0 -166.5 4t-102.5 8l-28 4q-11 0 6 66 q7 26 10 24l158 21l-39 289h-477l-127 -289l153 -21q6 -18 0 -45q-2 -13 -5.5 -24t-5.5 -16l-3 -5q-96 -16 -301 -16q-58 0 -112 4t-78 8l-25 4q-1 2 -1.5 5.5t-1.5 15t1 24.5zM598 549h412l-95 715zM643 1542v10q16 98 60 144.5t135 46.5q34 0 61.5 -6.5t45.5 -16.5 t32.5 -22.5t26.5 -24.5t23.5 -22t26 -16.5t31.5 -6.5q21 0 36.5 4t26 11.5t18 21t12 28.5t8.5 38q30 12 63 12q13 0 27.5 -3t22.5 -6l8 -3l-2 -9q-8 -49 -20.5 -82.5t-35 -59t-56 -37t-81.5 -11.5q-46 0 -81 12t-54.5 28.5t-36 33.5t-35 29t-41.5 12q-50 0 -69 -23t-31 -82 q-33 -10 -64 -10q-14 0 -28 2.5t-22 4.5z" />
<glyph unicode="&#xc4;" d="M35 57q1 6 3 11t3.5 9.5t3 8.5t3 7t3 5t1.5 3l1 1l144 21l538 1188l-141 20q-6 16 0 45q2 12 6 23t7 17l3 5q117 17 334 17q36 0 73.5 -3t56.5 -5l20 -3l180 -1304l141 -21q10 -1 -6 -65q-7 -26 -10 -25q-90 -16 -219 -16q-92 0 -166.5 4t-102.5 8l-28 4q-11 0 6 66 q7 26 10 24l158 21l-39 289h-477l-127 -289l153 -21q6 -18 0 -45q-2 -13 -5.5 -24t-5.5 -16l-3 -5q-96 -16 -301 -16q-58 0 -112 4t-78 8l-25 4q-1 2 -1.5 5.5t-1.5 15t1 24.5zM598 549h412l-95 715zM664 1542l32 207q39 12 86 12q22 0 43.5 -3t31.5 -6l11 -3l-34 -207 q-39 -10 -86 -10q-22 0 -43 2.5t-31 4.5zM1085 1542l33 207q39 12 86 12q21 0 42 -3t31 -6l11 -3l-33 -207q-41 -10 -88 -10q-21 0 -41.5 2.5t-30.5 4.5z" />
<glyph unicode="&#xc5;" d="M35 57q1 6 3 11t3.5 9.5t3 8.5t3 7t3 5t1.5 3l1 1l144 21l538 1188l-141 20q-6 16 0 45q2 12 6 23t7 17l3 5q117 17 334 17q36 0 73.5 -3t56.5 -5l20 -3l180 -1304l141 -21q10 -1 -6 -65q-7 -26 -10 -25q-90 -16 -219 -16q-92 0 -166.5 4t-102.5 8l-28 4q-11 0 6 66 q7 26 10 24l158 21l-39 289h-477l-127 -289l153 -21q6 -18 0 -45q-2 -13 -5.5 -24t-5.5 -16l-3 -5q-96 -16 -301 -16q-58 0 -112 4t-78 8l-25 4q-1 2 -1.5 5.5t-1.5 15t1 24.5zM598 549h412l-95 715zM805 1663l6 33q11 67 59 105t136 38q89 0 124.5 -37.5t24.5 -105.5 l-4 -33q-11 -67 -59.5 -105t-137.5 -38q-87 0 -122.5 37.5t-26.5 105.5zM895 1663q-6 -36 10.5 -54t61.5 -18q30 0 50 8.5t30.5 24t13.5 39.5l6 33q5 36 -12 52.5t-62 16.5q-44 0 -66 -16.5t-28 -52.5z" />
<glyph unicode="&#xc6;" horiz-adv-x="1601" d="M35 57q1 6 3 11t3.5 9.5t3 8.5t3 7t3 5t1.5 3l1 1l142 21l538 1190l-139 18q-6 16 0 45q2 12 6 23t7 17l3 5q273 13 776 13h359q4 -38 -10 -117t-29 -139l-16 -60q-21 -8 -50 -8q-12 0 -23 2t-15 4l-5 2l-12 176h-414l-73 -487h483q4 -29 0 -70q-4 -18 -9.5 -35.5 t-8.5 -25.5l-4 -8h-484l-82 -531h424l66 178q20 9 47 9q13 0 24 -2.5t16 -4.5l5 -2q3 14 2 -1q-3 -91 -26 -228q-11 -72 -21 -86h-369q-142 0 -279 3t-204 6l-66 3q-4 16 0 45q3 12 7 23t7 16l3 6l137 21l43 289h-268l-127 -289l125 -21q6 -18 0 -45q-3 -13 -7 -24t-7 -16 l-3 -5q-92 -16 -272 -16q-63 0 -116 4t-75 8l-22 4q-1 2 -1.5 5.5t-1.5 15t1 24.5zM600 549h234l112 745h-16z" />
<glyph unicode="&#xc7;" horiz-adv-x="1161" d="M166 344l117 743q27 177 156.5 267t389.5 90q91 0 169 -14t124 -34t79 -40.5t46 -34.5l13 -14q-11 -68 -26 -134t-24 -97l-10 -32q-28 -8 -67 -8q-17 0 -33 2t-24 4l-7 2l-2 179q-3 3 -9.5 9t-30 20.5t-51 25.5t-73.5 20t-96 9q-149 0 -215 -51.5t-84 -168.5l-117 -743 q-18 -116 38 -166.5t218 -50.5q71 0 140.5 9t118.5 22t88 26.5t58 22.5t19 10l1 -3q1 -4 2 -10t1.5 -14.5t0 -20t-2.5 -24.5q-3 -19 -9.5 -37t-11.5 -26l-5 -8q-6 -3 -18 -8.5t-52 -19t-83 -24.5t-110.5 -20.5t-136.5 -11.5l-4 -17q-3 -21 5.5 -36t23.5 -22t31.5 -16.5 t30.5 -19t21.5 -29.5t2.5 -49q-11 -76 -67 -118.5t-154 -42.5q-44 0 -79.5 9t-49.5 18l-13 9q-1 2 -1.5 5t-1.5 13.5t1 20.5q2 11 6 21.5t7 15.5l4 4q44 -28 116 -28q53 0 79 17t32 56q3 21 -9.5 33t-32 19.5t-38.5 18t-29 36t-4 65.5l4 21q-219 13 -304 102t-58 248z" />
<glyph unicode="&#xc8;" horiz-adv-x="1118" d="M55 12q-6 16 0 45q3 12 7 23.5t7 16.5l3 5l157 21l185 1188l-150 20q-6 16 0 45q2 12 5.5 23t6.5 17l3 5q236 13 571 13h412q5 -39 -8.5 -118t-29.5 -138l-16 -60q-20 -8 -49 -8q-12 0 -22.5 2t-15.5 4l-5 2l-12 176h-467l-74 -487h481q6 -29 0 -70q-4 -18 -9.5 -35.5 t-8.5 -25.5l-4 -8h-483l-80 -531h477l63 178q21 9 48 9q14 0 25 -2t16 -4l4 -3q4 -67 -21 -231q-4 -22 -10 -43t-10 -31l-4 -10h-422q-149 0 -291.5 3t-210.5 6zM674 1804q53 13 102 13q24 0 48.5 -3.5t37.5 -6.5l12 -3l160 -262q-32 -10 -67 -10q-15 0 -31.5 2.5t-25.5 5.5 l-9 2z" />
<glyph unicode="&#xc9;" horiz-adv-x="1118" d="M55 12q-6 16 0 45q3 12 7 23.5t7 16.5l3 5l157 21l185 1188l-150 20q-6 16 0 45q2 12 5.5 23t6.5 17l3 5q236 13 571 13h412q5 -39 -8.5 -118t-29.5 -138l-16 -60q-20 -8 -49 -8q-12 0 -22.5 2t-15.5 4l-5 2l-12 176h-467l-74 -487h481q6 -29 0 -70q-4 -18 -9.5 -35.5 t-8.5 -25.5l-4 -8h-483l-80 -531h477l63 178q21 9 48 9q14 0 25 -2t16 -4l4 -3q4 -67 -21 -231q-4 -22 -10 -43t-10 -31l-4 -10h-422q-149 0 -291.5 3t-210.5 6zM723 1542l244 262q49 13 100 13q23 0 48 -3.5t39 -6.5l13 -3l-311 -262q-37 -10 -68 -10q-16 0 -32.5 2.5 t-24.5 5.5z" />
<glyph unicode="&#xca;" horiz-adv-x="1118" d="M55 12q-6 16 0 45q3 12 7 23.5t7 16.5l3 5l157 21l185 1188l-150 20q-6 16 0 45q2 12 5.5 23t6.5 17l3 5q236 13 571 13h412q5 -39 -8.5 -118t-29.5 -138l-16 -60q-20 -8 -49 -8q-12 0 -22.5 2t-15.5 4l-5 2l-12 176h-467l-74 -487h481q6 -29 0 -70q-4 -18 -9.5 -35.5 t-8.5 -25.5l-4 -8h-483l-80 -531h477l63 178q21 9 48 9q14 0 25 -2t16 -4l4 -3q4 -67 -21 -231q-4 -22 -10 -43t-10 -31l-4 -10h-422q-149 0 -291.5 3t-210.5 6zM584 1542l239 252q50 10 97 10q22 0 45.5 -2.5t36.5 -5.5l12 -2l160 -252q-33 -10 -68 -10q-14 0 -30 2.5 t-25 5.5l-9 2l-137 168l-188 -168q-37 -10 -70 -10q-16 0 -31.5 2.5t-23.5 5.5z" />
<glyph unicode="&#xcb;" horiz-adv-x="1118" d="M55 12q-6 16 0 45q3 12 7 23.5t7 16.5l3 5l157 21l185 1188l-150 20q-6 16 0 45q2 12 5.5 23t6.5 17l3 5q236 13 571 13h412q5 -39 -8.5 -118t-29.5 -138l-16 -60q-20 -8 -49 -8q-12 0 -22.5 2t-15.5 4l-5 2l-12 176h-467l-74 -487h481q6 -29 0 -70q-4 -18 -9.5 -35.5 t-8.5 -25.5l-4 -8h-483l-80 -531h477l63 178q21 9 48 9q14 0 25 -2t16 -4l4 -3q4 -67 -21 -231q-4 -22 -10 -43t-10 -31l-4 -10h-422q-149 0 -291.5 3t-210.5 6zM582 1542l32 207q39 12 88 12q21 0 42 -3t32 -6l10 -3l-32 -207q-41 -10 -88 -10q-21 0 -42 2.5t-32 5.5z M1006 1542l32 207q39 12 86 12q21 0 42 -3t32 -6l10 -3l-32 -207q-42 -10 -89 -10q-21 0 -41 2.5t-30 5.5z" />
<glyph unicode="&#xcc;" horiz-adv-x="645" d="M55 12q-6 16 0 45q3 12 7 23.5t7 16.5l3 5l157 21l185 1188l-150 20q-6 16 0 45q2 12 5.5 23t6.5 17l3 5q96 17 270 17q78 0 144 -4t93 -8l27 -5q1 -2 1.5 -5.5t1.5 -15.5t-1 -24q-3 -13 -7.5 -24t-7.5 -16l-3 -5l-156 -20l-184 -1188l149 -21q6 -18 0 -45q-2 -13 -6 -24 t-7 -16l-3 -5q-95 -16 -271 -16q-77 0 -143 4t-94 8zM356 1804q54 13 103 13q23 0 47 -3.5t36 -6.5l13 -3l164 -262q-35 -10 -70 -10q-15 0 -31 2.5t-25 5.5l-9 2z" />
<glyph unicode="&#xcd;" horiz-adv-x="645" d="M55 12q-6 16 0 45q3 12 7 23.5t7 16.5l3 5l157 21l185 1188l-150 20q-6 16 0 45q2 12 5.5 23t6.5 17l3 5q96 17 270 17q78 0 144 -4t93 -8l27 -5q1 -2 1.5 -5.5t1.5 -15.5t-1 -24q-3 -13 -7.5 -24t-7.5 -16l-3 -5l-156 -20l-184 -1188l149 -21q6 -18 0 -45q-2 -13 -6 -24 t-7 -16l-3 -5q-95 -16 -271 -16q-77 0 -143 4t-94 8zM414 1542l245 262q48 13 101 13q22 0 46.5 -3.5t37.5 -6.5l14 -3l-311 -262q-37 -10 -68 -10q-16 0 -32.5 2.5t-24.5 5.5z" />
<glyph unicode="&#xce;" horiz-adv-x="686" d="M76 12q-6 16 0 45q2 12 6 23.5t7 16.5l3 5l158 21l184 1188l-151 20q-4 16 0 45q3 12 7 23t6 17l3 5q96 17 270 17q78 0 144.5 -4t93.5 -8l27 -5q1 -2 1.5 -5.5t1.5 -15.5t-1 -24q-3 -13 -7.5 -24t-8.5 -16l-3 -5l-155 -20l-187 -1188l152 -21q6 -18 0 -45q-3 -13 -7 -24 t-7 -16l-3 -5q-94 -16 -270 -16q-77 0 -143 4t-93 8zM291 1542l239 252q50 10 97 10q22 0 45.5 -2.5t35.5 -5.5l13 -2l162 -252q-33 -10 -70 -10q-14 0 -29.5 2.5t-24.5 5.5l-9 2l-138 168l-188 -168q-37 -10 -70 -10q-16 0 -31.5 2.5t-23.5 5.5z" />
<glyph unicode="&#xcf;" horiz-adv-x="645" d="M55 12q-6 16 0 45q3 12 7 23.5t7 16.5l3 5l157 21l185 1188l-150 20q-6 16 0 45q2 12 5.5 23t6.5 17l3 5q96 17 270 17q78 0 144 -4t93 -8l27 -5q1 -2 1.5 -5.5t1.5 -15.5t-1 -24q-3 -13 -7.5 -24t-7.5 -16l-3 -5l-156 -20l-184 -1188l149 -21q6 -18 0 -45q-2 -13 -6 -24 t-7 -16l-3 -5q-95 -16 -271 -16q-77 0 -143 4t-94 8zM299 1542l33 207q39 10 86 10q22 0 43.5 -2.5t32.5 -4.5l10 -3l-33 -207q-41 -10 -88 -10q-22 0 -43 2.5t-31 5.5zM662 1542l32 207q39 10 88 10q21 0 42 -2.5t32 -4.5l10 -3l-32 -207q-42 -10 -89 -10q-21 0 -41.5 2.5 t-31.5 5.5z" />
<glyph unicode="&#xd0;" horiz-adv-x="1284" d="M55 10q-6 18 0 45q2 13 6 24.5t7 16.5l4 6l157 21l84 551l-149 20q-6 16 0 45q2 12 5.5 23.5t6.5 16.5l2 5q54 9 158 13l78 514l-150 20q-6 18 0 47q2 12 5.5 23t6.5 17l3 5q195 19 620 19q264 0 368.5 -89.5t75.5 -265.5l-116 -743q-29 -175 -161 -263.5t-396 -88.5 q-190 0 -344 4.5t-212 9.5zM457 129h235q151 0 221 50.5t88 164.5l117 743q18 116 -36 167t-205 51h-238l-78 -504h260q1 -3 1.5 -8t1.5 -22t-1 -34q-4 -17 -9.5 -33t-9.5 -23l-3 -7h-260z" />
<glyph unicode="&#xd1;" horiz-adv-x="1425" d="M55 12q-6 16 0 45q3 12 7 23.5t7 16.5l3 5l157 21l185 1188l-150 20q-6 16 0 45q2 12 5.5 23t6.5 17l3 5q89 17 253 17q22 0 45.5 -3t36.5 -5l13 -3l440 -1044l139 928l-151 20q-6 16 0 45q2 12 6 23t7 17l3 5q94 17 264 17q76 0 140.5 -4t90.5 -8l27 -5q1 -2 1.5 -5.5 t1.5 -15.5t-1 -24q-3 -13 -7.5 -24t-7.5 -16l-3 -5l-156 -20l-204 -1305q-50 -10 -99 -10q-22 0 -46 2.5t-37 5.5l-13 2l-438 1045l-140 -928l152 -21q4 -18 0 -45q-3 -13 -7 -24t-7 -16l-2 -5q-97 -16 -267 -16q-75 0 -139.5 4t-91.5 8zM639 1542v10q16 98 60 144.5 t135 46.5q56 0 96 -18t57.5 -39.5t41 -39.5t50.5 -18q48 0 70 20.5t31 71.5v11q32 12 65 12q13 0 27.5 -3t22.5 -6l8 -3l-3 -9q-16 -99 -57.5 -144.5t-134.5 -45.5q-46 0 -81 12t-55 29t-36.5 33.5t-35 28.5t-40.5 12q-47 0 -69.5 -22t-30.5 -73v-10q-33 -10 -64 -10 q-14 0 -28 2.5t-22 5.5z" />
<glyph unicode="&#xd2;" horiz-adv-x="1224" d="M166 344l117 743q27 176 160.5 266.5t396.5 90.5t367 -90.5t75 -266.5l-115 -743q-29 -175 -162.5 -264.5t-396.5 -89.5q-262 0 -366.5 89.5t-75.5 264.5zM391 344q-18 -115 36.5 -166t205.5 -51t220.5 51t88.5 166l115 743q19 116 -35 168t-205 52t-221 -52t-88 -168z M645 1804q54 13 105 13q23 0 47 -3.5t37 -6.5l12 -3l162 -262q-33 -10 -70 -10q-14 0 -30 2.5t-25 5.5l-9 2z" />
<glyph unicode="&#xd3;" horiz-adv-x="1224" d="M166 344l117 743q27 176 160.5 266.5t396.5 90.5t367 -90.5t75 -266.5l-115 -743q-29 -175 -162.5 -264.5t-396.5 -89.5q-262 0 -366.5 89.5t-75.5 264.5zM391 344q-18 -115 36.5 -166t205.5 -51t220.5 51t88.5 166l115 743q19 116 -35 168t-205 52t-221 -52t-88 -168z M705 1542l243 262q50 13 101 13q23 0 48 -3.5t39 -6.5l13 -3l-311 -262q-37 -10 -70 -10q-16 0 -31.5 2.5t-23.5 5.5z" />
<glyph unicode="&#xd4;" horiz-adv-x="1224" d="M166 344l117 743q27 176 160.5 266.5t396.5 90.5t367 -90.5t75 -266.5l-115 -743q-29 -175 -162.5 -264.5t-396.5 -89.5q-262 0 -366.5 89.5t-75.5 264.5zM391 344q-18 -115 36.5 -166t205.5 -51t220.5 51t88.5 166l115 743q19 116 -35 168t-205 52t-221 -52t-88 -168z M559 1542l242 252q47 10 96 10q21 0 44 -2.5t35 -5.5l13 -2l162 -252q-33 -10 -68 -10q-15 0 -31 2.5t-25 5.5l-9 2l-137 168l-189 -168q-36 -10 -67 -10q-16 0 -32.5 2.5t-24.5 5.5z" />
<glyph unicode="&#xd5;" horiz-adv-x="1224" d="M166 344l117 743q27 176 160.5 266.5t396.5 90.5t367 -90.5t75 -266.5l-115 -743q-29 -175 -162.5 -264.5t-396.5 -89.5q-262 0 -366.5 89.5t-75.5 264.5zM391 344q-18 -115 36.5 -166t205.5 -51t220.5 51t88.5 166l115 743q19 116 -35 168t-205 52t-221 -52t-88 -168z M539 1542v10q16 98 60 144.5t134 46.5q46 0 80.5 -12t54.5 -28.5t36 -33.5t35 -29t42 -12q50 0 70 23t30 80q31 12 64 12q14 0 28 -3t21 -6l8 -3v-9q-16 -99 -58.5 -144.5t-135.5 -45.5q-56 0 -96 18t-58 39.5t-42 39.5t-50 18q-49 0 -70.5 -21.5t-29.5 -73.5v-10 q-33 -10 -64 -10q-14 0 -28.5 2.5t-22.5 5.5z" />
<glyph unicode="&#xd6;" horiz-adv-x="1224" d="M166 344l117 743q27 176 160.5 266.5t396.5 90.5t367 -90.5t75 -266.5l-115 -743q-29 -175 -162.5 -264.5t-396.5 -89.5q-262 0 -366.5 89.5t-75.5 264.5zM391 344q-18 -115 36.5 -166t205.5 -51t220.5 51t88.5 166l115 743q19 116 -35 168t-205 52t-221 -52t-88 -168z M559 1542l33 207q39 10 86 10q22 0 43.5 -2.5t32.5 -4.5l10 -3l-33 -207q-41 -10 -88 -10q-22 0 -43 2.5t-31 5.5zM981 1542l33 207q39 10 88 10q21 0 42 -2.5t32 -4.5l10 -3l-33 -207q-41 -10 -88 -10q-21 0 -42 2.5t-31 5.5z" />
<glyph unicode="&#xd7;" horiz-adv-x="837" d="M131 358l285 256l-207 258q18 25 51 52q15 12 31 21.5t25 13.5l8 4l204 -258l289 258q24 -12 49 -39q11 -12 19.5 -25t10.5 -20l3 -7l-287 -258l207 -256q-16 -24 -51 -53q-15 -12 -30.5 -21t-23.5 -12l-9 -4l-205 256l-287 -256q-24 10 -49 37q-11 12 -19.5 25.5 t-10.5 20.5z" />
<glyph unicode="&#xd8;" horiz-adv-x="1290" d="M113 6l108 139q-42 77 -20 199l114 743q29 176 163 266.5t396 90.5q204 0 322 -62l35 45q43 11 88 11q20 0 41.5 -3t33.5 -5l11 -3l-111 -139q42 -79 23 -201l-117 -743q-29 -175 -162 -264.5t-395 -89.5q-218 0 -324 59l-32 -43q-47 -10 -90 -10q-20 0 -41 2.5t-32 5.5z M424 401l657 836q-53 74 -231 74q-155 0 -228 -53t-92 -171q-79 -510 -106 -686zM434 195q51 -72 232 -72q157 0 229.5 51.5t91.5 169.5l105 686z" />
<glyph unicode="&#xd9;" horiz-adv-x="1404" d="M264 344l150 967l-150 20q-6 16 0 45q2 12 5.5 23t6.5 17l3 5q96 17 270 17q74 0 136 -4t87 -8l25 -5q1 -2 1.5 -5.5t1.5 -15.5t-1 -24q-3 -13 -7 -24t-7 -16l-3 -5l-141 -20l-152 -967q-18 -115 34.5 -166t199.5 -51t216 51t87 166l150 967l-136 20q-4 16 0 45 q2 12 6 23t8 17l3 5q88 17 254 17q77 0 143 -4t94 -8l27 -5q6 -18 0 -45q-2 -13 -6 -24t-7 -16l-3 -5l-158 -20l-150 -967q-29 -175 -160.5 -264.5t-390.5 -89.5t-362 89.5t-74 264.5zM737 1804q54 13 103 13q24 0 48.5 -3.5t37.5 -6.5l12 -3l160 -262q-33 -10 -68 -10 q-15 0 -30.5 2.5t-23.5 5.5l-9 2z" />
<glyph unicode="&#xda;" horiz-adv-x="1404" d="M264 344l150 967l-150 20q-6 16 0 45q2 12 5.5 23t6.5 17l3 5q96 17 270 17q74 0 136 -4t87 -8l25 -5q1 -2 1.5 -5.5t1.5 -15.5t-1 -24q-3 -13 -7 -24t-7 -16l-3 -5l-141 -20l-152 -967q-18 -115 34.5 -166t199.5 -51t216 51t87 166l150 967l-136 20q-4 16 0 45 q2 12 6 23t8 17l3 5q88 17 254 17q77 0 143 -4t94 -8l27 -5q6 -18 0 -45q-2 -13 -6 -24t-7 -16l-3 -5l-158 -20l-150 -967q-29 -175 -160.5 -264.5t-390.5 -89.5t-362 89.5t-74 264.5zM795 1542l243 262q52 13 103 13q22 0 46.5 -3.5t38.5 -6.5l13 -3l-311 -262 q-37 -10 -68 -10q-16 0 -32.5 2.5t-24.5 5.5z" />
<glyph unicode="&#xdb;" horiz-adv-x="1404" d="M264 344l150 967l-150 20q-6 16 0 45q2 12 5.5 23t6.5 17l3 5q96 17 270 17q74 0 136 -4t87 -8l25 -5q1 -2 1.5 -5.5t1.5 -15.5t-1 -24q-3 -13 -7 -24t-7 -16l-3 -5l-141 -20l-152 -967q-18 -115 34.5 -166t199.5 -51t216 51t87 166l150 967l-136 20q-4 16 0 45 q2 12 6 23t8 17l3 5q88 17 254 17q77 0 143 -4t94 -8l27 -5q6 -18 0 -45q-2 -13 -6 -24t-7 -16l-3 -5l-158 -20l-150 -967q-29 -175 -160.5 -264.5t-390.5 -89.5t-362 89.5t-74 264.5zM651 1542l240 252q49 10 98 10q21 0 44 -2.5t35 -5.5l13 -2l162 -252q-32 -10 -69 -10 q-14 0 -30 2.5t-25 5.5l-9 2l-137 168l-189 -168q-36 -10 -69 -10q-16 0 -32 2.5t-24 5.5z" />
<glyph unicode="&#xdc;" horiz-adv-x="1404" d="M264 344l150 967l-150 20q-6 16 0 45q2 12 5.5 23t6.5 17l3 5q96 17 270 17q74 0 136 -4t87 -8l25 -5q1 -2 1.5 -5.5t1.5 -15.5t-1 -24q-3 -13 -7 -24t-7 -16l-3 -5l-141 -20l-152 -967q-18 -115 34.5 -166t199.5 -51t216 51t87 166l150 967l-136 20q-4 16 0 45 q2 12 6 23t8 17l3 5q88 17 254 17q77 0 143 -4t94 -8l27 -5q6 -18 0 -45q-2 -13 -6 -24t-7 -16l-3 -5l-158 -20l-150 -967q-29 -175 -160.5 -264.5t-390.5 -89.5t-362 89.5t-74 264.5zM651 1542l33 207q39 10 86 10q21 0 42 -2.5t32 -4.5l10 -3l-33 -207q-41 -10 -88 -10 q-21 0 -41.5 2.5t-30.5 5.5zM1073 1542l33 207q39 10 86 10q21 0 42 -2.5t32 -4.5l10 -3l-33 -207q-41 -10 -88 -10q-21 0 -41.5 2.5t-30.5 5.5z" />
<glyph unicode="&#xdd;" horiz-adv-x="1347" d="M244 1331q-6 16 0 45q2 12 6 23t7 17l3 5q94 17 219 17q93 0 167 -4t102 -8l28 -5q1 -2 1.5 -5.5t1.5 -15.5t-1 -24q-3 -13 -7 -24t-7 -16l-2 -5l-135 -18l170 -549l336 549l-129 18q-6 16 0 45q2 12 6 23t7 17l3 5q94 17 305 17q55 0 108 -4t79 -8l26 -5q4 -18 0 -45 q-3 -13 -7 -24t-7 -16l-2 -5l-160 -20l-485 -729l-70 -459l151 -21q4 -18 0 -45q-3 -13 -7 -24t-7 -16l-2 -5q-96 -16 -270 -16q-77 0 -143 4t-93 8l-28 4q-6 16 0 45q2 12 6 23.5t7 16.5l3 5l158 21l69 459l-256 729zM766 1542l244 262q49 13 102 13q22 0 46.5 -3.5 t37.5 -6.5l14 -3l-311 -262q-37 -10 -70 -10q-16 0 -31.5 2.5t-23.5 5.5z" />
<glyph unicode="&#xde;" horiz-adv-x="1167" d="M55 12q-6 16 0 45q3 12 7 23.5t7 16.5l3 5l157 21l185 1188l-150 20q-6 16 0 45q2 12 5.5 23t6.5 17l3 5q96 17 270 17q78 0 144 -4t93 -8l27 -5q1 -2 1.5 -5.5t1.5 -15.5t-1 -24q-3 -13 -7.5 -24t-7.5 -16l-3 -5l-156 -20l-25 -164q80 6 199 6q228 0 316 -88t59 -264 l-16 -125q-30 -176 -147.5 -265t-346.5 -89q-53 0 -101.5 2t-70.5 4l-23 2l-28 -207l149 -21q6 -18 0 -45q-2 -13 -6 -24t-7 -16l-3 -5q-95 -16 -271 -16q-77 0 -143 4t-94 8zM508 459h188q120 0 176 50.5t74 166.5l19 125q19 114 -22 165.5t-159 51.5h-190z" />
<glyph unicode="&#xdf;" horiz-adv-x="1378" d="M-90 -336q3 15 8 30t8 22l4 8q34 -17 97 -17q67 0 100 36t45 116l162 1042l-135 25q-1 2 -1.5 5.5t-1.5 15t1 22.5t6 21.5t7 15.5l3 4q51 14 141 14l17 115q26 152 127.5 228.5t300.5 76.5q203 0 279.5 -76t49.5 -229l-4 -33q-8 -49 -23.5 -86.5t-34.5 -60t-41 -40.5 t-43.5 -33t-40 -31t-32 -40.5t-18.5 -56.5l-4 -31q-5 -32 12.5 -57t50.5 -40t75 -31t87 -29.5t86.5 -36t72 -49t45 -70.5t5.5 -99l-6 -41q-23 -142 -122 -214t-298 -72q-60 0 -115.5 9t-92 21.5t-64.5 25t-41 21.5l-13 9q11 67 25.5 129.5t23.5 91.5l9 29q26 8 63 8 q16 0 31 -2t22 -4l7 -2l4 -158q65 -49 164 -49q88 0 129 37.5t55 119.5l6 41q5 34 -12.5 60.5t-50 42.5t-74.5 32t-86.5 29t-86 34.5t-72.5 47.5t-45.5 68.5t-6.5 97.5l4 31q9 55 28.5 95t42.5 60.5t49.5 40.5t48.5 36t40 46t24 70l4 33q12 84 -19 120.5t-124 36.5 q-90 0 -131.5 -38t-54.5 -119l-201 -1280q-23 -139 -95 -209t-210 -70q-82 0 -170 25q-6 26 0 59z" />
<glyph unicode="&#xe0;" horiz-adv-x="1099" d="M162 322l59 380q27 166 122 249t280 83q59 0 105 -9.5t70.5 -23t40.5 -27t21 -22.5l4 -10l10 76q56 10 109 10q24 0 51 -2.5t42 -5.5l14 -2l-123 -787q-10 -65 3.5 -88.5t59.5 -23.5q21 0 53 8q4 -26 0 -57q-2 -14 -7 -28t-9 -21l-4 -7q-75 -24 -139 -24q-92 0 -127 29 t-35 90q-6 -5 -17 -13t-47 -28.5t-74.5 -36t-97.5 -28.5t-118 -13q-158 0 -215 83.5t-31 248.5zM377 322q-16 -109 11.5 -157t115.5 -48q46 0 88.5 11t70 26.5t48.5 31t30 26.5l9 11l75 479q15 107 -25 156t-155 49q-98 0 -144.5 -48.5t-64.5 -156.5zM481 1427q56 11 105 11 q23 0 47 -3t37 -5l12 -3l162 -262q-33 -12 -70 -12q-15 0 -31 3t-25 6l-9 3z" />
<glyph unicode="&#xe1;" horiz-adv-x="1099" d="M162 322l59 380q27 166 122 249t280 83q56 0 101 -9.5t69 -20.5t42 -27t21.5 -22t7.5 -13l10 76q56 10 109 10q24 0 51 -2.5t42 -5.5l14 -2l-123 -787q-10 -65 3.5 -88.5t59.5 -23.5q21 0 53 8q4 -26 0 -57q-2 -14 -7 -28t-9 -21l-4 -7q-75 -24 -139 -24q-92 0 -127 29 t-35 90q-6 -5 -17 -13t-47 -28.5t-74.5 -36t-97.5 -28.5t-118 -13q-158 0 -215 83.5t-31 248.5zM377 322q-16 -109 11.5 -157t115.5 -48q46 0 88.5 11t70 26.5t48.5 31t30 26.5l9 11l75 479q15 107 -25 156t-155 49q-98 0 -144.5 -48.5t-64.5 -156.5zM539 1165l245 262 q50 11 101 11q23 0 48 -3t39 -5l13 -3l-311 -262q-39 -12 -70 -12q-16 0 -32.5 3t-24.5 6z" />
<glyph unicode="&#xe2;" horiz-adv-x="1099" d="M162 322l59 380q27 166 122 249t280 83q59 0 105 -9.5t70.5 -23t40.5 -27t21 -22.5l4 -10l10 76q56 10 109 10q24 0 51 -2.5t42 -5.5l14 -2l-123 -787q-10 -65 3.5 -88.5t59.5 -23.5q21 0 53 8q4 -26 0 -57q-2 -14 -7 -28t-9 -21l-4 -7q-75 -24 -139 -24q-92 0 -127 29 t-35 90q-6 -5 -17 -13t-47 -28.5t-74.5 -36t-97.5 -28.5t-118 -13q-158 0 -215 83.5t-31 248.5zM377 322q-16 -109 11.5 -157t115.5 -48q46 0 88.5 11t70 26.5t48.5 31t30 26.5l9 11l75 479q15 107 -25 156t-155 49q-98 0 -144.5 -48.5t-64.5 -156.5zM395 1176l244 251 q47 11 96 11q21 0 44 -3t35 -5l13 -3l160 -251q-30 -11 -67 -11q-14 0 -30 2.5t-25 5.5l-9 3l-137 167l-191 -167q-34 -11 -65 -11q-16 0 -33 2.5t-26 5.5z" />
<glyph unicode="&#xe3;" horiz-adv-x="1099" d="M162 322l59 380q27 166 122 249t280 83q59 0 105 -9.5t70.5 -23t40.5 -27t21 -22.5l4 -10l10 76q56 10 109 10q24 0 51 -2.5t42 -5.5l14 -2l-123 -787q-10 -65 3.5 -88.5t59.5 -23.5q21 0 53 8q4 -26 0 -57q-2 -14 -7 -28t-9 -21l-4 -7q-75 -24 -139 -24q-92 0 -127 29 t-35 90q-6 -5 -17 -13t-47 -28.5t-74.5 -36t-97.5 -28.5t-118 -13q-158 0 -215 83.5t-31 248.5zM377 322q-16 -109 11.5 -157t115.5 -48q46 0 88.5 11t70 26.5t48.5 31t30 26.5l9 11l75 479q15 107 -25 156t-155 49q-98 0 -144.5 -48.5t-64.5 -156.5zM385 1237l2 8 q16 98 60 144.5t135 46.5q46 0 80.5 -12t53.5 -29t34.5 -33.5t34.5 -28.5t42 -12q50 0 70 23.5t31 80.5q32 11 65 11q13 0 27 -3t22 -5l7 -3v-10q-16 -99 -59 -144.5t-136 -45.5q-56 0 -96.5 18t-58.5 39t-42.5 39t-50.5 18q-50 0 -69.5 -22.5t-30.5 -79.5q-31 -12 -62 -12 q-14 0 -28.5 3t-22.5 6z" />
<glyph unicode="&#xe4;" horiz-adv-x="1099" d="M162 322l59 380q27 166 122 249t280 83q59 0 105 -9.5t70.5 -23t40.5 -27t21 -22.5l4 -10l10 76q56 10 109 10q24 0 51 -2.5t42 -5.5l14 -2l-123 -787q-10 -65 3.5 -88.5t59.5 -23.5q21 0 53 8q4 -26 0 -57q-2 -14 -7 -28t-9 -21l-4 -7q-75 -24 -139 -24q-92 0 -127 29 t-35 90q-6 -5 -17 -13t-47 -28.5t-74.5 -36t-97.5 -28.5t-118 -13q-158 0 -215 83.5t-31 248.5zM377 322q-16 -109 11.5 -157t115.5 -48q46 0 88.5 11t70 26.5t48.5 31t30 26.5l9 11l75 479q15 107 -25 156t-155 49q-98 0 -144.5 -48.5t-64.5 -156.5zM403 1221l33 206 q41 11 88 11q22 0 43 -3t31 -5l10 -3l-33 -206q-41 -11 -88 -11q-21 0 -42 3t-31 5zM825 1221l33 206q41 11 88 11q21 0 42 -3t32 -5l10 -3l-33 -206q-41 -11 -88 -11q-22 0 -43 3t-31 5z" />
<glyph unicode="&#xe5;" horiz-adv-x="1099" d="M162 322l59 380q27 166 122 249t280 83q59 0 105 -9.5t70.5 -23t40.5 -27t21 -22.5l4 -10l10 76q56 10 109 10q24 0 51 -2.5t42 -5.5l14 -2l-123 -787q-10 -65 3.5 -88.5t59.5 -23.5q21 0 53 8q4 -26 0 -57q-2 -14 -7 -28t-9 -21l-4 -7q-75 -24 -139 -24q-92 0 -127 29 t-35 90q-6 -5 -17 -13t-47 -28.5t-74.5 -36t-97.5 -28.5t-118 -13q-158 0 -215 83.5t-31 248.5zM377 322q-16 -109 11.5 -157t115.5 -48q46 0 88.5 11t70 26.5t48.5 31t30 26.5l9 11l75 479q15 107 -25 156t-155 49q-98 0 -144.5 -48.5t-64.5 -156.5zM535 1264l6 32 q9 67 57.5 105.5t136.5 38.5q89 0 125 -38t25 -106l-4 -32q-11 -68 -59.5 -106t-135.5 -38q-89 0 -125.5 38.5t-25.5 105.5zM625 1264q-6 -36 10 -53t61 -17t67 17t28 53l6 32q5 36 -12 53t-62 17t-67 -17t-27 -53z" />
<glyph unicode="&#xe6;" horiz-adv-x="1603" d="M137 270l6 31q19 125 115 192.5t295 90.5l242 26l16 107q15 100 -24 145t-154 45t-199 -51l-53 -158q-27 -6 -62 -6q-16 0 -31 1.5t-22 2.5l-6 2q-2 100 23 252q6 3 17 9t48 20.5t77.5 25.5t102.5 20t125 9q242 0 299 -135q91 135 316 135q112 0 185.5 -22t110.5 -64 t47.5 -104t-3.5 -142l-39 -233q-107 -20 -295 -20h-291l-18 -127q-18 -109 25.5 -157t172.5 -48q87 0 169.5 19t121.5 36.5t39 20.5l1 -3q1 -4 1.5 -10t1.5 -13.5t0.5 -18t-2.5 -21.5q-3 -17 -9 -33.5t-11 -24.5l-5 -8q-6 -3 -16.5 -7.5t-45.5 -17t-73.5 -22t-97.5 -17 t-119 -7.5q-249 0 -297 151q-120 -151 -444 -151q-151 0 -206.5 70t-33.5 210zM352 270q-12 -80 16 -116.5t111 -36.5q131 0 193.5 48.5t77.5 156.5l24 165l-203 -26q-105 -13 -154.5 -52t-58.5 -108zM1004 578h378l21 124q18 107 -17.5 156t-140.5 49t-155.5 -49 t-65.5 -156z" />
<glyph unicode="&#xe7;" horiz-adv-x="991" d="M162 322l59 380q27 166 139.5 249t335.5 83q63 0 121.5 -8.5t96.5 -21t67.5 -25t42.5 -21.5l14 -8q-11 -68 -25.5 -131t-22.5 -92l-9 -29q-26 -6 -63 -6q-16 0 -31 1.5t-22 2.5l-7 2l-2 164q-75 45 -180 45q-115 0 -168.5 -48.5t-71.5 -156.5l-59 -380 q-16 -109 27.5 -157t173.5 -48q86 0 171 19t127 36.5t42 20.5l1 -3q1 -4 1.5 -10t1.5 -13.5t0.5 -18t-2.5 -21.5q-3 -17 -9 -33.5t-11 -24.5l-5 -8q-15 -7 -43.5 -18t-115.5 -30.5t-175 -22.5l-4 -17q-3 -21 5.5 -36t23 -22t31 -16.5t31 -19t21.5 -29.5t3 -49 q-12 -77 -68.5 -119t-152.5 -42q-44 0 -79.5 9t-49.5 18l-13 9q-1 2 -1.5 5t-1.5 13.5t1 20.5q1 11 4.5 21.5t6.5 15.5l4 4q44 -28 116 -28q53 0 79 17t32 56q3 21 -9.5 33t-32 19.5t-38.5 18t-29 36t-4 65.5l4 21q-172 17 -237 99t-41 229z" />
<glyph unicode="&#xe8;" horiz-adv-x="1048" d="M162 322l59 380q27 166 137 249t332 83q116 0 192 -22t114.5 -64t49.5 -104t-4 -142l-38 -233q-111 -20 -306 -20h-303l-18 -127q-15 -109 29.5 -157t177.5 -48q90 0 180 19.5t132 36t46 20.5q-1 -1 1 -9.5t3 -22.5t-2 -34q-3 -17 -9 -33.5t-11 -24.5l-4 -8 q-18 -8 -50 -20t-131 -31.5t-198 -19.5q-229 0 -317 83t-62 249zM418 578h401l19 124q18 107 -19.5 156t-148.5 49q-112 0 -164 -48.5t-70 -156.5zM496 1427q53 11 102 11q24 0 48.5 -3t37.5 -5l12 -3l160 -262q-33 -12 -70 -12q-14 0 -29.5 3t-24.5 6l-9 3z" />
<glyph unicode="&#xe9;" horiz-adv-x="1048" d="M162 322l59 380q27 166 137 249t332 83q116 0 192 -22t114.5 -64t49.5 -104t-4 -142l-38 -233q-111 -20 -306 -20h-303l-18 -127q-15 -109 29.5 -157t177.5 -48q90 0 180 19.5t132 36t46 20.5q-1 -1 1 -9.5t3 -22.5t-2 -34q-3 -17 -9 -33.5t-11 -24.5l-4 -8 q-18 -8 -50 -20t-131 -31.5t-198 -19.5q-229 0 -317 83t-62 249zM418 578h401l19 124q18 107 -19.5 156t-148.5 49q-112 0 -164 -48.5t-70 -156.5zM553 1165l244 262q49 11 102 11q22 0 46.5 -3t38.5 -5l13 -3l-311 -262q-39 -12 -70 -12q-16 0 -31.5 3t-23.5 6z" />
<glyph unicode="&#xea;" horiz-adv-x="1048" d="M162 322l59 380q27 166 137 249t332 83q116 0 192 -22t114.5 -64t49.5 -104t-4 -142l-38 -233q-111 -20 -306 -20h-303l-18 -127q-15 -109 29.5 -157t177.5 -48q90 0 180 19.5t132 36t46 20.5q-1 -1 1 -9.5t3 -22.5t-2 -34q-3 -17 -9 -33.5t-11 -24.5l-4 -8 q-18 -8 -50 -20t-131 -31.5t-198 -19.5q-229 0 -317 83t-62 249zM410 1176l241 251q48 11 97 11q22 0 45.5 -3t36.5 -5l12 -3l159 -251q-32 -11 -67 -11q-14 0 -30.5 2.5t-25.5 5.5l-10 3l-135 167l-190 -167q-35 -11 -68 -11q-16 0 -32.5 2.5t-24.5 5.5zM418 578h401 l19 124q18 107 -19.5 156t-148.5 49q-112 0 -164 -48.5t-70 -156.5z" />
<glyph unicode="&#xeb;" horiz-adv-x="1048" d="M162 322l59 380q27 166 137 249t332 83q116 0 192 -22t114.5 -64t49.5 -104t-4 -142l-38 -233q-111 -20 -306 -20h-303l-18 -127q-15 -109 29.5 -157t177.5 -48q90 0 180 19.5t132 36t46 20.5q-1 -1 1 -9.5t3 -22.5t-2 -34q-3 -17 -9 -33.5t-11 -24.5l-4 -8 q-18 -8 -50 -20t-131 -31.5t-198 -19.5q-229 0 -317 83t-62 249zM418 578h401l19 124q18 107 -19.5 156t-148.5 49q-112 0 -164 -48.5t-70 -156.5zM418 1221l33 206q39 11 88 11q21 0 41.5 -3t30.5 -5l10 -3l-33 -206q-39 -11 -86 -11q-22 0 -43 3t-31 5zM840 1221l32 206 q40 11 89 11q21 0 41 -3t30 -5l10 -3l-32 -206q-39 -11 -86 -11q-22 0 -43 3t-31 5z" />
<glyph unicode="&#xec;" horiz-adv-x="591" d="M193 971q3 11 7 21.5t6 15.5l3 4q82 16 229 16q30 0 61.5 -2.5t47.5 -5.5l16 -2l-123 -797q-9 -55 6.5 -79.5t61.5 -24.5q19 0 51 8q4 -26 -2 -57q-2 -14 -6 -28t-7 -21l-3 -7q-74 -22 -135 -22q-116 0 -158 57.5t-23 173.5l105 682l-135 25q-1 2 -1.5 5t-1.5 14.5 t1 23.5zM270 1427q54 11 105 11q23 0 47 -3t36 -5l13 -3l160 -262q-33 -12 -68 -12q-15 0 -31 3t-25 6l-9 3z" />
<glyph unicode="&#xed;" horiz-adv-x="598" d="M193 971q3 11 7 21.5t6 15.5l3 4q82 16 229 16q30 0 61.5 -2.5t47.5 -5.5l16 -2l-123 -797q-9 -55 6.5 -79.5t61.5 -24.5q19 0 51 8q4 -26 0 -57q-3 -14 -7.5 -28t-7.5 -21l-3 -7q-74 -22 -135 -22q-116 0 -158 57.5t-23 173.5l105 682l-135 25q-1 2 -1.5 5t-1.5 14.5 t1 23.5zM328 1165l245 262q50 11 101 11q23 0 48 -3t38 -5l14 -3l-313 -262q-37 -12 -68 -12q-16 0 -32.5 3t-24.5 6z" />
<glyph unicode="&#xee;" horiz-adv-x="591" d="M184 1176l242 251q47 11 94 11q22 0 45.5 -3t36.5 -5l12 -3l162 -251q-32 -11 -69 -11q-14 0 -30 2.5t-25 5.5l-9 3l-137 167l-191 -167q-34 -11 -65 -11q-16 0 -32.5 2.5t-25.5 5.5zM193 928q-8 0 5 60q6 26 9 24q82 16 229 16q31 0 63 -2.5t48 -5.5l16 -2l-125 -797 q-8 -56 7 -80t61 -24q19 0 51 8q4 -26 0 -57q-3 -14 -7.5 -28t-7.5 -21l-3 -7q-74 -22 -136 -22q-116 0 -157.5 57.5t-22.5 173.5l107 682z" />
<glyph unicode="&#xef;" horiz-adv-x="593" d="M193 971q3 11 7 21.5t6 15.5l3 4q82 16 229 16q30 0 61.5 -2.5t47.5 -5.5l16 -2l-123 -797q-9 -55 6.5 -79.5t61.5 -24.5q19 0 51 8q4 -26 0 -57q-3 -14 -7.5 -28t-7.5 -21l-3 -7q-74 -22 -135 -22q-116 0 -158 57.5t-23 173.5l105 682l-135 25q-1 2 -1.5 5t-1.5 14.5 t1 23.5zM242 1221l32 206q39 11 88 11q21 0 41.5 -3t30.5 -5l10 -3l-32 -206q-39 -11 -86 -11q-22 0 -43 3t-31 5zM565 1221l33 206q41 11 88 11q22 0 43 -3t31 -5l10 -3l-33 -206q-41 -11 -88 -11q-21 0 -42 3t-31 5z" />
<glyph unicode="&#xf0;" horiz-adv-x="1032" d="M162 322l59 380q27 166 112 249t247 83q56 0 107 -11t84.5 -27t59 -32t37.5 -27l11 -11l14 100q13 102 -88 176l-84 -74q-39 -10 -74 -10q-17 0 -35 2.5t-28 5.5l-9 2l140 127q-64 27 -143.5 46t-127.5 25l-47 5l-1 3q0 4 -0.5 9.5t-1 13t0 18.5t2.5 22q3 16 8.5 31.5 t10.5 22.5l4 7q25 -1 68 -5.5t154.5 -26.5t197.5 -56l63 57q39 11 80 11q18 0 37.5 -3t29.5 -5l11 -3l-121 -106q195 -111 168 -295l-113 -704q-26 -165 -137.5 -248.5t-331.5 -83.5q-221 0 -305.5 83.5t-58.5 248.5zM377 322q-18 -108 20.5 -156.5t151.5 -48.5 q110 0 162.5 48.5t70.5 156.5l74 477q-2 4 -6.5 11.5t-22.5 26t-41 33t-64 26t-89 11.5q-93 0 -137.5 -48.5t-59.5 -156.5z" />
<glyph unicode="&#xf1;" horiz-adv-x="1200" d="M190 6l140 897l-135 25q-1 2 -1.5 5t-1.5 14t1 22q3 12 7 22.5t6 15.5l3 5q82 16 229 16q29 0 60.5 -2.5t47.5 -5.5l17 -2l-12 -92q5 4 14.5 11.5t42 26t67 33t88 26t107.5 11.5q161 0 219.5 -82.5t32.5 -246.5l-75 -484q-8 -56 6.5 -80t60.5 -24q27 0 51 8q6 -26 0 -57 q-2 -14 -6.5 -28t-8.5 -21l-3 -7q-69 -22 -135 -22q-116 0 -158 57.5t-23 173.5l76 481q16 108 -13 156.5t-120 48.5q-46 0 -88 -11t-69.5 -27t-48.5 -32t-30 -27l-10 -11l-125 -793q-55 -10 -108 -10q-24 0 -50.5 2.5t-40.5 5.5zM473 1237l2 8q8 48 21.5 82.5t36.5 59.5 t57 37t80 12q34 0 61.5 -6.5t45.5 -16.5t32.5 -22.5t26 -24.5t23 -22t25.5 -16.5t31 -6.5q51 0 70 23t31 81q32 11 65 11q14 0 28.5 -3t21.5 -5l8 -3q-11 -53 -22.5 -86.5t-33 -61t-55.5 -40t-84 -12.5q-46 0 -81 11.5t-55 28.5t-36.5 34t-35 28.5t-40.5 11.5q-52 0 -70 -22 t-30 -80q-31 -12 -64 -12q-14 0 -28.5 3t-22.5 6z" />
<glyph unicode="&#xf2;" horiz-adv-x="1062" d="M162 322l59 380q27 165 139.5 248.5t333.5 83.5t307.5 -83.5t59.5 -248.5l-60 -380q-26 -165 -139 -248.5t-334 -83.5t-306.5 83.5t-59.5 248.5zM377 322q-15 -109 23 -157t151 -48t166.5 48.5t68.5 156.5l62 380q15 107 -24 156t-150 49q-113 0 -166.5 -49t-71.5 -156z M506 1427q53 11 102 11q24 0 48.5 -3t37.5 -5l13 -3l159 -262q-32 -12 -69 -12q-14 0 -30 3t-25 6l-9 3z" />
<glyph unicode="&#xf3;" horiz-adv-x="1062" d="M162 322l59 380q27 165 139.5 248.5t333.5 83.5t307.5 -83.5t59.5 -248.5l-60 -380q-26 -165 -139 -248.5t-334 -83.5t-306.5 83.5t-59.5 248.5zM377 322q-15 -109 23 -157t151 -48t166.5 48.5t68.5 156.5l62 380q15 107 -24 156t-150 49q-113 0 -166.5 -49t-71.5 -156z M561 1165l246 262q49 11 100 11q23 0 48 -3t39 -5l14 -3l-312 -262q-38 -12 -69 -12q-16 0 -32.5 3t-24.5 6z" />
<glyph unicode="&#xf4;" horiz-adv-x="1062" d="M162 322l59 380q27 165 139.5 248.5t333.5 83.5t307.5 -83.5t59.5 -248.5l-60 -380q-26 -165 -139 -248.5t-334 -83.5t-306.5 83.5t-59.5 248.5zM377 322q-15 -109 23 -157t151 -48t166.5 48.5t68.5 156.5l62 380q15 107 -24 156t-150 49q-113 0 -166.5 -49t-71.5 -156z M420 1176l242 251q47 11 96 11q21 0 44.5 -3t36.5 -5l13 -3l160 -251q-33 -11 -68 -11q-14 0 -30 2.5t-26 5.5l-9 3l-136 167l-190 -167q-35 -11 -68 -11q-16 0 -32.5 2.5t-24.5 5.5z" />
<glyph unicode="&#xf5;" horiz-adv-x="1062" d="M162 322l59 380q27 165 139.5 248.5t333.5 83.5t307.5 -83.5t59.5 -248.5l-60 -380q-26 -165 -139 -248.5t-334 -83.5t-306.5 83.5t-59.5 248.5zM377 322q-15 -109 23 -157t151 -48t166.5 48.5t68.5 156.5l62 380q15 107 -24 156t-150 49q-113 0 -166.5 -49t-71.5 -156z M410 1237l2 8q14 98 57.5 144.5t134.5 46.5q46 0 80.5 -12t54 -29t35.5 -33.5t34.5 -28.5t41.5 -12q51 0 69.5 22.5t30.5 81.5q35 11 66 11q14 0 28 -3t22 -5l7 -3q-7 -35 -14 -59.5t-17 -49t-24 -40t-33 -28t-45.5 -18t-60.5 -5.5q-46 0 -81 11.5t-55 28.5t-36.5 34 t-35 28.5t-40.5 11.5q-52 0 -70.5 -22t-30.5 -80q-32 -12 -63 -12q-14 0 -28 3t-21 6z" />
<glyph unicode="&#xf6;" horiz-adv-x="1062" d="M162 322l59 380q27 165 139.5 248.5t333.5 83.5t307.5 -83.5t59.5 -248.5l-60 -380q-26 -165 -139 -248.5t-334 -83.5t-306.5 83.5t-59.5 248.5zM377 322q-15 -109 23 -157t151 -48t166.5 48.5t68.5 156.5l62 380q15 107 -24 156t-150 49q-113 0 -166.5 -49t-71.5 -156z M428 1221l33 206q39 11 88 11q21 0 41.5 -3t30.5 -5l10 -3l-33 -206q-39 -11 -86 -11q-22 0 -43 3t-31 5zM850 1221l33 206q39 11 86 11q22 0 43 -3t31 -5l10 -3l-33 -206q-41 -11 -88 -11q-21 0 -41.5 3t-30.5 5z" />
<glyph unicode="&#xf7;" horiz-adv-x="860" d="M170 541q-6 24 0 63q4 17 9.5 33.5t9.5 24.5l4 8h684q5 -27 -3 -66q-3 -17 -8 -33t-8 -23l-4 -7h-684zM379 211l31 192q41 9 84 9q18 0 39 -2t33 -4l12 -3l-33 -192q-43 -8 -84 -8q-20 0 -40.5 2t-30.5 4zM473 805l31 192q41 11 86 11q18 0 38 -3t31 -5l11 -3l-31 -192 q-43 -8 -84 -8q-19 0 -39.5 2t-31.5 4z" />
<glyph unicode="&#xf8;" horiz-adv-x="1095" d="M115 6l90 107q-48 78 -27 209l60 380q27 165 139.5 248.5t333.5 83.5q161 0 250 -47l26 31q37 10 74 10q16 0 33.5 -2.5t26.5 -5.5l9 -2l-86 -98q55 -78 33 -218l-59 -380q-26 -165 -139 -248.5t-334 -83.5q-172 0 -260 49l-29 -33q-39 -10 -72 -10q-17 0 -34.5 2.5 t-25.5 5.5zM367 299l489 567q-46 49 -166 49q-125 0 -184 -50.5t-74 -162.5l-61 -380zM391 164q44 -55 174 -55q125 0 183.5 50t76.5 163l60 380l4 37z" />
<glyph unicode="&#xf9;" horiz-adv-x="1206" d="M193 971q3 11 7 21.5t6 15.5l3 4q82 16 229 16q29 0 60.5 -2.5t47.5 -5.5l17 -2l-108 -696q-15 -109 13 -157t118 -48q47 0 90 11t71 27t49 32t30 27l10 11l125 793q55 10 110 10q24 0 50 -2.5t41 -5.5l14 -2l-123 -787q-11 -66 2.5 -89t62.5 -23q19 0 51 8q1 -3 1.5 -8 t1.5 -20.5t-1 -28.5q-3 -14 -8 -28t-9 -21l-3 -7q-81 -24 -141 -24q-92 0 -127 29t-33 90q-6 -5 -17.5 -13t-48.5 -28.5t-76.5 -36t-100 -28.5t-120.5 -13q-160 0 -216.5 83t-30.5 249l90 581l-135 25q-1 2 -1.5 5t-1.5 14.5t1 23.5zM571 1427q56 11 105 11q24 0 48.5 -3 t37.5 -5l12 -3l160 -262q-33 -12 -70 -12q-14 0 -29.5 3t-24.5 6l-9 3z" />
<glyph unicode="&#xfa;" horiz-adv-x="1206" d="M193 971q3 11 7 21.5t6 15.5l3 4q82 16 229 16q29 0 60.5 -2.5t47.5 -5.5l17 -2l-108 -696q-15 -109 13 -157t118 -48q47 0 90 11t71 27t49 32t30 27l10 11l125 793q55 10 110 10q24 0 50 -2.5t41 -5.5l14 -2l-123 -787q-11 -66 2.5 -89t62.5 -23q19 0 51 8q1 -3 1.5 -8 t1.5 -20.5t-1 -28.5q-3 -14 -8 -28t-9 -21l-3 -7q-81 -24 -141 -24q-92 0 -127 29t-33 90q-6 -5 -17.5 -13t-48.5 -28.5t-76.5 -36t-100 -28.5t-120.5 -13q-160 0 -216.5 83t-30.5 249l90 581l-135 25q-1 2 -1.5 5t-1.5 14.5t1 23.5zM631 1165l243 262q50 11 103 11 q22 0 46.5 -3t38.5 -5l13 -3l-311 -262q-37 -12 -70 -12q-16 0 -31.5 3t-23.5 6z" />
<glyph unicode="&#xfb;" horiz-adv-x="1206" d="M193 971q3 11 7 21.5t6 15.5l3 4q82 16 229 16q29 0 60.5 -2.5t47.5 -5.5l17 -2l-108 -696q-15 -109 13 -157t118 -48q47 0 90 11t71 27t49 32t30 27l10 11l125 793q55 10 110 10q24 0 50 -2.5t41 -5.5l14 -2l-123 -787q-11 -66 2.5 -89t62.5 -23q19 0 51 8q1 -3 1.5 -8 t1.5 -20.5t-1 -28.5q-3 -14 -8 -28t-9 -21l-3 -7q-81 -24 -141 -24q-92 0 -127 29t-33 90q-6 -5 -17.5 -13t-48.5 -28.5t-76.5 -36t-100 -28.5t-120.5 -13q-160 0 -216.5 83t-30.5 249l90 581l-135 25q-1 2 -1.5 5t-1.5 14.5t1 23.5zM487 1176l242 251q47 11 96 11 q21 0 44.5 -3t36.5 -5l14 -3l159 -251q-32 -11 -67 -11q-15 0 -31.5 2.5t-25.5 5.5l-9 3l-137 167l-188 -167q-37 -11 -68 -11q-16 0 -32.5 2.5t-24.5 5.5z" />
<glyph unicode="&#xfc;" horiz-adv-x="1206" d="M193 971q3 11 7 21.5t6 15.5l3 4q82 16 229 16q29 0 60.5 -2.5t47.5 -5.5l17 -2l-108 -696q-15 -109 13 -157t118 -48q47 0 90 11t71 27t49 32t30 27l10 11l125 793q55 10 110 10q24 0 50 -2.5t41 -5.5l14 -2l-123 -787q-11 -66 2.5 -89t62.5 -23q19 0 51 8q1 -3 1.5 -8 t1.5 -20.5t-1 -28.5q-3 -14 -8 -28t-9 -21l-3 -7q-81 -24 -141 -24q-92 0 -127 29t-33 90q-6 -5 -17.5 -13t-48.5 -28.5t-76.5 -36t-100 -28.5t-120.5 -13q-160 0 -216.5 83t-30.5 249l90 581l-135 25q-1 2 -1.5 5t-1.5 14.5t1 23.5zM494 1221l34 206q39 11 86 11 q22 0 43 -3t31 -5l10 -3l-32 -206q-41 -11 -88 -11q-21 0 -42 3t-32 5zM918 1221l32 206q39 11 88 11q21 0 41.5 -3t30.5 -5l10 -3l-33 -206q-41 -11 -88 -11q-21 0 -41 3t-30 5z" />
<glyph unicode="&#xfd;" horiz-adv-x="1142" d="M172 -319q3 18 8.5 34t10.5 23.5t6 7.5q125 -39 315 -39q132 0 192 48.5t78 156.5l25 164q0 -4 -31 -23t-101.5 -41t-150.5 -22q-180 0 -245 83t-39 249l90 581l-135 25q-1 2 -1.5 5t-1.5 14.5t1 23.5q3 11 7 21.5t6 15.5l3 4q82 16 229 16q29 0 60.5 -2.5t47.5 -5.5 l17 -2l-108 -696q-15 -109 13 -157t118 -48q46 0 88 11t69.5 27t48 32t30.5 27l9 11l125 793q56 10 109 10q24 0 50.5 -2.5t40.5 -5.5l15 -2l-174 -1106q-27 -166 -146 -249t-362 -83q-87 0 -165.5 9t-113.5 19l-36 9q-1 3 -2 8t-3 22t3 34zM627 1165l243 262q50 11 103 11 q22 0 46.5 -3t38.5 -5l13 -3l-313 -262q-37 -12 -68 -12q-16 0 -31.5 3t-23.5 6z" />
<glyph unicode="&#xfe;" horiz-adv-x="1081" d="M92 -403l270 1716l-135 24q-6 16 0 43q2 11 5.5 21.5t6.5 14.5l3 5q81 17 231 17q30 0 61.5 -3t47.5 -5l16 -3l-78 -501q5 4 15 11.5t42.5 26t67.5 33t89.5 26t109.5 11.5q158 0 215.5 -83.5t30.5 -248.5l-60 -380q-27 -166 -123 -249t-284 -83q-50 0 -92 8t-67 18 t-44.5 23t-26.5 20.5t-10 12.5l-76 -475q-53 -11 -108 -11q-24 0 -51 3t-42 5zM424 322q-18 -108 23 -156.5t159 -48.5q99 0 146.5 48.5t62.5 156.5l59 380q18 107 -10.5 156t-118.5 49q-46 0 -89 -11t-70.5 -27t-48 -32t-29.5 -27l-10 -11z" />
<glyph unicode="&#xff;" horiz-adv-x="1142" d="M172 -319q3 18 8.5 34t10.5 23.5t6 7.5q125 -39 315 -39q132 0 192 48.5t78 156.5l25 164q0 -4 -31 -23t-101.5 -41t-150.5 -22q-180 0 -245 83t-39 249l90 581l-135 25q-1 2 -1.5 5t-1.5 14.5t1 23.5q3 11 7 21.5t6 15.5l3 4q82 16 229 16q29 0 60.5 -2.5t47.5 -5.5 l17 -2l-108 -696q-15 -109 13 -157t118 -48q46 0 88 11t69.5 27t48 32t30.5 27l9 11l125 793q56 10 109 10q24 0 50.5 -2.5t40.5 -5.5l15 -2l-174 -1106q-27 -166 -146 -249t-362 -83q-87 0 -165.5 9t-113.5 19l-36 9q-1 3 -2 8t-3 22t3 34zM492 1221l32 206q39 11 88 11 q21 0 41.5 -3t30.5 -5l10 -3l-32 -206q-40 -11 -87 -11q-22 0 -42.5 3t-30.5 5zM913 1221l33 206q39 11 88 11q21 0 42 -3t32 -5l10 -3l-33 -206q-41 -11 -88 -11q-22 0 -43 3t-31 5z" />
<glyph unicode="&#x152;" horiz-adv-x="1640" d="M158 344l114 743q29 176 162 265.5t395 89.5q171 0 320 -23q184 15 319 15h314q10 -73 -43 -283l-11 -36q1 1 1 3q-21 -8 -50 -8q-12 0 -22.5 2t-15.5 4l-5 2l-12 176h-414l-73 -487h483q6 -29 0 -70q-3 -18 -8.5 -35.5t-9.5 -25.5l-5 -8h-483l-82 -531h424l66 178 q20 9 47 9q13 0 24 -2t16 -4l5 -3q2 12 2 1q-1 -72 -23 -211q-14 -90 -26 -105h-324q-178 0 -319 12q-137 -20 -324 -20q-263 0 -367.5 89t-74.5 263zM383 344q-19 -114 35 -164.5t205 -50.5h184l182 1176h-182q-151 0 -220.5 -51t-88.5 -167z" />
<glyph unicode="&#x153;" horiz-adv-x="1675" d="M162 322l59 380q27 165 139.5 248.5t333.5 83.5q237 0 291 -139q91 139 330 139q116 0 192 -22t114.5 -64t49.5 -104t-4 -142l-37 -233q-112 -20 -307 -20h-303l-19 -127q-16 -109 29.5 -157t179.5 -48q90 0 176 19.5t124.5 35.5t43.5 21q-1 -1 1 -9.5t3 -22.5t-2 -34 q-3 -17 -9.5 -33.5t-11.5 -24.5l-5 -8q-6 -3 -17 -7.5t-47.5 -17t-76 -22t-101 -17t-123.5 -7.5q-246 0 -299 143q-93 -143 -338 -143q-221 0 -306.5 83.5t-59.5 248.5zM377 322q-15 -109 23 -157t151 -48t166.5 48.5t68.5 156.5l62 380q15 107 -24 156t-150 49 q-113 0 -166.5 -49t-71.5 -156zM1042 578h402l20 124q15 108 -22 156.5t-148 48.5q-112 0 -163.5 -48.5t-69.5 -156.5z" />
<glyph unicode="&#x178;" horiz-adv-x="1347" d="M244 1331q-6 16 0 45q2 12 6 23t7 17l3 5q94 17 219 17q93 0 167 -4t102 -8l28 -5q1 -2 1.5 -5.5t1.5 -15.5t-1 -24q-3 -13 -7 -24t-7 -16l-2 -5l-135 -18l170 -549l336 549l-129 18q-6 16 0 45q2 12 6 23t7 17l3 5q94 17 305 17q55 0 108 -4t79 -8l26 -5q4 -18 0 -45 q-3 -13 -7 -24t-7 -16l-2 -5l-160 -20l-485 -729l-70 -459l151 -21q4 -18 0 -45q-3 -13 -7 -24t-7 -16l-2 -5q-96 -16 -270 -16q-77 0 -143 4t-93 8l-28 4q-6 16 0 45q2 12 6 23.5t7 16.5l3 5l158 21l69 459l-256 729zM621 1542l32 207q39 10 88 10q21 0 42 -2.5t31 -4.5 l11 -3l-32 -207q-41 -10 -88 -10q-21 0 -42 2.5t-31 5.5zM1044 1542l33 207q37 10 86 10q21 0 42 -2.5t31 -4.5l11 -3l-33 -207q-41 -10 -88 -10q-21 0 -41.5 2.5t-30.5 5.5z" />
<glyph unicode="&#x2c6;" horiz-adv-x="452" d="M115 1176l241 251q48 11 97 11q21 0 44 -3t35 -5l13 -3l162 -251q-33 -11 -70 -11q-14 0 -30 2.5t-25 5.5l-9 3l-137 167l-190 -167q-35 -11 -66 -11q-16 0 -32.5 2.5t-24.5 5.5z" />
<glyph unicode="&#x2dc;" horiz-adv-x="829" d="M291 1237l2 8q16 98 60 144.5t134 46.5q46 0 80.5 -12t54 -29t35 -33.5t34.5 -28.5t42 -12q48 0 69 21.5t29 72.5l3 10q32 11 65 11q6 0 12.5 -0.5t12 -1.5t11 -2.5t9 -2.5t6.5 -2t4 -1l2 -1q-11 -53 -22.5 -86t-33 -61t-55.5 -40.5t-85 -12.5q-33 0 -60.5 6.5t-46 16.5 t-33.5 22t-26.5 24t-23 22t-26 16.5t-30.5 6.5q-52 0 -70 -22t-30 -80q-33 -12 -64 -12q-14 0 -28.5 3t-22.5 6z" />
<glyph unicode="&#x2000;" horiz-adv-x="919" />
<glyph unicode="&#x2001;" horiz-adv-x="1839" />
<glyph unicode="&#x2002;" horiz-adv-x="919" />
<glyph unicode="&#x2003;" horiz-adv-x="1839" />
<glyph unicode="&#x2004;" horiz-adv-x="613" />
<glyph unicode="&#x2005;" horiz-adv-x="459" />
<glyph unicode="&#x2006;" horiz-adv-x="306" />
<glyph unicode="&#x2007;" horiz-adv-x="306" />
<glyph unicode="&#x2008;" horiz-adv-x="229" />
<glyph unicode="&#x2009;" horiz-adv-x="367" />
<glyph unicode="&#x200a;" horiz-adv-x="102" />
<glyph unicode="&#x2010;" horiz-adv-x="593" d="M166 514q-6 27 0 66q4 17 9.5 33t8.5 23l4 7h418q6 -24 0 -63q-3 -17 -8 -33.5t-8 -24.5l-4 -8h-420z" />
<glyph unicode="&#x2011;" horiz-adv-x="593" d="M166 514q-6 27 0 66q4 17 9.5 33t8.5 23l4 7h418q6 -24 0 -63q-3 -17 -8 -33.5t-8 -24.5l-4 -8h-420z" />
<glyph unicode="&#x2012;" horiz-adv-x="593" d="M166 514q-6 27 0 66q4 17 9.5 33t8.5 23l4 7h418q6 -24 0 -63q-3 -17 -8 -33.5t-8 -24.5l-4 -8h-420z" />
<glyph unicode="&#x2013;" horiz-adv-x="995" d="M166 514q-6 27 0 66q4 17 9.5 33t8.5 23l4 7h822q4 -24 -2 -63q-3 -17 -8 -33.5t-9 -24.5l-4 -8h-821z" />
<glyph unicode="&#x2014;" horiz-adv-x="1296" d="M166 514q-6 27 0 66q4 17 9.5 33t8.5 23l4 7h1123q4 -24 -2 -63q-3 -17 -8 -33.5t-9 -24.5l-4 -8h-1122z" />
<glyph unicode="&#x2018;" horiz-adv-x="413" d="M266 993q14 88 42 165t57.5 124t57 81.5t45.5 48.5l17 15q29 11 56 11q12 0 25 -3t20 -5l6 -3q-4 -6 -11.5 -16.5t-28.5 -50t-39.5 -85.5t-40 -122t-34.5 -160q-45 -10 -88 -10q-19 0 -40 2.5t-32 4.5z" />
<glyph unicode="&#x2019;" horiz-adv-x="413" d="M203 993q4 6 11.5 16.5t28 50t39 85.5t39.5 122t35 160q43 11 88 11q19 0 40 -3t32 -5l12 -3q-14 -88 -42 -165t-57.5 -124t-57 -81.5t-45.5 -48.5l-17 -15q-28 -10 -55 -10q-13 0 -25.5 2.5t-18.5 4.5z" />
<glyph unicode="&#x201a;" horiz-adv-x="413" d="M14 -217q4 6 11.5 16.5t27.5 50t38.5 85.5t39.5 122t35 160q43 10 86 10q19 0 40 -2.5t32 -4.5l12 -3q-14 -88 -41.5 -165t-56.5 -124t-56.5 -81.5t-45.5 -48.5l-17 -15q-31 -10 -56 -10q-13 0 -25 2.5t-18 4.5z" />
<glyph unicode="&#x201c;" horiz-adv-x="679" d="M266 993q14 88 42 165t57.5 124t57 81.5t45.5 48.5l17 15q29 11 56 11q12 0 25 -3t20 -5l6 -3q-4 -6 -11.5 -16.5t-28.5 -50t-39.5 -85.5t-40 -122t-34.5 -160q-45 -10 -88 -10q-19 0 -40 2.5t-32 4.5zM532 993q14 88 42.5 165t58 124t57.5 81.5t46 48.5l18 15 q26 11 53 11q12 0 25 -3t20 -5l6 -3q-4 -6 -11.5 -16.5t-28.5 -50t-39.5 -85.5t-39.5 -122t-34 -160q-46 -10 -89 -10q-19 0 -40 2.5t-32 4.5z" />
<glyph unicode="&#x201d;" horiz-adv-x="679" d="M203 993q4 6 11.5 16.5t28 50t39 85.5t39.5 122t35 160q43 11 88 11q19 0 40 -3t32 -5l12 -3q-14 -88 -42 -165t-57.5 -124t-57 -81.5t-45.5 -48.5l-17 -15q-28 -10 -55 -10q-13 0 -25.5 2.5t-18.5 4.5zM469 993q4 6 11.5 16.5t28.5 50t39 85.5t39.5 122t35.5 160 q43 11 88 11q19 0 39.5 -3t31.5 -5l11 -3q-14 -88 -41.5 -165t-57 -124t-57 -81.5t-45.5 -48.5l-17 -15q-28 -10 -55 -10q-13 0 -25.5 2.5t-18.5 4.5z" />
<glyph unicode="&#x201e;" horiz-adv-x="679" d="M14 -217q4 6 11.5 16.5t27.5 50t38.5 85.5t39.5 122t35 160q43 10 86 10q19 0 40 -2.5t32 -4.5l12 -3q-14 -88 -41.5 -165t-56.5 -124t-56.5 -81.5t-45.5 -48.5l-17 -15q-31 -10 -56 -10q-13 0 -25 2.5t-18 4.5zM279 -217q4 6 11.5 16.5t28 50t39 85.5t39.5 122t35 160 q43 10 86 10q19 0 40 -2.5t32 -4.5l12 -3q-14 -88 -42 -165t-58 -124t-57.5 -81.5t-45.5 -48.5l-18 -15q-28 -10 -55 -10q-12 0 -24 2.5t-18 4.5z" />
<glyph unicode="&#x2022;" horiz-adv-x="600" d="M141 412q3 93 19 202q8 47 20 98t20 78l7 27q107 14 211 14q45 0 96.5 -3.5t79.5 -7.5l29 -3q-3 -94 -19 -203q-8 -46 -20 -96.5t-20 -77.5l-7 -28q-107 -15 -211 -15q-45 0 -96.5 3.5t-79.5 7.5z" />
<glyph unicode="&#x2026;" horiz-adv-x="1243" d="M121 6l35 219q53 13 106 13q23 0 48.5 -3t39.5 -7l15 -3l-37 -219q-56 -10 -107 -10q-24 0 -49 2.5t-38 5.5zM518 6l37 219q51 13 104 13q23 0 48.5 -3t40.5 -7l14 -3l-37 -219q-53 -10 -104 -10q-24 0 -49.5 2.5t-39.5 5.5zM915 6l37 219q52 13 105 13q24 0 49.5 -3 t39.5 -7l13 -3l-35 -219q-55 -10 -106 -10q-24 0 -49.5 2.5t-39.5 5.5z" />
<glyph unicode="&#x202f;" horiz-adv-x="367" />
<glyph unicode="&#x2039;" horiz-adv-x="628" d="M160 553l440 383q24 -10 51 -39q11 -12 19.5 -25t11.5 -20l2 -6l-328 -293l238 -291q-18 -26 -51 -53q-16 -12 -32 -21.5t-24 -13.5l-8 -4z" />
<glyph unicode="&#x203a;" horiz-adv-x="628" d="M115 262l327 291l-235 293q16 24 49 51q15 12 30.5 22t23.5 13l9 4l320 -383l-440 -383q-25 12 -52 39q-10 12 -18 25t-11 20z" />
<glyph unicode="&#x205f;" horiz-adv-x="459" />
<glyph unicode="&#x20ac;" horiz-adv-x="1204" d="M141 510q-6 24 0 63q4 17 9.5 33.5t9.5 24.5l4 8h98l21 145h-97q-6 25 0 64q3 17 8.5 33.5t9.5 24.5l5 7h96l27 174q29 177 158.5 267t390.5 90q91 0 168.5 -14t123 -34t78.5 -40.5t45 -34.5l13 -14q-11 -68 -26 -134t-25 -97l-9 -32q-28 -8 -67 -8q-17 0 -33 2t-23 4 l-8 2l-2 179q-3 3 -9.5 9t-30 20.5t-51 25.5t-73.5 20t-96 9q-149 0 -215 -51.5t-84 -168.5l-27 -174h449q4 -26 -2 -65q-3 -16 -8 -32t-9 -24l-4 -8h-448l-21 -145h447q6 -27 -2 -66q-3 -17 -8 -33t-9 -23l-4 -7h-446l-25 -166q-18 -116 38.5 -166.5t219.5 -50.5 q70 0 139 9t118 22t88 26.5t58 22.5t19 10l1 -3q1 -4 2 -10t1.5 -14.5t0 -20t-2.5 -24.5q-3 -19 -9.5 -37t-11.5 -26l-5 -8q-7 -3 -19 -9t-54 -20.5t-87.5 -25.5t-117 -20t-144.5 -9q-274 0 -381 89.5t-78 264.5l25 166h-99z" />
<glyph unicode="&#x2122;" horiz-adv-x="1392" d="M272 1352q-8 1 5 62q6 21 8 20h493q8 0 -5 -63q-5 -20 -7 -19h-178l-101 -633q-34 -4 -67 -4l-68 4l101 633h-181zM743 719l113 711q0 6 90 6l88 -6l99 -441l235 443q45 6 90 6l88 -6l-112 -711q-31 -6 -64 -6l-63 6l84 536l-228 -423q-26 -9 -57 -9q-14 0 -28 2.5 t-22 4.5l-7 2l-95 423l-82 -538q-32 -4 -65 -4z" />
<glyph unicode="&#x25fc;" horiz-adv-x="1024" d="M0 0v1024h1024v-1024h-1024z" />
</font>
</defs>
</svg>
