<?xml version="1.0" standalone="no"?>
<!DOCTYPE svg PUBLIC "-//W3C//DTD SVG 1.1//EN" "http://www.w3.org/Graphics/SVG/1.1/DTD/svg11.dtd" >
<svg xmlns="http://www.w3.org/2000/svg">
<metadata></metadata>
<defs>
<font id="pancetta_serif_proBlkIt" horiz-adv-x="1134" >
<font-face units-per-em="2048" ascent="1536" descent="-512" />
<missing-glyph horiz-adv-x="450" />
<glyph unicode="&#xfb01;" horiz-adv-x="1390" d="M-76 -391q-4 45 4 94q4 23 11.5 46.5t12.5 35.5l5 12q0 -2 8.5 -5.5t30.5 -7t49 -3.5q53 0 77.5 30t35.5 103l139 907l-127 39q-8 27 0 70q3 18 9 35.5t11 25.5l5 8q51 17 135 17l12 90q29 171 118 256.5t259 85.5q73 0 137 -7t92.5 -13.5t28.5 -8.5q4 -47 -4 -98 q-4 -22 -11 -45.5t-12 -35.5l-6 -13q0 1 -14.5 5t-44.5 7.5t-62 3.5q-53 0 -76.5 -30t-35.5 -107l-11 -82q194 8 488 8q47 0 98 -4t78 -8l27 -4l-113 -725q-8 -56 4 -78.5t53 -22.5q19 0 51 9q6 -41 -2 -90q-4 -22 -11 -44.5t-12 -34.5l-5 -12q-94 -32 -199 -32 q-158 0 -216 76t-32 229l80 538l-325 -12l-138 -903q-29 -170 -116.5 -254t-257.5 -84q-59 0 -116 8t-84 16zM1047 1174l40 251q95 17 187 17q41 0 86.5 -4t70.5 -8l25 -5l-41 -251q-96 -17 -188 -17q-41 0 -86 4.5t-69 8.5z" />
<glyph unicode="&#xfb02;" horiz-adv-x="1390" d="M-76 -391q-4 45 4 94q4 23 11.5 46.5t12.5 35.5l5 12q0 -2 8.5 -5.5t30.5 -7t49 -3.5q53 0 77.5 30t35.5 103l139 907l-127 39q-8 27 0 70q3 18 9 35.5t11 25.5l5 8q51 17 135 17l12 90q29 171 118 256.5t259 85.5q68 0 129 -6.5t90 -12.5t37 -10q118 23 278 23 q47 0 98 -4t78 -8l27 -5l-178 -1134q-8 -56 4 -78.5t53 -22.5q19 0 51 9q6 -41 -2 -90q-4 -22 -11 -44.5t-12 -34.5l-5 -12q-94 -32 -199 -32q-158 0 -216 76t-32 229l146 946l-97 31q-116 0 -175 -38t-72 -124l-11 -82h215q6 -41 -4 -102q-4 -28 -12 -54t-14 -38l-6 -13 h-215l-138 -903q-29 -170 -116.5 -254t-257.5 -84q-59 0 -116 8t-84 16z" />
<glyph unicode="&#xfb03;" horiz-adv-x="2082" d="M-76 -391q-4 45 4 94q4 23 11.5 46.5t12.5 35.5l5 12q0 -2 8.5 -5.5t30.5 -7t49 -3.5q53 0 77.5 30t35.5 103l139 907l-127 39q-8 27 0 70q3 18 9 35.5t11 25.5l5 8q51 17 135 17l12 90q29 171 118 256.5t259 85.5q73 0 137 -7t92.5 -13.5t28.5 -8.5q4 -47 -4 -98 q-4 -22 -11 -45.5t-12 -35.5l-6 -13q0 1 -14.5 5t-44.5 7.5t-62 3.5q-53 0 -76.5 -30t-35.5 -107l-11 -82h324l10 82q29 171 118 256.5t259 85.5q73 0 137 -7t92.5 -13.5t28.5 -8.5q4 -47 -4 -98q-4 -22 -11 -45.5t-12 -35.5l-6 -13q0 1 -14 5t-44 7.5t-62 3.5 q-53 0 -77 -30t-36 -107l-10 -82q166 8 487 8q47 0 98 -4t78 -8l27 -4l-113 -725q-8 -56 4.5 -78.5t53.5 -22.5q20 0 51 9q6 -41 -2 -90q-4 -22 -11 -44.5t-12 -34.5l-6 -12q-94 -32 -199 -32q-158 0 -215.5 76t-31.5 229l79 538l-325 -12l-137 -903q-29 -170 -117 -254 t-258 -84q-59 0 -116.5 8t-85.5 16l-28 9q-4 45 4 94q4 23 11.5 46.5t12.5 35.5l5 12q0 -2 8.5 -5.5t31 -7t50.5 -3.5q53 0 77.5 30t35.5 103l137 903h-323l-138 -903q-29 -170 -116.5 -254t-257.5 -84q-59 0 -116 8t-84 16zM1739 1174l41 251q94 17 186 17q41 0 86.5 -4 t70.5 -8l25 -5l-41 -251q-96 -17 -188 -17q-41 0 -86 4.5t-69 8.5z" />
<glyph unicode="&#xfb04;" horiz-adv-x="2082" d="M-76 -391q-4 45 4 94q4 23 11.5 46.5t12.5 35.5l5 12q0 -2 8.5 -5.5t30.5 -7t49 -3.5q53 0 77.5 30t35.5 103l139 907l-127 39q-8 27 0 70q3 18 9 35.5t11 25.5l5 8q51 17 135 17l12 90q29 171 118 256.5t259 85.5q73 0 137 -7t92.5 -13.5t28.5 -8.5q4 -47 -4 -98 q-4 -22 -11 -45.5t-12 -35.5l-6 -13q0 1 -14.5 5t-44.5 7.5t-62 3.5q-53 0 -76.5 -30t-35.5 -107l-11 -82h324l10 82q29 171 118 256.5t259 85.5q68 0 129 -6.5t90 -12.5t37 -10q118 23 279 23q47 0 97.5 -4t77.5 -8l27 -5l-178 -1134q-8 -56 4.5 -78.5t53.5 -22.5 q20 0 51 9q6 -41 -2 -90q-4 -22 -11 -44.5t-12 -34.5l-6 -12q-94 -32 -199 -32q-158 0 -215.5 76t-31.5 229l145 946l-96 31q-120 0 -177 -37.5t-71 -124.5l-10 -82h215q6 -41 -4 -102q-4 -28 -12.5 -54.5t-14.5 -38.5l-6 -12h-215l-137 -903q-29 -170 -117 -254t-258 -84 q-59 0 -116.5 8t-85.5 16l-28 9q-4 45 4 94q4 23 11.5 46.5t12.5 35.5l5 12q0 -2 8.5 -5.5t31 -7t50.5 -3.5q53 0 77.5 30t35.5 103l137 903h-323l-138 -903q-29 -170 -116.5 -254t-257.5 -84q-59 0 -116 8t-84 16z" />
<glyph horiz-adv-x="2048" />
<glyph horiz-adv-x="2048" />
<glyph unicode="&#xd;" horiz-adv-x="2048" />
<glyph unicode=" "  horiz-adv-x="450" />
<glyph unicode="&#x09;" horiz-adv-x="450" />
<glyph unicode="&#xa0;" horiz-adv-x="450" />
<glyph unicode="!" horiz-adv-x="520" d="M76 8l47 277q94 16 186 16q41 0 86.5 -4t70.5 -8l26 -4l-48 -277q-94 -16 -186 -16q-41 0 -86.5 4t-70.5 8zM147 455l154 970q94 17 186 17q41 0 86.5 -4t70.5 -8l26 -5l-154 -970q-94 -17 -186 -17q-41 0 -86.5 4t-71.5 8z" />
<glyph unicode="&#x22;" horiz-adv-x="704" d="M242 995l39 430q67 17 135 17q29 0 62 -4t51 -8l18 -5l-101 -430q-53 -16 -104 -16q-23 0 -48 4t-38 8zM569 995l39 430q67 17 135 17q29 0 62 -4t51 -8l18 -5l-100 -430q-53 -16 -104 -16q-23 0 -48 4t-39 8z" />
<glyph unicode="#" horiz-adv-x="1093" d="M98 8l76 320h-68q-7 39 5 102q4 27 11.5 52.5t13.5 37.5l5 12h88l82 369h-67q-6 40 4 103q4 27 12.5 52.5t14.5 37.5l6 12h88l77 319q74 17 146 17q32 0 67 -4t55 -8l19 -5l-78 -319h205l78 319q73 17 145 17q32 0 67.5 -4t55.5 -8l19 -5l-78 -319h65q6 -41 -4 -102 q-4 -27 -12 -53t-14 -38l-6 -12h-86l-82 -369h65q8 -41 -2 -102q-4 -27 -12.5 -52.5t-14.5 -37.5l-6 -12h-86l-75 -320q-74 -16 -146 -16q-32 0 -67.5 4t-54.5 8l-19 4l76 320h-205l-76 -320q-73 -16 -145 -16q-32 0 -67.5 4t-54.5 8zM516 532h205l82 369h-205z" />
<glyph unicode="$" horiz-adv-x="1165" d="M68 123q14 81 32.5 157t30.5 112l12 36q49 10 117 10q30 0 58.5 -2.5t41.5 -5.5l13 -2l18 -160q3 -2 8 -6t24 -14.5t41 -18t58.5 -14t77.5 -6.5q85 0 126 41.5t58 146.5l9 58q6 41 -25.5 71t-86 50t-121 39.5t-131.5 47.5t-116.5 65.5t-77 101.5t-12.5 149l8 57 q29 177 132.5 278.5t298.5 125.5l30 190q74 17 146 17q32 0 67 -4.5t55 -8.5l19 -4l-31 -186q68 -7 127 -23.5t94 -34.5t60 -35t35 -29l10 -11q-14 -81 -33.5 -157t-32.5 -112l-12 -36q-47 -11 -115 -11q-30 0 -58.5 2.5t-42.5 5.5l-13 3l-17 159q-2 2 -5 6.5t-16 14.5 t-29 18t-45 14.5t-62 6.5q-80 0 -121 -44t-56 -145l-8 -57q-5 -33 19.5 -58t68.5 -41t100 -35t114.5 -36.5t112.5 -48t94 -68.5t58.5 -99t6.5 -138l-8 -58q-30 -180 -140.5 -281t-314.5 -124l-31 -189q-73 -16 -145 -16q-32 0 -67.5 4t-55.5 8l-19 4l31 187q-75 7 -140 23.5 t-104.5 34.5t-68 35t-39.5 29z" />
<glyph unicode="%" horiz-adv-x="1626" d="M205 1001l28 185q21 131 106.5 195.5t258.5 64.5q175 0 240.5 -64.5t44.5 -195.5l-29 -185q-21 -129 -108 -194.5t-261 -65.5q-173 0 -237 65t-43 195zM240 8l1065 1417q77 17 155 17q34 0 72 -4t59 -8l21 -5l-1065 -1417q-80 -16 -156 -16q-35 0 -72.5 4t-58.5 8z M471 1001q-10 -60 -1 -84t42 -24q35 0 51 23.5t25 84.5l28 185q9 62 0.5 85t-43.5 23q-33 0 -48.5 -23t-24.5 -85zM969 248l28 184q21 129 107.5 194.5t259.5 65.5q174 0 239 -65t44 -195l-29 -184q-21 -131 -107 -195.5t-260 -64.5q-173 0 -238 64.5t-44 195.5zM1235 248 q-10 -60 -1 -84.5t42 -24.5q35 0 51 24t25 85l28 184q10 62 1 85.5t-44 23.5q-33 0 -48.5 -23.5t-24.5 -85.5z" />
<glyph unicode="&#x26;" horiz-adv-x="1361" d="M117 381l8 68q37 219 258 288q-181 70 -150 269l9 55q32 194 172.5 290.5t423.5 96.5q145 0 238 -25t137 -74t55.5 -120.5t-6.5 -163.5l-5 -41h195q6 -41 -4 -102q-4 -28 -12.5 -54.5t-14.5 -38.5l-6 -12h-194l-72 -489q-12 -76 4.5 -107t71.5 -31q30 0 55.5 6t36 11.5 t10.5 7.5q4 -41 -4 -90q-4 -22 -11 -45t-12 -35l-6 -12q0 -2 -29 -13t-85 -22.5t-111 -11.5q-95 0 -158 37q-11 -2 -54 -11t-66 -13t-62.5 -8.5t-75.5 -4.5q-162 0 -274 25.5t-174.5 77t-83 123.5t-4.5 169zM485 381q-18 -105 26 -148t179 -43q42 0 127 25q-8 43 6 113 l113 737q15 100 -13.5 139t-121.5 39t-135 -42t-56 -140l-8 -55q-14 -95 15 -135t122 -40h78q8 -41 -2 -102q-5 -28 -13.5 -54t-13.5 -38l-6 -12h-77q-105 0 -151 -40t-60 -136z" />
<glyph unicode="'" horiz-adv-x="376" d="M242 995l39 430q67 17 135 17q29 0 62 -4t51 -8l18 -5l-101 -430q-53 -16 -104 -16q-23 0 -48 4t-38 8z" />
<glyph unicode="(" horiz-adv-x="581" d="M86 61l174 1115q29 183 151.5 274.5t368.5 91.5q6 -45 -4 -106q-4 -27 -12.5 -52.5t-14.5 -37.5l-6 -11q-71 0 -102 -35t-43 -124l-174 -1115q-14 -90 6.5 -124.5t91.5 -34.5q8 -42 -2 -103q-5 -28 -13.5 -54t-14.5 -38l-5 -12q-246 0 -338.5 91.5t-62.5 274.5z" />
<glyph unicode=")" horiz-adv-x="581" d="M-2 -305q-6 45 4 104q4 27 11 53t13 38l5 12q71 0 102 34.5t45 124.5l174 1115q12 89 -8.5 124t-91.5 35q-6 40 4 101q4 29 12.5 55.5t14.5 38.5l6 12q246 0 338 -91t63 -275l-174 -1115q-30 -183 -152 -274.5t-366 -91.5z" />
<glyph unicode="*" horiz-adv-x="950" d="M205 1028q14 62 45 119q14 26 33.5 53.5t32.5 41.5l12 15l217 -98l22 266q67 17 135 17q29 0 62 -4t52 -8l18 -5l-62 -266l252 101q27 -52 37 -113q4 -24 5 -54t0 -47l-1 -18l-256 -65l135 -207q-54 -47 -113 -82q-26 -16 -58.5 -31t-51.5 -22l-19 -7l-98 226l-168 -226 q-57 23 -106 60q-21 16 -41.5 37t-30.5 34l-10 13l192 205z" />
<glyph unicode="+" horiz-adv-x="819" d="M137 512q-6 39 4 102q4 27 12.5 53t14.5 38l6 12h232l36 246q49 12 119 12q31 0 60 -3t42 -6l13 -3l-37 -246h233q6 -42 -4 -103q-4 -27 -12 -52.5t-14 -37.5l-6 -12h-234l-37 -244q-47 -12 -119 -12q-31 0 -59.5 3t-41.5 6l-13 3l37 244h-232z" />
<glyph unicode="," horiz-adv-x="499" d="M-43 -250q5 8 13 22.5t31.5 65.5t44 108.5t45 149.5t40.5 189q84 16 168 16q36 0 77 -4t64 -8l23 -4q-17 -103 -54.5 -196.5t-79 -152.5t-80 -103t-63.5 -63l-26 -20q-56 -16 -107 -16q-22 0 -46 4t-37 8z" />
<glyph unicode="-" horiz-adv-x="561" d="M129 463q-6 38 4 104q4 27 12.5 53t14.5 38l6 12h440q6 -42 -4 -103q-4 -28 -12.5 -54t-14.5 -38l-6 -12h-440z" />
<glyph unicode="." horiz-adv-x="499" d="M76 8l47 277q88 16 176 16q38 0 81 -4t67 -8l24 -4l-47 -277q-90 -16 -176 -16q-39 0 -82 4t-66 8z" />
<glyph unicode="/" horiz-adv-x="796" d="M35 8l604 1417q88 17 176 17q38 0 81 -4t67 -8l24 -5l-604 -1417q-90 -16 -176 -16q-39 0 -82 4t-67 8z" />
<glyph unicode="0" horiz-adv-x="1136" d="M121 350l115 733q29 183 160.5 274t400.5 91q268 0 369.5 -90.5t72.5 -274.5l-115 -733q-29 -183 -160.5 -273.5t-400.5 -90.5q-268 0 -369.5 90t-72.5 274zM489 350q-12 -89 11 -124.5t100 -35.5t110.5 35.5t45.5 124.5l114 733q12 90 -10.5 125t-99.5 35t-110.5 -35.5 t-45.5 -124.5z" />
<glyph unicode="1" horiz-adv-x="995" d="M121 16q-8 29 0 70q3 19 9 37t10 27l5 8l222 37l153 1005l-241 -45q-8 29 2 84q4 24 11 47.5t12 35.5l5 11l375 109q56 0 117 -4t94 -8l33 -5l-193 -1230l209 -37q6 -29 0 -72q-4 -18 -10 -35.5t-10 -26.5l-4 -8q-156 -24 -404 -24q-110 0 -209 6t-143 12z" />
<glyph unicode="2" horiz-adv-x="1120" d="M68 20l43 254q14 93 60 166.5t108.5 120t135.5 85t145.5 71t133 66.5t103 83.5t51.5 112.5l8 57q17 111 -9.5 159t-105.5 48q-53 0 -99 -19.5t-66 -39.5l-19 -19l-70 -159q-46 -11 -114 -11q-30 0 -59 2.5t-42 5.5l-14 3q-6 123 25 305q6 6 19 15t58.5 32.5t98 41.5 t139 33t180.5 15q272 0 374 -102t69 -310l-9 -57q-12 -77 -44 -140.5t-75.5 -107t-97 -80t-110 -63t-113 -51t-108 -50.5t-92.5 -54.5t-68.5 -69t-34.5 -89.5l-10 -67h420l67 133q33 10 78 10q21 0 40 -2.5t28 -5.5l8 -2q6 -84 -17 -229q-5 -28 -13 -55.5t-14 -41.5l-5 -14 h-525q-123 0 -237.5 5t-167.5 10z" />
<glyph unicode="3" horiz-adv-x="1093" d="M82 172q3 18 8.5 35.5t10.5 29t9.5 20.5t7.5 14l3 5q0 -4 43.5 -24t133.5 -41t185 -21q126 0 178 42.5t70 148.5l8 63q14 101 -19 143t-138 42h-205q-6 42 4 108q5 29 13.5 57t13.5 41l6 13l354 369h-293l-61 -123q-33 -11 -78 -11q-21 0 -40 2.5t-28 5.5l-8 3 q-7 84 16 229q4 28 12.5 55.5t14.5 41.5l6 14h889q8 -42 -2 -103q-5 -28 -13.5 -54t-14.5 -38l-5 -12l-399 -396q403 0 344 -387l-8 -63q-22 -131 -91.5 -216t-207.5 -132t-348 -47q-61 0 -121.5 8t-103.5 19.5t-76.5 22.5t-50.5 19l-17 8q-1 5 -2.5 13.5t-3.5 37.5t4 58z " />
<glyph unicode="4" horiz-adv-x="1167" d="M117 305q-8 44 2 105l479 1015q68 15 170 15q48 0 93.5 -4t66.5 -8l22 -3l-411 -901h217l75 492q89 16 175 16q38 0 80.5 -4t65.5 -8l24 -4l-76 -492l92 -28q6 -41 -2 -90q-4 -23 -11.5 -45.5t-13.5 -34.5l-6 -11q-27 -10 -84 -10l-47 -297q-92 -16 -182 -16 q-40 0 -84.5 4t-69.5 8l-24 4l47 297h-598z" />
<glyph unicode="5" horiz-adv-x="1083" d="M82 172q3 18 8.5 35.5t10.5 29t9.5 20.5t7.5 14l3 5q0 -4 43.5 -24t133.5 -41t185 -21q120 0 170 42.5t68 148.5l12 92q14 100 -17.5 143t-129.5 43h-371q-6 43 6 109l144 645q187 21 462 21h334q6 -48 -4 -111q-10 -64 -24.5 -121.5t-23.5 -82.5l-9 -25q-33 -11 -80 -11 q-20 0 -38.5 2.5t-27.5 5.5l-8 3l-26 133h-283l-66 -350h54q154 0 256 -27t154.5 -78.5t68.5 -126.5t-2 -172l-12 -92q-33 -198 -182.5 -296.5t-454.5 -98.5q-61 0 -121.5 8t-103.5 19.5t-76.5 22.5t-50.5 19l-17 8q-1 5 -2.5 13.5t-3.5 37.5t4 58z" />
<glyph unicode="6" d="M121 350l108 699q65 399 643 399q84 0 165.5 -13t120.5 -25l40 -13q6 -42 -4 -103q-3 -17 -7.5 -34t-8.5 -29t-8 -21t-6 -14l-3 -6q0 2 -42 14.5t-128 25.5t-176 13q-105 0 -154 -47.5t-63 -144.5l-27 -187q14 9 39.5 21.5t99.5 33.5t142 21q195 0 266 -91t41 -274 l-35 -225q-29 -183 -160.5 -273.5t-400.5 -90.5q-268 0 -369.5 90t-72.5 274zM489 350q-12 -89 11 -124.5t100 -35.5t110.5 35.5t45.5 124.5l35 225q14 89 -10 124.5t-101 35.5q-41 0 -75.5 -14.5t-48.5 -28.5l-15 -14z" />
<glyph unicode="7" horiz-adv-x="1071" d="M215 6l594 1211h-348l-62 -123q-32 -11 -77 -11q-21 0 -40 2.5t-28 5.5l-8 3q-7 84 16 229q4 28 12.5 55.5t14.5 41.5l6 14h932q8 -42 -2 -103l-637 -1325q-71 -14 -180 -14q-51 0 -99.5 3.5t-70.5 6.5z" />
<glyph unicode="8" d="M111 350l18 119q28 196 207 268q-123 73 -94 258l14 88q29 183 156.5 274t384.5 91q256 0 353.5 -91t68.5 -274l-15 -88q-29 -186 -172 -258q149 -72 121 -268l-18 -119q-29 -183 -163 -273.5t-409 -90.5q-274 0 -377.5 90t-74.5 274zM479 350q-12 -90 13 -125t108 -35 t118.5 35.5t47.5 124.5l18 119q12 90 -12.5 125t-107.5 35t-118.5 -35.5t-47.5 -124.5zM610 995q-12 -91 6.5 -125t83.5 -34q66 0 95 34.5t41 124.5l14 88q12 90 -6.5 125t-83.5 35t-94 -35.5t-41 -124.5z" />
<glyph unicode="9" d="M141 37q-6 41 4 102q5 28 12.5 53t13.5 37.5t7 12.5q17 -6 48 -14.5t125.5 -23t187.5 -14.5q109 0 159 48t64 145l29 207q-14 -9 -39 -21.5t-98.5 -33.5t-141.5 -21q-195 0 -266 92t-41 275l31 200q29 185 160.5 276t400.5 91q268 0 369.5 -91t72.5 -276l-109 -698 q-65 -397 -655 -397q-87 0 -170.5 12.5t-123.5 25.5zM573 881q-14 -90 9 -125t100 -35q41 0 76 13.5t50 27.5l15 14l47 305q12 91 -10.5 126.5t-99.5 35.5t-110.5 -35.5t-45.5 -126.5z" />
<glyph unicode=":" horiz-adv-x="499" d="M76 8l47 277q88 16 176 16q38 0 81 -4t67 -8l24 -4l-47 -277q-90 -16 -176 -16q-39 0 -82 4t-66 8zM190 739l46 277q88 16 176 16q38 0 81 -4t67 -8l24 -4l-45 -277q-93 -16 -179 -16q-39 0 -81.5 4t-65.5 8z" />
<glyph unicode=";" horiz-adv-x="499" d="M-43 -250q5 8 13 22.5t31.5 65.5t44 108.5t45 149.5t40.5 189q84 16 168 16q36 0 77 -4t64 -8l23 -4q-17 -103 -54.5 -196.5t-79 -152.5t-80 -103t-63.5 -63l-26 -20q-56 -16 -107 -16q-22 0 -46 4t-37 8zM190 739l46 277q88 16 176 16q38 0 81 -4t67 -8l24 -4l-45 -277 q-93 -16 -179 -16q-39 0 -81.5 4t-65.5 8z" />
<glyph unicode="&#x3c;" horiz-adv-x="950" d="M141 616l908 459q3 -70 -7 -127q-4 -25 -13 -56.5t-16 -49.5l-7 -19l-388 -207l326 -204q4 -70 -6 -127q-4 -25 -13.5 -56.5t-16.5 -50.5l-7 -18z" />
<glyph unicode="=" horiz-adv-x="860" d="M104 313q-5 40 5 103q4 27 12 52.5t14 37.5l6 12h740q6 -41 -4 -102q-4 -27 -12.5 -53t-14.5 -38l-6 -12h-740zM170 719q-8 38 4 104q4 27 12.5 53t14.5 38l6 12h739q6 -42 -4 -103q-4 -28 -12.5 -54t-14.5 -38l-6 -12h-739z" />
<glyph unicode="&#x3e;" horiz-adv-x="950" d="M94 160q-4 72 6 129q4 24 13 55.5t17 50.5l7 19l387 204l-325 205q-4 70 6 129q4 24 13 55t16 49l8 19l759 -457z" />
<glyph unicode="?" horiz-adv-x="1105" d="M238 1006q-7 123 24 305q7 6 19.5 15t58.5 32.5t99 41.5t139.5 33t181.5 15q278 0 381.5 -102t70.5 -310l-8 -57q-10 -64 -37 -114t-61.5 -82t-74 -58t-78.5 -47t-71.5 -43t-55.5 -52.5t-29 -68.5l-9 -59q-94 -17 -186 -17q-41 0 -86.5 4t-70.5 8l-25 5l8 59 q11 74 45.5 130.5t77 87.5t91 60t89.5 50.5t71.5 56.5t37.5 80l8 57q17 111 -11 159t-114 48q-53 0 -99 -14.5t-66 -29.5l-19 -15l-72 -178q-47 -11 -115 -11q-30 0 -58.5 2.5t-41.5 5.5zM348 8l47 277q95 16 187 16q41 0 86.5 -4t70.5 -8l25 -4l-47 -277q-95 -16 -187 -16 q-41 0 -86.5 4t-70.5 8z" />
<glyph unicode="@" horiz-adv-x="1587" d="M70 86l71 481q19 116 73 201.5t152 147t247.5 92t353.5 30.5q333 0 464 -94t99 -285l-70 -464l127 -37q6 -29 0 -72q-4 -18 -10 -35.5t-10 -26.5l-4 -8q-117 -24 -301 -24q-47 0 -98 4t-78 8l-27 4l8 62q-5 -3 -13.5 -9t-36.5 -20.5t-56.5 -25.5t-69.5 -20t-80 -9 q-164 0 -224 76t-36 229l4 22q21 130 122 201.5t314 95.5l168 23l2 26q14 97 -34.5 136t-194.5 39q-217 0 -307.5 -59t-114.5 -208l-72 -481q-28 -179 49 -242t316 -63q145 0 290 21t219 41t74 24l2 -5q1 -5 2.5 -14t3 -21t1 -29.5t-3.5 -35.5q-5 -29 -15 -56t-17 -40 l-7 -12q-29 -9 -81 -22t-205 -34.5t-298 -21.5q-282 0 -446.5 58t-222 168.5t-29.5 283.5zM920 291q-8 -55 9 -78t70 -23q18 0 34.5 7t28 16.5t20.5 19t14 16.5l4 7l24 178l-94 -18q-96 -19 -106 -103z" />
<glyph unicode="A" horiz-adv-x="1447" d="M29 16q-8 31 0 74q4 21 10.5 40t10.5 28l5 8l125 31l420 1040l-119 31q-6 28 2 75q3 19 9 37.5t11 27.5l5 9q169 25 442 25q61 0 126.5 -4t100.5 -8l35 -5l119 -1228l119 -31q6 -29 -2 -76q-4 -19 -10 -37.5t-10 -27.5l-5 -9q-121 -24 -260 -24q-114 0 -208.5 6 t-132.5 12l-38 6q-8 31 0 74q4 21 10.5 40t11.5 28l5 8l147 31l-8 180h-338l-59 -180l141 -31q6 -29 -2 -76q-4 -19 -10 -37.5t-10 -27.5l-4 -9q-131 -24 -385 -24q-63 0 -126.5 6t-95.5 12zM700 602h240l-37 551z" />
<glyph unicode="B" horiz-adv-x="1310" d="M39 16q-8 31 0 74q4 21 10.5 40t11.5 28l5 8l147 29l160 1044l-140 29q-5 28 3 75q3 19 9 37.5t11 27.5l4 9q251 27 660 27q284 0 393.5 -95t77.5 -288l-9 -55q-32 -201 -233 -271q202 -70 166 -286l-8 -68q-33 -197 -177 -294t-440 -97q-182 0 -345 6.5t-235 13.5z M604 211h123q94 0 135 37.5t56 132.5l8 68q14 95 -15.5 135.5t-122.5 40.5h-122zM702 840h123q81 0 118.5 38.5t49.5 127.5l8 55q12 87 -13.5 123.5t-106.5 36.5h-123z" />
<glyph unicode="C" horiz-adv-x="1142" d="M129 397l98 639q33 206 175.5 309t428.5 103q95 0 176.5 -14t130 -34t83.5 -40.5t49 -34.5l14 -14q-14 -81 -33.5 -157t-32.5 -112l-12 -36q-46 -11 -114 -11q-30 0 -59 2.5t-43 5.5l-13 3l-16 159q-2 2 -6 6.5t-19 14.5t-32.5 18t-47.5 14.5t-63 6.5q-85 0 -123.5 -42 t-53.5 -147l-98 -639q-15 -106 20.5 -147t147.5 -41q100 0 203 21.5t155 41t54 23.5v-3q1 -3 2 -8t2 -12t1 -16.5v-20.5t-1.5 -25t-3.5 -28q-5 -32 -15.5 -62t-18.5 -44l-7 -13q-21 -9 -58 -21.5t-145 -34t-209 -21.5q-159 0 -267 26.5t-167.5 79.5t-79 128t-2.5 177z" />
<glyph unicode="D" horiz-adv-x="1308" d="M39 16q-8 31 0 74q4 21 10.5 40t11.5 28l5 8l147 29l160 1044l-140 29q-5 28 3 75q3 19 9 37.5t11 27.5l4 9q249 27 668 27q290 0 400 -101t77 -307l-98 -639q-33 -206 -176 -306.5t-433 -100.5q-187 0 -351.5 6.5t-236.5 13.5zM604 211h131q89 0 128.5 40.5t54.5 145.5 l98 639q15 105 -12 146t-115 41h-131z" />
<glyph unicode="E" d="M39 16q-8 31 0 74q4 21 10.5 40t11.5 28l5 8l147 31l160 1040l-140 31q-5 28 3 75q3 19 9 37.5t11 27.5l4 9q259 17 606 17h434q6 -53 -6 -123q-12 -73 -27 -135t-23 -88l-9 -25q-33 -8 -82 -8q-20 0 -38.5 2t-26.5 4l-9 2l-41 145h-282l-51 -358h393q6 -45 -4 -113 q-5 -30 -14 -58t-15 -41l-6 -13h-393l-58 -400h293l82 146q33 8 78 8q22 0 41.5 -2t27.5 -4l9 -2q6 -84 -19 -248q-5 -31 -14 -62t-15 -46l-6 -15h-444q-155 0 -305.5 4t-223.5 8z" />
<glyph unicode="F" horiz-adv-x="1110" d="M39 16q-8 31 0 74q4 21 10.5 40t11.5 28l5 8l147 31l160 1040l-140 31q-5 28 3 75q3 19 9 37.5t11 27.5l4 9q259 17 606 17h420q6 -53 -6 -123q-12 -73 -27 -135t-23 -88l-9 -25q-33 -8 -82 -8q-20 0 -38.5 2t-26.5 4l-9 2l-41 145h-268l-51 -358h399q6 -45 -4 -113 q-5 -30 -14 -58t-15 -41l-6 -13h-399l-64 -428l139 -31q6 -29 -2 -76q-4 -19 -10 -37.5t-10 -27.5l-4 -9q-131 -24 -342 -24q-94 0 -177.5 6t-119.5 12z" />
<glyph unicode="G" horiz-adv-x="1196" d="M129 397l98 639q33 206 178 309t437 103q95 0 177.5 -14t132.5 -34t86.5 -40.5t51.5 -34.5l15 -14q-14 -81 -33.5 -157t-31.5 -112l-13 -36q-47 -11 -115 -11q-30 0 -59 2.5t-43 5.5l-13 3l-16 159q-7 7 -20 17t-59 26.5t-99 16.5q-90 0 -131 -42t-56 -147l-98 -639 q-15 -105 12.5 -145.5t116.5 -40.5q42 0 78.5 8.5t52.5 16.5l15 8l49 338h-129q-8 44 4 114q5 30 14 58t15 40l6 13h88q109 0 210.5 -5.5t147.5 -10.5l47 -5l-112 -698q-9 -4 -25.5 -10.5t-71 -23.5t-112 -30t-143.5 -23.5t-171 -10.5q-293 0 -403.5 100.5t-77.5 306.5z" />
<glyph unicode="H" horiz-adv-x="1486" d="M39 16q-8 31 0 74q4 21 10.5 40t11.5 28l5 8l147 31l160 1040l-140 31q-5 28 3 75q3 19 9 37.5t11 27.5l4 9q131 25 342 25q94 0 177.5 -6t120.5 -12l36 -7q6 -31 0 -74q-4 -21 -10.5 -39.5t-11.5 -27.5l-5 -8l-147 -31l-60 -397h349l59 397l-139 31q-6 28 2 75 q3 19 9 37.5t10 27.5l5 9q131 25 342 25q94 0 177.5 -6t119.5 -12l37 -7q6 -31 0 -74q-4 -21 -10.5 -39.5t-10.5 -27.5l-5 -8l-148 -31l-160 -1040l140 -31q6 -29 -2 -76q-4 -19 -10 -37.5t-11 -27.5l-4 -9q-131 -24 -342 -24q-94 0 -177.5 6t-120.5 12l-36 6q-8 31 0 74 q4 21 10.5 40t11.5 28l5 8l147 31l62 419h-348l-62 -419l139 -31q6 -29 -2 -76q-4 -19 -10 -37.5t-10 -27.5l-4 -9q-131 -24 -342 -24q-94 0 -177.5 6t-119.5 12z" />
<glyph unicode="I" horiz-adv-x="749" d="M39 16q-8 31 0 74q4 21 10.5 40t11.5 28l5 8l147 31l160 1040l-140 31q-5 28 3 75q3 19 9 37.5t11 27.5l4 9q131 25 342 25q94 0 177.5 -6t120.5 -12l36 -7q6 -31 0 -74q-4 -21 -10.5 -39.5t-11.5 -27.5l-5 -8l-147 -31l-160 -1040l139 -31q6 -29 -2 -76 q-4 -19 -10 -37.5t-10 -27.5l-4 -9q-131 -24 -342 -24q-94 0 -177.5 6t-119.5 12z" />
<glyph unicode="J" horiz-adv-x="1013" d="M43 63q-12 47 0 119q4 30 14 57t17 39t10 15q2 -6 32.5 -25t95 -39t132.5 -20q77 0 113 41.5t51 146.5l129 840l-139 31q-6 28 2 75q3 19 9 37.5t11 27.5l4 9q131 25 342 25q94 0 177.5 -6t120.5 -12l36 -7q6 -31 0 -74q-4 -21 -10.5 -39.5t-11.5 -27.5l-4 -8l-148 -31 l-129 -840q-33 -206 -171.5 -308.5t-416.5 -102.5q-70 0 -136.5 19t-98.5 39z" />
<glyph unicode="K" horiz-adv-x="1400" d="M39 16q-8 31 0 74q4 21 10.5 40t11.5 28l5 8l147 31l160 1040l-140 31q-5 28 3 75q3 19 9 37.5t11 27.5l4 9q131 25 342 25q94 0 177.5 -6t120.5 -12l36 -7q6 -31 0 -74q-4 -21 -10.5 -39.5t-11.5 -27.5l-5 -8l-147 -31l-57 -397l53 16l250 399l-39 13q-6 28 2 75 q3 19 9 37.5t10 27.5l5 9q131 25 342 25q49 0 107.5 -6t92.5 -12l34 -7q6 -31 0 -74q-4 -21 -10.5 -39.5t-11.5 -27.5l-5 -8l-149 -31l-316 -500l183 -540l141 -31q6 -29 -2 -76q-4 -19 -10 -37.5t-11 -27.5l-4 -9q-130 -24 -241 -24q-103 0 -191.5 6t-125.5 12l-38 6 q-8 31 0 74q4 21 10.5 40t11.5 28l5 8l59 12l-149 438l-55 -16l-60 -403l139 -31q6 -29 -2 -76q-4 -19 -10 -37.5t-10 -27.5l-4 -9q-131 -24 -342 -24q-94 0 -177.5 6t-119.5 12z" />
<glyph unicode="L" horiz-adv-x="1126" d="M39 16q-8 31 0 74q4 21 10.5 40t11.5 28l5 8l147 31l160 1040l-140 31q-5 28 3 75q3 19 9 37.5t11 27.5l4 9q131 25 342 25q94 0 177.5 -6t120.5 -12l36 -7q6 -31 0 -74q-4 -21 -10.5 -39.5t-11.5 -27.5l-5 -8l-147 -31l-154 -1012h285l82 146q33 8 78 8q22 0 41 -2 t28 -4l8 -2q7 -84 -18 -248q-5 -31 -14 -62t-15 -46l-6 -15h-436q-155 0 -305.5 4t-223.5 8z" />
<glyph unicode="M" horiz-adv-x="1878" d="M39 16q-8 31 0 74q4 21 10.5 40t11.5 28l5 8l147 31l160 1040l-140 31q-5 28 3 75q3 19 9 37.5t11 27.5l4 9q131 25 367 25q76 0 151 -4t112 -8l38 -5l121 -757l352 759q127 15 262 15q111 0 211.5 -6t145.5 -12l44 -7q6 -31 0 -74q-4 -21 -10.5 -39.5t-11.5 -27.5l-4 -8 l-148 -31l-159 -1040l139 -31q6 -29 -2 -76q-4 -19 -10 -37.5t-10 -27.5l-5 -9q-131 -24 -332 -24q-89 0 -170 6t-117 12l-36 6q-8 31 0 74q4 21 10.5 40t11.5 28l4 8l148 31l111 759l-340 -739q-76 -14 -162 -14q-37 0 -77 3.5t-62 7.5l-21 3l-119 737l-110 -757l139 -31 q6 -29 -2 -76q-4 -19 -10 -37.5t-11 -27.5l-4 -9q-131 -24 -332 -24q-89 0 -170 6t-117 12z" />
<glyph unicode="N" horiz-adv-x="1464" d="M39 16q-8 31 0 74q4 21 10.5 40t11.5 28l5 8l147 31l160 1040l-140 31q-5 28 3 75q3 19 9 37.5t11 27.5l4 9q121 25 311 25q36 0 76.5 -4t62.5 -8l23 -5l295 -772l80 584l-139 31q-6 28 2 75q3 19 9 37.5t10 27.5l5 9q131 25 332 25q89 0 170 -6t117 -12l37 -7 q6 -31 0 -74q-4 -21 -10.5 -39.5t-11.5 -27.5l-5 -8l-147 -31l-193 -1229q-84 -16 -166 -16q-36 0 -76.5 4t-63.5 8l-22 4l-294 772l-80 -583l139 -31q6 -29 -2 -76q-4 -19 -10 -37.5t-11 -27.5l-4 -9q-131 -24 -332 -24q-89 0 -170 6t-117 12z" />
<glyph unicode="O" horiz-adv-x="1216" d="M129 397l98 639q33 206 177.5 309t433.5 103q147 0 247.5 -26.5t155.5 -80t72 -128.5t0 -177l-99 -639q-33 -206 -177 -308.5t-433 -102.5q-147 0 -247.5 26.5t-155.5 79.5t-72 128t0 177zM518 397q-15 -106 11 -147t114 -41t127.5 41.5t54.5 146.5l99 639 q15 106 -11 147.5t-114 41.5t-128 -42t-55 -147z" />
<glyph unicode="P" horiz-adv-x="1259" d="M39 16q-8 31 0 74q4 21 10.5 40t11.5 28l5 8l147 31l160 1042l-140 29q-5 28 3 75q3 19 9 37.5t11 27.5l4 9q261 27 639 27q290 0 400 -101t77 -307l-12 -78q-33 -206 -175.5 -306.5t-432.5 -100.5q-33 0 -58.5 1.5t-35.5 3.5l-9 1l-51 -360l139 -31q6 -29 -2 -76 q-4 -19 -10 -37.5t-10 -27.5l-4 -9q-131 -24 -342 -24q-94 0 -177.5 6t-119.5 12zM692 772h103q88 0 126.5 40.5t53.5 145.5l12 78q15 105 -12 146t-115 41h-102z" />
<glyph unicode="Q" horiz-adv-x="1216" d="M129 397l98 639q33 206 177.5 309t433.5 103q147 0 247.5 -26.5t155.5 -80t72 -128.5t0 -177l-99 -639q-24 -146 -99 -238.5t-216 -135.5l160 -373q-97 -17 -191 -17q-41 0 -89 4.5t-75 8.5l-28 4l-103 336q-184 4 -290 53t-141 136.5t-13 221.5zM518 397 q-15 -106 11 -147t114 -41t127.5 41.5t54.5 146.5l99 639q15 106 -11 147.5t-114 41.5t-128 -42t-55 -147z" />
<glyph unicode="R" horiz-adv-x="1376" d="M39 16q-8 31 0 74q4 21 10.5 40t11.5 28l5 8l147 31l160 1040l-140 31q-5 28 3 75q3 19 9 37.5t11 27.5l4 9q257 27 655 27q290 0 400.5 -101t77.5 -307l-11 -69q-21 -129 -83 -216t-175 -135l117 -419l137 -31q6 -29 -2 -76q-4 -19 -10 -37.5t-10 -27.5l-4 -9 q-131 -24 -242 -24q-94 0 -177.5 6t-120.5 12l-36 6q-8 31 0 74q4 21 10.5 40t11.5 28l5 8l51 12l-80 381q-33 0 -62.5 2t-43.5 4l-13 2l-53 -370l139 -31q6 -29 -2 -76q-4 -19 -10 -37.5t-10 -27.5l-4 -9q-131 -24 -342 -24q-94 0 -177.5 6t-119.5 12zM692 780h119 q88 0 127.5 41.5t54.5 145.5l11 69q15 105 -12 146t-115 41h-119z" />
<glyph unicode="S" horiz-adv-x="1171" d="M84 123q14 81 33 157t31 112l12 36q48 10 116 10q30 0 58.5 -2.5t41.5 -5.5l13 -2l19 -160q7 -7 20.5 -16.5t64 -26t111.5 -16.5q80 0 119.5 41.5t56.5 146.5l8 58q5 36 -18 64t-64.5 45.5t-95.5 37t-110 36.5t-108 46.5t-90.5 66t-56 95t-5.5 133.5l8 57 q33 207 173 309.5t417 102.5q92 0 170.5 -14t124.5 -34t79 -40.5t46 -34.5l12 -14q-14 -81 -33.5 -157t-32.5 -112l-12 -36q-47 -11 -115 -11q-30 0 -58.5 2.5t-42.5 5.5l-13 3l-17 159q-1 2 -4 6.5t-15 14.5t-27 18t-42 14.5t-59 6.5q-74 0 -112.5 -44t-53.5 -145l-8 -57 q-5 -33 18.5 -58t66 -41t96.5 -35t111 -36.5t109 -48t90.5 -68.5t56 -99t5.5 -138l-9 -58q-33 -207 -176 -309t-422 -102q-101 0 -188 14t-139.5 34t-91 40.5t-53.5 34.5z" />
<glyph unicode="T" horiz-adv-x="1234" d="M211 1063q-9 84 18 248q5 31 14 62t15 46l6 15h1147q6 -53 -6 -123q-12 -73 -27 -135t-24 -88l-8 -25q-33 -8 -82 -8q-20 0 -38.5 2t-27.5 4l-8 2l-41 145h-156l-153 -1011l139 -31q6 -29 -2 -76q-4 -19 -10 -37.5t-11 -27.5l-4 -9q-131 -24 -342 -24q-94 0 -177.5 6 t-120.5 12l-36 6q-8 31 0 74q4 21 10.5 40t11.5 28l5 8l148 31l153 1011h-155l-82 -145q-33 -8 -78 -8q-22 0 -41.5 2t-27.5 4z" />
<glyph unicode="U" horiz-adv-x="1437" d="M233 1268q-5 28 3 75q3 19 9 37.5t11 27.5l4 9q131 25 342 25q86 0 161.5 -6t108.5 -12l33 -7q6 -31 0 -74q-4 -21 -10.5 -39.5t-10.5 -27.5l-5 -8l-117 -31l-129 -840q-15 -106 10.5 -147t110.5 -41q86 0 124.5 41.5t53.5 146.5l129 840l-109 31q-6 28 2 75q3 19 9 37.5 t11 27.5l5 9q118 25 311 25q94 0 177.5 -6t120.5 -12l36 -7q6 -31 0 -74q-4 -21 -10.5 -39.5t-11.5 -27.5l-5 -8l-147 -31l-129 -840q-33 -206 -175.5 -308.5t-430.5 -102.5t-396 102t-75 309l129 840z" />
<glyph unicode="V" horiz-adv-x="1488" d="M223 1268q-6 28 2 75q3 19 9 37.5t11 27.5l5 9q130 25 280 25q114 0 208.5 -6t132.5 -12l38 -7q6 -31 0 -74q-4 -21 -10.5 -39.5t-10.5 -27.5l-5 -8l-148 -31l58 -948l344 948l-136 31q-5 28 3 75q3 19 9 37.5t11 27.5l4 9q131 25 383 25q68 0 136.5 -6t103.5 -12l35 -7 q6 -31 0 -74q-4 -21 -10.5 -39.5t-11.5 -27.5l-5 -8l-148 -31l-503 -1229q-126 -16 -265 -16q-61 0 -126.5 4t-100.5 8l-35 4l-121 1229z" />
<glyph unicode="W" horiz-adv-x="2213" d="M223 1268q-6 28 2 75q3 19 9 37.5t11 27.5l5 9q131 25 293 25q109 0 201 -6t130 -12l37 -7q6 -31 0 -74q-4 -21 -10.5 -39.5t-10.5 -27.5l-5 -8l-148 -31l8 -911l351 1099q106 17 239 17q57 0 116 -4t89 -8l31 -5l8 -1099l283 911l-140 31q-6 28 2 75q3 19 9 37.5 t11 27.5l5 9q131 25 377 25q72 0 143 -6t106 -12l35 -7q6 -31 0 -74q-4 -21 -10.5 -39.5t-11.5 -27.5l-4 -8l-148 -31l-436 -1229q-127 -16 -264 -16q-62 0 -128.5 4t-101.5 8l-36 4l2 1069l-328 -1069q-131 -16 -268 -16q-62 0 -127.5 4t-100.5 8l-34 4l-52 1229z" />
<glyph unicode="X" horiz-adv-x="1402" d="M29 16q-8 31 0 74q4 21 10.5 40t10.5 28l5 8l146 31l348 534l-172 506l-139 31q-6 28 2 75q3 19 9 37.5t11 27.5l4 9q131 25 254 25q112 0 206 -6t132 -12l37 -7q6 -31 0 -74q-4 -21 -10.5 -39.5t-11.5 -27.5l-5 -8l-92 -21l76 -313l164 315l-86 19q-6 28 2 75 q3 19 9 37.5t11 27.5l4 9q131 25 383 25q54 0 115 -6t95 -12l34 -7q6 -31 0 -74q-4 -21 -10.5 -39.5t-11.5 -27.5l-5 -8l-145 -31l-324 -506l183 -536l137 -29q6 -29 -2 -76q-4 -19 -10 -37.5t-11 -27.5l-4 -9q-131 -24 -256 -24q-116 0 -212.5 6t-134.5 12l-38 6 q-8 31 0 74q4 21 10.5 40t11.5 28l5 8l102 20l-86 340l-186 -340l94 -20q6 -29 -2 -76q-4 -19 -10 -37.5t-10 -27.5l-4 -9q-133 -24 -394 -24q-52 0 -111.5 6t-93.5 12z" />
<glyph unicode="Y" horiz-adv-x="1390" d="M223 1268q-6 28 2 75q3 19 9 37.5t11 27.5l5 9q131 25 264 25q112 0 206 -6t132 -12l37 -7q6 -31 0 -74q-4 -21 -10.5 -39.5t-11.5 -27.5l-5 -8l-102 -23l69 -418l191 418l-96 23q-6 28 2 75q3 19 9 37.5t11 27.5l4 9q131 25 383 25q58 0 121.5 -6t97.5 -12l35 -7 q6 -31 0 -74q-4 -21 -10.5 -39.5t-10.5 -27.5l-5 -8l-148 -31l-444 -725l-45 -315l139 -31q6 -29 -2 -76q-4 -19 -10 -37.5t-11 -27.5l-4 -9q-131 -24 -342 -24q-94 0 -177.5 6t-120.5 12l-36 6q-8 31 0 74q4 21 10.5 40t11.5 28l5 8l148 31l45 313l-218 727z" />
<glyph unicode="Z" horiz-adv-x="1060" d="M49 0q-8 43 4 113q5 30 14 58t15 41l6 13l680 973h-307l-82 -145q-33 -11 -78 -11q-22 0 -41.5 3t-27.5 5l-9 3q-6 94 21 258q5 31 14 62t15 46l6 15h954q8 -45 -4 -113q-5 -30 -14 -58.5t-15 -41.5l-6 -13l-682 -972h315l84 145q33 10 78 10q22 0 41.5 -2.5t27.5 -4.5 l9 -3q5 -94 -20 -258q-5 -31 -14 -62t-15 -46l-6 -15h-963z" />
<glyph unicode="[" horiz-adv-x="761" d="M27 -307l292 1849q172 0 328 -4.5t225 -9.5l70 -4q8 -38 -2 -97q-4 -25 -12 -49.5t-14 -36.5l-5 -12q-121 -18 -293 -18l-213 -1387q76 0 148 -4.5t105 -9.5l34 -4q6 -44 -4 -99q-4 -26 -12 -50.5t-14 -36.5l-5 -11q-242 -16 -628 -16z" />
<glyph unicode="\" horiz-adv-x="796" d="M260 1425q88 17 176 17q38 0 81 -4t67 -8l24 -5l154 -1417q-90 -16 -176 -16q-39 0 -82 4t-66 8l-24 4z" />
<glyph unicode="]" horiz-adv-x="761" d="M12 -291q-8 39 2 98q4 24 12.5 49t14.5 38l6 12q119 18 291 18l213 1387q-76 0 -147.5 4.5t-104.5 8.5l-33 5q-8 41 2 98q4 26 12 50.5t14 35.5l5 11q245 18 631 18l-293 -1849q-172 0 -328.5 4t-226.5 8z" />
<glyph unicode="^" horiz-adv-x="915" d="M195 1028l491 416l356 -414q-29 -39 -84 -84q-24 -19 -49.5 -35t-38.5 -22l-14 -6l-221 268l-305 -270q-39 20 -80 63q-17 19 -31 40t-19 32z" />
<glyph unicode="_" horiz-adv-x="1032" d="M-47 -309l37 207h1022l-37 -207h-1022z" />
<glyph unicode="`" horiz-adv-x="520" d="M229 1425q90 17 170 17q37 0 77.5 -4t62.5 -8l22 -5l133 -284q-51 -17 -104 -17q-22 0 -47 4t-39 8l-15 5z" />
<glyph unicode="a" horiz-adv-x="1136" d="M121 350l49 324q30 183 133.5 273.5t304.5 90.5q53 0 95 -13t57 -25l16 -13l2 29q95 16 187 16q41 0 86.5 -4t70.5 -8l25 -4l-113 -723q-7 -58 5 -79t53 -21q9 0 51 6q6 -41 -2 -90q-4 -21 -11 -43.5t-12 -35.5l-6 -12q-98 -32 -201 -32q-122 0 -166.5 24t-52.5 78 l-16.5 -11t-44.5 -24.5t-68.5 -31t-84.5 -24.5t-97 -11q-170 0 -229.5 90.5t-30.5 273.5zM489 350q-12 -89 2.5 -124.5t67.5 -35.5q28 0 53 16.5t36 33.5l11 16l64 418q14 89 -0.5 124.5t-67.5 35.5t-77.5 -35t-38.5 -125z" />
<glyph unicode="b" horiz-adv-x="1103" d="M117 8l192 1231l-127 37q-8 29 0 70q4 19 10 37t10 26l5 8q133 25 309 25q44 0 92.5 -4t75.5 -8l27 -5l-68 -430q0 2 25 12t67 20.5t78 10.5q208 0 284 -90.5t46 -273.5l-49 -324q-29 -182 -119 -273t-260 -91q-37 0 -73.5 8.5t-62 21t-45.5 25t-30 21.5l-10 8l-9 -62 q-94 -16 -186 -16q-41 0 -86.5 4t-70.5 8zM526 256l2.5 -7.5t8.5 -15.5t16 -20t24 -16t33 -7q53 0 78 35.5t37 124.5l49 324q14 88 0 124t-67 36t-78 -35.5t-39 -124.5z" />
<glyph unicode="c" horiz-adv-x="976" d="M121 350l49 324q30 183 159.5 273.5t387.5 90.5q93 0 181.5 -21t130.5 -42l42 -21q-12 -76 -30 -146t-30 -102l-12 -32q-45 -10 -108 -10q-27 0 -53 2.5t-38 5.5l-12 2l-20 133q0 2 -9 8t-30 12.5t-47 6.5q-67 0 -98 -35.5t-45 -124.5l-50 -324q-12 -89 18 -124.5 t124 -35.5q75 0 152 16.5t114 31t41 18.5l2 -14q2 -13 3.5 -35t-3.5 -53q-4 -27 -14 -53.5t-18 -38.5l-7 -13q-18 -7 -49.5 -17.5t-123 -28t-175.5 -17.5q-262 0 -361.5 90.5t-70.5 273.5z" />
<glyph unicode="d" horiz-adv-x="1146" d="M121 350l49 324q30 183 135 273.5t313 90.5q36 0 75 -10.5t61 -20.5t22 -12l35 244l-127 37q-8 29 0 70q4 19 10 37t10 26l5 8q117 25 301 25q45 0 95.5 -4t78.5 -8l28 -5l-178 -1132q-7 -58 5 -79t53 -21q9 0 51 6q6 -41 -2 -90q-4 -21 -11 -43.5t-12 -35.5l-6 -12 q-98 -32 -201 -32q-122 0 -166.5 24t-52.5 78l-16.5 -11t-44.5 -24.5t-68.5 -31t-84.5 -24.5t-97 -11q-170 0 -229.5 90.5t-30.5 273.5zM489 350q-12 -89 2.5 -124.5t67.5 -35.5q28 0 53 16.5t36 33.5l11 16l64 418q14 89 -0.5 124.5t-67.5 35.5t-77.5 -35t-38.5 -125z" />
<glyph unicode="e" horiz-adv-x="1042" d="M121 350l49 324q30 183 152 273.5t368 90.5q131 0 214.5 -23.5t123.5 -70t50 -114.5t-7 -156l-39 -244q-86 -29 -270 -29h-266l-7 -51q-12 -89 18 -124.5t124 -35.5q80 0 162 16.5t121.5 31t43.5 18.5l2 -14q3 -13 4.5 -35t-3.5 -53q-4 -27 -14 -53.5t-17 -38.5l-8 -13 q-19 -7 -52 -17.5t-130 -28t-187 -17.5q-262 0 -361.5 90.5t-70.5 273.5zM530 606h185l8 68q14 89 -0.5 124.5t-67.5 35.5t-77.5 -35t-38.5 -125z" />
<glyph unicode="f" horiz-adv-x="792" d="M-76 -391q-4 45 4 94q4 23 11.5 46.5t12.5 35.5l5 12q0 -2 8.5 -5.5t30.5 -7t49 -3.5q53 0 77.5 30t35.5 103l139 907l-127 39q-8 29 0 70q3 19 9 36.5t11 25.5l5 7q51 19 135 19l12 88q29 171 118 256.5t259 85.5q73 0 137 -7t92.5 -13.5t28.5 -8.5q4 -47 -4 -98 q-4 -22 -11 -45.5t-12 -35.5l-6 -13q0 1 -14.5 5t-44.5 7.5t-62 3.5q-53 0 -76.5 -30t-35.5 -107l-11 -82h215q6 -41 -4 -102q-4 -27 -12 -53.5t-14 -38.5l-6 -13h-215l-138 -903q-29 -170 -116.5 -254t-257.5 -84q-59 0 -116 8t-84 16z" />
<glyph unicode="g" horiz-adv-x="1073" d="M61 -289q4 28 14 54t16.5 37.5t8.5 13.5q-2 -2 38 -10t120.5 -16.5t163.5 -8.5q94 0 134 35.5t54 124.5l11 88q0 -2 -25 -12t-67 -20.5t-78 -10.5q-207 0 -283 90.5t-47 273.5l49 324q30 183 119.5 273.5t259.5 90.5q37 0 73.5 -8.5t62 -21t45.5 -25t30 -21.5l10 -8l8 62 q91 12 187 12q41 0 86.5 -3t70.5 -6l25 -3l-168 -1075q-30 -183 -168.5 -274t-423.5 -91q-83 0 -164 8t-121 16l-39 9q-1 5 -2.5 13t-3.5 35.5t4 53.5zM489 350q-12 -89 2.5 -124.5t67.5 -35.5t78 35.5t37 124.5l63 418l-2.5 7.5t-8 15.5t-15 20t-23.5 16t-33 7 q-53 0 -77.5 -35t-38.5 -125z" />
<glyph unicode="h" horiz-adv-x="1198" d="M117 8l192 1231l-127 37q-8 29 0 72q4 18 10 35.5t10 25.5l5 8q117 25 301 25q47 0 98 -4t78 -8l27 -5l-74 -471q5 3 13 9t35 20.5t54.5 25.5t67 20t76.5 9q170 0 230 -90.5t30 -273.5l-58 -383q-8 -56 4.5 -78.5t53.5 -22.5q19 0 51 9q6 -41 -2 -90q-4 -22 -11 -44.5 t-13 -34.5l-5 -12q-94 -32 -198 -32q-158 0 -216 76t-32 229l57 383q14 88 0 124t-67 36q-28 0 -53.5 -16.5t-37.5 -33.5l-12 -16l-119 -760q-94 -16 -186 -16q-41 0 -86.5 4t-70.5 8z" />
<glyph unicode="i" horiz-adv-x="688" d="M160 866q-6 29 0 72q4 18 10 35.5t10 26.5l4 8q117 24 301 24q47 0 98 -4t78 -8l27 -4l-113 -725q-8 -56 4.5 -78.5t53.5 -22.5q19 0 51 9q6 -41 -2 -90q-4 -22 -11 -44.5t-13 -34.5l-5 -12q-94 -32 -198 -32q-158 0 -216 76t-32 229l80 538zM344 1174l41 251 q94 17 186 17q41 0 86.5 -4t70.5 -8l26 -5l-41 -251q-97 -17 -189 -17q-41 0 -86 4.5t-70 8.5z" />
<glyph unicode="j" horiz-adv-x="645" d="M-55 -391q-4 45 4 94q4 23 11 46.5t12 35.5l5 12q0 -2 9 -5.5t31 -7t49 -3.5q53 0 77 30t35 105l139 913l-127 37q-6 29 0 72q4 18 10 35.5t10 26.5l5 8q117 24 301 24q47 0 98 -4t78 -8l27 -4l-172 -1100q-29 -170 -117 -255t-258 -85q-59 0 -116 8t-84 16zM375 1174 l41 251q94 17 186 17q41 0 86.5 -4t70.5 -8l25 -5l-41 -251q-96 -17 -188 -17q-41 0 -86 4.5t-69 8.5z" />
<glyph unicode="k" horiz-adv-x="1126" d="M96 8l193 1231l-127 37q-8 29 0 72q4 18 10 35.5t10 25.5l4 8q117 25 301 25q45 0 96 -4t79 -8l28 -5l-125 -796l35 10l131 213l-43 14q-6 29 0 72q4 18 10 35.5t10 26.5l5 8q119 24 301 24q61 0 117 -6t82 -12l26 -6q8 -29 0 -70q-3 -19 -9 -37t-11 -27l-5 -8l-139 -37 l-192 -297l127 -337l127 -37q6 -29 0 -72q-4 -18 -10 -35.5t-11 -26.5l-4 -8q-106 -24 -225 -24q-42 0 -85 4t-65 8l-22 4l-154 410l-33 -10l-63 -400q-94 -16 -186 -16q-41 0 -86.5 4t-70.5 8z" />
<glyph unicode="l" horiz-adv-x="624" d="M143 291l146 948l-127 37q-8 29 0 72q4 18 10 35.5t10 25.5l4 8q117 25 301 25q47 0 98 -4t78 -8l27 -5l-178 -1134q-8 -56 4 -78.5t53 -22.5q21 0 52 9q5 -41 -3 -90q-4 -22 -11 -44.5t-12 -34.5l-5 -12q-94 -32 -199 -32q-158 0 -216 76t-32 229z" />
<glyph unicode="m" horiz-adv-x="1794" d="M160 8l127 821l-127 37q-6 29 0 72q4 18 10 35.5t10 26.5l4 8q117 24 301 24q47 0 98 -4t78 -8l27 -4l-8 -62q5 3 13 9t35 20.5t54.5 25.5t67 20t76.5 9q172 0 225 -88q17 10 46.5 24.5t116 39t165.5 24.5q170 0 230 -90.5t30 -271.5l-58 -385q-8 -56 4.5 -78.5 t53.5 -22.5q19 0 51 9q6 -41 -2 -90q-4 -22 -11 -44.5t-13 -34.5l-5 -12q-94 -32 -198 -32q-158 0 -216 76t-32 229l57 385q14 88 0 123t-67 35q-28 0 -53 -14t-36.5 -27t-11.5 -17l-121 -768q-94 -16 -186 -16q-41 0 -86.5 4t-70.5 8l-25 4l104 668q14 88 0 123t-67 35 q-28 0 -54 -16.5t-38 -33.5l-11 -16l-119 -760q-94 -16 -186 -16q-41 0 -86.5 4t-70.5 8z" />
<glyph unicode="n" horiz-adv-x="1241" d="M160 8l127 821l-127 37q-6 29 0 70q4 19 10 37t10 27l4 8q117 24 301 24q45 0 96 -4t79 -8l28 -4l-8 -62q5 3 13 9t35 20.5t54.5 25.5t67 20t76.5 9q170 0 230 -90t30 -272l-58 -385q-8 -56 4.5 -78.5t53.5 -22.5q20 0 51 9q6 -41 -2 -90q-4 -22 -11 -44.5t-12 -34.5 l-6 -12q-94 -32 -198 -32q-158 0 -216 76t-32 229l57 383q14 88 0 124t-67 36q-28 0 -54 -16.5t-38 -33.5l-11 -16l-119 -760q-94 -16 -186 -16q-41 0 -86.5 4t-70.5 8z" />
<glyph unicode="o" horiz-adv-x="1052" d="M121 350l49 324q30 183 152 273.5t368 90.5t339 -90.5t63 -273.5l-50 -324q-29 -183 -151.5 -273.5t-368.5 -90.5t-338 90.5t-63 273.5zM489 350q-12 -89 2.5 -124.5t67.5 -35.5t78 35.5t37 124.5l49 324q14 89 -0.5 124.5t-67.5 35.5t-77.5 -35t-38.5 -125z" />
<glyph unicode="p" horiz-adv-x="1146" d="M94 -401l193 1230l-127 37q-6 29 0 72q4 18 10 35.5t10 26.5l4 8q117 24 301 24q45 0 96 -4t79 -8l28 -4l-8 -62q5 3 13 9t35 20.5t54.5 25.5t67 20t76.5 9q170 0 230 -90.5t30 -273.5l-49 -324q-29 -183 -135 -273.5t-314 -90.5q-36 0 -75 10.5t-61 20.5t-22 12 l-67 -430q-95 -17 -187 -17q-41 0 -86.5 4t-70.5 8zM584 350q-12 -90 2 -125t67 -35t78 35.5t37 124.5l49 324q14 88 0 124t-67 36q-28 0 -54 -16.5t-38 -33.5l-11 -16z" />
<glyph unicode="q" horiz-adv-x="1073" d="M121 350l49 324q30 183 119.5 273.5t259.5 90.5q37 0 73.5 -8.5t62 -21t45.5 -25t30 -21.5l10 -8l8 62q91 16 187 16q41 0 86.5 -4t70.5 -8l25 -4l-225 -1417q-95 -17 -187 -17q-41 0 -86.5 4t-70.5 8l-25 5l68 430q0 -2 -25 -12t-67 -20.5t-78 -10.5q-207 0 -283 90.5 t-47 273.5zM489 350q-12 -89 2.5 -124.5t67.5 -35.5t78 35.5t37 124.5l63 418l-2.5 7.5t-8 15.5t-15 20t-23.5 16t-33 7q-53 0 -77.5 -35t-38.5 -125z" />
<glyph unicode="r" horiz-adv-x="866" d="M160 8l127 821l-127 37q-6 29 0 70q4 19 10 37t10 27l4 8q117 24 301 24q45 0 96 -4t79 -8l28 -4l-14 -98q5 5 14.5 13t40 28.5t63 36.5t81.5 29t98 13q6 -45 -4 -106q-4 -27 -12.5 -54.5t-14.5 -41.5l-6 -13q-50 0 -100.5 -20t-86.5 -48.5t-64.5 -57t-42.5 -48.5 l-15 -20l-97 -621q-94 -16 -186 -16q-41 0 -86.5 4t-70.5 8z" />
<glyph unicode="s" horiz-adv-x="954" d="M66 68q13 76 30.5 146t29.5 102l11 32q46 10 109 10q27 0 52.5 -2.5t37.5 -5.5l12 -2l23 -123q0 -2 10.5 -10t37 -16.5t58.5 -8.5q50 0 71.5 21t29.5 74l6 41q2 20 -22 34.5t-64 25.5t-88 23.5t-94.5 34t-83 52t-54 82.5t-6.5 120l8 41q24 151 139.5 225t350.5 74 q90 0 177 -20.5t129 -41.5l42 -20q-12 -77 -30 -147.5t-30 -102.5l-12 -32q-45 -10 -108 -10q-27 0 -53 2.5t-38 5.5l-12 2l-20 133q0 2 -8 8t-27.5 12.5t-44.5 6.5q-43 0 -65.5 -22t-28.5 -73l-9 -41q-2 -19 23 -33t66 -24.5t91 -23.5t98.5 -35t86.5 -52.5t56.5 -83 t7.5 -120.5l-7 -41q-17 -100 -72.5 -165t-165 -100.5t-276.5 -35.5q-98 0 -191.5 21t-138.5 42z" />
<glyph unicode="t" horiz-adv-x="782" d="M160 860q-8 27 0 70q3 18 9 35.5t11 25.5l4 8q60 19 154 19l76 203q77 16 155 16q34 0 72 -4t59 -8l21 -4l-31 -197h195q6 -41 -4 -102q-4 -28 -12.5 -54t-14.5 -38l-6 -13h-195l-71 -489q-12 -76 4 -107t71 -31q30 0 56 6t36.5 11.5t10.5 7.5q4 -41 -4 -90 q-4 -22 -11 -45t-13 -35l-5 -12q0 -2 -31.5 -13t-93 -22.5t-121.5 -11.5q-173 0 -235 85t-33 257l74 493z" />
<glyph unicode="u" horiz-adv-x="1241" d="M160 866q-6 29 0 72q4 18 10 35.5t10 26.5l4 8q117 24 301 24q45 0 96 -4t79 -8l28 -4l-104 -666q-12 -90 2 -125t67 -35q18 0 34.5 7t28 16.5t20.5 19t14 16.5l4 7l118 760q95 16 187 16q41 0 86.5 -4t70.5 -8l25 -4l-113 -723q-7 -58 5 -79t53 -21q9 0 51 6 q6 -41 -2 -90q-4 -21 -11 -43.5t-12 -35.5l-6 -12q-98 -32 -200 -32q-122 0 -167 24t-53 78l-16.5 -11t-44.5 -24.5t-68.5 -31t-84.5 -24.5t-97 -11q-170 0 -229.5 90.5t-30.5 273.5l72 479z" />
<glyph unicode="v" horiz-adv-x="1157" d="M160 866q-6 29 0 72q4 18 10 35.5t10 26.5l4 8q117 24 301 24q45 0 96 -4t79 -8l28 -4l-104 -660q-12 -93 2 -129.5t67 -36.5q51 0 86.5 68.5t63.5 247.5q22 138 26.5 265.5t-1.5 186.5l-7 58q88 16 176 16q38 0 81 -4t67 -8l24 -4q2 -8 5 -23.5t9.5 -66.5t8.5 -106.5 t-2 -141t-19 -172.5q-45 -279 -171.5 -399.5t-381.5 -120.5q-246 0 -339 92t-64 278l72 473z" />
<glyph unicode="w" horiz-adv-x="1699" d="M160 866q-6 29 0 72q4 18 10 35.5t10 26.5l4 8q117 24 301 24q45 0 96 -4t79 -8l28 -4l-104 -660q-12 -93 2 -129.5t67 -36.5q30 0 54 24t45 79q0 12 3 35t3 28l104 660q95 16 187 16q41 0 86.5 -4t70.5 -8l25 -4l-105 -660q-12 -93 2.5 -129.5t67.5 -36.5 q51 0 86.5 68.5t63.5 247.5q22 138 26.5 265.5t-2.5 186.5l-6 58q88 16 176 16q38 0 81 -4t67 -8l24 -4q2 -8 5 -23.5t9.5 -66.5t8.5 -106.5t-2.5 -141t-18.5 -172.5q-45 -278 -162.5 -399t-349.5 -121q-100 0 -180 27t-125 75q-58 -49 -142 -75.5t-177 -26.5 q-224 0 -308 92t-55 278l72 473z" />
<glyph unicode="x" horiz-adv-x="1120" d="M18 16q-8 29 0 70q3 19 9 37t11 27l5 8l129 35l236 333l-125 303l-127 37q-6 29 0 72q4 18 10 35.5t10 26.5l4 8q117 24 213 24q42 0 88.5 -4t72.5 -8l26 -4l90 -305l67 141l-49 14q-6 29 0 72q4 18 10 35.5t10 26.5l5 8q119 24 301 24q57 0 112.5 -6t81.5 -12l27 -6 q8 -29 0 -70q-3 -19 -9 -37t-11 -27l-5 -8l-129 -35l-211 -305l134 -331l126 -37q6 -29 0 -72q-4 -18 -10 -35.5t-10 -26.5l-4 -8q-117 -24 -213 -24q-42 0 -88.5 4t-72.5 8l-25 4l-101 332l-90 -170l49 -12q6 -29 0 -72q-4 -18 -10 -35.5t-10 -26.5l-4 -8 q-119 -24 -301 -24q-57 0 -112.5 6t-82.5 12z" />
<glyph unicode="y" horiz-adv-x="1167" d="M156 -289q4 28 14 54t16.5 37.5t8.5 13.5q-2 -2 38 -10t120 -16.5t163 -8.5q94 0 134.5 35.5t54.5 124.5l10 86q-4 -4 -22.5 -12.5t-60 -18.5t-87.5 -10q-207 0 -283 90.5t-47 273.5l72 479l-127 37q-6 29 0 72q4 18 10 35.5t10 26.5l4 8q117 24 301 24q45 0 96 -4t79 -8 l28 -4l-104 -666q-12 -90 2 -125t67 -35q18 0 34.5 7t28 16.5t20.5 19t14 16.5l4 7l118 760q95 16 187 16q41 0 86.5 -4t70.5 -8l25 -4l-168 -1075q-30 -183 -168.5 -274t-423.5 -91q-83 0 -163.5 8t-119.5 16l-40 9q-1 5 -2.5 13t-3.5 35.5t4 53.5z" />
<glyph unicode="z" horiz-adv-x="952" d="M63 0q-7 39 3 102q4 28 12 54t14 38l6 13l527 610h-234l-67 -133q-33 -10 -78 -10q-21 0 -40 2.5t-28 5.5l-8 2q-7 84 18 229q4 28 12.5 55.5t14.5 41.5l6 14h823q6 -41 -4 -102q-4 -28 -12 -54t-14 -38l-6 -13l-527 -610h236l78 133q30 10 73 10q21 0 39.5 -2.5 t26.5 -5.5l8 -2q7 -84 -16 -229q-5 -28 -13.5 -56t-14.5 -41l-5 -14h-830z" />
<glyph unicode="{" horiz-adv-x="673" d="M125 514q-8 41 2 102q4 26 12.5 52.5t14.5 39.5l6 13q70 0 101.5 36t45.5 124l45 295q29 183 151.5 274.5t368.5 91.5q6 -40 -4 -106q-4 -27 -12 -52.5t-14 -37.5l-6 -11q-71 0 -102.5 -35t-43.5 -124l-45 -295q-28 -180 -129 -263q73 -87 45 -264l-45 -293 q-14 -90 6.5 -124.5t91.5 -34.5q8 -42 -2 -103q-4 -26 -12 -52t-14 -39l-6 -13q-246 0 -339 91.5t-63 274.5l45 293q14 91 -6.5 125.5t-91.5 34.5z" />
<glyph unicode="|" horiz-adv-x="438" d="M43 -197l274 1725q74 16 146 16q32 0 67 -4t54 -8l20 -4l-274 -1725q-74 -16 -146 -16q-32 0 -67.5 4t-54.5 8z" />
<glyph unicode="}" horiz-adv-x="673" d="M-2 -305q-6 45 4 104q4 27 11 53t13 38l5 12q71 0 102 34.5t45 124.5l45 293q28 180 127 264q-71 82 -43 263l45 295q12 89 -8.5 124t-91.5 35q-6 40 4 101q4 29 12.5 55.5t14.5 38.5l6 12q246 0 338 -91t63 -275l-45 -295q-14 -87 7 -123.5t91 -36.5q6 -46 -4 -105 q-4 -27 -11.5 -52.5t-13.5 -37.5l-5 -12q-71 0 -102.5 -35t-45.5 -125l-45 -293q-30 -183 -152 -274.5t-366 -91.5z" />
<glyph unicode="~" horiz-adv-x="917" d="M121 494l2 8q23 142 78.5 207t173.5 65q75 0 127.5 -16.5t73.5 -36.5t43.5 -36.5t44.5 -16.5q48 0 66 19.5t28 70.5q64 16 121 16q24 0 52.5 -4t44.5 -8l17 -4l-2 -8q-25 -146 -77.5 -209.5t-174.5 -63.5q-62 0 -107.5 11t-70 27.5t-42 32.5t-34 27t-34.5 11 q-49 0 -66.5 -19t-28.5 -73q-63 -15 -120 -15q-24 0 -53 3.5t-45 7.5z" />
<glyph unicode="&#xa1;" horiz-adv-x="520" d="M10 -401l154 970q94 17 186 17q41 0 86.5 -4t70.5 -8l25 -5l-153 -970q-94 -17 -186 -17q-41 0 -86.5 4t-70.5 8zM190 739l46 277q94 16 186 16q41 0 86.5 -4t70.5 -8l25 -4l-45 -277q-96 -16 -188 -16q-41 0 -86 4t-70 8z" />
<glyph unicode="&#xa2;" horiz-adv-x="976" d="M121 350l49 324q26 155 121 244t278 112l31 191q73 16 145 16q32 0 67.5 -4t55.5 -8l19 -4l-31 -193q58 -10 112 -28.5t78 -31.5l25 -14q-12 -76 -30 -146t-30 -102l-12 -32q-45 -10 -108 -10q-27 0 -53 2.5t-38 5.5l-12 2l-20 133q0 2 -9 8t-30 12.5t-47 6.5 q-67 0 -98 -35.5t-45 -124.5l-50 -324q-12 -89 18 -124.5t124 -35.5q75 0 151 14.5t115 28t39 15.5l1 -6q1 -5 2.5 -14t2 -21t0 -29t-3.5 -35q-4 -27 -14 -52.5t-18 -37.5l-7 -12q-88 -39 -207 -51l-30 -187q-74 -16 -146 -16q-32 0 -67 4t-55 8l-19 4l31 195 q-176 24 -242.5 111.5t-42.5 240.5z" />
<glyph unicode="&#xa3;" horiz-adv-x="1142" d="M49 0q-8 45 4 113q5 30 14 58t15 41l6 13h47l47 340h-47q-6 40 4 103q4 27 12.5 52.5t14.5 37.5l6 12h47l39 266q33 206 171.5 309t416.5 103q95 0 176 -14t129.5 -34t83.5 -40.5t49 -34.5l14 -14q-14 -81 -33 -157t-31 -112l-13 -36q-47 -11 -115 -11q-30 0 -59 2.5 t-43 5.5l-13 3l-16 159q-2 2 -6 6.5t-19 14.5t-32.5 18t-47.5 14.5t-63 6.5q-76 0 -110.5 -42t-49.5 -147l-39 -266h230q6 -41 -4 -102q-4 -27 -12.5 -53t-14.5 -38l-6 -12h-230l-47 -340h594q6 -42 -6 -112q-5 -30 -13.5 -58.5t-14.5 -41.5l-5 -13h-1030z" />
<glyph unicode="&#xa4;" horiz-adv-x="901" d="M100 408l133 114q-2 32 5 92l10 60q9 71 41 119l-109 129q29 39 84 82q24 20 49 36t39 22l13 5l131 -152q63 13 100 13q29 0 96 -13l180 152q39 -18 80 -63q17 -19 31 -39.5t19 -31.5l6 -11l-150 -129q15 -52 6 -119l-10 -60q-5 -41 -27 -94l97 -112q-27 -39 -82 -84 q-24 -19 -50 -35t-40 -23l-13 -6l-100 121q-68 -21 -135 -21q-78 0 -131 21l-137 -121q-37 19 -78 64q-18 19 -32.5 40t-19.5 32zM453 614q-6 -41 13 -60t69 -19t73 19t29 60l10 60q5 41 -13.5 59.5t-68.5 18.5t-73.5 -18.5t-28.5 -59.5z" />
<glyph unicode="&#xa5;" horiz-adv-x="1370" d="M213 1268q-6 28 2 75q3 19 9 37.5t11 27.5l5 9q131 25 264 25q112 0 206 -6t132 -12l37 -7q6 -31 0 -74q-4 -21 -10.5 -39.5t-11.5 -27.5l-5 -8l-102 -23l73 -391l187 391l-97 23q-6 28 2 75q3 19 9 37.5t11 27.5l5 9q131 25 383 25q58 0 121.5 -6t97.5 -12l35 -7 q6 -31 0 -74q-4 -21 -10.5 -39.5t-11.5 -27.5l-5 -8l-147 -31l-367 -598h142q1 -3 2 -9t3 -26t-3 -39q-4 -21 -10.5 -40t-11.5 -27l-5 -9h-199l-12 -88h199q1 -3 2 -9.5t3 -26.5t-3 -39q-4 -20 -10.5 -39t-11.5 -28l-5 -9h-196l-7 -53l140 -31q6 -29 -2 -76 q-4 -19 -10 -37.5t-11 -27.5l-4 -9q-131 -24 -342 -24q-94 0 -177.5 6t-120.5 12l-36 6q-8 31 0 74q4 21 10.5 40t11.5 28l5 8l147 31l6 53h-196q-1 3 -2 9t-3 26.5t3 40.5q4 20 10.5 39t11.5 27l4 9h195l12 88h-194q-1 3 -2 9t-3 25.5t3 41.5q4 20 10.5 38.5t10.5 26.5l5 9 h135l-178 598z" />
<glyph unicode="&#xa6;" horiz-adv-x="438" d="M43 -197l119 752q75 16 147 16q32 0 67 -4t54 -8l19 -4l-119 -752q-74 -16 -146 -16q-32 0 -67.5 4t-54.5 8zM199 776l118 752q74 16 146 16q32 0 67 -4t54 -8l20 -4l-119 -752q-75 -16 -147 -16q-32 0 -67 4t-53 8z" />
<glyph unicode="&#xa7;" horiz-adv-x="1161" d="M18 -287q14 81 33.5 157t32.5 112l12 36q49 11 117 11q30 0 58.5 -2.5t41.5 -5.5l13 -3l18 -159q2 -3 6.5 -8.5t22 -19t38 -23.5t55 -18.5t73.5 -8.5q96 0 136.5 38.5t55.5 139.5l4 25q5 36 -20.5 64t-71 45.5t-104 37t-119.5 36.5t-118 46.5t-99 66t-62 95t-8 133.5 l4 24q28 188 150 279q-92 85 -70 229l4 25q21 128 85.5 211t189 127.5t313.5 44.5q98 0 182.5 -14t135.5 -34t87.5 -40.5t51.5 -34.5l14 -14q-14 -81 -33.5 -157t-32.5 -112l-12 -36q-47 -11 -115 -11q-30 0 -58.5 2.5t-42.5 5.5l-13 3l-17 159q-2 3 -6.5 8.5t-20.5 19 t-35.5 23.5t-52 18.5t-69.5 8.5q-87 0 -129 -41t-57 -137l-4 -25q-5 -37 29 -64t92 -46t128.5 -38.5t139 -48t122.5 -68t81.5 -106t13.5 -153.5l-4 -24q-27 -180 -148 -277q89 -92 68 -231l-4 -25q-21 -128 -86 -211t-191.5 -127.5t-318.5 -44.5q-101 0 -188 14t-139.5 34 t-90.5 40.5t-53 34.5zM498 508q-2 -19 3 -35t19.5 -29t30 -22.5t42.5 -20t48 -17.5t56.5 -18.5t58.5 -19.5q44 36 59 146l4 24q2 16 0 29.5t-10.5 25.5t-16 21t-25 19t-29 16t-36 15t-37.5 13.5t-43.5 14.5t-43.5 14q-57 -33 -76 -152z" />
<glyph unicode="&#xa8;" horiz-adv-x="868" d="M264 1200l37 225q65 17 145 17q36 0 71.5 -4t52.5 -8l18 -5l-37 -225q-65 -14 -145 -14q-36 0 -71.5 3.5t-52.5 6.5zM694 1200l37 225q66 17 146 17q36 0 71 -4t52 -8l18 -5l-37 -225q-65 -14 -145 -14q-36 0 -71.5 3.5t-52.5 6.5z" />
<glyph unicode="&#xa9;" horiz-adv-x="1667" d="M143 492l70 450q20 125 76.5 217t157.5 158t254.5 98.5t361.5 32.5t351 -33t222.5 -98.5t106 -157.5t6.5 -217l-70 -450q-20 -125 -76.5 -217t-157.5 -158t-254.5 -98.5t-361.5 -32.5t-351 33t-222.5 98.5t-106 157.5t-6.5 217zM492 492q-18 -114 9.5 -178t114 -94 t250.5 -30t259 30.5t141.5 94t64.5 177.5l70 450q27 167 -53.5 234t-321.5 67q-163 0 -258.5 -30.5t-142 -94t-64.5 -176.5q1 1 -16.5 -111.5t-34.5 -225.5zM666 569l45 303q19 108 92 161.5t219 53.5q99 0 151 -25t63 -72.5t-1 -117.5v-10q-51 -8 -98 -8q-22 0 -46 2t-37 4 l-14 2v10q9 51 0 71t-41 20q-33 0 -47.5 -19.5t-23.5 -71.5l-45 -303q-8 -52 6 -71t63 -19q31 0 63 4t56 10.5t44 12.5t31 10l11 4q4 -24 -2 -61q-3 -17 -8 -33.5t-9 -24.5l-3 -8q-96 -39 -205 -39q-160 0 -221 53.5t-43 161.5z" />
<glyph unicode="&#xaa;" horiz-adv-x="813" d="M188 930q14 98 84 148.5t226 68.5l110 12l8 47q6 50 -6.5 69t-54.5 19q-22 0 -41.5 -5.5t-27.5 -10.5l-9 -6l-43 -86q-33 -6 -76 -6q-21 0 -39.5 1.5t-26.5 2.5l-9 2q-6 77 14 200q14 7 39.5 17t100 26.5t143.5 16.5q181 0 251.5 -60.5t51.5 -179.5l-54 -348l89 -27 q3 -20 -3 -53q-2 -13 -6 -25t-7 -18l-3 -6q-84 -18 -215 -18q-35 0 -71 3t-55 6l-19 3l6 43q-9 -7 -25.5 -17t-62.5 -27t-88 -17q-115 0 -157.5 57t-23.5 168zM453 922q-5 -36 6.5 -51t46.5 -15q17 0 32.5 10t21.5 20l7 11l17 119l-60 -10q-38 -8 -52 -27t-19 -57z" />
<glyph unicode="&#xab;" horiz-adv-x="1093" d="M121 555l489 414q37 -19 80 -64q17 -19 31 -39.5t19 -31.5l5 -11l-305 -268l224 -270q-29 -39 -84 -82q-24 -19 -49.5 -35t-38.5 -22l-13 -7zM551 555l489 414q37 -19 80 -64q17 -19 31 -39.5t19 -31.5l6 -11l-306 -268l224 -270q-29 -39 -84 -82q-24 -19 -49.5 -35 t-38.5 -22l-13 -7z" />
<glyph unicode="&#xac;" horiz-adv-x="823" d="M145 567q-5 42 5 105q4 27 12 52.5t14 37.5l6 12h262q123 0 237 -5t167 -10l53 -5l-51 -320q-82 -16 -158 -16q-35 0 -72 4t-57 8l-20 4l18 133h-416z" />
<glyph unicode="&#xad;" horiz-adv-x="561" d="M129 463q-6 38 4 104q4 27 12.5 53t14.5 38l6 12h440q6 -42 -4 -103q-4 -28 -12.5 -54t-14.5 -38l-6 -12h-440z" />
<glyph unicode="&#xae;" horiz-adv-x="1667" d="M143 492l70 450q20 125 76.5 217t157.5 158t254.5 98.5t361.5 32.5t351 -33t222.5 -98.5t106 -157.5t6.5 -217l-70 -450q-20 -125 -76.5 -217t-157.5 -158t-254.5 -98.5t-361.5 -32.5t-351 33t-222.5 98.5t-106 157.5t-6.5 217zM492 492q-18 -114 9.5 -178t114 -94 t250.5 -30t259 30.5t141.5 94t64.5 177.5l70 450q27 167 -53.5 234t-321.5 67q-163 0 -258.5 -30.5t-142 -94t-64.5 -176.5q1 1 -16.5 -111.5t-34.5 -225.5zM627 362l110 703q106 16 264 16q150 0 206 -52.5t38 -160.5l-4 -32q-21 -131 -127 -181l92 -293q-57 -8 -110 -8 q-24 0 -51 2t-43 4l-15 2l-74 263l-30 4l-39 -267q-58 -8 -111 -8q-24 0 -50.5 2t-40.5 4zM905 748h45q36 0 52 19t24 69l4 32q8 52 -2.5 71t-46.5 19h-45z" />
<glyph unicode="&#xaf;" horiz-adv-x="561" d="M164 1196q-8 27 0 76q3 20 9.5 38.5t11.5 27.5l5 8h605q1 -3 2 -9t2 -26t-2 -39q-4 -21 -11 -40t-12 -28l-6 -8h-604z" />
<glyph unicode="&#xb0;" horiz-adv-x="643" d="M285 1196l8 47q14 92 77.5 144.5t178.5 52.5t161.5 -52.5t32.5 -144.5l-8 -47q-14 -92 -77.5 -144.5t-178.5 -52.5t-161.5 52.5t-32.5 144.5zM449 1196q-5 -31 7.5 -45t45.5 -14t48.5 14t20.5 45l9 47q3 31 -9.5 44t-46.5 13t-49 -13t-18 -44z" />
<glyph unicode="&#xb1;" horiz-adv-x="819" d="M66 70q-6 37 4 96q4 26 11.5 50.5t12.5 35.5l6 12h699q8 -39 -2 -98q-4 -25 -12.5 -49t-14.5 -35l-6 -12h-698zM145 565q-5 39 5 105q4 27 12 52.5t14 37.5l6 12h232l37 244q48 14 118 14q31 0 60 -3.5t42 -6.5l13 -4l-37 -244h234q6 -41 -4 -102q-4 -28 -12.5 -54 t-14.5 -38l-6 -13h-234l-37 -241q-46 -15 -118 -15q-31 0 -60 3.5t-42 7.5l-13 4l37 241h-232z" />
<glyph unicode="&#xb2;" horiz-adv-x="585" d="M160 729l20 127q10 63 49.5 108.5t89.5 70t99.5 46t86.5 52t42 71.5l4 29q9 55 -3.5 78.5t-49.5 23.5q-26 0 -49 -9.5t-33 -19.5l-10 -10l-35 -79q-23 -5 -58 -5l-59 5q-2 63 14 155q9 8 26.5 19.5t81.5 31t140 19.5q136 0 187.5 -51.5t33.5 -157.5l-4 -29 q-10 -66 -50 -112t-90.5 -70.5t-100 -45t-87 -50t-43.5 -70.5l-4 -33h207l35 66q14 6 39 6q10 0 20 -1.5t15 -3.5l4 -1q2 -41 -8 -117q-3 -14 -7 -27.5t-7 -20.5l-3 -7h-264q-62 0 -119 3t-84 6z" />
<glyph unicode="&#xb3;" horiz-adv-x="571" d="M166 750q-6 22 0 53q3 15 7.5 28.5t7.5 20l3 6.5q0 -3 22.5 -13t67 -20t91.5 -10q63 0 88.5 20t33.5 72l5 31q8 49 -8.5 69.5t-67.5 20.5h-105q-9 -1 8 81q8 34 11 32l174 180h-139l-31 -59q-18 -7 -41 -7q-7 0 -13.5 0.5t-10.5 1.5t-7 2.5t-5 1.5l-1 1q-6 40 6 116 q1 9 3 18t4.5 15.5t4.5 11.5t4 8l1 3h446q9 1 -8 -77q-7 -32 -10 -30l-199 -194q201 0 172 -195l-4 -31q-16 -98 -93 -148t-233 -50q-48 0 -94 10.5t-68 20.5z" />
<glyph unicode="&#xb4;" horiz-adv-x="520" d="M182 1141l228 284q81 17 165 17q36 0 77.5 -4t65.5 -8l23 -5l-354 -284q-55 -17 -104 -17q-24 0 -49 4t-38 8z" />
<glyph unicode="&#xb5;" horiz-adv-x="1146" d="M-10 -170q4 19 9.5 37t8.5 27l4 8l140 37l135 890l-127 37q-6 29 0 72q4 18 10 35.5t10 26.5l4 8q117 24 301 24q47 0 98 -4t78 -8l27 -4l-119 -760l2.5 -7.5t8.5 -15.5t16 -20t24 -16t33 -7q53 0 78 35.5t37 124.5l72 479l-127 37q-6 29 0 72q4 18 10 35.5t10 26.5l4 8 q117 24 301 24q47 0 98 -4t78 -8l27 -4l-104 -666q-29 -182 -119 -273t-260 -91q-37 0 -73.5 8.5t-62 21t-45.5 25t-30 21.5l-10 8l-17 -131l127 -37q8 -29 0 -72q-3 -18 -9 -35.5t-10 -26.5l-5 -8q-125 -24 -322 -24q-88 0 -165.5 6t-111.5 12l-34 6q-6 29 0 70z" />
<glyph unicode="&#xb6;" horiz-adv-x="1034" d="M84 -74q3 18 8.5 35t10.5 29t9.5 21l7.5 15l3 5q0 -2 31 -12.5t94 -21.5t129 -11q74 0 106.5 35t44.5 124l35 240q-71 -41 -137 -41q-169 0 -228.5 91t-29.5 274l25 170q30 183 150 273.5t359 90.5q133 0 257 -7.5t181 -15.5l58 -8q8 -28 0 -69q-3 -19 -9 -37t-11 -26 l-4 -9l-140 -37l-137 -889q-29 -183 -153 -273.5t-375 -90.5q-73 0 -143 10.5t-104 21.5l-34 11q-2 5 -3.5 13t-4 35.5t3.5 53.5z" />
<glyph unicode="&#xb7;" horiz-adv-x="499" d="M135 393l45 277q88 16 176 16q38 0 81 -4t67 -8l24 -4l-45 -277q-92 -16 -178 -16q-39 0 -81.5 4t-65.5 8z" />
<glyph unicode="&#xb8;" horiz-adv-x="1062" d="M309 -313q2 14 6.5 27.5t8.5 20.5l4 7q42 -18 108 -18q52 0 75.5 14t29.5 53q3 18 -11 29.5t-34.5 20t-41 20.5t-32.5 37.5t-6 64.5l8 37h192l-8 -37q-3 -20 19 -35.5t49 -26.5t46.5 -39.5t12.5 -70.5q-14 -92 -83.5 -144.5t-188.5 -52.5q-48 0 -86.5 9t-52.5 19l-15 9 q-6 23 0 56z" />
<glyph unicode="&#xb9;" horiz-adv-x="526" d="M186 727q-4 13 0 33q1 10 4 20t6 14l3 5l108 18l76 496l-119 -21q-4 14 0 43q3 13 7 25t7 18l3 6l188 54q29 0 60 -2t47 -4l16 -2l-96 -613l106 -18q2 -16 0 -39l-12 -33q-80 -14 -205 -14q-56 0 -105.5 3.5t-71.5 7.5z" />
<glyph unicode="&#xba;" horiz-adv-x="743" d="M199 965l34 221q21 131 106.5 195.5t258.5 64.5q175 0 240.5 -64.5t44.5 -195.5l-35 -221q-21 -131 -107 -195.5t-260 -64.5q-173 0 -238 64.5t-44 195.5zM465 965q-8 -61 1 -85t42 -24q35 0 50.5 24t23.5 85l34 221q9 62 0.5 85t-43.5 23q-33 0 -48.5 -23t-24.5 -85z " />
<glyph unicode="&#xbb;" horiz-adv-x="1093" d="M82 285l303 268l-221 270q29 39 84 82q24 19 49 35t38 22l13 7l357 -416l-488 -414q-39 19 -80 64q-17 19 -31 39.5t-19 31.5zM512 285l303 268l-221 270q29 39 84 82q24 19 49 35t38 22l13 7l357 -416l-488 -414q-39 19 -80 64q-17 19 -31 39.5t-19 31.5z" />
<glyph unicode="&#xbc;" horiz-adv-x="1359" d="M137 8l1065 1417q64 17 125 17q27 0 57.5 -4t47.5 -8l16 -5l-1065 -1417q-64 -16 -125 -16q-27 0 -57.5 4t-46.5 8zM186 727q-4 13 0 33q1 10 4 20t6 14l3 5l108 18l76 496l-119 -21q-4 14 0 43q3 13 7 25t7 18l3 6l188 54q29 0 60 -2t47 -4l16 -2l-96 -613l106 -18 q2 -16 0 -39l-12 -33q-80 -14 -205 -14q-56 0 -105.5 3.5t-71.5 7.5zM797 154q-4 20 0 51l239 508q33 8 86 8q24 0 48 -2t36 -4l11 -2l-205 -449h102l39 244q45 8 88 8q20 0 42 -2t34 -4l12 -2l-39 -244l45 -14q4 -20 0 -47q-2 -11 -6 -22.5t-7 -16.5l-3 -6q-12 -6 -41 -6 l-23 -148q-47 -8 -94 -8q-20 0 -42.5 2t-34.5 4l-13 2l23 150h-297z" />
<glyph unicode="&#xbd;" horiz-adv-x="1411" d="M137 8l1065 1417q64 17 125 17q27 0 57.5 -4t47.5 -8l16 -5l-1065 -1417q-64 -16 -125 -16q-27 0 -57.5 4t-46.5 8zM186 727q-4 13 0 33q1 10 4 20t6 14l3 5l108 18l76 496l-119 -21q-4 14 0 43q3 13 7 25t7 18l3 6l188 54q29 0 60 -2t47 -4l16 -2l-96 -613l106 -18 q2 -16 0 -39l-12 -33q-80 -14 -205 -14q-56 0 -105.5 3.5t-71.5 7.5zM844 12l22 127q10 63 49 108.5t89 70t99.5 46t86.5 52t43 71.5l4 29q9 55 -3.5 78.5t-49.5 23.5q-26 0 -49 -9.5t-33 -18.5l-10 -10l-35 -80q-23 -4 -58 -4l-59 4q-2 63 12 155q9 8 27 19.5t82.5 31 t140.5 19.5q136 0 187.5 -51.5t33.5 -157.5l-4 -29q-10 -66 -50 -112t-90 -70.5t-100 -45t-87 -50t-43 -70.5l-7 -33h207l35 66q16 6 41 6q10 0 19.5 -1.5t13.5 -2.5l4 -2q1 5 2 -1q2 -43 -13 -128q-6 -41 -12 -43h-264q-62 0 -119.5 3t-84.5 6z" />
<glyph unicode="&#xbe;" horiz-adv-x="1359" d="M137 8l1065 1417q64 17 125 17q27 0 57.5 -4t47.5 -8l16 -5l-1065 -1417q-64 -16 -125 -16q-27 0 -57.5 4t-46.5 8zM166 750q-6 22 0 53q3 15 7.5 28.5t7.5 20l3 6.5q0 -3 22.5 -13t67 -20t91.5 -10q63 0 88.5 20t33.5 72l5 31q8 49 -8.5 69.5t-67.5 20.5h-105 q-9 -1 8 81q8 34 11 32l174 180h-139l-31 -59q-18 -7 -41 -7q-7 0 -13.5 0.5t-10.5 1.5t-7 2.5t-5 1.5l-1 1q-6 40 6 116q1 9 3 18t4.5 15.5t4.5 11.5t4 8l1 3h446q9 1 -8 -77q-7 -32 -10 -30l-199 -194q201 0 172 -195l-4 -31q-16 -98 -93 -148t-233 -50q-48 0 -94 10.5 t-68 20.5zM797 154q-4 20 0 51l239 508q33 8 86 8q24 0 48 -2t35 -4l12 -2l-205 -449h102l39 244q45 8 88 8q20 0 42 -2t34 -4l12 -2l-39 -244l45 -14q4 -20 0 -47q-1 -7 -3 -14t-4.5 -12.5t-4 -10t-3.5 -6.5l-1 -2q-12 -6 -41 -6l-23 -148q-47 -8 -94 -8q-20 0 -42.5 2 t-34.5 4l-13 2l23 150h-297z" />
<glyph unicode="&#xbf;" horiz-adv-x="1105" d="M55 -10l8 57q14 87 58 149t98.5 96.5t108 63t93.5 66.5t48 90l8 59q97 17 189 17q41 0 86 -4t70 -8l24 -5l-8 -59q-10 -64 -36.5 -114.5t-61.5 -82t-75 -57.5t-79 -46.5t-72.5 -42.5t-56.5 -52.5t-29 -69.5l-8 -57q-19 -111 9 -159t114 -48q53 0 99 14.5t66 29.5l19 15 l72 178q48 11 116 11q30 0 58.5 -2.5t41.5 -5.5l13 -3q7 -123 -24 -305q-6 -6 -19 -15t-58.5 -33t-98 -42.5t-139 -33.5t-181.5 -15q-278 0 -383 102.5t-70 311.5zM504 741l45 277q94 16 186 16q41 0 86.5 -4t70.5 -8l26 -4l-46 -277q-96 -16 -188 -16q-41 0 -86 4t-70 8z " />
<glyph unicode="&#xc0;" horiz-adv-x="1447" d="M29 16q-8 31 0 74q4 21 10.5 40t10.5 28l5 8l125 31l420 1040l-119 31q-6 28 2 75q3 19 9 37.5t11 27.5l5 9q169 25 442 25q61 0 126.5 -4t100.5 -8l35 -5l119 -1228l119 -31q6 -29 -2 -76q-4 -19 -10 -37.5t-10 -27.5l-5 -9q-121 -24 -260 -24q-114 0 -208.5 6 t-132.5 12l-38 6q-8 31 0 74q4 21 10.5 40t11.5 28l5 8l147 31l-8 180h-338l-59 -180l141 -31q6 -29 -2 -76q-4 -19 -10 -37.5t-10 -27.5l-4 -9q-131 -24 -385 -24q-63 0 -126.5 6t-95.5 12zM696 1829q92 16 172 16q37 0 77 -4t61 -8l22 -4l135 -285q-51 -16 -104 -16 q-22 0 -47 4t-40 8l-14 4zM700 602h240l-37 551z" />
<glyph unicode="&#xc1;" horiz-adv-x="1447" d="M29 16q-8 31 0 74q4 21 10.5 40t10.5 28l5 8l125 31l420 1040l-119 31q-6 28 2 75q3 19 9 37.5t11 27.5l5 9q169 25 442 25q61 0 126.5 -4t100.5 -8l35 -5l119 -1228l119 -31q6 -29 -2 -76q-4 -19 -10 -37.5t-10 -27.5l-5 -9q-121 -24 -260 -24q-114 0 -208.5 6 t-132.5 12l-38 6q-8 31 0 74q4 21 10.5 40t11.5 28l5 8l147 31l-8 180h-338l-59 -180l141 -31q6 -29 -2 -76q-4 -19 -10 -37.5t-10 -27.5l-4 -9q-131 -24 -385 -24q-63 0 -126.5 6t-95.5 12zM700 602h240l-37 551zM770 1544l225 285q84 16 168 16q36 0 77 -4t64 -8l23 -4 l-352 -285q-56 -16 -105 -16q-24 0 -49 4t-38 8z" />
<glyph unicode="&#xc2;" horiz-adv-x="1447" d="M29 16q-8 31 0 74q4 21 10.5 40t10.5 28l5 8l125 31l420 1040l-119 31q-6 28 2 75q3 19 9 37.5t11 27.5l5 9q169 25 442 25q61 0 126.5 -4t100.5 -8l35 -5l119 -1228l119 -31q6 -29 -2 -76q-4 -19 -10 -37.5t-10 -27.5l-5 -9q-121 -24 -260 -24q-114 0 -208.5 6 t-132.5 12l-38 6q-8 31 0 74q4 21 10.5 40t11.5 28l5 8l147 31l-8 180h-338l-59 -180l141 -31q6 -29 -2 -76q-4 -19 -10 -37.5t-10 -27.5l-4 -9q-131 -24 -385 -24q-63 0 -126.5 6t-95.5 12zM616 1544l240 283q80 16 158 16q34 0 72 -4t60 -8l21 -4l150 -283 q-52 -16 -105 -16q-22 0 -47 4t-39 8l-14 4l-123 150l-168 -150q-55 -16 -104 -16q-24 0 -49 4t-38 8zM700 602h240l-37 551z" />
<glyph unicode="&#xc3;" horiz-adv-x="1447" d="M29 16q-8 31 0 74q4 21 10.5 40t10.5 28l5 8l125 31l420 1040l-119 31q-6 28 2 75q3 19 9 37.5t11 27.5l5 9q169 25 442 25q61 0 126.5 -4t100.5 -8l35 -5l119 -1228l119 -31q6 -29 -2 -76q-4 -19 -10 -37.5t-10 -27.5l-5 -9q-121 -24 -260 -24q-114 0 -208.5 6 t-132.5 12l-38 6q-8 31 0 74q4 21 10.5 40t11.5 28l5 8l147 31l-8 180h-338l-59 -180l141 -31q6 -29 -2 -76q-4 -19 -10 -37.5t-10 -27.5l-4 -9q-131 -24 -385 -24q-63 0 -126.5 6t-95.5 12zM604 1546l2 8q8 48 19 83.5t28.5 65t41.5 47.5t57.5 28t76.5 10q55 0 96 -12 t62 -29t36 -33.5t30 -28.5t32 -12q41 0 59 19t27 69v11q54 16 103 16q21 0 44 -4t35 -8l13 -4v-9q-11 -62 -25 -102t-39 -71.5t-64 -45.5t-95 -14q-55 0 -96 11.5t-62.5 28t-37 33t-29.5 28t-31 11.5q-24 0 -38.5 -4.5t-24 -17.5t-14.5 -28.5t-11 -45.5q-52 -16 -101 -16 q-21 0 -44.5 4t-36.5 8zM700 602h240l-37 551z" />
<glyph unicode="&#xc4;" horiz-adv-x="1447" d="M29 16q-8 31 0 74q4 21 10.5 40t10.5 28l5 8l125 31l420 1040l-119 31q-6 28 2 75q3 19 9 37.5t11 27.5l5 9q169 25 442 25q61 0 126.5 -4t100.5 -8l35 -5l119 -1228l119 -31q6 -29 -2 -76q-4 -19 -10 -37.5t-10 -27.5l-5 -9q-121 -24 -260 -24q-114 0 -208.5 6 t-132.5 12l-38 6q-8 31 0 74q4 21 10.5 40t11.5 28l5 8l147 31l-8 180h-338l-59 -180l141 -31q6 -29 -2 -76q-4 -19 -10 -37.5t-10 -27.5l-4 -9q-131 -24 -385 -24q-63 0 -126.5 6t-95.5 12zM608 1546l37 226q66 14 146 14q36 0 71 -3.5t52 -6.5l18 -4l-37 -226 q-65 -16 -145 -16q-36 0 -71.5 4t-52.5 8zM700 602h240l-37 551zM1038 1546l37 226q66 14 146 14q36 0 71 -3.5t52 -6.5l18 -4l-37 -226q-65 -16 -145 -16q-36 0 -71.5 4t-52.5 8z" />
<glyph unicode="&#xc5;" horiz-adv-x="1447" d="M29 16q-8 31 0 74q4 21 10.5 40t10.5 28l5 8l125 31l420 1040l-119 31q-6 28 2 75q3 19 9 37.5t11 27.5l5 9q169 25 442 25q61 0 126.5 -4t100.5 -8l35 -5l119 -1228l119 -31q6 -29 -2 -76q-4 -19 -10 -37.5t-10 -27.5l-5 -9q-121 -24 -260 -24q-114 0 -208.5 6 t-132.5 12l-38 6q-8 31 0 74q4 21 10.5 40t11.5 28l5 8l147 31l-8 180h-338l-59 -180l141 -31q6 -29 -2 -76q-4 -19 -10 -37.5t-10 -27.5l-4 -9q-131 -24 -385 -24q-63 0 -126.5 6t-95.5 12zM700 602h240l-37 551zM791 1665l4 29q27 153 221 153q99 0 140 -40.5t28 -112.5 l-4 -29q-11 -72 -65.5 -113t-153.5 -41t-140 41t-30 113zM924 1665q-3 -28 8.5 -40.5t44.5 -12.5q64 0 70 53l4 29q4 28 -8 39.5t-46 11.5t-49 -11.5t-20 -39.5z" />
<glyph unicode="&#xc6;" horiz-adv-x="1658" d="M29 16q-8 31 0 74q4 21 10.5 40t10.5 28l5 8l123 31l420 1044l-119 27q-6 28 2 75q3 19 9 37.5t11 27.5l5 9q370 17 934 17h385q6 -53 -6 -123q-12 -73 -27 -135t-24 -88l-9 -25q-33 -8 -82 -8q-20 0 -38.5 2t-26.5 4l-8 2l-41 145h-234l-51 -358h395q6 -45 -4 -113 q-5 -30 -14 -58t-15 -41l-6 -13h-395l-57 -400h243l82 146q33 8 78 8q22 0 41.5 -2t27.5 -4l9 -2q7 -84 -18 -248q-5 -31 -14 -62t-15 -46l-6 -15h-396q-138 0 -278.5 4t-211.5 8l-71 4q-8 31 0 74q4 21 10.5 40t11.5 28l5 8l106 31l25 180h-199l-59 -180l86 -31 q6 -29 -2 -76q-4 -19 -10 -37.5t-11 -27.5l-4 -9q-126 -24 -331 -24q-71 0 -134 6t-91 12zM702 602h148l90 606h-10z" />
<glyph unicode="&#xc7;" horiz-adv-x="1142" d="M129 397l98 639q33 206 175.5 309t428.5 103q95 0 176.5 -14t130 -34t83.5 -40.5t49 -34.5l14 -14q-14 -81 -33.5 -157t-32.5 -112l-12 -36q-46 -11 -114 -11q-30 0 -59 2.5t-43 5.5l-13 3l-16 159q-2 2 -6 6.5t-19 14.5t-32.5 18t-47.5 14.5t-63 6.5q-85 0 -123.5 -42 t-53.5 -147l-98 -639q-15 -106 20.5 -147t147.5 -41q100 0 203 21.5t155 41t54 23.5v-3q1 -3 2 -8t2 -12t1 -16.5v-20.5t-1.5 -25t-3.5 -28q-5 -32 -15.5 -62t-18.5 -44l-7 -13q-19 -8 -52.5 -19.5t-133 -32.5t-193.5 -25l-4 -23q-3 -20 19 -35.5t49 -26.5t46.5 -39.5 t12.5 -70.5q-14 -92 -84 -144.5t-189 -52.5q-48 0 -86.5 9t-52.5 19l-14 9q-6 23 0 56q2 14 6.5 27.5t8.5 20.5l3 7q43 -18 109 -18q52 0 75 14t29 53q3 18 -11 29.5t-34.5 20t-41 20.5t-32.5 37.5t-6 64.5l6 31q-221 24 -304 124t-54 279z" />
<glyph unicode="&#xc8;" d="M39 16q-8 31 0 74q4 21 10.5 40t11.5 28l5 8l147 31l160 1040l-140 31q-5 28 3 75q3 19 9 37.5t11 27.5l4 9q259 17 606 17h434q6 -53 -6 -123q-12 -73 -27 -135t-23 -88l-9 -25q-33 -8 -82 -8q-20 0 -38.5 2t-26.5 4l-9 2l-41 145h-282l-51 -358h393q6 -45 -4 -113 q-5 -30 -14 -58t-15 -41l-6 -13h-393l-58 -400h293l82 146q33 8 78 8q22 0 41.5 -2t27.5 -4l9 -2q6 -84 -19 -248q-5 -31 -14 -62t-15 -46l-6 -15h-444q-155 0 -305.5 4t-223.5 8zM616 1829q92 16 172 16q37 0 77 -4t61 -8l22 -4l135 -285q-51 -16 -104 -16q-22 0 -47 4 t-39 8l-14 4z" />
<glyph unicode="&#xc9;" d="M39 16q-8 31 0 74q4 21 10.5 40t11.5 28l5 8l147 31l160 1040l-140 31q-5 28 3 75q3 19 9 37.5t11 27.5l4 9q259 17 606 17h434q6 -53 -6 -123q-12 -73 -27 -135t-23 -88l-9 -25q-33 -8 -82 -8q-20 0 -38.5 2t-26.5 4l-9 2l-41 145h-282l-51 -358h393q6 -45 -4 -113 q-5 -30 -14 -58t-15 -41l-6 -13h-393l-58 -400h293l82 146q33 8 78 8q22 0 41.5 -2t27.5 -4l9 -2q6 -84 -19 -248q-5 -31 -14 -62t-15 -46l-6 -15h-444q-155 0 -305.5 4t-223.5 8zM690 1544l225 285q84 16 168 16q36 0 77 -4t64 -8l23 -4l-352 -285q-55 -16 -104 -16 q-24 0 -49 4t-38 8z" />
<glyph unicode="&#xca;" d="M39 16q-8 31 0 74q4 21 10.5 40t11.5 28l5 8l147 31l160 1040l-140 31q-5 28 3 75q3 19 9 37.5t11 27.5l4 9q259 17 606 17h434q6 -53 -6 -123q-12 -73 -27 -135t-23 -88l-9 -25q-33 -8 -82 -8q-20 0 -38.5 2t-26.5 4l-9 2l-41 145h-282l-51 -358h393q6 -45 -4 -113 q-5 -30 -14 -58t-15 -41l-6 -13h-393l-58 -400h293l82 146q33 8 78 8q22 0 41.5 -2t27.5 -4l9 -2q6 -84 -19 -248q-5 -31 -14 -62t-15 -46l-6 -15h-444q-155 0 -305.5 4t-223.5 8zM537 1544l239 283q80 16 158 16q34 0 72 -4t60 -8l21 -4l150 -283q-51 -16 -104 -16 q-22 0 -47 4t-40 8l-14 4l-123 150l-168 -150q-55 -16 -104 -16q-24 0 -49 4t-38 8z" />
<glyph unicode="&#xcb;" d="M39 16q-8 31 0 74q4 21 10.5 40t11.5 28l5 8l147 31l160 1040l-140 31q-5 28 3 75q3 19 9 37.5t11 27.5l4 9q259 17 606 17h434q6 -53 -6 -123q-12 -73 -27 -135t-23 -88l-9 -25q-33 -8 -82 -8q-20 0 -38.5 2t-26.5 4l-9 2l-41 145h-282l-51 -358h393q6 -45 -4 -113 q-5 -30 -14 -58t-15 -41l-6 -13h-393l-58 -400h293l82 146q33 8 78 8q22 0 41.5 -2t27.5 -4l9 -2q6 -84 -19 -248q-5 -31 -14 -62t-15 -46l-6 -15h-444q-155 0 -305.5 4t-223.5 8zM528 1546l37 226q66 14 146 14q36 0 71 -3.5t52 -6.5l18 -4l-37 -226q-65 -16 -145 -16 q-36 0 -71.5 4t-52.5 8zM958 1546l37 226q66 14 146 14q36 0 71 -3.5t52 -6.5l18 -4l-37 -226q-65 -16 -145 -16q-36 0 -71.5 4t-52.5 8z" />
<glyph unicode="&#xcc;" horiz-adv-x="749" d="M39 16q-8 31 0 74q4 21 10.5 40t11.5 28l5 8l147 31l160 1040l-140 31q-5 28 3 75q3 19 9 37.5t11 27.5l4 9q131 25 342 25q94 0 177.5 -6t120.5 -12l36 -7q6 -31 0 -74q-4 -21 -10.5 -39.5t-11.5 -27.5l-5 -8l-147 -31l-160 -1040l139 -31q6 -29 -2 -76 q-4 -19 -10 -37.5t-10 -27.5l-4 -9q-131 -24 -342 -24q-94 0 -177.5 6t-119.5 12zM348 1829q92 16 172 16q37 0 77 -4t61 -8l22 -4l135 -285q-51 -16 -104 -16q-22 0 -47 4t-40 8l-14 4z" />
<glyph unicode="&#xcd;" horiz-adv-x="749" d="M39 16q-8 31 0 74q4 21 10.5 40t11.5 28l5 8l147 31l160 1040l-140 31q-5 28 3 75q3 19 9 37.5t11 27.5l4 9q131 25 342 25q94 0 177.5 -6t120.5 -12l36 -7q6 -31 0 -74q-4 -21 -10.5 -39.5t-11.5 -27.5l-5 -8l-147 -31l-160 -1040l139 -31q6 -29 -2 -76 q-4 -19 -10 -37.5t-10 -27.5l-4 -9q-131 -24 -342 -24q-94 0 -177.5 6t-119.5 12zM422 1544l225 285q84 16 168 16q36 0 77 -4t64 -8l23 -4l-352 -285q-56 -16 -105 -16q-24 0 -49 4t-38 8z" />
<glyph unicode="&#xce;" horiz-adv-x="749" d="M39 16q-8 31 0 74q4 21 10.5 40t11.5 28l5 8l147 31l160 1040l-140 31q-5 28 3 75q3 19 9 37.5t11 27.5l4 9q131 25 342 25q94 0 177.5 -6t120.5 -12l36 -7q6 -31 0 -74q-4 -21 -10.5 -39.5t-11.5 -27.5l-5 -8l-147 -31l-160 -1040l139 -31q6 -29 -2 -76 q-4 -19 -10 -37.5t-10 -27.5l-4 -9q-131 -24 -342 -24q-94 0 -177.5 6t-119.5 12zM268 1544l240 283q80 16 158 16q34 0 72 -4t60 -8l21 -4l150 -283q-52 -16 -105 -16q-22 0 -47 4t-39 8l-14 4l-123 150l-168 -150q-55 -16 -104 -16q-24 0 -49 4t-38 8z" />
<glyph unicode="&#xcf;" horiz-adv-x="749" d="M39 16q-8 31 0 74q4 21 10.5 40t11.5 28l5 8l147 31l160 1040l-140 31q-5 28 3 75q3 19 9 37.5t11 27.5l4 9q131 25 342 25q94 0 177.5 -6t120.5 -12l36 -7q6 -31 0 -74q-4 -21 -10.5 -39.5t-11.5 -27.5l-5 -8l-147 -31l-160 -1040l139 -31q6 -29 -2 -76 q-4 -19 -10 -37.5t-10 -27.5l-4 -9q-131 -24 -342 -24q-94 0 -177.5 6t-119.5 12zM281 1544l36 225q66 15 146 15q36 0 71 -4t52 -8l18 -3l-37 -225q-65 -16 -145 -16q-36 0 -71 4t-53 8zM670 1544l37 225q65 15 145 15q36 0 71 -4t53 -8l17 -3l-37 -225q-65 -16 -145 -16 q-36 0 -71 4t-52 8z" />
<glyph unicode="&#xd0;" horiz-adv-x="1320" d="M39 16q-8 31 0 74q4 21 10.5 40t11.5 28l5 8l147 29l66 442l-140 29q-6 30 2 77q4 19 10 37t11 26l4 9q55 11 147 19l60 405l-140 29q-5 28 3 75q3 19 9 37.5t11 27.5l4 9q198 27 680 27q290 0 400 -101t77 -307l-98 -639q-33 -206 -175.5 -306.5t-432.5 -100.5 q-216 0 -384 6.5t-228 13.5zM604 211h144q89 0 128 40.5t54 145.5l98 639q15 105 -12 146t-115 41h-143l-56 -383h144q8 -42 -2 -103q-5 -27 -13.5 -52.5t-14.5 -37.5l-5 -12h-143z" />
<glyph unicode="&#xd1;" horiz-adv-x="1464" d="M39 16q-8 31 0 74q4 21 10.5 40t11.5 28l5 8l147 31l160 1040l-140 31q-5 28 3 75q3 19 9 37.5t11 27.5l4 9q121 25 311 25q36 0 76.5 -4t62.5 -8l23 -5l295 -772l80 584l-139 31q-6 28 2 75q3 19 9 37.5t10 27.5l5 9q131 25 332 25q89 0 170 -6t117 -12l37 -7 q6 -31 0 -74q-4 -21 -10.5 -39.5t-11.5 -27.5l-5 -8l-147 -31l-193 -1229q-84 -16 -166 -16q-36 0 -76.5 4t-63.5 8l-22 4l-294 772l-80 -583l139 -31q6 -29 -2 -76q-4 -19 -10 -37.5t-11 -27.5l-4 -9q-131 -24 -332 -24q-89 0 -170 6t-117 12zM612 1546l2 8q10 60 25.5 102 t41.5 72.5t64.5 45t92.5 14.5q55 0 96 -12t62 -29t36 -33.5t30 -28.5t32 -12q41 0 59 19t27 69v11q53 16 102 16q21 0 44 -4t35 -8l13 -4v-9q-11 -62 -25 -102t-39 -71.5t-64 -45.5t-95 -14q-55 0 -96 11.5t-62.5 28t-37 33t-29.5 28t-31 11.5q-24 0 -38.5 -4.5t-24 -17.5 t-14.5 -28.5t-11 -45.5q-51 -16 -100 -16q-21 0 -44.5 4t-36.5 8z" />
<glyph unicode="&#xd2;" horiz-adv-x="1216" d="M129 397l98 639q33 206 177.5 309t433.5 103q147 0 247.5 -26.5t155.5 -80t72 -128.5t0 -177l-99 -639q-33 -206 -177 -308.5t-433 -102.5q-147 0 -247.5 26.5t-155.5 79.5t-72 128t0 177zM518 397q-15 -106 11 -147t114 -41t127.5 41.5t54.5 146.5l99 639 q15 106 -11 147.5t-114 41.5t-128 -42t-55 -147zM582 1829q92 16 172 16q37 0 77 -4t61 -8l21 -4l136 -285q-52 -16 -105 -16q-22 0 -47 4t-39 8l-14 4z" />
<glyph unicode="&#xd3;" horiz-adv-x="1216" d="M129 397l98 639q33 206 177.5 309t433.5 103q147 0 247.5 -26.5t155.5 -80t72 -128.5t0 -177l-99 -639q-33 -206 -177 -308.5t-433 -102.5q-147 0 -247.5 26.5t-155.5 79.5t-72 128t0 177zM518 397q-15 -106 11 -147t114 -41t127.5 41.5t54.5 146.5l99 639 q15 106 -11 147.5t-114 41.5t-128 -42t-55 -147zM655 1544l226 285q84 16 168 16q36 0 76.5 -4t63.5 -8l23 -4l-352 -285q-55 -16 -104 -16q-24 0 -49 4t-39 8z" />
<glyph unicode="&#xd4;" horiz-adv-x="1216" d="M129 397l98 639q33 206 177.5 309t433.5 103q147 0 247.5 -26.5t155.5 -80t72 -128.5t0 -177l-99 -639q-33 -206 -177 -308.5t-433 -102.5q-147 0 -247.5 26.5t-155.5 79.5t-72 128t0 177zM502 1544l239 283q80 16 158 16q34 0 72.5 -4t60.5 -8l21 -4l149 -283 q-51 -16 -104 -16q-22 0 -47 4t-39 8l-15 4l-123 150l-167 -150q-56 -16 -105 -16q-24 0 -49 4t-38 8zM518 397q-15 -106 11 -147t114 -41t127.5 41.5t54.5 146.5l99 639q15 106 -11 147.5t-114 41.5t-128 -42t-55 -147z" />
<glyph unicode="&#xd5;" horiz-adv-x="1216" d="M129 397l98 639q33 206 177.5 309t433.5 103q147 0 247.5 -26.5t155.5 -80t72 -128.5t0 -177l-99 -639q-33 -206 -177 -308.5t-433 -102.5q-147 0 -247.5 26.5t-155.5 79.5t-72 128t0 177zM489 1546l3 8q20 122 69.5 178t153.5 56q55 0 96 -12t62 -29t36 -33.5t30 -28.5 t32 -12q21 0 35 4.5t24 15t16 26.5t11 42v11q53 16 102 16q21 0 44 -4t35 -8l13 -4v-9q-11 -62 -25 -102t-39 -71.5t-64 -45.5t-95 -14q-55 0 -96 11.5t-62.5 28t-37 33t-29.5 28t-31 11.5q-45 0 -61 -19.5t-27 -76.5q-51 -16 -100 -16q-21 0 -44.5 4t-37.5 8zM518 397 q-11 -69 -3 -110.5t38 -59.5t90 -18q88 0 127.5 41.5t54.5 146.5l99 639q15 106 -11 147.5t-114 41.5t-128 -42t-55 -147z" />
<glyph unicode="&#xd6;" horiz-adv-x="1216" d="M129 397l98 639q33 206 177.5 309t433.5 103q147 0 247.5 -26.5t155.5 -80t72 -128.5t0 -177l-99 -639q-33 -206 -177 -308.5t-433 -102.5q-147 0 -247.5 26.5t-155.5 79.5t-72 128t0 177zM494 1544l36 225q66 15 146 15q36 0 71 -4t53 -8l17 -3l-37 -225 q-65 -16 -145 -16q-36 0 -71 4t-52 8zM518 397q-15 -106 11 -147t114 -41t127.5 41.5t54.5 146.5l99 639q15 106 -11 147.5t-114 41.5t-128 -42t-55 -147zM924 1544l37 225q65 15 145 15q36 0 71 -4t53 -8l17 -3l-37 -225q-65 -16 -145 -16q-36 0 -71 4t-52 8z" />
<glyph unicode="&#xd7;" horiz-adv-x="819" d="M100 395l244 219l-180 222q31 41 84 84q24 19 49.5 35t38.5 22l14 6l178 -223l248 223q39 -20 78 -63q18 -19 32 -40t18 -32l5 -12l-245 -222l178 -219q-27 -39 -84 -84q-24 -19 -50 -35t-40 -22l-13 -6l-176 221l-246 -221q-36 18 -77 63q-18 19 -32 40t-19 33z" />
<glyph unicode="&#xd8;" horiz-adv-x="1277" d="M66 8l114 150q-45 91 -20 239l98 639q33 206 177 309t433 103q166 0 273 -35l10 12q73 17 145 17q32 0 67.5 -4t54.5 -8l20 -5l-117 -151q45 -85 22 -238l-98 -639q-33 -206 -177 -308.5t-433 -102.5q-169 0 -275 34l-8 -12q-73 -16 -145 -16q-32 0 -67.5 4t-54.5 8z M537 250q28 -49 135 -49q99 0 143.5 43t61.5 153l57 369zM569 666l396 516q-34 51 -136 51q-98 0 -141 -44t-61 -153q-31 -196 -58 -370z" />
<glyph unicode="&#xd9;" horiz-adv-x="1437" d="M233 1268q-5 28 3 75q3 19 9 37.5t11 27.5l4 9q131 25 342 25q86 0 161.5 -6t108.5 -12l33 -7q6 -31 0 -74q-4 -21 -10.5 -39.5t-10.5 -27.5l-5 -8l-117 -31l-129 -840q-15 -106 10.5 -147t110.5 -41q86 0 124.5 41.5t53.5 146.5l129 840l-109 31q-6 28 2 75q3 19 9 37.5 t11 27.5l5 9q118 25 311 25q94 0 177.5 -6t120.5 -12l36 -7q6 -31 0 -74q-4 -21 -10.5 -39.5t-11.5 -27.5l-5 -8l-147 -31l-129 -840q-33 -206 -175.5 -308.5t-430.5 -102.5t-396 102t-75 309l129 840zM692 1829q92 16 172 16q37 0 77 -4t61 -8l22 -4l135 -285 q-51 -16 -104 -16q-22 0 -47 4t-40 8l-14 4z" />
<glyph unicode="&#xda;" horiz-adv-x="1437" d="M233 1268q-5 28 3 75q3 19 9 37.5t11 27.5l4 9q131 25 342 25q86 0 161.5 -6t108.5 -12l33 -7q6 -31 0 -74q-4 -21 -10.5 -39.5t-10.5 -27.5l-5 -8l-117 -31l-129 -840q-15 -106 10.5 -147t110.5 -41q86 0 124.5 41.5t53.5 146.5l129 840l-109 31q-6 28 2 75q3 19 9 37.5 t11 27.5l5 9q118 25 311 25q94 0 177.5 -6t120.5 -12l36 -7q6 -31 0 -74q-4 -21 -10.5 -39.5t-11.5 -27.5l-5 -8l-147 -31l-129 -840q-33 -206 -175.5 -308.5t-430.5 -102.5t-396 102t-75 309l129 840zM766 1544l225 285q84 16 168 16q36 0 77 -4t64 -8l23 -4l-352 -285 q-56 -16 -105 -16q-24 0 -49 4t-38 8z" />
<glyph unicode="&#xdb;" horiz-adv-x="1437" d="M233 1268q-5 28 3 75q3 19 9 37.5t11 27.5l4 9q131 25 342 25q86 0 161.5 -6t108.5 -12l33 -7q6 -31 0 -74q-4 -21 -10.5 -39.5t-10.5 -27.5l-5 -8l-117 -31l-129 -840q-15 -106 10.5 -147t110.5 -41q86 0 124.5 41.5t53.5 146.5l129 840l-109 31q-6 28 2 75q3 19 9 37.5 t11 27.5l5 9q118 25 311 25q94 0 177.5 -6t120.5 -12l36 -7q6 -31 0 -74q-4 -21 -10.5 -39.5t-11.5 -27.5l-5 -8l-147 -31l-129 -840q-33 -206 -175.5 -308.5t-430.5 -102.5t-396 102t-75 309l129 840zM612 1544l240 283q80 16 158 16q34 0 72 -4t60 -8l21 -4l150 -283 q-52 -16 -105 -16q-22 0 -47 4t-39 8l-14 4l-123 150l-168 -150q-55 -16 -104 -16q-24 0 -49 4t-38 8z" />
<glyph unicode="&#xdc;" horiz-adv-x="1437" d="M233 1268q-5 28 3 75q3 19 9 37.5t11 27.5l4 9q131 25 342 25q86 0 161.5 -6t108.5 -12l33 -7q6 -31 0 -74q-4 -21 -10.5 -39.5t-10.5 -27.5l-5 -8l-117 -31l-129 -840q-15 -106 10.5 -147t110.5 -41q86 0 124.5 41.5t53.5 146.5l129 840l-109 31q-6 28 2 75q3 19 9 37.5 t11 27.5l5 9q118 25 311 25q94 0 177.5 -6t120.5 -12l36 -7q6 -31 0 -74q-4 -21 -10.5 -39.5t-11.5 -27.5l-5 -8l-147 -31l-129 -840q-33 -206 -175.5 -308.5t-430.5 -102.5t-396 102t-75 309l129 840zM604 1544l37 225q65 15 145 15q36 0 71.5 -4t52.5 -8l18 -3l-37 -225 q-66 -16 -146 -16q-36 0 -71 4t-52 8zM1034 1544l37 225q66 15 146 15q36 0 71 -4t52 -8l18 -3l-37 -225q-65 -16 -145 -16q-36 0 -71.5 4t-52.5 8z" />
<glyph unicode="&#xdd;" horiz-adv-x="1390" d="M223 1268q-6 28 2 75q3 19 9 37.5t11 27.5l5 9q131 25 264 25q112 0 206 -6t132 -12l37 -7q6 -31 0 -74q-4 -21 -10.5 -39.5t-11.5 -27.5l-5 -8l-102 -23l69 -418l191 418l-96 23q-6 28 2 75q3 19 9 37.5t11 27.5l4 9q131 25 383 25q58 0 121.5 -6t97.5 -12l35 -7 q6 -31 0 -74q-4 -21 -10.5 -39.5t-10.5 -27.5l-5 -8l-148 -31l-444 -725l-45 -315l139 -31q6 -29 -2 -76q-4 -19 -10 -37.5t-11 -27.5l-4 -9q-131 -24 -342 -24q-94 0 -177.5 6t-120.5 12l-36 6q-8 31 0 74q4 21 10.5 40t11.5 28l5 8l148 31l45 313l-218 727zM743 1544 l226 285q84 16 168 16q36 0 76.5 -4t63.5 -8l23 -4l-352 -285q-55 -16 -104 -16q-24 0 -49 4t-39 8z" />
<glyph unicode="&#xde;" horiz-adv-x="1239" d="M39 16q-8 31 0 74q4 21 10.5 40t11.5 28l5 8l147 31l160 1040l-140 31q-5 28 3 75q3 19 9 37.5t11 27.5l4 9q131 25 342 25q94 0 177.5 -6t120.5 -12l36 -7q6 -31 0 -74q-4 -21 -10.5 -39.5t-11.5 -27.5l-5 -8l-147 -31l-8 -68q48 5 116 5q139 0 233 -26.5t144.5 -78 t66.5 -127.5t-1 -176l-10 -78q-33 -205 -169 -306t-409 -101q-30 0 -58.5 1.5t-41.5 3.5l-13 1l-10 -90l139 -31q6 -29 -2 -76q-4 -19 -10 -37.5t-10 -27.5l-4 -9q-131 -24 -342 -24q-94 0 -177.5 6t-119.5 12zM649 502h105q75 0 108 40t51 146l11 78q17 105 -5 145.5 t-98 40.5h-104z" />
<glyph unicode="&#xdf;" horiz-adv-x="1517" d="M-76 -391q-4 45 4 94q4 23 11.5 46.5t12.5 35.5l5 12q0 -2 8.5 -5.5t30.5 -7t49 -3.5q53 0 77.5 30t35.5 103l139 907l-127 39q-8 29 0 70q3 19 9 36.5t11 25.5l5 7q53 19 135 19l10 78q30 176 158.5 264t384.5 88q257 0 354.5 -87.5t67.5 -264.5l-5 -37 q-10 -60 -31.5 -103t-46.5 -66t-48.5 -40.5t-41 -37.5t-20.5 -46l-4 -31q-4 -27 19 -48t62 -36t86.5 -30.5t94 -38.5t83 -54t54 -83t6.5 -119l-6 -41q-17 -100 -71 -165t-161 -100.5t-269 -35.5q-98 0 -192 21.5t-138 42.5l-45 22q13 76 30.5 146t28.5 102l12 32 q46 10 109 10q27 0 52.5 -2.5t37.5 -5.5l12 -2l23 -123q0 -2 10.5 -10.5t37 -17.5t58.5 -9q49 0 69 20.5t28 74.5l6 41q4 29 -18.5 50t-61.5 36t-86.5 30.5t-93.5 38.5t-82 53.5t-53.5 82t-6.5 118.5l5 31q9 60 30 102.5t45 64.5t47.5 39t40.5 38t21 49l4 37 q9 61 -11.5 85.5t-86.5 24.5q-63 0 -92 -27t-37 -83l-183 -1182q-29 -170 -116.5 -254t-257.5 -84q-59 0 -116 8t-84 16z" />
<glyph unicode="&#xe0;" horiz-adv-x="1136" d="M121 350l49 324q30 183 133.5 273.5t304.5 90.5q53 0 95 -13t57 -25l16 -13l2 29q95 16 187 16q41 0 86.5 -4t70.5 -8l25 -4l-113 -723q-7 -58 5 -79t53 -21q9 0 51 6q6 -41 -2 -90q-4 -21 -11 -43.5t-12 -35.5l-6 -12q-98 -32 -201 -32q-122 0 -166.5 24t-52.5 78 l-16.5 -11t-44.5 -24.5t-68.5 -31t-84.5 -24.5t-97 -11q-170 0 -229.5 90.5t-30.5 273.5zM430 1425q90 17 170 17q37 0 77.5 -4t62.5 -8l22 -5l133 -284q-51 -17 -104 -17q-22 0 -47 4t-40 8l-14 5zM489 350q-12 -89 2.5 -124.5t67.5 -35.5q28 0 53 16.5t36 33.5l11 16 l64 418q14 89 -0.5 124.5t-67.5 35.5t-77.5 -35t-38.5 -125z" />
<glyph unicode="&#xe1;" horiz-adv-x="1136" d="M121 350l49 324q30 183 133.5 273.5t304.5 90.5q53 0 95 -13t57 -25l16 -13l2 29q95 16 187 16q41 0 86.5 -4t70.5 -8l25 -4l-113 -723q-7 -58 5 -79t53 -21q9 0 51 6q6 -41 -2 -90q-4 -21 -11 -43.5t-12 -35.5l-6 -12q-98 -32 -201 -32q-122 0 -166.5 24t-52.5 78 l-16.5 -11t-44.5 -24.5t-68.5 -31t-84.5 -24.5t-97 -11q-170 0 -229.5 90.5t-30.5 273.5zM489 350q-12 -89 2.5 -124.5t67.5 -35.5q28 0 53 16.5t36 33.5l11 16l64 418q14 89 -0.5 124.5t-67.5 35.5t-77.5 -35t-38.5 -125zM502 1141l227 284q82 17 166 17q36 0 77.5 -4 t65.5 -8l23 -5l-354 -284q-56 -17 -105 -17q-24 0 -49 4t-38 8z" />
<glyph unicode="&#xe2;" horiz-adv-x="1136" d="M121 350l49 324q30 183 133.5 273.5t304.5 90.5q53 0 95 -13t57 -25l16 -13l2 29q95 16 187 16q41 0 86.5 -4t70.5 -8l25 -4l-113 -723q-7 -58 5 -79t53 -21q9 0 51 6q6 -41 -2 -90q-4 -21 -11 -43.5t-12 -35.5l-6 -12q-98 -32 -201 -32q-122 0 -166.5 24t-52.5 78 l-16.5 -11t-44.5 -24.5t-68.5 -31t-84.5 -24.5t-97 -11q-170 0 -229.5 90.5t-30.5 273.5zM348 1143l242 282q77 17 155 17q34 0 73 -4t61 -8l22 -5l148 -282q-52 -17 -105 -17q-22 0 -47 4t-39 8l-14 5l-123 149l-168 -149q-55 -17 -104 -17q-24 0 -49 4t-38 8zM489 350 q-12 -89 2.5 -124.5t67.5 -35.5q28 0 53 16.5t36 33.5l11 16l64 418q14 89 -0.5 124.5t-67.5 35.5t-77.5 -35t-38.5 -125z" />
<glyph unicode="&#xe3;" horiz-adv-x="1136" d="M121 350l49 324q30 183 133.5 273.5t304.5 90.5q53 0 95 -13t57 -25l16 -13l2 29q95 16 187 16q41 0 86.5 -4t70.5 -8l25 -4l-113 -723q-7 -58 5 -79t53 -21q9 0 51 6q6 -41 -2 -90q-4 -21 -11 -43.5t-12 -35.5l-6 -12q-98 -32 -201 -32q-122 0 -166.5 24t-52.5 78 l-16.5 -11t-44.5 -24.5t-68.5 -31t-84.5 -24.5t-97 -11q-170 0 -229.5 90.5t-30.5 273.5zM344 1194l2 8q20 123 69 178.5t154 55.5q55 0 96 -11.5t62 -28t36 -33.5t30 -28.5t32 -11.5q44 0 59.5 20.5t26.5 77.5q54 15 103 15q21 0 44 -4t36 -8l12 -3v-10 q-22 -124 -68.5 -177.5t-154.5 -53.5q-55 0 -96.5 11.5t-63 28t-37 33t-30 28t-31.5 11.5q-44 0 -59 -20t-27 -78q-52 -14 -101 -14q-21 0 -44.5 3.5t-36.5 6.5zM489 350q-12 -89 2.5 -124.5t67.5 -35.5q28 0 53 16.5t36 33.5l11 16l64 418q14 89 -0.5 124.5t-67.5 35.5 t-77.5 -35t-38.5 -125z" />
<glyph unicode="&#xe4;" horiz-adv-x="1136" d="M121 350l49 324q30 183 133.5 273.5t304.5 90.5q53 0 95 -13t57 -25l16 -13l2 29q95 16 187 16q41 0 86.5 -4t70.5 -8l25 -4l-113 -723q-7 -58 5 -79t53 -21q9 0 51 6q6 -41 -2 -90q-4 -21 -11 -43.5t-12 -35.5l-6 -12q-98 -32 -201 -32q-122 0 -166.5 24t-52.5 78 l-16.5 -11t-44.5 -24.5t-68.5 -31t-84.5 -24.5t-97 -11q-170 0 -229.5 90.5t-30.5 273.5zM350 1200l37 225q65 17 145 17q36 0 71.5 -4t52.5 -8l18 -5l-37 -225q-65 -14 -145 -14q-36 0 -71.5 3.5t-52.5 6.5zM489 350q-12 -89 2.5 -124.5t67.5 -35.5q28 0 53 16.5t36 33.5 l11 16l64 418q14 89 -0.5 124.5t-67.5 35.5t-77.5 -35t-38.5 -125zM780 1200l37 225q66 17 146 17q36 0 71 -4t52 -8l18 -5l-37 -225q-65 -14 -145 -14q-36 0 -71.5 3.5t-52.5 6.5z" />
<glyph unicode="&#xe5;" horiz-adv-x="1136" d="M121 350l49 324q30 183 133.5 273.5t304.5 90.5q53 0 95 -13t57 -25l16 -13l2 29q95 16 187 16q41 0 86.5 -4t70.5 -8l25 -4l-113 -723q-7 -58 5 -79t53 -21q9 0 51 6q6 -41 -2 -90q-4 -21 -11 -43.5t-12 -35.5l-6 -12q-98 -32 -201 -32q-122 0 -166.5 24t-52.5 78 l-16.5 -11t-44.5 -24.5t-68.5 -31t-84.5 -24.5t-97 -11q-170 0 -229.5 90.5t-30.5 273.5zM489 350q-12 -89 2.5 -124.5t67.5 -35.5q28 0 53 16.5t36 33.5l11 16l64 418q14 89 -0.5 124.5t-67.5 35.5t-77.5 -35t-38.5 -125zM524 1257l4 29q11 72 66 113t154 41t140 -41 t30 -113l-5 -29q-27 -153 -219 -153q-99 0 -140.5 40.5t-29.5 112.5zM657 1257q-5 -28 8 -40.5t46 -12.5t48.5 12.5t20.5 40.5l4 29q3 28 -9 39.5t-46 11.5t-49 -11.5t-18 -39.5z" />
<glyph unicode="&#xe6;" horiz-adv-x="1566" d="M90 291l4 22q21 130 122 200.5t314 96.5l168 23l9 67q11 74 -11 104t-92 30q-32 0 -61 -9t-42.5 -17.5t-13.5 -10.5l-59 -123q-45 -10 -106 -10q-28 0 -54.5 2.5t-38.5 5.5l-12 2q-8 108 19 280l21 9t57 20.5t88 25.5t110 20t127 9q219 0 297 -100q100 100 287 100 q129 0 210.5 -23.5t120.5 -70t48.5 -114.5t-7.5 -156l-39 -244q-84 -29 -266 -29h-262l-6 -51q-12 -89 17.5 -124.5t123.5 -35.5q78 0 158.5 16.5t119 31t42.5 18.5l2 -14q2 -13 3.5 -35t-3.5 -53q-4 -27 -14 -53.5t-17 -38.5l-8 -13q-18 -7 -50.5 -17.5t-127.5 -28 t-183 -17.5q-228 0 -297 125q-137 -125 -438 -125q-164 0 -224 76t-36 229zM459 291q-8 -55 9.5 -78t70.5 -23t77.5 35.5t36.5 124.5l11 82l-95 -18q-96 -16 -106 -101zM1063 606h176l8 68q14 88 0.5 124t-63.5 36t-74.5 -35.5t-38.5 -124.5z" />
<glyph unicode="&#xe7;" horiz-adv-x="976" d="M121 350l49 324q30 183 159.5 273.5t387.5 90.5q93 0 181.5 -21t130.5 -42l42 -21q-12 -76 -30 -146t-30 -102l-12 -32q-45 -10 -108 -10q-27 0 -53 2.5t-38 5.5l-12 2l-20 133q0 2 -9 8t-30 12.5t-47 6.5q-67 0 -98 -35.5t-45 -124.5l-50 -324q-12 -89 18 -124.5 t124 -35.5q75 0 152 16.5t114 31t41 18.5l2 -14q2 -13 3.5 -35t-3.5 -53q-4 -27 -14 -53.5t-18 -38.5l-7 -13q-15 -6 -42.5 -15t-109 -25.5t-157.5 -20.5l-4 -25q-3 -20 19 -35.5t49 -26.5t46.5 -39.5t12.5 -70.5q-14 -92 -84 -144.5t-189 -52.5q-48 0 -86.5 9t-52.5 19 l-14 9q-6 23 0 56q2 14 6.5 27.5t8.5 20.5l3 7q43 -18 109 -18q52 0 75 14t29 53q3 18 -11 29.5t-34.5 20t-41 20.5t-32.5 37.5t-6 64.5l6 33q-175 24 -239.5 111.5t-40.5 242.5z" />
<glyph unicode="&#xe8;" horiz-adv-x="1042" d="M121 350l49 324q30 183 152 273.5t368 90.5q131 0 214.5 -23.5t123.5 -70t50 -114.5t-7 -156l-39 -244q-86 -29 -270 -29h-266l-7 -51q-12 -89 18 -124.5t124 -35.5q80 0 162 16.5t121.5 31t43.5 18.5l2 -14q3 -13 4.5 -35t-3.5 -53q-4 -27 -14 -53.5t-17 -38.5l-8 -13 q-19 -7 -52 -17.5t-130 -28t-187 -17.5q-262 0 -361.5 90.5t-70.5 273.5zM426 1425q90 17 170 17q37 0 77.5 -4t62.5 -8l22 -5l133 -284q-52 -17 -105 -17q-22 0 -47 4t-39 8l-14 5zM530 606h185l8 68q14 89 -0.5 124.5t-67.5 35.5t-77.5 -35t-38.5 -125z" />
<glyph unicode="&#xe9;" horiz-adv-x="1042" d="M121 350l49 324q30 183 152 273.5t368 90.5q131 0 214.5 -23.5t123.5 -70t50 -114.5t-7 -156l-39 -244q-86 -29 -270 -29h-266l-7 -51q-12 -89 18 -124.5t124 -35.5q80 0 162 16.5t121.5 31t43.5 18.5l2 -14q3 -13 4.5 -35t-3.5 -53q-4 -27 -14 -53.5t-17 -38.5l-8 -13 q-19 -7 -52 -17.5t-130 -28t-187 -17.5q-262 0 -361.5 90.5t-70.5 273.5zM498 1141l227 284q82 17 166 17q36 0 77.5 -4t65.5 -8l23 -5l-355 -284q-55 -17 -104 -17q-24 0 -49 4t-38 8zM530 606h185l8 68q14 89 -0.5 124.5t-67.5 35.5t-77.5 -35t-38.5 -125z" />
<glyph unicode="&#xea;" horiz-adv-x="1042" d="M121 350l49 324q30 183 152 273.5t368 90.5q131 0 214.5 -23.5t123.5 -70t50 -114.5t-7 -156l-39 -244q-86 -29 -270 -29h-266l-7 -51q-12 -89 18 -124.5t124 -35.5q80 0 162 16.5t121.5 31t43.5 18.5l2 -14q3 -13 4.5 -35t-3.5 -53q-4 -27 -14 -53.5t-17 -38.5l-8 -13 q-19 -7 -52 -17.5t-130 -28t-187 -17.5q-262 0 -361.5 90.5t-70.5 273.5zM344 1143l242 282q77 17 155 17q34 0 73 -4t61 -8l22 -5l147 -282q-51 -17 -104 -17q-22 0 -47 4t-39 8l-14 5l-123 149l-168 -149q-56 -17 -105 -17q-24 0 -49 4t-38 8zM530 606h185l8 68 q14 89 -0.5 124.5t-67.5 35.5t-77.5 -35t-38.5 -125z" />
<glyph unicode="&#xeb;" horiz-adv-x="1042" d="M121 350l49 324q30 183 152 273.5t368 90.5q131 0 214.5 -23.5t123.5 -70t50 -114.5t-7 -156l-39 -244q-86 -29 -270 -29h-266l-7 -51q-12 -89 18 -124.5t124 -35.5q80 0 162 16.5t121.5 31t43.5 18.5l2 -14q3 -13 4.5 -35t-3.5 -53q-4 -27 -14 -53.5t-17 -38.5l-8 -13 q-19 -7 -52 -17.5t-130 -28t-187 -17.5q-262 0 -361.5 90.5t-70.5 273.5zM346 1200l37 225q65 17 145 17q36 0 71.5 -4t52.5 -8l18 -5l-37 -225q-66 -14 -146 -14q-36 0 -71 3.5t-52 6.5zM530 606h185l8 68q14 89 -0.5 124.5t-67.5 35.5t-77.5 -35t-38.5 -125zM776 1200 l37 225q65 17 145 17q36 0 71.5 -4t52.5 -8l18 -5l-37 -225q-65 -14 -145 -14q-36 0 -71.5 3.5t-52.5 6.5z" />
<glyph unicode="&#xec;" horiz-adv-x="688" d="M160 866q-6 29 0 72q4 18 10 35.5t10 26.5l4 8q117 24 301 24q47 0 98 -4t78 -8l27 -4l-113 -725q-8 -56 4.5 -78.5t53.5 -22.5q19 0 51 9q6 -41 -2 -90q-4 -22 -11 -44.5t-13 -34.5l-5 -12q-94 -32 -198 -32q-158 0 -216 76t-32 229l80 538zM254 1425q90 17 170 17 q37 0 77.5 -4t62.5 -8l22 -5l133 -284q-52 -17 -105 -17q-22 0 -47 4t-39 8l-14 5z" />
<glyph unicode="&#xed;" horiz-adv-x="688" d="M160 866q-6 29 0 72q4 18 10 35.5t10 26.5l4 8q117 24 301 24q47 0 98 -4t78 -8l27 -4l-113 -725q-8 -56 4.5 -78.5t53.5 -22.5q19 0 51 9q6 -41 -2 -90q-4 -22 -11 -44.5t-13 -34.5l-5 -12q-94 -32 -198 -32q-158 0 -216 76t-32 229l80 538zM326 1141l227 284 q82 17 166 17q36 0 77.5 -4t65.5 -8l23 -5l-355 -284q-55 -17 -104 -17q-24 0 -49 4t-38 8z" />
<glyph unicode="&#xee;" horiz-adv-x="688" d="M160 866q-6 29 0 72q4 18 10 35.5t10 26.5l4 8q117 24 301 24q47 0 98 -4t78 -8l27 -4l-113 -725q-8 -56 4.5 -78.5t53.5 -22.5q19 0 51 9q6 -41 -2 -90q-4 -22 -11 -44.5t-13 -34.5l-5 -12q-94 -32 -198 -32q-158 0 -216 76t-32 229l80 538zM172 1143l242 282 q77 17 155 17q34 0 73 -4t61 -8l22 -5l147 -282q-51 -17 -104 -17q-22 0 -47 4t-39 8l-14 5l-123 149l-168 -149q-56 -17 -105 -17q-24 0 -49 4t-38 8z" />
<glyph unicode="&#xef;" horiz-adv-x="688" d="M160 866q-6 29 0 72q4 18 10 35.5t10 26.5l4 8q117 24 301 24q47 0 98 -4t78 -8l27 -4l-113 -725q-8 -56 4.5 -78.5t53.5 -22.5q19 0 51 9q6 -41 -2 -90q-4 -22 -11 -44.5t-13 -34.5l-5 -12q-94 -32 -198 -32q-158 0 -216 76t-32 229l80 538zM205 1200l37 225 q65 17 145 17q36 0 71 -4t52 -8l18 -5l-36 -225q-66 -14 -146 -14q-36 0 -71 3.5t-53 6.5zM573 1200l37 225q66 17 146 17q36 0 71 -4t53 -8l17 -5l-37 -225q-65 -14 -145 -14q-36 0 -71.5 3.5t-53.5 6.5z" />
<glyph unicode="&#xf0;" horiz-adv-x="1021" d="M121 350l49 324q30 183 119.5 273.5t259.5 90.5q37 0 73.5 -8.5t62 -21t45.5 -25t30 -21.5l10 -8l10 70q9 67 -47 113l-33 -29q-61 -14 -116 -14q-26 0 -54.5 3.5t-43.5 6.5l-15 4l113 104q-52 16 -112.5 27t-95.5 15l-34 3v3q-1 3 -1 7.5t-0.5 11.5t-0.5 15.5t0.5 18.5 t2 22.5t3.5 24.5q4 27 12.5 52.5t14.5 37.5l6 12q23 -1 63 -3.5t147.5 -18.5t196.5 -41l29 26q62 17 125 17q27 0 58.5 -4t49.5 -8l17 -5l-107 -92q221 -117 191 -309l-107 -674q-29 -183 -151.5 -273.5t-368.5 -90.5t-338 90.5t-63 273.5zM489 350q-12 -89 2.5 -124.5 t67.5 -35.5t78 35.5t37 124.5l63 418l-2.5 7.5t-8 15.5t-15 20t-23.5 16t-33 7q-53 0 -77.5 -35t-38.5 -125z" />
<glyph unicode="&#xf1;" horiz-adv-x="1241" d="M160 8l127 821l-127 37q-6 29 0 70q4 19 10 37t10 27l4 8q117 24 301 24q45 0 96 -4t79 -8l28 -4l-8 -62q5 3 13 9t35 20.5t54.5 25.5t67 20t76.5 9q170 0 230 -90t30 -272l-58 -385q-8 -56 4.5 -78.5t53.5 -22.5q20 0 51 9q6 -41 -2 -90q-4 -22 -11 -44.5t-12 -34.5 l-6 -12q-94 -32 -198 -32q-158 0 -216 76t-32 229l57 383q14 88 0 124t-67 36q-28 0 -54 -16.5t-38 -33.5l-11 -16l-119 -760q-94 -16 -186 -16q-41 0 -86.5 4t-70.5 8zM438 1194l2 8q20 122 69.5 178t154.5 56q55 0 96 -11.5t62 -28t36 -33.5t30 -28.5t32 -11.5 q44 0 59.5 20.5t26.5 77.5q53 15 102 15q21 0 44 -4t36 -8l12 -3v-10q-22 -124 -68.5 -177.5t-154.5 -53.5q-55 0 -96.5 11.5t-63 28t-37 33t-30 28t-31.5 11.5q-44 0 -59 -20t-27 -78q-52 -14 -101 -14q-21 0 -44.5 3.5t-36.5 6.5z" />
<glyph unicode="&#xf2;" horiz-adv-x="1052" d="M121 350l49 324q30 183 152 273.5t368 90.5t339 -90.5t63 -273.5l-50 -324q-29 -183 -151.5 -273.5t-368.5 -90.5t-338 90.5t-63 273.5zM436 1425q90 17 170 17q37 0 77.5 -4t62.5 -8l22 -5l133 -284q-51 -17 -104 -17q-22 0 -47 4t-40 8l-14 5zM489 350 q-12 -89 2.5 -124.5t67.5 -35.5t78 35.5t37 124.5l49 324q14 89 -0.5 124.5t-67.5 35.5t-77.5 -35t-38.5 -125z" />
<glyph unicode="&#xf3;" horiz-adv-x="1052" d="M121 350l49 324q30 183 152 273.5t368 90.5t339 -90.5t63 -273.5l-50 -324q-29 -183 -151.5 -273.5t-368.5 -90.5t-338 90.5t-63 273.5zM489 350q-12 -89 2.5 -124.5t67.5 -35.5t78 35.5t37 124.5l49 324q14 89 -0.5 124.5t-67.5 35.5t-77.5 -35t-38.5 -125zM508 1141 l227 284q82 17 166 17q36 0 77.5 -4t65.5 -8l23 -5l-354 -284q-56 -17 -105 -17q-24 0 -49 4t-38 8z" />
<glyph unicode="&#xf4;" horiz-adv-x="1052" d="M121 350l49 324q30 183 152 273.5t368 90.5t339 -90.5t63 -273.5l-50 -324q-29 -183 -151.5 -273.5t-368.5 -90.5t-338 90.5t-63 273.5zM354 1143l242 282q78 17 156 17q34 0 72.5 -4t60.5 -8l22 -5l148 -282q-52 -17 -105 -17q-22 0 -47 4t-39 8l-14 5l-123 149 l-168 -149q-55 -17 -104 -17q-24 0 -49 4t-38 8zM489 350q-12 -89 2.5 -124.5t67.5 -35.5t78 35.5t37 124.5l49 324q14 89 -0.5 124.5t-67.5 35.5t-77.5 -35t-38.5 -125z" />
<glyph unicode="&#xf5;" horiz-adv-x="1052" d="M121 350l49 324q30 183 152 273.5t368 90.5t339 -90.5t63 -273.5l-50 -324q-29 -183 -151.5 -273.5t-368.5 -90.5t-338 90.5t-63 273.5zM350 1194l2 8q20 123 69 178.5t154 55.5q55 0 96 -11.5t62 -28t36 -33.5t30 -28.5t32 -11.5q41 0 58.5 19t25.5 69l3 10 q53 15 102 15q21 0 44 -4t36 -8l12 -3v-10q-22 -124 -68.5 -177.5t-154.5 -53.5q-55 0 -96.5 11.5t-63 28t-37 33t-30 28t-31.5 11.5q-44 0 -59 -20t-27 -78q-52 -14 -101 -14q-21 0 -44.5 3.5t-36.5 6.5zM489 350q-12 -89 2.5 -124.5t67.5 -35.5t78 35.5t37 124.5l49 324 q14 89 -0.5 124.5t-67.5 35.5t-77.5 -35t-38.5 -125z" />
<glyph unicode="&#xf6;" horiz-adv-x="1052" d="M121 350l49 324q30 183 152 273.5t368 90.5t339 -90.5t63 -273.5l-50 -324q-29 -183 -151.5 -273.5t-368.5 -90.5t-338 90.5t-63 273.5zM356 1200l37 225q66 17 146 17q36 0 71 -4t52 -8l18 -5l-37 -225q-65 -14 -145 -14q-36 0 -71.5 3.5t-52.5 6.5zM489 350 q-12 -89 2.5 -124.5t67.5 -35.5t78 35.5t37 124.5l49 324q14 89 -0.5 124.5t-67.5 35.5t-77.5 -35t-38.5 -125zM786 1200l37 225q66 17 146 17q36 0 71 -4t52 -8l18 -5l-37 -225q-65 -14 -145 -14q-36 0 -71.5 3.5t-52.5 6.5z" />
<glyph unicode="&#xf7;" horiz-adv-x="860" d="M135 494q-8 39 2 102q5 27 13.5 52.5t13.5 37.5l6 12h739q8 -41 -4 -102q-4 -27 -12 -52.5t-13 -37.5l-6 -12h-739zM315 176l39 225q68 13 140 13q30 0 65 -3t55 -7l19 -3l-39 -225q-71 -12 -139 -12q-32 0 -67 3t-54 6zM414 791l37 225q69 12 141 12q30 0 64.5 -3 t53.5 -6l19 -3l-37 -225q-73 -13 -141 -13q-32 0 -66 3t-53 7z" />
<glyph unicode="&#xf8;" horiz-adv-x="1114" d="M66 8l108 119q-44 81 -22 223l49 324q30 183 152 273.5t368 90.5q157 0 250 -37l12 15q58 16 115 16q24 0 51.5 -4t42.5 -8l16 -4l-108 -119q44 -81 22 -223l-49 -324q-29 -183 -151.5 -273.5t-368.5 -90.5q-160 0 -250 37l-12 -15q-60 -16 -115 -16q-25 0 -52.5 4 t-42.5 8zM481 219q19 -47 105 -47q77 0 110.5 39t48.5 139l29 189zM498 483l293 322q-20 47 -103 47q-77 0 -111 -39t-49 -139q-16 -103 -30 -191z" />
<glyph unicode="&#xf9;" horiz-adv-x="1241" d="M160 866q-6 29 0 72q4 18 10 35.5t10 26.5l4 8q117 24 301 24q45 0 96 -4t79 -8l28 -4l-104 -666q-12 -90 2 -125t67 -35q18 0 34.5 7t28 16.5t20.5 19t14 16.5l4 7l118 760q95 16 187 16q41 0 86.5 -4t70.5 -8l25 -4l-113 -723q-7 -58 5 -79t53 -21q9 0 51 6 q6 -41 -2 -90q-4 -21 -11 -43.5t-12 -35.5l-6 -12q-98 -32 -200 -32q-122 0 -167 24t-53 78l-16.5 -11t-44.5 -24.5t-68.5 -31t-84.5 -24.5t-97 -11q-170 0 -229.5 90.5t-30.5 273.5l72 479zM524 1425q90 17 170 17q37 0 77.5 -4t62.5 -8l22 -5l133 -284q-51 -17 -104 -17 q-22 0 -47 4t-40 8l-14 5z" />
<glyph unicode="&#xfa;" horiz-adv-x="1241" d="M160 866q-6 29 0 72q4 18 10 35.5t10 26.5l4 8q117 24 301 24q45 0 96 -4t79 -8l28 -4l-104 -666q-12 -90 2 -125t67 -35q18 0 34.5 7t28 16.5t20.5 19t14 16.5l4 7l118 760q95 16 187 16q41 0 86.5 -4t70.5 -8l25 -4l-113 -723q-7 -58 5 -79t53 -21q9 0 51 6 q6 -41 -2 -90q-4 -21 -11 -43.5t-12 -35.5l-6 -12q-98 -32 -200 -32q-122 0 -167 24t-53 78l-16.5 -11t-44.5 -24.5t-68.5 -31t-84.5 -24.5t-97 -11q-170 0 -229.5 90.5t-30.5 273.5l72 479zM596 1141l227 284q82 17 166 17q36 0 77.5 -4t65.5 -8l23 -5l-354 -284 q-56 -17 -105 -17q-24 0 -49 4t-38 8z" />
<glyph unicode="&#xfb;" horiz-adv-x="1241" d="M160 866q-6 29 0 72q4 18 10 35.5t10 26.5l4 8q117 24 301 24q45 0 96 -4t79 -8l28 -4l-104 -666q-12 -90 2 -125t67 -35q18 0 34.5 7t28 16.5t20.5 19t14 16.5l4 7l118 760q95 16 187 16q41 0 86.5 -4t70.5 -8l25 -4l-113 -723q-7 -58 5 -79t53 -21q9 0 51 6 q6 -41 -2 -90q-4 -21 -11 -43.5t-12 -35.5l-6 -12q-98 -32 -200 -32q-122 0 -167 24t-53 78l-16.5 -11t-44.5 -24.5t-68.5 -31t-84.5 -24.5t-97 -11q-170 0 -229.5 90.5t-30.5 273.5l72 479zM442 1143l242 282q78 17 156 17q34 0 72.5 -4t60.5 -8l22 -5l148 -282 q-52 -17 -105 -17q-22 0 -47 4t-39 8l-14 5l-123 149l-168 -149q-55 -17 -104 -17q-24 0 -49 4t-38 8z" />
<glyph unicode="&#xfc;" horiz-adv-x="1241" d="M160 866q-6 29 0 72q4 18 10 35.5t10 26.5l4 8q117 24 301 24q45 0 96 -4t79 -8l28 -4l-104 -666q-12 -90 2 -125t67 -35q18 0 34.5 7t28 16.5t20.5 19t14 16.5l4 7l118 760q95 16 187 16q41 0 86.5 -4t70.5 -8l25 -4l-113 -723q-7 -58 5 -79t53 -21q9 0 51 6 q6 -41 -2 -90q-4 -21 -11 -43.5t-12 -35.5l-6 -12q-98 -32 -200 -32q-122 0 -167 24t-53 78l-16.5 -11t-44.5 -24.5t-68.5 -31t-84.5 -24.5t-97 -11q-170 0 -229.5 90.5t-30.5 273.5l72 479zM444 1200l37 225q66 17 146 17q36 0 71 -4t52 -8l18 -5l-37 -225 q-65 -14 -145 -14q-36 0 -71.5 3.5t-52.5 6.5zM874 1200l37 225q66 17 146 17q36 0 71 -4t52 -8l18 -5l-37 -225q-65 -14 -145 -14q-36 0 -71.5 3.5t-52.5 6.5z" />
<glyph unicode="&#xfd;" horiz-adv-x="1167" d="M156 -289q4 28 14 54t16.5 37.5t8.5 13.5q-2 -2 38 -10t120 -16.5t163 -8.5q94 0 134.5 35.5t54.5 124.5l10 86q-4 -4 -22.5 -12.5t-60 -18.5t-87.5 -10q-207 0 -283 90.5t-47 273.5l72 479l-127 37q-6 29 0 72q4 18 10 35.5t10 26.5l4 8q117 24 301 24q45 0 96 -4t79 -8 l28 -4l-104 -666q-12 -90 2 -125t67 -35q18 0 34.5 7t28 16.5t20.5 19t14 16.5l4 7l118 760q95 16 187 16q41 0 86.5 -4t70.5 -8l25 -4l-168 -1075q-30 -183 -168.5 -274t-423.5 -91q-83 0 -163.5 8t-119.5 16l-40 9q-1 5 -2.5 13t-3.5 35.5t4 53.5zM600 1141l227 284 q82 17 166 17q36 0 77.5 -4t65.5 -8l23 -5l-354 -284q-56 -17 -105 -17q-24 0 -49 4t-38 8z" />
<glyph unicode="&#xfe;" horiz-adv-x="1103" d="M51 -401l258 1640l-127 37q-8 29 0 72q4 18 10 35.5t10 25.5l5 8q117 25 301 25q47 0 98 -4t78 -8l27 -5l-74 -471q5 3 13 9t35 20.5t54.5 25.5t67 20t76.5 9q170 0 230 -90.5t30 -273.5l-49 -324q-29 -183 -135 -273.5t-314 -90.5q-36 0 -75 10.5t-61 20.5t-22 12 l-67 -430q-95 -17 -187 -17q-41 0 -86.5 4t-70.5 8zM541 350q-12 -90 2 -125t67 -35t78 35.5t37 124.5l49 324q14 88 0 124t-67 36q-28 0 -53.5 -16.5t-37.5 -33.5l-12 -16z" />
<glyph unicode="&#xff;" horiz-adv-x="1167" d="M156 -289q4 28 14 54t16.5 37.5t8.5 13.5q-2 -2 38 -10t120 -16.5t163 -8.5q94 0 134.5 35.5t54.5 124.5l10 86q-4 -4 -22.5 -12.5t-60 -18.5t-87.5 -10q-207 0 -283 90.5t-47 273.5l72 479l-127 37q-6 29 0 72q4 18 10 35.5t10 26.5l4 8q117 24 301 24q45 0 96 -4t79 -8 l28 -4l-104 -666q-12 -90 2 -125t67 -35q18 0 34.5 7t28 16.5t20.5 19t14 16.5l4 7l118 760q95 16 187 16q41 0 86.5 -4t70.5 -8l25 -4l-168 -1075q-30 -183 -168.5 -274t-423.5 -91q-83 0 -163.5 8t-119.5 16l-40 9q-1 5 -2.5 13t-3.5 35.5t4 53.5zM451 1200l36 225 q66 17 146 17q36 0 71 -4t52 -8l18 -5l-37 -225q-65 -14 -145 -14q-36 0 -71 3.5t-53 6.5zM881 1200l37 225q65 17 145 17q36 0 71 -4t52 -8l18 -5l-37 -225q-65 -14 -145 -14q-36 0 -71 3.5t-53 6.5z" />
<glyph unicode="&#x152;" horiz-adv-x="1615" d="M129 397l98 639q33 206 176 307t433 101q163 0 342 -29q179 19 301 19h303q6 -53 -6 -123q-12 -73 -27 -135t-24 -88l-9 -25q-33 -8 -82 -8q-20 0 -38.5 2t-26.5 4l-8 2l-41 145h-234l-51 -358h395q6 -45 -4 -113q-5 -30 -14 -58t-15 -41l-6 -13h-395l-57 -400h243 l82 146q33 8 78 8q22 0 41.5 -2t28.5 -4l8 -2q7 -84 -18 -248q-5 -31 -14 -62t-15 -46l-6 -15h-314q-161 0 -299 16q-149 -26 -348 -26q-290 0 -400 100.5t-77 306.5zM518 397q-15 -106 11 -146t114 -40h102l154 1012h-102q-88 0 -127 -41t-54 -146z" />
<glyph unicode="&#x153;" horiz-adv-x="1595" d="M121 350l49 324q30 183 152 273.5t368 90.5q188 0 262 -102q94 102 291 102q131 0 214.5 -23.5t123.5 -70t50 -114.5t-7 -156l-39 -244q-86 -29 -270 -29h-266l-7 -51q-12 -89 18 -124.5t124 -35.5q80 0 162 16.5t121.5 31t43.5 18.5l2 -14q2 -13 3.5 -35t-3.5 -53 q-4 -27 -13.5 -53.5t-17.5 -38.5l-7 -13q-19 -7 -52 -17.5t-130 -28t-187 -17.5q-212 0 -285 108q-99 -108 -299 -108q-246 0 -338 90.5t-63 273.5zM489 350q-12 -89 2.5 -124.5t67.5 -35.5t78 35.5t37 124.5l49 324q14 89 -0.5 124.5t-67.5 35.5t-77.5 -35t-38.5 -125z M1083 606h185l8 68q14 89 -0.5 124.5t-67.5 35.5t-77.5 -35t-38.5 -125z" />
<glyph unicode="&#x178;" horiz-adv-x="1390" d="M223 1268q-6 28 2 75q3 19 9 37.5t11 27.5l5 9q131 25 264 25q112 0 206 -6t132 -12l37 -7q6 -31 0 -74q-4 -21 -10.5 -39.5t-11.5 -27.5l-5 -8l-102 -23l69 -418l191 418l-96 23q-6 28 2 75q3 19 9 37.5t11 27.5l4 9q131 25 383 25q58 0 121.5 -6t97.5 -12l35 -7 q6 -31 0 -74q-4 -21 -10.5 -39.5t-10.5 -27.5l-5 -8l-148 -31l-444 -725l-45 -315l139 -31q6 -29 -2 -76q-4 -19 -10 -37.5t-11 -27.5l-4 -9q-131 -24 -342 -24q-94 0 -177.5 6t-120.5 12l-36 6q-8 31 0 74q4 21 10.5 40t11.5 28l5 8l148 31l45 313l-218 727zM582 1544 l36 225q66 15 146 15q36 0 71 -4t53 -8l17 -3l-37 -225q-65 -16 -145 -16q-36 0 -71 4t-52 8zM1012 1544l37 225q65 15 145 15q36 0 71 -4t53 -8l17 -3l-37 -225q-65 -16 -145 -16q-36 0 -71 4t-52 8z" />
<glyph unicode="&#x2c6;" horiz-adv-x="520" d="M88 1143l242 282q77 17 155 17q34 0 73 -4t61 -8l22 -5l147 -282q-51 -17 -104 -17q-22 0 -47 4t-39 8l-14 5l-123 149l-168 -149q-56 -17 -105 -17q-24 0 -49 4t-38 8z" />
<glyph unicode="&#x2dc;" horiz-adv-x="856" d="M252 1194l2 8q20 123 69 178.5t154 55.5q55 0 96 -11.5t62 -28t36 -33.5t30 -28.5t32 -11.5q44 0 59.5 20.5t26.5 77.5q54 15 103 15q21 0 44 -4t36 -8l12 -3v-10q-22 -124 -68.5 -177.5t-154.5 -53.5q-68 0 -115 17.5t-66 38.5t-38.5 38.5t-39.5 17.5q-41 0 -58 -18.5 t-25 -69.5l-3 -10q-51 -14 -100 -14q-21 0 -44.5 3.5t-36.5 6.5z" />
<glyph unicode="&#x2000;" horiz-adv-x="923" />
<glyph unicode="&#x2001;" horiz-adv-x="1847" />
<glyph unicode="&#x2002;" horiz-adv-x="923" />
<glyph unicode="&#x2003;" horiz-adv-x="1847" />
<glyph unicode="&#x2004;" horiz-adv-x="615" />
<glyph unicode="&#x2005;" horiz-adv-x="461" />
<glyph unicode="&#x2006;" horiz-adv-x="307" />
<glyph unicode="&#x2007;" horiz-adv-x="307" />
<glyph unicode="&#x2008;" horiz-adv-x="230" />
<glyph unicode="&#x2009;" horiz-adv-x="369" />
<glyph unicode="&#x200a;" horiz-adv-x="102" />
<glyph unicode="&#x2010;" horiz-adv-x="561" d="M129 463q-6 38 4 104q4 27 12.5 53t14.5 38l6 12h440q6 -42 -4 -103q-4 -28 -12.5 -54t-14.5 -38l-6 -12h-440z" />
<glyph unicode="&#x2011;" horiz-adv-x="561" d="M129 463q-6 38 4 104q4 27 12.5 53t14.5 38l6 12h440q6 -42 -4 -103q-4 -28 -12.5 -54t-14.5 -38l-6 -12h-440z" />
<glyph unicode="&#x2012;" horiz-adv-x="561" d="M129 463q-6 38 4 104q4 27 12.5 53t14.5 38l6 12h440q6 -42 -4 -103q-4 -28 -12.5 -54t-14.5 -38l-6 -12h-440z" />
<glyph unicode="&#x2013;" horiz-adv-x="970" d="M129 463q-6 38 4 104q4 27 12.5 53t14.5 38l6 12h850q6 -42 -4 -103q-4 -28 -12.5 -54t-14.5 -38l-6 -12h-850z" />
<glyph unicode="&#x2014;" horiz-adv-x="1277" d="M129 463q-6 38 4 104q4 27 12.5 53t14.5 38l6 12h1157q6 -42 -4 -103q-4 -28 -12.5 -54t-14.5 -38l-6 -12h-1157z" />
<glyph unicode="&#x2018;" horiz-adv-x="438" d="M197 909q17 103 52 194.5t72.5 147.5t73 97.5t57.5 59.5l23 17q43 17 84 17q18 0 38 -4t31 -8l11 -5q-11 -19 -29 -56.5t-60 -171t-67 -288.5q-73 -14 -145 -14q-32 0 -67.5 3.5t-54.5 7.5z" />
<glyph unicode="&#x2019;" horiz-adv-x="438" d="M166 909q11 19 29 56.5t60 171t67 288.5q73 17 145 17q32 0 67.5 -4t54.5 -8l19 -5q-17 -103 -52 -194t-72.5 -147t-73 -98t-58.5 -60l-22 -17q-43 -14 -84 -14q-18 0 -38 3.5t-31 7.5z" />
<glyph unicode="&#x201a;" horiz-adv-x="438" d="M-12 -250q4 7 10.5 20.5t26 61t37 102.5t39.5 145t38 187q74 17 146 17q32 0 67 -4.5t54 -8.5l20 -4q-17 -103 -51.5 -194t-71.5 -147t-72.5 -98t-58.5 -59l-22 -18q-46 -16 -87 -16q-18 0 -37 4t-28 8z" />
<glyph unicode="&#x201c;" horiz-adv-x="765" d="M197 909q17 103 52 194.5t72.5 147.5t73 97.5t57.5 59.5l23 17q43 17 84 17q18 0 38 -4t31 -8l11 -5q-11 -19 -29 -56.5t-60 -171t-67 -288.5q-73 -14 -145 -14q-32 0 -67.5 3.5t-54.5 7.5zM524 909q17 103 52 194.5t73 147.5t73 97.5t58 59.5l23 17q43 17 84 17 q18 0 38 -4t31 -8l11 -5q-11 -19 -29 -56.5t-60 -171t-67 -288.5q-73 -14 -145 -14q-32 0 -67.5 3.5t-54.5 7.5z" />
<glyph unicode="&#x201d;" horiz-adv-x="765" d="M166 909q11 19 29 56.5t60 171t67 288.5q73 17 145 17q32 0 67.5 -4t54.5 -8l19 -5q-17 -103 -52 -194t-72.5 -147t-73 -98t-58.5 -60l-22 -17q-43 -14 -84 -14q-18 0 -38 3.5t-31 7.5zM494 909q4 7 11 20.5t27 61t38 102.5t40.5 145t38.5 187q74 17 146 17q32 0 67.5 -4 t54.5 -8l19 -5q-12 -75 -34.5 -144t-47.5 -119t-53 -93.5t-53.5 -72t-46 -49t-32.5 -29.5l-12 -9q-43 -14 -84 -14q-18 0 -38 3.5t-31 7.5z" />
<glyph unicode="&#x201e;" horiz-adv-x="765" d="M-12 -250q4 7 10.5 20.5t26 61t37 102.5t39.5 145t38 187q74 17 146 17q32 0 67 -4.5t54 -8.5l20 -4q-17 -103 -51.5 -194t-71.5 -147t-72.5 -98t-58.5 -59l-22 -18q-46 -16 -87 -16q-18 0 -37 4t-28 8zM313 -250q11 19 28.5 56.5t59 171t66.5 288.5q73 17 145 17 q32 0 67.5 -4.5t54.5 -8.5l20 -4q-17 -103 -52 -194t-74 -147t-75.5 -98t-60.5 -59l-23 -18q-43 -16 -82 -16q-17 0 -35.5 4t-28.5 8z" />
<glyph unicode="&#x2022;" horiz-adv-x="602" d="M137 399q3 100 21 215q8 50 20 104t20 82l9 29q114 15 227 15q50 0 106 -4t86 -8l31 -3q-2 -100 -20 -215q-8 -49 -20.5 -103t-20.5 -83l-8 -29q-115 -14 -228 -14q-50 0 -106 3.5t-86 7.5z" />
<glyph unicode="&#x2026;" horiz-adv-x="1441" d="M76 8l47 277q88 16 176 16q38 0 81 -4t67 -8l24 -4l-47 -277q-90 -16 -176 -16q-39 0 -82 4t-66 8zM547 8l47 277q88 16 176 16q38 0 81 -4t67 -8l24 -4l-47 -277q-90 -16 -176 -16q-39 0 -82 4t-67 8zM1018 8l47 277q88 16 176 16q38 0 81 -4t67 -8l24 -4l-47 -277 q-90 -16 -176 -16q-39 0 -82 4t-66 8z" />
<glyph unicode="&#x202f;" horiz-adv-x="369" />
<glyph unicode="&#x2039;" horiz-adv-x="663" d="M121 555l489 414q37 -19 80 -64q17 -19 31 -39.5t19 -31.5l5 -11l-305 -268l224 -270q-29 -39 -84 -82q-24 -19 -49.5 -35t-38.5 -22l-13 -7z" />
<glyph unicode="&#x203a;" horiz-adv-x="663" d="M82 285l303 268l-221 270q29 39 84 82q24 19 49 35t38 22l13 7l357 -416l-488 -414q-39 19 -80 64q-17 19 -31 39.5t-19 31.5z" />
<glyph unicode="&#x205f;" horiz-adv-x="461" />
<glyph unicode="&#x20ac;" horiz-adv-x="1198" d="M119 463q-6 39 4 102q4 27 12.5 53t14.5 38l6 12h82l10 77h-82q-8 42 2 105q4 27 12.5 52.5t14.5 37.5l6 12h82l10 84q33 206 175.5 309t428.5 103q95 0 176.5 -14t130 -34t83.5 -40.5t49 -34.5l14 -14q-14 -81 -33.5 -157t-32.5 -112l-12 -36q-47 -11 -115 -11 q-30 0 -59 2.5t-42 5.5l-14 3l-16 159q-2 2 -6 6.5t-19 14.5t-32.5 18t-47.5 14.5t-63 6.5q-85 0 -123 -41.5t-53 -147.5l-10 -84h291q5 -41 -5 -102q-4 -27 -11.5 -53.5t-12.5 -38.5l-6 -13h-291l-10 -77h291q5 -42 -5 -103q-4 -27 -12 -52.5t-14 -37.5l-6 -12h-291l-6 -66 q-15 -106 20.5 -147t147.5 -41q100 0 202.5 21.5t154.5 41t54 23.5l1 -3q0 -3 1 -8t2 -12t1 -16.5v-20.5t-1.5 -25t-3.5 -28q-5 -32 -15.5 -62t-17.5 -44l-8 -13q-21 -9 -57.5 -21.5t-144.5 -34t-209 -21.5q-159 0 -267 26.5t-167.5 79.5t-79 128t-2.5 177l6 66h-82z" />
<glyph unicode="&#x2122;" horiz-adv-x="1456" d="M242 1309q-4 22 2 63q3 16 7.5 31.5t7.5 22.5l3 8h529q3 -25 -3 -62q-3 -17 -7.5 -33t-7.5 -23l-3 -7h-156l-92 -588q-55 -8 -108 -8q-24 0 -51.5 2t-42.5 4l-15 2l92 588h-155zM731 721l113 709q0 1 20 3t56 3.5t71 1.5q34 0 70 -2t55 -4l19 -2l45 -353l153 353 q72 10 146 10q34 0 70 -2.5t55 -5.5l20 -2l-113 -707q-51 -10 -102 -10q-23 0 -48.5 2.5t-39.5 4.5l-14 3l67 446l-147 -346q-43 -10 -90 -10q-21 0 -43 2.5t-34 4.5l-11 3l-45 344l-68 -446q-51 -8 -102 -8q-23 0 -48.5 2t-39.5 4z" />
<glyph unicode="&#x25fc;" horiz-adv-x="1034" d="M0 0v1034h1034v-1034h-1034z" />
</font>
</defs>
</svg>
