<?xml version="1.0" standalone="no"?>
<!DOCTYPE svg PUBLIC "-//W3C//DTD SVG 1.1//EN" "http://www.w3.org/Graphics/SVG/1.1/DTD/svg11.dtd" >
<svg xmlns="http://www.w3.org/2000/svg">
<metadata></metadata>
<defs>
<font id="pancetta_serif_prothin" horiz-adv-x="389" >
<font-face units-per-em="2048" ascent="1536" descent="-512" />
<missing-glyph horiz-adv-x="471" />
<glyph unicode="&#xfb01;" horiz-adv-x="1073" d="M72 16l4 11l153 12v944l-153 12q-4 5 -4 11l4 10q49 8 153 8v164q0 124 63 188t204 64q56 0 122 -17q7 -8 7 -20q0 -5 -1.5 -11t-3.5 -9l-2 -3q-59 19 -122 19q-124 0 -175 -51.5t-51 -159.5v-164q172 2 533 2q11 0 21.5 -1.5t15.5 -2.5l4 -2v-981l153 -12q4 -5 4 -11 l-4 -10q-49 -8 -174 -8q-56 0 -99.5 2t-59.5 4l-15 2q-4 4 -4 10l4 11l154 12v946l-533 -2v-944l154 -12q4 -5 4 -11l-4 -10q-49 -8 -174 -8q-56 0 -99.5 2t-58.5 4l-16 2q-4 4 -4 10zM803 1243v187q8 6 20 6q5 0 10.5 -1.5t8.5 -2.5l2 -2v-187q-11 -6 -21 -6q-5 0 -10 1.5 t-7 3.5z" />
<glyph unicode="&#xfb02;" horiz-adv-x="1073" d="M72 16l4 11l153 12v944l-153 12q-4 5 -4 11l4 10q49 8 153 8v164q0 121 71.5 186.5t215.5 65.5q63 0 133 -13q43 9 154 9q11 0 21.5 -1.5t15.5 -2.5l4 -2v-1391l153 -12q4 -5 4 -11l-4 -10q-49 -8 -174 -8q-56 0 -99.5 2t-59.5 4l-15 2q-4 4 -4 10l4 11l154 12v1350 l-287 16q-121 0 -183.5 -56.5t-62.5 -160.5v-164h348q7 -8 7 -20q0 -5 -1.5 -10.5t-3.5 -7.5l-2 -3h-348v-944l154 -12q4 -5 4 -11l-4 -10q-49 -8 -174 -8q-56 0 -99.5 2t-58.5 4l-16 2q-4 4 -4 10z" />
<glyph unicode="&#xfb03;" horiz-adv-x="1646" d="M72 16l4 11l153 12v944l-153 12q-4 5 -4 11l4 10q49 8 153 8v164q0 124 63 188t204 64q56 0 122 -17q7 -8 7 -20q0 -5 -1.5 -11t-3.5 -9l-2 -3q-59 19 -122 19q-124 0 -175 -51.5t-51 -159.5v-164h533v164q0 124 62.5 188t203.5 64q57 0 123 -17q6 -8 6 -20l-6 -23 q-59 19 -123 19q-124 0 -174.5 -51.5t-50.5 -159.5v-164q211 2 532 2q11 0 21.5 -1.5t14.5 -2.5l5 -2v-981l154 -12q4 -5 4 -11l-4 -10q-49 -8 -174 -8q-56 0 -99.5 2t-59.5 4l-15 2q-4 4 -4 10l4 11l153 12v946l-532 -2v-944l153 -12q4 -5 4 -11l-4 -10q-49 -8 -174 -8 q-56 0 -99.5 2t-59.5 4l-15 2q-4 4 -4 10l4 11l154 12v944h-533v-944l154 -12q4 -5 4 -11l-4 -10q-49 -8 -174 -8q-56 0 -99.5 2t-58.5 4l-16 2q-4 4 -4 10zM1376 1243v187q9 6 21 6q5 0 10 -1.5t7 -2.5l3 -2v-187q-10 -6 -20 -6q-5 0 -10.5 1.5t-8.5 3.5z" />
<glyph unicode="&#xfb04;" horiz-adv-x="1646" d="M72 16l4 11l153 12v944l-153 12q-4 5 -4 11l4 10q49 8 153 8v164q0 124 63 188t204 64q56 0 122 -17q7 -8 7 -20q0 -5 -1.5 -11t-3.5 -9l-2 -3q-59 19 -122 19q-124 0 -175 -51.5t-51 -159.5v-164h533v164q0 121 71.5 186.5t215.5 65.5q63 0 133 -13q42 9 153 9 q11 0 21.5 -1.5t14.5 -2.5l5 -2v-1391l154 -12q4 -5 4 -11l-4 -10q-49 -8 -174 -8q-56 0 -99.5 2t-59.5 4l-15 2q-4 4 -4 10l4 11l153 12v1350l-286 16q-121 0 -183.5 -56.5t-62.5 -160.5v-164h348q6 -8 6 -20q0 -5 -1.5 -10.5t-2.5 -7.5l-2 -3h-348v-944l153 -12 q4 -5 4 -11l-4 -10q-49 -8 -174 -8q-56 0 -99.5 2t-59.5 4l-15 2q-4 4 -4 10l4 11l154 12v944h-533v-944l154 -12q4 -5 4 -11l-4 -10q-49 -8 -174 -8q-56 0 -99.5 2t-58.5 4l-16 2q-4 4 -4 10z" />
<glyph horiz-adv-x="2048" />
<glyph horiz-adv-x="2048" />
<glyph unicode="&#xd;" horiz-adv-x="2048" />
<glyph unicode=" "  horiz-adv-x="471" />
<glyph unicode="&#x09;" horiz-adv-x="471" />
<glyph unicode="&#xa0;" horiz-adv-x="471" />
<glyph unicode="!" d="M170 4v156q11 6 25 6q6 0 12 -1.5t9 -2.5l3 -2v-156q-12 -6 -24 -6zM174 414v1016q9 6 21 6q5 0 10 -1.5t7 -2.5l3 -2v-1016q-10 -6 -20 -6q-5 0 -10.5 1.5t-8.5 2.5z" />
<glyph unicode="&#x22;" horiz-adv-x="593" d="M174 1028v402q9 6 21 6q5 0 10 -1.5t7 -2.5l3 -2v-402q-10 -6 -20 -6q-5 0 -10.5 1.5t-8.5 2.5zM379 1028v402q8 6 20 6q5 0 10.5 -1.5t8.5 -2.5l2 -2v-402q-11 -6 -21 -6q-5 0 -10 1.5t-7 2.5z" />
<glyph unicode="#" horiz-adv-x="1138" d="M109 430q0 5 1.5 10.5t3.5 7.5l1 3h157l47 532h-155q-6 9 -6 21q0 5 1.5 10t2.5 8l2 2h158l36 406q9 6 21 6q5 0 10 -1.5t7 -2.5l3 -2l-34 -406h448l37 406q8 6 20 6q5 0 10.5 -1.5t7.5 -2.5l3 -2l-35 -406h168q6 -8 6 -20q0 -5 -1.5 -10.5t-2.5 -7.5l-2 -3h-172 l-47 -532h170q6 -9 6 -21q0 -5 -1.5 -10t-3.5 -8l-1 -2h-172l-35 -406q-10 -6 -20 -6q-5 0 -10.5 1.5t-7.5 2.5l-3 2l35 406h-451l-35 -406q-10 -6 -20 -6q-5 0 -10 1.5t-8 2.5l-2 2l34 406h-155q-6 8 -6 20zM313 451h451l47 532h-451z" />
<glyph unicode="$" horiz-adv-x="1183" d="M154 129q0 56 2 110t4 81l2 26q4 4 10 4l10 -4l15 -201q6 -4 17 -11.5t49.5 -26.5t81.5 -33.5t111.5 -26.5t141.5 -12q213 0 302 62t89 190v123q0 62 -27.5 110t-74.5 78t-108 53t-128.5 40.5t-134.5 35.5t-128 42t-108 56t-74.5 82.5t-27.5 116.5v123q0 141 93 215 t307 78v194q8 6 20 6q5 0 10 -1.5t8 -2.5l2 -2v-194q78 -2 146 -16.5t110 -34t72 -38.5t42 -33l13 -13q0 -56 -2 -110.5t-4 -80.5l-2 -27q-4 -4 -10 -4l-10 4l-15 201q-5 5 -15 12t-44.5 26.5t-73 34t-100.5 26.5t-127 12q-207 0 -293 -62t-86 -190v-123q0 -53 22.5 -95 t61.5 -69t91 -49.5t110.5 -37.5t120 -32.5t120 -34t110.5 -43t91 -59t61.5 -82.5t22.5 -112v-123q0 -142 -97 -216t-315 -77v-195q-10 -6 -20 -6q-5 0 -10 1.5t-8 3.5l-2 1v195q-87 2 -162.5 16.5t-121.5 34t-79.5 38.5t-46.5 33z" />
<glyph unicode="%" horiz-adv-x="1529" d="M145 1012v219q0 207 275 207q276 0 276 -207v-219q0 -207 -276 -207q-275 0 -275 207zM186 1012q0 -87 54 -129.5t180 -42.5t180.5 42.5t54.5 129.5v219q0 87 -54.5 129.5t-180.5 42.5t-180 -42.5t-54 -129.5v-219zM256 4l969 1426q8 6 24 6q7 0 13.5 -1.5t9.5 -2.5l2 -2 l-969 -1426q-14 -6 -24 -6q-7 0 -13.5 1.5t-9.5 2.5zM834 203v219q0 207 274 207q276 0 276 -207v-219q0 -207 -276 -207q-274 0 -274 207zM874 203q0 -87 54 -129.5t180 -42.5t180.5 42.5t54.5 129.5v219q0 87 -54.5 129.5t-180.5 42.5t-180 -42.5t-54 -129.5v-219z" />
<glyph unicode="&#x26;" horiz-adv-x="1505" d="M133 315v121q0 248 268 301q-237 56 -237 295v92q0 316 399 316q219 0 317.5 -75t98.5 -218v-123h348q6 -8 6 -20q0 -5 -1.5 -10.5t-3.5 -7.5l-1 -3h-348v-737q0 -108 50.5 -159.5t174.5 -51.5q68 0 123 18q6 -10 6 -22q0 -5 -1.5 -10.5t-3.5 -8.5l-1 -2 q-62 -16 -123 -16q-166 0 -227 92q-5 -4 -15.5 -10t-48 -22t-81.5 -28t-116.5 -22t-152.5 -10q-430 0 -430 321zM174 315q0 -142 90.5 -211t298.5 -69q97 0 187.5 17.5t133.5 33.5t74 33q-20 53 -20 127v901q0 129 -84.5 190.5t-290.5 61.5q-191 0 -274.5 -68t-83.5 -207 v-92q0 -139 85.5 -206.5t282.5 -67.5h113q6 -9 6 -21q0 -5 -1.5 -10t-2.5 -7l-2 -3h-113q-214 0 -306.5 -69.5t-92.5 -211.5v-121z" />
<glyph unicode="'" d="M174 1028v402q9 6 21 6q5 0 10 -1.5t7 -2.5l3 -2v-402q-10 -6 -20 -6q-5 0 -10.5 1.5t-8.5 2.5z" />
<glyph unicode="(" horiz-adv-x="606" d="M174 -14v1259q0 293 318 293q6 -8 6 -20q0 -5 -1.5 -10.5t-2.5 -7.5l-2 -3q-148 0 -212.5 -62.5t-64.5 -189.5v-1259q0 -127 64.5 -189.5t212.5 -62.5q6 -9 6 -21q0 -5 -1.5 -10t-2.5 -7l-2 -3q-318 0 -318 293z" />
<glyph unicode=")" horiz-adv-x="606" d="M109 -287q0 5 1.5 10.5t3.5 8.5l1 2q148 0 212 62.5t64 189.5v1259q0 127 -64 189.5t-212 62.5q-6 9 -6 21q0 5 1.5 10t3.5 8l1 2q317 0 317 -293v-1259q0 -293 -317 -293q-6 8 -6 20z" />
<glyph unicode="*" horiz-adv-x="1015" d="M115 1126q-8 3 5 32q5 10 7 9l360 -118v381q9 6 21 6q5 0 10 -1.5t8 -2.5l2 -2v-379l361 116q2 3 7 -7q11 -25 5 -32l-360 -116l223 -307q2 -2 -5.5 -9.5t-16.5 -13t-11 -2.5l-223 309l-223 -309q-11 0 -21 6q-4 4 -7 8.5t-4 7.5l-1 3l221 305z" />
<glyph unicode="+" horiz-adv-x="884" d="M113 614q0 5 1.5 10.5t3.5 7.5l1 3h303v303q8 6 20 6q5 0 10.5 -1.5t7.5 -2.5l3 -2v-303h303q6 -9 6 -21q0 -5 -1.5 -10t-2.5 -8l-2 -2h-303v-303q-9 -6 -21 -6q-5 0 -10 1.5t-8 3.5l-2 1v303h-303q-6 8 -6 20z" />
<glyph unicode="," d="M72 -180q4 4 10.5 12t23.5 38t30 65.5t23.5 96t10.5 128.5q11 6 25 6q6 0 12 -1.5t9 -2.5l3 -2q0 -71 -11 -132t-26.5 -97.5t-31 -63t-26.5 -37.5l-11 -10q-11 -6 -21 -6q-5 0 -10 1.5t-8 2.5z" />
<glyph unicode="-" horiz-adv-x="647" d="M113 594q0 5 1.5 10t3.5 8l1 2h409q7 -8 7 -20q0 -5 -1.5 -10.5t-3.5 -7.5l-2 -3h-409q-6 9 -6 21z" />
<glyph unicode="." d="M170 4v156q11 6 25 6q6 0 12 -1.5t9 -2.5l3 -2v-156q-12 -6 -24 -6z" />
<glyph unicode="/" horiz-adv-x="825" d="M113 4l559 1426q8 6 22 6q6 0 12 -1.5t8 -2.5l3 -2l-559 -1426q-13 -6 -23 -6q-6 0 -11.5 1.5t-7.5 2.5z" />
<glyph unicode="0" horiz-adv-x="1187" d="M164 287v860q0 293 430 293t430 -293v-860q0 -293 -430 -293t-430 293zM205 287q0 -127 90 -189.5t299 -62.5t299 62.5t90 189.5v860q0 127 -90 189.5t-299 62.5t-299 -62.5t-90 -189.5v-860z" />
<glyph unicode="1" horiz-adv-x="745" d="M113 1313l4 14l256 109q11 0 21.5 -1.5t15.5 -2.5l4 -2v-1391l215 -12q4 -5 4 -11l-4 -10q-66 -8 -236 -8q-76 0 -134.5 2t-79.5 4l-21 2q-4 4 -4 10l4 11l215 12v1341l-256 -82q-4 7 -4 15z" />
<glyph unicode="2" horiz-adv-x="1132" d="M152 1305q4 5 13 14.5t44 32.5t77 41t114 32.5t155 14.5q218 0 314 -74.5t96 -218.5v-123q0 -85 -26.5 -152t-71 -111t-102 -79.5t-121.5 -63l-128 -55t-121.5 -62.5t-102 -78.5t-71 -109t-26.5 -149.5v-123h741l14 174q5 4 11 4l10 -4q8 -43 8 -174q0 -11 -1.5 -21.5 t-3.5 -15.5l-1 -4h-441q-102 0 -196.5 2.5t-137.5 5.5l-44 2v154q0 89 26.5 160t71 117t102 83t121.5 65t128 55t121.5 60t102 74.5t71 104t26.5 141.5v123q0 128 -84.5 190t-284.5 62q-66 0 -127.5 -11.5t-102 -27.5t-71.5 -32.5t-45 -27.5l-14 -12l-15 -201q-4 -4 -10 -4 l-10 4q-8 93 -8 218z" />
<glyph unicode="3" horiz-adv-x="1122" d="M133 106q0 6 1.5 12t3.5 8l1 3q6 -4 17.5 -10t52 -22.5t86 -29t120 -22.5t154.5 -10q208 0 298.5 69t90.5 211v166q0 146 -100.5 213.5t-329.5 67.5h-82q-6 8 -6 20q0 5 1.5 10.5t2.5 7.5l2 3l467 590h-716l-15 -174q-4 -5 -10 -5q-12 0 -15 33t-3 146q0 11 1.5 21.5 t2.5 15.5l2 4h807q6 -9 6 -21q0 -5 -1.5 -10t-3.5 -7l-1 -3l-467 -590q127 0 219 -17t145.5 -44.5t84.5 -71t40.5 -87t9.5 -102.5v-166q0 -321 -430 -321q-85 0 -161 9.5t-123 23t-82 27t-49 22.5l-15 10q-6 8 -6 20z" />
<glyph unicode="4" horiz-adv-x="1089" d="M133 389l428 1041q11 6 25 6q6 0 12 -1.5t9 -2.5l3 -2l-424 -1020h613v610q8 6 20 6q5 0 10.5 -1.5t8.5 -2.5l2 -2v-608l174 -13q4 -4 4 -12l-4 -12q-51 -8 -174 -8v-363q-11 -6 -21 -6q-5 0 -10 1.5t-7 2.5l-3 2v365h-660q-6 8 -6 20z" />
<glyph unicode="5" horiz-adv-x="1122" d="M113 106q0 6 1.5 12t3.5 8l1 3q6 -4 17.5 -10t52 -22.5t86 -29t120 -22.5t154.5 -10q197 0 283 69t86 211v183q0 142 -87.5 211t-291.5 69h-349q-6 9 -6 21l31 624q150 11 379 11h280q7 -16 7 -41q0 -109 -3.5 -144t-15.5 -35l-10 5l-14 174h-582l-27 -574h310 q102 0 177 -16.5t121 -44.5t73.5 -70.5t37.5 -87.5t10 -102v-183q0 -321 -409 -321q-85 0 -161 9.5t-123 23t-82 27t-49 22.5l-15 10q-6 8 -6 20z" />
<glyph unicode="6" horiz-adv-x="1177" d="M174 287v807q0 170 97 257t317 87q108 0 199 -13t128 -26l37 -13q6 -8 6 -20q0 -6 -1.5 -12t-2.5 -8l-2 -3q-15 6 -43 15t-122.5 24t-198.5 15q-205 0 -289 -73.5t-84 -227.5v-334q6 5 18 12.5t55.5 27.5t93.5 35t131.5 27.5t170.5 12.5q175 0 252.5 -74.5t77.5 -218.5 v-297q0 -293 -420 -293t-420 293zM215 287q0 -127 88 -189.5t291 -62.5t291 62.5t88 189.5v297q0 128 -65 190t-222 62q-96 0 -180 -14t-135 -33.5t-88.5 -39t-52.5 -33.5l-15 -14v-415z" />
<glyph unicode="7" horiz-adv-x="1064" d="M113 1393q0 11 1.5 21.5t3.5 15.5l1 4h827q6 -9 6 -21l-579 -1409q-11 -6 -25 -6q-6 0 -12 1.5t-9 2.5l-3 2l575 1389h-743l-15 -174q-4 -5 -10 -5q-12 0 -15 33t-3 146z" />
<glyph unicode="8" horiz-adv-x="1187" d="M164 287v178q0 222 244 274q-213 55 -213 271v137q0 293 399 293t399 -293v-137q0 -216 -215 -271q246 -53 246 -274v-178q0 -293 -430 -293t-430 293zM205 287q0 -127 90 -189.5t299 -62.5t299 62.5t90 189.5v178q0 127 -90 189.5t-299 62.5t-299 -62.5t-90 -189.5v-178 zM236 1010q0 -127 83 -189.5t275 -62.5t275 62.5t83 189.5v137q0 127 -83 189.5t-275 62.5t-275 -62.5t-83 -189.5v-137z" />
<glyph unicode="9" horiz-adv-x="1177" d="M164 879v266q0 293 420 293t420 -293v-807q0 -169 -96.5 -256.5t-313.5 -87.5q-107 0 -199 12.5t-131 25.5l-39 13q-6 9 -6 21q0 6 1.5 11.5t3.5 8.5l1 2q16 -6 45.5 -15t125.5 -23.5t198 -14.5q202 0 285.5 73.5t83.5 227.5v364q-6 -5 -18 -12.5t-55.5 -27t-93.5 -34.5 t-131.5 -27.5t-170.5 -12.5q-175 0 -252.5 74.5t-77.5 218.5zM205 879q0 -128 65 -190t222 -62q96 0 180 13.5t135 33.5t88.5 39.5t52.5 32.5l15 14v385q0 127 -88 189.5t-291 62.5t-291 -62.5t-88 -189.5v-266z" />
<glyph unicode=":" d="M170 4v156q11 6 25 6q6 0 12 -1.5t9 -2.5l3 -2v-156q-12 -6 -24 -6zM170 864v156q11 6 25 6q6 0 12 -1.5t9 -2.5l3 -2v-156q-12 -6 -24 -6z" />
<glyph unicode=";" d="M72 -180q4 4 10.5 12t23.5 38t30 65.5t23.5 96t10.5 128.5q11 6 25 6q6 0 12 -1.5t9 -2.5l3 -2q0 -71 -11 -132t-26.5 -97.5t-31 -63t-26.5 -37.5l-11 -10q-11 -6 -21 -6q-5 0 -10 1.5t-8 2.5zM170 864v156q11 6 25 6q6 0 12 -1.5t9 -2.5l3 -2v-156q-12 -6 -24 -6z" />
<glyph unicode="&#x3c;" horiz-adv-x="954" d="M113 659l700 367q6 -11 6 -25l-6 -24l-616 -318l616 -317q6 -13 6 -25q0 -6 -1.5 -12t-3.5 -9l-1 -3z" />
<glyph unicode="=" horiz-adv-x="925" d="M111 469q0 5 1.5 10t3.5 7l1 3h688q6 -8 6 -20q0 -5 -1.5 -10t-3.5 -7l-1 -3h-688q-6 8 -6 20zM113 850q0 5 1.5 10t3.5 8l1 2h688q6 -8 6 -20q0 -5 -1.5 -10.5t-3.5 -7.5l-1 -3h-688q-6 9 -6 21z" />
<glyph unicode="&#x3e;" horiz-adv-x="954" d="M133 317l6 25l617 317l-617 318q-6 12 -6 24l6 25l701 -367l-701 -366q-6 10 -6 24z" />
<glyph unicode="?" horiz-adv-x="1038" d="M143 1305q4 5 12 14.5t39 32.5t69 41t103.5 32.5t139.5 14.5q202 0 290.5 -74.5t88.5 -218.5v-123q0 -61 -20 -107t-51.5 -74t-70.5 -50.5t-77.5 -44t-70 -47.5t-51.5 -69t-20 -100v-118q-10 -6 -20 -6q-5 0 -10.5 1.5t-7.5 2.5l-3 2v118q0 63 20 111t51.5 76.5 t70.5 51.5t77.5 44.5t70 46.5t51.5 66t20 96v123q0 128 -76.5 190t-261.5 62q-58 0 -112.5 -11.5t-90.5 -27.5t-63.5 -32.5t-40.5 -27.5l-13 -12l-14 -201q-4 -4 -10 -4l-10 4q-9 93 -9 218zM479 4v156q11 6 25 6q6 0 12 -1.5t9 -2.5l3 -2v-156q-12 -6 -24 -6z" />
<glyph unicode="@" horiz-adv-x="1392" d="M164 -61v757q0 164 131 249t426 85q235 0 338.5 -84.5t103.5 -249.5v-657l154 -12q4 -5 4 -11l-4 -10q-43 -8 -154 -8q-11 0 -21.5 1.5t-15.5 2.5l-4 2v125q-6 -5 -16.5 -14.5t-49.5 -32.5t-84 -41t-119 -32.5t-155 -14.5q-140 0 -202 63.5t-62 188.5v51q0 120 82.5 183 t271.5 83l334 35v98q0 98 -37 161t-126.5 97.5t-237.5 34.5q-145 0 -245.5 -18.5t-159.5 -57t-85 -91t-26 -126.5v-757q0 -115 42 -182t140.5 -99.5t269.5 -32.5q89 0 172 9.5t137 23.5t95.5 28t60.5 24l19 9q6 -8 6 -22q0 -5 -1.5 -10.5t-3.5 -8.5l-1 -2q-6 -4 -17.5 -10 t-54 -22t-93 -28t-136 -22t-181.5 -10q-267 0 -381 85t-114 270zM475 246q0 -107 51 -159t174 -52q63 0 120 8.5t98 22t76.5 29.5t58.5 32.5t39 30t23 22.5l7 8v369l-334 -35q-172 -18 -242.5 -71.5t-70.5 -153.5v-51z" />
<glyph unicode="A" horiz-adv-x="1472" d="M41 18l4 13l172 12l477 1348l-174 12q-4 4 -4 12l4 12q61 9 217 9q7 0 14 -1.5t10 -2.5l3 -2l489 -1387l174 -12q5 -5 5 -13l-5 -12q-55 -8 -180 -8q-69 0 -122 2t-71 4l-18 2q-4 4 -4 12l4 13l174 12l-143 408h-661l-146 -408l176 -12q4 -5 4 -13l-4 -12q-55 -8 -211 -8 q-56 0 -101 2t-62 4l-17 2q-4 4 -4 12zM420 492h633l-316 897z" />
<glyph unicode="B" horiz-adv-x="1273" d="M72 16l4 13l174 12v1352l-174 12q-4 4 -4 12l4 13q216 10 594 10q409 0 409 -316v-92q0 -239 -237 -295q268 -53 268 -301v-121q0 -321 -440 -321q-168 0 -316.5 2.5t-213.5 5.5l-64 2q-4 4 -4 12zM291 35h379q214 0 306.5 69t92.5 211v121q0 142 -92.5 211.5 t-306.5 69.5h-379v-682zM291 758h379q197 0 282.5 67.5t85.5 206.5v92q0 139 -85.5 207t-282.5 68h-379v-641z" />
<glyph unicode="C" horiz-adv-x="1218" d="M164 287v860q0 144 107 218.5t347 74.5q91 0 170.5 -14t127.5 -34t83.5 -39.5t49.5 -33.5l14 -14q0 -56 -2 -110.5t-4 -80.5l-2 -27q-5 -4 -11 -4l-10 4l-14 201q-6 5 -17 12t-49.5 26.5t-81.5 34t-112 26.5t-142 12q-154 0 -246 -29.5t-129.5 -83.5t-37.5 -139v-860 q0 -85 37.5 -139t129.5 -83.5t246 -29.5q81 0 156.5 9.5t125 23.5t87.5 28t55 24l17 9q6 -9 6 -23q0 -5 -1.5 -10t-3.5 -8l-1 -2q-5 -4 -15.5 -10t-49.5 -22t-85.5 -28t-124.5 -22t-166 -10q-240 0 -347 74.5t-107 218.5z" />
<glyph unicode="D" horiz-adv-x="1284" d="M72 16l4 13l174 12v1352l-174 12q-4 4 -4 12l4 13q144 10 573 10q471 0 471 -293v-860q0 -293 -471 -293q-168 0 -311.5 2.5t-202.5 5.5l-59 2q-4 4 -4 12zM291 35h358q230 0 330 62.5t100 189.5v860q0 127 -100 189.5t-330 62.5h-358v-1364z" />
<glyph unicode="E" horiz-adv-x="1140" d="M72 18l4 13l174 12v1348l-174 12q-4 4 -4 12l4 12q216 7 553 7h403q6 -16 6 -41q0 -72 -2 -126t-4 -71l-2 -18q-4 -4 -10 -4l-10 4l-15 215h-704v-635h608q6 -9 6 -21q0 -5 -1.5 -10t-3.5 -7l-1 -3h-608v-676h715l14 215q4 4 10 4l10 -4q9 -53 9 -215q0 -11 -1.5 -21.5 t-3.5 -15.5l-2 -4h-413q-150 0 -288.5 1.5t-201.5 2.5l-63 2q-4 4 -4 12z" />
<glyph unicode="F" horiz-adv-x="1110" d="M72 18l4 13l174 12v1348l-174 12q-4 4 -4 12l4 12q216 7 553 7h383q6 -16 6 -41q0 -72 -2 -125.5t-4 -71.5l-2 -18q-5 -4 -11 -4l-10 4l-14 215h-684v-635h598q6 -9 6 -21q0 -5 -1.5 -10t-3.5 -7l-1 -3h-598v-674l174 -12q4 -5 4 -13l-4 -12q-56 -8 -195 -8 q-62 0 -110.5 2t-65.5 4l-18 2q-4 4 -4 12z" />
<glyph unicode="G" horiz-adv-x="1239" d="M164 287v860q0 144 107 218.5t347 74.5q91 0 170.5 -14t127.5 -34t83.5 -39.5t49.5 -33.5l14 -14q0 -56 -2 -110.5t-4 -80.5l-2 -27q-5 -4 -11 -4l-10 4l-14 201q-6 5 -17 12t-49.5 26.5t-81.5 34t-112 26.5t-142 12q-154 0 -246 -29.5t-129.5 -83.5t-37.5 -139v-860 q0 -127 96 -189.5t317 -62.5q71 0 140 7.5t117 17.5t85.5 20.5t55.5 17.5l18 8v570h-383q-6 8 -6 20q0 5 1.5 10.5t3.5 7.5l1 3h97q88 0 170 -2.5t120 -4.5l37 -3v-631q-7 -3 -21 -8.5t-60 -20t-96 -25t-126.5 -19.5t-153.5 -9q-454 0 -454 293z" />
<glyph unicode="H" horiz-adv-x="1400" d="M72 18l4 13l174 12v1348l-174 12q-4 4 -4 12l4 12q55 9 194 9q62 0 110.5 -2t66.5 -4l18 -3q4 -4 4 -12l-4 -12l-174 -12v-633h819v633l-174 12q-4 4 -4 12l4 12q55 9 194 9q62 0 110.5 -2t66.5 -4l18 -3q4 -4 4 -12l-4 -12l-174 -12v-1348l174 -12q4 -5 4 -13l-4 -12 q-56 -8 -195 -8q-62 0 -110.5 2t-65.5 4l-18 2q-4 4 -4 12l4 13l174 12v674h-819v-674l174 -12q4 -5 4 -13l-4 -12q-56 -8 -195 -8q-62 0 -110.5 2t-65.5 4l-18 2q-4 4 -4 12z" />
<glyph unicode="I" horiz-adv-x="540" d="M72 18l4 13l174 12v1348l-174 12q-4 4 -4 12l4 12q55 9 194 9q62 0 110.5 -2t66.5 -4l18 -3q4 -4 4 -12l-4 -12l-174 -12v-1348l174 -12q4 -5 4 -13l-4 -12q-56 -8 -195 -8q-62 0 -110.5 2t-65.5 4l-18 2q-4 4 -4 12z" />
<glyph unicode="J" horiz-adv-x="956" d="M51 106q0 6 1.5 12t3.5 8l1 3q4 -4 12.5 -10t38.5 -22.5t63.5 -29t87.5 -22.5t112 -10q162 0 228.5 62t66.5 190v1104l-174 12q-5 4 -5 12l5 12q55 9 194 9q62 0 110.5 -2t66.5 -4l18 -3q4 -4 4 -12l-4 -12l-174 -12v-1104q0 -144 -79 -218.5t-257 -74.5 q-62 0 -117.5 9.5t-90 23t-60 27t-35.5 22.5l-11 10q-6 8 -6 20z" />
<glyph unicode="K" horiz-adv-x="1261" d="M72 18l4 13l174 12v1348l-174 12q-4 4 -4 12l4 12q55 9 194 9q62 0 110.5 -2t66.5 -4l18 -3q4 -4 4 -12l-4 -12l-174 -12v-684l231 61l441 623l-172 12q-5 4 -5 12l5 12q55 9 227 9q51 0 93.5 -2t59.5 -4l17 -3q4 -4 4 -12l-4 -12l-174 -12l-457 -643l475 -705l174 -12 q4 -5 4 -13l-4 -12q-55 -8 -174 -8q-76 0 -132 2t-74 4l-19 2q-4 4 -4 12l4 13l174 12l-459 684l-231 -61v-623l174 -12q4 -5 4 -13l-4 -12q-56 -8 -195 -8q-62 0 -110.5 2t-65.5 4l-18 2q-4 4 -4 12z" />
<glyph unicode="L" horiz-adv-x="1079" d="M72 18l4 13l174 12v1348l-174 12q-4 4 -4 12l4 12q55 9 194 9q62 0 110.5 -2t66.5 -4l18 -3q4 -4 4 -12l-4 -12l-174 -12v-1350h653l14 215q5 4 11 4l10 -4q8 -53 8 -215q0 -11 -1.5 -21.5t-3.5 -15.5l-1 -4h-352q-150 0 -288.5 1.5t-201.5 2.5l-63 2q-4 4 -4 12z" />
<glyph unicode="M" horiz-adv-x="1681" d="M72 18l4 13l174 12v1348l-174 12q-4 4 -4 12l4 12q55 9 194 9q5 0 10.5 -1.5t7.5 -2.5l3 -2l547 -1135l553 1135q8 6 20 6q62 0 110.5 -2t66.5 -4l18 -3q4 -4 4 -12l-4 -12l-174 -12v-1348l174 -12q4 -5 4 -13l-4 -12q-56 -8 -195 -8q-62 0 -110.5 2t-66.5 4l-17 2 q-5 4 -5 12l5 13l174 12v1290l-527 -1075q-10 -6 -26 -6l-29 6l-518 1075v-1290l174 -12q4 -5 4 -13l-4 -12q-56 -8 -195 -8q-62 0 -110.5 2t-65.5 4l-18 2q-4 4 -4 12z" />
<glyph unicode="N" horiz-adv-x="1431" d="M72 18l4 13l174 12v1348l-174 12q-4 4 -4 12l4 12q55 9 194 9q5 0 10.5 -1.5t7.5 -2.5l3 -2l850 -1352v1313l-174 12q-4 4 -4 12l4 12q55 9 194 9q62 0 110.5 -2t66.5 -4l18 -3q4 -4 4 -12l-4 -12l-174 -12v-1387q-9 -6 -21 -6l-20 6l-850 1352v-1313l174 -12q4 -5 4 -13 l-4 -12q-56 -8 -195 -8q-62 0 -110.5 2t-65.5 4l-18 2q-4 4 -4 12z" />
<glyph unicode="O" horiz-adv-x="1269" d="M164 287v860q0 293 471 293t471 -293v-860q0 -293 -471 -293t-471 293zM205 287q0 -127 100 -189.5t330 -62.5t330 62.5t100 189.5v860q0 127 -100 189.5t-330 62.5t-330 -62.5t-100 -189.5v-860z" />
<glyph unicode="P" horiz-adv-x="1181" d="M72 18l4 13l174 12v1350l-174 12q-4 4 -4 12l4 13q216 10 532 10q430 0 430 -293v-178q0 -293 -430 -293q-91 0 -170.5 2t-113.5 4l-33 2v-641l174 -12q4 -5 4 -13l-4 -12q-56 -8 -195 -8q-62 0 -110.5 2t-65.5 4l-18 2q-4 4 -4 12zM291 717h317q208 0 298.5 62.5 t90.5 189.5v178q0 127 -90.5 189.5t-298.5 62.5h-317v-682z" />
<glyph unicode="Q" horiz-adv-x="1269" d="M164 287v860q0 293 471 293t471 -293v-860q0 -244 -324 -285l209 -356q-8 -6 -24 -6l-25 6l-205 352q-62 -4 -102 -4q-471 0 -471 293zM205 287q0 -127 100 -189.5t330 -62.5t330 62.5t100 189.5v860q0 127 -100 189.5t-330 62.5t-330 -62.5t-100 -189.5v-860z" />
<glyph unicode="R" horiz-adv-x="1284" d="M72 18l4 13l174 12v1348l-174 12q-4 4 -4 12l4 12q216 13 532 13q430 0 430 -293v-178q0 -261 -336 -289l353 -637l174 -12q4 -5 4 -13l-4 -12q-55 -8 -176 -8q-74 0 -129.5 2t-73.5 4l-19 2q-4 4 -4 12l4 13l175 12l-347 633h-51q-91 0 -170.5 2t-113.5 4l-33 2v-641 l174 -12q4 -5 4 -13l-4 -12q-56 -8 -195 -8q-62 0 -110.5 2t-65.5 4l-18 2q-4 4 -4 12zM291 717h317q208 0 298.5 62.5t90.5 189.5v178q0 127 -90.5 189.5t-298.5 62.5h-317v-682z" />
<glyph unicode="S" horiz-adv-x="1193" d="M164 119q0 56 2 110t4 81l2 26q4 4 10 4l11 -4l14 -201l16.5 -11t48 -24t79.5 -30t109 -24t138 -11q213 0 302 62t89 190v123q0 62 -27.5 110t-74.5 78t-108 53t-128.5 40.5t-134.5 35.5t-128 42t-108 56t-74.5 82.5t-27.5 116.5v123q0 144 98 218.5t322 74.5 q83 0 154.5 -13t115.5 -31t75.5 -36.5t44.5 -31.5l13 -13q0 -56 -2 -110t-4 -81l-2 -26q-4 -4 -10 -4l-10 4l-15 200q-5 4 -15 11t-44.5 24.5t-73 30.5t-100.5 24t-127 11q-207 0 -293 -62t-86 -190v-123q0 -53 22.5 -95t61.5 -69t91 -49.5t110.5 -37.5t120 -32.5t120 -34 t110.5 -43t91 -59t61.5 -82.5t22.5 -112v-123q0 -145 -101 -219t-331 -74q-89 0 -166 13t-124 31t-81.5 36.5t-48.5 31.5z" />
<glyph unicode="T" horiz-adv-x="1218" d="M92 1393q0 11 1.5 21.5t2.5 15.5l2 4h1022q6 -16 6 -41q0 -72 -2 -126t-4 -71l-2 -18q-4 -4 -10 -4l-10 4l-15 215h-448v-1350l174 -12q4 -5 4 -13l-4 -12q-56 -8 -195 -8q-62 0 -110.5 2t-65.5 4l-18 2q-4 4 -4 12l4 13l174 12v1350h-459l-14 -215q-4 -4 -10 -4l-11 4 q-8 53 -8 215z" />
<glyph unicode="U" horiz-adv-x="1421" d="M72 1415l4 12q55 9 194 9q62 0 110.5 -2t66.5 -4l18 -3q4 -4 4 -12l-4 -12l-174 -12v-1104q0 -127 98 -189.5t322 -62.5t321.5 62.5t97.5 189.5v1104l-174 12q-4 4 -4 12l4 12q56 9 195 9q62 0 110.5 -2t66.5 -4l18 -3q4 -4 4 -12l-4 -12l-175 -12v-1104 q0 -293 -460 -293q-461 0 -461 293v1104l-174 12q-4 4 -4 12z" />
<glyph unicode="V" horiz-adv-x="1472" d="M41 1415l4 12q55 9 180 9q68 0 120.5 -2t70.5 -4l18 -3q4 -4 4 -12l-4 -12l-174 -12l477 -1346l473 1346l-172 12q-4 4 -4 12l4 12q55 9 209 9q56 0 101 -2t62 -4l17 -3q5 -4 5 -12l-5 -12l-174 -12l-489 -1387q-11 -6 -27 -6q-7 0 -14 1.5t-11 2.5l-3 2l-492 1387 l-172 12q-4 4 -4 12z" />
<glyph unicode="W" horiz-adv-x="2152" d="M41 1415l4 12q55 9 184 9q68 0 119.5 -2t69.5 -4l18 -3q4 -4 4 -12l-4 -12l-174 -12l397 -1346l392 1385q8 6 24 6q7 0 14 -1.5t10 -2.5l3 -2l395 -1385l393 1346l-172 12q-4 4 -4 12l4 12q55 9 205 9q57 0 103 -2t64 -4l17 -3q4 -4 4 -12l-4 -12l-174 -12l-409 -1387 q-13 -6 -29 -6l-27 6l-393 1382l-389 -1382q-11 -6 -27 -6q-7 0 -14 1.5t-11 2.5l-3 2l-414 1387l-172 12q-4 4 -4 12z" />
<glyph unicode="X" horiz-adv-x="1388" d="M51 18l4 13l174 12l441 680l-430 668l-174 12q-5 4 -5 12l5 12q55 9 172 9q76 0 132 -2t74 -4l19 -3q4 -4 4 -12l-4 -12l-174 -12l405 -635l406 635l-174 12q-4 4 -4 12l4 12q55 9 225 9q52 0 95 -2t60 -4l17 -3q4 -4 4 -12l-4 -12l-174 -12l-430 -668l438 -680l176 -12 q4 -5 4 -13l-4 -12q-55 -8 -174 -8q-75 0 -130.5 2t-74.5 4l-18 2q-4 4 -4 12l4 13l174 12l-416 647l-415 -647l174 -12q4 -5 4 -13l-4 -12q-56 -8 -224 -8q-53 0 -96.5 2t-60.5 4l-17 2q-4 4 -4 12z" />
<glyph unicode="Y" horiz-adv-x="1349" d="M41 1415l4 12q55 9 172 9q75 0 130.5 -2t74.5 -4l18 -3q4 -4 4 -12l-4 -12l-174 -12l408 -697l407 697l-174 12q-4 4 -4 12l4 12q55 9 223 9q53 0 96.5 -2t61.5 -4l17 -3q4 -4 4 -12l-4 -12l-177 -12l-434 -732v-616l174 -12q4 -5 4 -13l-4 -12q-55 -8 -194 -8 q-62 0 -110.5 2t-66.5 4l-18 2q-4 4 -4 12l4 13l174 12v616l-436 732l-172 12q-4 4 -4 12z" />
<glyph unicode="Z" horiz-adv-x="1157" d="M123 20q0 5 1.5 10.5t3.5 7.5l1 3l844 1352h-801l-14 -215q-5 -4 -11 -4l-10 4q-8 53 -8 215q0 11 1.5 21.5t3.5 15.5l1 4h887q6 -9 6 -21q0 -5 -1.5 -10t-2.5 -7l-2 -3l-844 -1352h813l15 215q4 4 10 4l10 -4q8 -53 8 -215q0 -11 -1.5 -21.5t-2.5 -15.5l-2 -4h-899 q-6 8 -6 20z" />
<glyph unicode="[" horiz-adv-x="606" d="M174 -309v1847q84 0 162.5 -1.5t115.5 -2.5l37 -2q5 -9 5 -19l-5 -18q-106 -4 -274 -4v-1753l274 -4q5 -9 5 -19l-5 -18q-127 -6 -315 -6z" />
<glyph unicode="\" horiz-adv-x="825" d="M113 1430q8 6 22 6q6 0 12 -1.5t9 -2.5l2 -2l559 -1426q-9 -6 -23 -6l-22 6z" />
<glyph unicode="]" horiz-adv-x="606" d="M113 -285l4 19q106 4 274 4v1753l-274 4q-4 8 -4 18l4 19q127 6 315 6v-1847q-84 0 -162.5 1.5t-115.5 3.5l-37 1q-4 8 -4 18z" />
<glyph unicode="^" horiz-adv-x="921" d="M113 1094l346 346l346 -346q3 -2 -3.5 -10.5t-15 -15t-10.5 -3.5l-317 317l-318 -317q-2 -3 -10 4t-14.5 15t-3.5 10z" />
<glyph unicode="_" horiz-adv-x="1044" d="M10 -102h1024v-41h-1024v41z" />
<glyph unicode="`" d="M49 1430q11 6 27 6q7 0 13.5 -1.5t9.5 -2.5l3 -2l238 -238q-11 -6 -27 -6l-26 6z" />
<glyph unicode="a" horiz-adv-x="1091" d="M154 246v41q0 120 81 184.5t263 81.5l323 31v153q0 128 -70.5 190t-238.5 62q-164 0 -281 -65l-14 -197q-4 -4 -10 -4l-10 4q-9 92 -9 217q4 3 11.5 9t36 21t62.5 26t91.5 20.5t122.5 9.5q185 0 267.5 -74.5t82.5 -218.5v-698l154 -12q4 -5 4 -11l-4 -10q-45 -8 -154 -8 q-11 0 -21 1.5t-14 2.5l-4 2v125q-5 -5 -15.5 -14.5t-48 -32.5t-81 -41t-115.5 -32.5t-151 -14.5q-135 0 -196.5 64t-61.5 188zM195 246q0 -107 49.5 -159t167.5 -52q83 0 156 16t117 38.5t76.5 44.5t46.5 38l13 16v355l-323 -31q-165 -17 -234 -71t-69 -154v-41z" />
<glyph unicode="b" horiz-adv-x="1085" d="M27 1417l4 10q44 9 153 9q13 0 23 -1.5t14 -2.5l4 -2v-537q3 10 11 22.5t34 34t63.5 38.5t106 29.5t154.5 12.5q173 0 250.5 -74.5t77.5 -218.5v-450q0 -144 -68 -218.5t-221 -74.5q-77 0 -147.5 14t-116 33.5t-79.5 39.5t-50 34l-15 14v-125q-8 -6 -20 -6 q-5 0 -10.5 1.5t-8.5 2.5l-2 2v1391l-153 12q-4 4 -4 10zM225 188q5 -6 14 -16.5t44 -37t77.5 -46.5t116 -36.5t156.5 -16.5q136 0 192 62t56 190v450q0 128 -65 190t-224 62q-197 0 -282 -62.5t-85 -189.5v-549z" />
<glyph unicode="c" horiz-adv-x="1034" d="M164 287v450q0 144 85.5 218.5t276.5 74.5q71 0 134 -9t101.5 -21.5t67 -25t40.5 -21.5l12 -9q0 -56 -2.5 -110t-4.5 -80l-2 -27q-4 -4 -10 -4l-10 4l-14 197q-133 65 -312 65q-176 0 -248.5 -61.5t-72.5 -190.5v-450q0 -129 72.5 -190.5t250.5 -61.5q64 0 123 8.5 t97.5 21t68.5 25t43 20.5l14 9q7 -9 7 -23q0 -5 -1.5 -10t-3.5 -8l-2 -2q-4 -3 -12.5 -8.5t-39 -20t-67 -25t-98.5 -19.5t-131 -9q-191 0 -276.5 74.5t-85.5 218.5z" />
<glyph unicode="d" horiz-adv-x="1130" d="M164 287v450q0 144 77.5 218.5t250.5 74.5q86 0 154.5 -13t105.5 -30t63 -38.5t34 -34t11 -21.5v502l-153 12q-5 4 -5 10q0 12 31.5 15.5t126.5 3.5q11 0 21.5 -1.5t14.5 -2.5l5 -2v-1391l154 -12q4 -5 4 -11l-4 -10q-45 -8 -154 -8q-11 0 -21.5 1.5t-15.5 2.5l-4 2v125 q-5 -5 -15.5 -14.5t-48 -32.5t-81 -41t-114.5 -32.5t-148 -14.5q-153 0 -221 74.5t-68 218.5zM205 287q0 -128 56 -190t192 -62q61 0 116 8.5t95 22t74 29.5t55.5 32.5t37.5 30t23 22.5l6 8v549q0 127 -84.5 189.5t-281.5 62.5q-159 0 -224 -62t-65 -190v-450z" />
<glyph unicode="e" horiz-adv-x="1085" d="M164 287v450q0 144 89.5 218.5t289.5 74.5t289.5 -74.5t89.5 -218.5v-225q-144 -10 -359 -10h-358v-215q0 -128 76.5 -190t261.5 -62q67 0 128.5 8.5t102 21t72 25t45.5 20.5l14 9q6 -9 6 -23q0 -5 -1.5 -10t-3.5 -8l-1 -2q-4 -3 -12.5 -8.5t-40.5 -20t-70 -25 t-102.5 -19.5t-136.5 -9q-200 0 -289.5 74.5t-89.5 218.5zM205 543h676v194q0 128 -76.5 190t-261.5 62t-261.5 -62t-76.5 -190v-194z" />
<glyph unicode="f" horiz-adv-x="696" d="M72 16l4 11l153 12v944l-153 12q-4 5 -4 11l4 10q49 8 153 8v164q0 124 63 188t204 64q56 0 122 -17q7 -8 7 -20q0 -5 -1.5 -11t-3.5 -9l-2 -3q-59 19 -122 19q-124 0 -175 -51.5t-51 -159.5v-164h348q7 -8 7 -20q0 -5 -1.5 -10.5t-3.5 -7.5l-2 -3h-348v-944l154 -12 q4 -5 4 -11l-4 -10q-49 -8 -174 -8q-56 0 -99.5 2t-58.5 4l-16 2q-4 4 -4 10z" />
<glyph unicode="g" horiz-adv-x="1085" d="M164 287v450q0 144 68 218.5t221 74.5q77 0 147.5 -14t115.5 -34t79.5 -39.5t49.5 -33.5l15 -14v125q9 6 21 6q5 0 10 -1.5t7 -2.5l3 -2v-1143q0 -144 -89.5 -218.5t-289.5 -74.5q-95 0 -176.5 13t-115.5 25l-35 13q-7 9 -7 21q0 6 2 11.5t4 8.5l1 2q14 -6 40 -15 t111.5 -23.5t175.5 -14.5q185 0 261.5 62t76.5 190v248q-3 -9 -10.5 -20.5t-34 -32.5t-63.5 -37t-105.5 -28.5t-154.5 -12.5q-173 0 -250.5 74.5t-77.5 218.5zM205 287q0 -128 65 -190t224 -62q197 0 281.5 62.5t84.5 189.5v549q-4 6 -13.5 16.5t-44.5 37t-77.5 46.5 t-115.5 36.5t-156 16.5q-136 0 -192 -62t-56 -190v-450z" />
<glyph unicode="h" horiz-adv-x="1185" d="M72 16l4 11l153 12v1356l-153 12q-4 4 -4 10l4 10q42 9 153 9q11 0 21.5 -1.5t15.5 -2.5l4 -2v-535q5 5 15.5 14.5t47 32.5t78 41t110.5 32.5t143 14.5q155 0 223.5 -74.5t68.5 -218.5v-698l154 -12q4 -5 4 -11l-4 -10q-43 -8 -154 -8q-11 0 -21.5 1.5t-14.5 2.5l-5 2 v733q0 128 -56.5 190t-194.5 62q-59 0 -112 -8.5t-91.5 -22t-71.5 -29.5t-54.5 -32.5t-36.5 -30t-22 -22.5l-6 -8v-797l154 -12q4 -5 4 -11l-4 -10q-49 -8 -174 -8q-56 0 -99.5 2t-58.5 4l-16 2q-4 4 -4 10z" />
<glyph unicode="i" horiz-adv-x="499" d="M72 16l4 11l153 12v946l-153 12q-4 5 -4 11l4 10q42 8 153 8q11 0 21.5 -1.5t15.5 -2.5l4 -2v-981l154 -12q4 -5 4 -11l-4 -10q-49 -8 -174 -8q-56 0 -99.5 2t-58.5 4l-16 2q-4 4 -4 10zM229 1243v187q9 6 21 6q5 0 10 -1.5t8 -2.5l2 -2v-187q-10 -6 -20 -6 q-5 0 -10.5 1.5t-7.5 3.5z" />
<glyph unicode="j" horiz-adv-x="481" d="M-57 -379l6 23q59 -19 123 -19q102 0 143 47t41 144v1169l-154 12q-4 5 -4 11l4 10q43 8 154 8q11 0 21.5 -1.5t14.5 -2.5l5 -2v-1204q0 -113 -53 -172.5t-172 -59.5q-57 0 -123 17q-6 8 -6 20zM256 1243v187q8 6 20 6q5 0 10.5 -1.5t7.5 -2.5l3 -2v-187q-11 -6 -21 -6 q-5 0 -10 1.5t-8 3.5z" />
<glyph unicode="k" horiz-adv-x="1026" d="M72 16l4 11l153 12v1356l-153 12q-4 4 -4 10l4 10q42 9 153 9q11 0 21.5 -1.5t15.5 -2.5l4 -2v-928l181 61l311 424l-113 10q-4 5 -4 11l4 10q47 8 164 8q41 0 75.5 -2t49.5 -4l14 -2q4 -4 4 -10l-4 -11l-141 -12l-326 -442l344 -504l142 -12q4 -5 4 -11l-4 -10 q-43 -8 -129 -8l-39 6l-352 518l-181 -61v-422l154 -12q4 -5 4 -11l-4 -10q-49 -8 -174 -8q-56 0 -99.5 2t-58.5 4l-16 2q-4 4 -4 10z" />
<glyph unicode="l" horiz-adv-x="499" d="M72 16l4 11l153 12v1356l-153 12q-4 4 -4 10l4 10q42 9 153 9q11 0 21.5 -1.5t15.5 -2.5l4 -2v-1391l154 -12q4 -5 4 -11l-4 -10q-49 -8 -174 -8q-56 0 -99.5 2t-58.5 4l-16 2q-4 4 -4 10z" />
<glyph unicode="m" horiz-adv-x="1748" d="M72 16l4 11l153 12v946l-153 12q-4 5 -4 11l4 10q42 8 153 8q11 0 21.5 -1.5t15.5 -2.5l4 -2v-125q5 5 14 14.5t43 32.5t72.5 41t102.5 32.5t133 14.5q199 0 246 -131q5 5 15 14t45 31.5t75 40t106 31.5t138 14q138 0 199 -66t61 -196v-729l153 -12q4 -5 4 -11l-4 -10 q-42 -8 -153 -8q-11 0 -21.5 1.5t-14.5 2.5l-5 2v764q0 112 -50.5 166.5t-171.5 54.5q-82 0 -151 -16t-111.5 -40.5t-64.5 -42.5t-35 -34v-817l154 -12q4 -5 4 -11l-4 -10q-50 -8 -175 -8q-56 0 -99.5 2t-58.5 4l-16 2q-4 4 -4 10l4 11l154 12v729q0 112 -50 166.5 t-171 54.5q-74 0 -138.5 -16t-104 -38.5t-68 -44.5t-40.5 -38l-12 -16v-797l154 -12q4 -5 4 -11l-4 -10q-51 -8 -176 -8q-55 0 -98 2t-58 4l-16 2q-4 4 -4 10z" />
<glyph unicode="n" horiz-adv-x="1196" d="M72 16l4 11l153 12v946l-153 12q-4 5 -4 11l4 10q42 8 153 8q11 0 21.5 -1.5t15.5 -2.5l4 -2v-125q5 5 15.5 14.5t47.5 32.5t79.5 41t112 32.5t145.5 14.5q157 0 227 -74.5t70 -218.5v-698l153 -12q4 -5 4 -11l-4 -10q-42 -8 -153 -8q-11 0 -21.5 1.5t-15.5 2.5l-4 2v733 q0 129 -57.5 190.5t-198.5 61.5q-81 0 -152.5 -16t-115 -38.5t-75 -44.5t-44.5 -38l-13 -16v-797l154 -12q4 -5 4 -11l-4 -10q-49 -8 -174 -8q-56 0 -99.5 2t-58.5 4l-16 2q-4 4 -4 10z" />
<glyph unicode="o" horiz-adv-x="1105" d="M164 287v450q0 293 389 293t389 -293v-450q0 -293 -389 -293t-389 293zM205 287q0 -127 80.5 -189.5t267.5 -62.5t267.5 62.5t80.5 189.5v450q0 127 -80.5 189.5t-267.5 62.5t-267.5 -62.5t-80.5 -189.5v-450z" />
<glyph unicode="p" horiz-adv-x="1130" d="M72 -393l4 10l153 12v1356l-153 12q-4 5 -4 11l4 10q42 8 153 8q11 0 21.5 -1.5t15.5 -2.5l4 -2v-125q5 5 15.5 14.5t48.5 32.5t81 41t114.5 32.5t148.5 14.5q153 0 221 -74.5t68 -218.5v-450q0 -144 -77.5 -218.5t-250.5 -74.5q-86 0 -154.5 12.5t-106 29t-63.5 38 t-34 33t-11 20.5v-498l154 -12q4 -4 4 -10l-4 -10q-49 -9 -174 -9q-56 0 -99.5 2t-58.5 4l-16 3q-4 4 -4 10zM270 287q0 -127 85 -189.5t282 -62.5q159 0 224 62t65 190v450q0 128 -56 190t-192 62q-61 0 -116 -8.5t-95 -22t-74 -29.5t-56 -32.5t-37.5 -30t-22.5 -22.5 l-7 -8v-549z" />
<glyph unicode="q" horiz-adv-x="1085" d="M164 287v450q0 144 68 218.5t221 74.5q77 0 147.5 -14t115.5 -34t79.5 -39.5t49.5 -33.5l15 -14v125q9 6 21 6q5 0 10 -1.5t7 -2.5l3 -2v-1391l154 -12q4 -4 4 -10l-4 -10q-49 -9 -174 -9q-106 0 -142.5 3.5t-36.5 15.5l5 10l153 12v496q-3 -9 -10.5 -20.5t-34 -32.5 t-63.5 -37t-105.5 -28.5t-154.5 -12.5q-173 0 -250.5 74.5t-77.5 218.5zM205 287q0 -128 65 -190t224 -62q197 0 281.5 62.5t84.5 189.5v549q-4 6 -13.5 16.5t-44.5 37t-77.5 46.5t-115.5 36.5t-156 16.5q-136 0 -192 -62t-56 -190v-450z" />
<glyph unicode="r" horiz-adv-x="798" d="M72 16l4 11l153 12v946l-153 12q-4 5 -4 11l4 10q42 8 153 8q11 0 21.5 -1.5t15.5 -2.5l4 -2v-168q6 7 16.5 19t49 43t83.5 54.5t118 42.5t153 19q6 -8 6 -20q0 -5 -1.5 -10.5t-2.5 -7.5l-2 -3q-85 0 -160 -21t-120.5 -51t-79 -60.5t-46.5 -51.5l-14 -21v-745l154 -12 q4 -5 4 -11l-4 -10q-49 -8 -174 -8q-56 0 -99.5 2t-58.5 4l-16 2q-4 4 -4 10z" />
<glyph unicode="s" horiz-adv-x="983" d="M154 68q0 56 2 110t4 80l2 27q4 4 10 4l10 -4l15 -197q129 -55 292 -55t231 57t68 174v41q0 50 -34.5 85.5t-89.5 55.5t-122 35.5t-134 33t-122 40t-89.5 64t-34.5 98.5v41q0 135 76 203.5t251 68.5q63 0 118.5 -8.5t90 -20.5t60.5 -24t36 -21l11 -8q0 -56 -2 -110 t-4 -80l-2 -27q-5 -4 -11 -4l-10 4l-14 197q-114 61 -273 61q-156 0 -221 -57t-65 -174v-41q0 -46 34.5 -79t89.5 -52t122 -34.5t134 -33.5t122 -42.5t89.5 -68t34.5 -102.5v-41q0 -135 -79.5 -203.5t-260.5 -68.5q-68 0 -127.5 8t-95.5 19t-63 22t-38 19z" />
<glyph unicode="t" horiz-adv-x="737" d="M72 1006l4 10q49 8 153 8v201q9 6 21 6q5 0 10 -1.5t8 -3.5l2 -1v-201h348q7 -8 7 -20q0 -5 -1.5 -10.5t-3.5 -7.5l-2 -3h-348v-737q0 -108 51 -159.5t175 -51.5q66 0 122 18q7 -10 7 -22q0 -5 -1.5 -10.5t-3.5 -8.5l-2 -2q-62 -16 -122 -16q-141 0 -204 64t-63 188v737 l-153 12q-4 5 -4 11z" />
<glyph unicode="u" horiz-adv-x="1206" d="M72 1008l4 10q42 8 153 8q11 0 21.5 -1.5t15.5 -2.5l4 -2v-733q0 -128 57 -190t195 -62q84 0 158 16t118.5 38.5t77.5 44.5t46 38l14 16v797l-154 12q-4 5 -4 11l4 10q43 8 154 8q11 0 21.5 -1.5t14.5 -2.5l5 -2v-981l153 -12q5 -5 5 -11q0 -12 -30.5 -15t-127.5 -3 q-11 0 -21.5 1.5t-15.5 2.5l-4 2v125q-5 -5 -16 -14.5t-49 -32.5t-82 -41t-116 -32.5t-151 -14.5q-156 0 -224.5 74.5t-68.5 218.5v698l-153 12q-4 5 -4 11z" />
<glyph unicode="v" horiz-adv-x="1206" d="M41 1008l4 10q48 8 150 8q52 0 92.5 -2t55.5 -4l15 -2q4 -4 4 -10l-4 -11l-129 -12l375 -940l371 940l-127 12q-4 5 -4 11l4 10q47 8 164 8q45 0 82.5 -2t51.5 -4l15 -2q4 -4 4 -10l-4 -11l-143 -12l-387 -981q-11 -6 -27 -6l-29 6l-389 981l-141 12q-4 5 -4 11z" />
<glyph unicode="w" horiz-adv-x="1763" d="M41 1008l4 10q48 8 154 8q102 0 135 -3t33 -15l-5 -11l-131 -12l316 -942l309 977q9 6 25 6q7 0 13.5 -1.5t9.5 -2.5l3 -2l312 -977l313 942l-131 12q-4 5 -4 11l4 10q47 8 164 8q47 0 85.5 -2t53.5 -4l14 -2q4 -4 4 -10l-4 -11l-143 -12l-328 -981q-12 -6 -28 -6l-27 6 l-311 973l-308 -973q-10 -6 -26 -6l-29 6l-332 981l-141 12q-4 5 -4 11z" />
<glyph unicode="x" horiz-adv-x="1161" d="M51 1008l4 10q50 8 142 8q56 0 99.5 -2t59.5 -4l15 -2q4 -4 4 -10l-4 -11l-115 -10l326 -436l323 436l-112 10q-5 5 -5 11q0 12 32.5 15t135.5 3q41 0 76 -2t50 -4l14 -2q4 -4 4 -10l-4 -11l-144 -12l-346 -467l357 -479l143 -12q4 -5 4 -11l-4 -10q-45 -8 -131 -8l-35 6 l-358 481l-336 -450l116 -8q5 -5 5 -11q0 -12 -32.5 -15t-135.5 -3q-42 0 -77.5 2t-49.5 4l-15 2q-4 4 -4 10l4 11l142 12l358 479l-350 467l-152 12q-4 5 -4 11z" />
<glyph unicode="y" horiz-adv-x="1208" d="M41 1008l4 10q48 8 152 8q102 0 135 -3t33 -15l-5 -11l-131 -12l375 -940l371 940l-127 12q-4 5 -4 11l4 10q47 8 164 8q46 0 84 -2t52 -4l15 -2q4 -4 4 -10l-4 -11l-143 -12l-465 -1169q-45 -115 -113 -173.5t-176 -58.5q-24 0 -46 2t-32 4l-10 2q-6 9 -6 21q0 5 1.5 10 t2.5 7l2 3q33 -8 88 -8q93 0 149.5 47t96.5 144l76 184l-10 4l-392 981l-141 12q-4 5 -4 11z" />
<glyph unicode="z" horiz-adv-x="1013" d="M135 20q0 5 1.5 10.5t3.5 7.5l1 3l678 942h-637l-14 -174q-4 -4 -10 -4l-11 4q-8 43 -8 174q0 11 1.5 21.5t3.5 15.5l1 4h723q6 -8 6 -20q0 -5 -1.5 -10.5t-2.5 -7.5l-2 -3l-678 -942h646l14 174q4 4 10 4l10 -4q9 -43 9 -174q0 -11 -1.5 -21.5t-3.5 -15.5l-2 -4h-731 q-6 8 -6 20z" />
<glyph unicode="{" horiz-adv-x="823" d="M109 616q0 5 1.5 10.5t3.5 7.5l1 3q148 0 212 62.5t64 189.5v356q0 293 318 293q6 -8 6 -20q0 -5 -1.5 -10.5t-3.5 -7.5l-1 -3q-148 0 -212.5 -62.5t-64.5 -189.5v-356q0 -220 -172 -275q172 -55 172 -270v-358q0 -127 64.5 -189.5t212.5 -62.5q6 -9 6 -21q0 -5 -1.5 -10 t-3.5 -7l-1 -3q-318 0 -318 293v358q0 125 -64.5 188.5t-211.5 63.5q-6 8 -6 20z" />
<glyph unicode="|" d="M174 -201v1733q9 6 21 6q5 0 10 -1.5t7 -2.5l3 -2v-1733q-10 -6 -20 -6q-5 0 -10.5 1.5t-8.5 3.5z" />
<glyph unicode="}" horiz-adv-x="823" d="M109 -287q0 5 1.5 10.5t3.5 8.5l1 2q148 0 212 62.5t64 189.5v358q0 215 172 270q-172 55 -172 275v356q0 127 -64 189.5t-212 62.5q-6 9 -6 21q0 5 1.5 10t3.5 8l1 2q317 0 317 -293v-356q0 -127 64.5 -189.5t212.5 -62.5q6 -9 6 -21q0 -5 -1.5 -10t-3.5 -8l-1 -2 q-147 0 -212 -63.5t-65 -188.5v-358q0 -293 -317 -293q-6 8 -6 20z" />
<glyph unicode="~" horiz-adv-x="901" d="M133 537v10q0 87 37.5 129.5t126.5 42.5q43 0 78.5 -15t60.5 -37t49 -44t54.5 -37t66.5 -15q66 0 93.5 32t27.5 99v11q9 6 21 6q5 0 10 -1.5t8 -3.5l2 -1v-11q0 -87 -36.5 -129.5t-125.5 -42.5q-43 0 -79 15t-61.5 37t-49.5 44t-54.5 37t-64.5 15q-66 0 -94.5 -32.5 t-28.5 -98.5v-10q-8 -7 -20 -7q-5 0 -10.5 2t-7.5 4z" />
<glyph unicode="&#xa1;" d="M170 864v156q13 6 25 6q6 0 12 -1.5t9 -2.5l3 -2v-156q-10 -6 -24 -6zM174 -406v1016q11 6 21 6q5 0 10 -1.5t7 -2.5l3 -2v-1016q-8 -6 -20 -6q-5 0 -10.5 1.5t-8.5 2.5z" />
<glyph unicode="&#xa2;" horiz-adv-x="1034" d="M164 287v450q0 140 81 214.5t263 78.5v195q8 6 20 6q5 0 10.5 -1.5t7.5 -3.5l3 -1v-195q67 -2 125.5 -11.5t94.5 -21.5t63 -24t38 -21l11 -8q0 -56 -2.5 -110t-4.5 -80l-2 -27q-4 -4 -10 -4l-10 4l-14 197q-133 65 -312 65q-176 0 -248.5 -61.5t-72.5 -190.5v-450 q0 -129 72.5 -190.5t250.5 -61.5q64 0 123 8.5t97.5 21t68.5 25t43 20.5l14 9q7 -9 7 -23q0 -5 -1.5 -10t-3.5 -8l-2 -2q-4 -3 -11.5 -8t-36.5 -18.5t-63 -24t-91.5 -20t-122.5 -11.5v-195q-11 -6 -21 -6q-5 0 -10 1.5t-8 3.5l-2 1v195q-182 4 -263 78.5t-81 214.5z" />
<glyph unicode="&#xa3;" horiz-adv-x="1165" d="M72 20q0 5 1.5 10.5t2.5 7.5l2 3h158v625h-158q-6 8 -6 20q0 5 1.5 10.5t2.5 7.5l2 3h158v440q0 144 92.5 218.5t300.5 74.5q79 0 147 -14t109.5 -34t72 -39.5t42.5 -33.5l12 -14q0 -56 -2 -110.5t-4 -80.5l-2 -27q-5 -4 -11 -4l-10 4l-14 201q-5 5 -14.5 12t-41.5 26.5 t-68.5 34t-95 26.5t-120.5 12q-193 0 -273 -62t-80 -190v-440h457q6 -9 6 -21q0 -5 -1.5 -10t-3.5 -8l-1 -2h-457v-625h742q6 -9 6 -21q0 -5 -1.5 -10t-2.5 -8l-2 -2h-940q-6 8 -6 20z" />
<glyph unicode="&#xa4;" horiz-adv-x="819" d="M84 346l129 129q-39 53 -39 139v58q0 86 39 137l-129 131q-3 2 4 10t15.5 14.5t9.5 4.5l129 -131q59 47 168 47t165 -47l132 131q1 2 9 -4.5t15 -14.5t4 -10l-131 -131q41 -49 41 -137v-58q0 -87 -41 -139l131 -129q2 -2 -4.5 -10t-14.5 -14.5t-9 -4.5l-132 129 q-57 -45 -164.5 -45t-168.5 45l-129 -129q-1 -2 -9.5 4.5t-15.5 14.5t-4 10zM215 614q0 -59 19 -96t62.5 -56.5t113.5 -19.5q104 0 149 42t45 130v58q0 88 -45 130t-149 42t-149.5 -42t-45.5 -130v-58z" />
<glyph unicode="&#xa5;" horiz-adv-x="1349" d="M41 1415l4 12q55 9 172 9q75 0 130.5 -2t74.5 -4l18 -3q4 -4 4 -12l-4 -12l-174 -12l408 -697l407 697l-174 12q-4 4 -4 12l4 12q55 9 223 9q53 0 96.5 -2t61.5 -4l17 -3q4 -4 4 -12l-4 -12l-177 -12l-434 -732v-65h326q6 -9 6 -21q0 -5 -1.5 -10t-2.5 -7l-2 -3h-326 v-223h324q6 -9 6 -21q0 -5 -1.5 -10t-2.5 -7l-2 -3h-324v-246l174 -12q4 -5 4 -13l-4 -12q-55 -8 -194 -8q-62 0 -110.5 2t-66.5 4l-18 2q-4 4 -4 12l4 13l174 12v246h-323q-6 8 -6 20q0 5 1.5 10.5t2.5 8.5l2 2h323v223h-321q-6 8 -6 20q0 5 1.5 10.5t2.5 8.5l2 2h321v65 l-436 732l-172 12q-4 4 -4 12z" />
<glyph unicode="&#xa6;" d="M174 -201v760q9 6 21 6q5 0 10 -1.5t7 -3.5l3 -1v-760q-10 -6 -20 -6q-5 0 -10.5 1.5t-8.5 3.5zM174 772v760q9 6 21 6q5 0 10 -1.5t7 -2.5l3 -2v-760q-10 -6 -20 -6q-5 0 -10.5 1.5t-8.5 2.5z" />
<glyph unicode="&#xa7;" horiz-adv-x="1159" d="M129 -281q0 56 2 110.5t4 80.5l2 27q4 4 10 4l11 -4l14 -201q6 -5 17 -12t49.5 -26.5t81.5 -34t111.5 -26.5t141.5 -12q213 0 302.5 62t89.5 190v62q0 62 -27.5 110t-74.5 78t-108 53t-128.5 40.5t-134.5 35.5t-128 42t-108 56t-74.5 82.5t-27.5 116.5v61q0 177 143 246 q-143 78 -143 225v62q0 144 98 218.5t321 74.5q83 0 155 -14t115.5 -34t75.5 -39.5t45 -33.5l13 -14q0 -56 -2 -110.5t-4 -80.5l-2 -27q-5 -4 -11 -4l-10 4l-14 201q-5 5 -15 12t-45 26.5t-73.5 34t-100.5 26.5t-127 12q-207 0 -292.5 -62t-85.5 -190v-62q0 -53 22.5 -95 t61.5 -69t91 -49.5t110.5 -37.5t120 -32.5t120 -34t110.5 -43t91 -59t61.5 -82.5t22.5 -112v-61q0 -170 -138 -240q138 -82 138 -231v-62q0 -145 -101.5 -219t-331.5 -74q-91 0 -170.5 14t-127.5 33.5t-83 39.5t-49 34zM195 553q0 -73 41 -124t114 -81t149 -50.5t171 -47 t155 -55.5q140 55 140 215v61q0 64 -30 112.5t-76 78t-113.5 54.5t-130 40t-139.5 37t-128 43q-82 -28 -117.5 -82.5t-35.5 -139.5v-61z" />
<glyph unicode="&#xa8;" horiz-adv-x="839" d="M184 1243v187q9 6 21 6q5 0 10 -1.5t7 -2.5l3 -2v-187q-10 -6 -20 -6q-5 0 -10.5 1.5t-8.5 3.5zM614 1243v187q9 6 21 6q5 0 10 -1.5t7 -2.5l3 -2v-187q-10 -6 -20 -6q-5 0 -10.5 1.5t-8.5 3.5z" />
<glyph unicode="&#xa9;" horiz-adv-x="1681" d="M174 492v450q0 498 666 498q665 0 665 -498v-450q0 -498 -665 -498q-666 0 -666 498zM215 492q0 -153 60 -251.5t199.5 -152t365.5 -53.5q170 0 290.5 29t194 88.5t106.5 142.5t33 197v450q0 114 -33 197t-106.5 142.5t-194 88.5t-290.5 29q-226 0 -365.5 -53.5 t-199.5 -152t-60 -251.5v-450zM608 514v414q0 76 55.5 115.5t178.5 39.5t176 -39t53 -116v-15q-8 -4 -18 -4l-21 4v15q0 63 -43 93t-147 30q-105 0 -148 -30t-43 -93v-414q0 -63 43.5 -93t149.5 -30q63 0 117 11.5t77 23.5l23 12q4 -6 4 -16l-4 -19q-7 -5 -22 -12.5t-71 -20 t-124 -12.5q-125 0 -180.5 39.5t-55.5 116.5z" />
<glyph unicode="&#xaa;" horiz-adv-x="833" d="M137 891v29q0 85 56.5 129.5t185.5 56.5l221 20v105q0 88 -47.5 130t-161.5 42q-103 0 -190 -45l-11 -135q-4 -2 -10 -2l-12 2q-6 65 -6 155q3 2 8.5 6.5t25.5 14.5t44 18t65 14.5t86 6.5q132 0 191 -52.5t59 -154.5v-481l107 -9q4 -4 4 -10q0 -12 -20.5 -14t-96.5 -2 l-33 4v86q-4 -4 -11.5 -10t-33.5 -22t-56 -28t-79.5 -22t-102.5 -10q-95 0 -138.5 45t-43.5 133zM178 891q0 -73 33.5 -108t114.5 -35q56 0 104.5 10.5t78.5 26t51.5 31t30.5 26.5l9 10v240l-217 -21q-112 -10 -158.5 -47t-46.5 -104v-29z" />
<glyph unicode="&#xab;" horiz-adv-x="911" d="M117 553l346 346q4 6 23 -17q9 -10 6 -12l-318 -317l318 -317q2 -1 -4.5 -9.5t-14.5 -15.5t-10 -4zM424 553l346 346q4 6 23 -17q9 -10 6 -12l-318 -317l318 -317q5 -3 -15 -21q-12 -11 -14 -8z" />
<glyph unicode="&#xac;" horiz-adv-x="849" d="M113 717q0 5 1.5 10t3.5 7l1 3h239q102 0 196.5 -2.5t138.5 -4.5l44 -3v-242q-8 -6 -20 -6l-21 6v211h-577q-6 9 -6 21z" />
<glyph unicode="&#xad;" horiz-adv-x="647" d="M113 594q0 5 1.5 10t3.5 8l1 2h409q7 -8 7 -20q0 -5 -1.5 -10.5t-3.5 -7.5l-2 -3h-409q-6 9 -6 21z" />
<glyph unicode="&#xae;" horiz-adv-x="1681" d="M174 492v450q0 498 666 498q665 0 665 -498v-450q0 -498 -665 -498q-666 0 -666 498zM215 492q0 -153 60 -251.5t199.5 -152t365.5 -53.5q170 0 290.5 29t194 88.5t106.5 142.5t33 197v450q0 114 -33 197t-106.5 142.5t-194 88.5t-290.5 29q-226 0 -365.5 -53.5 t-199.5 -152t-60 -251.5v-450zM639 360v713q82 6 207 6q221 0 221 -155v-82q0 -135 -168 -152l191 -330q-11 -4 -23 -4l-25 4l-186 328h-10l-164 4v-332q-13 -4 -23 -4zM682 721h164q96 0 138 29.5t42 91.5v82q0 62 -42 92.5t-138 30.5h-164v-326z" />
<glyph unicode="&#xaf;" d="M-31 1280q0 5 1.5 10t3.5 8l1 2h439q6 -8 6 -20q0 -5 -1.5 -10t-2.5 -8l-2 -2h-439q-6 8 -6 20z" />
<glyph unicode="&#xb0;" horiz-adv-x="655" d="M143 1210v37q0 92 52.5 142.5t162.5 50.5t162.5 -50.5t52.5 -142.5v-37q0 -192 -215 -192t-215 192zM184 1210q0 -77 40.5 -114t133.5 -37t133.5 37t40.5 114v37q0 77 -40.5 114.5t-133.5 37.5t-133.5 -37.5t-40.5 -114.5v-37z" />
<glyph unicode="&#xb1;" horiz-adv-x="884" d="M113 246q0 5 1.5 10t3.5 8l1 2h647q6 -8 6 -20q0 -5 -1.5 -10.5t-2.5 -7.5l-2 -3h-647q-6 9 -6 21zM113 696q0 5 1.5 10.5t3.5 7.5l1 3h303v303q8 6 20 6q5 0 10.5 -1.5t7.5 -2.5l3 -2v-303h303q6 -9 6 -21q0 -5 -1.5 -10t-2.5 -8l-2 -2h-303v-303q-9 -6 -21 -6 q-5 0 -10 1.5t-8 3.5l-2 1v303h-303q-6 8 -6 20z" />
<glyph unicode="&#xb2;" horiz-adv-x="636" d="M106 723v84q0 55 21 96t54 65t73 43t80.5 36.5t73.5 38.5t54 56t21 83v57q0 63 -38.5 93t-131.5 30q-49 0 -91.5 -13.5t-60.5 -26.5l-18 -13l-8 -97q-4 -2 -12 -2l-10 2q-7 47 -7 115q2 3 6.5 7.5t22.5 16t39.5 20.5t58.5 16.5t80 7.5q112 0 161.5 -39.5t49.5 -116.5v-57 q0 -53 -21 -92.5t-54 -62.5t-73 -41.5t-80.5 -36.5t-73.5 -40t-54 -58.5t-21 -86.5v-57h351l10 84q2 2 8 2l10 -2q4 -25 4 -93l-4 -24h-225q-52 0 -100.5 1.5t-71.5 3.5z" />
<glyph unicode="&#xb3;" horiz-adv-x="632" d="M98 774q0 6 2 12l2 7q0 -3 22.5 -13.5t75 -22.5t113.5 -12q99 0 142 33t43 101v75q0 70 -46.5 103t-152.5 33h-49q-4 6 -4 16l4 16l223 279h-332l-10 -84q-4 -2 -8 -2l-10 2q-4 24 -4 92l4 25h407q4 -7 4 -17l-4 -16l-225 -281q62 0 106.5 -8.5t70.5 -23t41.5 -37 t20.5 -45t5 -52.5v-75q0 -166 -226 -166q-64 0 -117 11.5t-74 22.5l-20 11q-4 6 -4 16z" />
<glyph unicode="&#xb4;" d="M49 1192l238 238q10 6 26 6q7 0 14 -1.5t10 -2.5l3 -2l-238 -238q-14 -6 -26 -6q-7 0 -14 1.5t-10 2.5z" />
<glyph unicode="&#xb5;" horiz-adv-x="1150" d="M72 -240l4 11l153 12v1202l-153 12q-4 5 -4 11l4 10q42 8 153 8q11 0 21.5 -1.5t15.5 -2.5l4 -2v-832q5 -6 14 -16.5t45 -37t79 -46.5t117.5 -36.5t158.5 -16.5q138 0 195 62t57 190v698l-154 12q-4 5 -4 11l4 10q43 8 154 8q11 0 21.5 -1.5t14.5 -2.5l5 -2v-733 q0 -144 -68.5 -218.5t-224.5 -74.5q-79 0 -150.5 14t-117.5 33.5t-80.5 39.5t-49.5 34l-16 14v-346l154 -12q4 -5 4 -11l-4 -10q-49 -8 -174 -8q-56 0 -99.5 2t-58.5 4l-16 2q-4 4 -4 10z" />
<glyph unicode="&#xb6;" horiz-adv-x="1028" d="M164 645v297q0 144 72.5 218.5t234.5 74.5q145 0 265 -3t168 -6l48 -3q4 -5 4 -11l-4 -10l-153 -12v-1108q0 -144 -76.5 -218.5t-247.5 -74.5q-81 0 -151 12.5t-100 25.5l-29 13q-7 9 -7 21q0 6 2 11.5t4 7.5l1 3q12 -6 34 -15t94 -23.5t148 -14.5q157 0 222 62t65 190 v401q-4 -10 -10 -20.5t-28.5 -32t-54.5 -37.5t-90.5 -28.5t-132.5 -12.5q-146 0 -212 75t-66 218z" />
<glyph unicode="&#xb7;" d="M170 537v155q11 6 25 6q6 0 12 -1.5t9 -2.5l3 -2v-155q-12 -7 -24 -7q-6 0 -12.5 2t-9.5 4z" />
<glyph unicode="&#xb8;" horiz-adv-x="1015" d="M365 -250q0 6 1.5 12t3.5 8l1 3q55 -41 133 -41q102 0 102 82q0 19 -9.5 31t-24.5 16t-31.5 11.5t-31.5 17.5t-24.5 34t-9.5 60v16h41v-16q0 -34 13.5 -53t33 -26.5t38.5 -14.5t32.5 -25t13.5 -51q0 -59 -36 -91t-107 -32q-40 0 -73 9.5t-47 19.5l-13 10q-6 8 -6 20z" />
<glyph unicode="&#xb9;" horiz-adv-x="460" d="M90 1368l2 12l135 56l33 -4v-684l109 -9q2 -4 2 -10l-2 -8q-39 -6 -129 -6q-80 0 -105.5 2.5t-25.5 11.5l4 10l106 9v647l-127 -39q-2 4 -2 12z" />
<glyph unicode="&#xba;" horiz-adv-x="841" d="M145 920v311q0 207 275 207q276 0 276 -207v-311q0 -207 -276 -207q-275 0 -275 207zM186 920q0 -87 54 -129.5t180 -42.5t180.5 42.5t54.5 129.5v311q0 87 -54.5 129.5t-180.5 42.5t-180 -42.5t-54 -129.5v-311z" />
<glyph unicode="&#xbb;" horiz-adv-x="911" d="M117 236l317 317l-317 317q-3 2 3.5 10t14.5 15t10 4l347 -346l-347 -346q-2 -3 -10 4t-14.5 15t-3.5 10zM424 236l317 317l-317 317q-3 2 3.5 10.5t15 15t10.5 3.5l346 -346l-346 -346q-2 -3 -10.5 3.5t-15 15t-3.5 10.5z" />
<glyph unicode="&#xbc;" horiz-adv-x="1243" d="M90 1368l2 12l135 56l33 -4v-684l109 -9q2 -4 2 -10l-2 -8q-39 -6 -129 -6q-80 0 -105.5 2.5t-25.5 11.5l4 10l106 9v647l-127 -39q-2 4 -2 12zM113 4l968 1426q9 6 25 6q7 0 13 -1.5t9 -2.5l2 -2l-968 -1426q-15 -6 -25 -6q-7 0 -13 1.5t-8 2.5zM713 197l207 518 q8 4 22 4l21 -4l-201 -502h280v297q9 4 21 4l18 -4v-297l82 -6q4 -4 4 -12q0 -12 -14 -14.5t-70 -2.5v-176q-10 -4 -20 -4l-21 4v178h-325q-4 7 -4 17z" />
<glyph unicode="&#xbd;" horiz-adv-x="1243" d="M90 1368l2 12l135 56l33 -4v-684l109 -9q2 -4 2 -10l-2 -8q-39 -6 -129 -6q-80 0 -105.5 2.5t-25.5 11.5l4 10l106 9v647l-127 -39q-2 4 -2 12zM113 4l968 1426q9 6 25 6q7 0 13 -1.5t9 -2.5l2 -2l-968 -1426q-15 -6 -25 -6q-7 0 -13 1.5t-8 2.5zM782 6v84q0 55 21 96 t54 65t73.5 43t80.5 36.5t73 38.5t54 56t21 83v57q0 63 -38.5 93t-131.5 30q-49 0 -91.5 -13t-60.5 -27l-18 -13l-8 -96q-4 -2 -12 -2l-11 2q-6 46 -6 114q2 3 6.5 7.5t22.5 16t39.5 20.5t58.5 16.5t80 7.5q112 0 161.5 -39.5t49.5 -116.5v-57q0 -53 -21 -92.5t-54 -62.5 t-73 -41.5t-80.5 -36.5t-73.5 -40t-54 -58.5t-21 -86.5v-57h351l10 84q2 2 8 2l10 -2q4 -24 4 -92l-4 -25h-225q-52 0 -100.5 1.5t-71.5 2.5z" />
<glyph unicode="&#xbe;" horiz-adv-x="1343" d="M98 774q0 6 2 12l2 7q0 -3 22.5 -13.5t75 -22.5t113.5 -12q99 0 142 33t43 101v75q0 70 -46.5 103t-152.5 33h-49q-4 6 -4 16l4 16l223 279h-332l-10 -84q-4 -2 -8 -2l-10 2q-4 24 -4 92l4 25h407q4 -7 4 -17l-4 -16l-225 -281q62 0 106.5 -8.5t70.5 -23t41.5 -37 t20.5 -45t5 -52.5v-75q0 -166 -226 -166q-64 0 -117 11.5t-74 22.5l-20 11q-4 6 -4 16zM174 4l969 1426q8 6 24 6q7 0 13.5 -1.5t9.5 -2.5l2 -2l-969 -1426q-14 -6 -24 -6q-7 0 -13.5 1.5t-9.5 2.5zM815 197l207 518q8 4 22 4l21 -4l-201 -502h281v297q8 4 20 4l19 -4v-297 l82 -6q4 -4 4 -12q0 -12 -14 -14.5t-70 -2.5v-176q-11 -4 -21 -4l-20 4v178h-326q-4 7 -4 17z" />
<glyph unicode="&#xbf;" horiz-adv-x="1056" d="M162 0q0 61 20 107t51.5 74t70 50.5t77 44t70 47.5t51.5 69t20 100v118q11 6 21 6q5 0 10 -1.5t7 -2.5l3 -2v-118q0 -63 -20 -111t-51.5 -76.5t-70 -51.5t-77 -44.5t-70 -46.5t-51.5 -66t-20 -96v-123q0 -128 76.5 -190t261.5 -62q58 0 112 11.5t90 27.5t63.5 32.5 t40.5 27.5l13 12l14 201q5 4 11 4l10 -4q8 -93 8 -218q-4 -5 -12 -14.5t-39 -32.5t-68.5 -41t-103 -32.5t-139.5 -14.5q-202 0 -290.5 74.5t-88.5 218.5v123zM518 864v156q13 6 25 6q6 0 12 -1.5t9 -2.5l3 -2v-156q-10 -6 -24 -6z" />
<glyph unicode="&#xc0;" horiz-adv-x="1472" d="M41 18l4 13l172 12l477 1348l-174 12q-4 4 -4 12l4 12q61 9 217 9q7 0 14 -1.5t10 -2.5l3 -2l489 -1387l174 -12q5 -5 5 -13l-5 -12q-55 -8 -180 -8q-69 0 -122 2t-71 4l-18 2q-4 4 -4 12l4 13l174 12l-143 408h-661l-146 -408l176 -12q4 -5 4 -13l-4 -12q-55 -8 -211 -8 q-56 0 -101 2t-62 4l-17 2q-4 4 -4 12zM420 492h633l-316 897zM549 1778q10 6 26 6q7 0 14 -1.5t10 -2.5l3 -2l238 -238q-11 -6 -27 -6l-27 6z" />
<glyph unicode="&#xc1;" horiz-adv-x="1472" d="M41 18l4 13l172 12l477 1348l-174 12q-4 4 -4 12l4 12q61 9 217 9q7 0 14 -1.5t10 -2.5l3 -2l489 -1387l174 -12q5 -5 5 -13l-5 -12q-55 -8 -180 -8q-69 0 -122 2t-71 4l-18 2q-4 4 -4 12l4 13l174 12l-143 408h-661l-146 -408l176 -12q4 -5 4 -13l-4 -12q-55 -8 -211 -8 q-56 0 -101 2t-62 4l-17 2q-4 4 -4 12zM420 492h633l-316 897zM631 1540l237 238q11 6 27 6q7 0 14 -1.5t10 -2.5l3 -2l-238 -238q-15 -6 -27 -6q-7 0 -13.5 1.5t-9.5 2.5z" />
<glyph unicode="&#xc2;" horiz-adv-x="1472" d="M41 18l4 13l172 12l477 1348l-174 12q-4 4 -4 12l4 12q61 9 217 9q7 0 14 -1.5t10 -2.5l3 -2l489 -1387l174 -12q5 -5 5 -13l-5 -12q-55 -8 -180 -8q-69 0 -122 2t-71 4l-18 2q-4 4 -4 12l4 13l174 12l-143 408h-661l-146 -408l176 -12q4 -5 4 -13l-4 -12q-55 -8 -211 -8 q-56 0 -101 2t-62 4l-17 2q-4 4 -4 12zM420 492h633l-316 897zM492 1540l217 217q10 6 26 6q7 0 14 -1.5t10 -3.5l3 -1l217 -217q-11 -6 -27 -6l-26 6l-191 191l-190 -191q-15 -6 -27 -6q-7 0 -13.5 1.5t-9.5 2.5z" />
<glyph unicode="&#xc3;" horiz-adv-x="1472" d="M41 18l4 13l172 12l477 1348l-174 12q-4 4 -4 12l4 12q61 9 217 9q7 0 14 -1.5t10 -2.5l3 -2l489 -1387l174 -12q5 -5 5 -13l-5 -12q-55 -8 -180 -8q-69 0 -122 2t-71 4l-18 2q-4 4 -4 12l4 13l174 12l-143 408h-661l-146 -408l176 -12q4 -5 4 -13l-4 -12q-55 -8 -211 -8 q-56 0 -101 2t-62 4l-17 2q-4 4 -4 12zM420 492h633l-316 897zM459 1540v10q0 71 33 106.5t110 35.5q45 0 82 -18.5t58.5 -40t55 -40t70.5 -18.5q57 0 80 24.5t23 75.5v11q8 6 20 6q5 0 10.5 -1.5t8.5 -2.5l2 -2v-11q0 -70 -33.5 -105.5t-110.5 -35.5q-45 0 -82.5 18.5 t-59.5 40t-55 40t-69 18.5q-56 0 -79 -24.5t-23 -76.5v-10q-9 -6 -21 -6q-5 0 -10 1.5t-7 2.5z" />
<glyph unicode="&#xc4;" horiz-adv-x="1472" d="M41 18l4 13l172 12l477 1348l-174 12q-4 4 -4 12l4 12q61 9 217 9q7 0 14 -1.5t10 -2.5l3 -2l489 -1387l174 -12q5 -5 5 -13l-5 -12q-55 -8 -180 -8q-69 0 -122 2t-71 4l-18 2q-4 4 -4 12l4 13l174 12l-143 408h-661l-146 -408l176 -12q4 -5 4 -13l-4 -12q-55 -8 -211 -8 q-56 0 -101 2t-62 4l-17 2q-4 4 -4 12zM420 492h633l-316 897zM500 1540v186q8 7 20 7q5 0 10.5 -1.5t7.5 -3.5l3 -2v-186q-11 -6 -21 -6q-5 0 -10 1.5t-8 2.5zM930 1540v186q8 7 20 7q5 0 10.5 -1.5t7.5 -3.5l3 -2v-186q-11 -6 -21 -6q-5 0 -10 1.5t-8 2.5z" />
<glyph unicode="&#xc5;" horiz-adv-x="1472" d="M41 18l4 13l172 12l477 1348l-174 12q-4 4 -4 12l4 12q61 9 217 9q7 0 14 -1.5t10 -2.5l3 -2l489 -1387l174 -12q5 -5 5 -13l-5 -12q-55 -8 -180 -8q-69 0 -122 2t-71 4l-18 2q-4 4 -4 12l4 13l174 12l-143 408h-661l-146 -408l176 -12q4 -5 4 -13l-4 -12q-55 -8 -211 -8 q-56 0 -101 2t-62 4l-17 2q-4 4 -4 12zM420 492h633l-316 897zM582 1661v37q0 131 153 131q154 0 154 -131v-37q0 -131 -154 -131q-153 0 -153 131zM623 1661q0 -46 26 -68t86 -22t86.5 22.5t26.5 67.5v37q0 45 -26.5 67.5t-86.5 22.5t-86 -22t-26 -68v-37z" />
<glyph unicode="&#xc6;" horiz-adv-x="1593" d="M41 18l4 13l172 12l477 1348l-172 12q-4 4 -4 12l4 12q171 7 621 7h342q6 -16 6 -41q0 -72 -2 -126t-4 -71l-2 -18q-4 -4 -10 -4l-11 4l-14 215h-643v-635h608q6 -9 6 -21q0 -5 -1.5 -10t-3.5 -7l-1 -3h-608v-676h653l15 215q4 4 10 4l10 -4q8 -53 8 -215 q0 -11 -1.5 -21.5t-3.5 -15.5l-1 -4h-352q-150 0 -288.5 1.5t-201.5 2.5l-63 2q-4 4 -4 12l4 13l174 12v408h-358l-146 -408l176 -12q4 -5 4 -13l-4 -12q-55 -8 -211 -8q-56 0 -101 2t-62 4l-17 2q-4 4 -4 12zM420 492h344v901h-27z" />
<glyph unicode="&#xc7;" horiz-adv-x="1218" d="M164 287v860q0 144 107 218.5t347 74.5q91 0 170.5 -14t127.5 -34t83.5 -39.5t49.5 -33.5l14 -14q0 -56 -2 -110.5t-4 -80.5l-2 -27q-5 -4 -11 -4l-10 4l-14 201q-6 5 -17 12t-49.5 26.5t-81.5 34t-112 26.5t-142 12q-154 0 -246 -29.5t-129.5 -83.5t-37.5 -139v-860 q0 -85 37.5 -139t129.5 -83.5t246 -29.5q81 0 156.5 9.5t125 23.5t87.5 28t55 24l17 9q6 -9 6 -23q0 -5 -1.5 -10t-3.5 -8l-1 -2q-5 -4 -15 -9.5t-47.5 -21t-82.5 -27.5t-120.5 -22.5t-160.5 -11.5v-10q0 -34 13.5 -53t32.5 -26.5t38.5 -14.5t33 -25t13.5 -51q0 -59 -36 -91 t-107 -32q-40 0 -73.5 9.5t-47.5 19.5l-13 10q-6 8 -6 20q0 6 1.5 12t3.5 8l1 3q56 -41 134 -41q102 0 102 82q0 19 -9.5 31t-24.5 16t-31.5 11.5t-31.5 17.5t-24.5 34t-9.5 60v10q-226 4 -327 78.5t-101 214.5z" />
<glyph unicode="&#xc8;" horiz-adv-x="1140" d="M72 18l4 13l174 12v1348l-174 12q-4 4 -4 12l4 12q216 7 553 7h403q6 -16 6 -41q0 -72 -2 -126t-4 -71l-2 -18q-4 -4 -10 -4l-10 4l-15 215h-704v-635h608q6 -9 6 -21q0 -5 -1.5 -10t-3.5 -7l-1 -3h-608v-676h715l14 215q4 4 10 4l10 -4q9 -53 9 -215q0 -11 -1.5 -21.5 t-3.5 -15.5l-2 -4h-413q-150 0 -288.5 1.5t-201.5 2.5l-63 2q-4 4 -4 12zM473 1778q11 6 27 6q7 0 13.5 -1.5t9.5 -2.5l3 -2l238 -238q-11 -6 -27 -6l-26 6z" />
<glyph unicode="&#xc9;" horiz-adv-x="1140" d="M72 18l4 13l174 12v1348l-174 12q-4 4 -4 12l4 12q216 7 553 7h403q6 -16 6 -41q0 -72 -2 -126t-4 -71l-2 -18q-4 -4 -10 -4l-10 4l-15 215h-704v-635h608q6 -9 6 -21q0 -5 -1.5 -10t-3.5 -7l-1 -3h-608v-676h715l14 215q4 4 10 4l10 -4q9 -53 9 -215q0 -11 -1.5 -21.5 t-3.5 -15.5l-2 -4h-413q-150 0 -288.5 1.5t-201.5 2.5l-63 2q-4 4 -4 12zM535 1540l237 238q11 6 27 6q7 0 13.5 -1.5t9.5 -2.5l3 -2l-237 -238q-15 -6 -27 -6q-7 0 -13.5 1.5t-9.5 2.5z" />
<glyph unicode="&#xca;" horiz-adv-x="1140" d="M72 18l4 13l174 12v1348l-174 12q-4 4 -4 12l4 12q216 7 553 7h403q6 -16 6 -41q0 -72 -2 -126t-4 -71l-2 -18q-4 -4 -10 -4l-10 4l-15 215h-704v-635h608q6 -9 6 -21q0 -5 -1.5 -10t-3.5 -7l-1 -3h-608v-676h715l14 215q4 4 10 4l10 -4q9 -53 9 -215q0 -11 -1.5 -21.5 t-3.5 -15.5l-2 -4h-413q-150 0 -288.5 1.5t-201.5 2.5l-63 2q-4 4 -4 12zM406 1540l217 217q10 6 26 6q7 0 14 -1.5t10 -3.5l3 -1l217 -217q-11 -6 -27 -6l-26 6l-191 191l-190 -191q-15 -6 -27 -6q-7 0 -13.5 1.5t-9.5 2.5z" />
<glyph unicode="&#xcb;" horiz-adv-x="1140" d="M72 18l4 13l174 12v1348l-174 12q-4 4 -4 12l4 12q216 7 553 7h403q6 -16 6 -41q0 -72 -2 -126t-4 -71l-2 -18q-4 -4 -10 -4l-10 4l-15 215h-704v-635h608q6 -9 6 -21q0 -5 -1.5 -10t-3.5 -7l-1 -3h-608v-676h715l14 215q4 4 10 4l10 -4q9 -53 9 -215q0 -11 -1.5 -21.5 t-3.5 -15.5l-2 -4h-413q-150 0 -288.5 1.5t-201.5 2.5l-63 2q-4 4 -4 12zM414 1540v186q8 7 20 7q5 0 10.5 -1.5t7.5 -3.5l3 -2v-186q-11 -6 -21 -6q-5 0 -10 1.5t-8 2.5zM844 1540v186q8 7 20 7q5 0 10.5 -1.5t7.5 -3.5l3 -2v-186q-11 -6 -21 -6q-5 0 -10 1.5t-8 2.5z" />
<glyph unicode="&#xcc;" horiz-adv-x="540" d="M72 18l4 13l174 12v1348l-174 12q-4 4 -4 12l4 12q55 9 194 9q62 0 110.5 -2t66.5 -4l18 -3q4 -4 4 -12l-4 -12l-174 -12v-1348l174 -12q4 -5 4 -13l-4 -12q-56 -8 -195 -8q-62 0 -110.5 2t-65.5 4l-18 2q-4 4 -4 12zM84 1778q11 6 27 6q7 0 13.5 -1.5t9.5 -2.5l3 -2 l238 -238q-11 -6 -27 -6l-26 6z" />
<glyph unicode="&#xcd;" horiz-adv-x="540" d="M72 18l4 13l174 12v1348l-174 12q-4 4 -4 12l4 12q55 9 194 9q62 0 110.5 -2t66.5 -4l18 -3q4 -4 4 -12l-4 -12l-174 -12v-1348l174 -12q4 -5 4 -13l-4 -12q-56 -8 -195 -8q-62 0 -110.5 2t-65.5 4l-18 2q-4 4 -4 12zM166 1540l237 238q11 6 27 6q7 0 14 -1.5t10 -2.5 l3 -2l-238 -238q-14 -6 -26 -6q-7 0 -14 1.5t-10 2.5z" />
<glyph unicode="&#xce;" horiz-adv-x="630" d="M72 1540l217 217q10 6 26 6q7 0 14 -1.5t10 -3.5l3 -1l217 -217q-11 -6 -27 -6l-26 6l-191 191l-190 -191q-15 -6 -27 -6q-7 0 -13.5 1.5t-9.5 2.5zM117 18l4 13l174 12v1348l-174 12q-4 4 -4 12l4 12q55 9 194 9q62 0 110.5 -2t66.5 -4l18 -3q4 -4 4 -12l-4 -12 l-174 -12v-1348l174 -12q4 -5 4 -13l-4 -12q-56 -8 -195 -8q-62 0 -110.5 2t-66.5 4l-17 2q-4 4 -4 12z" />
<glyph unicode="&#xcf;" horiz-adv-x="540" d="M72 18l4 13l174 12v1348l-174 12q-4 4 -4 12l4 12q55 9 194 9q62 0 110.5 -2t66.5 -4l18 -3q4 -4 4 -12l-4 -12l-174 -12v-1348l174 -12q4 -5 4 -13l-4 -12q-56 -8 -195 -8q-62 0 -110.5 2t-65.5 4l-18 2q-4 4 -4 12zM76 1540v186q8 7 20 7q5 0 10.5 -1.5t7.5 -3.5l3 -2 v-186q-11 -6 -21 -6q-5 0 -10 1.5t-8 2.5zM424 1540v186q8 7 20 7q5 0 10.5 -1.5t7.5 -3.5l3 -2v-186q-11 -6 -21 -6q-5 0 -10 1.5t-8 2.5z" />
<glyph unicode="&#xd0;" horiz-adv-x="1284" d="M72 16l4 13l174 12v672l-174 12q-4 4 -4 12l4 13q51 6 174 8v635l-174 12q-4 4 -4 12l4 13q195 10 573 10q471 0 471 -293v-860q0 -293 -471 -293q-168 0 -311.5 2.5t-202.5 5.5l-59 2q-4 4 -4 12zM291 35h358q230 0 330 62.5t100 189.5v860q0 127 -100 189.5t-330 62.5 h-358v-641h409q7 -9 7 -21q0 -5 -1.5 -10t-3.5 -7l-2 -3h-409v-682z" />
<glyph unicode="&#xd1;" horiz-adv-x="1431" d="M72 18l4 13l174 12v1348l-174 12q-4 4 -4 12l4 12q55 9 194 9q5 0 10.5 -1.5t7.5 -2.5l3 -2l850 -1352v1313l-174 12q-4 4 -4 12l4 12q55 9 194 9q62 0 110.5 -2t66.5 -4l18 -3q4 -4 4 -12l-4 -12l-174 -12v-1387q-9 -6 -21 -6l-20 6l-850 1352v-1313l174 -12q4 -5 4 -13 l-4 -12q-56 -8 -195 -8q-62 0 -110.5 2t-65.5 4l-18 2q-4 4 -4 12zM438 1540v10q0 70 33.5 106t110.5 36q45 0 82 -18.5t58.5 -40t55 -40t70.5 -18.5q57 0 79.5 24t22.5 76v11q9 6 21 6q5 0 10 -1.5t7 -2.5l3 -2v-11q0 -70 -33 -105.5t-110 -35.5q-45 0 -82.5 18.5t-59.5 40 t-55 40t-69 18.5q-57 0 -80 -24.5t-23 -76.5v-10q-8 -6 -20 -6q-5 0 -10.5 1.5t-8.5 2.5z" />
<glyph unicode="&#xd2;" horiz-adv-x="1269" d="M164 287v860q0 293 471 293t471 -293v-860q0 -293 -471 -293t-471 293zM205 287q0 -127 100 -189.5t330 -62.5t330 62.5t100 189.5v860q0 127 -100 189.5t-330 62.5t-330 -62.5t-100 -189.5v-860zM449 1778q10 6 26 6q7 0 14 -1.5t10 -2.5l3 -2l237 -238q-10 -6 -26 -6 l-27 6z" />
<glyph unicode="&#xd3;" horiz-adv-x="1269" d="M164 287v860q0 293 471 293t471 -293v-860q0 -293 -471 -293t-471 293zM205 287q0 -127 100 -189.5t330 -62.5t330 62.5t100 189.5v860q0 127 -100 189.5t-330 62.5t-330 -62.5t-100 -189.5v-860zM530 1540l238 238q11 6 27 6q7 0 13.5 -1.5t9.5 -2.5l3 -2l-237 -238 q-15 -6 -27 -6q-7 0 -14 1.5t-10 2.5z" />
<glyph unicode="&#xd4;" horiz-adv-x="1269" d="M164 287v860q0 293 471 293t471 -293v-860q0 -293 -471 -293t-471 293zM205 287q0 -127 100 -189.5t330 -62.5t330 62.5t100 189.5v860q0 127 -100 189.5t-330 62.5t-330 -62.5t-100 -189.5v-860zM391 1540l217 217q11 6 27 6q7 0 14 -1.5t10 -3.5l3 -1l217 -217 q-11 -6 -27 -6l-27 6l-190 191l-191 -191q-14 -6 -26 -6q-7 0 -14 1.5t-10 2.5z" />
<glyph unicode="&#xd5;" horiz-adv-x="1269" d="M164 287v860q0 293 471 293t471 -293v-860q0 -293 -471 -293t-471 293zM205 287q0 -127 100 -189.5t330 -62.5t330 62.5t100 189.5v860q0 127 -100 189.5t-330 62.5t-330 -62.5t-100 -189.5v-860zM358 1540v10q0 70 33.5 106t110.5 36q45 0 82 -18.5t58.5 -40t55 -40 t70.5 -18.5q57 0 79.5 24t22.5 76v11q9 6 21 6q5 0 10 -1.5t7 -2.5l3 -2v-11q0 -70 -33 -105.5t-110 -35.5q-45 0 -82.5 18.5t-59.5 40t-55 40t-69 18.5q-57 0 -80 -24.5t-23 -76.5v-10q-8 -6 -20 -6q-5 0 -10.5 1.5t-8.5 2.5z" />
<glyph unicode="&#xd6;" horiz-adv-x="1269" d="M164 287v860q0 293 471 293t471 -293v-860q0 -293 -471 -293t-471 293zM205 287q0 -127 100 -189.5t330 -62.5t330 62.5t100 189.5v860q0 127 -100 189.5t-330 62.5t-330 -62.5t-100 -189.5v-860zM399 1540v186q9 7 21 7q5 0 10 -1.5t8 -3.5l2 -2v-186q-10 -6 -20 -6 q-5 0 -10.5 1.5t-7.5 2.5zM829 1540v186q9 7 21 7q5 0 10 -1.5t8 -3.5l2 -2v-186q-10 -6 -20 -6q-5 0 -10.5 1.5t-7.5 2.5z" />
<glyph unicode="&#xd7;" horiz-adv-x="884" d="M117 317l297 297l-297 297q-3 2 3.5 10t14.5 15t10 4l297 -297l297 297q2 3 10.5 -3.5t15 -15t3.5 -10.5l-297 -297l297 -297q3 -2 -4 -10t-15 -14.5t-10 -3.5l-297 297l-297 -297q-1 -3 -9.5 3.5t-15 15t-3.5 9.5z" />
<glyph unicode="&#xd8;" horiz-adv-x="1345" d="M164 4l86 125q-47 61 -47 158v860q0 293 471 293q281 0 395 -105l64 95q8 6 24 6q7 0 13.5 -1.5t9.5 -2.5l2 -2l-86 -125q49 -64 49 -158v-860q0 -293 -471 -293q-285 0 -398 104l-63 -94q-15 -6 -25 -6q-7 0 -13 1.5t-9 2.5zM244 287q0 -74 28 -123l775 1139 q-96 96 -373 96q-230 0 -330 -62.5t-100 -189.5v-860zM299 131q96 -96 375 -96q230 0 330 62.5t100 189.5v860q0 69 -31 123z" />
<glyph unicode="&#xd9;" horiz-adv-x="1421" d="M72 1415l4 12q55 9 194 9q62 0 110.5 -2t66.5 -4l18 -3q4 -4 4 -12l-4 -12l-174 -12v-1104q0 -127 98 -189.5t322 -62.5t321.5 62.5t97.5 189.5v1104l-174 12q-4 4 -4 12l4 12q56 9 195 9q62 0 110.5 -2t66.5 -4l18 -3q4 -4 4 -12l-4 -12l-175 -12v-1104 q0 -293 -460 -293q-461 0 -461 293v1104l-174 12q-4 4 -4 12zM524 1778q11 6 27 6q7 0 14 -1.5t10 -2.5l3 -2l237 -238q-11 -6 -27 -6l-26 6z" />
<glyph unicode="&#xda;" horiz-adv-x="1421" d="M72 1415l4 12q55 9 194 9q62 0 110.5 -2t66.5 -4l18 -3q4 -4 4 -12l-4 -12l-174 -12v-1104q0 -127 98 -189.5t322 -62.5t321.5 62.5t97.5 189.5v1104l-174 12q-4 4 -4 12l4 12q56 9 195 9q62 0 110.5 -2t66.5 -4l18 -3q4 -4 4 -12l-4 -12l-175 -12v-1104 q0 -293 -460 -293q-461 0 -461 293v1104l-174 12q-4 4 -4 12zM606 1540l238 238q10 6 26 6q7 0 14 -1.5t10 -2.5l3 -2l-238 -238q-14 -6 -26 -6q-7 0 -14 1.5t-10 2.5z" />
<glyph unicode="&#xdb;" horiz-adv-x="1421" d="M72 1415l4 12q55 9 194 9q62 0 110.5 -2t66.5 -4l18 -3q4 -4 4 -12l-4 -12l-174 -12v-1104q0 -127 98 -189.5t322 -62.5t321.5 62.5t97.5 189.5v1104l-174 12q-4 4 -4 12l4 12q56 9 195 9q62 0 110.5 -2t66.5 -4l18 -3q4 -4 4 -12l-4 -12l-175 -12v-1104 q0 -293 -460 -293q-461 0 -461 293v1104l-174 12q-4 4 -4 12zM467 1540l217 217q11 6 27 6q7 0 13.5 -1.5t9.5 -3.5l3 -1l217 -217q-10 -6 -26 -6l-27 6l-190 191l-191 -191q-14 -6 -26 -6q-7 0 -14 1.5t-10 2.5z" />
<glyph unicode="&#xdc;" horiz-adv-x="1421" d="M72 1415l4 12q55 9 194 9q62 0 110.5 -2t66.5 -4l18 -3q4 -4 4 -12l-4 -12l-174 -12v-1104q0 -127 98 -189.5t322 -62.5t321.5 62.5t97.5 189.5v1104l-174 12q-4 4 -4 12l4 12q56 9 195 9q62 0 110.5 -2t66.5 -4l18 -3q4 -4 4 -12l-4 -12l-175 -12v-1104 q0 -293 -460 -293q-461 0 -461 293v1104l-174 12q-4 4 -4 12zM475 1540v186q9 7 21 7q5 0 10 -1.5t8 -3.5l2 -2v-186q-10 -6 -20 -6q-5 0 -10.5 1.5t-7.5 2.5zM905 1540v186q9 7 21 7q5 0 10 -1.5t8 -3.5l2 -2v-186q-10 -6 -20 -6q-5 0 -10.5 1.5t-7.5 2.5z" />
<glyph unicode="&#xdd;" horiz-adv-x="1349" d="M41 1415l4 12q55 9 172 9q75 0 130.5 -2t74.5 -4l18 -3q4 -4 4 -12l-4 -12l-174 -12l408 -697l407 697l-174 12q-4 4 -4 12l4 12q55 9 223 9q53 0 96.5 -2t61.5 -4l17 -3q4 -4 4 -12l-4 -12l-177 -12l-434 -732v-616l174 -12q4 -5 4 -13l-4 -12q-55 -8 -194 -8 q-62 0 -110.5 2t-66.5 4l-18 2q-4 4 -4 12l4 13l174 12v616l-436 732l-172 12q-4 4 -4 12zM569 1540l238 238q11 6 27 6q7 0 13.5 -1.5t9.5 -2.5l3 -2l-237 -238q-15 -6 -27 -6q-7 0 -14 1.5t-10 2.5z" />
<glyph unicode="&#xde;" horiz-adv-x="1120" d="M72 18l4 13l174 12v1348l-174 12q-4 4 -4 12l4 12q55 9 194 9q62 0 110.5 -2t66.5 -4l18 -3q4 -4 4 -12l-4 -12l-174 -12v-267q119 9 303 9q362 0 362 -293v-178q0 -293 -362 -293q-82 0 -157.5 2t-110.5 4l-35 2v-334l174 -12q4 -5 4 -13l-4 -12q-56 -8 -195 -8 q-62 0 -110.5 2t-65.5 4l-18 2q-4 4 -4 12zM291 410h299q174 0 249.5 62.5t75.5 189.5v178q0 127 -75.5 189.5t-249.5 62.5h-299v-682z" />
<glyph unicode="&#xdf;" horiz-adv-x="1265" d="M72 16l4 11l153 12v950l-153 12q-4 5 -4 11l4 10q49 8 153 8v158q0 124 63 188t204 64q149 0 213.5 -63.5t64.5 -188.5v-31q0 -54 -12.5 -94.5t-33 -64t-44.5 -42.5t-48.5 -36t-45 -37.5t-33 -54.5t-12.5 -80v-31q0 -46 30.5 -79t80 -52.5t109 -36t118.5 -35t108.5 -42.5 t80 -66.5t30.5 -100.5v-41q0 -134 -70 -203t-229 -69q-59 0 -111 9t-84 21.5t-55.5 25t-32.5 21.5l-10 9q0 56 2 110t4 80l2 27q4 4 10 4l11 -4l14 -197q107 -65 250 -65q140 0 199 57t59 174v41q0 50 -30.5 85.5t-80 56t-109 36.5t-118.5 33.5t-108.5 40.5t-80 63.5 t-30.5 96.5v31q0 52 12.5 90t33 60t44.5 40t48.5 35t45 38.5t33 58.5t12.5 87v31q0 107 -54 159t-183 52q-124 0 -175 -51.5t-51 -159.5v-1184q-16 -6 -41 -6q-49 0 -87.5 2t-51.5 4l-14 2q-4 4 -4 10z" />
<glyph unicode="&#xe0;" horiz-adv-x="1091" d="M154 246v41q0 120 81 184.5t263 81.5l323 31v153q0 128 -70.5 190t-238.5 62q-164 0 -281 -65l-14 -197q-4 -4 -10 -4l-10 4q-9 92 -9 217q4 3 11.5 9t36 21t62.5 26t91.5 20.5t122.5 9.5q185 0 267.5 -74.5t82.5 -218.5v-698l154 -12q4 -5 4 -11l-4 -10q-45 -8 -154 -8 q-11 0 -21 1.5t-14 2.5l-4 2v125q-5 -5 -15.5 -14.5t-48 -32.5t-81 -41t-115.5 -32.5t-151 -14.5q-135 0 -196.5 64t-61.5 188zM195 246q0 -107 49.5 -159t167.5 -52q83 0 156 16t117 38.5t76.5 44.5t46.5 38l13 16v355l-323 -31q-165 -17 -234 -71t-69 -154v-41zM322 1430 q10 6 26 6q7 0 14 -1.5t10 -2.5l3 -2l237 -238q-10 -6 -26 -6l-27 6z" />
<glyph unicode="&#xe1;" horiz-adv-x="1091" d="M154 246v41q0 120 81 184.5t263 81.5l323 31v153q0 128 -70.5 190t-238.5 62q-164 0 -281 -65l-14 -197q-4 -4 -10 -4l-10 4q-9 92 -9 217q4 3 11.5 9t36 21t62.5 26t91.5 20.5t122.5 9.5q185 0 267.5 -74.5t82.5 -218.5v-698l154 -12q4 -5 4 -11l-4 -10q-45 -8 -154 -8 q-11 0 -21 1.5t-14 2.5l-4 2v125q-5 -5 -15.5 -14.5t-48 -32.5t-81 -41t-115.5 -32.5t-151 -14.5q-135 0 -196.5 64t-61.5 188zM195 246q0 -107 49.5 -159t167.5 -52q83 0 156 16t117 38.5t76.5 44.5t46.5 38l13 16v355l-323 -31q-165 -17 -234 -71t-69 -154v-41zM403 1192 l238 238q11 6 27 6q7 0 13.5 -1.5t9.5 -2.5l3 -2l-237 -238q-15 -6 -27 -6q-7 0 -14 1.5t-10 2.5z" />
<glyph unicode="&#xe2;" horiz-adv-x="1091" d="M154 246v41q0 120 81 184.5t263 81.5l323 31v153q0 128 -70.5 190t-238.5 62q-164 0 -281 -65l-14 -197q-4 -4 -10 -4l-10 4q-9 92 -9 217q4 3 11.5 9t36 21t62.5 26t91.5 20.5t122.5 9.5q185 0 267.5 -74.5t82.5 -218.5v-698l154 -12q4 -5 4 -11l-4 -10q-45 -8 -154 -8 q-11 0 -21 1.5t-14 2.5l-4 2v125q-5 -5 -15.5 -14.5t-48 -32.5t-81 -41t-115.5 -32.5t-151 -14.5q-135 0 -196.5 64t-61.5 188zM195 246q0 -107 49.5 -159t167.5 -52q83 0 156 16t117 38.5t76.5 44.5t46.5 38l13 16v355l-323 -31q-165 -17 -234 -71t-69 -154v-41zM264 1212 l217 218q11 6 27 6q7 0 14 -1.5t10 -2.5l3 -2l217 -218q-11 -6 -27 -6l-27 6l-190 191l-191 -191q-14 -6 -26 -6q-7 0 -14 1.5t-10 2.5z" />
<glyph unicode="&#xe3;" horiz-adv-x="1091" d="M154 246v41q0 120 81 184.5t263 81.5l323 31v153q0 128 -70.5 190t-238.5 62q-164 0 -281 -65l-14 -197q-4 -4 -10 -4l-10 4q-9 92 -9 217q4 3 11.5 9t36 21t62.5 26t91.5 20.5t122.5 9.5q185 0 267.5 -74.5t82.5 -218.5v-698l154 -12q4 -5 4 -11l-4 -10q-45 -8 -154 -8 q-11 0 -21 1.5t-14 2.5l-4 2v125q-5 -5 -15.5 -14.5t-48 -32.5t-81 -41t-115.5 -32.5t-151 -14.5q-135 0 -196.5 64t-61.5 188zM195 246q0 -107 49.5 -159t167.5 -52q83 0 156 16t117 38.5t76.5 44.5t46.5 38l13 16v355l-323 -31q-165 -17 -234 -71t-69 -154v-41zM231 1284 v10q0 70 33.5 106t110.5 36q45 0 82 -18.5t58.5 -40t55 -40t70.5 -18.5q57 0 79.5 24t22.5 76v11q9 6 21 6q5 0 10 -1.5t8 -2.5l2 -2v-11q0 -70 -33 -105.5t-110 -35.5q-45 0 -82.5 18.5t-59.5 40t-55 40t-69 18.5q-57 0 -80 -24.5t-23 -76.5v-10q-8 -6 -20 -6 q-5 0 -10.5 1.5t-7.5 2.5z" />
<glyph unicode="&#xe4;" horiz-adv-x="1091" d="M154 246v41q0 120 81 184.5t263 81.5l323 31v153q0 128 -70.5 190t-238.5 62q-164 0 -281 -65l-14 -197q-4 -4 -10 -4l-10 4q-9 92 -9 217q4 3 11.5 9t36 21t62.5 26t91.5 20.5t122.5 9.5q185 0 267.5 -74.5t82.5 -218.5v-698l154 -12q4 -5 4 -11l-4 -10q-45 -8 -154 -8 q-11 0 -21 1.5t-14 2.5l-4 2v125q-5 -5 -15.5 -14.5t-48 -32.5t-81 -41t-115.5 -32.5t-151 -14.5q-135 0 -196.5 64t-61.5 188zM195 246q0 -107 49.5 -159t167.5 -52q83 0 156 16t117 38.5t76.5 44.5t46.5 38l13 16v355l-323 -31q-165 -17 -234 -71t-69 -154v-41zM272 1243 v187q9 6 21 6q5 0 10 -1.5t7 -2.5l3 -2v-187q-10 -6 -20 -6q-5 0 -10.5 1.5t-8.5 3.5zM702 1243v187q9 6 21 6q5 0 10 -1.5t7 -2.5l3 -2v-187q-10 -6 -20 -6q-5 0 -10.5 1.5t-8.5 3.5z" />
<glyph unicode="&#xe5;" horiz-adv-x="1091" d="M154 246v41q0 120 81 184.5t263 81.5l323 31v153q0 128 -70.5 190t-238.5 62q-164 0 -281 -65l-14 -197q-4 -4 -10 -4l-10 4q-9 92 -9 217q4 3 11.5 9t36 21t62.5 26t91.5 20.5t122.5 9.5q185 0 267.5 -74.5t82.5 -218.5v-698l154 -12q4 -5 4 -11l-4 -10q-45 -8 -154 -8 q-11 0 -21 1.5t-14 2.5l-4 2v125q-5 -5 -15.5 -14.5t-48 -32.5t-81 -41t-115.5 -32.5t-151 -14.5q-135 0 -196.5 64t-61.5 188zM195 246q0 -107 49.5 -159t167.5 -52q83 0 156 16t117 38.5t76.5 44.5t46.5 38l13 16v355l-323 -31q-165 -17 -234 -71t-69 -154v-41zM354 1272 v37q0 131 154 131t154 -131v-37q0 -131 -154 -131t-154 131zM395 1272q0 -45 26.5 -67.5t86.5 -22.5t86.5 22.5t26.5 67.5v37q0 45 -26.5 67.5t-86.5 22.5t-86.5 -22.5t-26.5 -67.5v-37z" />
<glyph unicode="&#xe6;" horiz-adv-x="1701" d="M154 246v41q0 120 82.5 183t271.5 83l334 35v149q0 128 -73 190t-247 62q-169 0 -291 -65l-14 -197q-4 -4 -10 -4l-10 4q-9 92 -9 217q4 3 11.5 9t37 21t64.5 26t94.5 20.5t126.5 9.5q148 0 229.5 -44.5t110.5 -131.5q29 87 110 131.5t228 44.5q190 0 274.5 -74.5 t84.5 -218.5v-225q-135 -10 -338 -10h-338v-215q0 -128 71.5 -190t245.5 -62q63 0 121.5 8.5t96.5 21t67.5 25t42.5 20.5l14 9q6 -9 6 -23q0 -5 -1.5 -10t-2.5 -8l-2 -2q-4 -3 -12 -8.5t-38 -20t-66 -25t-97 -19.5t-129 -9q-288 0 -340 184q-73 -184 -442 -184 q-140 0 -202 63.5t-62 188.5zM195 246q0 -107 51 -159t174 -52q225 0 323.5 62.5t98.5 189.5v260l-334 -35q-172 -18 -242.5 -71.5t-70.5 -153.5v-41zM883 543h635v194q0 128 -72 190t-246 62t-245.5 -62t-71.5 -190v-194z" />
<glyph unicode="&#xe7;" horiz-adv-x="1034" d="M164 287v450q0 144 85.5 218.5t276.5 74.5q71 0 134 -9t101.5 -21.5t67 -25t40.5 -21.5l12 -9q0 -56 -2.5 -110t-4.5 -80l-2 -27q-4 -4 -10 -4l-10 4l-14 197q-133 65 -312 65q-176 0 -248.5 -61.5t-72.5 -190.5v-450q0 -129 72.5 -190.5t250.5 -61.5q64 0 123 8.5 t97.5 21t68.5 25t43 20.5l14 9q7 -9 7 -23q0 -5 -1.5 -10t-3.5 -8l-2 -2q-4 -3 -12 -8.5t-37 -19t-64 -24t-94 -20t-126 -10.5v-10q0 -34 13.5 -53t32.5 -26.5t38.5 -14.5t33 -25t13.5 -51q0 -59 -36.5 -91t-107.5 -32q-40 0 -73 9.5t-47 19.5l-13 10q-6 8 -6 20q0 6 1.5 12 t3.5 8l1 3q55 -41 133 -41q103 0 103 82q0 19 -9.5 31t-24.5 16t-31.5 11.5t-31.5 17.5t-24.5 34t-9.5 60v10q-177 4 -256.5 79t-79.5 214z" />
<glyph unicode="&#xe8;" horiz-adv-x="1085" d="M164 287v450q0 144 89.5 218.5t289.5 74.5t289.5 -74.5t89.5 -218.5v-225q-144 -10 -359 -10h-358v-215q0 -128 76.5 -190t261.5 -62q67 0 128.5 8.5t102 21t72 25t45.5 20.5l14 9q6 -9 6 -23q0 -5 -1.5 -10t-3.5 -8l-1 -2q-4 -3 -12.5 -8.5t-40.5 -20t-70 -25 t-102.5 -19.5t-136.5 -9q-200 0 -289.5 74.5t-89.5 218.5zM205 543h676v194q0 128 -76.5 190t-261.5 62t-261.5 -62t-76.5 -190v-194zM356 1430q11 6 27 6q7 0 14 -1.5t10 -2.5l3 -2l237 -238q-10 -6 -26 -6l-27 6z" />
<glyph unicode="&#xe9;" horiz-adv-x="1085" d="M164 287v450q0 144 89.5 218.5t289.5 74.5t289.5 -74.5t89.5 -218.5v-225q-144 -10 -359 -10h-358v-215q0 -128 76.5 -190t261.5 -62q67 0 128.5 8.5t102 21t72 25t45.5 20.5l14 9q6 -9 6 -23q0 -5 -1.5 -10t-3.5 -8l-1 -2q-4 -3 -12.5 -8.5t-40.5 -20t-70 -25 t-102.5 -19.5t-136.5 -9q-200 0 -289.5 74.5t-89.5 218.5zM205 543h676v194q0 128 -76.5 190t-261.5 62t-261.5 -62t-76.5 -190v-194zM436 1192l238 238q10 6 26 6q7 0 14 -1.5t10 -2.5l3 -2l-238 -238q-14 -6 -26 -6q-7 0 -14 1.5t-10 2.5z" />
<glyph unicode="&#xea;" horiz-adv-x="1085" d="M164 287v450q0 144 89.5 218.5t289.5 74.5t289.5 -74.5t89.5 -218.5v-225q-144 -10 -359 -10h-358v-215q0 -128 76.5 -190t261.5 -62q67 0 128.5 8.5t102 21t72 25t45.5 20.5l14 9q6 -9 6 -23q0 -5 -1.5 -10t-3.5 -8l-1 -2q-4 -3 -12.5 -8.5t-40.5 -20t-70 -25 t-102.5 -19.5t-136.5 -9q-200 0 -289.5 74.5t-89.5 218.5zM205 543h676v194q0 128 -76.5 190t-261.5 62t-261.5 -62t-76.5 -190v-194zM299 1212l217 218q11 6 27 6q7 0 13.5 -1.5t9.5 -2.5l3 -2l217 -218q-10 -6 -26 -6l-27 6l-190 191l-191 -191q-14 -6 -26 -6 q-7 0 -14 1.5t-10 2.5z" />
<glyph unicode="&#xeb;" horiz-adv-x="1085" d="M164 287v450q0 144 89.5 218.5t289.5 74.5t289.5 -74.5t89.5 -218.5v-225q-144 -10 -359 -10h-358v-215q0 -128 76.5 -190t261.5 -62q67 0 128.5 8.5t102 21t72 25t45.5 20.5l14 9q6 -9 6 -23q0 -5 -1.5 -10t-3.5 -8l-1 -2q-4 -3 -12.5 -8.5t-40.5 -20t-70 -25 t-102.5 -19.5t-136.5 -9q-200 0 -289.5 74.5t-89.5 218.5zM205 543h676v194q0 128 -76.5 190t-261.5 62t-261.5 -62t-76.5 -190v-194zM307 1243v187q9 6 21 6q5 0 10 -1.5t8 -2.5l2 -2v-187q-10 -6 -20 -6q-5 0 -10.5 1.5t-7.5 3.5zM737 1243v187q9 6 21 6q5 0 10 -1.5 t8 -2.5l2 -2v-187q-10 -6 -20 -6q-5 0 -10.5 1.5t-7.5 3.5z" />
<glyph unicode="&#xec;" horiz-adv-x="499" d="M63 1430q11 6 27 6q7 0 14 -1.5t10 -2.5l3 -2l237 -238q-10 -6 -26 -6l-27 6zM72 16l4 11l153 12v946l-153 12q-4 5 -4 11l4 10q42 8 153 8q11 0 21.5 -1.5t15.5 -2.5l4 -2v-981l154 -12q4 -5 4 -11l-4 -10q-49 -8 -174 -8q-56 0 -99.5 2t-58.5 4l-16 2q-4 4 -4 10z" />
<glyph unicode="&#xed;" horiz-adv-x="507" d="M72 16l4 11l153 12v946l-153 12q-4 5 -4 11l4 10q42 8 153 8q11 0 21.5 -1.5t15.5 -2.5l4 -2v-981l154 -12q4 -5 4 -11l-4 -10q-49 -8 -174 -8q-56 0 -99.5 2t-58.5 4l-16 2q-4 4 -4 10zM145 1192l238 238q11 6 27 6q7 0 13.5 -1.5t9.5 -2.5l3 -2l-237 -238 q-15 -6 -27 -6q-7 0 -14 1.5t-10 2.5z" />
<glyph unicode="&#xee;" horiz-adv-x="499" d="M6 1212l217 218q11 6 27 6q7 0 13.5 -1.5t9.5 -2.5l3 -2l218 -218q-11 -6 -27 -6l-27 6l-190 191l-191 -191q-14 -6 -26 -6q-7 0 -14 1.5t-10 2.5zM72 16l4 11l153 12v946l-153 12q-4 5 -4 11l4 10q42 8 153 8q11 0 21.5 -1.5t15.5 -2.5l4 -2v-981l154 -12q4 -5 4 -11 l-4 -10q-49 -8 -174 -8q-56 0 -99.5 2t-58.5 4l-16 2q-4 4 -4 10z" />
<glyph unicode="&#xef;" horiz-adv-x="499" d="M72 16l4 11l153 12v946l-153 12q-4 5 -4 11l4 10q42 8 153 8q11 0 21.5 -1.5t15.5 -2.5l4 -2v-981l154 -12q4 -5 4 -11l-4 -10q-49 -8 -174 -8q-56 0 -99.5 2t-58.5 4l-16 2q-4 4 -4 10zM86 1243v187q8 6 20 6q5 0 10.5 -1.5t7.5 -2.5l3 -2v-187q-11 -6 -21 -6 q-5 0 -10 1.5t-8 3.5zM373 1243v187q8 6 20 6q5 0 10.5 -1.5t8.5 -2.5l2 -2v-187q-11 -6 -21 -6q-5 0 -10 1.5t-7 3.5z" />
<glyph unicode="&#xf0;" horiz-adv-x="1073" d="M164 287v450q0 144 71 218.5t230 74.5q80 0 153.5 -14t120.5 -34t82.5 -39.5t51.5 -33.5l16 -14v131q0 149 -184 250l-125 -125q-15 -6 -27 -6q-7 0 -14 1.5t-10 3.5l-3 1l144 143q-84 42 -192 72t-174 40l-66 9q-7 7 -7 21q0 5 1.5 9.5t3.5 6.5l2 2q29 -3 78.5 -9.5 t173 -39t212.5 -78.5l103 103q10 6 26 6q7 0 14 -1.5t10 -2.5l3 -2l-121 -121q193 -112 193 -283v-739q0 -293 -381 -293q-385 0 -385 293zM203 287q0 -127 79.5 -189.5t264.5 -62.5q184 0 263 62.5t79 189.5v549q-5 6 -14.5 16.5t-46.5 37t-81.5 46.5t-120.5 36.5 t-163 16.5q-144 0 -202 -61.5t-58 -190.5v-450z" />
<glyph unicode="&#xf1;" horiz-adv-x="1196" d="M72 16l4 11l153 12v946l-153 12q-4 5 -4 11l4 10q42 8 153 8q11 0 21.5 -1.5t15.5 -2.5l4 -2v-125q5 5 15.5 14.5t47.5 32.5t79.5 41t112 32.5t145.5 14.5q157 0 227 -74.5t70 -218.5v-698l153 -12q4 -5 4 -11l-4 -10q-42 -8 -153 -8q-11 0 -21.5 1.5t-15.5 2.5l-4 2v733 q0 129 -57.5 190.5t-198.5 61.5q-81 0 -152.5 -16t-115 -38.5t-75 -44.5t-44.5 -38l-13 -16v-797l154 -12q4 -5 4 -11l-4 -10q-49 -8 -174 -8q-56 0 -99.5 2t-58.5 4l-16 2q-4 4 -4 10zM322 1284v10q0 71 33 106.5t110 35.5q45 0 82 -18.5t58.5 -40t55 -40t70.5 -18.5 q57 0 80 24.5t23 75.5v11q8 6 20 6q5 0 10 -1.5t8 -2.5l2 -2v-11q0 -70 -33 -105.5t-110 -35.5q-45 0 -82.5 18.5t-59.5 40t-55 40t-69 18.5q-57 0 -80 -24.5t-23 -76.5v-10q-8 -6 -20 -6q-5 0 -10 1.5t-8 2.5z" />
<glyph unicode="&#xf2;" horiz-adv-x="1105" d="M164 287v450q0 293 389 293t389 -293v-450q0 -293 -389 -293t-389 293zM205 287q0 -127 80.5 -189.5t267.5 -62.5t267.5 62.5t80.5 189.5v450q0 127 -80.5 189.5t-267.5 62.5t-267.5 -62.5t-80.5 -189.5v-450zM367 1430q10 6 26 6q7 0 14 -1.5t10 -2.5l3 -2l237 -238 q-10 -6 -26 -6l-27 6z" />
<glyph unicode="&#xf3;" horiz-adv-x="1105" d="M164 287v450q0 293 389 293t389 -293v-450q0 -293 -389 -293t-389 293zM205 287q0 -127 80.5 -189.5t267.5 -62.5t267.5 62.5t80.5 189.5v450q0 127 -80.5 189.5t-267.5 62.5t-267.5 -62.5t-80.5 -189.5v-450zM446 1192l238 238q11 6 27 6q7 0 13.5 -1.5t9.5 -2.5l3 -2 l-237 -238q-15 -6 -27 -6q-7 0 -14 1.5t-10 2.5z" />
<glyph unicode="&#xf4;" horiz-adv-x="1105" d="M164 287v450q0 293 389 293t389 -293v-450q0 -293 -389 -293t-389 293zM205 287q0 -127 80.5 -189.5t267.5 -62.5t267.5 62.5t80.5 189.5v450q0 127 -80.5 189.5t-267.5 62.5t-267.5 -62.5t-80.5 -189.5v-450zM309 1212l217 218q11 6 27 6q7 0 14 -1.5t10 -2.5l3 -2 l217 -218q-11 -6 -27 -6l-27 6l-190 191l-191 -191q-14 -6 -26 -6q-7 0 -14 1.5t-10 2.5z" />
<glyph unicode="&#xf5;" horiz-adv-x="1105" d="M164 287v450q0 293 389 293t389 -293v-450q0 -293 -389 -293t-389 293zM205 287q0 -127 80.5 -189.5t267.5 -62.5t267.5 62.5t80.5 189.5v450q0 127 -80.5 189.5t-267.5 62.5t-267.5 -62.5t-80.5 -189.5v-450zM276 1284v10q0 70 33.5 106t110.5 36q45 0 82 -18.5 t58.5 -40t55 -40t70.5 -18.5q57 0 79.5 24t22.5 76v11q9 6 21 6q5 0 10 -1.5t7 -2.5l3 -2v-11q0 -70 -33 -105.5t-110 -35.5q-45 0 -82.5 18.5t-59.5 40t-55 40t-69 18.5q-57 0 -80 -24.5t-23 -76.5v-10q-8 -6 -20 -6q-5 0 -10.5 1.5t-8.5 2.5z" />
<glyph unicode="&#xf6;" horiz-adv-x="1105" d="M164 287v450q0 293 389 293t389 -293v-450q0 -293 -389 -293t-389 293zM205 287q0 -127 80.5 -189.5t267.5 -62.5t267.5 62.5t80.5 189.5v450q0 127 -80.5 189.5t-267.5 62.5t-267.5 -62.5t-80.5 -189.5v-450zM317 1243v187q9 6 21 6q5 0 10 -1.5t8 -2.5l2 -2v-187 q-10 -6 -20 -6q-5 0 -10.5 1.5t-7.5 3.5zM748 1243v187q8 6 20 6q5 0 10 -1.5t8 -2.5l2 -2v-187q-10 -6 -20 -6q-5 0 -10 1.5t-8 3.5z" />
<glyph unicode="&#xf7;" horiz-adv-x="884" d="M113 614q0 5 1.5 10.5t3.5 7.5l1 3h647q6 -9 6 -21q0 -5 -1.5 -10t-2.5 -8l-2 -2h-647q-6 8 -6 20zM422 250v156q8 6 20 6q5 0 10.5 -1.5t7.5 -2.5l3 -2v-156q-11 -6 -21 -6q-5 0 -10 1.5t-8 2.5zM422 823v156q8 6 20 6q5 0 10.5 -1.5t7.5 -3.5l3 -1v-156q-11 -6 -21 -6 q-5 0 -10 1.5t-8 3.5z" />
<glyph unicode="&#xf8;" horiz-adv-x="1105" d="M164 287v450q0 293 389 293q183 0 274 -61l35 51q9 6 25 6q7 0 13 -1.5t8 -2.5l3 -2l-51 -76q82 -73 82 -207v-450q0 -293 -389 -293q-196 0 -293 72l-41 -62q-14 -6 -24 -6q-7 0 -13.5 1.5t-9.5 2.5l-2 2l59 88q-65 71 -65 195zM205 287q0 -103 49 -160l551 809 q-83 53 -252 53q-187 0 -267.5 -62.5t-80.5 -189.5v-450zM283 98q81 -63 270 -63q187 0 267.5 62.5t80.5 189.5v450q0 117 -63 174z" />
<glyph unicode="&#xf9;" horiz-adv-x="1206" d="M72 1008l4 10q42 8 153 8q11 0 21.5 -1.5t15.5 -2.5l4 -2v-733q0 -128 57 -190t195 -62q84 0 158 16t118.5 38.5t77.5 44.5t46 38l14 16v797l-154 12q-4 5 -4 11l4 10q43 8 154 8q11 0 21.5 -1.5t14.5 -2.5l5 -2v-981l153 -12q5 -5 5 -11q0 -12 -30.5 -15t-127.5 -3 q-11 0 -21.5 1.5t-15.5 2.5l-4 2v125q-5 -5 -16 -14.5t-49 -32.5t-82 -41t-116 -32.5t-151 -14.5q-156 0 -224.5 74.5t-68.5 218.5v698l-153 12q-4 5 -4 11zM416 1430q10 6 26 6q7 0 14 -1.5t10 -2.5l3 -2l238 -238q-11 -6 -27 -6l-27 6z" />
<glyph unicode="&#xfa;" horiz-adv-x="1206" d="M72 1008l4 10q42 8 153 8q11 0 21.5 -1.5t15.5 -2.5l4 -2v-733q0 -128 57 -190t195 -62q84 0 158 16t118.5 38.5t77.5 44.5t46 38l14 16v797l-154 12q-4 5 -4 11l4 10q43 8 154 8q11 0 21.5 -1.5t14.5 -2.5l5 -2v-981l153 -12q5 -5 5 -11q0 -12 -30.5 -15t-127.5 -3 q-11 0 -21.5 1.5t-15.5 2.5l-4 2v125q-5 -5 -16 -14.5t-49 -32.5t-82 -41t-116 -32.5t-151 -14.5q-156 0 -224.5 74.5t-68.5 218.5v698l-153 12q-4 5 -4 11zM498 1192l237 238q11 6 27 6q7 0 13.5 -1.5t9.5 -2.5l3 -2l-237 -238q-15 -6 -27 -6q-7 0 -13.5 1.5t-9.5 2.5z" />
<glyph unicode="&#xfb;" horiz-adv-x="1206" d="M72 1008l4 10q42 8 153 8q11 0 21.5 -1.5t15.5 -2.5l4 -2v-733q0 -128 57 -190t195 -62q84 0 158 16t118.5 38.5t77.5 44.5t46 38l14 16v797l-154 12q-4 5 -4 11l4 10q43 8 154 8q11 0 21.5 -1.5t14.5 -2.5l5 -2v-981l153 -12q5 -5 5 -11q0 -12 -30.5 -15t-127.5 -3 q-11 0 -21.5 1.5t-15.5 2.5l-4 2v125q-5 -5 -16 -14.5t-49 -32.5t-82 -41t-116 -32.5t-151 -14.5q-156 0 -224.5 74.5t-68.5 218.5v698l-153 12q-4 5 -4 11zM358 1212l217 218q11 6 27 6q7 0 14 -1.5t10 -2.5l3 -2l217 -218q-11 -6 -27 -6l-26 6l-191 191l-190 -191 q-15 -6 -27 -6q-7 0 -14 1.5t-10 2.5z" />
<glyph unicode="&#xfc;" horiz-adv-x="1206" d="M72 1008l4 10q42 8 153 8q11 0 21.5 -1.5t15.5 -2.5l4 -2v-733q0 -128 57 -190t195 -62q84 0 158 16t118.5 38.5t77.5 44.5t46 38l14 16v797l-154 12q-4 5 -4 11l4 10q43 8 154 8q11 0 21.5 -1.5t14.5 -2.5l5 -2v-981l153 -12q5 -5 5 -11q0 -12 -30.5 -15t-127.5 -3 q-11 0 -21.5 1.5t-15.5 2.5l-4 2v125q-5 -5 -16 -14.5t-49 -32.5t-82 -41t-116 -32.5t-151 -14.5q-156 0 -224.5 74.5t-68.5 218.5v698l-153 12q-4 5 -4 11zM367 1243v187q8 6 20 6q5 0 10.5 -1.5t8.5 -2.5l2 -2v-187q-11 -6 -21 -6q-5 0 -10 1.5t-7 3.5zM797 1243v187 q8 6 20 6q5 0 10.5 -1.5t8.5 -2.5l2 -2v-187q-11 -6 -21 -6q-5 0 -10 1.5t-7 3.5z" />
<glyph unicode="&#xfd;" horiz-adv-x="1208" d="M41 1008l4 10q48 8 152 8q102 0 135 -3t33 -15l-5 -11l-131 -12l375 -940l371 940l-127 12q-4 5 -4 11l4 10q47 8 164 8q46 0 84 -2t52 -4l15 -2q4 -4 4 -10l-4 -11l-143 -12l-465 -1169q-45 -115 -113 -173.5t-176 -58.5q-24 0 -46 2t-32 4l-10 2q-6 9 -6 21q0 5 1.5 10 t2.5 7l2 3q33 -8 88 -8q93 0 149.5 47t96.5 144l76 184l-10 4l-392 981l-141 12q-4 5 -4 11zM483 1192l238 238q11 6 27 6q7 0 13.5 -1.5t9.5 -2.5l3 -2l-237 -238q-15 -6 -27 -6q-7 0 -14 1.5t-10 2.5z" />
<glyph unicode="&#xfe;" horiz-adv-x="1064" d="M27 -393l4 10l153 12v1766l-153 12q-4 4 -4 10l4 10q42 9 153 9q11 0 21.5 -1.5t14.5 -2.5l5 -2v-535q5 5 15.5 14.5t48.5 32.5t81 41t114.5 32.5t148.5 14.5q153 0 221 -74.5t68 -218.5v-450q0 -144 -77.5 -218.5t-250.5 -74.5q-86 0 -154.5 12.5t-106 29t-63.5 38 t-34 33t-11 20.5v-498l154 -12q4 -4 4 -10l-4 -10q-49 -9 -174 -9q-56 0 -99.5 2t-59.5 4l-15 3q-4 4 -4 10zM225 287q0 -127 85 -189.5t282 -62.5q159 0 224 62t65 190v450q0 128 -56 190t-192 62q-61 0 -116 -8.5t-95 -22t-74 -29.5t-56 -32.5t-37.5 -30t-22.5 -22.5 l-7 -8v-549z" />
<glyph unicode="&#xff;" horiz-adv-x="1208" d="M41 1008l4 10q48 8 152 8q102 0 135 -3t33 -15l-5 -11l-131 -12l375 -940l371 940l-127 12q-4 5 -4 11l4 10q47 8 164 8q46 0 84 -2t52 -4l15 -2q4 -4 4 -10l-4 -11l-143 -12l-465 -1169q-45 -115 -113 -173.5t-176 -58.5q-24 0 -46 2t-32 4l-10 2q-6 9 -6 21q0 5 1.5 10 t2.5 7l2 3q33 -8 88 -8q93 0 149.5 47t96.5 144l76 184l-10 4l-392 981l-141 12q-4 5 -4 11zM352 1243v187q9 6 21 6q5 0 10 -1.5t7 -2.5l3 -2v-187q-10 -6 -20 -6q-5 0 -10.5 1.5t-8.5 3.5zM782 1243v187q9 6 21 6q5 0 10 -1.5t7 -2.5l3 -2v-187q-10 -6 -20 -6 q-5 0 -10.5 1.5t-8.5 3.5z" />
<glyph unicode="&#x152;" horiz-adv-x="1726" d="M143 287v860q0 293 471 293q83 0 160 -4t112 -8l36 -5q137 11 354 11h342q6 -16 6 -41q0 -72 -2 -126t-4 -71l-2 -18q-4 -4 -10 -4l-11 4l-14 215h-643v-635h608q6 -9 6 -21q0 -5 -1.5 -10t-2.5 -7l-2 -3h-608v-676h653l15 215q4 4 10 4l10 -4q8 -53 8 -215 q0 -11 -1.5 -21.5t-2.5 -15.5l-2 -4h-352q-96 0 -184.5 2.5t-129.5 5.5l-40 2q-122 -16 -308 -16q-471 0 -471 293zM184 287q0 -127 100 -189.5t330 -62.5h287v1364h-287q-230 0 -330 -62.5t-100 -189.5v-860z" />
<glyph unicode="&#x153;" horiz-adv-x="1822" d="M164 287v450q0 293 389 293q306 0 367 -180q30 89 116.5 134.5t243.5 45.5q200 0 289.5 -74.5t89.5 -218.5v-225q-144 -10 -359 -10h-358v-215q0 -128 76.5 -190t261.5 -62q67 0 128.5 8.5t102 21t72 25t45.5 20.5l14 9q7 -9 7 -23q0 -5 -1.5 -10t-3.5 -8l-2 -2 q-4 -3 -12.5 -8.5t-40.5 -20t-70 -25t-102.5 -19.5t-136.5 -9q-157 0 -243.5 45.5t-116.5 134.5q-61 -180 -367 -180q-389 0 -389 293zM205 287q0 -127 80.5 -189.5t267.5 -62.5t267.5 62.5t80.5 189.5v450q0 127 -80.5 189.5t-267.5 62.5t-267.5 -62.5t-80.5 -189.5v-450z M942 543h676v194q0 128 -76.5 190t-261.5 62t-261.5 -62t-76.5 -190v-194z" />
<glyph unicode="&#x178;" horiz-adv-x="1349" d="M41 1415l4 12q55 9 172 9q75 0 130.5 -2t74.5 -4l18 -3q4 -4 4 -12l-4 -12l-174 -12l408 -697l407 697l-174 12q-4 4 -4 12l4 12q55 9 223 9q53 0 96.5 -2t61.5 -4l17 -3q4 -4 4 -12l-4 -12l-177 -12l-434 -732v-616l174 -12q4 -5 4 -13l-4 -12q-55 -8 -194 -8 q-62 0 -110.5 2t-66.5 4l-18 2q-4 4 -4 12l4 13l174 12v616l-436 732l-172 12q-4 4 -4 12zM438 1540v186q9 7 21 7q5 0 10 -1.5t7 -3.5l3 -2v-186q-10 -6 -20 -6q-5 0 -10.5 1.5t-8.5 2.5zM868 1540v186q9 7 21 7q5 0 10 -1.5t7 -3.5l3 -2v-186q-10 -6 -20 -6 q-5 0 -10.5 1.5t-8.5 2.5z" />
<glyph unicode="&#x2c6;" d="M-49 1212l217 218q11 6 27 6q7 0 13.5 -1.5t9.5 -2.5l3 -2l217 -218q-10 -6 -26 -6l-27 6l-190 191l-191 -191q-15 -6 -27 -6q-7 0 -13.5 1.5t-9.5 2.5z" />
<glyph unicode="&#x2dc;" horiz-adv-x="819" d="M133 1284v10q0 71 33 106.5t110 35.5q45 0 82 -18.5t59 -40t55.5 -40t70.5 -18.5q57 0 79.5 24t22.5 76v11q9 6 21 6q5 0 10 -1.5t8 -2.5l2 -2v-11q0 -70 -33 -105.5t-110 -35.5q-45 0 -82.5 18.5t-60 40t-55.5 40t-69 18.5q-56 0 -79 -24.5t-23 -76.5v-10q-8 -6 -20 -6 q-5 0 -10.5 1.5t-7.5 2.5z" />
<glyph unicode="&#x2000;" horiz-adv-x="914" />
<glyph unicode="&#x2001;" horiz-adv-x="1829" />
<glyph unicode="&#x2002;" horiz-adv-x="914" />
<glyph unicode="&#x2003;" horiz-adv-x="1829" />
<glyph unicode="&#x2004;" horiz-adv-x="609" />
<glyph unicode="&#x2005;" horiz-adv-x="457" />
<glyph unicode="&#x2006;" horiz-adv-x="304" />
<glyph unicode="&#x2007;" horiz-adv-x="304" />
<glyph unicode="&#x2008;" horiz-adv-x="228" />
<glyph unicode="&#x2009;" horiz-adv-x="365" />
<glyph unicode="&#x200a;" horiz-adv-x="101" />
<glyph unicode="&#x2010;" horiz-adv-x="647" d="M113 594q0 5 1.5 10t3.5 8l1 2h409q7 -8 7 -20q0 -5 -1.5 -10.5t-3.5 -7.5l-2 -3h-409q-6 9 -6 21z" />
<glyph unicode="&#x2011;" horiz-adv-x="647" d="M113 594q0 5 1.5 10t3.5 8l1 2h409q7 -8 7 -20q0 -5 -1.5 -10.5t-3.5 -7.5l-2 -3h-409q-6 9 -6 21z" />
<glyph unicode="&#x2012;" horiz-adv-x="647" d="M113 594q0 5 1.5 10t3.5 8l1 2h409q7 -8 7 -20q0 -5 -1.5 -10.5t-3.5 -7.5l-2 -3h-409q-6 9 -6 21z" />
<glyph unicode="&#x2013;" horiz-adv-x="1056" d="M113 594q0 5 1.5 10t3.5 8l1 2h819q6 -8 6 -20q0 -5 -1.5 -10.5t-2.5 -7.5l-2 -3h-819q-6 9 -6 21z" />
<glyph unicode="&#x2014;" horiz-adv-x="1363" d="M113 594q0 5 1.5 10t3.5 8l1 2h1126q6 -8 6 -20q0 -5 -1.5 -10.5t-3.5 -7.5l-1 -3h-1126q-6 9 -6 21z" />
<glyph unicode="&#x2018;" d="M174 1090q0 71 10.5 132t25.5 97.5t30 63t26 37.5l10 10q11 6 21 6q5 0 10 -1.5t7 -2.5l3 -2q-4 -4 -11 -12t-24.5 -38t-31 -65.5t-24.5 -96t-11 -128.5q-8 -7 -20 -7q-5 0 -10.5 1.5t-8.5 3.5z" />
<glyph unicode="&#x2019;" d="M72 1090q4 4 11 12t24.5 38t31 65.5t24.5 96t11 128.5q9 6 21 6q5 0 10 -1.5t7 -2.5l3 -2q0 -71 -10.5 -132t-25.5 -97.5t-30 -63t-25 -37.5l-11 -10q-11 -7 -21 -7q-5 0 -10 1.5t-8 3.5z" />
<glyph unicode="&#x201a;" d="M72 -180q4 4 11 12t24.5 38t31 65.5t24.5 96t11 128.5q9 6 21 6q5 0 10 -1.5t7 -2.5l3 -2q0 -71 -10.5 -132t-25.5 -97.5t-30 -63t-25 -37.5l-11 -10q-11 -6 -21 -6q-5 0 -10 1.5t-8 2.5z" />
<glyph unicode="&#x201c;" horiz-adv-x="593" d="M174 1090q0 71 10.5 132t25.5 97.5t30 63t26 37.5l10 10q11 6 21 6q5 0 10 -1.5t7 -2.5l3 -2q-4 -4 -11 -12t-24.5 -38t-31 -65.5t-24.5 -96t-11 -128.5q-8 -7 -20 -7q-5 0 -10.5 1.5t-8.5 3.5zM379 1090q0 71 10.5 132t25.5 97.5t30 63t25 37.5l11 10q11 6 21 6 q5 0 10 -1.5t8 -2.5l2 -2q-4 -4 -11 -12t-24.5 -38t-31 -65.5t-24.5 -96t-11 -128.5q-9 -7 -21 -7q-5 0 -10 1.5t-7 3.5z" />
<glyph unicode="&#x201d;" horiz-adv-x="593" d="M72 1090q4 4 11 12t24.5 38t31 65.5t24.5 96t11 128.5q9 6 21 6q5 0 10 -1.5t7 -2.5l3 -2q0 -71 -10.5 -132t-25.5 -97.5t-30 -63t-25 -37.5l-11 -10q-11 -7 -21 -7q-5 0 -10 1.5t-8 3.5zM276 1090q4 4 11 12t25 38t31.5 65.5t24.5 96t11 128.5q8 6 20 6q5 0 10.5 -1.5 t8.5 -2.5l2 -2q0 -71 -10.5 -132t-26 -97.5t-30.5 -63t-25 -37.5l-11 -10q-10 -7 -20 -7q-5 0 -10.5 1.5t-8.5 3.5z" />
<glyph unicode="&#x201e;" horiz-adv-x="593" d="M72 -180q4 4 11 12t24.5 38t31 65.5t24.5 96t11 128.5q9 6 21 6q5 0 10 -1.5t7 -2.5l3 -2q0 -71 -10.5 -132t-25.5 -97.5t-30 -63t-25 -37.5l-11 -10q-11 -6 -21 -6q-5 0 -10 1.5t-8 2.5zM276 -180q4 4 11 12t25 38t31.5 65.5t24.5 96t11 128.5q8 6 20 6q5 0 10.5 -1.5 t8.5 -2.5l2 -2q0 -71 -10.5 -132t-26 -97.5t-30.5 -63t-25 -37.5l-11 -10q-10 -6 -20 -6q-5 0 -10.5 1.5t-8.5 2.5z" />
<glyph unicode="&#x2022;" horiz-adv-x="614" d="M68 614q0 44 3 91.5t6 72.5l3 25q98 14 196 14q44 0 93 -3.5t77 -7.5l27 -3q12 -89 12 -189q0 -44 -3 -91t-6 -72l-3 -25q-99 -14 -197 -14q-44 0 -93 3.5t-76 6.5l-27 4q-12 86 -12 188z" />
<glyph unicode="&#x2026;" horiz-adv-x="1044" d="M170 4v156q11 6 25 6q6 0 12 -1.5t9 -2.5l3 -2v-156q-12 -6 -24 -6zM498 4v156q10 6 24 6l25 -6v-156q-13 -6 -25 -6q-6 0 -12 1.5t-9 2.5zM825 4v156q11 6 25 6q6 0 12 -1.5t9 -2.5l3 -2v-156q-12 -6 -24 -6z" />
<glyph unicode="&#x202f;" horiz-adv-x="365" />
<glyph unicode="&#x2039;" horiz-adv-x="604" d="M117 553l346 346q4 6 23 -17q9 -10 6 -12l-318 -317l318 -317q2 -1 -4.5 -9.5t-14.5 -15.5t-10 -4z" />
<glyph unicode="&#x203a;" horiz-adv-x="604" d="M117 236l317 317l-317 317q-3 2 3.5 10t14.5 15t10 4l347 -346l-347 -346q-2 -3 -10 4t-14.5 15t-3.5 10z" />
<glyph unicode="&#x205f;" horiz-adv-x="457" />
<glyph unicode="&#x20ac;" horiz-adv-x="1253" d="M72 584q0 5 1.5 10t2.5 8l2 2h123v223h-121q-6 9 -6 21q0 5 1.5 10t2.5 8l2 2h121v279q0 144 107 218.5t347 74.5q91 0 170.5 -14t127.5 -34t83.5 -39.5t49.5 -33.5l14 -14q0 -56 -2 -110.5t-4 -80.5l-2 -27q-5 -4 -11 -4l-10 4l-14 201q-6 5 -17 12t-49.5 26.5t-81.5 34 t-112 26.5t-142 12q-154 0 -246 -29.5t-129.5 -83.5t-37.5 -139v-279h649q6 -8 6 -20q0 -5 -1.5 -10.5t-3.5 -7.5l-1 -3h-649v-223h647q6 -8 6 -20q0 -5 -1.5 -10.5t-3.5 -7.5l-1 -3h-647v-276q0 -85 37.5 -139t129.5 -83.5t246 -29.5q81 0 156.5 9.5t125 23.5t87.5 28 t55 24l17 9q6 -9 6 -23q0 -5 -1.5 -10t-2.5 -8l-2 -2q-5 -4 -15.5 -10t-49.5 -22t-85.5 -28t-124.5 -22t-166 -10q-240 0 -347 74.5t-107 218.5v276h-123q-6 9 -6 21z" />
<glyph unicode="&#x2122;" horiz-adv-x="1368" d="M80 1417l4 17h475q4 -7 4 -17l-4 -16h-213v-682q-12 -4 -22 -4l-21 4v682h-219q-4 6 -4 16zM670 719v711q0 4 24 4l27 -4l254 -539l256 541q12 4 24 4l27 -4v-713q-10 -4 -20 -4l-21 4v639l-246 -514q-8 -4 -20 -4l-23 4l-241 512v-637q-11 -4 -21 -4z" />
<glyph unicode="&#x25fc;" horiz-adv-x="1024" d="M0 0v1024h1024v-1024h-1024z" />
</font>
</defs>
</svg>
