<?xml version="1.0" standalone="no"?>
<!DOCTYPE svg PUBLIC "-//W3C//DTD SVG 1.1//EN" "http://www.w3.org/Graphics/SVG/1.1/DTD/svg11.dtd" >
<svg xmlns="http://www.w3.org/2000/svg">
<metadata></metadata>
<defs>
<font id="pancetta_serif_proLtIt" horiz-adv-x="1425" >
<font-face units-per-em="2048" ascent="1536" descent="-512" />
<missing-glyph horiz-adv-x="464" />
<glyph unicode="&#xfb01;" horiz-adv-x="1130" d="M-100 -356q2 10 6 20.5t7 15.5l3 5q42 -17 100 -17q52 0 85 17.5t51 52t26 90.5l176 1112l-143 18q-6 3 4 42q4 13 6 12q50 10 146 10l22 143q23 137 98.5 207t219.5 70q69 0 155 -19q8 -4 -5 -62q-6 -24 -9 -22q-53 17 -117 17q-101 0 -149 -46t-64 -145l-20 -141 q170 4 503 4q21 0 41.5 -2t30.5 -4l10 -2l-129 -838q-9 -54 7.5 -79t66.5 -25q39 0 51 6q9 -5 -6 -58q-5 -19 -8 -18q-48 -16 -98 -16q-175 0 -144 190l119 760l-459 -4l-176 -1110q-19 -122 -83 -184t-185 -62q-77 0 -137 21q-1 2 -1.5 5.5t-1.5 14.5t1 21zM989 1225 l31 205q32 8 67 8q15 0 30.5 -2t23.5 -4l8 -2l-31 -205q-34 -8 -67 -8q-16 0 -31.5 2t-22.5 4z" />
<glyph unicode="&#xfb02;" horiz-adv-x="1130" d="M-100 -356q2 10 6 20.5t7 15.5l3 5q42 -17 100 -17q52 0 85 17.5t51 52t26 90.5l176 1112l-143 18q-6 3 4 42q4 13 6 12q50 10 146 10l22 143q46 277 332 277q92 0 162 -17q78 13 184 13q21 0 41.5 -2t30.5 -4l10 -2l-195 -1248q-9 -54 7.5 -79t66.5 -25q39 0 51 6 q9 -5 -6 -58q-5 -19 -8 -18q-48 -16 -98 -16q-175 0 -144 190l185 1166l-226 20q-233 0 -264 -203l-20 -141h301q4 -16 0 -43q-2 -11 -5.5 -22t-6.5 -16l-3 -5h-301l-176 -1110q-19 -122 -83 -184t-185 -62q-77 0 -137 21q-1 2 -1.5 5.5t-1.5 14.5t1 21z" />
<glyph unicode="&#xfb03;" horiz-adv-x="1720" d="M-100 -356q2 10 6 20.5t7 15.5l3 5q42 -17 100 -17q52 0 85 17.5t51 52t26 90.5l176 1112l-143 18q-6 3 4 42q4 13 6 12q50 10 146 10l22 143q23 137 98.5 207t219.5 70q69 0 155 -19q8 -4 -5 -62q-6 -24 -9 -22q-53 17 -117 17q-101 0 -149 -46t-64 -145l-20 -141h458 l21 141q24 138 99.5 207.5t219.5 69.5q68 0 154 -19q0 -2 0.5 -6t1.5 -15.5t0 -21.5q-2 -10 -6 -20.5t-7 -15.5l-3 -5q-53 17 -115 17q-101 0 -149 -46t-66 -145l-21 -141q194 4 506 4q21 0 41.5 -2t30.5 -4l10 -2l-131 -838q-9 -54 7.5 -79t66.5 -25q39 0 51 6 q10 -4 -3 -56q-6 -21 -9 -20q-48 -16 -99 -16q-91 0 -124.5 48t-18.5 142l119 760l-461 -4l-174 -1110q-14 -81 -44.5 -134.5t-86.5 -82.5t-139 -29q-78 0 -138 21q-10 3 3 58q7 26 10 24q42 -17 102 -17q77 0 113.5 37.5t50.5 122.5l174 1110h-459l-176 -1110 q-19 -122 -83 -184t-185 -62q-77 0 -137 21q-1 2 -1.5 5.5t-1.5 14.5t1 21zM1577 1225l33 205q32 8 65 8q16 0 32 -2t24 -4l8 -2l-33 -205q-35 -8 -68 -8q-15 0 -30 2t-23 4z" />
<glyph unicode="&#xfb04;" horiz-adv-x="1720" d="M-100 -356q2 10 6 20.5t7 15.5l3 5q42 -17 100 -17q52 0 85 17.5t51 52t26 90.5l176 1112l-143 18q-6 3 4 42q4 13 6 12q50 10 146 10l22 143q23 137 98.5 207t219.5 70q69 0 155 -19q8 -4 -5 -62q-6 -24 -9 -22q-53 17 -117 17q-101 0 -149 -46t-64 -145l-20 -141h458 l21 141q49 277 334 277q92 0 162 -17q65 13 184 13q21 0 41.5 -2t30.5 -4l10 -2l-197 -1248q-9 -54 7.5 -79t66.5 -25q39 0 51 6q10 -4 -3 -56q-6 -21 -9 -20q-48 -16 -99 -16q-91 0 -124.5 48t-18.5 142l182 1166l-223 20q-230 0 -266 -203l-21 -141h304q4 -16 0 -43 q-2 -11 -5.5 -22t-6.5 -16l-3 -5h-303l-174 -1110q-14 -81 -44.5 -134.5t-86.5 -82.5t-139 -29q-78 0 -138 21q-10 3 3 58q7 26 10 24q42 -17 102 -17q77 0 113.5 37.5t50.5 122.5l174 1110h-459l-176 -1110q-19 -122 -83 -184t-185 -62q-77 0 -137 21q-1 2 -1.5 5.5 t-1.5 14.5t1 21z" />
<glyph horiz-adv-x="2048" />
<glyph horiz-adv-x="2048" />
<glyph unicode="&#xd;" horiz-adv-x="2048" />
<glyph unicode=" "  horiz-adv-x="464" />
<glyph unicode="&#x09;" horiz-adv-x="464" />
<glyph unicode="&#xa0;" horiz-adv-x="464" />
<glyph unicode="!" horiz-adv-x="423" d="M145 4l31 189q33 10 68 10q16 0 32.5 -2.5t25.5 -4.5l9 -3l-30 -189q-37 -8 -70 -8q-16 0 -32.5 2t-24.5 4zM213 424l160 1006q32 8 67 8q15 0 30.5 -2t23.5 -4l8 -2l-160 -1006q-33 -8 -66 -8q-15 0 -30.5 2t-23.5 4z" />
<glyph unicode="&#x22;" horiz-adv-x="618" d="M311 1020l56 410q26 8 53 8q12 0 24.5 -2t18.5 -4l6 -2l-74 -410q-20 -10 -43 -10q-10 0 -20.5 2.5t-15.5 5.5zM543 1020l57 410q24 8 51 8q12 0 24.5 -2t18.5 -4l6 -2l-73 -410q-20 -10 -43 -10q-10 0 -20.5 2.5t-15.5 5.5z" />
<glyph unicode="#" horiz-adv-x="1099" d="M158 430q2 12 5.5 23t6.5 15l2 5h135l117 488h-127q-1 2 -1.5 5t-1.5 14.5t1 23.5t6 23t7 15l3 5h135l93 383q28 8 55 8q13 0 26 -2t20 -4l7 -2l-94 -383h371l92 383q26 8 55 8q13 0 25.5 -2t19.5 -4l6 -2l-90 -383h133q1 -2 1.5 -5t1.5 -14.5t-1 -23.5q-3 -12 -7 -22.5 t-6 -15.5l-3 -5h-141l-119 -488h135q1 -2 2 -5t3 -14.5t-1 -23.5t-7 -22.5t-7 -15.5l-2 -5h-144l-90 -383q-30 -8 -57 -8q-12 0 -24.5 2t-19.5 4l-7 2l90 383h-371l-90 -383q-28 -8 -55 -8q-13 0 -25.5 2t-18.5 4l-7 2l92 383h-127q-1 2 -1.5 5t-1.5 14.5t1 23.5zM414 473 h370l117 488h-371z" />
<glyph unicode="$" horiz-adv-x="1153" d="M143 127q11 63 24.5 123.5t21.5 89.5l8 29q16 6 39 6q10 0 19 -1.5t13 -3.5l4 -1l-6 -191q4 -4 12.5 -10.5t38 -23t63.5 -29t90.5 -23t117.5 -10.5q173 0 253 56t101 179l14 105q8 54 -10.5 95.5t-57.5 68.5t-91 48t-110.5 38t-117 35t-110 43.5t-89 59t-55 85 t-6.5 117.5l15 104q24 152 125 233t305 91l30 194q27 8 56 8q12 0 25 -2t19 -4l7 -2l-31 -194q73 -3 134.5 -17.5t98 -33.5t62 -38t35.5 -31l10 -13q-9 -63 -21.5 -123.5t-20.5 -89.5l-9 -29q-16 -6 -39 -6q-10 0 -19.5 1.5t-13.5 3.5l-4 1l8 190q-3 4 -10 10.5t-32.5 23 t-55 29.5t-78.5 23.5t-104 10.5q-166 0 -244.5 -57t-97.5 -179l-17 -104q-8 -51 11 -90t58.5 -64t92 -45t111.5 -37t118 -35.5t110.5 -45.5t89 -61.5t54 -88.5t5.5 -123l-15 -105q-26 -153 -132 -234.5t-314 -88.5l-31 -195q-26 -8 -53 -8q-13 0 -26 2t-20 4l-7 2l30 195 q-81 3 -150 17.5t-109.5 33.5t-70 38t-40.5 31z" />
<glyph unicode="%" horiz-adv-x="1521" d="M248 4l1130 1426q29 8 64 8q14 0 27.5 -2t20.5 -4l7 -2l-1130 -1426q-33 -8 -62 -8q-15 0 -29 2t-21 4zM279 1010l32 209q18 110 93 165.5t223 55.5t205.5 -56t39.5 -165l-32 -209q-18 -109 -94 -165.5t-224 -56.5q-146 0 -203.5 56.5t-39.5 165.5zM379 1010 q-12 -81 22 -118.5t131 -37.5q98 0 146.5 38t60.5 118l33 209q11 80 -25 117.5t-133 37.5t-143 -37.5t-57 -117.5zM872 215l33 209q18 109 94 165t224 56q147 0 205 -56t40 -165l-32 -209q-18 -109 -94 -165t-224 -56q-147 0 -205.5 56t-40.5 165zM975 215 q-12 -81 22 -118.5t131 -37.5t145 38t60 118l33 209q14 80 -22 118t-134 38q-97 0 -143.5 -37.5t-58.5 -118.5z" />
<glyph unicode="&#x26;" horiz-adv-x="1431" d="M164 334l16 106q39 239 295 297q-212 59 -176 289l12 82q55 334 480 334q117 0 196 -21t121 -63t54.5 -99t0.5 -135l-14 -100h295q1 -2 1.5 -5t1.5 -14.5t-1 -23.5l-16 -43h-295l-105 -670q-18 -98 16 -144t136 -46q55 0 116 18q4 -18 0 -41q-1 -9 -4.5 -18.5t-6.5 -14.5 l-3 -6q-81 -24 -149 -24q-144 0 -191 78q-2 0 -34.5 -13.5t-73 -27t-113 -25.5t-150.5 -12q-242 0 -339 87.5t-70 254.5zM295 334q-22 -132 44.5 -194t248.5 -62q170 0 321 67q-10 55 2 123l133 856q19 121 -39.5 176.5t-228.5 55.5q-159 0 -237 -60t-97 -188l-14 -82 q-19 -128 41 -188t223 -60h101l2 -43q-3 -12 -7 -22.5t-7 -15.5l-3 -5h-98q-179 0 -264.5 -61t-106.5 -191z" />
<glyph unicode="'" horiz-adv-x="385" d="M311 1020l56 410q26 8 53 8q12 0 24.5 -2t18.5 -4l6 -2l-74 -410q-20 -10 -43 -10q-10 0 -20.5 2.5t-15.5 5.5z" />
<glyph unicode="(" horiz-adv-x="589" d="M147 6l193 1221q24 154 119 232.5t278 78.5q1 -2 1.5 -5t1.5 -14.5t-1 -23.5q-2 -11 -6 -21.5t-7 -15.5l-3 -4q-123 0 -184 -55t-76 -172l-195 -1221q-18 -117 25 -172t166 -55q1 -2 1.5 -5t1.5 -14.5t-1 -23.5l-15 -43q-182 0 -252.5 79.5t-46.5 233.5z" />
<glyph unicode=")" horiz-adv-x="589" d="M45 -264q2 12 6 22.5t7 15.5l3 5q123 0 183 55t78 172l194 1221q16 118 -27 172.5t-165 54.5q-8 2 5 62q6 24 9 22q182 0 252.5 -78.5t46.5 -232.5l-195 -1221q-24 -155 -118.5 -234t-276.5 -79q-1 2 -1.5 5.5t-1.5 15t1 22.5z" />
<glyph unicode="*" horiz-adv-x="974" d="M268 1100q3 24 15 49q5 11 13 22t14 16l5 5l297 -113l50 351q26 8 53 8q12 0 24.5 -2t18.5 -4l6 -2l-62 -351l336 113q11 -16 17 -41q2 -13 1.5 -24t-2.5 -18l-1 -7l-336 -105l157 -278q-17 -21 -40 -35q-11 -7 -24 -12.5t-20 -7.5l-8 -2l-147 286l-236 -286 q-23 6 -43 20q-9 7 -16 16.5t-10 15.5l-2 5l243 278z" />
<glyph unicode="+" horiz-adv-x="847" d="M190 571q-4 16 0 43q2 12 6 23t8 15l3 5h274l45 287q20 8 49 8q12 0 22.5 -2t15.5 -4l5 -2l-45 -287h275q1 -2 1.5 -5t1.5 -14.5t-1 -23.5q-3 -12 -7 -22.5t-7 -15.5l-2 -5h-277l-45 -286q-16 -9 -45 -9q-12 0 -23 2t-16 4l-6 3l43 286h-275z" />
<glyph unicode="," horiz-adv-x="415" d="M20 -199q5 5 12.5 15t29 45.5t40 77t39.5 110t33 144.5q31 10 64 10q15 0 30 -2.5t23 -4.5l8 -3q-13 -79 -37.5 -148.5t-51 -112.5t-51 -74t-39.5 -44l-16 -13q-25 -8 -45 -8q-10 0 -20 2t-15 4z" />
<glyph unicode="-" horiz-adv-x="612" d="M186 543q-6 18 0 43q2 12 6 23t8 15l3 5h405q9 -1 -5 -64q-6 -24 -9 -22h-408z" />
<glyph unicode="." horiz-adv-x="419" d="M145 4l31 189q31 10 66 10q15 0 30.5 -2.5t23.5 -4.5l9 -3l-31 -189q-34 -8 -67 -8q-15 0 -30.5 2t-23.5 4z" />
<glyph unicode="/" horiz-adv-x="800" d="M92 4l719 1426q31 8 66 8q15 0 30 -2t23 -4l8 -2l-719 -1426q-34 -8 -65 -8q-16 0 -31.5 2t-22.5 4z" />
<glyph unicode="0" horiz-adv-x="1150" d="M184 303l131 827q49 312 488 312q228 0 319.5 -79.5t67.5 -232.5l-129 -827q-26 -153 -144 -232t-346 -79t-319.5 79t-67.5 232zM315 303q-19 -116 43 -170.5t228 -54.5q168 0 247 54.5t97 170.5l131 827q18 116 -44.5 171t-228.5 55q-167 0 -246 -55t-98 -171z" />
<glyph unicode="1" horiz-adv-x="798" d="M145 8q-4 13 0 27q0 7 2.5 13.5t5.5 9.5l3 3l213 21l194 1249l-254 -71q-8 3 6 55q5 15 7 14l292 109q24 0 47.5 -2t35.5 -4l12 -2l-211 -1348l204 -21q1 -1 1.5 -3t1.5 -9t0 -14l-11 -27q-90 -12 -276 -12q-83 0 -151 3t-95 6z" />
<glyph unicode="2" horiz-adv-x="1105" d="M131 12l29 183q17 107 69 187.5t122 129t151.5 86.5t162.5 73t150.5 76t119 108t64.5 157l15 104q21 124 -37.5 182t-220.5 58q-55 0 -108 -10.5t-89 -25t-64 -29.5t-41 -25l-14 -11l-51 -190q-18 -6 -41 -6q-10 0 -19.5 1.5t-13.5 3.5l-4 1q5 101 25 242q6 5 17 14.5 t50.5 32.5t85.5 41t122 32.5t159 14.5q226 0 312.5 -81.5t60.5 -244.5l-17 -104q-13 -83 -48 -149t-83 -110t-106.5 -79.5t-122 -62.5t-126.5 -54t-121 -59t-105.5 -71.5t-81 -98.5t-45.5 -133l-17 -109h633l45 162q13 6 29 6q8 0 15.5 -1.5t10.5 -2.5l3 -2q2 11 2 -1 q-1 -70 -20 -181q-9 -50 -17 -66h-451q-105 0 -202 3t-142 6z" />
<glyph unicode="3" horiz-adv-x="1089" d="M131 125q2 12 6 22.5t7 15.5l3 5q5 -4 15.5 -10t47.5 -21.5t78.5 -27.5t109 -21.5t139.5 -9.5q180 0 264.5 61.5t105.5 194.5l23 137q21 134 -51.5 195t-260.5 61h-112q-4 16 0 43q2 12 6 23.5t7 16.5l3 5l488 531h-580l-47 -160q-13 -6 -29 -6q-8 0 -14.5 1.5t-9.5 2.5 l-2 2q-2 -10 -1 -1q1 68 18 180q9 54 17 69h807q1 -2 1.5 -5t1.5 -14.5t-1 -23.5q-2 -11 -6 -22t-7 -16l-3 -5l-502 -537q113 0 194 -17.5t125 -48t68.5 -73.5t25 -93.5t-6.5 -107.5l-23 -137q-27 -168 -150 -255t-364 -87q-76 0 -143.5 9t-110.5 22t-75 26t-46 22l-14 9 q-1 2 -1.5 5.5t-1.5 15.5t1 24z" />
<glyph unicode="4" horiz-adv-x="1085" d="M174 352q-4 16 0 43l549 1035q26 6 63 6q18 0 35 -1.5t25 -2.5l8 -2l-526 -990h485l92 580q31 8 64 8q14 0 28.5 -2t22.5 -4l8 -2l-92 -578l145 -16q4 -15 0 -35q-1 -8 -4 -16.5t-5 -12.5l-3 -4q-43 -8 -143 -8l-56 -346q-32 -8 -65 -8q-15 0 -30.5 2t-23.5 4l-8 2 l56 348h-625z" />
<glyph unicode="5" horiz-adv-x="1087" d="M117 125q2 12 6 22.5t7 15.5l3 5q5 -4 15.5 -10t47 -21.5t78 -27.5t108 -21.5t138.5 -9.5q173 0 254.5 61.5t102.5 194.5l24 158q19 131 -42 192t-230 61h-344q-6 19 0 46l133 630q153 13 391 13h285q4 -25 0 -60q-10 -60 -20.5 -107t-15.5 -64l-5 -17q-15 -6 -31 -6 q-7 0 -13.5 1.5t-8.5 2.5l-3 2l2 162h-483l-102 -512h229q130 0 215.5 -26t124 -71.5t51 -108.5t-3.5 -138l-24 -158q-27 -167 -147 -254.5t-351 -87.5q-76 0 -144 9t-111 22t-75 26t-46 22l-13 9q-1 2 -1.5 5.5t-1.5 15.5t1 24z" />
<glyph unicode="6" horiz-adv-x="1142" d="M193 303l122 778q27 175 147 267t357 92q98 0 182.5 -13t120.5 -25l35 -13q4 -16 0 -41q-2 -13 -6 -24t-7 -16l-3 -5q-14 6 -40.5 15t-115.5 23.5t-186 14.5q-172 0 -253 -67.5t-102 -205.5l-47 -292q6 4 18 11t53 24.5t86 31t116 24.5t145 11q176 0 241.5 -78t39.5 -233 l-43 -279q-26 -153 -141.5 -232t-340.5 -79q-224 0 -314 79t-64 232zM322 303q-18 -116 42 -170.5t222 -54.5q163 0 241 54.5t97 170.5l43 279q18 118 -26.5 172.5t-174.5 54.5q-74 0 -141 -11.5t-109.5 -28t-74 -33.5t-45.5 -28l-13 -12z" />
<glyph unicode="7" horiz-adv-x="1042" d="M289 4l723 1342h-615l-45 -160q-14 -6 -30 -6q-7 0 -14 1.5t-10 2.5l-3 2q12 216 37 248h831q1 -2 1.5 -5t1.5 -14.5t-1 -23.5l-741 -1387q-27 -8 -68 -8q-18 0 -35 2t-25 4z" />
<glyph unicode="8" horiz-adv-x="1148" d="M182 303l25 162q31 215 260 274q-177 58 -145 267l20 124q24 153 135 232.5t326 79.5q213 0 297.5 -79.5t60.5 -232.5l-18 -124q-32 -209 -228 -267q203 -58 172 -274l-24 -162q-26 -153 -143.5 -232t-348.5 -79q-230 0 -322.5 79t-66.5 232zM311 303 q-18 -116 44.5 -170.5t230.5 -54.5q169 0 249 54.5t99 170.5l24 162q18 117 -44.5 172t-231.5 55q-168 0 -247.5 -55t-98.5 -172zM453 1006q-19 -118 36 -173t209 -55q151 0 224 55.5t92 172.5l18 124q19 116 -37 171t-207 55q-153 0 -226 -55t-91 -171z" />
<glyph unicode="9" horiz-adv-x="1142" d="M205 43q-9 0 5 63q6 25 9 23q15 -6 43 -14.5t119.5 -22.5t187.5 -14q171 0 251.5 66t101.5 204l51 322q-6 -4 -18 -11t-53 -25t-85.5 -31.5t-115.5 -24.5t-144 -11q-177 0 -242 78.5t-41 233.5l41 249q24 154 139 233t341 79q225 0 315 -79t66 -233l-123 -778 q-29 -175 -148.5 -266.5t-355.5 -91.5q-98 0 -184 12.5t-123 25.5zM406 879q-19 -118 25 -173t175 -55q74 0 140.5 11.5t108.5 28t73.5 33.5t45.5 28l13 12l57 364q19 117 -41 172.5t-223 55.5q-162 0 -239.5 -55.5t-96.5 -172.5z" />
<glyph unicode=":" horiz-adv-x="419" d="M145 4l31 189q31 10 66 10q15 0 30.5 -2.5t23.5 -4.5l9 -3l-31 -189q-34 -8 -67 -8q-15 0 -30.5 2t-23.5 4zM274 831l31 189q33 8 66 8q16 0 31.5 -2t23.5 -4l8 -2l-31 -189q-32 -10 -65 -10q-16 0 -32 2.5t-24 4.5z" />
<glyph unicode=";" horiz-adv-x="415" d="M20 -199q5 5 12.5 15t29 45.5t40 77t39.5 110t33 144.5q31 10 64 10q15 0 30 -2.5t23 -4.5l8 -3q-13 -79 -37.5 -148.5t-51 -112.5t-51 -74t-39.5 -44l-16 -13q-25 -8 -45 -8q-10 0 -20 2t-15 4zM270 831l31 189q33 8 68 8q15 0 30.5 -2t24.5 -4l8 -2l-31 -189 q-34 -10 -65 -10q-16 0 -32.5 2.5t-25.5 4.5z" />
<glyph unicode="&#x3c;" horiz-adv-x="933" d="M195 647l780 393q9 -8 -6 -76q-7 -29 -11 -28l-575 -289l485 -287q4 -26 0 -51q-2 -12 -6.5 -24.5t-7.5 -19.5l-4 -7z" />
<glyph unicode="=" horiz-adv-x="886" d="M164 412q-9 0 5 63q6 25 9 23h684q4 -16 0 -43q-2 -12 -6 -23t-7 -16l-3 -4h-682zM227 799q-6 18 0 43q2 12 6 23t7 15l4 5h682q7 0 -7 -65q-6 -22 -8 -21h-684z" />
<glyph unicode="&#x3e;" horiz-adv-x="933" d="M160 258q-9 10 7 75q7 28 11 27l570 289l-480 287q-4 26 0 51q1 12 5 25.5t8 20.5l4 7l653 -391z" />
<glyph unicode="?" horiz-adv-x="1036" d="M301 1065q2 101 25 242q5 5 15.5 14.5t47 32.5t79.5 41t113.5 32.5t147.5 14.5q217 0 298.5 -81.5t55.5 -244.5l-14 -104q-10 -62 -37 -109t-61.5 -76t-75 -52.5t-80.5 -45t-74 -46.5t-59 -64t-33 -91l-18 -104q-33 -8 -66 -8q-15 0 -30.5 2t-24.5 4l-8 2l18 104 q10 63 36.5 111.5t61.5 78t75.5 53t80.5 45t74 45.5t59 62.5t33 88.5l16 104q19 124 -34.5 182t-206.5 58q-49 0 -96.5 -10t-80 -24t-58 -28t-38.5 -24l-12 -10l-53 -195q-16 -6 -39 -6q-10 0 -19.5 1.5t-13.5 3.5zM434 4l31 189q32 10 67 10q16 0 33 -2.5t26 -4.5l9 -3 l-31 -189q-36 -8 -69 -8q-16 0 -32.5 2t-25.5 4z" />
<glyph unicode="@" horiz-adv-x="1413" d="M131 -23l107 685q15 90 57.5 156.5t119.5 115.5t196 73.5t280 24.5q255 0 353 -87t69 -259l-94 -604l141 -21l2 -26l-12 -27q-62 -12 -191 -12q-20 0 -40.5 2t-30.5 4l-11 2l15 109q-6 -5 -16.5 -13t-47.5 -29t-78 -37t-105.5 -29t-131.5 -13q-143 0 -196 67t-30 199 l5 43q20 123 112.5 187.5t284.5 86.5l285 33l10 78q21 135 -47.5 197.5t-259.5 62.5q-175 0 -283 -31.5t-159.5 -92t-67.5 -160.5l-107 -685q-28 -173 54.5 -241t324.5 -68q139 0 266 22.5t185 45.5l57 22q1 -2 2 -5t2 -14.5t-2 -23.5q-2 -12 -6 -23t-7 -16l-3 -6 q-7 -4 -21 -9.5t-63 -21t-103 -27t-141 -21t-178 -9.5q-301 0 -415 95.5t-81 299.5zM616 258q-16 -93 18.5 -136.5t135.5 -43.5q65 0 123.5 13.5t96 32t65.5 37.5t41 33l12 13l51 317l-262 -30q-136 -17 -199 -63t-75 -130z" />
<glyph unicode="A" d="M41 8q-10 1 3 47q5 13 7 13l154 16l604 1266l-154 16q-4 11 0 31q1 7 3.5 14t5.5 11l2 3q90 13 274 13q22 0 44 -2t33 -4l11 -2l215 -1346l154 -16q8 0 -5 -47q-4 -14 -6 -13q-73 -12 -198 -12q-36 0 -69.5 0.5t-58 1.5t-45.5 2.5t-35 3t-23.5 2.5t-14.5 1l-4 1 q0 1 -0.5 3.5t-1.5 10.5t0 15q2 9 5 16.5t5 11.5l2 3l164 16l-55 346h-555l-164 -346l160 -16q10 0 -2 -43q-6 -19 -9 -17q-75 -12 -251 -12q-56 0 -105 3t-69 6zM543 522h506l-127 803z" />
<glyph unicode="B" horiz-adv-x="1253" d="M63 37q1 8 4 15.5t6 10.5l3 3l162 16l198 1270l-155 16q-9 -1 2 41q5 16 8 16q220 15 594 15q227 0 316.5 -84.5t62.5 -247.5l-13 -82q-39 -231 -262 -289q234 -58 195 -297l-15 -106q-29 -168 -151 -254t-363 -86q-167 0 -314 3.5t-211 6.5l-64 4q-1 1 -1.5 3.5t-1.5 10 t0 15.5zM375 82h295q176 0 259.5 60.5t104.5 191.5l17 106q19 129 -45.5 190.5t-239.5 61.5h-297zM483 780h297q160 0 237.5 59.5t98.5 186.5l12 82q19 125 -39.5 184.5t-218.5 59.5h-297z" />
<glyph unicode="C" horiz-adv-x="1173" d="M186 317l127 799q24 161 147 243.5t369 82.5q89 0 165 -14t120.5 -34t76.5 -39.5t44 -33.5l12 -14q-10 -63 -23 -123.5t-20 -89.5l-8 -29q-18 -6 -41 -6q-10 0 -19.5 1.5t-13.5 3.5l-4 1l8 190q-4 4 -12 10.5t-36.5 23t-61.5 29.5t-88 23.5t-115 10.5 q-180 0 -262.5 -56.5t-101.5 -179.5l-127 -799q-19 -123 48.5 -179t256.5 -56q118 0 225.5 23.5t156 44t48.5 24.5q1 -2 2 -5.5t3 -16t-1 -25.5t-7.5 -24.5t-7.5 -16.5l-4 -6q-6 -4 -18 -9.5t-53 -21t-87.5 -27t-120.5 -21t-153 -9.5q-252 0 -351 82t-73 243z" />
<glyph unicode="D" horiz-adv-x="1261" d="M63 37q1 8 4 15.5t6 10.5l3 3l162 16l198 1270l-155 16q-9 -1 2 41q5 16 8 16q168 15 583 15q250 0 350 -82t74 -242l-124 -799q-27 -160 -153 -241.5t-376 -81.5q-169 0 -314 3.5t-205 6.5l-60 4q-1 1 -1.5 3.5t-1.5 10t0 15.5zM375 82h284q185 0 272.5 56.5 t106.5 178.5l125 799q19 122 -50.5 179t-254.5 57h-285z" />
<glyph unicode="E" horiz-adv-x="1110" d="M63 37q1 6 3 11t3.5 8.5t3 6t2.5 4.5l1 1l162 16l198 1266l-155 16q-9 -2 2 41q5 20 8 18q220 9 551 9h399q3 -87 -42 -271l-6 -19q1 1 1 3q-13 -6 -31 -6q-7 0 -13.5 1.5t-9.5 3.5l-3 1l4 196h-570l-86 -561h531l2 -45q-3 -12 -7 -23t-7 -16l-3 -6h-532l-92 -602h577 l56 197q14 6 30 6q7 0 14 -1.5t10 -3.5l3 -1q-13 -231 -41 -287h-410q-148 0 -285.5 2t-200.5 4l-64 2q-1 1 -1.5 3.5t-1.5 10.5t0 15z" />
<glyph unicode="F" horiz-adv-x="1083" d="M63 37q1 6 3 11t3.5 8.5t3 6t2.5 4.5l1 1l162 16l198 1266l-155 16q-9 -2 2 41q5 20 8 18q220 9 551 9h381q6 -27 0 -64q-8 -45 -15.5 -85t-13 -64t-10 -41.5t-6.5 -25.5l-2 -7q-13 -6 -31 -6q-7 0 -14 1.5t-10 3.5l-3 1l2 196h-549l-86 -561h525q0 -1 0.5 -2t1 -6 t1 -9.5t0.5 -12t-1 -15.5q-2 -12 -6 -23.5t-8 -16.5l-3 -5h-526l-94 -608l157 -16q8 1 -5 -48q-4 -13 -5 -12q-75 -12 -231 -12q-68 0 -124.5 3t-78.5 6l-22 3q-1 1 -1.5 3.5t-1.5 10.5t0 15z" />
<glyph unicode="G" horiz-adv-x="1202" d="M186 317l127 799q24 161 147.5 243.5t370.5 82.5q89 0 165.5 -14t121 -34t76.5 -39.5t44 -33.5l13 -14q-9 -63 -21 -123.5t-20 -89.5l-8 -29q-18 -6 -41 -6q-10 0 -19.5 1.5t-13.5 3.5l-4 1l9 190q-4 4 -12.5 10.5t-37.5 23t-62.5 29.5t-88.5 23.5t-115 10.5 q-183 0 -266 -56.5t-102 -179.5l-127 -799q-19 -121 48 -178t246 -57q90 0 175 15t125 31l40 15l78 508h-303q-6 16 0 45q2 12 6 23t7 17l4 5h90q92 0 176.5 -3.5t123.5 -7.5l38 -3l-103 -647q-8 -3 -23 -9t-63.5 -21t-100.5 -26t-129.5 -20.5t-154.5 -9.5 q-245 0 -343.5 81.5t-72.5 241.5z" />
<glyph unicode="H" horiz-adv-x="1388" d="M63 37q1 6 3 11t3.5 8.5t3 6t2.5 4.5l1 1l162 16l198 1266l-155 16q-9 -2 2 41q5 20 8 18q75 13 229 13q69 0 125.5 -3t77.5 -7l22 -3q11 -1 -2 -44q-5 -15 -8 -15l-162 -16l-90 -570h666l90 570l-158 16q-4 11 0 31q1 4 2 9t2.5 8t3 5.5t2.5 4.5l1 1q75 13 229 13 q69 0 126 -3t79 -7l22 -3q4 -12 0 -28q-1 -9 -3.5 -16.5t-4.5 -11.5l-2 -3l-164 -16l-198 -1266l157 -16q0 -1 0.5 -3.5t1.5 -10.5t0 -17q-2 -7 -5 -14.5t-5 -10.5l-2 -4q-75 -12 -231 -12q-68 0 -124 3t-78 6l-22 3q-9 1 3 46q4 14 6 14l163 16l95 606h-666l-94 -606 l157 -16q8 1 -5 -48q-4 -13 -5 -12q-75 -12 -231 -12q-68 0 -124.5 3t-78.5 6l-22 3q-1 1 -1.5 3.5t-1.5 10.5t0 15z" />
<glyph unicode="I" horiz-adv-x="585" d="M63 37q1 6 3 11t3.5 8.5t3 6t2.5 4.5l1 1l162 16l198 1266l-155 16q-9 -2 2 41q5 20 8 18q75 13 229 13q69 0 125.5 -3t77.5 -7l22 -3q11 -1 -2 -44q-5 -15 -8 -15l-162 -16l-198 -1266l157 -16q8 1 -5 -48q-4 -13 -5 -12q-75 -12 -231 -12q-68 0 -124.5 3t-78.5 6l-22 3 q-1 1 -1.5 3.5t-1.5 10.5t0 15z" />
<glyph unicode="J" horiz-adv-x="948" d="M61 80q-6 18 0 47q2 13 6 24.5t7 16.5l4 6q0 -4 28.5 -24.5t98 -44t153.5 -23.5q133 0 196.5 56.5t84.5 178.5l162 1033l-160 16q-4 11 0 31q1 7 3.5 14t4.5 11l2 3q76 13 232 13q68 0 124.5 -3t78.5 -7l22 -3q4 -12 0 -28q-1 -9 -3.5 -16.5t-4.5 -10.5l-2 -4l-164 -16 l-162 -1033q-26 -161 -127.5 -243t-300.5 -82q-56 0 -106 9t-81 22t-54 26t-33 22z" />
<glyph unicode="K" horiz-adv-x="1265" d="M63 37q1 6 3 11t3.5 8.5t3 6t2.5 4.5l1 1l162 16l198 1266l-155 16q-9 -2 2 41q5 20 8 18q75 13 229 13q69 0 125.5 -3t77.5 -7l22 -3q11 -1 -2 -44q-5 -15 -8 -15l-162 -16l-94 -609l183 52l446 561l-129 12q-4 11 0 31q1 7 3.5 14t4.5 11l2 3q76 13 254 13q49 0 94 -3 t66 -7l20 -3q10 -1 -3 -46q-5 -13 -7 -13l-164 -16l-477 -605l299 -661l158 -16q10 1 -2 -44q-5 -17 -8 -16q-76 -12 -187 -12q-81 0 -144.5 3t-86.5 6l-23 3q-4 13 0 29q1 9 3.5 16.5t4.5 11.5l2 3l140 12l-281 616l-184 -49l-88 -563l157 -16q8 1 -5 -48q-4 -13 -5 -12 q-75 -12 -231 -12q-68 0 -124.5 3t-78.5 6l-22 3q-1 1 -1.5 3.5t-1.5 10.5t0 15z" />
<glyph unicode="L" horiz-adv-x="1064" d="M63 37q1 6 3 11t3.5 8.5t3 6t2.5 4.5l1 1l162 16l198 1266l-155 16q-9 -2 2 41q5 20 8 18q75 13 229 13q69 0 125.5 -3t78.5 -7l21 -3q11 -1 -2 -44q-5 -15 -8 -15l-162 -16l-196 -1260h532l58 197q12 6 28 6q8 0 14.5 -1.5t9.5 -3.5l3 -1q2 -62 -23 -224l-18 -63h-365 q-148 0 -285.5 2t-200.5 4l-64 2q-1 1 -1.5 3.5t-1.5 10.5t0 15z" />
<glyph unicode="M" horiz-adv-x="1691" d="M63 37q1 6 3 11t3.5 8.5t3 6t2.5 4.5l1 1l162 16l198 1266l-155 16q-9 -2 2 41q5 20 8 18q75 13 237 13q24 0 48 -2t36 -4l11 -2l282 -1035l615 1035q41 8 86 8q74 0 135 -3t85 -7l25 -3q4 -12 0 -28q-1 -9 -3.5 -16.5t-4.5 -10.5l-2 -4l-164 -16l-198 -1266l157 -16 l2 -31l-12 -29q-75 -12 -227 -12q-68 0 -123.5 3t-77.5 6l-22 3l-2 29q2 9 5 16.5t5 10.5l2 4l162 16l180 1147l-586 -983q-26 -10 -63 -10q-15 0 -30.5 2.5t-23.5 5.5l-8 2l-270 983l-178 -1147l157 -16l2 -31l-12 -29q-75 -12 -229 -12q-67 0 -122 3t-77 6l-22 3 q-1 1 -1.5 3.5t-1.5 10.5t0 15z" />
<glyph unicode="N" horiz-adv-x="1402" d="M63 37q1 6 3 11t3.5 8.5t3 6t2.5 4.5l1 1l162 16l198 1266l-155 16q-9 -2 2 41q5 20 8 18q71 13 221 13q14 0 28 -2t22 -4l7 -2l518 -1197l173 1117l-158 16q-4 11 0 31q1 7 3.5 14t4.5 11l2 3q75 13 229 13q67 0 122.5 -3t77.5 -7l22 -3l2 -28q-2 -9 -5 -16.5t-6 -10.5 l-2 -4l-161 -16l-213 -1346q-31 -8 -62 -8q-13 0 -27 2t-22 4l-8 2l-518 1196l-172 -1116l157 -16l2 -31l-12 -29q-75 -12 -229 -12q-67 0 -122 3t-77 6l-22 3q-1 1 -1.5 3.5t-1.5 10.5t0 15z" />
<glyph unicode="O" horiz-adv-x="1228" d="M186 317l127 799q24 160 151.5 243t377.5 83q249 0 349.5 -82.5t74.5 -243.5l-125 -799q-26 -160 -152.5 -242.5t-376.5 -82.5t-351 82.5t-75 242.5zM322 317q-19 -121 50.5 -178t254.5 -57t272.5 56.5t106.5 178.5l124 799q21 122 -48.5 179t-254.5 57t-272 -57 t-106 -179z" />
<glyph unicode="P" horiz-adv-x="1175" d="M63 37q1 6 3 11t3.5 8.5t3 6t2.5 4.5l1 1l162 16l198 1268l-155 16q-9 -1 2 41q5 16 8 16q222 15 547 15q235 0 329 -82t68 -242l-25 -149q-17 -106 -72.5 -176.5t-162 -109t-264.5 -38.5q-73 0 -135 1.5t-87 3.5l-26 1l-88 -565l157 -16q8 1 -5 -48q-4 -13 -5 -12 q-75 -12 -231 -12q-68 0 -124.5 3t-78.5 6l-22 3q-1 1 -1.5 3.5t-1.5 10.5t0 15zM477 731h248q169 0 250 57t100 179l25 149q19 121 -45 178.5t-232 57.5h-250z" />
<glyph unicode="Q" horiz-adv-x="1228" d="M186 317l127 799q24 160 151.5 243t377.5 83q249 0 349.5 -82.5t74.5 -243.5l-125 -799q-42 -259 -344 -311l147 -360q-33 -8 -70 -8q-15 0 -31.5 2t-26.5 4l-9 2l-129 348q-10 0 -32 -1t-34 -1q-250 0 -351 82.5t-75 242.5zM322 317q-19 -121 50.5 -178t254.5 -57 t272.5 56.5t106.5 178.5l124 799q21 122 -48.5 179t-254.5 57t-272 -57t-106 -179z" />
<glyph unicode="R" horiz-adv-x="1275" d="M63 37q1 6 3 11t3.5 8.5t3 6t2.5 4.5l1 1l162 16l198 1266l-155 16q-9 -2 2 41q5 20 8 18q222 15 551 15q235 0 329 -82t68 -242l-25 -147q-21 -130 -101.5 -208t-231.5 -104l200 -573l158 -16l2 -31l-12 -29q-76 -12 -191 -12q-77 0 -138 3t-83 6l-22 3q-10 1 3 47 q5 13 7 13l135 12l-188 565h-35q-73 0 -136.5 2t-90.5 4l-27 2l-88 -569l157 -16q8 1 -5 -48q-4 -13 -5 -12q-75 -12 -231 -12q-68 0 -124.5 3t-78.5 6l-22 3q-1 1 -1.5 3.5t-1.5 10.5t0 15zM477 733h254q113 0 186.5 26.5t111.5 77.5t50 132l25 147q19 122 -44.5 179 t-232.5 57h-254z" />
<glyph unicode="S" horiz-adv-x="1163" d="M156 119q10 63 23 123t21 89l7 29q16 7 39 7q10 0 19.5 -1.5t13.5 -3.5l4 -2l-7 -190q4 -4 12 -9.5t36.5 -21t62 -27t88.5 -21t115 -9.5q171 0 251 56t99 179l16 105q8 54 -11 95.5t-57.5 68.5t-90.5 48t-110 38t-116 35t-109 43.5t-88.5 59t-54.5 85t-6 117.5l15 104 q17 107 70.5 178t157.5 109.5t261 38.5q83 0 152.5 -13t110.5 -32t69.5 -37.5t39.5 -31.5l11 -13q-9 -63 -21.5 -123.5t-20.5 -89.5l-9 -29q-16 -6 -39 -6q-10 0 -20 1.5t-14 3.5l-5 1l10 191q-3 4 -10 9.5t-32.5 21t-55 27t-78.5 21t-104 9.5q-164 0 -241.5 -57t-96.5 -179 l-17 -104q-8 -51 11 -90t58 -64t91.5 -45t111 -37t117 -35.5t110 -45.5t88.5 -61.5t53.5 -88.5t5.5 -123l-15 -105q-27 -163 -144.5 -244t-354.5 -81q-89 0 -165.5 13t-121.5 32t-77.5 37.5t-45.5 31.5z" />
<glyph unicode="T" horiz-adv-x="1193" d="M266 1147q14 231 41 287h1026q3 -87 -42 -271l-6 -19q1 1 1 3q-15 -6 -31 -6q-8 0 -14.5 1.5t-8.5 3.5l-3 1l4 196h-356l-197 -1259l158 -16q8 0 -5 -47q-4 -14 -6 -13q-75 -12 -231 -12q-43 0 -82 1t-64 3t-44 4t-27 3l-8 1q-10 1 3 47q5 13 7 13l164 16l196 1259h-362 l-55 -196q-15 -6 -31 -6q-7 0 -14 1.5t-10 3.5z" />
<glyph unicode="U" horiz-adv-x="1388" d="M274 317l162 1033l-155 16q-9 -2 2 41q5 20 8 18q75 13 229 13q67 0 121 -3t75 -7l21 -3q10 -1 -3 -46q-5 -13 -7 -13l-154 -16l-161 -1033q-19 -122 48 -178.5t247 -56.5t265.5 56.5t106.5 178.5l162 1033l-151 16q-4 11 0 31q1 7 3.5 14t4.5 11l2 3q71 13 223 13 q68 0 124.5 -3t78.5 -7l22 -3q4 -12 0 -28q-1 -9 -3.5 -16.5t-4.5 -10.5l-2 -4l-164 -16l-162 -1033q-26 -160 -151 -242.5t-369 -82.5q-245 0 -344.5 82.5t-73.5 242.5z" />
<glyph unicode="V" horiz-adv-x="1435" d="M254 1366q-4 11 0 31q1 7 3.5 14t4.5 11l2 3q76 13 205 13q78 0 140 -3t85 -7l23 -3l2 -28q-2 -9 -5 -16.5t-5 -10.5l-2 -4l-164 -16l192 -1239l582 1239l-158 16q-4 11 0 31q1 7 3.5 14t4.5 11l2 3q76 13 252 13q57 0 107.5 -3t71.5 -7l22 -3q4 -12 0 -28 q-1 -9 -3.5 -16.5t-4.5 -10.5l-2 -4l-164 -16l-637 -1346q-45 -8 -94 -8q-21 0 -43.5 2t-34.5 4l-12 2l-215 1346z" />
<glyph unicode="W" horiz-adv-x="2109" d="M254 1366q-4 11 0 31q1 7 3.5 14t4.5 11l2 3q76 13 211 13q76 0 137 -3t84 -7l23 -3l2 -28q-2 -9 -5 -16.5t-5 -10.5l-2 -4l-164 -16l125 -1229l528 1309q35 8 84 8q21 0 41.5 -2t30.5 -4l10 -2l119 -1309l504 1229l-156 16q-4 11 0 31q1 7 3.5 14t4.5 11l2 3 q76 13 248 13q60 0 111.5 -3t72.5 -7l21 -3l2 -28q-2 -9 -5 -16.5t-5 -10.5l-2 -4l-164 -16l-564 -1346q-45 -8 -94 -8q-21 0 -43.5 2t-34.5 4l-12 2l-115 1299l-520 -1299q-43 -8 -92 -8q-23 0 -45.5 2t-33.5 4l-11 2l-143 1346z" />
<glyph unicode="X" horiz-adv-x="1355" d="M47 8q-8 2 6 51l4 10v-1l162 16l481 641l-270 625l-156 16q-9 -2 2 42q5 18 7 17q75 13 192 13q83 0 147.5 -3.5t87.5 -6.5l23 -3q2 -12 0 -28q-2 -9 -4.5 -16.5t-3.5 -11.5l-2 -3l-150 -14l232 -549l399 549l-141 14q-9 -2 2 41q5 20 8 18q76 13 262 13q51 0 97.5 -3 t67.5 -7l20 -3l2 -28q-2 -9 -5 -16.5t-5 -10.5l-3 -4l-161 -16l-465 -625l276 -641l160 -16q8 1 -5 -48q-4 -13 -5 -12q-76 -12 -195 -12q-84 0 -148.5 3t-86.5 6l-23 3q-10 1 3 47q5 13 7 13l152 14l-240 563l-416 -563l146 -14q10 1 -2 -44q-5 -17 -8 -16 q-77 -12 -265 -12q-51 0 -97.5 3t-67.5 6z" />
<glyph unicode="Y" horiz-adv-x="1323" d="M254 1366q0 1 -0.5 3.5t-1 10.5t1.5 17q1 7 3.5 14t4.5 11l2 3q76 13 195 13q38 0 72.5 -0.5t59.5 -2t46.5 -3t35.5 -2.5t23.5 -2.5t14.5 -1.5l4 -1q10 -1 -3 -46q-5 -13 -7 -13l-152 -14l223 -623l418 623l-145 14q-9 -2 2 41q5 20 8 18q76 13 260 13q53 0 100.5 -3 t68.5 -7l21 -3q8 -2 -6 -50l-4 -10v1l-166 -16l-508 -729l-82 -537l156 -16q10 1 -2 -44q-5 -17 -8 -16q-76 -12 -230 -12q-69 0 -125.5 3t-77.5 6l-22 3q-10 1 3 47q5 13 7 13l164 16l82 534l-278 732z" />
<glyph unicode="Z" horiz-adv-x="1103" d="M106 0q-1 2 -1.5 5.5t-1 15.5t2.5 24q1 8 3 15t4.5 12.5t4.5 9.5t4 6l1 2l934 1249h-651l-58 -194q-13 -6 -29 -6q-8 0 -14.5 1.5t-9.5 3.5l-2 1q1 26 4 66.5t13.5 119.5t23.5 103h887q1 -2 1.5 -5.5t1.5 -15.5t-1 -24t-6 -23.5t-8 -17.5l-3 -5l-934 -1249h654l57 195 q15 6 31 6q7 0 13.5 -1.5t9.5 -3.5l3 -1l1 6q3 -24 -15 -157q-14 -110 -29 -138h-891z" />
<glyph unicode="[" horiz-adv-x="641" d="M98 -309l291 1847q106 0 203.5 -2t142.5 -4l45 -2l2 -39q-2 -10 -5.5 -20.5t-6.5 -15.5l-2 -5q-108 -8 -272 -8l-260 -1655q73 0 140 -1.5t98 -3.5l30 -1q4 -18 0 -41q-1 -10 -4 -20t-6 -14l-2 -5q-156 -10 -394 -10z" />
<glyph unicode="\" horiz-adv-x="800" d="M317 1430q31 8 66 8q15 0 30 -2t23 -4l8 -2l269 -1426q-33 -8 -66 -8q-14 0 -29 2t-24 4l-8 2z" />
<glyph unicode="]" horiz-adv-x="641" d="M51 -260q2 10 5.5 20.5t6.5 15.5l3 5q108 6 272 6l260 1655q-73 0 -140 2t-98 4l-30 2q-4 18 0 41q1 10 4 20t6 15l2 4q155 8 393 8l-291 -1847q-106 0 -203.5 2.5t-142.5 4.5l-45 3z" />
<glyph unicode="^" horiz-adv-x="901" d="M260 1075l416 365l299 -363q-11 -19 -31 -37q-10 -8 -21 -14t-17 -8l-5 -2l-248 305l-338 -305q-18 6 -34 24q-7 7 -12.5 16t-6.5 14z" />
<glyph unicode="_" horiz-adv-x="1011" d="M-23 -188l17 86h993l-16 -86h-994z" />
<glyph unicode="`" horiz-adv-x="417" d="M262 1430q33 8 68 8q16 0 31 -2t23 -4l7 -2l174 -252q-22 -9 -49 -9q-10 0 -21 2.5t-17 4.5l-5 2z" />
<glyph unicode="a" horiz-adv-x="1099" d="M184 303l66 418q26 154 115.5 232.5t263.5 78.5q73 0 129 -11.5t84 -28.5t45.5 -34t21.5 -28l4 -12l15 102q32 8 67 8q15 0 30.5 -2t23.5 -4l8 -2l-129 -821q-10 -72 4 -96.5t65 -24.5q13 0 25.5 2t20 4t8.5 2l2 -37q-2 -9 -6 -18.5t-7 -14.5l-4 -6q-54 -18 -106 -18 q-75 0 -104.5 31.5t-24.5 95.5q-6 -5 -17 -13.5t-48.5 -30.5t-78.5 -39t-105 -30.5t-130 -13.5q-152 0 -207 78.5t-31 232.5zM315 303q-19 -116 16 -170.5t142 -54.5q62 0 119 13t93.5 31t64 36.5t39.5 31.5l12 13l80 518q19 116 -36 170.5t-206 54.5q-122 0 -181 -54.5 t-77 -170.5z" />
<glyph unicode="b" horiz-adv-x="1085" d="M180 4l213 1348l-141 20q-4 11 0 27q1 6 3.5 12.5t4.5 10.5l2 3q70 13 193 13q21 0 41.5 -2t30.5 -4l10 -2l-80 -508q3 6 12.5 17t35 27.5t59 31t89 24.5t121.5 10q177 0 244 -79t43 -232l-66 -418q-26 -154 -106 -232.5t-232 -78.5q-65 0 -122.5 12.5t-94 30.5t-64 35.5 t-38.5 29.5l-12 13l-15 -109q-32 -8 -67 -8q-16 0 -32 2t-24 4zM342 207q3 -5 8.5 -14t29 -31t53 -39t83 -31t115.5 -14q110 0 162.5 54t72.5 171l66 418q18 117 -25 171t-168 54q-151 0 -224 -54.5t-91 -170.5z" />
<glyph unicode="c" horiz-adv-x="997" d="M184 303l66 418q13 76 42.5 132t81 97t129.5 61.5t183 20.5q65 0 123.5 -9t95.5 -21.5t64 -25t39 -21.5l12 -9q-10 -61 -23 -119t-20 -86l-8 -28q-17 -6 -37 -6q-10 0 -19 1.5t-12 3.5l-4 1l8 180q-97 53 -233 53q-73 0 -124.5 -14t-85.5 -43t-53 -69.5t-28 -98.5 l-66 -418q-10 -56 -3 -98.5t33 -70.5t76.5 -42t127.5 -14q33 0 65.5 2.5t61 7t55 10t49 12t42 13t35 12.5t26 10.5l17.5 7.5l7 3q-1 0 0.5 -5.5t2.5 -15t-1 -22.5q-2 -12 -6.5 -22.5t-8.5 -15.5l-3 -5l-17 -8.5t-48.5 -19t-77.5 -23.5t-102 -18.5t-124 -8.5 q-205 0 -283.5 78.5t-54.5 232.5zM907 156z" />
<glyph unicode="d" horiz-adv-x="1110" d="M184 303l66 418q26 154 117 232.5t268 78.5q66 0 118.5 -10.5t82 -24.5t50 -31t27 -27.5t7.5 -16.5l65 430l-139 20l-2 27l12 26q62 13 191 13q20 0 40.5 -2t30.5 -4l10 -2l-194 -1231q-10 -72 4.5 -96.5t65.5 -24.5q12 0 24 2t20 4t9 2l2 -37q-2 -9 -6 -18.5t-7 -14.5 l-4 -6q-54 -18 -106 -18q-75 0 -104.5 31.5t-24.5 95.5q-6 -5 -17 -13.5t-49 -30.5t-80 -39t-107 -30.5t-132 -13.5q-152 0 -207 78.5t-31 232.5zM315 303q-19 -117 16.5 -171t145.5 -54q62 0 119 13.5t94 32t64.5 37.5t39.5 33l13 13l80 514q18 116 -37.5 170.5 t-208.5 54.5q-124 0 -183 -54.5t-77 -170.5z" />
<glyph unicode="e" horiz-adv-x="1050" d="M184 303l66 418q10 60 31 108t56 86.5t84.5 64t116.5 39t152 13.5q107 0 179.5 -21t109.5 -60.5t48.5 -97.5t-1.5 -132l-37 -232q-124 -14 -325 -14h-324l-25 -172q-19 -117 35 -171t209 -54q34 0 68.5 2.5t64 7t57.5 10t52 12t44 13t36.5 12.5t27.5 10.5t18 7.5l7 3 q-1 0 0.5 -5.5t2.5 -15t-1 -22.5q-2 -12 -6.5 -22.5t-7.5 -15.5l-4 -5q-6 -3 -17.5 -8.5t-49.5 -19t-79.5 -23.5t-106 -18.5t-130.5 -8.5q-212 0 -293.5 78.5t-57.5 232.5zM354 559h523l26 162q18 117 -32 171t-194.5 54t-211 -54t-84.5 -171zM934 156z" />
<glyph unicode="f" horiz-adv-x="704" d="M-100 -356q2 10 6 20.5t7 15.5l3 5q42 -17 100 -17q52 0 85 17.5t51 52t26 90.5l176 1116l-141 19q-8 4 2 40q5 14 8 13q48 10 144 10l22 139q23 137 98.5 207t219.5 70q69 0 155 -19q8 -4 -5 -62q-6 -24 -9 -22q-53 17 -117 17q-101 0 -149 -46t-64 -145l-20 -137h301 q1 -2 1.5 -5t1.5 -14.5t-1 -23.5q-2 -11 -6 -22t-7 -16l-4 -5h-301l-176 -1114q-19 -122 -83 -184t-185 -62q-77 0 -137 21q-1 2 -1.5 5.5t-1.5 14.5t1 21z" />
<glyph unicode="g" horiz-adv-x="1060" d="M113 -336q2 12 6 23t7 15l3 5q121 -39 311 -39q156 0 227 54.5t91 171.5l30 204q-4 -7 -13.5 -17t-34.5 -26.5t-58.5 -29.5t-90 -23t-122.5 -10q-177 0 -243 78.5t-42 232.5l66 418q26 154 106 232.5t232 78.5q64 0 121.5 -12.5t94 -30t63.5 -35.5t39 -30l12 -13l16 109 q30 6 67 6l62 -6l-176 -1126q-26 -154 -135 -233t-326 -79q-89 0 -167 10t-111 20l-33 9q-1 2 -1.5 5t-1.5 14.5t1 23.5zM315 303q-19 -116 23.5 -170.5t167.5 -54.5q152 0 224.5 54.5t90.5 170.5l80 514q-3 5 -8.5 14t-28.5 31t-52.5 39t-82.5 31t-115 14 q-110 0 -162.5 -54t-70.5 -171z" />
<glyph unicode="h" horiz-adv-x="1144" d="M180 4l213 1348l-141 20q-4 11 0 27q1 6 3.5 12.5t4.5 10.5l2 3q64 13 191 13q21 0 42 -2t31 -4l11 -2l-82 -519q6 5 16 13t45.5 29t75 37t100.5 29t125 13q152 0 207 -79t29 -232l-84 -539q-9 -54 7 -79t66 -25q40 0 52 6l2 -39q-2 -9 -5.5 -18t-6.5 -14l-3 -5 q-48 -16 -98 -16q-91 0 -124.5 48t-18.5 142l84 539q18 117 -17.5 171t-142.5 54q-62 0 -118.5 -13.5t-92.5 -32t-63.5 -37.5t-39.5 -33l-12 -13l-127 -813q-34 -8 -67 -8q-16 0 -32 2t-24 4z" />
<glyph unicode="i" horiz-adv-x="540" d="M211 989l10 27q64 12 191 12q21 0 42 -2t32 -4l10 -2l-131 -838q-9 -54 7 -79t66 -25q39 0 51 6q1 -2 1.5 -5.5t1.5 -14.5t0 -19q-2 -9 -5.5 -18t-6.5 -14l-3 -5q-48 -16 -98 -16q-92 0 -125.5 48t-17.5 142l118 760l-141 21zM399 1225l33 205q33 8 66 8q16 0 31.5 -2 t23.5 -4l8 -2l-33 -205q-34 -8 -67 -8q-15 0 -30.5 2t-23.5 4z" />
<glyph unicode="j" horiz-adv-x="512" d="M-104 -356l16 41q53 -17 106 -17q86 0 127.5 42t53.5 132l174 1100l-142 21l-2 26l11 27q63 12 190 12q21 0 42 -2t32 -4l10 -2l-186 -1178q-19 -128 -87.5 -194t-197.5 -66q-74 0 -145 21zM418 1225l33 205q32 8 65 8q16 0 32 -2t24 -4l8 -2l-33 -205q-35 -8 -68 -8 q-15 0 -30 2t-23 4z" />
<glyph unicode="k" horiz-adv-x="1013" d="M176 4l211 1348l-139 20l-2 27l10 26q63 13 190 13q21 0 42 -2t32 -4l10 -2l-141 -893l141 47l304 366l-89 13q-1 1 -2 3t-2 9t0 14l13 27q65 12 196 12q45 0 84.5 -3t56.5 -6l17 -3q4 -13 0 -27q0 -7 -2 -13.5t-4 -9.5l-2 -3l-137 -21l-332 -401l217 -459l131 -21l2 -26 l-10 -27q-62 -12 -154 -12q-17 0 -35 2t-28 4l-9 2l-229 490l-141 -48l-70 -442q-34 -8 -67 -8q-15 0 -30.5 2t-23.5 4z" />
<glyph unicode="l" horiz-adv-x="512" d="M205 182l182 1170l-139 20l-2 27l10 26q63 13 190 13q21 0 42 -2t32 -4l10 -2l-196 -1248q-9 -54 7.5 -79t66.5 -25q39 0 51 6l2 -39q-2 -9 -5.5 -18t-6.5 -14l-3 -5q-48 -16 -98 -16q-92 0 -125.5 48t-17.5 142z" />
<glyph unicode="m" horiz-adv-x="1714" d="M207 4l147 938l-141 21l-2 26l10 27q64 12 191 12q21 0 42 -2t32 -4l10 -2l-17 -109q5 5 15 13t43 29t69.5 37t93 29t115.5 13q184 0 219 -119q6 5 17 13t47.5 28.5t76.5 36t102 28.5t126 13q143 0 194.5 -72.5t28.5 -216.5l-88 -561q-9 -54 7.5 -79t66.5 -25q39 0 51 6 q4 -19 0 -39q-1 -9 -4 -18t-5 -14l-3 -5q-56 -16 -99 -16q-92 0 -125.5 48t-17.5 142l86 561q18 105 -14.5 154t-130.5 49q-63 0 -119 -14t-92 -34.5t-55.5 -35.5t-28.5 -26l-131 -832q-35 -8 -68 -8q-16 0 -31.5 2t-23.5 4l-8 2l116 739q18 105 -14.5 154t-132.5 49 q-56 0 -107.5 -13.5t-85 -32t-58.5 -37.5t-37 -33l-11 -13l-127 -813q-35 -8 -68 -8q-15 0 -30 2t-23 4z" />
<glyph unicode="n" horiz-adv-x="1177" d="M207 4l147 938l-141 21l-2 26l10 27q64 12 191 12q20 0 41 -2t32 -4l11 -2l-17 -109q6 5 16.5 13t46 29t74.5 37t100 29t124 13q156 0 212.5 -78t32.5 -233l-84 -539q-9 -54 7 -79t67 -25q39 0 51 6q4 -19 0 -39q-1 -9 -4 -18t-6 -14l-2 -5q-48 -16 -98 -16 q-92 0 -126 48t-18 142l84 539q18 117 -19.5 171t-150.5 54q-61 0 -117 -13.5t-92 -32t-63 -37.5t-39 -33l-12 -13l-127 -813q-35 -8 -68 -8q-15 0 -30 2t-23 4z" />
<glyph unicode="o" horiz-adv-x="1069" d="M184 303l66 418q26 153 132.5 232t315.5 79q207 0 289.5 -79.5t56.5 -231.5l-65 -418q-24 -153 -131.5 -232t-315.5 -79t-290 79t-58 232zM315 303q-19 -116 33.5 -170.5t198.5 -54.5q144 0 214 54.5t89 170.5l65 418q18 116 -34.5 170.5t-196.5 54.5 q-146 0 -215.5 -54.5t-87.5 -170.5z" />
<glyph unicode="p" horiz-adv-x="1110" d="M141 -406l213 1348l-141 21l-2 26l10 27q64 12 191 12q20 0 41 -2t32 -4l11 -2l-17 -109q6 5 16.5 13t46.5 29t76 37t102 29t126 13q153 0 208 -78.5t31 -232.5l-65 -418q-26 -154 -117 -232.5t-268 -78.5q-66 0 -118.5 10t-82 24t-50 31t-27 27t-7.5 16l-80 -506 q-32 -8 -65 -8q-16 0 -32 2t-24 4zM383 303q-18 -116 37.5 -170.5t208.5 -54.5q124 0 183.5 54t78.5 171l65 418q18 117 -17.5 171t-145.5 54q-62 0 -119 -13.5t-94 -32t-64.5 -37.5t-39.5 -33l-13 -13z" />
<glyph unicode="q" horiz-adv-x="1060" d="M184 303l66 418q26 154 106 232.5t232 78.5q64 0 121.5 -12.5t94 -30t63.5 -35.5t39 -30l12 -13l16 109q30 8 67 8q15 0 30.5 -2t23.5 -4l8 -2l-225 -1426q-33 -8 -66 -8q-15 0 -30.5 2t-23.5 4l-9 2l79 504q-4 -7 -13.5 -17t-34.5 -26.5t-58.5 -29.5t-90 -23t-122.5 -10 q-177 0 -243 78.5t-42 232.5zM315 303q-19 -116 23.5 -170.5t167.5 -54.5q152 0 224.5 54.5t90.5 170.5l80 514q-3 5 -8.5 14t-28.5 31t-52.5 39t-82.5 31t-115 14q-110 0 -162.5 -54t-70.5 -171z" />
<glyph unicode="r" horiz-adv-x="798" d="M207 4l147 938l-141 21l-2 26l10 27q64 12 191 12q20 0 41 -2t32 -4l11 -2l-25 -150q6 7 17.5 17.5t50.5 38.5t82 49.5t109.5 39t135.5 17.5q1 -2 1.5 -5.5t1.5 -15t-1 -22.5q-2 -12 -6 -23.5t-7 -16.5l-3 -5q-73 0 -141.5 -21t-113.5 -51t-79.5 -59.5t-50.5 -50.5 l-16 -21l-115 -737q-35 -8 -68 -8q-15 0 -30 2t-23 4z" />
<glyph unicode="s" horiz-adv-x="956" d="M137 68q9 61 21.5 119t21.5 86l8 28q14 6 37 6q9 0 17.5 -1.5t13.5 -3.5l4 -1l-8 -176q2 -1 14 -6l18 -7.5t20.5 -8t26 -8.5t29.5 -7t35 -6.5t39 -4t45 -1.5q128 0 187 47t75 147l7 41q7 42 -19.5 72t-73.5 47.5t-105 32.5t-115.5 33.5t-103.5 43t-70.5 69t-14.5 104.5 l8 41q21 138 113.5 208t279.5 70q59 0 112.5 -8.5t87.5 -20.5t59.5 -24t36.5 -21l11 -8q-10 -61 -23 -119.5t-21 -86.5l-7 -29q-17 -4 -37 -4l-35 4l7 180q-86 51 -205 51q-121 0 -178.5 -46.5t-73.5 -145.5l-6 -41q-6 -35 14.5 -61t58 -41.5t86.5 -30.5t100 -27.5t99 -33 t84.5 -45.5t54 -67t9.5 -96l-7 -41q-23 -139 -119 -209.5t-290 -70.5q-64 0 -121.5 8t-93.5 19.5t-63 23t-39 19.5z" />
<glyph unicode="t" horiz-adv-x="735" d="M213 958q-7 1 2 40q3 15 6 14q54 10 152 10l43 203q28 8 57 8q14 0 27.5 -2t20.5 -4l7 -2l-30 -201h295q1 -2 1.5 -5t1.5 -14.5t-1 -23.5q-2 -11 -6 -22t-7 -16l-4 -5h-295l-104 -670q-16 -99 17 -144.5t134 -45.5q56 0 117 18q4 -18 0 -41q-1 -9 -4.5 -18.5t-6.5 -14.5 l-3 -6q-81 -24 -154 -24q-146 0 -199.5 69.5t-29.5 206.5l104 672z" />
<glyph unicode="u" horiz-adv-x="1185" d="M211 989l10 27q64 12 191 12q20 0 41 -2t32 -4l11 -2l-113 -717q-18 -117 18 -171t148 -54q63 0 120.5 13.5t95 32t65.5 37.5t40 33l13 13l127 813q32 8 67 8q15 0 30.5 -2t23.5 -4l8 -2l-129 -821q-10 -72 4 -96.5t65 -24.5q13 0 25.5 2t20 4t8.5 2l2 -37 q-2 -9 -5.5 -18.5t-6.5 -14.5l-3 -6q-63 -18 -106 -18q-78 0 -107 31t-24 96q-6 -5 -17.5 -13.5t-50 -30.5t-80.5 -39t-107.5 -30.5t-133.5 -13.5q-155 0 -210.5 78.5t-29.5 232.5l100 639l-141 21z" />
<glyph unicode="v" horiz-adv-x="1130" d="M211 989l10 27q64 12 191 12q20 0 41 -2t32 -4l11 -2l-107 -678q-23 -137 20.5 -200.5t174.5 -63.5q157 0 238.5 90t113.5 297q24 149 30 288t0 203l-5 64q30 8 63 8q15 0 29.5 -2t22.5 -4l7 -2q4 -25 8.5 -70.5t0.5 -190.5t-27 -294q-40 -253 -161.5 -363t-334.5 -110 q-194 0 -265 88.5t-44 261.5l94 600l-141 21z" />
<glyph unicode="w" horiz-adv-x="1687" d="M211 989l10 27q64 12 191 12q20 0 41 -2t32 -4l11 -2l-107 -678q-23 -137 16 -200.5t158 -63.5q107 0 175.5 43t109.5 137q0 26 8 84l107 678q32 8 67 8q15 0 30.5 -2t23.5 -4l8 -2l-107 -678q-21 -137 19 -200.5t161 -63.5q144 0 220 90t108 297q24 149 29.5 288 t-0.5 203l-6 64q32 8 65 8q14 0 28.5 -2t22.5 -4l8 -2q1 -9 3.5 -25.5t6 -72.5t3 -116.5t-8 -153.5t-22.5 -187q-39 -252 -152.5 -362.5t-308.5 -110.5q-225 0 -270 160q-119 -160 -350 -160q-178 0 -243 88.5t-38 261.5l94 600l-141 21z" />
<glyph unicode="x" horiz-adv-x="1118" d="M45 35q1 7 4 13.5t5 9.5l3 3l133 19l371 440l-225 422l-133 21l-2 26l10 27q65 12 151 12q17 0 35.5 -2t28.5 -4l10 -2l217 -426l295 356l-92 13l-2 26l10 27q68 12 199 12q44 0 83.5 -3t57.5 -6l17 -3q4 -13 0 -27q0 -7 -2.5 -13.5t-4.5 -9.5l-2 -3l-137 -19l-352 -424 l227 -438l135 -21q2 -10 0 -26l-10 -27q-65 -12 -151 -12q-17 0 -35.5 2t-28.5 4l-10 2l-221 442l-312 -374l97 -11v-26l-11 -27q-67 -12 -200 -12q-44 0 -83 3t-56 6l-17 3q-1 1 -1.5 3.5t-1.5 10t1 13.5z" />
<glyph unicode="y" horiz-adv-x="1130" d="M180 -336q2 12 6 23t8 15l3 5q120 -39 313 -39q105 0 171 26t98.5 74t45.5 126l31 208q0 -1 -14 -12t-43.5 -27.5t-68 -32.5t-96.5 -27t-120 -11q-166 0 -226 78.5t-34 232.5l100 639l-141 21l-2 26l10 27q64 12 191 12q20 0 41 -2t32 -4l11 -2l-113 -717 q-18 -117 18 -171t148 -54q62 0 118 13.5t92 32t63.5 37.5t39.5 33l12 13l130 813q32 8 65 8q16 0 32 -2t24 -4l8 -2l-179 -1126q-24 -154 -132.5 -233t-325.5 -79q-89 0 -167.5 10t-112.5 20l-34 9q-1 2 -1.5 5t-1.5 14.5t1 23.5z" />
<glyph unicode="z" horiz-adv-x="991" d="M123 43l16 43l731 852h-516l-49 -162q-13 -6 -29 -6q-7 0 -13.5 1.5t-9.5 2.5l-3 2q-5 54 18 189q2 16 6.5 30.5t8.5 21.5l4 7h739q4 -16 0 -43q-2 -11 -6 -22t-7 -16l-3 -5l-729 -852h516l51 162q10 6 26 6q7 0 14 -1.5t10 -2.5l3 -2q4 -54 -16 -189l-19 -59h-739 q-1 2 -2 5t-3 14.5t1 23.5z" />
<glyph unicode="{" horiz-adv-x="765" d="M184 616q2 11 6 22t8 16l3 5q122 0 182 55.5t78 172.5l55 340q24 154 118.5 232.5t276.5 78.5q1 -2 1.5 -5t1.5 -14.5t-1 -23.5q-2 -11 -6 -21.5t-7 -15.5l-3 -4q-123 0 -182.5 -55t-77.5 -172l-55 -340q-31 -208 -185 -273q132 -62 101 -268l-56 -340q-18 -117 25 -172 t166 -55q10 1 -3 -60q-6 -28 -9 -26q-182 0 -252.5 79.5t-46.5 233.5l53 340q19 116 -23.5 171.5t-165.5 55.5q-1 2 -1.5 5t-1.5 14.5t1 23.5z" />
<glyph unicode="|" horiz-adv-x="401" d="M115 -201l274 1733q26 8 55 8q12 0 25 -2t20 -4l7 -2l-275 -1733q-26 -8 -53 -8q-13 0 -26 2t-20 4z" />
<glyph unicode="}" horiz-adv-x="765" d="M45 -264q2 12 6 22.5t7 15.5l3 5q123 0 183 55t78 172l53 340q18 103 63 170t125 98q-134 63 -102 273l55 340q16 118 -27 172.5t-165 54.5q-8 2 5 62q6 24 9 22q182 0 252.5 -78.5t46.5 -232.5l-55 -340q-18 -116 25.5 -172t166.5 -56q8 -2 -5 -63q-6 -25 -9 -23 q-123 0 -183.5 -55.5t-78.5 -171.5l-56 -340q-24 -155 -118.5 -234t-276.5 -79q-1 2 -1.5 5.5t-1.5 15t1 22.5z" />
<glyph unicode="~" horiz-adv-x="886" d="M190 524l3 11q16 101 61.5 149.5t140.5 48.5q30 0 56 -6t43.5 -15.5t34 -21.5t28 -24.5t25 -24.5t26 -21.5t29.5 -15.5t37 -6q33 0 54.5 7.5t35 25t21 38.5t14.5 56q24 8 49 8q10 0 21.5 -2t17.5 -4l6 -2q-11 -55 -23.5 -89.5t-35 -64t-58 -42.5t-86.5 -13 q-47 0 -83.5 14t-58 34t-41 40.5t-43 34.5t-52.5 14q-62 0 -88 -30t-39 -99q-22 -8 -47 -8q-11 0 -23 2t-19 4z" />
<glyph unicode="&#xa1;" horiz-adv-x="423" d="M82 -406l160 1006q32 8 65 8q15 0 31 -2t24 -4l9 -2l-160 -1006q-31 -8 -66 -8q-15 0 -30.5 2t-24.5 4zM274 831l31 189q35 8 70 8q16 0 32 -2t25 -4l8 -2l-30 -189q-33 -10 -70 -10q-16 0 -32.5 2.5t-25.5 4.5z" />
<glyph unicode="&#xa2;" horiz-adv-x="997" d="M184 303l66 418q23 143 114.5 221.5t268.5 87.5l31 195q26 8 55 8q13 0 25.5 -2t19.5 -4l6 -2l-31 -195q56 -3 106 -12.5t80.5 -21.5t53 -23.5t31.5 -18.5l10 -8q-10 -61 -23 -119t-21 -86l-7 -28q-17 -6 -37 -6q-10 0 -19 1.5t-13 3.5l-3 1l8 180q-97 53 -233 53 q-142 0 -207.5 -54t-83.5 -171l-66 -418q-19 -117 32.5 -171t201.5 -54q91 0 174.5 19t121.5 38l38 19q1 -2 2 -5.5t2 -15t-2 -24.5q-2 -11 -6 -22t-7 -16l-4 -5q-11 -7 -32.5 -18.5t-97.5 -31t-163 -22.5l-30 -195q-26 -8 -53 -8q-13 0 -26.5 2t-20.5 4l-7 2l31 195 q-175 10 -241.5 88t-43.5 221z" />
<glyph unicode="&#xa3;" horiz-adv-x="1132" d="M68 45q3 12 7.5 23t7.5 16l3 6h123l84 549h-123q-8 0 5 60q6 26 9 24h123l62 393q26 161 137.5 243.5t331.5 82.5q81 0 149 -14t108 -34t68 -39.5t39 -33.5l10 -14q-10 -63 -23 -123.5t-21 -89.5l-7 -29q-18 -6 -41 -6q-10 0 -19.5 1.5t-13.5 3.5l-4 1l9 190 q-3 4 -10 10.5t-31.5 23t-53 29.5t-76 23.5t-100.5 10.5q-155 0 -226.5 -56.5t-90.5 -179.5l-62 -393h381q1 -2 1.5 -5t1.5 -14t-1 -22q-2 -12 -6 -23t-7 -15l-3 -5h-381l-84 -549h678q6 -16 0 -45q-2 -12 -5.5 -23.5t-6.5 -16.5l-2 -5h-938q-1 2 -1.5 5.5t-1.5 15.5t1 24z " />
<glyph unicode="&#xa4;" horiz-adv-x="823" d="M127 362l141 125q-20 49 -10 127l8 58q16 85 56 133l-105 131q10 17 33 35q9 8 19 14t16 8l6 2l110 -137q64 39 152 39q90 0 135 -39l156 137q19 -6 35 -24q7 -8 12 -16.5t7 -13.5l1 -5l-149 -131q29 -51 14 -133l-8 -58q-13 -77 -54 -127l105 -125q4 -2 -15 -19 t-39 -31.5t-20 -10.5l-102 127q-61 -37 -158 -37q-100 0 -149 37l-142 -127q-18 9 -32 27q-8 7 -14 15.5t-8 13.5zM346 614q-11 -75 21 -111t118 -36t129 36t54 111l10 58q11 76 -20 111.5t-117 35.5q-87 0 -131 -36t-56 -111z" />
<glyph unicode="&#xa5;" horiz-adv-x="1316" d="M252 1366q-4 11 0 31q1 7 3.5 14t4.5 11l2 3q76 13 195 13q83 0 147 -3t86 -7l23 -3l2 -28q-2 -9 -5 -16.5t-6 -10.5l-2 -4l-151 -14l225 -615l414 615l-146 14q-4 11 0 31q1 7 3.5 14t4.5 11l3 3q76 13 262 13q53 0 100.5 -3t68.5 -7l21 -3q2 -12 0 -28l-10 -31 l-166 -16l-508 -729l-2 -15h281q1 -2 1.5 -5t1.5 -12t-1 -18q-1 -10 -4.5 -18.5t-6.5 -12.5l-3 -3h-281l-29 -189h281l2 -35q-2 -9 -5.5 -17.5t-5.5 -12.5l-3 -4h-279l-31 -195l158 -16l2 -31l-12 -29q-76 -12 -230 -12q-69 0 -126 3t-79 6l-22 3q-4 13 0 29q1 9 3.5 16.5 t4.5 10.5l2 4l164 16l31 195h-281q-1 2 -2 4.5t-2 11.5t0 18q2 10 6 19t8 12l3 4h278l31 189h-281l-2 34q2 9 5.5 17.5t6.5 13.5l3 4h278l2 12l-278 732z" />
<glyph unicode="&#xa6;" horiz-adv-x="401" d="M115 -201l121 760q26 8 55 8q12 0 24.5 -2t19.5 -4l7 -2l-121 -760q-26 -8 -53 -8q-13 0 -26 2t-20 4zM268 772l121 760q26 8 55 8q12 0 25 -2t20 -4l7 -2l-119 -760q-28 -8 -55 -8q-13 0 -26.5 2t-20.5 4z" />
<glyph unicode="&#xa7;" horiz-adv-x="1134" d="M66 -283q10 63 23.5 123.5t21.5 89.5l8 29q16 6 39 6q10 0 19.5 -1.5t13.5 -3.5l4 -1l-9 -190q4 -4 12.5 -11t38 -24.5t63.5 -30.5t90.5 -24t117.5 -11q175 0 254 55.5t100 176.5l8 51q8 54 -11.5 95.5t-59 68.5t-93 48t-113 38t-119 35t-112 43.5t-91 59t-56 85 t-6.5 117.5l8 51q28 181 172 254q-118 80 -96 227l8 51q26 158 141 238t349 80q84 0 155.5 -14t113.5 -34t71.5 -39.5t40.5 -33.5l12 -14q-9 -63 -21.5 -123.5t-20.5 -89.5l-9 -29q-16 -6 -39 -6q-10 0 -19.5 1.5t-13.5 3.5l-4 1l8 190l-11 11t-33.5 24.5t-57 30.5t-82 24 t-107.5 11q-167 0 -246 -56.5t-98 -175.5l-8 -51q-8 -51 12 -90t59.5 -64t93 -45t113.5 -37t119.5 -35.5t111.5 -45.5t90 -61.5t55.5 -88.5t6.5 -123l-8 -51q-28 -173 -164 -250q109 -84 88 -231l-8 -51q-26 -159 -143 -238.5t-356 -79.5q-91 0 -168 14t-122.5 33.5 t-78 39.5t-45.5 34zM338 541q-9 -61 16.5 -103.5t81 -69t113.5 -44t135 -41t125 -47.5q112 48 137 196l8 51q8 53 -9 94t-49.5 66t-84 47t-99.5 35t-109.5 32.5t-102.5 37.5q-69 -26 -105.5 -76t-48.5 -127z" />
<glyph unicode="&#xa8;" horiz-adv-x="833" d="M350 1231l31 199q24 8 55 8q14 0 26.5 -2t18.5 -4l6 -2l-30 -199q-27 -8 -56 -8q-14 0 -26.5 2t-18.5 4zM768 1231l31 199q24 8 55 8q13 0 25.5 -2t18.5 -4l7 -2l-33 -199q-26 -8 -53 -8q-14 0 -26.5 2t-18.5 4z" />
<glyph unicode="&#xa9;" horiz-adv-x="1640" d="M223 492l70 450q40 246 221.5 373t532.5 127t492.5 -127.5t100.5 -372.5l-69 -450q-40 -246 -222 -373t-534 -127q-351 0 -492 127.5t-100 372.5zM346 492q-22 -142 15.5 -231t151.5 -136t316 -47q300 0 443 100.5t176 313.5l70 450q17 106 0 181.5t-73 128.5t-158 78.5 t-255 25.5q-202 0 -331.5 -47t-195.5 -136t-89 -231q1 1 -16.5 -111.5t-35.5 -225.5zM670 528l59 385q16 85 78 127.5t188 42.5q132 0 172.5 -44t26.5 -140q-19 -4 -39 -4l-41 4v14q9 59 -19 86t-110 27t-119.5 -27t-46.5 -86l-61 -385q-8 -59 22.5 -85.5t118.5 -26.5 q56 0 109 11t78 23l24 11l2 -29l-10 -31q-9 -5 -25.5 -12t-72 -19t-115.5 -12q-131 0 -181 42.5t-38 127.5z" />
<glyph unicode="&#xaa;" horiz-adv-x="811" d="M252 901l6 25q12 86 76.5 132t195.5 58l189 19l14 90q11 78 -20.5 113.5t-122.5 35.5q-24 0 -46 -3t-40.5 -8.5t-30 -9.5t-26.5 -10.5t-17 -7.5l-35 -123q-12 -2 -28 -2l-29 2q2 70 18 168q10 7 29 17t82.5 26.5t132.5 16.5q143 0 197.5 -54t38.5 -161l-72 -447l96 -12 q7 0 -1 -32q-4 -12 -7 -11q-45 -8 -137 -8l-62 4l13 76q-4 -3 -11.5 -9t-32.5 -20.5t-53 -25.5t-71 -20t-88 -9q-98 0 -135 48t-23 142zM354 899q-9 -64 13.5 -93.5t87.5 -29.5q41 0 79 9t62.5 22t43.5 26t28 22l8 9l33 207l-172 -18q-89 -9 -130 -40.5t-49 -88.5z" />
<glyph unicode="&#xab;" horiz-adv-x="942" d="M180 553l416 365q17 -7 33 -25q7 -7 12 -16t7 -14l1 -5l-340 -305l246 -303q-13 -19 -33 -37q-10 -8 -21 -14.5t-17 -8.5l-5 -2zM512 553l416 365q19 -7 35 -25q7 -7 11.5 -16t5.5 -14l1 -5l-340 -305l246 -303q-10 -19 -33 -37q-9 -8 -19 -14t-16 -9l-6 -2z" />
<glyph unicode="&#xac;" horiz-adv-x="825" d="M205 662q-4 16 0 43q2 11 6 22t7 16l3 5h238q106 0 203 -4t142 -8l44 -3l-43 -262q-28 -8 -57 -8q-13 0 -27 2t-21 4l-8 2l29 191h-516z" />
<glyph unicode="&#xad;" horiz-adv-x="612" d="M186 543q-6 18 0 43q2 12 6 23t8 15l3 5h405q9 -1 -5 -64q-6 -24 -9 -22h-408z" />
<glyph unicode="&#xae;" horiz-adv-x="1640" d="M223 492l70 450q40 246 221.5 373t532.5 127t492.5 -127.5t100.5 -372.5l-69 -450q-40 -246 -222 -373t-534 -127q-351 0 -492 127.5t-100 372.5zM346 492q-22 -142 15.5 -231t151.5 -136t316 -47q300 0 443 100.5t176 313.5l70 450q17 106 0 181.5t-73 128.5t-158 78.5 t-255 25.5q-202 0 -331.5 -47t-195.5 -136t-89 -231q1 1 -16.5 -111.5t-35.5 -225.5zM664 360l110 711q88 8 219 8q121 0 169 -43t34 -127l-10 -69q-22 -134 -168 -162l119 -318q-24 -4 -47 -4l-48 4l-112 312h-2l-125 4l-51 -316q-22 -4 -45 -4zM811 729h125q77 0 115 26.5 t47 84.5l10 69q9 58 -19.5 85.5t-105.5 27.5h-127z" />
<glyph unicode="&#xaf;" horiz-adv-x="425" d="M170 1278q1 9 4.5 17.5t6.5 12.5l3 5h471q1 -2 1.5 -5t1.5 -12t-1 -18q-1 -10 -4.5 -19t-6.5 -13l-3 -3h-471z" />
<glyph unicode="&#xb0;" horiz-adv-x="641" d="M322 1206l6 41q30 193 241 193q109 0 153 -51t30 -142l-9 -41q-30 -192 -241 -192q-210 0 -180 192zM395 1206q-11 -65 16.5 -96t100.5 -31q74 0 111.5 31.5t46.5 95.5l6 41q11 64 -16 94.5t-101 30.5t-111.5 -30.5t-46.5 -94.5z" />
<glyph unicode="&#xb1;" horiz-adv-x="847" d="M129 182q-8 0 5 60q6 26 9 24h641q1 -2 2 -5t2 -14t0 -22q-2 -11 -6 -22t-7 -16l-3 -5h-643zM203 645q-6 18 0 43q2 12 6 23t7 15l3 5h275l43 289q20 6 49 6q13 0 23.5 -1.5t14.5 -2.5l5 -2l-45 -289h276q9 -1 -5 -64q-6 -24 -9 -22h-277l-45 -287q-16 -8 -45 -8 q-13 0 -24.5 2t-16.5 4l-6 2l47 287h-276z" />
<glyph unicode="&#xb2;" horiz-adv-x="610" d="M203 725l16 96q8 53 33.5 92.5t60 63t74.5 42.5t80 36t73.5 37t57.5 52t31 75l8 49q9 62 -17.5 90t-101.5 28q-26 0 -51 -5t-42 -12t-30.5 -14.5t-19.5 -12.5l-6 -5l-25 -92q-11 -2 -27 -2l-22 2q0 51 12 125q1 1 4 3.5t13 9.5t22 13.5t31.5 14.5t40.5 13.5t50 9.5t60 4 q115 0 159 -42t32 -128l-10 -49q-8 -52 -33 -91t-59.5 -62t-74.5 -41.5t-80 -36t-74 -37.5t-58 -53t-31 -77l-10 -51h301l26 78q7 4 17 4l18 -4l-8 -80q-6 -44 -12 -51h-230q-53 0 -102.5 2t-72.5 4z" />
<glyph unicode="&#xb3;" horiz-adv-x="604" d="M205 782q7 24 10 27q1 -4 22 -14t67.5 -20.5t101.5 -10.5q87 0 128 30t50 93l10 63q9 64 -23.5 93.5t-119.5 29.5h-64q-4 11 0 27l8 26l236 254h-269l-26 -77q-7 -5 -17 -5l-16 5q-2 28 8 98l11 33h405l2 -27l-8 -27l-246 -256q68 0 112.5 -13.5t63 -37.5t25 -55.5 t-1.5 -67.5l-10 -63q-25 -174 -265 -174q-58 0 -106 10.5t-67 21.5l-19 11z" />
<glyph unicode="&#xb4;" horiz-adv-x="417" d="M223 1178l254 252q31 8 66 8q15 0 30.5 -2t24.5 -4l8 -2l-291 -252q-24 -9 -47 -9q-12 0 -23 2.5t-17 4.5z" />
<glyph unicode="&#xb5;" horiz-adv-x="1124" d="M23 -248q-8 2 1 39q4 15 7 14l147 21l176 1116l-141 21l-2 26l10 27q64 12 191 12q21 0 42 -2t32 -4l10 -2l-129 -813q3 -5 8.5 -14t29.5 -31t54 -39t84.5 -31t118.5 -14q110 0 164 54t73 171l98 639l-139 21q-4 10 -4 26l12 27q62 12 191 12q21 0 41.5 -2t30.5 -4l10 -2 l-111 -717q-26 -154 -107 -232.5t-237 -78.5q-65 0 -123 12.5t-95 30.5t-64.5 35.5t-39.5 29.5l-12 13l-43 -287l142 -21l2 -26l-13 -27q-68 -12 -209 -12q-63 0 -114.5 3t-71.5 6z" />
<glyph unicode="&#xb6;" horiz-adv-x="1007" d="M143 -121q3 12 7 22.5t7 15.5l3 5q11 -5 31 -13.5t87 -22t138 -13.5q131 0 191.5 54t78.5 171l57 359q-3 -6 -11 -16t-29.5 -26.5t-50 -30.5t-76.5 -24t-105 -10q-148 0 -202.5 79.5t-30.5 232.5l41 264q26 154 118 232.5t269 78.5q138 0 256 -4t166 -8l49 -4 q1 -1 1.5 -3.5t1.5 -10t-1 -13.5q-1 -7 -4 -14t-6 -10l-3 -3l-145 -20l-164 -1049q-26 -154 -121.5 -232.5t-283.5 -78.5q-76 0 -142.5 12.5t-95.5 24.5l-29 12q-1 2 -1.5 5t-1.5 14.5t1 23.5z" />
<glyph unicode="&#xb7;" horiz-adv-x="419" d="M221 498l31 188q32 8 67 8q15 0 30.5 -2t23.5 -4l8 -2l-29 -188q-34 -9 -65 -9q-16 0 -32.5 2.5t-24.5 4.5z" />
<glyph unicode="&#xb8;" horiz-adv-x="1021" d="M311 -266q1 8 4 15.5t6 10.5l3 4q46 -34 120 -34q54 0 81.5 18.5t33.5 58.5q3 18 -5.5 30t-22.5 16.5t-30 12.5t-29 18t-19 34t0 59l4 23h82l-7 -23q-4 -29 7.5 -46t30 -25t37 -17t29 -29t5.5 -53q-11 -67 -60 -105t-132 -38q-43 0 -77 10t-46 20l-13 9q-1 1 -1.5 4 t-1.5 11t1 16z" />
<glyph unicode="&#xb9;" horiz-adv-x="471" d="M213 737q0 4 2 9t4 7l2 3l103 10l96 606l-125 -33q-5 -2 3 35l3 6l154 56l55 -4l-107 -666l107 -10v-19l-6 -14q-50 -8 -148 -8q-43 0 -78 2t-49 4l-14 2q-2 6 -2 14z" />
<glyph unicode="&#xba;" horiz-adv-x="798" d="M266 932l45 287q18 110 93 165.5t223 55.5t205.5 -56t39.5 -165l-45 -287q-19 -110 -94 -165.5t-221 -55.5q-148 0 -206.5 56t-39.5 165zM369 932q-12 -81 21.5 -118.5t131.5 -37.5q96 0 144.5 38t60.5 118l45 287q11 80 -25 117.5t-133 37.5t-143 -37.5t-57 -117.5z" />
<glyph unicode="&#xbb;" horiz-adv-x="942" d="M135 250l340 303l-246 305q10 19 33 35q9 8 19 14.5t16 8.5l6 2l299 -365l-416 -365q-16 7 -32 25q-6 8 -11 17.5t-7 14.5zM465 250l342 303l-246 305q11 19 31 35q10 8 21 14t17 9l5 2l297 -365l-414 -365q-17 7 -33 25q-6 8 -11 17.5t-7 14.5z" />
<glyph unicode="&#xbc;" horiz-adv-x="1243" d="M119 4l1130 1426q25 8 54 8q13 0 25 -2t18 -4l6 -2l-1133 -1426q-28 -8 -53 -8q-12 0 -24 2t-18 4zM213 737q0 4 2 9t4 7l2 3l103 10l96 606l-125 -33q-5 -2 3 35l3 6l154 56l55 -4l-107 -666l107 -10v-19l-6 -14q-50 -8 -148 -8q-43 0 -78 2t-49 4l-14 2q-2 6 -2 14z M739 172q-2 11 0 27l271 516q14 4 39 4q10 0 19.5 -1t14.5 -2l4 -1l-253 -488h225l45 283q17 4 37 4l37 -4l-45 -283l67 -8q4 -10 4 -22l-10 -21q-19 -4 -68 -4l-24 -170q-23 -4 -43 -4q-9 0 -17.5 1t-13.5 2l-4 1l25 170h-310z" />
<glyph unicode="&#xbd;" horiz-adv-x="1257" d="M119 4l1130 1426q25 8 54 8q13 0 25 -2t18 -4l6 -2l-1133 -1426q-28 -8 -53 -8q-12 0 -24 2t-18 4zM213 737q0 4 2 9t4 7l2 3l103 10l96 606l-125 -33q-5 -2 3 35l3 6l154 56l55 -4l-107 -666l107 -10v-19l-6 -14q-50 -8 -148 -8q-43 0 -78 2t-49 4l-14 2q-2 6 -2 14z M780 8l15 96q7 42 24.5 75t41 55.5t52.5 40.5t60 32t62 27t59.5 28t51.5 33.5t39 45.5t21 61l6 49q11 61 -16 90t-100 29q-42 0 -80 -12t-55 -25l-17 -12l-26 -93q-9 -2 -23 -2l-25 2q3 51 13 125q3 3 8.5 7.5t25.5 16t43.5 20.5t62 16.5t81.5 7.5q115 0 158.5 -42 t29.5 -128l-6 -49q-8 -52 -33.5 -91t-60 -62t-75 -41.5t-80.5 -36t-74.5 -37.5t-59 -53t-31.5 -77l-8 -51h301l27 78q6 4 18 4q4 0 8.5 -1t6.5 -2l2 -1q2 -28 -10 -98q-1 -8 -3 -16t-4 -13l-2 -4h-229q-54 0 -103.5 2t-72.5 4z" />
<glyph unicode="&#xbe;" horiz-adv-x="1312" d="M162 4l1130 1426q25 8 54 8q13 0 25 -2t18 -4l6 -2l-1131 -1426q-30 -8 -53 -8q-13 0 -25 2t-18 4zM205 782q7 24 10 27q1 -4 22 -14t67.5 -20.5t101.5 -10.5q87 0 128 30t50 93l10 63q9 64 -23.5 93.5t-119.5 29.5h-64q-4 11 0 27l8 26l236 254h-269l-26 -77 q-7 -5 -17 -5l-16 5q-2 28 8 98l11 33h405l2 -27l-8 -27l-246 -256q68 0 112.5 -13.5t63 -37.5t25 -55.5t-1.5 -67.5l-10 -63q-25 -174 -265 -174q-58 0 -106 10.5t-67 21.5l-19 11zM811 172q-2 11 0 27l270 516q14 4 39 4l39 -4l-254 -488h225l46 283q16 4 36 4l37 -4 l-45 -283l68 -8q4 -10 4 -22l-10 -21q-19 -4 -68 -4l-24 -170q-24 -4 -44 -4l-34 4l24 170h-309z" />
<glyph unicode="&#xbf;" horiz-adv-x="1048" d="M119 -92l16 104q10 62 36 109.5t61 76.5t75 52.5t80.5 45t74.5 46.5t59.5 64.5t33.5 91.5l14 102q35 8 66 8q16 0 31.5 -2t23.5 -4l8 -2l-14 -102q-10 -64 -37 -112.5t-62 -78t-75.5 -53t-80 -45t-73.5 -45.5t-59 -62.5t-33 -89.5l-18 -104q-19 -124 34.5 -182t206.5 -58 q49 0 96.5 10t80 24t58 28t38.5 24l12 10l53 195q16 6 39 6q10 0 20 -1.5t14 -3.5l5 -1q-3 -101 -26 -240q-5 -6 -15.5 -15t-47.5 -32.5t-79.5 -41.5t-114 -33t-149.5 -15q-216 0 -297.5 82.5t-54.5 243.5zM602 831l31 189q34 8 69 8q16 0 32.5 -2t25.5 -4l8 -2l-31 -189 q-32 -8 -67 -8q-16 0 -33 2t-26 4z" />
<glyph unicode="&#xc0;" d="M41 8q-10 1 3 47q5 13 7 13l154 16l604 1266l-154 16q-4 11 0 31q1 7 3.5 14t5.5 11l2 3q90 13 274 13q22 0 44 -2t33 -4l11 -2l215 -1346l154 -16q8 0 -5 -47q-4 -14 -6 -13q-73 -12 -198 -12q-36 0 -69.5 0.5t-58 1.5t-45.5 2.5t-35 3t-23.5 2.5t-14.5 1l-4 1 q0 1 -0.5 3.5t-1.5 10.5t0 15q2 9 5 16.5t5 11.5l2 3l164 16l-55 346h-555l-164 -346l160 -16q10 0 -2 -43q-6 -19 -9 -17q-75 -12 -251 -12q-56 0 -105 3t-69 6zM543 522h506l-127 803zM778 1792q33 8 66 8q15 0 30 -2t23 -4l8 -2l178 -252q-24 -8 -49 -8q-6 0 -13 1 t-12.5 2t-10 2t-7.5 2l-2 1z" />
<glyph unicode="&#xc1;" d="M41 8q-10 1 3 47q5 13 7 13l154 16l604 1266l-154 16q-4 11 0 31q1 7 3.5 14t5.5 11l2 3q90 13 274 13q22 0 44 -2t33 -4l11 -2l215 -1346l154 -16q8 0 -5 -47q-4 -14 -6 -13q-73 -12 -198 -12q-36 0 -69.5 0.5t-58 1.5t-45.5 2.5t-35 3t-23.5 2.5t-14.5 1l-4 1 q0 1 -0.5 3.5t-1.5 10.5t0 15q2 9 5 16.5t5 11.5l2 3l164 16l-55 346h-555l-164 -346l160 -16q10 0 -2 -43q-6 -19 -9 -17q-75 -12 -251 -12q-56 0 -105 3t-69 6zM543 522h506l-127 803zM827 1540l256 252q29 8 64 8q15 0 30.5 -2t24.5 -4l8 -2l-288 -252q-27 -8 -50 -8 q-11 0 -22.5 2t-16.5 4z" />
<glyph unicode="&#xc2;" d="M41 8q-10 1 3 47q5 13 7 13l154 16l604 1266l-154 16q-4 11 0 31q1 7 3.5 14t5.5 11l2 3q90 13 274 13q22 0 44 -2t33 -4l11 -2l215 -1346l154 -16q8 0 -5 -47q-4 -14 -6 -13q-73 -12 -198 -12q-36 0 -69.5 0.5t-58 1.5t-45.5 2.5t-35 3t-23.5 2.5t-14.5 1l-4 1 q0 1 -0.5 3.5t-1.5 10.5t0 15q2 9 5 16.5t5 11.5l2 3l164 16l-55 346h-555l-164 -346l160 -16q10 0 -2 -43q-6 -19 -9 -17q-75 -12 -251 -12q-56 0 -105 3t-69 6zM543 522h506l-127 803zM690 1540l240 236q30 8 63 8q15 0 30 -2t22 -4l8 -2l168 -236q-23 -8 -50 -8 q-10 0 -21 2t-16 4l-6 2l-147 180l-199 -180q-27 -8 -47 -8q-12 0 -23.5 2t-16.5 4z" />
<glyph unicode="&#xc3;" d="M41 8q-10 1 3 47q5 13 7 13l154 16l604 1266l-154 16q-4 11 0 31q1 7 3.5 14t5.5 11l2 3q90 13 274 13q22 0 44 -2t33 -4l11 -2l215 -1346l154 -16q8 0 -5 -47q-4 -14 -6 -13q-73 -12 -198 -12q-36 0 -69.5 0.5t-58 1.5t-45.5 2.5t-35 3t-23.5 2.5t-14.5 1l-4 1 q0 1 -0.5 3.5t-1.5 10.5t0 15q2 9 5 16.5t5 11.5l2 3l164 16l-55 346h-555l-164 -346l160 -16q10 0 -2 -43q-6 -19 -9 -17q-75 -12 -251 -12q-56 0 -105 3t-69 6zM543 522h506l-127 803zM664 1542v8q14 86 54.5 127t123.5 41q41 0 72 -12t49.5 -29t35 -34t37.5 -29t47 -12 q55 0 76 24t33 82q20 10 43 10q9 0 18.5 -2.5t15.5 -5.5l5 -2l-2 -8q-7 -42 -19 -72t-32.5 -51.5t-51 -32t-73.5 -10.5q-42 0 -73.5 12t-50.5 28.5t-36 33.5t-37.5 29t-46.5 12q-50 0 -74.5 -23t-32.5 -74v-10q-22 -8 -45 -8q-8 0 -17 2t-14 4z" />
<glyph unicode="&#xc4;" d="M41 8q-10 1 3 47q5 13 7 13l154 16l604 1266l-154 16q-4 11 0 31q1 7 3.5 14t5.5 11l2 3q90 13 274 13q22 0 44 -2t33 -4l11 -2l215 -1346l154 -16q8 0 -5 -47q-4 -14 -6 -13q-73 -12 -198 -12q-36 0 -69.5 0.5t-58 1.5t-45.5 2.5t-35 3t-23.5 2.5t-14.5 1l-4 1 q0 1 -0.5 3.5t-1.5 10.5t0 15q2 9 5 16.5t5 11.5l2 3l164 16l-55 346h-555l-164 -346l160 -16q10 0 -2 -43q-6 -19 -9 -17q-75 -12 -251 -12q-56 0 -105 3t-69 6zM543 522h506l-127 803zM694 1542l31 197q22 8 53 8q14 0 27 -2t20 -4l6 -2l-30 -197q-27 -8 -56 -8 q-14 0 -26.5 2t-18.5 4zM1110 1542l31 197q24 8 55 8q13 0 26 -2t20 -4l7 -2l-32 -197q-27 -8 -56 -8q-14 0 -26.5 2t-18.5 4z" />
<glyph unicode="&#xc5;" d="M41 8q-10 1 3 47q5 13 7 13l154 16l604 1266l-154 16q-4 11 0 31q1 7 3.5 14t5.5 11l2 3q90 13 274 13q22 0 44 -2t33 -4l11 -2l215 -1346l154 -16q8 0 -5 -47q-4 -14 -6 -13q-73 -12 -198 -12q-36 0 -69.5 0.5t-58 1.5t-45.5 2.5t-35 3t-23.5 2.5t-14.5 1l-4 1 q0 1 -0.5 3.5t-1.5 10.5t0 15q2 9 5 16.5t5 11.5l2 3l164 16l-55 346h-555l-164 -346l160 -16q10 0 -2 -43q-6 -19 -9 -17q-75 -12 -251 -12q-56 0 -105 3t-69 6zM543 522h506l-127 803zM813 1661l6 37q9 64 54.5 99.5t127.5 35.5t115.5 -35.5t24.5 -99.5l-6 -37 q-9 -64 -55 -99.5t-128 -35.5t-115 35.5t-24 99.5zM879 1661q-4 -26 2 -43.5t26 -27t54 -9.5q51 0 76.5 20t31.5 60l6 37q5 40 -14 59t-70 19t-75.5 -19t-30.5 -59z" />
<glyph unicode="&#xc6;" horiz-adv-x="1568" d="M41 8q-10 1 3 47q5 13 7 13l154 16l604 1266l-152 16l-2 31q2 7 5 14t6 11l2 3q220 9 688 9h344q2 -44 -10.5 -116t-25.5 -122l-13 -49q-13 -6 -31 -6q-7 0 -13.5 1.5t-8.5 3.5l-3 1l2 196h-512l-88 -561h535q2 -18 0 -45q-3 -12 -7 -23t-7 -16l-2 -6h-533l-92 -602h520 l57 197q15 6 31 6q7 0 14 -1.5t10 -3.5l3 -1q-13 -231 -41 -287h-355q-143 0 -278 2t-198 4l-64 2q-2 13 0 29l10 31l154 16l53 346h-305l-164 -346l145 -16l2 -31l-12 -29q-74 -12 -240 -12q-58 0 -106 3t-67 6zM543 522h280l127 821h-22z" />
<glyph unicode="&#xc7;" horiz-adv-x="1173" d="M186 317l127 799q24 161 147 243.5t369 82.5q89 0 165 -14t120.5 -34t76.5 -39.5t44 -33.5l12 -14q-10 -63 -23 -123.5t-20 -89.5l-8 -29q-18 -6 -41 -6q-10 0 -19.5 1.5t-13.5 3.5l-4 1l8 190q-4 4 -12 10.5t-36.5 23t-61.5 29.5t-88 23.5t-115 10.5 q-180 0 -262.5 -56.5t-101.5 -179.5l-127 -799q-19 -123 48.5 -179t256.5 -56q118 0 225.5 23.5t156 44t48.5 24.5q1 -2 2 -5.5t3 -16t-1 -25.5t-7.5 -24.5t-7.5 -16.5l-4 -6q-6 -3 -17.5 -9t-50.5 -20.5t-83.5 -26t-115 -21.5t-144.5 -11q-9 -39 0 -55t28 -27.5t38 -18.5 t31 -28.5t7 -55.5q-11 -68 -59.5 -105.5t-132.5 -37.5q-43 0 -76.5 10t-46.5 20l-12 9q-1 1 -1.5 4t-1.5 11t1 16q1 8 4 15.5t6 10.5l2 4q47 -34 121 -34q54 0 81 18.5t33 58.5q3 18 -5 30t-22 16.5t-30 12.5t-29 18t-19 34t-1 59l4 17q-218 9 -303.5 90.5t-61.5 232.5z" />
<glyph unicode="&#xc8;" horiz-adv-x="1110" d="M63 37q1 6 3 11t3.5 8.5t3 6t2.5 4.5l1 1l162 16l198 1266l-155 16q-9 -2 2 41q5 20 8 18q220 9 551 9h399q3 -87 -42 -271l-6 -19q1 1 1 3q-13 -6 -31 -6q-7 0 -13.5 1.5t-9.5 3.5l-3 1l4 196h-570l-86 -561h531l2 -45q-3 -12 -7 -23t-7 -16l-3 -6h-532l-92 -602h577 l56 197q14 6 30 6q7 0 14 -1.5t10 -3.5l3 -1q-13 -231 -41 -287h-410q-148 0 -285.5 2t-200.5 4l-64 2q-1 1 -1.5 3.5t-1.5 10.5t0 15zM705 1792q32 8 65 8q16 0 32 -2t24 -4l8 -2l174 -252q-22 -8 -47 -8q-6 0 -13.5 1t-13 2t-10 2t-6.5 2l-3 1z" />
<glyph unicode="&#xc9;" horiz-adv-x="1110" d="M63 37q1 6 3 11t3.5 8.5t3 6t2.5 4.5l1 1l162 16l198 1266l-155 16q-9 -2 2 41q5 20 8 18q220 9 551 9h399q3 -87 -42 -271l-6 -19q1 1 1 3q-13 -6 -31 -6q-7 0 -13.5 1.5t-9.5 3.5l-3 1l4 196h-570l-86 -561h531l2 -45q-3 -12 -7 -23t-7 -16l-3 -6h-532l-92 -602h577 l56 197q14 6 30 6q7 0 14 -1.5t10 -3.5l3 -1q-13 -231 -41 -287h-410q-148 0 -285.5 2t-200.5 4l-64 2q-1 1 -1.5 3.5t-1.5 10.5t0 15zM741 1540l254 252q29 8 64 8q16 0 31.5 -2t23.5 -4l8 -2l-288 -252q-28 -8 -48 -8q-12 0 -23.5 2t-16.5 4z" />
<glyph unicode="&#xca;" horiz-adv-x="1110" d="M63 37q1 6 3 11t3.5 8.5t3 6t2.5 4.5l1 1l162 16l198 1266l-155 16q-9 -2 2 41q5 20 8 18q220 9 551 9h399q3 -87 -42 -271l-6 -19q1 1 1 3q-13 -6 -31 -6q-7 0 -13.5 1.5t-9.5 3.5l-3 1l4 196h-570l-86 -561h531l2 -45q-3 -12 -7 -23t-7 -16l-3 -6h-532l-92 -602h577 l56 197q14 6 30 6q7 0 14 -1.5t10 -3.5l3 -1q-13 -231 -41 -287h-410q-148 0 -285.5 2t-200.5 4l-64 2q-1 1 -1.5 3.5t-1.5 10.5t0 15zM608 1540l242 236q30 8 63 8q15 0 30 -2t22 -4l8 -2l168 -236q-24 -8 -49 -8q-6 0 -13 1t-12.5 2t-10 2t-7.5 2l-2 1l-146 180l-199 -180 q-26 -8 -49 -8q-12 0 -23.5 2t-16.5 4z" />
<glyph unicode="&#xcb;" horiz-adv-x="1110" d="M63 37q1 6 3 11t3.5 8.5t3 6t2.5 4.5l1 1l162 16l198 1266l-155 16q-9 -2 2 41q5 20 8 18q220 9 551 9h399q3 -87 -42 -271l-6 -19q1 1 1 3q-13 -6 -31 -6q-7 0 -13.5 1.5t-9.5 3.5l-3 1l4 196h-570l-86 -561h531l2 -45q-3 -12 -7 -23t-7 -16l-3 -6h-532l-92 -602h577 l56 197q14 6 30 6q7 0 14 -1.5t10 -3.5l3 -1q-13 -231 -41 -287h-410q-148 0 -285.5 2t-200.5 4l-64 2q-1 1 -1.5 3.5t-1.5 10.5t0 15zM612 1542l31 197q24 8 53 8q9 0 17.5 -1t15 -2t11.5 -2t7 -2l3 -1l-31 -197q-26 -8 -55 -8q-14 0 -27 2t-19 4zM1030 1542l31 197 q24 8 55 8q13 0 26 -2t20 -4l7 -2l-32 -197q-27 -8 -56 -8q-14 0 -26.5 2t-18.5 4z" />
<glyph unicode="&#xcc;" horiz-adv-x="585" d="M63 37q1 6 3 11t3.5 8.5t3 6t2.5 4.5l1 1l162 16l198 1266l-155 16q-9 -2 2 41q5 20 8 18q75 13 229 13q69 0 125.5 -3t77.5 -7l22 -3q11 -1 -2 -44q-5 -15 -8 -15l-162 -16l-198 -1266l157 -16q8 1 -5 -48q-4 -13 -5 -12q-75 -12 -231 -12q-68 0 -124.5 3t-78.5 6l-22 3 q-1 1 -1.5 3.5t-1.5 10.5t0 15zM360 1792q33 8 66 8q9 0 19 -1t17 -2t13 -2t9 -2l3 -1l177 -252q-23 -8 -50 -8q-6 0 -13 1t-12.5 2t-10 2t-7.5 2l-2 1z" />
<glyph unicode="&#xcd;" horiz-adv-x="585" d="M63 37q1 6 3 11t3.5 8.5t3 6t2.5 4.5l1 1l162 16l198 1266l-155 16q-9 -2 2 41q5 20 8 18q75 13 229 13q69 0 125.5 -3t77.5 -7l22 -3q11 -1 -2 -44q-5 -15 -8 -15l-162 -16l-198 -1266l157 -16q8 1 -5 -48q-4 -13 -5 -12q-75 -12 -231 -12q-68 0 -124.5 3t-78.5 6l-22 3 q-1 1 -1.5 3.5t-1.5 10.5t0 15zM410 1540l256 252q28 8 63 8q15 0 31 -2t24 -4l9 -2l-289 -252q-26 -8 -49 -8q-12 0 -23 2t-17 4z" />
<glyph unicode="&#xce;" horiz-adv-x="649" d="M96 8q-8 2 6 51l4 10v-1l164 16l199 1266l-158 16l-2 31q2 7 5 14t6 11l2 3q75 13 231 13q68 0 124.5 -3t78.5 -7l22 -3q4 -12 0 -28q-1 -9 -3.5 -16.5t-4.5 -10.5l-2 -4l-164 -16l-198 -1266l157 -16l2 -31l-12 -29q-75 -12 -229 -12q-69 0 -126 3t-80 6zM303 1540 l242 236q28 8 61 8q15 0 30 -2t22 -4l8 -2l168 -236q-23 -8 -50 -8q-10 0 -21 2t-16 4l-6 2l-145 180l-201 -180q-24 -8 -47 -8q-12 0 -23.5 2t-16.5 4z" />
<glyph unicode="&#xcf;" horiz-adv-x="585" d="M63 37q1 6 3 11t3.5 8.5t3 6t2.5 4.5l1 1l162 16l198 1266l-155 16q-9 -2 2 41q5 20 8 18q75 13 229 13q69 0 125.5 -3t77.5 -7l22 -3q11 -1 -2 -44q-5 -15 -8 -15l-162 -16l-198 -1266l157 -16q8 1 -5 -48q-4 -13 -5 -12q-75 -12 -231 -12q-68 0 -124.5 3t-78.5 6l-22 3 q-1 1 -1.5 3.5t-1.5 10.5t0 15zM309 1540l31 199q24 8 53 8q14 0 27 -2t20 -4l6 -2l-30 -199q-27 -8 -56 -8q-14 0 -26.5 2t-18.5 4zM657 1540l31 199q24 8 55 8q9 0 17.5 -1t15 -2t11.5 -2t7 -2l3 -1l-31 -199q-26 -8 -57 -8q-14 0 -27 2t-19 4z" />
<glyph unicode="&#xd0;" horiz-adv-x="1263" d="M63 37q1 8 4 15.5t6 10.5l3 3l162 16l96 610l-158 17q-4 12 0 30l8 29q53 6 164 10l88 574l-155 16q-9 -1 2 41q5 16 8 16q192 15 586 15q250 0 351 -82t75 -242l-125 -799q-27 -160 -154 -241.5t-377 -81.5q-176 0 -321.5 3.5t-202.5 6.5l-57 4q-1 1 -1.5 3.5t-1.5 10 t0 15.5zM375 82h287q185 0 273 57t107 178l125 799q19 122 -50.5 179t-254.5 57h-289l-90 -572h326l2 -43q-2 -12 -6 -22.5t-7 -15.5l-3 -5h-324z" />
<glyph unicode="&#xd1;" horiz-adv-x="1402" d="M63 37q1 6 3 11t3.5 8.5t3 6t2.5 4.5l1 1l162 16l198 1266l-155 16q-9 -2 2 41q5 20 8 18q71 13 221 13q14 0 28 -2t22 -4l7 -2l518 -1197l173 1117l-158 16q-4 11 0 31q1 7 3.5 14t4.5 11l2 3q75 13 229 13q67 0 122.5 -3t77.5 -7l22 -3l2 -28q-2 -9 -5 -16.5t-6 -10.5 l-2 -4l-161 -16l-213 -1346q-31 -8 -62 -8q-13 0 -27 2t-22 4l-8 2l-518 1196l-172 -1116l157 -16l2 -31l-12 -29q-75 -12 -229 -12q-67 0 -122 3t-77 6l-22 3q-1 1 -1.5 3.5t-1.5 10.5t0 15zM653 1542v8q12 85 53 126.5t123 41.5q42 0 73 -12t50 -29t35.5 -34t37.5 -29 t48 -12q54 0 76 24.5t33 81.5q20 10 43 10q8 0 17.5 -2.5t14.5 -5.5l5 -2v-8q-14 -86 -54 -126t-125 -40q-40 0 -71 12t-50.5 28.5t-36 33.5t-37.5 29t-46 12q-51 0 -76 -23t-33 -74v-10q-21 -8 -41 -8q-6 0 -12.5 1t-11 2t-8 2t-5.5 2z" />
<glyph unicode="&#xd2;" horiz-adv-x="1228" d="M186 317l127 799q24 160 151.5 243t377.5 83q249 0 349.5 -82.5t74.5 -243.5l-125 -799q-26 -160 -152.5 -242.5t-376.5 -82.5t-351 82.5t-75 242.5zM322 317q-19 -121 50.5 -178t254.5 -57t272.5 56.5t106.5 178.5l124 799q21 122 -48.5 179t-254.5 57t-272 -57 t-106 -179zM680 1792q32 8 65 8q16 0 32 -2t24 -4l8 -2l176 -252q-24 -8 -49 -8q-10 0 -21.5 2t-17.5 4l-6 2z" />
<glyph unicode="&#xd3;" horiz-adv-x="1228" d="M186 317l127 799q24 160 151.5 243t377.5 83q249 0 349.5 -82.5t74.5 -243.5l-125 -799q-26 -160 -152.5 -242.5t-376.5 -82.5t-351 82.5t-75 242.5zM322 317q-19 -121 50.5 -178t254.5 -57t272.5 56.5t106.5 178.5l124 799q21 122 -48.5 179t-254.5 57t-272 -57 t-106 -179zM731 1540l254 252q31 8 66 8q15 0 30.5 -2t24.5 -4l8 -2l-291 -252q-26 -8 -49 -8q-11 0 -22 2t-16 4z" />
<glyph unicode="&#xd4;" horiz-adv-x="1228" d="M186 317l127 799q24 160 151.5 243t377.5 83q249 0 349.5 -82.5t74.5 -243.5l-125 -799q-26 -160 -152.5 -242.5t-376.5 -82.5t-351 82.5t-75 242.5zM322 317q-19 -121 50.5 -178t254.5 -57t272.5 56.5t106.5 178.5l124 799q21 122 -48.5 179t-254.5 57t-272 -57 t-106 -179zM592 1540l242 236q28 8 63 8q14 0 28.5 -2t22.5 -4l8 -2l166 -236q-20 -8 -47 -8q-10 0 -21.5 2t-17.5 4l-6 2l-145 180l-199 -180q-26 -8 -49 -8q-12 0 -23.5 2t-16.5 4z" />
<glyph unicode="&#xd5;" horiz-adv-x="1228" d="M186 317l127 799q24 160 151.5 243t377.5 83q249 0 349.5 -82.5t74.5 -243.5l-125 -799q-26 -160 -152.5 -242.5t-376.5 -82.5t-351 82.5t-75 242.5zM322 317q-19 -121 50.5 -178t254.5 -57t272.5 56.5t106.5 178.5l124 799q21 122 -48.5 179t-254.5 57t-272 -57 t-106 -179zM565 1542v8q14 86 54.5 127t123.5 41q41 0 72 -12t50 -29t36 -34t37.5 -29t46.5 -12q36 0 58 10.5t33.5 31t17.5 54.5v10q20 10 43 10q5 0 9.5 -0.5t8.5 -1.5t7 -2t5.5 -2t4.5 -2t3 -1l1 -1v-8q-14 -86 -54.5 -126t-124.5 -40q-41 0 -72 12t-50.5 29t-36 33.5 t-37 28.5t-45.5 12q-55 0 -76 -24.5t-33 -82.5q-20 -8 -43 -8q-9 0 -18.5 2t-15.5 4z" />
<glyph unicode="&#xd6;" horiz-adv-x="1228" d="M186 317l127 799q24 160 151.5 243t377.5 83q249 0 349.5 -82.5t74.5 -243.5l-125 -799q-26 -160 -152.5 -242.5t-376.5 -82.5t-351 82.5t-75 242.5zM322 317q-19 -121 50.5 -178t254.5 -57t272.5 56.5t106.5 178.5l124 799q21 122 -48.5 179t-254.5 57t-272 -57 t-106 -179zM596 1540l31 199q22 8 53 8q14 0 27 -2t19 -4l7 -2l-31 -199q-26 -8 -55 -8q-14 0 -26.5 2t-18.5 4zM1014 1540l30 199q23 8 54 8q14 0 27 -2t19 -4l7 -2l-31 -199q-26 -8 -55 -8q-14 0 -26.5 2t-18.5 4z" />
<glyph unicode="&#xd7;" horiz-adv-x="849" d="M147 338l310 276l-224 277q13 19 33 37l43 24l221 -278l310 278q16 -8 32 -24q7 -8 12.5 -17t7.5 -15l1 -5l-309 -277l221 -276q-8 -17 -31 -35q-10 -8 -21 -14t-17 -8l-5 -2l-221 276l-307 -276q-19 6 -33 24q-8 7 -14 16t-8 14z" />
<glyph unicode="&#xd8;" horiz-adv-x="1296" d="M137 4l107 133q-39 71 -21 180l125 799q26 160 153.5 243t375.5 83q234 0 344 -80l53 68q26 8 59 8q13 0 25.5 -2t19.5 -4l6 -2l-106 -134q40 -68 25 -180l-127 -799q-26 -160 -152.5 -242.5t-376.5 -82.5q-240 0 -344 78l-53 -66q-30 -8 -57 -8q-15 0 -29 2t-20 4z M346 268l801 1002q-66 84 -285 84q-188 0 -277 -57.5t-108 -180.5l-125 -799q-6 -27 -6 -49zM377 164q60 -84 285 -84q188 0 277 57t108 180l124 799q5 45 5 51z" />
<glyph unicode="&#xd9;" horiz-adv-x="1388" d="M274 317l162 1033l-155 16q-9 -2 2 41q5 20 8 18q75 13 229 13q67 0 121 -3t75 -7l21 -3q10 -1 -3 -46q-5 -13 -7 -13l-154 -16l-161 -1033q-19 -122 48 -178.5t247 -56.5t265.5 56.5t106.5 178.5l162 1033l-151 16q-4 11 0 31q1 7 3.5 14t4.5 11l2 3q71 13 223 13 q68 0 124.5 -3t78.5 -7l22 -3q4 -12 0 -28q-1 -9 -3.5 -16.5t-4.5 -10.5l-2 -4l-164 -16l-162 -1033q-26 -160 -151 -242.5t-369 -82.5q-245 0 -344.5 82.5t-73.5 242.5zM762 1792q30 8 65 8q16 0 31.5 -2t22.5 -4l8 -2l176 -252q-22 -8 -49 -8q-10 0 -21 2t-16 4l-6 2z" />
<glyph unicode="&#xda;" horiz-adv-x="1388" d="M274 317l162 1033l-155 16q-9 -2 2 41q5 20 8 18q75 13 229 13q67 0 121 -3t75 -7l21 -3q10 -1 -3 -46q-5 -13 -7 -13l-154 -16l-161 -1033q-19 -122 48 -178.5t247 -56.5t265.5 56.5t106.5 178.5l162 1033l-151 16q-4 11 0 31q1 7 3.5 14t4.5 11l2 3q71 13 223 13 q68 0 124.5 -3t78.5 -7l22 -3q4 -12 0 -28q-1 -9 -3.5 -16.5t-4.5 -10.5l-2 -4l-164 -16l-162 -1033q-26 -160 -151 -242.5t-369 -82.5q-245 0 -344.5 82.5t-73.5 242.5zM811 1540l254 252q30 8 65 8q15 0 30.5 -2t23.5 -4l8 -2l-287 -252q-26 -8 -49 -8q-12 0 -23.5 2 t-16.5 4z" />
<glyph unicode="&#xdb;" horiz-adv-x="1388" d="M274 317l162 1033l-155 16q-9 -2 2 41q5 20 8 18q75 13 229 13q67 0 121 -3t75 -7l21 -3q10 -1 -3 -46q-5 -13 -7 -13l-154 -16l-161 -1033q-19 -122 48 -178.5t247 -56.5t265.5 56.5t106.5 178.5l162 1033l-151 16q-4 11 0 31q1 7 3.5 14t4.5 11l2 3q71 13 223 13 q68 0 124.5 -3t78.5 -7l22 -3q4 -12 0 -28q-1 -9 -3.5 -16.5t-4.5 -10.5l-2 -4l-164 -16l-162 -1033q-26 -160 -151 -242.5t-369 -82.5q-245 0 -344.5 82.5t-73.5 242.5zM672 1540l241 236q31 8 64 8q14 0 28 -2t22 -4l7 -2l170 -236q-22 -8 -49 -8q-9 0 -20 2t-18 4l-7 2 l-143 180l-203 -180q-24 -8 -47 -8q-12 0 -23.5 2t-16.5 4z" />
<glyph unicode="&#xdc;" horiz-adv-x="1388" d="M274 317l162 1033l-155 16q-9 -2 2 41q5 20 8 18q75 13 229 13q67 0 121 -3t75 -7l21 -3q10 -1 -3 -46q-5 -13 -7 -13l-154 -16l-161 -1033q-19 -122 48 -178.5t247 -56.5t265.5 56.5t106.5 178.5l162 1033l-151 16q-4 11 0 31q1 7 3.5 14t4.5 11l2 3q71 13 223 13 q68 0 124.5 -3t78.5 -7l22 -3q4 -12 0 -28q-1 -9 -3.5 -16.5t-4.5 -10.5l-2 -4l-164 -16l-162 -1033q-26 -160 -151 -242.5t-369 -82.5q-245 0 -344.5 82.5t-73.5 242.5zM676 1540l31 199q24 8 55 8q13 0 26 -2t20 -4l7 -2l-33 -199q-26 -8 -55 -8q-14 0 -26.5 2t-18.5 4z M1094 1540l30 199q25 8 54 8q14 0 27 -2t20 -4l6 -2l-31 -199q-26 -8 -55 -8q-14 0 -26.5 2t-18.5 4z" />
<glyph unicode="&#xdd;" horiz-adv-x="1323" d="M254 1366q0 1 -0.5 3.5t-1 10.5t1.5 17q1 7 3.5 14t4.5 11l2 3q76 13 195 13q38 0 72.5 -0.5t59.5 -2t46.5 -3t35.5 -2.5t23.5 -2.5t14.5 -1.5l4 -1q10 -1 -3 -46q-5 -13 -7 -13l-152 -14l223 -623l418 623l-145 14q-9 -2 2 41q5 20 8 18q76 13 260 13q53 0 100.5 -3 t68.5 -7l21 -3q8 -2 -6 -50l-4 -10v1l-166 -16l-508 -729l-82 -537l156 -16q10 1 -2 -44q-5 -17 -8 -16q-76 -12 -230 -12q-69 0 -125.5 3t-77.5 6l-22 3q-10 1 3 47q5 13 7 13l164 16l82 534l-278 732zM780 1540l252 252q31 8 66 8q15 0 30 -2t23 -4l8 -2l-287 -252 q-26 -8 -49 -8q-12 0 -23 2t-15 4z" />
<glyph unicode="&#xde;" horiz-adv-x="1126" d="M63 37q1 6 3 11t3.5 8.5t3 6t2.5 4.5l1 1l162 16l198 1266l-155 16q-9 -2 2 41q5 20 8 18q75 13 229 13q69 0 125.5 -3t77.5 -7l22 -3q11 -1 -2 -44q-5 -15 -8 -15l-162 -16l-32 -213q96 6 243 6q205 0 285 -82t53 -242l-22 -151q-26 -159 -132.5 -241.5t-312.5 -82.5 q-64 0 -124 2t-87 4l-28 2l-41 -268l157 -16q8 1 -5 -48q-4 -13 -5 -12q-75 -12 -231 -12q-68 0 -124.5 3t-78.5 6l-22 3q-1 1 -1.5 3.5t-1.5 10.5t0 15zM430 434h236q141 0 210.5 57t90.5 177l20 151q10 59 3.5 103.5t-32.5 74t-74 44t-120 14.5h-238z" />
<glyph unicode="&#xdf;" horiz-adv-x="1302" d="M-100 -356q2 10 6 20.5t7 15.5l3 5q42 -17 100 -17q52 0 85 17.5t51 52t26 90.5l176 1116l-141 19q-8 4 2 40q5 14 8 13q50 10 144 10l20 137q24 138 111 208.5t254 70.5q174 0 239 -70t41 -209l-4 -33q-11 -70 -39.5 -117t-61.5 -71t-65.5 -45t-59 -56.5t-34.5 -88.5 l-4 -31q-6 -36 12 -63.5t51.5 -44t77.5 -33t90.5 -29t90 -33.5t76 -46t48 -66.5t7.5 -94.5l-7 -41q-23 -139 -111 -209.5t-265 -70.5q-58 0 -110 9t-84.5 21.5t-57 25t-34.5 21.5l-11 9q9 61 21 119t20 86l8 28q16 6 39 6q9 0 17 -1.5t12 -3.5l3 -1l-6 -176q85 -57 197 -57 q110 0 162.5 46.5t70.5 147.5l6 41q6 39 -11.5 68t-51.5 46.5t-77.5 34t-90 29t-89.5 32.5t-75.5 44t-48.5 64t-8 92l4 31q9 58 30.5 99t47 62t55 42t54.5 39t45 52.5t28 83.5l4 33q16 95 -21.5 140t-146.5 45q-103 0 -153 -46t-64 -139l-211 -1335q-19 -122 -83 -184 t-185 -62q-77 0 -137 21q-1 2 -1.5 5.5t-1.5 14.5t1 21z" />
<glyph unicode="&#xe0;" horiz-adv-x="1079" d="M184 303l66 418q26 154 115.5 232.5t263.5 78.5q73 0 129 -11.5t84 -28.5t45.5 -34t21.5 -28l4 -12l15 102q32 8 67 8q15 0 30.5 -2t23.5 -4l8 -2l-129 -821q-10 -72 4 -96.5t65 -24.5q13 0 25.5 2t20 4t8.5 2l2 -37q-2 -9 -6 -18.5t-7 -14.5l-4 -6q-54 -18 -106 -18 q-75 0 -104.5 31.5t-24.5 95.5q-6 -5 -17 -13.5t-48.5 -30.5t-78.5 -39t-105 -30.5t-130 -13.5q-152 0 -207 78.5t-31 232.5zM315 303q-19 -116 16 -170.5t142 -54.5q62 0 119 13t93.5 31t64 36.5t39.5 31.5l12 13l80 518q19 116 -36 170.5t-206 54.5q-122 0 -181 -54.5 t-77 -170.5zM510 1430q35 8 68 8q16 0 31 -2t23 -4l7 -2l176 -252q-24 -9 -49 -9q-10 0 -21.5 2.5t-17.5 4.5l-6 2z" />
<glyph unicode="&#xe1;" horiz-adv-x="1079" d="M184 303l66 418q26 154 115.5 232.5t263.5 78.5q73 0 129 -11.5t84 -28.5t45.5 -34t21.5 -28l4 -12l15 102q32 8 67 8q15 0 30.5 -2t23.5 -4l8 -2l-129 -821q-10 -72 4 -96.5t65 -24.5q13 0 25.5 2t20 4t8.5 2l2 -37q-2 -9 -6 -18.5t-7 -14.5l-4 -6q-54 -18 -106 -18 q-75 0 -104.5 31.5t-24.5 95.5q-6 -5 -17 -13.5t-48.5 -30.5t-78.5 -39t-105 -30.5t-130 -13.5q-152 0 -207 78.5t-31 232.5zM315 303q-19 -116 16 -170.5t142 -54.5q62 0 119 13t93.5 31t64 36.5t39.5 31.5l12 13l80 518q19 116 -36 170.5t-206 54.5q-122 0 -181 -54.5 t-77 -170.5zM559 1178l256 252q33 8 66 8q15 0 30 -2t23 -4l8 -2l-289 -252q-26 -9 -49 -9q-11 0 -22.5 2.5t-17.5 4.5z" />
<glyph unicode="&#xe2;" horiz-adv-x="1079" d="M184 303l66 418q26 154 115.5 232.5t263.5 78.5q73 0 129 -11.5t84 -28.5t45.5 -34t21.5 -28l4 -12l15 102q32 8 67 8q15 0 30.5 -2t23.5 -4l8 -2l-129 -821q-10 -72 4 -96.5t65 -24.5q13 0 25.5 2t20 4t8.5 2l2 -37q-2 -9 -6 -18.5t-7 -14.5l-4 -6q-54 -18 -106 -18 q-75 0 -104.5 31.5t-24.5 95.5q-6 -5 -17 -13.5t-48.5 -30.5t-78.5 -39t-105 -30.5t-130 -13.5q-152 0 -207 78.5t-31 232.5zM315 303q-19 -116 16 -170.5t142 -54.5q62 0 119 13t93.5 31t64 36.5t39.5 31.5l12 13l80 518q19 116 -36 170.5t-206 54.5q-122 0 -181 -54.5 t-77 -170.5zM422 1194l244 236q30 8 63 8q14 0 28.5 -2t22.5 -4l8 -2l166 -236q-20 -8 -47 -8q-9 0 -20 2t-18 4l-7 2l-143 178l-203 -178q-24 -8 -47 -8q-12 0 -24 2t-17 4z" />
<glyph unicode="&#xe3;" horiz-adv-x="1079" d="M184 303l66 418q26 154 115.5 232.5t263.5 78.5q73 0 129 -11.5t84 -28.5t45.5 -34t21.5 -28l4 -12l15 102q32 8 67 8q15 0 30.5 -2t23.5 -4l8 -2l-129 -821q-10 -72 4 -96.5t65 -24.5q13 0 25.5 2t20 4t8.5 2l2 -37q-2 -9 -6 -18.5t-7 -14.5l-4 -6q-54 -18 -106 -18 q-75 0 -104.5 31.5t-24.5 95.5q-6 -5 -17 -13.5t-48.5 -30.5t-78.5 -39t-105 -30.5t-130 -13.5q-152 0 -207 78.5t-31 232.5zM315 303q-19 -116 16 -170.5t142 -54.5q62 0 119 13t93.5 31t64 36.5t39.5 31.5l12 13l80 518q19 116 -36 170.5t-206 54.5q-122 0 -181 -54.5 t-77 -170.5zM408 1260q18 91 56 133.5t124 42.5q41 0 71.5 -12t49 -29.5t34.5 -34.5t37 -29t47 -12q54 0 75.5 25t33.5 83q22 9 45 9q9 0 18 -2t14 -4l5 -3l-2 -10q-13 -84 -53 -125t-123 -41q-41 0 -72.5 12t-50.5 28.5t-36 33.5t-38 29t-47 12q-50 0 -73 -22.5t-31 -73.5 l-3 -10q-20 -9 -43 -9q-9 0 -18.5 2.5t-14.5 4.5z" />
<glyph unicode="&#xe4;" horiz-adv-x="1079" d="M184 303l66 418q26 154 115.5 232.5t263.5 78.5q73 0 129 -11.5t84 -28.5t45.5 -34t21.5 -28l4 -12l15 102q32 8 67 8q15 0 30.5 -2t23.5 -4l8 -2l-129 -821q-10 -72 4 -96.5t65 -24.5q13 0 25.5 2t20 4t8.5 2l2 -37q-2 -9 -6 -18.5t-7 -14.5l-4 -6q-54 -18 -106 -18 q-75 0 -104.5 31.5t-24.5 95.5q-6 -5 -17 -13.5t-48.5 -30.5t-78.5 -39t-105 -30.5t-130 -13.5q-152 0 -207 78.5t-31 232.5zM315 303q-19 -116 16 -170.5t142 -54.5q62 0 119 13t93.5 31t64 36.5t39.5 31.5l12 13l80 518q19 116 -36 170.5t-206 54.5q-122 0 -181 -54.5 t-77 -170.5zM434 1231l31 199q24 8 55 8q14 0 26.5 -2t18.5 -4l6 -2l-30 -199q-27 -8 -56 -8q-14 0 -26.5 2t-18.5 4zM850 1231l31 199q26 8 57 8q13 0 25.5 -2t18.5 -4l7 -2l-31 -199q-26 -8 -55 -8q-14 0 -27 2t-20 4z" />
<glyph unicode="&#xe5;" horiz-adv-x="1079" d="M184 303l66 418q26 154 115.5 232.5t263.5 78.5q73 0 129 -11.5t84 -28.5t45.5 -34t21.5 -28l4 -12l15 102q32 8 67 8q15 0 30.5 -2t23.5 -4l8 -2l-129 -821q-10 -72 4 -96.5t65 -24.5q13 0 25.5 2t20 4t8.5 2l2 -37q-2 -9 -6 -18.5t-7 -14.5l-4 -6q-54 -18 -106 -18 q-75 0 -104.5 31.5t-24.5 95.5q-6 -5 -17 -13.5t-48.5 -30.5t-78.5 -39t-105 -30.5t-130 -13.5q-152 0 -207 78.5t-31 232.5zM315 303q-19 -116 16 -170.5t142 -54.5q62 0 119 13t93.5 31t64 36.5t39.5 31.5l12 13l80 518q19 116 -36 170.5t-206 54.5q-122 0 -181 -54.5 t-77 -170.5zM541 1268l6 35q20 137 182 137q83 0 115.5 -35.5t23.5 -101.5l-6 -35q-20 -138 -182 -138q-82 0 -116 37t-23 101zM606 1268q-6 -41 13 -60.5t71 -19.5q95 0 107 80l6 35q5 41 -13.5 60t-68.5 19q-53 0 -78.5 -19t-30.5 -60z" />
<glyph unicode="&#xe6;" horiz-adv-x="1624" d="M164 258l6 35q19 123 111.5 189t285.5 87l283 31l20 127q16 114 -33 166.5t-190 52.5q-130 0 -241 -57l-50 -176q-17 -6 -37 -6q-10 0 -18.5 1.5t-12.5 3.5l-3 1q1 96 24 233l15 9t44 21t72 26t98 20.5t124 9.5q133 0 205 -39t94 -116q88 155 331 155q104 0 173.5 -21 t104.5 -60.5t46 -97.5t-2 -132l-39 -232q-119 -14 -309 -14h-308l-26 -172q-18 -117 33 -171t198 -54q91 0 175 19.5t122 38.5l39 20q1 -2 1.5 -5t1.5 -14.5t-1 -23.5t-6.5 -22.5t-8.5 -15.5l-3 -5q-5 -3 -14.5 -8.5t-42.5 -19t-70 -23.5t-96 -18.5t-121 -8.5 q-263 0 -299 168q-111 -168 -449 -168q-143 0 -195.5 67t-31.5 199zM295 258q-16 -93 17.5 -136.5t133.5 -43.5q174 0 256 54.5t101 170.5l33 213l-265 -31q-135 -14 -196.5 -60.5t-75.5 -131.5zM971 559h491l27 162q18 117 -29 171t-182 54q-134 0 -198.5 -54.5 t-82.5 -170.5z" />
<glyph unicode="&#xe7;" horiz-adv-x="997" d="M184 303l66 418q13 76 42.5 132t81 97t129.5 61.5t183 20.5q65 0 123.5 -9t95.5 -21.5t64 -25t39 -21.5l12 -9q-10 -61 -23 -119t-20 -86l-8 -28q-17 -6 -37 -6q-10 0 -19 1.5t-12 3.5l-4 1l8 180q-97 53 -233 53q-73 0 -124.5 -14t-85.5 -43t-53 -69.5t-28 -98.5 l-66 -418q-10 -56 -3 -98.5t33 -70.5t76.5 -42t127.5 -14q33 0 65.5 2.5t61 7t55 10t49 12t42 13t35 12.5t26 10.5l17.5 7.5l7 3q-1 0 0.5 -5.5t2.5 -15t-1 -22.5q-2 -12 -6.5 -22.5t-8.5 -15.5l-3 -5q-6 -3 -16.5 -8t-45.5 -17.5t-72.5 -22.5t-96 -19t-117.5 -11l-2 -15 q-4 -29 7 -46t29 -25t36 -16.5t28.5 -29t5.5 -53.5q-11 -67 -60 -105t-132 -38q-43 0 -77 10t-46 20l-13 9q-1 1 -1.5 4t-1.5 11t1 16q1 8 4 15.5t6 10.5l3 4q47 -34 123 -34q52 0 79 18.5t33 58.5q3 18 -5.5 30t-22.5 16.5t-30 12.5t-29 18t-19 34t0 59l2 17 q-169 10 -234.5 88.5t-42.5 220.5zM907 156z" />
<glyph unicode="&#xe8;" horiz-adv-x="1050" d="M184 303l66 418q10 60 31 108t56 86.5t84.5 64t116.5 39t152 13.5q107 0 179.5 -21t109.5 -60.5t48.5 -97.5t-1.5 -132l-37 -232q-124 -14 -325 -14h-324l-25 -172q-19 -117 35 -171t209 -54q34 0 68.5 2.5t64 7t57.5 10t52 12t44 13t36.5 12.5t27.5 10.5t18 7.5l7 3 q-1 0 0.5 -5.5t2.5 -15t-1 -22.5q-2 -12 -6.5 -22.5t-7.5 -15.5l-4 -5q-6 -3 -17.5 -8.5t-49.5 -19t-79.5 -23.5t-106 -18.5t-130.5 -8.5q-212 0 -293.5 78.5t-57.5 232.5zM354 559h523l26 162q18 117 -32 171t-194.5 54t-211 -54t-84.5 -171zM535 1430q32 8 65 8 q16 0 31.5 -2t22.5 -4l8 -2l176 -252q-23 -9 -50 -9q-10 0 -21.5 2t-17.5 5l-6 2zM934 156z" />
<glyph unicode="&#xe9;" horiz-adv-x="1050" d="M184 303l66 418q10 60 31 108t56 86.5t84.5 64t116.5 39t152 13.5q107 0 179.5 -21t109.5 -60.5t48.5 -97.5t-1.5 -132l-37 -232q-124 -14 -325 -14h-324l-25 -172q-19 -117 35 -171t209 -54q34 0 68.5 2.5t64 7t57.5 10t52 12t44 13t36.5 12.5t27.5 10.5t18 7.5l7 3 q-1 0 0.5 -5.5t2.5 -15t-1 -22.5q-2 -12 -6.5 -22.5t-7.5 -15.5l-4 -5q-6 -3 -17.5 -8.5t-49.5 -19t-79.5 -23.5t-106 -18.5t-130.5 -8.5q-212 0 -293.5 78.5t-57.5 232.5zM354 559h523l26 162q18 117 -32 171t-194.5 54t-211 -54t-84.5 -171zM584 1178l254 252q30 8 65 8 q15 0 30.5 -2t23.5 -4l8 -2l-289 -252q-26 -9 -49 -9q-11 0 -22 2t-16 5zM934 156z" />
<glyph unicode="&#xea;" horiz-adv-x="1050" d="M184 303l66 418q10 60 31 108t56 86.5t84.5 64t116.5 39t152 13.5q107 0 179.5 -21t109.5 -60.5t48.5 -97.5t-1.5 -132l-37 -232q-124 -14 -325 -14h-324l-25 -172q-19 -117 35 -171t209 -54q34 0 68.5 2.5t64 7t57.5 10t52 12t44 13t36.5 12.5t27.5 10.5t18 7.5l7 3 q-1 0 0.5 -5.5t2.5 -15t-1 -22.5q-2 -12 -6.5 -22.5t-7.5 -15.5l-4 -5q-6 -3 -17.5 -8.5t-49.5 -19t-79.5 -23.5t-106 -18.5t-130.5 -8.5q-212 0 -293.5 78.5t-57.5 232.5zM354 559h523l26 162q18 117 -32 171t-194.5 54t-211 -54t-84.5 -171zM446 1194l242 236q31 8 64 8 q15 0 29.5 -2t22.5 -4l7 -2l166 -236q-20 -8 -45 -8q-6 0 -13.5 1t-13 2t-10.5 2t-7 2l-3 1l-144 178l-200 -178q-26 -8 -49 -8q-12 0 -23.5 2t-17.5 4zM934 156z" />
<glyph unicode="&#xeb;" horiz-adv-x="1050" d="M184 303l66 418q10 60 31 108t56 86.5t84.5 64t116.5 39t152 13.5q107 0 179.5 -21t109.5 -60.5t48.5 -97.5t-1.5 -132l-37 -232q-124 -14 -325 -14h-324l-25 -172q-19 -117 35 -171t209 -54q34 0 68.5 2.5t64 7t57.5 10t52 12t44 13t36.5 12.5t27.5 10.5t18 7.5l7 3 q-1 0 0.5 -5.5t2.5 -15t-1 -22.5q-2 -12 -6.5 -22.5t-7.5 -15.5l-4 -5q-6 -3 -17.5 -8.5t-49.5 -19t-79.5 -23.5t-106 -18.5t-130.5 -8.5q-212 0 -293.5 78.5t-57.5 232.5zM354 559h523l26 162q18 117 -32 171t-194.5 54t-211 -54t-84.5 -171zM457 1231l30 199q25 8 56 8 q14 0 26.5 -2t18.5 -4l6 -2l-31 -199q-26 -8 -55 -8q-14 0 -26.5 2t-18.5 4zM874 1231l31 199q27 8 56 8q14 0 26.5 -2t18.5 -4l6 -2l-31 -199q-24 -8 -55 -8q-9 0 -17.5 1t-14.5 2t-10.5 2t-7.5 2zM934 156z" />
<glyph unicode="&#xec;" horiz-adv-x="540" d="M211 989l10 27q64 12 191 12q21 0 42 -2t31 -4l11 -2l-131 -838q-9 -54 7 -79t66 -25q39 0 51 6q8 -4 -6 -60q-4 -17 -6 -16q-56 -16 -100 -16q-91 0 -124 48t-17 142l118 760l-141 21zM279 1430q34 8 67 8q16 0 31.5 -2t22.5 -4l8 -2l176 -252q-24 -9 -49 -9 q-10 0 -21.5 2.5t-18.5 4.5l-6 2z" />
<glyph unicode="&#xed;" horiz-adv-x="546" d="M211 989l10 27q64 12 191 12q21 0 42 -2t32 -4l10 -2l-131 -838q-9 -54 7 -79t66 -25q39 0 51 6q1 -2 1.5 -5.5t1.5 -14.5t0 -19q-2 -9 -5.5 -18t-6.5 -14l-3 -5q-48 -16 -98 -16q-92 0 -125.5 48t-17.5 142l118 760l-141 21zM330 1178l254 252q32 8 65 8q16 0 32 -2 t24 -4l8 -2l-291 -252q-26 -9 -49 -9q-11 0 -22 2.5t-16 4.5z" />
<glyph unicode="&#xee;" horiz-adv-x="536" d="M190 1194l242 236q31 8 62 8q15 0 30 -2t23 -4l8 -2l166 -236q-20 -8 -47 -8q-10 0 -21.5 2t-17.5 4l-6 2l-144 178l-202 -178q-24 -8 -47 -8q-11 0 -22.5 2t-17.5 4zM209 989l12 27q62 12 189 12q21 0 42 -2t31 -4l11 -2l-132 -838q-8 -54 8.5 -79t65.5 -25q39 0 51 6 q9 -5 -6 -58q-5 -19 -8 -18q-48 -16 -98 -16q-173 0 -142 190l119 760l-139 21q-1 1 -2 3t-2 9t0 14z" />
<glyph unicode="&#xef;" horiz-adv-x="540" d="M211 989l10 27q64 12 191 12q21 0 42 -2t32 -4l10 -2l-131 -838q-9 -54 7 -79t66 -25q39 0 51 6q1 -2 1.5 -5.5t1.5 -14.5t0 -19q-2 -9 -5.5 -18t-6.5 -14l-3 -5q-48 -16 -98 -16q-92 0 -125.5 48t-17.5 142l118 760l-141 21zM262 1231l31 199q24 8 55 8q14 0 26 -2 t18 -4l5 -2l-30 -199q-25 -8 -54 -8q-14 0 -26.5 2t-18.5 4zM561 1231l31 199q26 8 55 8q14 0 27 -2t20 -4l6 -2l-30 -199q-27 -8 -58 -8q-14 0 -26.5 2t-18.5 4z" />
<glyph unicode="&#xf0;" horiz-adv-x="1036" d="M184 303l66 418q26 154 107.5 232.5t238.5 78.5q67 0 126.5 -12.5t97 -30t66 -35.5t40.5 -30l12 -13l16 115q19 126 -108 213l-113 -100q-28 -9 -53 -9q-11 0 -22.5 2t-17.5 4l-5 3l149 137q-68 35 -157 59t-144 31l-55 6q-1 2 -1.5 5t-1.5 14.5t1 23.5t6 22.5t7 14.5 l3 4q27 -2 71.5 -7t157 -31.5t195.5 -65.5l86 78q27 8 56 8q13 0 25.5 -2t18.5 -4l7 -2l-127 -115q180 -111 153 -289l-114 -723q-26 -153 -131.5 -232t-309.5 -79q-207 0 -288.5 79t-57.5 232zM313 303q-19 -116 33.5 -170.5t196.5 -54.5q142 0 211 54.5t88 170.5l80 514 q-3 5 -9 14t-30 31t-55 39t-86.5 31t-120.5 14q-115 0 -169.5 -54t-72.5 -171z" />
<glyph unicode="&#xf1;" horiz-adv-x="1177" d="M207 4l147 938l-141 21l-2 26l10 27q64 12 191 12q20 0 41 -2t32 -4l11 -2l-17 -109q6 5 16.5 13t46 29t74.5 37t100 29t124 13q156 0 212.5 -78t32.5 -233l-84 -539q-9 -54 7 -79t67 -25q39 0 51 6q4 -19 0 -39q-1 -9 -4 -18t-6 -14l-2 -5q-48 -16 -98 -16 q-92 0 -126 48t-18 142l84 539q18 117 -19.5 171t-150.5 54q-61 0 -117 -13.5t-92 -32t-63 -37.5t-39 -33l-12 -13l-127 -813q-35 -8 -68 -8q-15 0 -30 2t-23 4zM494 1260l2 10q13 83 53.5 124.5t122.5 41.5q51 0 87.5 -18.5t53.5 -40t43 -40t57 -18.5q54 0 75.5 25t33.5 83 q22 9 45 9q9 0 18 -2t14 -4l5 -3v-10q-14 -84 -55 -125t-125 -41q-40 0 -71.5 12t-50.5 28.5t-36 33.5t-38 29t-46 12q-51 0 -73.5 -22.5t-30.5 -73.5l-3 -10q-20 -9 -43 -9q-10 0 -19.5 2.5t-14.5 4.5z" />
<glyph unicode="&#xf2;" horiz-adv-x="1069" d="M184 303l66 418q26 153 132.5 232t315.5 79q207 0 289.5 -79.5t56.5 -231.5l-65 -418q-24 -153 -131.5 -232t-315.5 -79t-290 79t-58 232zM315 303q-19 -116 33.5 -170.5t198.5 -54.5q144 0 214 54.5t89 170.5l65 418q18 116 -34.5 170.5t-196.5 54.5 q-146 0 -215.5 -54.5t-87.5 -170.5zM545 1430q32 8 65 8q16 0 31.5 -2t22.5 -4l8 -2l176 -252q-22 -9 -49 -9q-10 0 -21.5 2.5t-17.5 4.5l-6 2z" />
<glyph unicode="&#xf3;" horiz-adv-x="1069" d="M184 303l66 418q26 153 132.5 232t315.5 79q207 0 289.5 -79.5t56.5 -231.5l-65 -418q-24 -153 -131.5 -232t-315.5 -79t-290 79t-58 232zM315 303q-19 -116 33.5 -170.5t198.5 -54.5q144 0 214 54.5t89 170.5l65 418q18 116 -34.5 170.5t-196.5 54.5 q-146 0 -215.5 -54.5t-87.5 -170.5zM592 1178l256 252q30 8 63 8q15 0 31 -2t24 -4l9 -2l-289 -252q-26 -9 -49 -9q-12 0 -23 2.5t-16 4.5z" />
<glyph unicode="&#xf4;" horiz-adv-x="1069" d="M184 303l66 418q26 153 132.5 232t315.5 79q207 0 289.5 -79.5t56.5 -231.5l-65 -418q-24 -153 -131.5 -232t-315.5 -79t-290 79t-58 232zM315 303q-19 -116 33.5 -170.5t198.5 -54.5q144 0 214 54.5t89 170.5l65 418q18 116 -34.5 170.5t-196.5 54.5 q-146 0 -215.5 -54.5t-87.5 -170.5zM457 1194l241 236q31 8 64 8q14 0 28.5 -2t22.5 -4l8 -2l166 -236q-20 -8 -47 -8q-9 0 -20 2t-18 4l-7 2l-143 178l-203 -178q-24 -8 -47 -8q-12 0 -23.5 2t-16.5 4z" />
<glyph unicode="&#xf5;" horiz-adv-x="1069" d="M184 303l66 418q26 153 132.5 232t315.5 79q207 0 289.5 -79.5t56.5 -231.5l-65 -418q-24 -153 -131.5 -232t-315.5 -79t-290 79t-58 232zM315 303q-19 -116 33.5 -170.5t198.5 -54.5q144 0 214 54.5t89 170.5l65 418q18 116 -34.5 170.5t-196.5 54.5 q-146 0 -215.5 -54.5t-87.5 -170.5zM442 1260l2 10q13 83 53.5 124.5t123.5 41.5q41 0 71.5 -12t49 -29.5t35 -34.5t37.5 -29t48 -12q53 0 75 25t34 83q20 9 43 9q9 0 18 -2t14 -5l5 -2l-2 -10q-13 -83 -53.5 -124.5t-123.5 -41.5q-40 0 -71 12t-50.5 28.5t-36.5 33.5 t-38 29t-47 12q-28 0 -46.5 -6.5t-30.5 -21t-18 -32t-12 -46.5q-21 -9 -41 -9q-10 0 -20 2.5t-15 4.5z" />
<glyph unicode="&#xf6;" horiz-adv-x="1069" d="M184 303l66 418q26 153 132.5 232t315.5 79q207 0 289.5 -79.5t56.5 -231.5l-65 -418q-24 -153 -131.5 -232t-315.5 -79t-290 79t-58 232zM315 303q-19 -116 33.5 -170.5t198.5 -54.5q144 0 214 54.5t89 170.5l65 418q18 116 -34.5 170.5t-196.5 54.5 q-146 0 -215.5 -54.5t-87.5 -170.5zM467 1231l31 199q24 8 55 8q14 0 26.5 -2t18.5 -4l6 -2l-31 -199q-26 -8 -55 -8q-14 0 -26.5 2t-18.5 4zM883 1231l32 199q25 8 56 8q14 0 26.5 -2t18.5 -4l6 -2l-31 -199q-26 -8 -55 -8q-14 0 -27 2t-19 4z" />
<glyph unicode="&#xf7;" horiz-adv-x="858" d="M190 567q-6 16 0 43q2 11 6 21.5t8 14.5l3 5h651q6 -16 0 -41q-2 -12 -5.5 -23t-6.5 -15l-2 -5h-654zM412 229l28 177q25 6 54 6l53 -6l-29 -177q-28 -6 -55 -6zM506 815l26 174q27 8 56 8q12 0 24 -2t18 -4l7 -2l-27 -174q-28 -8 -53 -8q-13 0 -25.5 2t-19.5 4z" />
<glyph unicode="&#xf8;" horiz-adv-x="1085" d="M141 4l82 98q-52 75 -30 201l65 418q26 153 133 232t316 79q165 0 251 -53l33 41q22 8 49 8q12 0 24 -2t18 -4l5 -2l-73 -88q61 -72 39 -211l-66 -418q-24 -153 -131 -232t-315 -79q-182 0 -265 57l-38 -45q-30 -8 -50 -8q-13 0 -24.5 2t-17.5 4zM309 203l582 698 q-60 51 -199 51q-151 0 -223.5 -56t-91.5 -175l-66 -418q-10 -63 -2 -100zM344 131q53 -59 211 -59q150 0 222 56t93 175l66 418q9 71 -4 115z" />
<glyph unicode="&#xf9;" horiz-adv-x="1185" d="M211 989l10 27q64 12 191 12q20 0 41 -2t32 -4l11 -2l-113 -717q-18 -117 18 -171t148 -54q63 0 120.5 13.5t95 32t65.5 37.5t40 33l13 13l127 813q32 8 67 8q15 0 30.5 -2t23.5 -4l8 -2l-129 -821q-10 -72 4 -96.5t65 -24.5q13 0 25.5 2t20 4t8.5 2l2 -37 q-2 -9 -5.5 -18.5t-6.5 -14.5l-3 -6q-63 -18 -106 -18q-78 0 -107 31t-24 96q-6 -5 -17.5 -13.5t-50 -30.5t-80.5 -39t-107.5 -30.5t-133.5 -13.5q-155 0 -210.5 78.5t-29.5 232.5l100 639l-141 21zM598 1430q35 8 68 8q16 0 31 -2t23 -4l7 -2l176 -252q-22 -9 -49 -9 q-10 0 -21.5 2.5t-17.5 4.5l-6 2z" />
<glyph unicode="&#xfa;" horiz-adv-x="1185" d="M211 989l10 27q64 12 191 12q20 0 41 -2t32 -4l11 -2l-113 -717q-18 -117 18 -171t148 -54q63 0 120.5 13.5t95 32t65.5 37.5t40 33l13 13l127 813q32 8 67 8q15 0 30.5 -2t23.5 -4l8 -2l-129 -821q-10 -72 4 -96.5t65 -24.5q13 0 25.5 2t20 4t8.5 2l2 -37 q-2 -9 -5.5 -18.5t-6.5 -14.5l-3 -6q-63 -18 -106 -18q-78 0 -107 31t-24 96q-6 -5 -17.5 -13.5t-50 -30.5t-80.5 -39t-107.5 -30.5t-133.5 -13.5q-155 0 -210.5 78.5t-29.5 232.5l100 639l-141 21zM649 1178l254 252q33 8 68 8q14 0 28.5 -2t22.5 -4l8 -2l-287 -252 q-29 -9 -49 -9q-12 0 -23 2.5t-17 4.5z" />
<glyph unicode="&#xfb;" horiz-adv-x="1185" d="M211 989l10 27q64 12 191 12q20 0 41 -2t32 -4l11 -2l-113 -717q-18 -117 18 -171t148 -54q63 0 120.5 13.5t95 32t65.5 37.5t40 33l13 13l127 813q32 8 67 8q15 0 30.5 -2t23.5 -4l8 -2l-129 -821q-10 -72 4 -96.5t65 -24.5q13 0 25.5 2t20 4t8.5 2l2 -37 q-2 -9 -5.5 -18.5t-6.5 -14.5l-3 -6q-63 -18 -106 -18q-78 0 -107 31t-24 96q-6 -5 -17.5 -13.5t-50 -30.5t-80.5 -39t-107.5 -30.5t-133.5 -13.5q-155 0 -210.5 78.5t-29.5 232.5l100 639l-141 21zM512 1194l242 236q30 8 63 8q15 0 30 -2t23 -4l7 -2l165 -236 q-20 -8 -45 -8q-10 0 -22 2t-19 4l-6 2l-143 178l-201 -178q-26 -8 -49 -8q-12 0 -23.5 2t-16.5 4z" />
<glyph unicode="&#xfc;" horiz-adv-x="1185" d="M211 989l10 27q64 12 191 12q20 0 41 -2t32 -4l11 -2l-113 -717q-18 -117 18 -171t148 -54q63 0 120.5 13.5t95 32t65.5 37.5t40 33l13 13l127 813q32 8 67 8q15 0 30.5 -2t23.5 -4l8 -2l-129 -821q-10 -72 4 -96.5t65 -24.5q13 0 25.5 2t20 4t8.5 2l2 -37 q-2 -9 -5.5 -18.5t-6.5 -14.5l-3 -6q-63 -18 -106 -18q-78 0 -107 31t-24 96q-6 -5 -17.5 -13.5t-50 -30.5t-80.5 -39t-107.5 -30.5t-133.5 -13.5q-155 0 -210.5 78.5t-29.5 232.5l100 639l-141 21zM522 1231l31 199q24 8 55 8q14 0 26.5 -2t18.5 -4l6 -2l-30 -199 q-27 -8 -56 -8q-14 0 -26.5 2t-18.5 4zM940 1231l31 199q24 8 55 8q14 0 27 -2t19 -4l7 -2l-30 -199q-29 -8 -58 -8q-14 0 -26.5 2t-18.5 4z" />
<glyph unicode="&#xfd;" horiz-adv-x="1130" d="M180 -336q2 12 6 23t8 15l3 5q120 -39 313 -39q105 0 171 26t98.5 74t45.5 126l31 208q0 -1 -14 -12t-43.5 -27.5t-68 -32.5t-96.5 -27t-120 -11q-166 0 -226 78.5t-34 232.5l100 639l-141 21l-2 26l10 27q64 12 191 12q20 0 41 -2t32 -4l11 -2l-113 -717 q-18 -117 18 -171t148 -54q62 0 118 13.5t92 32t63.5 37.5t39.5 33l12 13l130 813q32 8 65 8q16 0 32 -2t24 -4l8 -2l-179 -1126q-24 -154 -132.5 -233t-325.5 -79q-89 0 -167.5 10t-112.5 20l-34 9q-1 2 -1.5 5t-1.5 14.5t1 23.5zM641 1178l254 252q31 8 66 8q15 0 30.5 -2 t24.5 -4l8 -2l-291 -252q-27 -9 -47 -9q-12 0 -23 2.5t-17 4.5z" />
<glyph unicode="&#xfe;" horiz-adv-x="1069" d="M115 -406l278 1758l-141 20q-4 11 0 27q1 6 3.5 12.5t4.5 10.5l2 3q64 13 191 13q21 0 42 -2t31 -4l11 -2l-82 -519q6 5 16.5 13t46.5 29t75.5 37t101.5 29t126 13q152 0 208 -79t32 -232l-66 -418q-26 -154 -117.5 -232.5t-269.5 -78.5q-67 0 -121 11t-82 24.5t-48 32 t-25 26.5t-8 16l-78 -508q-33 -8 -66 -8q-16 0 -32 2t-24 4zM358 303q-19 -116 36.5 -170.5t207.5 -54.5q125 0 185 54t79 171l66 418q18 117 -18 171t-146 54q-62 0 -119 -13.5t-94 -32t-64.5 -37.5t-40.5 -33l-12 -13z" />
<glyph unicode="&#xff;" horiz-adv-x="1130" d="M180 -336q2 12 6 23t8 15l3 5q120 -39 313 -39q105 0 171 26t98.5 74t45.5 126l31 208q0 -1 -14 -12t-43.5 -27.5t-68 -32.5t-96.5 -27t-120 -11q-166 0 -226 78.5t-34 232.5l100 639l-141 21l-2 26l10 27q64 12 191 12q20 0 41 -2t32 -4l11 -2l-113 -717 q-18 -117 18 -171t148 -54q62 0 118 13.5t92 32t63.5 37.5t39.5 33l12 13l130 813q32 8 65 8q16 0 32 -2t24 -4l8 -2l-179 -1126q-24 -154 -132.5 -233t-325.5 -79q-89 0 -167.5 10t-112.5 20l-34 9q-1 2 -1.5 5t-1.5 14.5t1 23.5zM514 1231l31 199q24 8 55 8q14 0 26.5 -2 t18.5 -4l6 -2l-30 -199q-27 -8 -56 -8q-14 0 -26.5 2t-18.5 4zM932 1231l31 199q24 8 55 8q14 0 26.5 -2t18.5 -4l6 -2l-31 -199q-26 -8 -55 -8q-14 0 -26.5 2t-18.5 4z" />
<glyph unicode="&#x152;" horiz-adv-x="1652" d="M172 317l125 799q26 160 153 242t377 82q116 0 306 -19q175 13 329 13h322q2 -44 -10.5 -116t-25.5 -122l-13 -49q-13 -6 -31 -6q-7 0 -13.5 1.5t-8.5 3.5l-3 1l4 196h-514l-86 -561h533l2 -45q-3 -12 -7.5 -23.5t-8.5 -16.5l-3 -5h-532l-92 -602h520l57 197q15 6 31 6 q7 0 14 -1.5t10 -3.5l3 -1q-13 -231 -41 -287h-332q-180 0 -330 12q-90 -18 -309 -18q-250 0 -351 81.5t-75 241.5zM307 317q-19 -121 50.5 -178t254.5 -57h228l200 1270h-229q-185 0 -272.5 -57t-106.5 -179z" />
<glyph unicode="&#x153;" horiz-adv-x="1718" d="M184 303l66 418q26 153 132.5 232t315.5 79q264 0 306 -160q89 160 352 160q107 0 179 -21t109 -60.5t49 -97.5t-1 -132l-37 -232q-125 -14 -326 -14h-323l-27 -172q-18 -117 36 -171t210 -54q95 0 183 19.5t128 38.5l41 20q1 -2 1.5 -5t1.5 -14.5t-1 -23.5t-6.5 -22.5 t-8.5 -15.5l-3 -5q-5 -3 -15 -8.5t-44.5 -19t-73.5 -23.5t-101.5 -18.5t-128.5 -8.5q-265 0 -307 162q-92 -162 -359 -162q-208 0 -290 79t-58 232zM315 303q-19 -116 33.5 -170.5t198.5 -54.5q144 0 214 54.5t89 170.5l65 418q18 116 -34.5 170.5t-196.5 54.5 q-146 0 -215.5 -54.5t-87.5 -170.5zM1020 559h522l25 162q19 116 -31.5 170.5t-194.5 54.5t-210.5 -54t-86.5 -171z" />
<glyph unicode="&#x178;" horiz-adv-x="1323" d="M254 1366q0 1 -0.5 3.5t-1 10.5t1.5 17q1 7 3.5 14t4.5 11l2 3q76 13 195 13q38 0 72.5 -0.5t59.5 -2t46.5 -3t35.5 -2.5t23.5 -2.5t14.5 -1.5l4 -1q10 -1 -3 -46q-5 -13 -7 -13l-152 -14l223 -623l418 623l-145 14q-9 -2 2 41q5 20 8 18q76 13 260 13q53 0 100.5 -3 t68.5 -7l21 -3q8 -2 -6 -50l-4 -10v1l-166 -16l-508 -729l-82 -537l156 -16q10 1 -2 -44q-5 -17 -8 -16q-76 -12 -230 -12q-69 0 -125.5 3t-77.5 6l-22 3q-10 1 3 47q5 13 7 13l164 16l82 534l-278 732zM643 1540l31 199q24 8 53 8q14 0 27 -2t20 -4l6 -2l-30 -199 q-27 -8 -56 -8q-14 0 -26.5 2t-18.5 4zM1061 1540l31 199q24 8 55 8q13 0 25.5 -2t19.5 -4l6 -2l-31 -199q-26 -8 -55 -8q-14 0 -26.5 2t-18.5 4z" />
<glyph unicode="&#x2c6;" horiz-adv-x="413" d="M129 1194l242 236q30 8 61 8q15 0 30.5 -2t23.5 -4l8 -2l165 -236q-20 -8 -47 -8q-10 0 -21.5 2t-17.5 4l-6 2l-143 178l-203 -178q-24 -8 -47 -8q-11 0 -22.5 2t-17.5 4z" />
<glyph unicode="&#x2dc;" horiz-adv-x="815" d="M313 1260l2 10q13 83 54 124.5t123 41.5q41 0 72 -12t49.5 -29.5t35 -34.5t37.5 -29t47 -12q54 0 75.5 25t33.5 83q23 9 43 9q10 0 20 -2t15 -4l4 -3l-2 -10q-13 -84 -54 -125t-125 -41q-40 0 -71 12t-50.5 28.5t-36 33.5t-37.5 29t-46 12q-54 0 -74.5 -24t-32.5 -82 q-20 -9 -43 -9q-10 0 -20 2.5t-14 4.5z" />
<glyph unicode="&#x2000;" horiz-adv-x="916" />
<glyph unicode="&#x2001;" horiz-adv-x="1833" />
<glyph unicode="&#x2002;" horiz-adv-x="916" />
<glyph unicode="&#x2003;" horiz-adv-x="1833" />
<glyph unicode="&#x2004;" horiz-adv-x="611" />
<glyph unicode="&#x2005;" horiz-adv-x="458" />
<glyph unicode="&#x2006;" horiz-adv-x="305" />
<glyph unicode="&#x2007;" horiz-adv-x="305" />
<glyph unicode="&#x2008;" horiz-adv-x="229" />
<glyph unicode="&#x2009;" horiz-adv-x="366" />
<glyph unicode="&#x200a;" horiz-adv-x="101" />
<glyph unicode="&#x2010;" horiz-adv-x="612" d="M186 543q-6 18 0 43q2 12 6 23t8 15l3 5h405q9 -1 -5 -64q-6 -24 -9 -22h-408z" />
<glyph unicode="&#x2011;" horiz-adv-x="612" d="M186 543q-6 18 0 43q2 12 6 23t8 15l3 5h405q9 -1 -5 -64q-6 -24 -9 -22h-408z" />
<glyph unicode="&#x2012;" horiz-adv-x="612" d="M186 543q-6 18 0 43q2 12 6 23t8 15l3 5h405q9 -1 -5 -64q-6 -24 -9 -22h-408z" />
<glyph unicode="&#x2013;" horiz-adv-x="1009" d="M186 543q-6 18 0 43q2 12 6 23t8 15l3 5h803q4 -16 0 -43q-2 -11 -5.5 -22t-6.5 -16l-3 -5h-805z" />
<glyph unicode="&#x2014;" horiz-adv-x="1308" d="M186 543q-6 18 0 43q2 12 6 23t8 15l3 5h1102q4 -16 0 -43q-2 -11 -6 -22t-7 -16l-4 -5h-1102z" />
<glyph unicode="&#x2018;" horiz-adv-x="399" d="M305 1040q13 80 36.5 149.5t49 111.5t48.5 73t38 44l15 12q20 8 38 8q9 0 17.5 -2t12.5 -4l5 -2q-4 -5 -12 -14.5t-29 -45t-39.5 -76.5t-39 -109.5t-31.5 -144.5q-29 -8 -58 -8q-12 0 -25 2t-19 4z" />
<glyph unicode="&#x2019;" horiz-adv-x="399" d="M223 1040q4 5 12 14.5t29 44.5t39.5 76t39 110t32.5 145q28 8 55 8q13 0 26 -2t20 -4l7 -2q-13 -80 -36.5 -149.5t-48.5 -111.5t-48 -73t-38 -44l-15 -12q-21 -8 -39 -8q-9 0 -17.5 2t-12.5 4z" />
<glyph unicode="&#x201a;" horiz-adv-x="399" d="M29 -199q4 5 11.5 14.5t28.5 44t39 75.5t38.5 109t33.5 144q24 9 53 9q13 0 26.5 -2.5t20.5 -4.5l7 -2q-13 -79 -36.5 -148t-48.5 -111t-48 -72.5t-38 -42.5l-14 -13q-23 -8 -41 -8q-9 0 -17 2t-12 4z" />
<glyph unicode="&#x201c;" horiz-adv-x="630" d="M305 1040q13 80 36.5 149.5t49 111.5t48.5 73t38 44l15 12q20 8 38 8q9 0 17.5 -2t12.5 -4l5 -2q-4 -5 -12 -14.5t-29 -45t-39.5 -76.5t-39 -109.5t-31.5 -144.5q-29 -8 -58 -8q-12 0 -25 2t-19 4zM539 1040q13 80 36.5 149.5t48.5 111.5t48 73t38 44l15 12q19 8 37 8 q9 0 18 -2t14 -4l5 -2q-5 -5 -12.5 -14.5t-29 -45t-40 -76.5t-39.5 -109.5t-33 -144.5q-26 -8 -55 -8q-13 0 -25.5 2t-18.5 4z" />
<glyph unicode="&#x201d;" horiz-adv-x="630" d="M223 1040q4 5 12 14.5t29 44.5t39.5 76t39 110t32.5 145q28 8 55 8q13 0 26 -2t20 -4l7 -2q-13 -80 -36.5 -149.5t-48.5 -111.5t-48 -73t-38 -44l-15 -12q-21 -8 -39 -8q-9 0 -17.5 2t-12.5 4zM455 1040q4 5 11.5 14.5t29 44.5t40 76t39 110t33.5 145q27 8 56 8 q13 0 25.5 -2t18.5 -4l7 -2q-13 -80 -36.5 -149.5t-49 -111.5t-48.5 -73t-38 -44l-15 -12q-21 -8 -39 -8q-9 0 -17.5 2t-12.5 4z" />
<glyph unicode="&#x201e;" horiz-adv-x="630" d="M29 -199q4 5 11.5 14.5t28.5 44t39 75.5t38.5 109t33.5 144q24 9 53 9q13 0 26.5 -2.5t20.5 -4.5l7 -2q-13 -79 -36.5 -148t-48.5 -111t-48 -72.5t-38 -42.5l-14 -13q-23 -8 -41 -8q-9 0 -17 2t-12 4zM260 -199q4 5 12 14.5t29 44t39.5 75.5t39 109t32.5 144q26 9 53 9 q13 0 26 -2.5t20 -4.5l7 -2q-13 -79 -36.5 -148t-48.5 -111t-48 -72.5t-38 -42.5l-15 -13q-21 -8 -39 -8q-9 0 -17 2t-12 4z" />
<glyph unicode="&#x2022;" horiz-adv-x="600" d="M143 420q3 88 19 194q7 46 18.5 95t19.5 75l7 25q101 16 201 16q44 0 93 -4t76 -8l27 -4q-2 -91 -20 -195q-7 -45 -18 -93.5t-18 -74.5l-7 -26q-103 -17 -201 -17q-44 0 -93.5 4.5t-76.5 8.5z" />
<glyph unicode="&#x2026;" horiz-adv-x="1134" d="M145 4l31 189q31 10 66 10q15 0 30.5 -2.5t23.5 -4.5l9 -3l-31 -189q-34 -8 -67 -8q-15 0 -30.5 2t-23.5 4zM502 4l30 189q31 10 66 10q15 0 31 -2.5t25 -4.5l8 -3l-29 -189q-35 -8 -68 -8q-16 0 -31.5 2t-23.5 4zM860 4l31 189q30 10 65 10q15 0 31 -2.5t25 -4.5l8 -3 l-31 -189q-34 -8 -67 -8q-15 0 -30.5 2t-23.5 4z" />
<glyph unicode="&#x202f;" horiz-adv-x="366" />
<glyph unicode="&#x2039;" horiz-adv-x="610" d="M180 553l416 365q17 -7 33 -25q7 -7 12 -16t7 -14l1 -5l-340 -305l246 -303q-13 -19 -33 -37q-10 -8 -21 -14.5t-17 -8.5l-5 -2z" />
<glyph unicode="&#x203a;" horiz-adv-x="610" d="M135 250l340 303l-246 305q10 19 33 35q9 8 19 14.5t16 8.5l6 2l299 -365l-416 -365q-16 7 -32 25q-6 8 -11 17.5t-7 14.5z" />
<glyph unicode="&#x205f;" horiz-adv-x="458" />
<glyph unicode="&#x20ac;" horiz-adv-x="1208" d="M154 537q-8 0 5 60q6 26 9 24h106l29 184h-106q-4 16 0 43q2 12 6 23t7 15l3 5h106l33 225q26 161 148.5 243.5t369.5 82.5q89 0 164.5 -14t119.5 -34t76 -39.5t44 -33.5l12 -14q-9 -63 -21.5 -123.5t-20.5 -89.5l-9 -29q-16 -6 -39 -6q-10 0 -19.5 1.5t-13.5 3.5l-4 1 l8 190q-4 4 -12 10.5t-36.5 23t-61 29.5t-87 23.5t-114.5 10.5q-183 0 -266.5 -56.5t-102.5 -179.5l-34 -225h534q4 -16 0 -43q-2 -11 -6 -22t-7 -16l-3 -5h-533l-28 -184h532q1 -2 1.5 -5t1.5 -14t-1 -22q-2 -12 -6 -23t-7 -15l-3 -5h-533l-33 -220q-19 -123 49 -179 t257 -56q118 0 225 23.5t156 44t49 24.5q1 -2 2 -5.5t2 -16t-2 -25.5q-2 -13 -6.5 -24.5t-8.5 -16.5l-4 -6q-6 -4 -17.5 -9.5t-52 -21t-86.5 -27t-119.5 -21t-152.5 -9.5q-254 0 -353.5 82t-72.5 243l33 220h-106z" />
<glyph unicode="&#x2122;" horiz-adv-x="1357" d="M287 1405l10 29h475l2 -29l-10 -29h-191l-104 -657q-24 -4 -47 -4l-43 4l104 657h-194zM750 719l112 711q0 4 60 4l57 -4l127 -490l283 492q30 4 59 4l57 -4l-112 -713q-23 -4 -43 -4l-43 4l92 588l-271 -469q-18 -4 -38 -4l-39 4l-123 467l-92 -586q-20 -4 -43 -4z" />
<glyph unicode="&#x25fc;" horiz-adv-x="1024" d="M0 0v1024h1024v-1024h-1024z" />
</font>
</defs>
</svg>
